<svg xmlns="http://www.w3.org/2000/svg" width="771.2" height="545" font-family="DejaVu Sans, Liberation Sans, Arial, sans-serif" fill="black"><rect width="100%" height="100%" fill="white" /><line x1="72.19999999999999" y1="494" x2="672.2" y2="494" stroke="black" stroke-width="1" /><line x1="72.19999999999999" y1="44" x2="72.19999999999999" y2="494" stroke="black" stroke-width="1" /><line x1="172.2" y1="44" x2="172.2" y2="494" stroke="#ccc" stroke-width="1" /><line x1="272.2" y1="44" x2="272.2" y2="494" stroke="#ccc" stroke-width="1" /><line x1="372.2" y1="44" x2="372.2" y2="494" stroke="#ccc" stroke-width="1" /><line x1="472.2" y1="44" x2="472.2" y2="494" stroke="#ccc" stroke-width="1" /><line x1="572.2" y1="44" x2="572.2" y2="494" stroke="#ccc" stroke-width="1" /><line x1="672.2" y1="44" x2="672.2" y2="494" stroke="#ccc" stroke-width="1" /><line x1="72.19999999999999" y1="419" x2="672.2" y2="419" stroke="#ccc" stroke-width="1" /><line x1="72.19999999999999" y1="344" x2="672.2" y2="344" stroke="#ccc" stroke-width="1" /><line x1="72.19999999999999" y1="269" x2="672.2" y2="269" stroke="#ccc" stroke-width="1" /><line x1="72.19999999999999" y1="194" x2="672.2" y2="194" stroke="#ccc" stroke-width="1" /><line x1="72.19999999999999" y1="119" x2="672.2" y2="119" stroke="#ccc" stroke-width="1" /><line x1="72.19999999999999" y1="44" x2="672.2" y2="44" stroke="#ccc" stroke-width="1" /><line x1="72.19999999999999" y1="494" x2="72.19999999999999" y2="499" stroke="black" stroke-width="1" /><text x="72.19999999999999" y="511" font-size="12" text-anchor="middle">0</text><line x1="172.2" y1="494" x2="172.2" y2="499" stroke="black" stroke-width="1" /><text x="172.2" y="511" font-size="12" text-anchor="middle">5</text><line x1="272.2" y1="494" x2="272.2" y2="499" stroke="black" stroke-width="1" /><text x="272.2" y="511" font-size="12" text-anchor="middle">10</text><line x1="372.2" y1="494" x2="372.2" y2="499" stroke="black" stroke-width="1" /><text x="372.2" y="511" font-size="12" text-anchor="middle">15</text><line x1="472.2" y1="494" x2="472.2" y2="499" stroke="black" stroke-width="1" /><text x="472.2" y="511" font-size="12" text-anchor="middle">20</text><line x1="572.2" y1="494" x2="572.2" y2="499" stroke="black" stroke-width="1" /><text x="572.2" y="511" font-size="12" text-anchor="middle">25</text><line x1="672.2" y1="494" x2="672.2" y2="499" stroke="black" stroke-width="1" /><text x="672.2" y="511" font-size="12" text-anchor="middle">30</text><line x1="67.19999999999999" y1="494" x2="72.19999999999999" y2="494" stroke="black" stroke-width="1" /><text x="64.19999999999999" y="498.2" font-size="12" text-anchor="end">0</text><line x1="67.19999999999999" y1="419" x2="72.19999999999999" y2="419" stroke="black" stroke-width="1" /><text x="64.19999999999999" y="423.2" font-size="12" text-anchor="end">5</text><line x1="67.19999999999999" y1="344" x2="72.19999999999999" y2="344" stroke="black" stroke-width="1" /><text x="64.19999999999999" y="348.2" font-size="12" text-anchor="end">10</text><line x1="67.19999999999999" y1="269" x2="72.19999999999999" y2="269" stroke="black" stroke-width="1" /><text x="64.19999999999999" y="273.2" font-size="12" text-anchor="end">15</text><line x1="67.19999999999999" y1="194" x2="72.19999999999999" y2="194" stroke="black" stroke-width="1" /><text x="64.19999999999999" y="198.2" font-size="12" text-anchor="end">20</text><line x1="67.19999999999999" y1="119" x2="72.19999999999999" y2="119" stroke="black" stroke-width="1" /><text x="64.19999999999999" y="123.2" font-size="12" text-anchor="end">25</text><line x1="67.19999999999999" y1="44" x2="72.19999999999999" y2="44" stroke="black" stroke-width="1" /><text x="64.19999999999999" y="48.2" font-size="12" text-anchor="end">30</text><text x="385.6" y="538" font-size="14" text-anchor="middle">X</text><text x="14" y="272.5" font-size="14" text-anchor="middle" transform="rotate(-90,14,272.5)">Y</text><text x="385.6" y="22" font-size="18" text-anchor="middle">2D Histogram — Viridis</text><rect x="392.2" y="434" width="20" height="15" fill="rgb(69,4,88)" /><rect x="312.2" y="419" width="20" height="15" fill="rgb(69,4,88)" /><rect x="372.2" y="419" width="20" height="15" fill="rgb(69,4,88)" /><rect x="412.2" y="419" width="20" height="15" fill="rgb(69,4,88)" /><rect x="352.2" y="404" width="20" height="15" fill="rgb(69,4,88)" /><rect x="372.2" y="404" width="20" height="15" fill="rgb(69,4,88)" /><rect x="412.2" y="404" width="20" height="15" fill="rgb(69,4,88)" /><rect x="252.2" y="389" width="20" height="15" fill="rgb(69,4,88)" /><rect x="332.2" y="389" width="20" height="15" fill="rgb(70,13,96)" /><rect x="352.2" y="389" width="20" height="15" fill="rgb(69,8,92)" /><rect x="372.2" y="389" width="20" height="15" fill="rgb(71,16,99)" /><rect x="392.2" y="389" width="20" height="15" fill="rgb(69,8,92)" /><rect x="412.2" y="389" width="20" height="15" fill="rgb(69,4,88)" /><rect x="452.2" y="389" width="20" height="15" fill="rgb(69,4,88)" /><rect x="492.2" y="389" width="19.999999999999943" height="15" fill="rgb(69,4,88)" /><rect x="252.2" y="374" width="20" height="15" fill="rgb(69,4,88)" /><rect x="272.2" y="374" width="19.999999999999943" height="15" fill="rgb(69,8,92)" /><rect x="312.2" y="374" width="20" height="15" fill="rgb(69,4,88)" /><rect x="332.2" y="374" width="20" height="15" fill="rgb(71,16,99)" /><rect x="352.2" y="374" width="20" height="15" fill="rgb(70,13,96)" /><rect x="372.2" y="374" width="20" height="15" fill="rgb(70,13,96)" /><rect x="392.2" y="374" width="20" height="15" fill="rgb(72,24,106)" /><rect x="432.2" y="374" width="20" height="15" fill="rgb(69,8,92)" /><rect x="452.2" y="374" width="20" height="15" fill="rgb(69,4,88)" /><rect x="472.2" y="374" width="20" height="15" fill="rgb(69,4,88)" /><rect x="532.2" y="374" width="20" height="15" fill="rgb(69,4,88)" /><rect x="212.2" y="359" width="20" height="15" fill="rgb(69,4,88)" /><rect x="232.2" y="359" width="20" height="15" fill="rgb(69,4,88)" /><rect x="252.2" y="359" width="20" height="15" fill="rgb(69,8,92)" /><rect x="272.2" y="359" width="19.999999999999943" height="15" fill="rgb(70,13,96)" /><rect x="292.19999999999993" y="359" width="20.000000000000057" height="15" fill="rgb(72,24,106)" /><rect x="312.2" y="359" width="20" height="15" fill="rgb(71,27,109)" /><rect x="332.2" y="359" width="20" height="15" fill="rgb(72,24,106)" /><rect x="352.2" y="359" width="20" height="15" fill="rgb(72,24,106)" /><rect x="372.2" y="359" width="20" height="15" fill="rgb(71,41,121)" /><rect x="392.2" y="359" width="20" height="15" fill="rgb(72,38,119)" /><rect x="412.2" y="359" width="20" height="15" fill="rgb(71,41,121)" /><rect x="432.2" y="359" width="20" height="15" fill="rgb(72,24,106)" /><rect x="472.2" y="359" width="20" height="15" fill="rgb(69,4,88)" /><rect x="252.2" y="344" width="20" height="15" fill="rgb(69,4,88)" /><rect x="272.2" y="344" width="19.999999999999943" height="15" fill="rgb(70,13,96)" /><rect x="292.19999999999993" y="344" width="20.000000000000057" height="15" fill="rgb(71,27,109)" /><rect x="312.2" y="344" width="20" height="15" fill="rgb(72,31,112)" /><rect x="332.2" y="344" width="20" height="15" fill="rgb(64,68,135)" /><rect x="352.2" y="344" width="20" height="15" fill="rgb(66,62,132)" /><rect x="372.2" y="344" width="20" height="15" fill="rgb(69,51,127)" /><rect x="392.2" y="344" width="20" height="15" fill="rgb(66,62,132)" /><rect x="412.2" y="344" width="20" height="15" fill="rgb(66,62,132)" /><rect x="432.2" y="344" width="20" height="15" fill="rgb(72,35,116)" /><rect x="452.2" y="344" width="20" height="15" fill="rgb(71,27,109)" /><rect x="472.2" y="344" width="20" height="15" fill="rgb(69,8,92)" /><rect x="492.2" y="344" width="19.999999999999943" height="15" fill="rgb(69,4,88)" /><rect x="512.1999999999999" y="344" width="20.000000000000114" height="15" fill="rgb(69,8,92)" /><rect x="172.2" y="329" width="20" height="15" fill="rgb(69,8,92)" /><rect x="212.2" y="329" width="20" height="15" fill="rgb(69,4,88)" /><rect x="232.2" y="329" width="20" height="15" fill="rgb(71,16,99)" /><rect x="252.2" y="329" width="20" height="15" fill="rgb(72,24,106)" /><rect x="272.2" y="329" width="19.999999999999943" height="15" fill="rgb(71,21,103)" /><rect x="292.19999999999993" y="329" width="20.000000000000057" height="15" fill="rgb(66,62,132)" /><rect x="312.2" y="329" width="20" height="15" fill="rgb(63,71,136)" /><rect x="332.2" y="329" width="20" height="15" fill="rgb(52,94,141)" /><rect x="352.2" y="329" width="20" height="15" fill="rgb(48,103,142)" /><rect x="372.2" y="329" width="20" height="15" fill="rgb(60,77,138)" /><rect x="392.2" y="329" width="20" height="15" fill="rgb(55,89,140)" /><rect x="412.2" y="329" width="20" height="15" fill="rgb(68,55,129)" /><rect x="432.2" y="329" width="20" height="15" fill="rgb(72,38,119)" /><rect x="452.2" y="329" width="20" height="15" fill="rgb(72,35,116)" /><rect x="472.2" y="329" width="20" height="15" fill="rgb(71,27,109)" /><rect x="492.2" y="329" width="19.999999999999943" height="15" fill="rgb(70,13,96)" /><rect x="512.1999999999999" y="329" width="20.000000000000114" height="15" fill="rgb(70,13,96)" /><rect x="532.2" y="329" width="20" height="15" fill="rgb(69,4,88)" /><rect x="212.2" y="314" width="20" height="15" fill="rgb(69,4,88)" /><rect x="232.2" y="314" width="20" height="15" fill="rgb(69,8,92)" /><rect x="252.2" y="314" width="20" height="15" fill="rgb(72,38,119)" /><rect x="272.2" y="314" width="19.999999999999943" height="15" fill="rgb(64,68,135)" /><rect x="292.19999999999993" y="314" width="20.000000000000057" height="15" fill="rgb(70,48,125)" /><rect x="312.2" y="314" width="20" height="15" fill="rgb(44,113,141)" /><rect x="332.2" y="314" width="20" height="15" fill="rgb(31,151,138)" /><rect x="352.2" y="314" width="20" height="15" fill="rgb(31,161,135)" /><rect x="372.2" y="314" width="20" height="15" fill="rgb(41,121,142)" /><rect x="392.2" y="314" width="20" height="15" fill="rgb(48,103,142)" /><rect x="412.2" y="314" width="20" height="15" fill="rgb(58,83,139)" /><rect x="432.2" y="314" width="20" height="15" fill="rgb(58,83,139)" /><rect x="452.2" y="314" width="20" height="15" fill="rgb(71,27,109)" /><rect x="472.2" y="314" width="20" height="15" fill="rgb(72,24,106)" /><rect x="492.2" y="314" width="19.999999999999943" height="15" fill="rgb(71,21,103)" /><rect x="512.1999999999999" y="314" width="20.000000000000114" height="15" fill="rgb(69,8,92)" /><rect x="532.2" y="314" width="20" height="15" fill="rgb(69,8,92)" /><rect x="552.2" y="314" width="20" height="15" fill="rgb(69,4,88)" /><rect x="192.2" y="299" width="20" height="15" fill="rgb(70,13,96)" /><rect x="212.2" y="299" width="20" height="15" fill="rgb(71,21,103)" /><rect x="232.2" y="299" width="20" height="15" fill="rgb(71,16,99)" /><rect x="252.2" y="299" width="20" height="15" fill="rgb(71,27,109)" /><rect x="272.2" y="299" width="19.999999999999943" height="15" fill="rgb(67,58,131)" /><rect x="292.19999999999993" y="299" width="20.000000000000057" height="15" fill="rgb(47,105,142)" /><rect x="312.2" y="299" width="20" height="15" fill="rgb(31,151,138)" /><rect x="332.2" y="299" width="20" height="15" fill="rgb(84,197,103)" /><rect x="352.2" y="299" width="20" height="15" fill="rgb(133,212,73)" /><rect x="372.2" y="299" width="20" height="15" fill="rgb(31,148,139)" /><rect x="392.2" y="299" width="20" height="15" fill="rgb(32,164,133)" /><rect x="412.2" y="299" width="20" height="15" fill="rgb(31,148,139)" /><rect x="432.2" y="299" width="20" height="15" fill="rgb(42,118,142)" /><rect x="452.2" y="299" width="20" height="15" fill="rgb(64,68,135)" /><rect x="472.2" y="299" width="20" height="15" fill="rgb(71,21,103)" /><rect x="492.2" y="299" width="19.999999999999943" height="15" fill="rgb(71,16,99)" /><rect x="512.1999999999999" y="299" width="20.000000000000114" height="15" fill="rgb(69,4,88)" /><rect x="532.2" y="299" width="20" height="15" fill="rgb(69,4,88)" /><rect x="552.2" y="299" width="20" height="15" fill="rgb(69,4,88)" /><rect x="192.2" y="284" width="20" height="15" fill="rgb(69,8,92)" /><rect x="212.2" y="284" width="20" height="15" fill="rgb(70,13,96)" /><rect x="232.2" y="284" width="20" height="15" fill="rgb(70,13,96)" /><rect x="252.2" y="284" width="20" height="15" fill="rgb(71,41,121)" /><rect x="272.2" y="284" width="19.999999999999943" height="15" fill="rgb(55,89,140)" /><rect x="292.19999999999993" y="284" width="20.000000000000057" height="15" fill="rgb(50,100,141)" /><rect x="312.2" y="284" width="20" height="15" fill="rgb(31,161,135)" /><rect x="332.2" y="284" width="20" height="15" fill="rgb(68,191,111)" /><rect x="352.2" y="284" width="20" height="15" fill="rgb(101,203,93)" /><rect x="372.2" y="284" width="20" height="15" fill="rgb(154,216,60)" /><rect x="392.2" y="284" width="20" height="15" fill="rgb(35,169,130)" /><rect x="412.2" y="284" width="20" height="15" fill="rgb(58,186,117)" /><rect x="432.2" y="284" width="20" height="15" fill="rgb(41,121,142)" /><rect x="452.2" y="284" width="20" height="15" fill="rgb(51,97,141)" /><rect x="472.2" y="284" width="20" height="15" fill="rgb(63,71,136)" /><rect x="492.2" y="284" width="19.999999999999943" height="15" fill="rgb(72,31,112)" /><rect x="532.2" y="284" width="20" height="15" fill="rgb(69,4,88)" /><rect x="572.2" y="284" width="20" height="15" fill="rgb(69,4,88)" /><rect x="192.2" y="269" width="20" height="15" fill="rgb(70,13,96)" /><rect x="232.2" y="269" width="20" height="15" fill="rgb(70,45,123)" /><rect x="252.2" y="269" width="20" height="15" fill="rgb(72,38,119)" /><rect x="272.2" y="269" width="19.999999999999943" height="15" fill="rgb(58,83,139)" /><rect x="292.19999999999993" y="269" width="20.000000000000057" height="15" fill="rgb(37,130,142)" /><rect x="312.2" y="269" width="20" height="15" fill="rgb(68,191,111)" /><rect x="332.2" y="269" width="20" height="15" fill="rgb(190,222,37)" /><rect x="352.2" y="269" width="20" height="15" fill="rgb(161,218,55)" /><rect x="372.2" y="269" width="20" height="15" fill="rgb(246,230,32)" /><rect x="392.2" y="269" width="20" height="15" fill="rgb(154,216,60)" /><rect x="412.2" y="269" width="20" height="15" fill="rgb(32,164,133)" /><rect x="432.2" y="269" width="20" height="15" fill="rgb(42,118,142)" /><rect x="452.2" y="269" width="20" height="15" fill="rgb(48,103,142)" /><rect x="472.2" y="269" width="20" height="15" fill="rgb(68,55,129)" /><rect x="492.2" y="269" width="19.999999999999943" height="15" fill="rgb(71,21,103)" /><rect x="512.1999999999999" y="269" width="20.000000000000114" height="15" fill="rgb(69,8,92)" /><rect x="532.2" y="269" width="20" height="15" fill="rgb(69,8,92)" /><rect x="192.2" y="254" width="20" height="15" fill="rgb(69,4,88)" /><rect x="212.2" y="254" width="20" height="15" fill="rgb(69,8,92)" /><rect x="232.2" y="254" width="20" height="15" fill="rgb(71,27,109)" /><rect x="252.2" y="254" width="20" height="15" fill="rgb(59,80,138)" /><rect x="272.2" y="254" width="19.999999999999943" height="15" fill="rgb(59,80,138)" /><rect x="292.19999999999993" y="254" width="20.000000000000057" height="15" fill="rgb(31,146,140)" /><rect x="312.2" y="254" width="20" height="15" fill="rgb(68,191,111)" /><rect x="332.2" y="254" width="20" height="15" fill="rgb(133,212,73)" /><rect x="352.2" y="254" width="20" height="15" fill="rgb(84,197,103)" /><rect x="372.2" y="254" width="20" height="15" fill="rgb(253,231,37)" /><rect x="392.2" y="254" width="20" height="15" fill="rgb(161,218,55)" /><rect x="412.2" y="254" width="20" height="15" fill="rgb(46,179,124)" /><rect x="432.2" y="254" width="20" height="15" fill="rgb(39,126,142)" /><rect x="452.2" y="254" width="20" height="15" fill="rgb(56,85,139)" /><rect x="472.2" y="254" width="20" height="15" fill="rgb(65,64,134)" /><rect x="492.2" y="254" width="19.999999999999943" height="15" fill="rgb(70,45,123)" /><rect x="512.1999999999999" y="254" width="20.000000000000114" height="15" fill="rgb(70,13,96)" /><rect x="532.2" y="254" width="20" height="15" fill="rgb(69,4,88)" /><rect x="552.2" y="254" width="20" height="15" fill="rgb(69,4,88)" /><rect x="592.2" y="254" width="20" height="15" fill="rgb(69,4,88)" /><rect x="112.19999999999999" y="239" width="20" height="15" fill="rgb(69,4,88)" /><rect x="192.2" y="239" width="20" height="15" fill="rgb(69,4,88)" /><rect x="212.2" y="239" width="20" height="15" fill="rgb(71,16,99)" /><rect x="232.2" y="239" width="20" height="15" fill="rgb(72,35,116)" /><rect x="252.2" y="239" width="20" height="15" fill="rgb(72,35,116)" /><rect x="272.2" y="239" width="19.999999999999943" height="15" fill="rgb(48,103,142)" /><rect x="292.19999999999993" y="239" width="20.000000000000057" height="15" fill="rgb(31,148,139)" /><rect x="312.2" y="239" width="20" height="15" fill="rgb(31,151,138)" /><rect x="332.2" y="239" width="20" height="15" fill="rgb(54,183,120)" /><rect x="352.2" y="239" width="20" height="15" fill="rgb(219,226,24)" /><rect x="372.2" y="239" width="20" height="15" fill="rgb(54,183,120)" /><rect x="392.2" y="239" width="20" height="15" fill="rgb(84,197,103)" /><rect x="412.2" y="239" width="20" height="15" fill="rgb(50,181,121)" /><rect x="432.2" y="239" width="20" height="15" fill="rgb(30,157,136)" /><rect x="452.2" y="239" width="20" height="15" fill="rgb(56,85,139)" /><rect x="472.2" y="239" width="20" height="15" fill="rgb(63,71,136)" /><rect x="492.2" y="239" width="19.999999999999943" height="15" fill="rgb(71,27,109)" /><rect x="512.1999999999999" y="239" width="20.000000000000114" height="15" fill="rgb(70,13,96)" /><rect x="532.2" y="239" width="20" height="15" fill="rgb(69,4,88)" /><rect x="552.2" y="239" width="20" height="15" fill="rgb(69,4,88)" /><rect x="192.2" y="224" width="20" height="15" fill="rgb(69,4,88)" /><rect x="212.2" y="224" width="20" height="15" fill="rgb(70,13,96)" /><rect x="232.2" y="224" width="20" height="15" fill="rgb(71,16,99)" /><rect x="252.2" y="224" width="20" height="15" fill="rgb(70,45,123)" /><rect x="272.2" y="224" width="19.999999999999943" height="15" fill="rgb(65,64,134)" /><rect x="292.19999999999993" y="224" width="20.000000000000057" height="15" fill="rgb(45,111,142)" /><rect x="312.2" y="224" width="20" height="15" fill="rgb(39,126,142)" /><rect x="332.2" y="224" width="20" height="15" fill="rgb(36,133,142)" /><rect x="352.2" y="224" width="20" height="15" fill="rgb(63,188,114)" /><rect x="372.2" y="224" width="20" height="15" fill="rgb(120,208,82)" /><rect x="392.2" y="224" width="20" height="15" fill="rgb(34,139,141)" /><rect x="412.2" y="224" width="20" height="15" fill="rgb(40,174,127)" /><rect x="432.2" y="224" width="20" height="15" fill="rgb(50,100,141)" /><rect x="452.2" y="224" width="20" height="15" fill="rgb(52,94,141)" /><rect x="472.2" y="224" width="20" height="15" fill="rgb(72,31,112)" /><rect x="492.2" y="224" width="19.999999999999943" height="15" fill="rgb(71,16,99)" /><rect x="512.1999999999999" y="224" width="20.000000000000114" height="15" fill="rgb(70,13,96)" /><rect x="532.2" y="224" width="20" height="15" fill="rgb(70,13,96)" /><rect x="552.2" y="224" width="20" height="15" fill="rgb(69,4,88)" /><rect x="192.2" y="209" width="20" height="15" fill="rgb(69,4,88)" /><rect x="212.2" y="209" width="20" height="15" fill="rgb(69,4,88)" /><rect x="232.2" y="209" width="20" height="15" fill="rgb(71,21,103)" /><rect x="252.2" y="209" width="20" height="15" fill="rgb(72,31,112)" /><rect x="272.2" y="209" width="19.999999999999943" height="15" fill="rgb(71,41,121)" /><rect x="292.19999999999993" y="209" width="20.000000000000057" height="15" fill="rgb(60,77,138)" /><rect x="312.2" y="209" width="20" height="15" fill="rgb(58,83,139)" /><rect x="332.2" y="209" width="20" height="15" fill="rgb(37,130,142)" /><rect x="352.2" y="209" width="20" height="15" fill="rgb(31,148,139)" /><rect x="372.2" y="209" width="20" height="15" fill="rgb(36,133,142)" /><rect x="392.2" y="209" width="20" height="15" fill="rgb(52,94,141)" /><rect x="412.2" y="209" width="20" height="15" fill="rgb(51,97,141)" /><rect x="432.2" y="209" width="20" height="15" fill="rgb(55,89,140)" /><rect x="452.2" y="209" width="20" height="15" fill="rgb(70,48,125)" /><rect x="472.2" y="209" width="20" height="15" fill="rgb(72,35,116)" /><rect x="492.2" y="209" width="19.999999999999943" height="15" fill="rgb(70,13,96)" /><rect x="512.1999999999999" y="209" width="20.000000000000114" height="15" fill="rgb(69,8,92)" /><rect x="552.2" y="209" width="20" height="15" fill="rgb(69,8,92)" /><rect x="232.2" y="194" width="20" height="15" fill="rgb(69,4,88)" /><rect x="252.2" y="194" width="20" height="15" fill="rgb(71,27,109)" /><rect x="272.2" y="194" width="19.999999999999943" height="15" fill="rgb(72,31,112)" /><rect x="292.19999999999993" y="194" width="20.000000000000057" height="15" fill="rgb(65,64,134)" /><rect x="312.2" y="194" width="20" height="15" fill="rgb(59,80,138)" /><rect x="332.2" y="194" width="20" height="15" fill="rgb(58,83,139)" /><rect x="352.2" y="194" width="20" height="15" fill="rgb(55,89,140)" /><rect x="372.2" y="194" width="20" height="15" fill="rgb(58,83,139)" /><rect x="392.2" y="194" width="20" height="15" fill="rgb(58,83,139)" /><rect x="412.2" y="194" width="20" height="15" fill="rgb(64,68,135)" /><rect x="432.2" y="194" width="20" height="15" fill="rgb(63,71,136)" /><rect x="452.2" y="194" width="20" height="15" fill="rgb(72,24,106)" /><rect x="472.2" y="194" width="20" height="15" fill="rgb(70,13,96)" /><rect x="492.2" y="194" width="19.999999999999943" height="15" fill="rgb(71,21,103)" /><rect x="512.1999999999999" y="194" width="20.000000000000114" height="15" fill="rgb(71,16,99)" /><rect x="212.2" y="179" width="20" height="15" fill="rgb(69,8,92)" /><rect x="232.2" y="179" width="20" height="15" fill="rgb(69,4,88)" /><rect x="252.2" y="179" width="20" height="15" fill="rgb(70,13,96)" /><rect x="272.2" y="179" width="19.999999999999943" height="15" fill="rgb(72,31,112)" /><rect x="292.19999999999993" y="179" width="20.000000000000057" height="15" fill="rgb(71,27,109)" /><rect x="312.2" y="179" width="20" height="15" fill="rgb(70,48,125)" /><rect x="332.2" y="179" width="20" height="15" fill="rgb(67,58,131)" /><rect x="352.2" y="179" width="20" height="15" fill="rgb(66,62,132)" /><rect x="372.2" y="179" width="20" height="15" fill="rgb(63,71,136)" /><rect x="392.2" y="179" width="20" height="15" fill="rgb(63,71,136)" /><rect x="412.2" y="179" width="20" height="15" fill="rgb(72,31,112)" /><rect x="432.2" y="179" width="20" height="15" fill="rgb(65,64,134)" /><rect x="452.2" y="179" width="20" height="15" fill="rgb(70,13,96)" /><rect x="472.2" y="179" width="20" height="15" fill="rgb(69,4,88)" /><rect x="512.1999999999999" y="179" width="20.000000000000114" height="15" fill="rgb(69,4,88)" /><rect x="232.2" y="164" width="20" height="15" fill="rgb(69,4,88)" /><rect x="252.2" y="164" width="20" height="15" fill="rgb(69,8,92)" /><rect x="272.2" y="164" width="19.999999999999943" height="15" fill="rgb(71,21,103)" /><rect x="292.19999999999993" y="164" width="20.000000000000057" height="15" fill="rgb(72,31,112)" /><rect x="312.2" y="164" width="20" height="15" fill="rgb(72,24,106)" /><rect x="332.2" y="164" width="20" height="15" fill="rgb(72,38,119)" /><rect x="352.2" y="164" width="20" height="15" fill="rgb(69,51,127)" /><rect x="372.2" y="164" width="20" height="15" fill="rgb(71,21,103)" /><rect x="392.2" y="164" width="20" height="15" fill="rgb(71,21,103)" /><rect x="412.2" y="164" width="20" height="15" fill="rgb(71,27,109)" /><rect x="432.2" y="164" width="20" height="15" fill="rgb(71,21,103)" /><rect x="452.2" y="164" width="20" height="15" fill="rgb(69,4,88)" /><rect x="572.2" y="164" width="20" height="15" fill="rgb(69,4,88)" /><rect x="252.2" y="149" width="20" height="15" fill="rgb(69,4,88)" /><rect x="272.2" y="149" width="19.999999999999943" height="15" fill="rgb(70,13,96)" /><rect x="292.19999999999993" y="149" width="20.000000000000057" height="15" fill="rgb(69,8,92)" /><rect x="312.2" y="149" width="20" height="15" fill="rgb(69,8,92)" /><rect x="332.2" y="149" width="20" height="15" fill="rgb(69,8,92)" /><rect x="352.2" y="149" width="20" height="15" fill="rgb(70,13,96)" /><rect x="372.2" y="149" width="20" height="15" fill="rgb(71,21,103)" /><rect x="392.2" y="149" width="20" height="15" fill="rgb(72,31,112)" /><rect x="412.2" y="149" width="20" height="15" fill="rgb(70,13,96)" /><rect x="432.2" y="149" width="20" height="15" fill="rgb(69,8,92)" /><rect x="452.2" y="149" width="20" height="15" fill="rgb(69,4,88)" /><rect x="472.2" y="149" width="20" height="15" fill="rgb(69,8,92)" /><rect x="492.2" y="149" width="19.999999999999943" height="15" fill="rgb(69,4,88)" /><rect x="252.2" y="134" width="20" height="15" fill="rgb(69,4,88)" /><rect x="312.2" y="134" width="20" height="15" fill="rgb(69,4,88)" /><rect x="332.2" y="134" width="20" height="15" fill="rgb(69,8,92)" /><rect x="352.2" y="134" width="20" height="15" fill="rgb(70,13,96)" /><rect x="372.2" y="134" width="20" height="15" fill="rgb(69,4,88)" /><rect x="412.2" y="134" width="20" height="15" fill="rgb(69,4,88)" /><rect x="432.2" y="134" width="20" height="15" fill="rgb(69,4,88)" /><rect x="452.2" y="134" width="20" height="15" fill="rgb(69,8,92)" /><rect x="472.2" y="134" width="20" height="15" fill="rgb(69,8,92)" /><rect x="312.2" y="119" width="20" height="15" fill="rgb(69,4,88)" /><rect x="372.2" y="119" width="20" height="15" fill="rgb(69,8,92)" /><rect x="392.2" y="119" width="20" height="15" fill="rgb(69,4,88)" /><rect x="412.2" y="119" width="20" height="15" fill="rgb(69,4,88)" /><rect x="332.2" y="104" width="20" height="15" fill="rgb(69,4,88)" /><rect x="432.2" y="104" width="20" height="15" fill="rgb(69,4,88)" /><rect x="701.2" y="89" width="20" height="7.7" fill="rgb(253,231,37)" /><rect x="701.2" y="96.2" width="20" height="7.7" fill="rgb(240,229,28)" /><rect x="701.2" y="103.4" width="20" height="7.7" fill="rgb(227,227,24)" /><rect x="701.2" y="110.6" width="20" height="7.7" fill="rgb(214,226,25)" /><rect x="701.2" y="117.8" width="20" height="7.7" fill="rgb(200,224,31)" /><rect x="701.2" y="125" width="20" height="7.7" fill="rgb(186,222,39)" /><rect x="701.2" y="132.2" width="20" height="7.7" fill="rgb(172,220,48)" /><rect x="701.2" y="139.4" width="20" height="7.7" fill="rgb(158,217,57)" /><rect x="701.2" y="146.6" width="20" height="7.7" fill="rgb(145,214,66)" /><rect x="701.2" y="153.8" width="20" height="7.7" fill="rgb(132,212,74)" /><rect x="701.2" y="161" width="20" height="7.7" fill="rgb(119,208,82)" /><rect x="701.2" y="168.2" width="20" height="7.7" fill="rgb(107,205,90)" /><rect x="701.2" y="175.4" width="20" height="7.7" fill="rgb(95,201,96)" /><rect x="701.2" y="182.60000000000002" width="20" height="7.7" fill="rgb(84,197,103)" /><rect x="701.2" y="189.8" width="20" height="7.7" fill="rgb(74,193,108)" /><rect x="701.2" y="197" width="20" height="7.7" fill="rgb(64,188,114)" /><rect x="701.2" y="204.2" width="20" height="7.7" fill="rgb(55,184,119)" /><rect x="701.2" y="211.4" width="20" height="7.7" fill="rgb(48,180,123)" /><rect x="701.2" y="218.6" width="20" height="7.7" fill="rgb(41,175,127)" /><rect x="701.2" y="225.8" width="20" height="7.7" fill="rgb(36,171,130)" /><rect x="701.2" y="233" width="20" height="7.7" fill="rgb(33,165,133)" /><rect x="701.2" y="240.20000000000002" width="20" height="7.7" fill="rgb(31,161,135)" /><rect x="701.2" y="247.4" width="20" height="7.7" fill="rgb(30,156,137)" /><rect x="701.2" y="254.6" width="20" height="7.7" fill="rgb(31,151,138)" /><rect x="701.2" y="261.8" width="20" height="7.7" fill="rgb(31,146,140)" /><rect x="701.2" y="269" width="20" height="7.7" fill="rgb(33,141,141)" /><rect x="701.2" y="276.20000000000005" width="20" height="7.7" fill="rgb(35,136,141)" /><rect x="701.2" y="283.4" width="20" height="7.7" fill="rgb(37,131,142)" /><rect x="701.2" y="290.6" width="20" height="7.7" fill="rgb(38,127,141)" /><rect x="701.2" y="297.8" width="20" height="7.7" fill="rgb(40,122,142)" /><rect x="701.2" y="305" width="20" height="7.7" fill="rgb(42,116,141)" /><rect x="701.2" y="312.20000000000005" width="20" height="7.7" fill="rgb(44,112,142)" /><rect x="701.2" y="319.4" width="20" height="7.7" fill="rgb(47,107,142)" /><rect x="701.2" y="326.6" width="20" height="7.7" fill="rgb(49,102,142)" /><rect x="701.2" y="333.8" width="20" height="7.7" fill="rgb(51,97,140)" /><rect x="701.2" y="341" width="20" height="7.7" fill="rgb(54,91,140)" /><rect x="701.2" y="348.2" width="20" height="7.7" fill="rgb(56,85,140)" /><rect x="701.2" y="355.40000000000003" width="20" height="7.7" fill="rgb(59,80,138)" /><rect x="701.2" y="362.6" width="20" height="7.7" fill="rgb(61,74,137)" /><rect x="701.2" y="369.8" width="20" height="7.7" fill="rgb(64,69,135)" /><rect x="701.2" y="377" width="20" height="7.7" fill="rgb(66,62,133)" /><rect x="701.2" y="384.2" width="20" height="7.7" fill="rgb(68,56,130)" /><rect x="701.2" y="391.40000000000003" width="20" height="7.7" fill="rgb(70,50,126)" /><rect x="701.2" y="398.6" width="20" height="7.7" fill="rgb(71,44,122)" /><rect x="701.2" y="405.8" width="20" height="7.7" fill="rgb(72,37,118)" /><rect x="701.2" y="413" width="20" height="7.7" fill="rgb(71,30,111)" /><rect x="701.2" y="420.2" width="20" height="7.7" fill="rgb(72,23,105)" /><rect x="701.2" y="427.40000000000003" width="20" height="7.7" fill="rgb(71,16,99)" /><rect x="701.2" y="434.6" width="20" height="7.7" fill="rgb(70,8,92)" /><rect x="701.2" y="441.8" width="20" height="7.7" fill="rgb(68,1,84)" /><rect x="701.2" y="89" width="20" height="360" fill="none" stroke="black" stroke-width="1" /><line x1="721.2" y1="449" x2="725.2" y2="449" stroke="black" stroke-width="1" /><text x="727.2" y="453" font-size="12" text-anchor="start">0.0</text><line x1="721.2" y1="372.40425531914894" x2="725.2" y2="372.40425531914894" stroke="black" stroke-width="1" /><text x="727.2" y="376.40425531914894" font-size="12" text-anchor="start">20.0</text><line x1="721.2" y1="295.8085106382979" x2="725.2" y2="295.8085106382979" stroke="black" stroke-width="1" /><text x="727.2" y="299.8085106382979" font-size="12" text-anchor="start">40.0</text><line x1="721.2" y1="219.2127659574468" x2="725.2" y2="219.2127659574468" stroke="black" stroke-width="1" /><text x="727.2" y="223.2127659574468" font-size="12" text-anchor="start">60.0</text><line x1="721.2" y1="142.61702127659572" x2="725.2" y2="142.61702127659572" stroke="black" stroke-width="1" /><text x="727.2" y="146.61702127659572" font-size="12" text-anchor="start">80.0</text><text x="711.2" y="83" font-size="12" text-anchor="middle">Count</text></svg>