<svg xmlns="http://www.w3.org/2000/svg" width="771.2" height="545" font-family="DejaVu Sans, Liberation Sans, Arial, sans-serif" fill="black"><rect width="100%" height="100%" fill="white" /><line x1="72.19999999999999" y1="494" x2="672.2" y2="494" stroke="black" stroke-width="1" /><line x1="72.19999999999999" y1="44" x2="72.19999999999999" y2="494" stroke="black" stroke-width="1" /><line x1="172.2" y1="44" x2="172.2" y2="494" stroke="#ccc" stroke-width="1" /><line x1="272.2" y1="44" x2="272.2" y2="494" stroke="#ccc" stroke-width="1" /><line x1="372.2" y1="44" x2="372.2" y2="494" stroke="#ccc" stroke-width="1" /><line x1="472.2" y1="44" x2="472.2" y2="494" stroke="#ccc" stroke-width="1" /><line x1="572.2" y1="44" x2="572.2" y2="494" stroke="#ccc" stroke-width="1" /><line x1="672.2" y1="44" x2="672.2" y2="494" stroke="#ccc" stroke-width="1" /><line x1="72.19999999999999" y1="419" x2="672.2" y2="419" stroke="#ccc" stroke-width="1" /><line x1="72.19999999999999" y1="344" x2="672.2" y2="344" stroke="#ccc" stroke-width="1" /><line x1="72.19999999999999" y1="269" x2="672.2" y2="269" stroke="#ccc" stroke-width="1" /><line x1="72.19999999999999" y1="194" x2="672.2" y2="194" stroke="#ccc" stroke-width="1" /><line x1="72.19999999999999" y1="119" x2="672.2" y2="119" stroke="#ccc" stroke-width="1" /><line x1="72.19999999999999" y1="44" x2="672.2" y2="44" stroke="#ccc" stroke-width="1" /><line x1="72.19999999999999" y1="494" x2="72.19999999999999" y2="499" stroke="black" stroke-width="1" /><text x="72.19999999999999" y="511" font-size="12" text-anchor="middle">0</text><line x1="172.2" y1="494" x2="172.2" y2="499" stroke="black" stroke-width="1" /><text x="172.2" y="511" font-size="12" text-anchor="middle">5</text><line x1="272.2" y1="494" x2="272.2" y2="499" stroke="black" stroke-width="1" /><text x="272.2" y="511" font-size="12" text-anchor="middle">10</text><line x1="372.2" y1="494" x2="372.2" y2="499" stroke="black" stroke-width="1" /><text x="372.2" y="511" font-size="12" text-anchor="middle">15</text><line x1="472.2" y1="494" x2="472.2" y2="499" stroke="black" stroke-width="1" /><text x="472.2" y="511" font-size="12" text-anchor="middle">20</text><line x1="572.2" y1="494" x2="572.2" y2="499" stroke="black" stroke-width="1" /><text x="572.2" y="511" font-size="12" text-anchor="middle">25</text><line x1="672.2" y1="494" x2="672.2" y2="499" stroke="black" stroke-width="1" /><text x="672.2" y="511" font-size="12" text-anchor="middle">30</text><line x1="67.19999999999999" y1="494" x2="72.19999999999999" y2="494" stroke="black" stroke-width="1" /><text x="64.19999999999999" y="498.2" font-size="12" text-anchor="end">0</text><line x1="67.19999999999999" y1="419" x2="72.19999999999999" y2="419" stroke="black" stroke-width="1" /><text x="64.19999999999999" y="423.2" font-size="12" text-anchor="end">5</text><line x1="67.19999999999999" y1="344" x2="72.19999999999999" y2="344" stroke="black" stroke-width="1" /><text x="64.19999999999999" y="348.2" font-size="12" text-anchor="end">10</text><line x1="67.19999999999999" y1="269" x2="72.19999999999999" y2="269" stroke="black" stroke-width="1" /><text x="64.19999999999999" y="273.2" font-size="12" text-anchor="end">15</text><line x1="67.19999999999999" y1="194" x2="72.19999999999999" y2="194" stroke="black" stroke-width="1" /><text x="64.19999999999999" y="198.2" font-size="12" text-anchor="end">20</text><line x1="67.19999999999999" y1="119" x2="72.19999999999999" y2="119" stroke="black" stroke-width="1" /><text x="64.19999999999999" y="123.2" font-size="12" text-anchor="end">25</text><line x1="67.19999999999999" y1="44" x2="72.19999999999999" y2="44" stroke="black" stroke-width="1" /><text x="64.19999999999999" y="48.2" font-size="12" text-anchor="end">30</text><text x="385.6" y="538" font-size="14" text-anchor="middle">X</text><text x="14" y="272.5" font-size="14" text-anchor="middle" transform="rotate(-90,14,272.5)">Y</text><text x="385.6" y="22" font-size="18" text-anchor="middle">Grayscale — 10×10 bins</text><rect x="432.2" y="449" width="60" height="45" fill="rgb(254,254,254)" /><rect x="132.2" y="404" width="60" height="45" fill="rgb(254,254,254)" /><rect x="192.2" y="404" width="60" height="45" fill="rgb(254,254,254)" /><rect x="252.2" y="404" width="60" height="45" fill="rgb(254,254,254)" /><rect x="312.2" y="404" width="60" height="45" fill="rgb(253,253,253)" /><rect x="372.2" y="404" width="60" height="45" fill="rgb(253,253,253)" /><rect x="432.2" y="404" width="60" height="45" fill="rgb(254,254,254)" /><rect x="492.2" y="404" width="60.00000000000006" height="45" fill="rgb(254,254,254)" /><rect x="192.2" y="359" width="60" height="45" fill="rgb(253,253,253)" /><rect x="252.2" y="359" width="60" height="45" fill="rgb(245,245,245)" /><rect x="312.2" y="359" width="60" height="45" fill="rgb(236,236,236)" /><rect x="372.2" y="359" width="60" height="45" fill="rgb(240,240,240)" /><rect x="432.2" y="359" width="60" height="45" fill="rgb(247,247,247)" /><rect x="492.2" y="359" width="60.00000000000006" height="45" fill="rgb(252,252,252)" /><rect x="552.2" y="359" width="60" height="45" fill="rgb(254,254,254)" /><rect x="132.2" y="314" width="60" height="45" fill="rgb(254,254,254)" /><rect x="192.2" y="314" width="60" height="45" fill="rgb(247,247,247)" /><rect x="252.2" y="314" width="60" height="45" fill="rgb(224,224,224)" /><rect x="312.2" y="314" width="60" height="45" fill="rgb(151,151,151)" /><rect x="372.2" y="314" width="60" height="45" fill="rgb(158,158,158)" /><rect x="432.2" y="314" width="60" height="45" fill="rgb(220,220,220)" /><rect x="492.2" y="314" width="60.00000000000006" height="45" fill="rgb(247,247,247)" /><rect x="552.2" y="314" width="60" height="45" fill="rgb(253,253,253)" /><rect x="72.19999999999999" y="269" width="60" height="45" fill="rgb(254,254,254)" /><rect x="132.2" y="269" width="60" height="45" fill="rgb(252,252,252)" /><rect x="192.2" y="269" width="60" height="45" fill="rgb(238,238,238)" /><rect x="252.2" y="269" width="60" height="45" fill="rgb(144,144,144)" /><rect x="312.2" y="269" width="60" height="45" fill="rgb(25,25,25)" /><rect x="372.2" y="269" width="60" height="45" fill="rgb(0,0,0)" /><rect x="432.2" y="269" width="60" height="45" fill="rgb(150,150,150)" /><rect x="492.2" y="269" width="60.00000000000006" height="45" fill="rgb(235,235,235)" /><rect x="552.2" y="269" width="60" height="45" fill="rgb(252,252,252)" /><rect x="132.2" y="224" width="60" height="45" fill="rgb(252,252,252)" /><rect x="192.2" y="224" width="60" height="45" fill="rgb(237,237,237)" /><rect x="252.2" y="224" width="60" height="45" fill="rgb(148,148,148)" /><rect x="312.2" y="224" width="60" height="45" fill="rgb(7,7,7)" /><rect x="372.2" y="224" width="60" height="45" fill="rgb(11,11,11)" /><rect x="432.2" y="224" width="60" height="45" fill="rgb(142,142,142)" /><rect x="492.2" y="224" width="60.00000000000006" height="45" fill="rgb(240,240,240)" /><rect x="552.2" y="224" width="60" height="45" fill="rgb(252,252,252)" /><rect x="612.2" y="224" width="60" height="45" fill="rgb(254,254,254)" /><rect x="72.19999999999999" y="179" width="60" height="45" fill="rgb(254,254,254)" /><rect x="132.2" y="179" width="60" height="45" fill="rgb(253,253,253)" /><rect x="192.2" y="179" width="60" height="45" fill="rgb(246,246,246)" /><rect x="252.2" y="179" width="60" height="45" fill="rgb(213,213,213)" /><rect x="312.2" y="179" width="60" height="45" fill="rgb(136,136,136)" /><rect x="372.2" y="179" width="60" height="45" fill="rgb(156,156,156)" /><rect x="432.2" y="179" width="60" height="45" fill="rgb(225,225,225)" /><rect x="492.2" y="179" width="60.00000000000006" height="45" fill="rgb(247,247,247)" /><rect x="552.2" y="179" width="60" height="45" fill="rgb(254,254,254)" /><rect x="192.2" y="134" width="60" height="45" fill="rgb(252,252,252)" /><rect x="252.2" y="134" width="60" height="45" fill="rgb(246,246,246)" /><rect x="312.2" y="134" width="60" height="45" fill="rgb(237,237,237)" /><rect x="372.2" y="134" width="60" height="45" fill="rgb(234,234,234)" /><rect x="432.2" y="134" width="60" height="45" fill="rgb(246,246,246)" /><rect x="492.2" y="134" width="60.00000000000006" height="45" fill="rgb(252,252,252)" /><rect x="552.2" y="134" width="60" height="45" fill="rgb(254,254,254)" /><rect x="132.2" y="89" width="60" height="45" fill="rgb(254,254,254)" /><rect x="252.2" y="89" width="60" height="45" fill="rgb(254,254,254)" /><rect x="312.2" y="89" width="60" height="45" fill="rgb(253,253,253)" /><rect x="372.2" y="89" width="60" height="45" fill="rgb(253,253,253)" /><rect x="432.2" y="89" width="60" height="45" fill="rgb(254,254,254)" /><rect x="492.2" y="89" width="60.00000000000006" height="45" fill="rgb(254,254,254)" /><rect x="252.2" y="44" width="60" height="45" fill="rgb(254,254,254)" /><rect x="312.2" y="44" width="60" height="45" fill="rgb(254,254,254)" /><rect x="372.2" y="44" width="60" height="45" fill="rgb(254,254,254)" /><rect x="701.2" y="89" width="20" height="7.7" fill="rgb(0,0,0)" /><rect x="701.2" y="96.2" width="20" height="7.7" fill="rgb(6,6,6)" /><rect x="701.2" y="103.4" width="20" height="7.7" fill="rgb(12,12,12)" /><rect x="701.2" y="110.6" width="20" height="7.7" fill="rgb(18,18,18)" /><rect x="701.2" y="117.8" width="20" height="7.7" fill="rgb(24,24,24)" /><rect x="701.2" y="125" width="20" height="7.7" fill="rgb(30,30,30)" /><rect x="701.2" y="132.2" width="20" height="7.7" fill="rgb(37,37,37)" /><rect x="701.2" y="139.4" width="20" height="7.7" fill="rgb(44,44,44)" /><rect x="701.2" y="146.6" width="20" height="7.7" fill="rgb(51,51,51)" /><rect x="701.2" y="153.8" width="20" height="7.7" fill="rgb(58,58,58)" /><rect x="701.2" y="161" width="20" height="7.7" fill="rgb(65,65,65)" /><rect x="701.2" y="168.2" width="20" height="7.7" fill="rgb(71,71,71)" /><rect x="701.2" y="175.4" width="20" height="7.7" fill="rgb(78,78,78)" /><rect x="701.2" y="182.60000000000002" width="20" height="7.7" fill="rgb(84,84,84)" /><rect x="701.2" y="189.8" width="20" height="7.7" fill="rgb(90,90,90)" /><rect x="701.2" y="197" width="20" height="7.7" fill="rgb(96,96,96)" /><rect x="701.2" y="204.2" width="20" height="7.7" fill="rgb(102,102,102)" /><rect x="701.2" y="211.4" width="20" height="7.7" fill="rgb(107,107,107)" /><rect x="701.2" y="218.6" width="20" height="7.7" fill="rgb(113,113,113)" /><rect x="701.2" y="225.8" width="20" height="7.7" fill="rgb(118,118,118)" /><rect x="701.2" y="233" width="20" height="7.7" fill="rgb(124,124,124)" /><rect x="701.2" y="240.20000000000002" width="20" height="7.7" fill="rgb(130,130,130)" /><rect x="701.2" y="247.4" width="20" height="7.7" fill="rgb(135,135,135)" /><rect x="701.2" y="254.6" width="20" height="7.7" fill="rgb(141,141,141)" /><rect x="701.2" y="261.8" width="20" height="7.7" fill="rgb(147,147,147)" /><rect x="701.2" y="269" width="20" height="7.7" fill="rgb(153,153,153)" /><rect x="701.2" y="276.20000000000005" width="20" height="7.7" fill="rgb(159,159,159)" /><rect x="701.2" y="283.4" width="20" height="7.7" fill="rgb(165,165,165)" /><rect x="701.2" y="290.6" width="20" height="7.7" fill="rgb(171,171,171)" /><rect x="701.2" y="297.8" width="20" height="7.7" fill="rgb(177,177,177)" /><rect x="701.2" y="305" width="20" height="7.7" fill="rgb(183,183,183)" /><rect x="701.2" y="312.20000000000005" width="20" height="7.7" fill="rgb(189,189,189)" /><rect x="701.2" y="319.4" width="20" height="7.7" fill="rgb(194,194,194)" /><rect x="701.2" y="326.6" width="20" height="7.7" fill="rgb(199,199,199)" /><rect x="701.2" y="333.8" width="20" height="7.7" fill="rgb(204,204,204)" /><rect x="701.2" y="341" width="20" height="7.7" fill="rgb(208,208,208)" /><rect x="701.2" y="348.2" width="20" height="7.7" fill="rgb(213,213,213)" /><rect x="701.2" y="355.40000000000003" width="20" height="7.7" fill="rgb(217,217,217)" /><rect x="701.2" y="362.6" width="20" height="7.7" fill="rgb(221,221,221)" /><rect x="701.2" y="369.8" width="20" height="7.7" fill="rgb(225,225,225)" /><rect x="701.2" y="377" width="20" height="7.7" fill="rgb(228,228,228)" /><rect x="701.2" y="384.2" width="20" height="7.7" fill="rgb(232,232,232)" /><rect x="701.2" y="391.40000000000003" width="20" height="7.7" fill="rgb(235,235,235)" /><rect x="701.2" y="398.6" width="20" height="7.7" fill="rgb(239,239,239)" /><rect x="701.2" y="405.8" width="20" height="7.7" fill="rgb(242,242,242)" /><rect x="701.2" y="413" width="20" height="7.7" fill="rgb(244,244,244)" /><rect x="701.2" y="420.2" width="20" height="7.7" fill="rgb(247,247,247)" /><rect x="701.2" y="427.40000000000003" width="20" height="7.7" fill="rgb(250,250,250)" /><rect x="701.2" y="434.6" width="20" height="7.7" fill="rgb(252,252,252)" /><rect x="701.2" y="441.8" width="20" height="7.7" fill="rgb(255,255,255)" /><rect x="701.2" y="89" width="20" height="360" fill="none" stroke="black" stroke-width="1" /><line x1="721.2" y1="449" x2="725.2" y2="449" stroke="black" stroke-width="1" /><text x="727.2" y="453" font-size="12" text-anchor="start">0.0</text><line x1="721.2" y1="400.935914552737" x2="725.2" y2="400.935914552737" stroke="black" stroke-width="1" /><text x="727.2" y="404.935914552737" font-size="12" text-anchor="start">100.0</text><line x1="721.2" y1="352.871829105474" x2="725.2" y2="352.871829105474" stroke="black" stroke-width="1" /><text x="727.2" y="356.871829105474" font-size="12" text-anchor="start">200.0</text><line x1="721.2" y1="304.80774365821094" x2="725.2" y2="304.80774365821094" stroke="black" stroke-width="1" /><text x="727.2" y="308.80774365821094" font-size="12" text-anchor="start">300.0</text><line x1="721.2" y1="256.74365821094796" x2="725.2" y2="256.74365821094796" stroke="black" stroke-width="1" /><text x="727.2" y="260.74365821094796" font-size="12" text-anchor="start">400.0</text><line x1="721.2" y1="208.67957276368492" x2="725.2" y2="208.67957276368492" stroke="black" stroke-width="1" /><text x="727.2" y="212.67957276368492" font-size="12" text-anchor="start">500.0</text><line x1="721.2" y1="160.61548731642193" x2="725.2" y2="160.61548731642193" stroke="black" stroke-width="1" /><text x="727.2" y="164.61548731642193" font-size="12" text-anchor="start">600.0</text><line x1="721.2" y1="112.5514018691589" x2="725.2" y2="112.5514018691589" stroke="black" stroke-width="1" /><text x="727.2" y="116.5514018691589" font-size="12" text-anchor="start">700.0</text><text x="711.2" y="83" font-size="12" text-anchor="middle">Count</text></svg>