<svg xmlns="http://www.w3.org/2000/svg" width="771.2" height="545" font-family="DejaVu Sans, Liberation Sans, Arial, sans-serif" fill="black"><rect width="100%" height="100%" fill="white" /><line x1="72.19999999999999" y1="494" x2="672.2" y2="494" stroke="black" stroke-width="1" /><line x1="72.19999999999999" y1="44" x2="72.19999999999999" y2="494" stroke="black" stroke-width="1" /><line x1="222.2" y1="44" x2="222.2" y2="494" stroke="#ccc" stroke-width="1" /><line x1="372.2" y1="44" x2="372.2" y2="494" stroke="#ccc" stroke-width="1" /><line x1="522.2" y1="44" x2="522.2" y2="494" stroke="#ccc" stroke-width="1" /><line x1="672.2" y1="44" x2="672.2" y2="494" stroke="#ccc" stroke-width="1" /><line x1="72.19999999999999" y1="381.5" x2="672.2" y2="381.5" stroke="#ccc" stroke-width="1" /><line x1="72.19999999999999" y1="269" x2="672.2" y2="269" stroke="#ccc" stroke-width="1" /><line x1="72.19999999999999" y1="156.5" x2="672.2" y2="156.5" stroke="#ccc" stroke-width="1" /><line x1="72.19999999999999" y1="44" x2="672.2" y2="44" stroke="#ccc" stroke-width="1" /><line x1="72.19999999999999" y1="494" x2="72.19999999999999" y2="499" stroke="black" stroke-width="1" /><text x="72.19999999999999" y="511" font-size="12" text-anchor="middle">0</text><line x1="222.2" y1="494" x2="222.2" y2="499" stroke="black" stroke-width="1" /><text x="222.2" y="511" font-size="12" text-anchor="middle">5</text><line x1="372.2" y1="494" x2="372.2" y2="499" stroke="black" stroke-width="1" /><text x="372.2" y="511" font-size="12" text-anchor="middle">10</text><line x1="522.2" y1="494" x2="522.2" y2="499" stroke="black" stroke-width="1" /><text x="522.2" y="511" font-size="12" text-anchor="middle">15</text><line x1="672.2" y1="494" x2="672.2" y2="499" stroke="black" stroke-width="1" /><text x="672.2" y="511" font-size="12" text-anchor="middle">20</text><line x1="67.19999999999999" y1="494" x2="72.19999999999999" y2="494" stroke="black" stroke-width="1" /><text x="64.19999999999999" y="498.2" font-size="12" text-anchor="end">0</text><line x1="67.19999999999999" y1="381.5" x2="72.19999999999999" y2="381.5" stroke="black" stroke-width="1" /><text x="64.19999999999999" y="385.7" font-size="12" text-anchor="end">5</text><line x1="67.19999999999999" y1="269" x2="72.19999999999999" y2="269" stroke="black" stroke-width="1" /><text x="64.19999999999999" y="273.2" font-size="12" text-anchor="end">10</text><line x1="67.19999999999999" y1="156.5" x2="72.19999999999999" y2="156.5" stroke="black" stroke-width="1" /><text x="64.19999999999999" y="160.7" font-size="12" text-anchor="end">15</text><line x1="67.19999999999999" y1="44" x2="72.19999999999999" y2="44" stroke="black" stroke-width="1" /><text x="64.19999999999999" y="48.2" font-size="12" text-anchor="end">20</text><text x="385.6" y="538" font-size="14" text-anchor="middle">X</text><text x="14" y="272.5" font-size="14" text-anchor="middle" transform="rotate(-90,14,272.5)">Y</text><text x="385.6" y="22" font-size="18" text-anchor="middle">Correlated Variables (r ≈ 0.85)</text><rect x="168.2" y="422" width="24" height="18" fill="rgb(69,5,88)" /><rect x="192.2" y="404" width="24" height="18" fill="rgb(68,2,86)" /><rect x="240.20000000000002" y="404" width="23.99999999999997" height="18" fill="rgb(69,5,88)" /><rect x="144.2" y="386" width="24" height="18" fill="rgb(68,2,86)" /><rect x="192.2" y="386" width="24" height="18" fill="rgb(69,7,90)" /><rect x="216.20000000000002" y="386" width="24" height="18" fill="rgb(68,2,86)" /><rect x="240.20000000000002" y="386" width="23.99999999999997" height="18" fill="rgb(68,2,86)" /><rect x="264.2" y="386" width="24" height="18" fill="rgb(70,9,92)" /><rect x="168.2" y="368" width="24" height="18" fill="rgb(69,5,88)" /><rect x="192.2" y="368" width="24" height="18" fill="rgb(69,5,88)" /><rect x="216.20000000000002" y="368" width="24" height="18" fill="rgb(71,20,103)" /><rect x="240.20000000000002" y="368" width="23.99999999999997" height="18" fill="rgb(72,26,108)" /><rect x="264.2" y="368" width="24" height="18" fill="rgb(71,20,103)" /><rect x="288.2" y="368" width="24" height="18" fill="rgb(68,2,86)" /><rect x="312.2" y="368" width="24.000000000000057" height="18" fill="rgb(69,5,88)" /><rect x="192.2" y="350" width="24" height="18" fill="rgb(69,5,88)" /><rect x="216.20000000000002" y="350" width="24" height="18" fill="rgb(72,24,106)" /><rect x="240.20000000000002" y="350" width="23.99999999999997" height="18" fill="rgb(69,54,129)" /><rect x="264.2" y="350" width="24" height="18" fill="rgb(59,79,138)" /><rect x="288.2" y="350" width="24" height="18" fill="rgb(72,39,119)" /><rect x="312.2" y="350" width="24.000000000000057" height="18" fill="rgb(70,11,94)" /><rect x="336.20000000000005" y="350" width="24" height="18" fill="rgb(69,5,88)" /><rect x="192.2" y="332" width="24" height="18" fill="rgb(69,5,88)" /><rect x="216.20000000000002" y="332" width="24" height="18" fill="rgb(70,13,96)" /><rect x="240.20000000000002" y="332" width="23.99999999999997" height="18" fill="rgb(71,41,121)" /><rect x="264.2" y="332" width="24" height="18" fill="rgb(59,79,138)" /><rect x="288.2" y="332" width="24" height="18" fill="rgb(56,87,139)" /><rect x="312.2" y="332" width="24.000000000000057" height="18" fill="rgb(69,52,128)" /><rect x="336.20000000000005" y="332" width="24" height="18" fill="rgb(72,26,108)" /><rect x="360.20000000000005" y="332" width="24" height="18" fill="rgb(70,9,92)" /><rect x="216.20000000000002" y="314" width="24" height="18" fill="rgb(69,5,88)" /><rect x="240.20000000000002" y="314" width="23.99999999999997" height="18" fill="rgb(72,30,111)" /><rect x="264.2" y="314" width="24" height="18" fill="rgb(54,92,141)" /><rect x="288.2" y="314" width="24" height="18" fill="rgb(31,160,135)" /><rect x="312.2" y="314" width="24.000000000000057" height="18" fill="rgb(38,172,129)" /><rect x="336.20000000000005" y="314" width="24" height="18" fill="rgb(48,105,142)" /><rect x="360.20000000000005" y="314" width="24" height="18" fill="rgb(71,28,110)" /><rect x="384.2" y="314" width="24.000000000000057" height="18" fill="rgb(70,9,92)" /><rect x="216.20000000000002" y="296" width="24" height="18" fill="rgb(69,5,88)" /><rect x="240.20000000000002" y="296" width="23.99999999999997" height="18" fill="rgb(71,18,100)" /><rect x="264.2" y="296" width="24" height="18" fill="rgb(57,85,140)" /><rect x="288.2" y="296" width="24" height="18" fill="rgb(32,164,133)" /><rect x="312.2" y="296" width="24.000000000000057" height="18" fill="rgb(39,173,128)" /><rect x="336.20000000000005" y="296" width="24" height="18" fill="rgb(64,189,113)" /><rect x="360.20000000000005" y="296" width="24" height="18" fill="rgb(41,119,142)" /><rect x="384.2" y="296" width="24.000000000000057" height="18" fill="rgb(70,48,125)" /><rect x="408.20000000000005" y="296" width="24" height="18" fill="rgb(71,18,100)" /><rect x="240.20000000000002" y="278" width="23.99999999999997" height="18" fill="rgb(69,7,90)" /><rect x="264.2" y="278" width="24" height="18" fill="rgb(72,39,119)" /><rect x="288.2" y="278" width="24" height="18" fill="rgb(57,85,140)" /><rect x="312.2" y="278" width="24.000000000000057" height="18" fill="rgb(100,203,93)" /><rect x="336.20000000000005" y="278" width="24" height="18" fill="rgb(154,216,60)" /><rect x="360.20000000000005" y="278" width="24" height="18" fill="rgb(76,194,107)" /><rect x="384.2" y="278" width="24.000000000000057" height="18" fill="rgb(41,120,142)" /><rect x="408.20000000000005" y="278" width="24" height="18" fill="rgb(70,50,126)" /><rect x="432.2" y="278" width="24" height="18" fill="rgb(69,5,88)" /><rect x="456.2" y="278" width="24.000000000000057" height="18" fill="rgb(68,2,86)" /><rect x="264.2" y="259.99999999999994" width="24" height="18.000000000000057" fill="rgb(69,7,90)" /><rect x="288.2" y="259.99999999999994" width="24" height="18.000000000000057" fill="rgb(70,46,124)" /><rect x="312.2" y="259.99999999999994" width="24.000000000000057" height="18.000000000000057" fill="rgb(50,99,141)" /><rect x="336.20000000000005" y="259.99999999999994" width="24" height="18.000000000000057" fill="rgb(146,215,65)" /><rect x="360.20000000000005" y="259.99999999999994" width="24" height="18.000000000000057" fill="rgb(253,231,37)" /><rect x="384.2" y="259.99999999999994" width="24.000000000000057" height="18.000000000000057" fill="rgb(146,215,65)" /><rect x="408.20000000000005" y="259.99999999999994" width="24" height="18.000000000000057" fill="rgb(52,95,141)" /><rect x="432.2" y="259.99999999999994" width="24" height="18.000000000000057" fill="rgb(71,28,110)" /><rect x="456.2" y="259.99999999999994" width="24.000000000000057" height="18.000000000000057" fill="rgb(69,5,88)" /><rect x="288.2" y="241.99999999999997" width="24" height="18.00000000000003" fill="rgb(70,9,92)" /><rect x="312.2" y="241.99999999999997" width="24.000000000000057" height="18.00000000000003" fill="rgb(69,54,129)" /><rect x="336.20000000000005" y="241.99999999999997" width="24" height="18.00000000000003" fill="rgb(40,122,142)" /><rect x="360.20000000000005" y="241.99999999999997" width="24" height="18.00000000000003" fill="rgb(100,203,93)" /><rect x="384.2" y="241.99999999999997" width="24.000000000000057" height="18.00000000000003" fill="rgb(231,228,25)" /><rect x="408.20000000000005" y="241.99999999999997" width="24" height="18.00000000000003" fill="rgb(57,185,118)" /><rect x="432.2" y="241.99999999999997" width="24" height="18.00000000000003" fill="rgb(49,101,142)" /><rect x="456.2" y="241.99999999999997" width="24.000000000000057" height="18.00000000000003" fill="rgb(72,24,106)" /><rect x="480.20000000000005" y="241.99999999999997" width="24" height="18.00000000000003" fill="rgb(68,2,86)" /><rect x="312.2" y="223.99999999999994" width="24.000000000000057" height="18.00000000000003" fill="rgb(70,13,96)" /><rect x="336.20000000000005" y="223.99999999999994" width="24" height="18.00000000000003" fill="rgb(72,30,111)" /><rect x="360.20000000000005" y="223.99999999999994" width="24" height="18.00000000000003" fill="rgb(41,119,142)" /><rect x="384.2" y="223.99999999999994" width="24.000000000000057" height="18.00000000000003" fill="rgb(67,190,112)" /><rect x="408.20000000000005" y="223.99999999999994" width="24" height="18.00000000000003" fill="rgb(158,217,58)" /><rect x="432.2" y="223.99999999999994" width="24" height="18.00000000000003" fill="rgb(33,140,140)" /><rect x="456.2" y="223.99999999999994" width="24.000000000000057" height="18.00000000000003" fill="rgb(71,45,123)" /><rect x="480.20000000000005" y="223.99999999999994" width="24" height="18.00000000000003" fill="rgb(72,24,106)" /><rect x="504.2" y="223.99999999999994" width="24.000000000000057" height="18.00000000000003" fill="rgb(68,2,86)" /><rect x="336.20000000000005" y="206" width="24" height="18" fill="rgb(69,7,90)" /><rect x="360.20000000000005" y="206" width="24" height="18" fill="rgb(71,41,121)" /><rect x="384.2" y="206" width="24.000000000000057" height="18" fill="rgb(53,93,141)" /><rect x="408.20000000000005" y="206" width="24" height="18" fill="rgb(38,129,142)" /><rect x="432.2" y="206" width="24" height="18" fill="rgb(34,138,141)" /><rect x="456.2" y="206" width="24.000000000000057" height="18" fill="rgb(52,95,141)" /><rect x="480.20000000000005" y="206" width="24" height="18" fill="rgb(72,31,113)" /><rect x="504.2" y="206" width="24.000000000000057" height="18" fill="rgb(70,11,94)" /><rect x="528.2" y="206" width="24" height="18" fill="rgb(68,2,86)" /><rect x="360.20000000000005" y="188" width="24" height="18" fill="rgb(69,5,88)" /><rect x="384.2" y="188" width="24.000000000000057" height="18" fill="rgb(72,24,106)" /><rect x="408.20000000000005" y="188" width="24" height="18" fill="rgb(67,59,131)" /><rect x="432.2" y="188" width="24" height="18" fill="rgb(63,71,136)" /><rect x="456.2" y="188" width="24.000000000000057" height="18" fill="rgb(57,85,140)" /><rect x="480.20000000000005" y="188" width="24" height="18" fill="rgb(66,62,133)" /><rect x="504.2" y="188" width="24.000000000000057" height="18" fill="rgb(70,9,92)" /><rect x="384.2" y="169.99999999999994" width="24.000000000000057" height="18.000000000000057" fill="rgb(70,9,92)" /><rect x="408.20000000000005" y="169.99999999999994" width="24" height="18.000000000000057" fill="rgb(70,9,92)" /><rect x="432.2" y="169.99999999999994" width="24" height="18.000000000000057" fill="rgb(72,30,111)" /><rect x="456.2" y="169.99999999999994" width="24.000000000000057" height="18.000000000000057" fill="rgb(70,48,125)" /><rect x="480.20000000000005" y="169.99999999999994" width="24" height="18.000000000000057" fill="rgb(72,33,115)" /><rect x="504.2" y="169.99999999999994" width="24.000000000000057" height="18.000000000000057" fill="rgb(71,22,104)" /><rect x="528.2" y="169.99999999999994" width="24" height="18.000000000000057" fill="rgb(69,5,88)" /><rect x="552.2" y="169.99999999999994" width="24" height="18.000000000000057" fill="rgb(68,2,86)" /><rect x="408.20000000000005" y="152" width="24" height="18" fill="rgb(69,5,88)" /><rect x="432.2" y="152" width="24" height="18" fill="rgb(69,5,88)" /><rect x="456.2" y="152" width="24.000000000000057" height="18" fill="rgb(71,18,100)" /><rect x="480.20000000000005" y="152" width="24" height="18" fill="rgb(72,26,108)" /><rect x="504.2" y="152" width="24.000000000000057" height="18" fill="rgb(70,9,92)" /><rect x="528.2" y="152" width="24" height="18" fill="rgb(69,7,90)" /><rect x="552.2" y="152" width="24" height="18" fill="rgb(69,5,88)" /><rect x="456.2" y="134" width="24.000000000000057" height="18" fill="rgb(70,9,92)" /><rect x="480.20000000000005" y="134" width="24" height="18" fill="rgb(69,5,88)" /><rect x="504.2" y="134" width="24.000000000000057" height="18" fill="rgb(70,9,92)" /><rect x="528.2" y="134" width="24" height="18" fill="rgb(68,2,86)" /><rect x="552.2" y="134" width="24" height="18" fill="rgb(68,2,86)" /><rect x="528.2" y="115.99999999999994" width="24" height="18.000000000000057" fill="rgb(69,5,88)" /><text x="651.2" y="64" font-size="12" text-anchor="end">r = 0.84</text><rect x="701.2" y="89" width="20" height="7.7" fill="rgb(253,231,37)" /><rect x="701.2" y="96.2" width="20" height="7.7" fill="rgb(240,229,28)" /><rect x="701.2" y="103.4" width="20" height="7.7" fill="rgb(227,227,24)" /><rect x="701.2" y="110.6" width="20" height="7.7" fill="rgb(214,226,25)" /><rect x="701.2" y="117.8" width="20" height="7.7" fill="rgb(200,224,31)" /><rect x="701.2" y="125" width="20" height="7.7" fill="rgb(186,222,39)" /><rect x="701.2" y="132.2" width="20" height="7.7" fill="rgb(172,220,48)" /><rect x="701.2" y="139.4" width="20" height="7.7" fill="rgb(158,217,57)" /><rect x="701.2" y="146.6" width="20" height="7.7" fill="rgb(145,214,66)" /><rect x="701.2" y="153.8" width="20" height="7.7" fill="rgb(132,212,74)" /><rect x="701.2" y="161" width="20" height="7.7" fill="rgb(119,208,82)" /><rect x="701.2" y="168.2" width="20" height="7.7" fill="rgb(107,205,90)" /><rect x="701.2" y="175.4" width="20" height="7.7" fill="rgb(95,201,96)" /><rect x="701.2" y="182.60000000000002" width="20" height="7.7" fill="rgb(84,197,103)" /><rect x="701.2" y="189.8" width="20" height="7.7" fill="rgb(74,193,108)" /><rect x="701.2" y="197" width="20" height="7.7" fill="rgb(64,188,114)" /><rect x="701.2" y="204.2" width="20" height="7.7" fill="rgb(55,184,119)" /><rect x="701.2" y="211.4" width="20" height="7.7" fill="rgb(48,180,123)" /><rect x="701.2" y="218.6" width="20" height="7.7" fill="rgb(41,175,127)" /><rect x="701.2" y="225.8" width="20" height="7.7" fill="rgb(36,171,130)" /><rect x="701.2" y="233" width="20" height="7.7" fill="rgb(33,165,133)" /><rect x="701.2" y="240.20000000000002" width="20" height="7.7" fill="rgb(31,161,135)" /><rect x="701.2" y="247.4" width="20" height="7.7" fill="rgb(30,156,137)" /><rect x="701.2" y="254.6" width="20" height="7.7" fill="rgb(31,151,138)" /><rect x="701.2" y="261.8" width="20" height="7.7" fill="rgb(31,146,140)" /><rect x="701.2" y="269" width="20" height="7.7" fill="rgb(33,141,141)" /><rect x="701.2" y="276.20000000000005" width="20" height="7.7" fill="rgb(35,136,141)" /><rect x="701.2" y="283.4" width="20" height="7.7" fill="rgb(37,131,142)" /><rect x="701.2" y="290.6" width="20" height="7.7" fill="rgb(38,127,141)" /><rect x="701.2" y="297.8" width="20" height="7.7" fill="rgb(40,122,142)" /><rect x="701.2" y="305" width="20" height="7.7" fill="rgb(42,116,141)" /><rect x="701.2" y="312.20000000000005" width="20" height="7.7" fill="rgb(44,112,142)" /><rect x="701.2" y="319.4" width="20" height="7.7" fill="rgb(47,107,142)" /><rect x="701.2" y="326.6" width="20" height="7.7" fill="rgb(49,102,142)" /><rect x="701.2" y="333.8" width="20" height="7.7" fill="rgb(51,97,140)" /><rect x="701.2" y="341" width="20" height="7.7" fill="rgb(54,91,140)" /><rect x="701.2" y="348.2" width="20" height="7.7" fill="rgb(56,85,140)" /><rect x="701.2" y="355.40000000000003" width="20" height="7.7" fill="rgb(59,80,138)" /><rect x="701.2" y="362.6" width="20" height="7.7" fill="rgb(61,74,137)" /><rect x="701.2" y="369.8" width="20" height="7.7" fill="rgb(64,69,135)" /><rect x="701.2" y="377" width="20" height="7.7" fill="rgb(66,62,133)" /><rect x="701.2" y="384.2" width="20" height="7.7" fill="rgb(68,56,130)" /><rect x="701.2" y="391.40000000000003" width="20" height="7.7" fill="rgb(70,50,126)" /><rect x="701.2" y="398.6" width="20" height="7.7" fill="rgb(71,44,122)" /><rect x="701.2" y="405.8" width="20" height="7.7" fill="rgb(72,37,118)" /><rect x="701.2" y="413" width="20" height="7.7" fill="rgb(71,30,111)" /><rect x="701.2" y="420.2" width="20" height="7.7" fill="rgb(72,23,105)" /><rect x="701.2" y="427.40000000000003" width="20" height="7.7" fill="rgb(71,16,99)" /><rect x="701.2" y="434.6" width="20" height="7.7" fill="rgb(70,8,92)" /><rect x="701.2" y="441.8" width="20" height="7.7" fill="rgb(68,1,84)" /><rect x="701.2" y="89" width="20" height="360" fill="none" stroke="black" stroke-width="1" /><line x1="721.2" y1="449" x2="725.2" y2="449" stroke="black" stroke-width="1" /><text x="727.2" y="453" font-size="12" text-anchor="start">0.0</text><line x1="721.2" y1="397.2758620689655" x2="725.2" y2="397.2758620689655" stroke="black" stroke-width="1" /><text x="727.2" y="401.2758620689655" font-size="12" text-anchor="start">25.0</text><line x1="721.2" y1="345.55172413793105" x2="725.2" y2="345.55172413793105" stroke="black" stroke-width="1" /><text x="727.2" y="349.55172413793105" font-size="12" text-anchor="start">50.0</text><line x1="721.2" y1="293.82758620689657" x2="725.2" y2="293.82758620689657" stroke="black" stroke-width="1" /><text x="727.2" y="297.82758620689657" font-size="12" text-anchor="start">75.0</text><line x1="721.2" y1="242.1034482758621" x2="725.2" y2="242.1034482758621" stroke="black" stroke-width="1" /><text x="727.2" y="246.1034482758621" font-size="12" text-anchor="start">100.0</text><line x1="721.2" y1="190.37931034482762" x2="725.2" y2="190.37931034482762" stroke="black" stroke-width="1" /><text x="727.2" y="194.37931034482762" font-size="12" text-anchor="start">125.0</text><line x1="721.2" y1="138.65517241379314" x2="725.2" y2="138.65517241379314" stroke="black" stroke-width="1" /><text x="727.2" y="142.65517241379314" font-size="12" text-anchor="start">150.0</text><text x="711.2" y="83" font-size="12" text-anchor="middle">Count</text></svg>