<svg xmlns="http://www.w3.org/2000/svg" width="1035" height="400" font-family="DejaVu Sans, Liberation Sans, Arial, sans-serif" fill="black"><rect width="100%" height="100%" fill="white" /><g transform="translate(10,10)"><line x1="72.19999999999999" y1="329" x2="486" y2="329" stroke="black" stroke-width="1" /><line x1="72.19999999999999" y1="44" x2="72.19999999999999" y2="329" stroke="black" stroke-width="1" /><line x1="154.95999999999998" y1="44" x2="154.95999999999998" y2="329" stroke="#ccc" stroke-width="1" /><line x1="237.72" y1="44" x2="237.72" y2="329" stroke="#ccc" stroke-width="1" /><line x1="320.48" y1="44" x2="320.48" y2="329" stroke="#ccc" stroke-width="1" /><line x1="403.24" y1="44" x2="403.24" y2="329" stroke="#ccc" stroke-width="1" /><line x1="486" y1="44" x2="486" y2="329" stroke="#ccc" stroke-width="1" /><line x1="72.19999999999999" y1="272" x2="486" y2="272" stroke="#ccc" stroke-width="1" /><line x1="72.19999999999999" y1="215" x2="486" y2="215" stroke="#ccc" stroke-width="1" /><line x1="72.19999999999999" y1="158" x2="486" y2="158" stroke="#ccc" stroke-width="1" /><line x1="72.19999999999999" y1="101" x2="486" y2="101" stroke="#ccc" stroke-width="1" /><line x1="72.19999999999999" y1="44" x2="486" y2="44" stroke="#ccc" stroke-width="1" /><line x1="72.19999999999999" y1="329" x2="72.19999999999999" y2="334" stroke="black" stroke-width="1" /><text x="72.19999999999999" y="346" font-size="12" text-anchor="middle">0</text><line x1="154.95999999999998" y1="329" x2="154.95999999999998" y2="334" stroke="black" stroke-width="1" /><text x="154.95999999999998" y="346" font-size="12" text-anchor="middle">2</text><line x1="237.72" y1="329" x2="237.72" y2="334" stroke="black" stroke-width="1" /><text x="237.72" y="346" font-size="12" text-anchor="middle">4</text><line x1="320.48" y1="329" x2="320.48" y2="334" stroke="black" stroke-width="1" /><text x="320.48" y="346" font-size="12" text-anchor="middle">6</text><line x1="403.24" y1="329" x2="403.24" y2="334" stroke="black" stroke-width="1" /><text x="403.24" y="346" font-size="12" text-anchor="middle">8</text><line x1="486" y1="329" x2="486" y2="334" stroke="black" stroke-width="1" /><text x="486" y="346" font-size="12" text-anchor="middle">10</text><line x1="67.19999999999999" y1="329" x2="72.19999999999999" y2="329" stroke="black" stroke-width="1" /><text x="64.19999999999999" y="333.2" font-size="12" text-anchor="end">0</text><line x1="67.19999999999999" y1="272" x2="72.19999999999999" y2="272" stroke="black" stroke-width="1" /><text x="64.19999999999999" y="276.2" font-size="12" text-anchor="end">2</text><line x1="67.19999999999999" y1="215" x2="72.19999999999999" y2="215" stroke="black" stroke-width="1" /><text x="64.19999999999999" y="219.2" font-size="12" text-anchor="end">4</text><line x1="67.19999999999999" y1="158" x2="72.19999999999999" y2="158" stroke="black" stroke-width="1" /><text x="64.19999999999999" y="162.2" font-size="12" text-anchor="end">6</text><line x1="67.19999999999999" y1="101" x2="72.19999999999999" y2="101" stroke="black" stroke-width="1" /><text x="64.19999999999999" y="105.2" font-size="12" text-anchor="end">8</text><line x1="67.19999999999999" y1="44" x2="72.19999999999999" y2="44" stroke="black" stroke-width="1" /><text x="64.19999999999999" y="48.2" font-size="12" text-anchor="end">10</text><text x="250" y="373" font-size="14" text-anchor="middle">X</text><text x="14" y="190" font-size="14" text-anchor="middle" transform="rotate(-90,14,190)">Y</text><text x="250" y="22" font-size="18" text-anchor="middle">Scatter</text><circle cx="113.57999999999998" cy="263.45" r="4.5" fill="steelblue" /><circle cx="159.098" cy="212.15" r="4.5" fill="steelblue" /><circle cx="212.89199999999997" cy="237.8" r="4.5" fill="steelblue" /><circle cx="245.996" cy="163.70000000000002" r="4.5" fill="steelblue" /><circle cx="279.1" cy="183.65" r="4.5" fill="steelblue" /><circle cx="332.894" cy="123.80000000000001" r="4.5" fill="steelblue" /><circle cx="365.998" cy="132.35" r="4.5" fill="steelblue" /><circle cx="423.93" cy="78.19999999999996" r="4.5" fill="steelblue" /></g><text x="18" y="28" font-size="16" text-anchor="start" font-weight="bold">A</text><g transform="translate(525,10)"><line x1="72.19999999999999" y1="329" x2="486" y2="329" stroke="black" stroke-width="1" /><line x1="72.19999999999999" y1="44" x2="72.19999999999999" y2="329" stroke="black" stroke-width="1" /><line x1="158.40833333333333" y1="44" x2="158.40833333333333" y2="329" stroke="#ccc" stroke-width="1" /><line x1="244.61666666666667" y1="44" x2="244.61666666666667" y2="329" stroke="#ccc" stroke-width="1" /><line x1="330.825" y1="44" x2="330.825" y2="329" stroke="#ccc" stroke-width="1" /><line x1="417.03333333333336" y1="44" x2="417.03333333333336" y2="329" stroke="#ccc" stroke-width="1" /><line x1="72.19999999999999" y1="288.2857142857143" x2="486" y2="288.2857142857143" stroke="#ccc" stroke-width="1" /><line x1="72.19999999999999" y1="247.57142857142856" x2="486" y2="247.57142857142856" stroke="#ccc" stroke-width="1" /><line x1="72.19999999999999" y1="206.85714285714286" x2="486" y2="206.85714285714286" stroke="#ccc" stroke-width="1" /><line x1="72.19999999999999" y1="166.14285714285714" x2="486" y2="166.14285714285714" stroke="#ccc" stroke-width="1" /><line x1="72.19999999999999" y1="125.42857142857142" x2="486" y2="125.42857142857142" stroke="#ccc" stroke-width="1" /><line x1="72.19999999999999" y1="84.71428571428572" x2="486" y2="84.71428571428572" stroke="#ccc" stroke-width="1" /><line x1="72.19999999999999" y1="44" x2="486" y2="44" stroke="#ccc" stroke-width="1" /><line x1="72.19999999999999" y1="329" x2="72.19999999999999" y2="334" stroke="black" stroke-width="1" /><text x="72.19999999999999" y="346" font-size="12" text-anchor="middle">0</text><line x1="158.40833333333333" y1="329" x2="158.40833333333333" y2="334" stroke="black" stroke-width="1" /><text x="158.40833333333333" y="346" font-size="12" text-anchor="middle">2.5</text><line x1="244.61666666666667" y1="329" x2="244.61666666666667" y2="334" stroke="black" stroke-width="1" /><text x="244.61666666666667" y="346" font-size="12" text-anchor="middle">5</text><line x1="330.825" y1="329" x2="330.825" y2="334" stroke="black" stroke-width="1" /><text x="330.825" y="346" font-size="12" text-anchor="middle">7.5</text><line x1="417.03333333333336" y1="329" x2="417.03333333333336" y2="334" stroke="black" stroke-width="1" /><text x="417.03333333333336" y="346" font-size="12" text-anchor="middle">10</text><line x1="67.19999999999999" y1="329" x2="72.19999999999999" y2="329" stroke="black" stroke-width="1" /><text x="64.19999999999999" y="333.2" font-size="12" text-anchor="end">0</text><line x1="67.19999999999999" y1="288.2857142857143" x2="72.19999999999999" y2="288.2857142857143" stroke="black" stroke-width="1" /><text x="64.19999999999999" y="292.48571428571427" font-size="12" text-anchor="end">1</text><line x1="67.19999999999999" y1="247.57142857142856" x2="72.19999999999999" y2="247.57142857142856" stroke="black" stroke-width="1" /><text x="64.19999999999999" y="251.77142857142854" font-size="12" text-anchor="end">2</text><line x1="67.19999999999999" y1="206.85714285714286" x2="72.19999999999999" y2="206.85714285714286" stroke="black" stroke-width="1" /><text x="64.19999999999999" y="211.05714285714285" font-size="12" text-anchor="end">3</text><line x1="67.19999999999999" y1="166.14285714285714" x2="72.19999999999999" y2="166.14285714285714" stroke="black" stroke-width="1" /><text x="64.19999999999999" y="170.34285714285713" font-size="12" text-anchor="end">4</text><line x1="67.19999999999999" y1="125.42857142857142" x2="72.19999999999999" y2="125.42857142857142" stroke="black" stroke-width="1" /><text x="64.19999999999999" y="129.6285714285714" font-size="12" text-anchor="end">5</text><line x1="67.19999999999999" y1="84.71428571428572" x2="72.19999999999999" y2="84.71428571428572" stroke="black" stroke-width="1" /><text x="64.19999999999999" y="88.91428571428573" font-size="12" text-anchor="end">6</text><line x1="67.19999999999999" y1="44" x2="72.19999999999999" y2="44" stroke="black" stroke-width="1" /><text x="64.19999999999999" y="48.2" font-size="12" text-anchor="end">7</text><text x="250" y="373" font-size="14" text-anchor="middle">Time</text><text x="14" y="190" font-size="14" text-anchor="middle" transform="rotate(-90,14,190)">Value</text><text x="250" y="22" font-size="18" text-anchor="middle">Line</text><path d="M 72.19999999999999 329 L 89.44166666666666 300.5812658693016 L 106.68333333333332 272.6462369518646 L 123.92499999999998 245.65933466051746 L 141.16666666666666 220.04718159149343 L 158.40833333333333 196.18159342780348 L 175.64999999999998 174.36475582128722 L 192.89166666666665 154.81717720427616 L 210.13333333333333 137.66889781425093 L 227.375 122.95430539993876 L 244.61666666666667 110.61076429028873 L 261.85833333333335 100.48111248101787 L 279.1 92.319927187769 L 296.34166666666664 85.80330907804628 L 313.58333333333337 80.54179511547866 L 330.825 76.09588522205812 L 348.06666666666666 71.99356375932723 L 365.30833333333334 67.74911730235289 L 382.55 62.882498501221335 L 399.79166666666663 56.93846405400177 L 417.03333333333336 49.50472382059132 " stroke="crimson" stroke-width="2" fill="none" /></g><text x="533" y="28" font-size="16" text-anchor="start" font-weight="bold">B</text></svg>