<svg xmlns="http://www.w3.org/2000/svg" width="900" height="560" font-family="DejaVu Sans, Liberation Sans, Arial, sans-serif" fill="black"><rect width="100%" height="100%" fill="white" /><g transform="translate(10,40)"><line x1="72.19999999999999" y1="196.5" x2="269.3333333333333" y2="196.5" stroke="black" stroke-width="1" /><line x1="72.19999999999999" y1="44" x2="72.19999999999999" y2="196.5" stroke="black" stroke-width="1" /><line x1="111.62666666666667" y1="44" x2="111.62666666666667" y2="196.5" stroke="#ccc" stroke-width="1" /><line x1="151.05333333333334" y1="44" x2="151.05333333333334" y2="196.5" stroke="#ccc" stroke-width="1" /><line x1="190.47999999999996" y1="44" x2="190.47999999999996" y2="196.5" stroke="#ccc" stroke-width="1" /><line x1="229.90666666666667" y1="44" x2="229.90666666666667" y2="196.5" stroke="#ccc" stroke-width="1" /><line x1="269.3333333333333" y1="44" x2="269.3333333333333" y2="196.5" stroke="#ccc" stroke-width="1" /><line x1="72.19999999999999" y1="166" x2="269.3333333333333" y2="166" stroke="#ccc" stroke-width="1" /><line x1="72.19999999999999" y1="135.5" x2="269.3333333333333" y2="135.5" stroke="#ccc" stroke-width="1" /><line x1="72.19999999999999" y1="105" x2="269.3333333333333" y2="105" stroke="#ccc" stroke-width="1" /><line x1="72.19999999999999" y1="74.5" x2="269.3333333333333" y2="74.5" stroke="#ccc" stroke-width="1" /><line x1="72.19999999999999" y1="44" x2="269.3333333333333" y2="44" stroke="#ccc" stroke-width="1" /><line x1="72.19999999999999" y1="196.5" x2="72.19999999999999" y2="201.5" stroke="black" stroke-width="1" /><text x="72.19999999999999" y="213.5" font-size="12" text-anchor="middle">0</text><line x1="111.62666666666667" y1="196.5" x2="111.62666666666667" y2="201.5" stroke="black" stroke-width="1" /><text x="111.62666666666667" y="213.5" font-size="12" text-anchor="middle">2</text><line x1="151.05333333333334" y1="196.5" x2="151.05333333333334" y2="201.5" stroke="black" stroke-width="1" /><text x="151.05333333333334" y="213.5" font-size="12" text-anchor="middle">4</text><line x1="190.47999999999996" y1="196.5" x2="190.47999999999996" y2="201.5" stroke="black" stroke-width="1" /><text x="190.47999999999996" y="213.5" font-size="12" text-anchor="middle">6</text><line x1="229.90666666666667" y1="196.5" x2="229.90666666666667" y2="201.5" stroke="black" stroke-width="1" /><text x="229.90666666666667" y="213.5" font-size="12" text-anchor="middle">8</text><line x1="269.3333333333333" y1="196.5" x2="269.3333333333333" y2="201.5" stroke="black" stroke-width="1" /><text x="269.3333333333333" y="213.5" font-size="12" text-anchor="middle">10</text><line x1="67.19999999999999" y1="196.5" x2="72.19999999999999" y2="196.5" stroke="black" stroke-width="1" /><text x="64.19999999999999" y="200.7" font-size="12" text-anchor="end">-2</text><line x1="67.19999999999999" y1="166" x2="72.19999999999999" y2="166" stroke="black" stroke-width="1" /><text x="64.19999999999999" y="170.2" font-size="12" text-anchor="end">0</text><line x1="67.19999999999999" y1="135.5" x2="72.19999999999999" y2="135.5" stroke="black" stroke-width="1" /><text x="64.19999999999999" y="139.7" font-size="12" text-anchor="end">2</text><line x1="67.19999999999999" y1="105" x2="72.19999999999999" y2="105" stroke="black" stroke-width="1" /><text x="64.19999999999999" y="109.2" font-size="12" text-anchor="end">4</text><line x1="67.19999999999999" y1="74.5" x2="72.19999999999999" y2="74.5" stroke="black" stroke-width="1" /><text x="64.19999999999999" y="78.7" font-size="12" text-anchor="end">6</text><line x1="67.19999999999999" y1="44" x2="72.19999999999999" y2="44" stroke="black" stroke-width="1" /><text x="64.19999999999999" y="48.2" font-size="12" text-anchor="end">8</text><text x="141.66666666666666" y="22" font-size="18" text-anchor="middle">Alpha</text><circle cx="72.19999999999999" cy="195.24719037722573" r="4.5" fill="steelblue" /><circle cx="91.91333333333333" cy="173.0536324551058" r="4.5" fill="steelblue" /><circle cx="111.62666666666667" cy="144.13422678593363" r="4.5" fill="steelblue" /><circle cx="131.33999999999997" cy="114.32954279027244" r="4.5" fill="steelblue" /><circle cx="151.05333333333334" cy="89.78940307774538" r="4.5" fill="steelblue" /><circle cx="170.76666666666665" cy="74.82457347798686" r="4.5" fill="steelblue" /><circle cx="190.47999999999996" cy="70.40088851483952" r="4.5" fill="steelblue" /><circle cx="210.1933333333333" cy="73.80185761994242" r="4.5" fill="steelblue" /><circle cx="229.90666666666667" cy="79.57761344218382" r="4.5" fill="steelblue" /><circle cx="249.61999999999998" cy="81.44870730711239" r="4.5" fill="steelblue" /></g><text x="18" y="58" font-size="16" text-anchor="start" font-weight="bold">A</text><g transform="translate(308.3333333333333,40)"><line x1="72.19999999999999" y1="196.5" x2="269.3333333333333" y2="196.5" stroke="black" stroke-width="1" /><line x1="72.19999999999999" y1="44" x2="72.19999999999999" y2="196.5" stroke="black" stroke-width="1" /><line x1="111.62666666666667" y1="44" x2="111.62666666666667" y2="196.5" stroke="#ccc" stroke-width="1" /><line x1="151.05333333333334" y1="44" x2="151.05333333333334" y2="196.5" stroke="#ccc" stroke-width="1" /><line x1="190.47999999999996" y1="44" x2="190.47999999999996" y2="196.5" stroke="#ccc" stroke-width="1" /><line x1="229.90666666666667" y1="44" x2="229.90666666666667" y2="196.5" stroke="#ccc" stroke-width="1" /><line x1="269.3333333333333" y1="44" x2="269.3333333333333" y2="196.5" stroke="#ccc" stroke-width="1" /><line x1="72.19999999999999" y1="166" x2="269.3333333333333" y2="166" stroke="#ccc" stroke-width="1" /><line x1="72.19999999999999" y1="135.5" x2="269.3333333333333" y2="135.5" stroke="#ccc" stroke-width="1" /><line x1="72.19999999999999" y1="105" x2="269.3333333333333" y2="105" stroke="#ccc" stroke-width="1" /><line x1="72.19999999999999" y1="74.5" x2="269.3333333333333" y2="74.5" stroke="#ccc" stroke-width="1" /><line x1="72.19999999999999" y1="44" x2="269.3333333333333" y2="44" stroke="#ccc" stroke-width="1" /><line x1="72.19999999999999" y1="196.5" x2="72.19999999999999" y2="201.5" stroke="black" stroke-width="1" /><text x="72.19999999999999" y="213.5" font-size="12" text-anchor="middle">0</text><line x1="111.62666666666667" y1="196.5" x2="111.62666666666667" y2="201.5" stroke="black" stroke-width="1" /><text x="111.62666666666667" y="213.5" font-size="12" text-anchor="middle">2</text><line x1="151.05333333333334" y1="196.5" x2="151.05333333333334" y2="201.5" stroke="black" stroke-width="1" /><text x="151.05333333333334" y="213.5" font-size="12" text-anchor="middle">4</text><line x1="190.47999999999996" y1="196.5" x2="190.47999999999996" y2="201.5" stroke="black" stroke-width="1" /><text x="190.47999999999996" y="213.5" font-size="12" text-anchor="middle">6</text><line x1="229.90666666666667" y1="196.5" x2="229.90666666666667" y2="201.5" stroke="black" stroke-width="1" /><text x="229.90666666666667" y="213.5" font-size="12" text-anchor="middle">8</text><line x1="269.3333333333333" y1="196.5" x2="269.3333333333333" y2="201.5" stroke="black" stroke-width="1" /><text x="269.3333333333333" y="213.5" font-size="12" text-anchor="middle">10</text><line x1="67.19999999999999" y1="196.5" x2="72.19999999999999" y2="196.5" stroke="black" stroke-width="1" /><text x="64.19999999999999" y="200.7" font-size="12" text-anchor="end">-2</text><line x1="67.19999999999999" y1="166" x2="72.19999999999999" y2="166" stroke="black" stroke-width="1" /><text x="64.19999999999999" y="170.2" font-size="12" text-anchor="end">0</text><line x1="67.19999999999999" y1="135.5" x2="72.19999999999999" y2="135.5" stroke="black" stroke-width="1" /><text x="64.19999999999999" y="139.7" font-size="12" text-anchor="end">2</text><line x1="67.19999999999999" y1="105" x2="72.19999999999999" y2="105" stroke="black" stroke-width="1" /><text x="64.19999999999999" y="109.2" font-size="12" text-anchor="end">4</text><line x1="67.19999999999999" y1="74.5" x2="72.19999999999999" y2="74.5" stroke="black" stroke-width="1" /><text x="64.19999999999999" y="78.7" font-size="12" text-anchor="end">6</text><line x1="67.19999999999999" y1="44" x2="72.19999999999999" y2="44" stroke="black" stroke-width="1" /><text x="64.19999999999999" y="48.2" font-size="12" text-anchor="end">8</text><text x="141.66666666666666" y="22" font-size="18" text-anchor="middle">Beta</text><circle cx="72.19999999999999" cy="189.08247610689182" r="4.5" fill="crimson" /><circle cx="91.91333333333333" cy="184.10757561082067" r="4.5" fill="crimson" /><circle cx="111.62666666666667" cy="168.54536699946468" r="4.5" fill="crimson" /><circle cx="131.33999999999997" cy="143.5703664721196" r="4.5" fill="crimson" /><circle cx="151.05333333333334" cy="113.64524925205994" r="4.5" fill="crimson" /><circle cx="170.76666666666665" cy="84.96190873907695" r="4.5" fill="crimson" /><circle cx="190.47999999999996" cy="63.27845000303964" r="4.5" fill="crimson" /><circle cx="210.1933333333333" cy="51.9077180212669" r="4.5" fill="crimson" /><circle cx="229.90666666666667" cy="50.56002561680128" r="4.5" fill="crimson" /><circle cx="249.61999999999998" cy="55.44434952367254" r="4.5" fill="crimson" /></g><text x="316.3333333333333" y="58" font-size="16" text-anchor="start" font-weight="bold">B</text><g transform="translate(606.6666666666666,40)"><line x1="72.19999999999999" y1="196.5" x2="269.3333333333333" y2="196.5" stroke="black" stroke-width="1" /><line x1="72.19999999999999" y1="44" x2="72.19999999999999" y2="196.5" stroke="black" stroke-width="1" /><line x1="111.62666666666667" y1="44" x2="111.62666666666667" y2="196.5" stroke="#ccc" stroke-width="1" /><line x1="151.05333333333334" y1="44" x2="151.05333333333334" y2="196.5" stroke="#ccc" stroke-width="1" /><line x1="190.47999999999996" y1="44" x2="190.47999999999996" y2="196.5" stroke="#ccc" stroke-width="1" /><line x1="229.90666666666667" y1="44" x2="229.90666666666667" y2="196.5" stroke="#ccc" stroke-width="1" /><line x1="269.3333333333333" y1="44" x2="269.3333333333333" y2="196.5" stroke="#ccc" stroke-width="1" /><line x1="72.19999999999999" y1="166" x2="269.3333333333333" y2="166" stroke="#ccc" stroke-width="1" /><line x1="72.19999999999999" y1="135.5" x2="269.3333333333333" y2="135.5" stroke="#ccc" stroke-width="1" /><line x1="72.19999999999999" y1="105" x2="269.3333333333333" y2="105" stroke="#ccc" stroke-width="1" /><line x1="72.19999999999999" y1="74.5" x2="269.3333333333333" y2="74.5" stroke="#ccc" stroke-width="1" /><line x1="72.19999999999999" y1="44" x2="269.3333333333333" y2="44" stroke="#ccc" stroke-width="1" /><line x1="72.19999999999999" y1="196.5" x2="72.19999999999999" y2="201.5" stroke="black" stroke-width="1" /><text x="72.19999999999999" y="213.5" font-size="12" text-anchor="middle">0</text><line x1="111.62666666666667" y1="196.5" x2="111.62666666666667" y2="201.5" stroke="black" stroke-width="1" /><text x="111.62666666666667" y="213.5" font-size="12" text-anchor="middle">2</text><line x1="151.05333333333334" y1="196.5" x2="151.05333333333334" y2="201.5" stroke="black" stroke-width="1" /><text x="151.05333333333334" y="213.5" font-size="12" text-anchor="middle">4</text><line x1="190.47999999999996" y1="196.5" x2="190.47999999999996" y2="201.5" stroke="black" stroke-width="1" /><text x="190.47999999999996" y="213.5" font-size="12" text-anchor="middle">6</text><line x1="229.90666666666667" y1="196.5" x2="229.90666666666667" y2="201.5" stroke="black" stroke-width="1" /><text x="229.90666666666667" y="213.5" font-size="12" text-anchor="middle">8</text><line x1="269.3333333333333" y1="196.5" x2="269.3333333333333" y2="201.5" stroke="black" stroke-width="1" /><text x="269.3333333333333" y="213.5" font-size="12" text-anchor="middle">10</text><line x1="67.19999999999999" y1="196.5" x2="72.19999999999999" y2="196.5" stroke="black" stroke-width="1" /><text x="64.19999999999999" y="200.7" font-size="12" text-anchor="end">-2</text><line x1="67.19999999999999" y1="166" x2="72.19999999999999" y2="166" stroke="black" stroke-width="1" /><text x="64.19999999999999" y="170.2" font-size="12" text-anchor="end">0</text><line x1="67.19999999999999" y1="135.5" x2="72.19999999999999" y2="135.5" stroke="black" stroke-width="1" /><text x="64.19999999999999" y="139.7" font-size="12" text-anchor="end">2</text><line x1="67.19999999999999" y1="105" x2="72.19999999999999" y2="105" stroke="black" stroke-width="1" /><text x="64.19999999999999" y="109.2" font-size="12" text-anchor="end">4</text><line x1="67.19999999999999" y1="74.5" x2="72.19999999999999" y2="74.5" stroke="black" stroke-width="1" /><text x="64.19999999999999" y="78.7" font-size="12" text-anchor="end">6</text><line x1="67.19999999999999" y1="44" x2="72.19999999999999" y2="44" stroke="black" stroke-width="1" /><text x="64.19999999999999" y="48.2" font-size="12" text-anchor="end">8</text><text x="141.66666666666666" y="22" font-size="18" text-anchor="middle">Gamma</text><circle cx="72.19999999999999" cy="195.24719037722573" r="4.5" fill="seagreen" /><circle cx="91.91333333333333" cy="173.0536324551058" r="4.5" fill="seagreen" /><circle cx="111.62666666666667" cy="144.13422678593363" r="4.5" fill="seagreen" /><circle cx="131.33999999999997" cy="114.32954279027244" r="4.5" fill="seagreen" /><circle cx="151.05333333333334" cy="89.78940307774538" r="4.5" fill="seagreen" /><circle cx="170.76666666666665" cy="74.82457347798686" r="4.5" fill="seagreen" /><circle cx="190.47999999999996" cy="70.40088851483952" r="4.5" fill="seagreen" /><circle cx="210.1933333333333" cy="73.80185761994242" r="4.5" fill="seagreen" /><circle cx="229.90666666666667" cy="79.57761344218382" r="4.5" fill="seagreen" /><circle cx="249.61999999999998" cy="81.44870730711239" r="4.5" fill="seagreen" /></g><text x="614.6666666666666" y="58" font-size="16" text-anchor="start" font-weight="bold">C</text><g transform="translate(10,302.5)"><line x1="72.19999999999999" y1="196.5" x2="269.3333333333333" y2="196.5" stroke="black" stroke-width="1" /><line x1="72.19999999999999" y1="44" x2="72.19999999999999" y2="196.5" stroke="black" stroke-width="1" /><line x1="111.62666666666667" y1="44" x2="111.62666666666667" y2="196.5" stroke="#ccc" stroke-width="1" /><line x1="151.05333333333334" y1="44" x2="151.05333333333334" y2="196.5" stroke="#ccc" stroke-width="1" /><line x1="190.47999999999996" y1="44" x2="190.47999999999996" y2="196.5" stroke="#ccc" stroke-width="1" /><line x1="229.90666666666667" y1="44" x2="229.90666666666667" y2="196.5" stroke="#ccc" stroke-width="1" /><line x1="269.3333333333333" y1="44" x2="269.3333333333333" y2="196.5" stroke="#ccc" stroke-width="1" /><line x1="72.19999999999999" y1="166" x2="269.3333333333333" y2="166" stroke="#ccc" stroke-width="1" /><line x1="72.19999999999999" y1="135.5" x2="269.3333333333333" y2="135.5" stroke="#ccc" stroke-width="1" /><line x1="72.19999999999999" y1="105" x2="269.3333333333333" y2="105" stroke="#ccc" stroke-width="1" /><line x1="72.19999999999999" y1="74.5" x2="269.3333333333333" y2="74.5" stroke="#ccc" stroke-width="1" /><line x1="72.19999999999999" y1="44" x2="269.3333333333333" y2="44" stroke="#ccc" stroke-width="1" /><line x1="72.19999999999999" y1="196.5" x2="72.19999999999999" y2="201.5" stroke="black" stroke-width="1" /><text x="72.19999999999999" y="213.5" font-size="12" text-anchor="middle">0</text><line x1="111.62666666666667" y1="196.5" x2="111.62666666666667" y2="201.5" stroke="black" stroke-width="1" /><text x="111.62666666666667" y="213.5" font-size="12" text-anchor="middle">2</text><line x1="151.05333333333334" y1="196.5" x2="151.05333333333334" y2="201.5" stroke="black" stroke-width="1" /><text x="151.05333333333334" y="213.5" font-size="12" text-anchor="middle">4</text><line x1="190.47999999999996" y1="196.5" x2="190.47999999999996" y2="201.5" stroke="black" stroke-width="1" /><text x="190.47999999999996" y="213.5" font-size="12" text-anchor="middle">6</text><line x1="229.90666666666667" y1="196.5" x2="229.90666666666667" y2="201.5" stroke="black" stroke-width="1" /><text x="229.90666666666667" y="213.5" font-size="12" text-anchor="middle">8</text><line x1="269.3333333333333" y1="196.5" x2="269.3333333333333" y2="201.5" stroke="black" stroke-width="1" /><text x="269.3333333333333" y="213.5" font-size="12" text-anchor="middle">10</text><line x1="67.19999999999999" y1="196.5" x2="72.19999999999999" y2="196.5" stroke="black" stroke-width="1" /><text x="64.19999999999999" y="200.7" font-size="12" text-anchor="end">-2</text><line x1="67.19999999999999" y1="166" x2="72.19999999999999" y2="166" stroke="black" stroke-width="1" /><text x="64.19999999999999" y="170.2" font-size="12" text-anchor="end">0</text><line x1="67.19999999999999" y1="135.5" x2="72.19999999999999" y2="135.5" stroke="black" stroke-width="1" /><text x="64.19999999999999" y="139.7" font-size="12" text-anchor="end">2</text><line x1="67.19999999999999" y1="105" x2="72.19999999999999" y2="105" stroke="black" stroke-width="1" /><text x="64.19999999999999" y="109.2" font-size="12" text-anchor="end">4</text><line x1="67.19999999999999" y1="74.5" x2="72.19999999999999" y2="74.5" stroke="black" stroke-width="1" /><text x="64.19999999999999" y="78.7" font-size="12" text-anchor="end">6</text><line x1="67.19999999999999" y1="44" x2="72.19999999999999" y2="44" stroke="black" stroke-width="1" /><text x="64.19999999999999" y="48.2" font-size="12" text-anchor="end">8</text><text x="141.66666666666666" y="22" font-size="18" text-anchor="middle">Delta</text><circle cx="72.19999999999999" cy="195.24719037722573" r="4.5" fill="darkorange" /><circle cx="91.91333333333333" cy="173.0536324551058" r="4.5" fill="darkorange" /><circle cx="111.62666666666667" cy="144.13422678593363" r="4.5" fill="darkorange" /><circle cx="131.33999999999997" cy="114.32954279027244" r="4.5" fill="darkorange" /><circle cx="151.05333333333334" cy="89.78940307774538" r="4.5" fill="darkorange" /><circle cx="170.76666666666665" cy="74.82457347798686" r="4.5" fill="darkorange" /><circle cx="190.47999999999996" cy="70.40088851483952" r="4.5" fill="darkorange" /><circle cx="210.1933333333333" cy="73.80185761994242" r="4.5" fill="darkorange" /><circle cx="229.90666666666667" cy="79.57761344218382" r="4.5" fill="darkorange" /><circle cx="249.61999999999998" cy="81.44870730711239" r="4.5" fill="darkorange" /></g><text x="18" y="320.5" font-size="16" text-anchor="start" font-weight="bold">D</text><g transform="translate(308.3333333333333,302.5)"><line x1="72.19999999999999" y1="196.5" x2="269.3333333333333" y2="196.5" stroke="black" stroke-width="1" /><line x1="72.19999999999999" y1="44" x2="72.19999999999999" y2="196.5" stroke="black" stroke-width="1" /><line x1="111.62666666666667" y1="44" x2="111.62666666666667" y2="196.5" stroke="#ccc" stroke-width="1" /><line x1="151.05333333333334" y1="44" x2="151.05333333333334" y2="196.5" stroke="#ccc" stroke-width="1" /><line x1="190.47999999999996" y1="44" x2="190.47999999999996" y2="196.5" stroke="#ccc" stroke-width="1" /><line x1="229.90666666666667" y1="44" x2="229.90666666666667" y2="196.5" stroke="#ccc" stroke-width="1" /><line x1="269.3333333333333" y1="44" x2="269.3333333333333" y2="196.5" stroke="#ccc" stroke-width="1" /><line x1="72.19999999999999" y1="174.71428571428572" x2="269.3333333333333" y2="174.71428571428572" stroke="#ccc" stroke-width="1" /><line x1="72.19999999999999" y1="152.92857142857144" x2="269.3333333333333" y2="152.92857142857144" stroke="#ccc" stroke-width="1" /><line x1="72.19999999999999" y1="131.14285714285717" x2="269.3333333333333" y2="131.14285714285717" stroke="#ccc" stroke-width="1" /><line x1="72.19999999999999" y1="109.35714285714286" x2="269.3333333333333" y2="109.35714285714286" stroke="#ccc" stroke-width="1" /><line x1="72.19999999999999" y1="87.57142857142857" x2="269.3333333333333" y2="87.57142857142857" stroke="#ccc" stroke-width="1" /><line x1="72.19999999999999" y1="65.7857142857143" x2="269.3333333333333" y2="65.7857142857143" stroke="#ccc" stroke-width="1" /><line x1="72.19999999999999" y1="44" x2="269.3333333333333" y2="44" stroke="#ccc" stroke-width="1" /><line x1="72.19999999999999" y1="196.5" x2="72.19999999999999" y2="201.5" stroke="black" stroke-width="1" /><text x="72.19999999999999" y="213.5" font-size="12" text-anchor="middle">0</text><line x1="111.62666666666667" y1="196.5" x2="111.62666666666667" y2="201.5" stroke="black" stroke-width="1" /><text x="111.62666666666667" y="213.5" font-size="12" text-anchor="middle">2</text><line x1="151.05333333333334" y1="196.5" x2="151.05333333333334" y2="201.5" stroke="black" stroke-width="1" /><text x="151.05333333333334" y="213.5" font-size="12" text-anchor="middle">4</text><line x1="190.47999999999996" y1="196.5" x2="190.47999999999996" y2="201.5" stroke="black" stroke-width="1" /><text x="190.47999999999996" y="213.5" font-size="12" text-anchor="middle">6</text><line x1="229.90666666666667" y1="196.5" x2="229.90666666666667" y2="201.5" stroke="black" stroke-width="1" /><text x="229.90666666666667" y="213.5" font-size="12" text-anchor="middle">8</text><line x1="269.3333333333333" y1="196.5" x2="269.3333333333333" y2="201.5" stroke="black" stroke-width="1" /><text x="269.3333333333333" y="213.5" font-size="12" text-anchor="middle">10</text><line x1="67.19999999999999" y1="196.5" x2="72.19999999999999" y2="196.5" stroke="black" stroke-width="1" /><text x="64.19999999999999" y="200.7" font-size="12" text-anchor="end">0</text><line x1="67.19999999999999" y1="174.71428571428572" x2="72.19999999999999" y2="174.71428571428572" stroke="black" stroke-width="1" /><text x="64.19999999999999" y="178.9142857142857" font-size="12" text-anchor="end">1</text><line x1="67.19999999999999" y1="152.92857142857144" x2="72.19999999999999" y2="152.92857142857144" stroke="black" stroke-width="1" /><text x="64.19999999999999" y="157.12857142857143" font-size="12" text-anchor="end">2</text><line x1="67.19999999999999" y1="131.14285714285717" x2="72.19999999999999" y2="131.14285714285717" stroke="black" stroke-width="1" /><text x="64.19999999999999" y="135.34285714285716" font-size="12" text-anchor="end">3</text><line x1="67.19999999999999" y1="109.35714285714286" x2="72.19999999999999" y2="109.35714285714286" stroke="black" stroke-width="1" /><text x="64.19999999999999" y="113.55714285714286" font-size="12" text-anchor="end">4</text><line x1="67.19999999999999" y1="87.57142857142857" x2="72.19999999999999" y2="87.57142857142857" stroke="black" stroke-width="1" /><text x="64.19999999999999" y="91.77142857142857" font-size="12" text-anchor="end">5</text><line x1="67.19999999999999" y1="65.7857142857143" x2="72.19999999999999" y2="65.7857142857143" stroke="black" stroke-width="1" /><text x="64.19999999999999" y="69.98571428571431" font-size="12" text-anchor="end">6</text><line x1="67.19999999999999" y1="44" x2="72.19999999999999" y2="44" stroke="black" stroke-width="1" /><text x="64.19999999999999" y="48.2" font-size="12" text-anchor="end">7</text><text x="141.66666666666666" y="22" font-size="18" text-anchor="middle">Epsilon</text><circle cx="72.19999999999999" cy="167.87415534153848" r="4.5" fill="mediumpurple" /><circle cx="91.91333333333333" cy="136.89778571862809" r="4.5" fill="mediumpurple" /><circle cx="111.62666666666667" cy="120.65388288752418" r="4.5" fill="mediumpurple" /><circle cx="131.33999999999997" cy="118.7286080240018" r="4.5" fill="mediumpurple" /><circle cx="151.05333333333334" cy="125.70621360524655" r="4.5" fill="mediumpurple" /><circle cx="170.76666666666665" cy="133.06091983160826" r="4.5" fill="mediumpurple" /><circle cx="190.47999999999996" cy="132.1352147988437" r="4.5" fill="mediumpurple" /><circle cx="210.1933333333333" cy="117.16417248445026" r="4.5" fill="mediumpurple" /><circle cx="229.90666666666667" cy="87.2893072652889" r="4.5" fill="mediumpurple" /><circle cx="249.61999999999998" cy="46.85846764453356" r="4.5" fill="mediumpurple" /></g><text x="316.3333333333333" y="320.5" font-size="16" text-anchor="start" font-weight="bold">E</text><g transform="translate(606.6666666666666,302.5)"><line x1="72.19999999999999" y1="196.5" x2="269.3333333333333" y2="196.5" stroke="black" stroke-width="1" /><line x1="72.19999999999999" y1="44" x2="72.19999999999999" y2="196.5" stroke="black" stroke-width="1" /><line x1="111.62666666666667" y1="44" x2="111.62666666666667" y2="196.5" stroke="#ccc" stroke-width="1" /><line x1="151.05333333333334" y1="44" x2="151.05333333333334" y2="196.5" stroke="#ccc" stroke-width="1" /><line x1="190.47999999999996" y1="44" x2="190.47999999999996" y2="196.5" stroke="#ccc" stroke-width="1" /><line x1="229.90666666666667" y1="44" x2="229.90666666666667" y2="196.5" stroke="#ccc" stroke-width="1" /><line x1="269.3333333333333" y1="44" x2="269.3333333333333" y2="196.5" stroke="#ccc" stroke-width="1" /><line x1="72.19999999999999" y1="166" x2="269.3333333333333" y2="166" stroke="#ccc" stroke-width="1" /><line x1="72.19999999999999" y1="135.5" x2="269.3333333333333" y2="135.5" stroke="#ccc" stroke-width="1" /><line x1="72.19999999999999" y1="105" x2="269.3333333333333" y2="105" stroke="#ccc" stroke-width="1" /><line x1="72.19999999999999" y1="74.5" x2="269.3333333333333" y2="74.5" stroke="#ccc" stroke-width="1" /><line x1="72.19999999999999" y1="44" x2="269.3333333333333" y2="44" stroke="#ccc" stroke-width="1" /><line x1="72.19999999999999" y1="196.5" x2="72.19999999999999" y2="201.5" stroke="black" stroke-width="1" /><text x="72.19999999999999" y="213.5" font-size="12" text-anchor="middle">0</text><line x1="111.62666666666667" y1="196.5" x2="111.62666666666667" y2="201.5" stroke="black" stroke-width="1" /><text x="111.62666666666667" y="213.5" font-size="12" text-anchor="middle">2</text><line x1="151.05333333333334" y1="196.5" x2="151.05333333333334" y2="201.5" stroke="black" stroke-width="1" /><text x="151.05333333333334" y="213.5" font-size="12" text-anchor="middle">4</text><line x1="190.47999999999996" y1="196.5" x2="190.47999999999996" y2="201.5" stroke="black" stroke-width="1" /><text x="190.47999999999996" y="213.5" font-size="12" text-anchor="middle">6</text><line x1="229.90666666666667" y1="196.5" x2="229.90666666666667" y2="201.5" stroke="black" stroke-width="1" /><text x="229.90666666666667" y="213.5" font-size="12" text-anchor="middle">8</text><line x1="269.3333333333333" y1="196.5" x2="269.3333333333333" y2="201.5" stroke="black" stroke-width="1" /><text x="269.3333333333333" y="213.5" font-size="12" text-anchor="middle">10</text><line x1="67.19999999999999" y1="196.5" x2="72.19999999999999" y2="196.5" stroke="black" stroke-width="1" /><text x="64.19999999999999" y="200.7" font-size="12" text-anchor="end">-2</text><line x1="67.19999999999999" y1="166" x2="72.19999999999999" y2="166" stroke="black" stroke-width="1" /><text x="64.19999999999999" y="170.2" font-size="12" text-anchor="end">0</text><line x1="67.19999999999999" y1="135.5" x2="72.19999999999999" y2="135.5" stroke="black" stroke-width="1" /><text x="64.19999999999999" y="139.7" font-size="12" text-anchor="end">2</text><line x1="67.19999999999999" y1="105" x2="72.19999999999999" y2="105" stroke="black" stroke-width="1" /><text x="64.19999999999999" y="109.2" font-size="12" text-anchor="end">4</text><line x1="67.19999999999999" y1="74.5" x2="72.19999999999999" y2="74.5" stroke="black" stroke-width="1" /><text x="64.19999999999999" y="78.7" font-size="12" text-anchor="end">6</text><line x1="67.19999999999999" y1="44" x2="72.19999999999999" y2="44" stroke="black" stroke-width="1" /><text x="64.19999999999999" y="48.2" font-size="12" text-anchor="end">8</text><text x="141.66666666666666" y="22" font-size="18" text-anchor="middle">Zeta</text><circle cx="72.19999999999999" cy="189.08247610689182" r="4.5" fill="teal" /><circle cx="91.91333333333333" cy="184.10757561082067" r="4.5" fill="teal" /><circle cx="111.62666666666667" cy="168.54536699946468" r="4.5" fill="teal" /><circle cx="131.33999999999997" cy="143.5703664721196" r="4.5" fill="teal" /><circle cx="151.05333333333334" cy="113.64524925205994" r="4.5" fill="teal" /><circle cx="170.76666666666665" cy="84.96190873907695" r="4.5" fill="teal" /><circle cx="190.47999999999996" cy="63.27845000303964" r="4.5" fill="teal" /><circle cx="210.1933333333333" cy="51.9077180212669" r="4.5" fill="teal" /><circle cx="229.90666666666667" cy="50.56002561680128" r="4.5" fill="teal" /><circle cx="249.61999999999998" cy="55.44434952367254" r="4.5" fill="teal" /></g><text x="614.6666666666666" y="320.5" font-size="16" text-anchor="start" font-weight="bold">F</text><text x="450" y="22" font-size="20" text-anchor="middle">Fixed 900 × 560 figure — cells auto-sized</text></svg>