<svg xmlns="http://www.w3.org/2000/svg" width="1190" height="635" font-family="DejaVu Sans, Liberation Sans, Arial, sans-serif" fill="black"><rect width="100%" height="100%" fill="white" /><g transform="translate(10,10)"><line x1="72.19999999999999" y1="249" x2="275" y2="249" stroke="black" stroke-width="1" /><line x1="72.19999999999999" y1="44" x2="72.19999999999999" y2="249" stroke="black" stroke-width="1" /><line x1="114.44999999999999" y1="44" x2="114.44999999999999" y2="249" stroke="#ccc" stroke-width="1" /><line x1="156.7" y1="44" x2="156.7" y2="249" stroke="#ccc" stroke-width="1" /><line x1="198.95" y1="44" x2="198.95" y2="249" stroke="#ccc" stroke-width="1" /><line x1="241.20000000000002" y1="44" x2="241.20000000000002" y2="249" stroke="#ccc" stroke-width="1" /><line x1="72.19999999999999" y1="208" x2="275" y2="208" stroke="#ccc" stroke-width="1" /><line x1="72.19999999999999" y1="167" x2="275" y2="167" stroke="#ccc" stroke-width="1" /><line x1="72.19999999999999" y1="126" x2="275" y2="126" stroke="#ccc" stroke-width="1" /><line x1="72.19999999999999" y1="85" x2="275" y2="85" stroke="#ccc" stroke-width="1" /><line x1="72.19999999999999" y1="44" x2="275" y2="44" stroke="#ccc" stroke-width="1" /><line x1="72.19999999999999" y1="249" x2="72.19999999999999" y2="254" stroke="black" stroke-width="1" /><text x="72.19999999999999" y="266" font-size="12" text-anchor="middle">0</text><line x1="114.44999999999999" y1="249" x2="114.44999999999999" y2="254" stroke="black" stroke-width="1" /><text x="114.44999999999999" y="266" font-size="12" text-anchor="middle">2.5</text><line x1="156.7" y1="249" x2="156.7" y2="254" stroke="black" stroke-width="1" /><text x="156.7" y="266" font-size="12" text-anchor="middle">5</text><line x1="198.95" y1="249" x2="198.95" y2="254" stroke="black" stroke-width="1" /><text x="198.95" y="266" font-size="12" text-anchor="middle">7.5</text><line x1="241.20000000000002" y1="249" x2="241.20000000000002" y2="254" stroke="black" stroke-width="1" /><text x="241.20000000000002" y="266" font-size="12" text-anchor="middle">10</text><line x1="67.19999999999999" y1="249" x2="72.19999999999999" y2="249" stroke="black" stroke-width="1" /><text x="64.19999999999999" y="253.2" font-size="12" text-anchor="end">0</text><line x1="67.19999999999999" y1="208" x2="72.19999999999999" y2="208" stroke="black" stroke-width="1" /><text x="64.19999999999999" y="212.2" font-size="12" text-anchor="end">2.5</text><line x1="67.19999999999999" y1="167" x2="72.19999999999999" y2="167" stroke="black" stroke-width="1" /><text x="64.19999999999999" y="171.2" font-size="12" text-anchor="end">5</text><line x1="67.19999999999999" y1="126" x2="72.19999999999999" y2="126" stroke="black" stroke-width="1" /><text x="64.19999999999999" y="130.2" font-size="12" text-anchor="end">7.5</text><line x1="67.19999999999999" y1="85" x2="72.19999999999999" y2="85" stroke="black" stroke-width="1" /><text x="64.19999999999999" y="89.2" font-size="12" text-anchor="end">10</text><line x1="67.19999999999999" y1="44" x2="72.19999999999999" y2="44" stroke="black" stroke-width="1" /><text x="64.19999999999999" y="48.2" font-size="12" text-anchor="end">12.5</text><text x="190" y="22" font-size="18" text-anchor="middle">Sample A</text><path d="M 72.19999999999999 249 L 89.1 213.10965985860372 L 105.99999999999999 187.15724885637852 L 122.89999999999999 176.40673277391693 L 139.79999999999998 178.9723886748863 L 156.7 186.70568986821954 L 173.6 189.02768533516567 L 190.5 177.9044456940781 L 207.39999999999998 151.62554572221217 L 224.3 115.60850406411333 L 241.20000000000002 79.85083956202371 L 258.1 54.2280819288344 " stroke="steelblue" stroke-width="2" fill="none" /><rect x="280" y="34" width="91" height="38" fill="white" /><rect x="280" y="34" width="91" height="38" fill="none" stroke="black" stroke-width="1" /><text x="310" y="49" font-size="12" text-anchor="start">Sample A</text><line x1="290" y1="46" x2="302" y2="46" stroke="steelblue" stroke-width="2" /></g><text x="18" y="28" font-size="16" text-anchor="start" font-weight="bold">A</text><g transform="translate(405,10)"><line x1="72.19999999999999" y1="249" x2="275" y2="249" stroke="black" stroke-width="1" /><line x1="72.19999999999999" y1="44" x2="72.19999999999999" y2="249" stroke="black" stroke-width="1" /><line x1="114.44999999999999" y1="44" x2="114.44999999999999" y2="249" stroke="#ccc" stroke-width="1" /><line x1="156.7" y1="44" x2="156.7" y2="249" stroke="#ccc" stroke-width="1" /><line x1="198.95" y1="44" x2="198.95" y2="249" stroke="#ccc" stroke-width="1" /><line x1="241.20000000000002" y1="44" x2="241.20000000000002" y2="249" stroke="#ccc" stroke-width="1" /><line x1="72.19999999999999" y1="208" x2="275" y2="208" stroke="#ccc" stroke-width="1" /><line x1="72.19999999999999" y1="167" x2="275" y2="167" stroke="#ccc" stroke-width="1" /><line x1="72.19999999999999" y1="126" x2="275" y2="126" stroke="#ccc" stroke-width="1" /><line x1="72.19999999999999" y1="85" x2="275" y2="85" stroke="#ccc" stroke-width="1" /><line x1="72.19999999999999" y1="44" x2="275" y2="44" stroke="#ccc" stroke-width="1" /><line x1="72.19999999999999" y1="249" x2="72.19999999999999" y2="254" stroke="black" stroke-width="1" /><text x="72.19999999999999" y="266" font-size="12" text-anchor="middle">0</text><line x1="114.44999999999999" y1="249" x2="114.44999999999999" y2="254" stroke="black" stroke-width="1" /><text x="114.44999999999999" y="266" font-size="12" text-anchor="middle">2.5</text><line x1="156.7" y1="249" x2="156.7" y2="254" stroke="black" stroke-width="1" /><text x="156.7" y="266" font-size="12" text-anchor="middle">5</text><line x1="198.95" y1="249" x2="198.95" y2="254" stroke="black" stroke-width="1" /><text x="198.95" y="266" font-size="12" text-anchor="middle">7.5</text><line x1="241.20000000000002" y1="249" x2="241.20000000000002" y2="254" stroke="black" stroke-width="1" /><text x="241.20000000000002" y="266" font-size="12" text-anchor="middle">10</text><line x1="67.19999999999999" y1="249" x2="72.19999999999999" y2="249" stroke="black" stroke-width="1" /><text x="64.19999999999999" y="253.2" font-size="12" text-anchor="end">0</text><line x1="67.19999999999999" y1="208" x2="72.19999999999999" y2="208" stroke="black" stroke-width="1" /><text x="64.19999999999999" y="212.2" font-size="12" text-anchor="end">2.5</text><line x1="67.19999999999999" y1="167" x2="72.19999999999999" y2="167" stroke="black" stroke-width="1" /><text x="64.19999999999999" y="171.2" font-size="12" text-anchor="end">5</text><line x1="67.19999999999999" y1="126" x2="72.19999999999999" y2="126" stroke="black" stroke-width="1" /><text x="64.19999999999999" y="130.2" font-size="12" text-anchor="end">7.5</text><line x1="67.19999999999999" y1="85" x2="72.19999999999999" y2="85" stroke="black" stroke-width="1" /><text x="64.19999999999999" y="89.2" font-size="12" text-anchor="end">10</text><line x1="67.19999999999999" y1="44" x2="72.19999999999999" y2="44" stroke="black" stroke-width="1" /><text x="64.19999999999999" y="48.2" font-size="12" text-anchor="end">12.5</text><text x="190" y="22" font-size="18" text-anchor="middle">Sample B</text><path d="M 72.19999999999999 249 L 89.1 213.10965985860372 L 105.99999999999999 187.15724885637852 L 122.89999999999999 176.40673277391693 L 139.79999999999998 178.9723886748863 L 156.7 186.70568986821954 L 173.6 189.02768533516567 L 190.5 177.9044456940781 L 207.39999999999998 151.62554572221217 L 224.3 115.60850406411333 L 241.20000000000002 79.85083956202371 L 258.1 54.2280819288344 " stroke="crimson" stroke-width="2" fill="none" /><rect x="280" y="34" width="91" height="38" fill="white" /><rect x="280" y="34" width="91" height="38" fill="none" stroke="black" stroke-width="1" /><text x="310" y="49" font-size="12" text-anchor="start">Sample B</text><line x1="290" y1="46" x2="302" y2="46" stroke="crimson" stroke-width="2" /></g><text x="413" y="28" font-size="16" text-anchor="start" font-weight="bold">B</text><g transform="translate(800,10)"><line x1="72.19999999999999" y1="249" x2="275" y2="249" stroke="black" stroke-width="1" /><line x1="72.19999999999999" y1="44" x2="72.19999999999999" y2="249" stroke="black" stroke-width="1" /><line x1="114.44999999999999" y1="44" x2="114.44999999999999" y2="249" stroke="#ccc" stroke-width="1" /><line x1="156.7" y1="44" x2="156.7" y2="249" stroke="#ccc" stroke-width="1" /><line x1="198.95" y1="44" x2="198.95" y2="249" stroke="#ccc" stroke-width="1" /><line x1="241.20000000000002" y1="44" x2="241.20000000000002" y2="249" stroke="#ccc" stroke-width="1" /><line x1="72.19999999999999" y1="208" x2="275" y2="208" stroke="#ccc" stroke-width="1" /><line x1="72.19999999999999" y1="167" x2="275" y2="167" stroke="#ccc" stroke-width="1" /><line x1="72.19999999999999" y1="126" x2="275" y2="126" stroke="#ccc" stroke-width="1" /><line x1="72.19999999999999" y1="85" x2="275" y2="85" stroke="#ccc" stroke-width="1" /><line x1="72.19999999999999" y1="44" x2="275" y2="44" stroke="#ccc" stroke-width="1" /><line x1="72.19999999999999" y1="249" x2="72.19999999999999" y2="254" stroke="black" stroke-width="1" /><text x="72.19999999999999" y="266" font-size="12" text-anchor="middle">0</text><line x1="114.44999999999999" y1="249" x2="114.44999999999999" y2="254" stroke="black" stroke-width="1" /><text x="114.44999999999999" y="266" font-size="12" text-anchor="middle">2.5</text><line x1="156.7" y1="249" x2="156.7" y2="254" stroke="black" stroke-width="1" /><text x="156.7" y="266" font-size="12" text-anchor="middle">5</text><line x1="198.95" y1="249" x2="198.95" y2="254" stroke="black" stroke-width="1" /><text x="198.95" y="266" font-size="12" text-anchor="middle">7.5</text><line x1="241.20000000000002" y1="249" x2="241.20000000000002" y2="254" stroke="black" stroke-width="1" /><text x="241.20000000000002" y="266" font-size="12" text-anchor="middle">10</text><line x1="67.19999999999999" y1="249" x2="72.19999999999999" y2="249" stroke="black" stroke-width="1" /><text x="64.19999999999999" y="253.2" font-size="12" text-anchor="end">0</text><line x1="67.19999999999999" y1="208" x2="72.19999999999999" y2="208" stroke="black" stroke-width="1" /><text x="64.19999999999999" y="212.2" font-size="12" text-anchor="end">2.5</text><line x1="67.19999999999999" y1="167" x2="72.19999999999999" y2="167" stroke="black" stroke-width="1" /><text x="64.19999999999999" y="171.2" font-size="12" text-anchor="end">5</text><line x1="67.19999999999999" y1="126" x2="72.19999999999999" y2="126" stroke="black" stroke-width="1" /><text x="64.19999999999999" y="130.2" font-size="12" text-anchor="end">7.5</text><line x1="67.19999999999999" y1="85" x2="72.19999999999999" y2="85" stroke="black" stroke-width="1" /><text x="64.19999999999999" y="89.2" font-size="12" text-anchor="end">10</text><line x1="67.19999999999999" y1="44" x2="72.19999999999999" y2="44" stroke="black" stroke-width="1" /><text x="64.19999999999999" y="48.2" font-size="12" text-anchor="end">12.5</text><text x="190" y="22" font-size="18" text-anchor="middle">Sample C</text><path d="M 72.19999999999999 249 L 89.1 213.10965985860372 L 105.99999999999999 187.15724885637852 L 122.89999999999999 176.40673277391693 L 139.79999999999998 178.9723886748863 L 156.7 186.70568986821954 L 173.6 189.02768533516567 L 190.5 177.9044456940781 L 207.39999999999998 151.62554572221217 L 224.3 115.60850406411333 L 241.20000000000002 79.85083956202371 L 258.1 54.2280819288344 " stroke="seagreen" stroke-width="2" fill="none" /><rect x="280" y="34" width="91" height="38" fill="white" /><rect x="280" y="34" width="91" height="38" fill="none" stroke="black" stroke-width="1" /><text x="310" y="49" font-size="12" text-anchor="start">Sample C</text><line x1="290" y1="46" x2="302" y2="46" stroke="seagreen" stroke-width="2" /></g><text x="808" y="28" font-size="16" text-anchor="start" font-weight="bold">C</text><g transform="translate(10,325)"><line x1="72.19999999999999" y1="249" x2="1156" y2="249" stroke="black" stroke-width="1" /><line x1="72.19999999999999" y1="44" x2="72.19999999999999" y2="249" stroke="black" stroke-width="1" /><line x1="288.96" y1="44" x2="288.96" y2="249" stroke="#ccc" stroke-width="1" /><line x1="505.71999999999997" y1="44" x2="505.71999999999997" y2="249" stroke="#ccc" stroke-width="1" /><line x1="722.48" y1="44" x2="722.48" y2="249" stroke="#ccc" stroke-width="1" /><line x1="939.24" y1="44" x2="939.24" y2="249" stroke="#ccc" stroke-width="1" /><line x1="1156" y1="44" x2="1156" y2="249" stroke="#ccc" stroke-width="1" /><line x1="72.19999999999999" y1="214.83333333333334" x2="1156" y2="214.83333333333334" stroke="#ccc" stroke-width="1" /><line x1="72.19999999999999" y1="180.66666666666669" x2="1156" y2="180.66666666666669" stroke="#ccc" stroke-width="1" /><line x1="72.19999999999999" y1="146.5" x2="1156" y2="146.5" stroke="#ccc" stroke-width="1" /><line x1="72.19999999999999" y1="112.33333333333334" x2="1156" y2="112.33333333333334" stroke="#ccc" stroke-width="1" /><line x1="72.19999999999999" y1="78.16666666666666" x2="1156" y2="78.16666666666666" stroke="#ccc" stroke-width="1" /><line x1="72.19999999999999" y1="44" x2="1156" y2="44" stroke="#ccc" stroke-width="1" /><line x1="72.19999999999999" y1="249" x2="72.19999999999999" y2="254" stroke="black" stroke-width="1" /><text x="72.19999999999999" y="266" font-size="12" text-anchor="middle">0</text><line x1="288.96" y1="249" x2="288.96" y2="254" stroke="black" stroke-width="1" /><text x="288.96" y="266" font-size="12" text-anchor="middle">2</text><line x1="505.71999999999997" y1="249" x2="505.71999999999997" y2="254" stroke="black" stroke-width="1" /><text x="505.71999999999997" y="266" font-size="12" text-anchor="middle">4</text><line x1="722.48" y1="249" x2="722.48" y2="254" stroke="black" stroke-width="1" /><text x="722.48" y="266" font-size="12" text-anchor="middle">6</text><line x1="939.24" y1="249" x2="939.24" y2="254" stroke="black" stroke-width="1" /><text x="939.24" y="266" font-size="12" text-anchor="middle">8</text><line x1="1156" y1="249" x2="1156" y2="254" stroke="black" stroke-width="1" /><text x="1156" y="266" font-size="12" text-anchor="middle">10</text><line x1="67.19999999999999" y1="249" x2="72.19999999999999" y2="249" stroke="black" stroke-width="1" /><text x="64.19999999999999" y="253.2" font-size="12" text-anchor="end">-1</text><line x1="67.19999999999999" y1="214.83333333333334" x2="72.19999999999999" y2="214.83333333333334" stroke="black" stroke-width="1" /><text x="64.19999999999999" y="219.03333333333333" font-size="12" text-anchor="end">0</text><line x1="67.19999999999999" y1="180.66666666666669" x2="72.19999999999999" y2="180.66666666666669" stroke="black" stroke-width="1" /><text x="64.19999999999999" y="184.86666666666667" font-size="12" text-anchor="end">1</text><line x1="67.19999999999999" y1="146.5" x2="72.19999999999999" y2="146.5" stroke="black" stroke-width="1" /><text x="64.19999999999999" y="150.7" font-size="12" text-anchor="end">2</text><line x1="67.19999999999999" y1="112.33333333333334" x2="72.19999999999999" y2="112.33333333333334" stroke="black" stroke-width="1" /><text x="64.19999999999999" y="116.53333333333335" font-size="12" text-anchor="end">3</text><line x1="67.19999999999999" y1="78.16666666666666" x2="72.19999999999999" y2="78.16666666666666" stroke="black" stroke-width="1" /><text x="64.19999999999999" y="82.36666666666666" font-size="12" text-anchor="end">4</text><line x1="67.19999999999999" y1="44" x2="72.19999999999999" y2="44" stroke="black" stroke-width="1" /><text x="64.19999999999999" y="48.2" font-size="12" text-anchor="end">5</text><text x="585" y="293" font-size="14" text-anchor="middle">Time</text><text x="14" y="150" font-size="14" text-anchor="middle" transform="rotate(-90,14,150)">Value</text><text x="585" y="22" font-size="18" text-anchor="middle">Combined</text><path d="M 72.19999999999999 214.83333333333334 L 99.29499999999999 199.4916731613475 L 126.38999999999999 184.34942750974471 L 153.48499999999999 169.60289910201345 L 180.57999999999998 155.44221562640251 L 207.67499999999998 142.04836285693597 L 234.76999999999998 129.5903604309416 L 261.865 118.22262435414055 L 288.96 108.08255739052393 L 316.05499999999995 99.28840493817609 L 343.15 91.93740984938574 L 370.245 86.10429498845986 L 397.34 81.84009720641774 L 424.435 79.17137092800058 L 451.53 78.09977377875481 L 478.62499999999994 78.60204071833971 L 505.71999999999997 80.63034708370094 L 532.8149999999999 84.11305487694202 L 559.91 88.95583065232142 L 587.0049999999999 95.04311755812299 L 614.0999999999999 102.23993856267779 L 641.1949999999999 110.3940027257992 L 668.29 119.33808164796935 L 695.385 128.8926190135827 L 722.48 138.86853250719696 L 749.575 149.07016437982517 L 776.6700000000001 159.29833462266947 L 803.7650000000001 169.35344910454057 L 830.8599999999999 179.03861417151936 L 857.9549999999999 188.16270910657326 L 885.05 196.54336850442357 L 912.145 204.00982802270127 L 939.24 210.40558910239596 L 966.3349999999998 215.59086107552702 L 993.4299999999998 219.44474255176314 L 1020.5249999999999 221.867108044182 L 1047.62 222.78017039400578 L 1074.715 222.12969461319744 L 1101.81 219.88584420330957 L 1128.905 216.04364674406355 " stroke="darkorange" stroke-width="2" fill="none" /></g><text x="18" y="343" font-size="16" text-anchor="start" font-weight="bold">D</text></svg>