<svg xmlns="http://www.w3.org/2000/svg" width="993" height="360" font-family="DejaVu Sans, Liberation Sans, Arial, sans-serif" fill="black"><rect width="100%" height="100%" fill="white" /><g transform="translate(10,10)"><line x1="72.19999999999999" y1="289" x2="406" y2="289" stroke="black" stroke-width="1" /><line x1="72.19999999999999" y1="44" x2="72.19999999999999" y2="289" stroke="black" stroke-width="1" /><line x1="155.64999999999998" y1="44" x2="155.64999999999998" y2="289" stroke="#ccc" stroke-width="1" /><line x1="239.1" y1="44" x2="239.1" y2="289" stroke="#ccc" stroke-width="1" /><line x1="322.55" y1="44" x2="322.55" y2="289" stroke="#ccc" stroke-width="1" /><line x1="406" y1="44" x2="406" y2="289" stroke="#ccc" stroke-width="1" /><line x1="72.19999999999999" y1="237.95833333333331" x2="406" y2="237.95833333333331" stroke="#ccc" stroke-width="1" /><line x1="72.19999999999999" y1="186.91666666666666" x2="406" y2="186.91666666666666" stroke="#ccc" stroke-width="1" /><line x1="72.19999999999999" y1="135.875" x2="406" y2="135.875" stroke="#ccc" stroke-width="1" /><line x1="72.19999999999999" y1="84.83333333333331" x2="406" y2="84.83333333333331" stroke="#ccc" stroke-width="1" /><line x1="72.19999999999999" y1="289" x2="72.19999999999999" y2="294" stroke="black" stroke-width="1" /><text x="72.19999999999999" y="306" font-size="12" text-anchor="middle">0</text><line x1="155.64999999999998" y1="289" x2="155.64999999999998" y2="294" stroke="black" stroke-width="1" /><text x="155.64999999999998" y="306" font-size="12" text-anchor="middle">2</text><line x1="239.1" y1="289" x2="239.1" y2="294" stroke="black" stroke-width="1" /><text x="239.1" y="306" font-size="12" text-anchor="middle">4</text><line x1="322.55" y1="289" x2="322.55" y2="294" stroke="black" stroke-width="1" /><text x="322.55" y="306" font-size="12" text-anchor="middle">6</text><line x1="406" y1="289" x2="406" y2="294" stroke="black" stroke-width="1" /><text x="406" y="306" font-size="12" text-anchor="middle">8</text><line x1="67.19999999999999" y1="289" x2="72.19999999999999" y2="289" stroke="black" stroke-width="1" /><text x="64.19999999999999" y="293.2" font-size="12" text-anchor="end">0</text><line x1="67.19999999999999" y1="237.95833333333331" x2="72.19999999999999" y2="237.95833333333331" stroke="black" stroke-width="1" /><text x="64.19999999999999" y="242.1583333333333" font-size="12" text-anchor="end">2.5</text><line x1="67.19999999999999" y1="186.91666666666666" x2="72.19999999999999" y2="186.91666666666666" stroke="black" stroke-width="1" /><text x="64.19999999999999" y="191.11666666666665" font-size="12" text-anchor="end">5</text><line x1="67.19999999999999" y1="135.875" x2="72.19999999999999" y2="135.875" stroke="black" stroke-width="1" /><text x="64.19999999999999" y="140.075" font-size="12" text-anchor="end">7.5</text><line x1="67.19999999999999" y1="84.83333333333331" x2="72.19999999999999" y2="84.83333333333331" stroke="black" stroke-width="1" /><text x="64.19999999999999" y="89.03333333333332" font-size="12" text-anchor="end">10</text><text x="210" y="333" font-size="14" text-anchor="middle">Time</text><text x="14" y="170" font-size="14" text-anchor="middle" transform="rotate(-90,14,170)">Response</text><text x="210" y="22" font-size="18" text-anchor="middle">Experiment 1</text><circle cx="72.19999999999999" cy="268.5833333333333" r="4.5" fill="steelblue" /><circle cx="113.92499999999998" cy="250.20833333333334" r="4.5" fill="steelblue" /><circle cx="155.64999999999998" cy="231.83333333333334" r="4.5" fill="steelblue" /><circle cx="197.375" cy="213.45833333333331" r="4.5" fill="steelblue" /><circle cx="239.1" cy="195.08333333333334" r="4.5" fill="steelblue" /><circle cx="280.825" cy="176.70833333333334" r="4.5" fill="steelblue" /><circle cx="322.55" cy="158.33333333333334" r="4.5" fill="steelblue" /><circle cx="364.275" cy="139.95833333333334" r="4.5" fill="steelblue" /><circle cx="72.19999999999999" cy="278.7916666666667" r="4.5" fill="crimson" /><circle cx="113.92499999999998" cy="250.20833333333334" r="4.5" fill="crimson" /><circle cx="155.64999999999998" cy="221.625" r="4.5" fill="crimson" /><circle cx="197.375" cy="193.04166666666669" r="4.5" fill="crimson" /><circle cx="239.1" cy="164.45833333333334" r="4.5" fill="crimson" /><circle cx="280.825" cy="135.875" r="4.5" fill="crimson" /><circle cx="322.55" cy="107.29166666666669" r="4.5" fill="crimson" /><circle cx="364.275" cy="78.70833333333334" r="4.5" fill="crimson" /></g><g transform="translate(445,10)"><line x1="72.19999999999999" y1="289" x2="406" y2="289" stroke="black" stroke-width="1" /><line x1="72.19999999999999" y1="44" x2="72.19999999999999" y2="289" stroke="black" stroke-width="1" /><line x1="155.64999999999998" y1="44" x2="155.64999999999998" y2="289" stroke="#ccc" stroke-width="1" /><line x1="239.1" y1="44" x2="239.1" y2="289" stroke="#ccc" stroke-width="1" /><line x1="322.55" y1="44" x2="322.55" y2="289" stroke="#ccc" stroke-width="1" /><line x1="406" y1="44" x2="406" y2="289" stroke="#ccc" stroke-width="1" /><line x1="72.19999999999999" y1="237.95833333333331" x2="406" y2="237.95833333333331" stroke="#ccc" stroke-width="1" /><line x1="72.19999999999999" y1="186.91666666666666" x2="406" y2="186.91666666666666" stroke="#ccc" stroke-width="1" /><line x1="72.19999999999999" y1="135.875" x2="406" y2="135.875" stroke="#ccc" stroke-width="1" /><line x1="72.19999999999999" y1="84.83333333333331" x2="406" y2="84.83333333333331" stroke="#ccc" stroke-width="1" /><line x1="72.19999999999999" y1="289" x2="72.19999999999999" y2="294" stroke="black" stroke-width="1" /><text x="72.19999999999999" y="306" font-size="12" text-anchor="middle">0</text><line x1="155.64999999999998" y1="289" x2="155.64999999999998" y2="294" stroke="black" stroke-width="1" /><text x="155.64999999999998" y="306" font-size="12" text-anchor="middle">2</text><line x1="239.1" y1="289" x2="239.1" y2="294" stroke="black" stroke-width="1" /><text x="239.1" y="306" font-size="12" text-anchor="middle">4</text><line x1="322.55" y1="289" x2="322.55" y2="294" stroke="black" stroke-width="1" /><text x="322.55" y="306" font-size="12" text-anchor="middle">6</text><line x1="406" y1="289" x2="406" y2="294" stroke="black" stroke-width="1" /><text x="406" y="306" font-size="12" text-anchor="middle">8</text><line x1="67.19999999999999" y1="289" x2="72.19999999999999" y2="289" stroke="black" stroke-width="1" /><text x="64.19999999999999" y="293.2" font-size="12" text-anchor="end">0</text><line x1="67.19999999999999" y1="237.95833333333331" x2="72.19999999999999" y2="237.95833333333331" stroke="black" stroke-width="1" /><text x="64.19999999999999" y="242.1583333333333" font-size="12" text-anchor="end">2.5</text><line x1="67.19999999999999" y1="186.91666666666666" x2="72.19999999999999" y2="186.91666666666666" stroke="black" stroke-width="1" /><text x="64.19999999999999" y="191.11666666666665" font-size="12" text-anchor="end">5</text><line x1="67.19999999999999" y1="135.875" x2="72.19999999999999" y2="135.875" stroke="black" stroke-width="1" /><text x="64.19999999999999" y="140.075" font-size="12" text-anchor="end">7.5</text><line x1="67.19999999999999" y1="84.83333333333331" x2="72.19999999999999" y2="84.83333333333331" stroke="black" stroke-width="1" /><text x="64.19999999999999" y="89.03333333333332" font-size="12" text-anchor="end">10</text><text x="210" y="333" font-size="14" text-anchor="middle">Time</text><text x="210" y="22" font-size="18" text-anchor="middle">Experiment 2</text><circle cx="93.06249999999999" cy="259.3958333333333" r="4.5" fill="steelblue" /><circle cx="134.7875" cy="241.02083333333334" r="4.5" fill="steelblue" /><circle cx="176.5125" cy="222.64583333333334" r="4.5" fill="steelblue" /><circle cx="218.23749999999998" cy="204.27083333333331" r="4.5" fill="steelblue" /><circle cx="259.9625" cy="185.89583333333331" r="4.5" fill="steelblue" /><circle cx="301.6875" cy="167.52083333333331" r="4.5" fill="steelblue" /><circle cx="343.4125" cy="149.14583333333331" r="4.5" fill="steelblue" /><circle cx="385.1375" cy="130.77083333333331" r="4.5" fill="steelblue" /><circle cx="93.06249999999999" cy="264.5" r="4.5" fill="crimson" /><circle cx="134.7875" cy="235.91666666666669" r="4.5" fill="crimson" /><circle cx="176.5125" cy="207.33333333333334" r="4.5" fill="crimson" /><circle cx="218.23749999999998" cy="178.75" r="4.5" fill="crimson" /><circle cx="259.9625" cy="150.16666666666666" r="4.5" fill="crimson" /><circle cx="301.6875" cy="121.58333333333334" r="4.5" fill="crimson" /><circle cx="343.4125" cy="93.00000000000003" r="4.5" fill="crimson" /><circle cx="385.1375" cy="64.41666666666669" r="4.5" fill="crimson" /></g><rect x="880" y="152" width="98" height="56" fill="white" /><rect x="880" y="152" width="98" height="56" fill="none" stroke="black" stroke-width="1" /><text x="910" y="167" font-size="12" text-anchor="start">Control</text><circle cx="896" cy="163" r="5" fill="steelblue" /><text x="910" y="185" font-size="12" text-anchor="start">Treatment</text><circle cx="896" cy="181" r="5" fill="crimson" /></svg>