<svg xmlns="http://www.w3.org/2000/svg" width="875" height="675" font-family="DejaVu Sans, Liberation Sans, Arial, sans-serif" fill="black"><rect width="100%" height="100%" fill="white" /><g transform="translate(10,10)"><line x1="72.19999999999999" y1="269" x2="406" y2="269" stroke="black" stroke-width="1" /><line x1="72.19999999999999" y1="44" x2="72.19999999999999" y2="269" stroke="black" stroke-width="1" /><line x1="138.95999999999998" y1="44" x2="138.95999999999998" y2="269" stroke="#ccc" stroke-width="1" /><line x1="205.72" y1="44" x2="205.72" y2="269" stroke="#ccc" stroke-width="1" /><line x1="272.48" y1="44" x2="272.48" y2="269" stroke="#ccc" stroke-width="1" /><line x1="339.24" y1="44" x2="339.24" y2="269" stroke="#ccc" stroke-width="1" /><line x1="406" y1="44" x2="406" y2="269" stroke="#ccc" stroke-width="1" /><line x1="72.19999999999999" y1="222.125" x2="406" y2="222.125" stroke="#ccc" stroke-width="1" /><line x1="72.19999999999999" y1="175.25" x2="406" y2="175.25" stroke="#ccc" stroke-width="1" /><line x1="72.19999999999999" y1="128.375" x2="406" y2="128.375" stroke="#ccc" stroke-width="1" /><line x1="72.19999999999999" y1="81.5" x2="406" y2="81.5" stroke="#ccc" stroke-width="1" /><line x1="72.19999999999999" y1="269" x2="72.19999999999999" y2="274" stroke="black" stroke-width="1" /><text x="72.19999999999999" y="286" font-size="12" text-anchor="middle">0</text><line x1="138.95999999999998" y1="269" x2="138.95999999999998" y2="274" stroke="black" stroke-width="1" /><text x="138.95999999999998" y="286" font-size="12" text-anchor="middle">2</text><line x1="205.72" y1="269" x2="205.72" y2="274" stroke="black" stroke-width="1" /><text x="205.72" y="286" font-size="12" text-anchor="middle">4</text><line x1="272.48" y1="269" x2="272.48" y2="274" stroke="black" stroke-width="1" /><text x="272.48" y="286" font-size="12" text-anchor="middle">6</text><line x1="339.24" y1="269" x2="339.24" y2="274" stroke="black" stroke-width="1" /><text x="339.24" y="286" font-size="12" text-anchor="middle">8</text><line x1="406" y1="269" x2="406" y2="274" stroke="black" stroke-width="1" /><text x="406" y="286" font-size="12" text-anchor="middle">10</text><line x1="67.19999999999999" y1="269" x2="72.19999999999999" y2="269" stroke="black" stroke-width="1" /><text x="64.19999999999999" y="273.2" font-size="12" text-anchor="end">0</text><line x1="67.19999999999999" y1="222.125" x2="72.19999999999999" y2="222.125" stroke="black" stroke-width="1" /><text x="64.19999999999999" y="226.325" font-size="12" text-anchor="end">2.5</text><line x1="67.19999999999999" y1="175.25" x2="72.19999999999999" y2="175.25" stroke="black" stroke-width="1" /><text x="64.19999999999999" y="179.45" font-size="12" text-anchor="end">5</text><line x1="67.19999999999999" y1="128.375" x2="72.19999999999999" y2="128.375" stroke="black" stroke-width="1" /><text x="64.19999999999999" y="132.575" font-size="12" text-anchor="end">7.5</text><line x1="67.19999999999999" y1="81.5" x2="72.19999999999999" y2="81.5" stroke="black" stroke-width="1" /><text x="64.19999999999999" y="85.7" font-size="12" text-anchor="end">10</text><text x="14" y="160" font-size="14" text-anchor="middle" transform="rotate(-90,14,160)">Value</text><text x="210" y="22" font-size="18" text-anchor="middle">Group A — rep 1</text><circle cx="72.19999999999999" cy="269" r="4.5" fill="steelblue" /><circle cx="105.57999999999998" cy="239.38577115117118" r="4.5" fill="steelblue" /><circle cx="138.95999999999998" cy="211.97241903485192" r="4.5" fill="steelblue" /><circle cx="172.33999999999997" cy="188.42196900117398" r="4.5" fill="steelblue" /><circle cx="205.72" cy="169.45067324701847" r="4.5" fill="steelblue" /><circle cx="239.1" cy="154.65364729805083" r="4.5" fill="steelblue" /><circle cx="272.48" cy="142.6039998488775" r="4.5" fill="steelblue" /><circle cx="305.86" cy="131.20218551918035" r="4.5" fill="steelblue" /><circle cx="339.24" cy="118.19004678702365" r="4.5" fill="steelblue" /><circle cx="372.62" cy="101.70368970622056" r="4.5" fill="steelblue" /></g><g transform="translate(445,10)"><line x1="10" y1="269" x2="406" y2="269" stroke="black" stroke-width="1" /><line x1="10" y1="44" x2="10" y2="269" stroke="black" stroke-width="1" /><line x1="89.2" y1="44" x2="89.2" y2="269" stroke="#ccc" stroke-width="1" /><line x1="168.4" y1="44" x2="168.4" y2="269" stroke="#ccc" stroke-width="1" /><line x1="247.6" y1="44" x2="247.6" y2="269" stroke="#ccc" stroke-width="1" /><line x1="326.8" y1="44" x2="326.8" y2="269" stroke="#ccc" stroke-width="1" /><line x1="406" y1="44" x2="406" y2="269" stroke="#ccc" stroke-width="1" /><line x1="10" y1="222.125" x2="406" y2="222.125" stroke="#ccc" stroke-width="1" /><line x1="10" y1="175.25" x2="406" y2="175.25" stroke="#ccc" stroke-width="1" /><line x1="10" y1="128.375" x2="406" y2="128.375" stroke="#ccc" stroke-width="1" /><line x1="10" y1="81.5" x2="406" y2="81.5" stroke="#ccc" stroke-width="1" /><line x1="10" y1="269" x2="10" y2="274" stroke="black" stroke-width="1" /><text x="10" y="286" font-size="12" text-anchor="middle">0</text><line x1="89.2" y1="269" x2="89.2" y2="274" stroke="black" stroke-width="1" /><text x="89.2" y="286" font-size="12" text-anchor="middle">2</text><line x1="168.4" y1="269" x2="168.4" y2="274" stroke="black" stroke-width="1" /><text x="168.4" y="286" font-size="12" text-anchor="middle">4</text><line x1="247.6" y1="269" x2="247.6" y2="274" stroke="black" stroke-width="1" /><text x="247.6" y="286" font-size="12" text-anchor="middle">6</text><line x1="326.8" y1="269" x2="326.8" y2="274" stroke="black" stroke-width="1" /><text x="326.8" y="286" font-size="12" text-anchor="middle">8</text><line x1="406" y1="269" x2="406" y2="274" stroke="black" stroke-width="1" /><text x="406" y="286" font-size="12" text-anchor="middle">10</text><text x="210" y="22" font-size="18" text-anchor="middle">Group A — rep 2</text><circle cx="10" cy="240.875" r="4.5" fill="steelblue" /><circle cx="49.6" cy="211.26077115117118" r="4.5" fill="steelblue" /><circle cx="89.2" cy="183.84741903485192" r="4.5" fill="steelblue" /><circle cx="128.8" cy="160.29696900117398" r="4.5" fill="steelblue" /><circle cx="168.4" cy="141.32567324701847" r="4.5" fill="steelblue" /><circle cx="208" cy="126.52864729805083" r="4.5" fill="steelblue" /><circle cx="247.6" cy="114.47899984887746" r="4.5" fill="steelblue" /><circle cx="287.2" cy="103.07718551918035" r="4.5" fill="steelblue" /><circle cx="326.8" cy="90.06504678702365" r="4.5" fill="steelblue" /><circle cx="366.40000000000003" cy="73.57868970622056" r="4.5" fill="steelblue" /></g><g transform="translate(10,345)"><line x1="72.19999999999999" y1="269" x2="406" y2="269" stroke="black" stroke-width="1" /><line x1="72.19999999999999" y1="44" x2="72.19999999999999" y2="269" stroke="black" stroke-width="1" /><line x1="138.95999999999998" y1="44" x2="138.95999999999998" y2="269" stroke="#ccc" stroke-width="1" /><line x1="205.72" y1="44" x2="205.72" y2="269" stroke="#ccc" stroke-width="1" /><line x1="272.48" y1="44" x2="272.48" y2="269" stroke="#ccc" stroke-width="1" /><line x1="339.24" y1="44" x2="339.24" y2="269" stroke="#ccc" stroke-width="1" /><line x1="406" y1="44" x2="406" y2="269" stroke="#ccc" stroke-width="1" /><line x1="72.19999999999999" y1="224" x2="406" y2="224" stroke="#ccc" stroke-width="1" /><line x1="72.19999999999999" y1="179" x2="406" y2="179" stroke="#ccc" stroke-width="1" /><line x1="72.19999999999999" y1="134" x2="406" y2="134" stroke="#ccc" stroke-width="1" /><line x1="72.19999999999999" y1="89" x2="406" y2="89" stroke="#ccc" stroke-width="1" /><line x1="72.19999999999999" y1="44" x2="406" y2="44" stroke="#ccc" stroke-width="1" /><line x1="72.19999999999999" y1="269" x2="72.19999999999999" y2="274" stroke="black" stroke-width="1" /><text x="72.19999999999999" y="286" font-size="12" text-anchor="middle">0</text><line x1="138.95999999999998" y1="269" x2="138.95999999999998" y2="274" stroke="black" stroke-width="1" /><text x="138.95999999999998" y="286" font-size="12" text-anchor="middle">2</text><line x1="205.72" y1="269" x2="205.72" y2="274" stroke="black" stroke-width="1" /><text x="205.72" y="286" font-size="12" text-anchor="middle">4</text><line x1="272.48" y1="269" x2="272.48" y2="274" stroke="black" stroke-width="1" /><text x="272.48" y="286" font-size="12" text-anchor="middle">6</text><line x1="339.24" y1="269" x2="339.24" y2="274" stroke="black" stroke-width="1" /><text x="339.24" y="286" font-size="12" text-anchor="middle">8</text><line x1="406" y1="269" x2="406" y2="274" stroke="black" stroke-width="1" /><text x="406" y="286" font-size="12" text-anchor="middle">10</text><line x1="67.19999999999999" y1="269" x2="72.19999999999999" y2="269" stroke="black" stroke-width="1" /><text x="64.19999999999999" y="273.2" font-size="12" text-anchor="end">0</text><line x1="67.19999999999999" y1="224" x2="72.19999999999999" y2="224" stroke="black" stroke-width="1" /><text x="64.19999999999999" y="228.2" font-size="12" text-anchor="end">5</text><line x1="67.19999999999999" y1="179" x2="72.19999999999999" y2="179" stroke="black" stroke-width="1" /><text x="64.19999999999999" y="183.2" font-size="12" text-anchor="end">10</text><line x1="67.19999999999999" y1="134" x2="72.19999999999999" y2="134" stroke="black" stroke-width="1" /><text x="64.19999999999999" y="138.2" font-size="12" text-anchor="end">15</text><line x1="67.19999999999999" y1="89" x2="72.19999999999999" y2="89" stroke="black" stroke-width="1" /><text x="64.19999999999999" y="93.2" font-size="12" text-anchor="end">20</text><line x1="67.19999999999999" y1="44" x2="72.19999999999999" y2="44" stroke="black" stroke-width="1" /><text x="64.19999999999999" y="48.2" font-size="12" text-anchor="end">25</text><text x="210" y="313" font-size="14" text-anchor="middle">X</text><text x="14" y="160" font-size="14" text-anchor="middle" transform="rotate(-90,14,160)">Value</text><text x="210" y="22" font-size="18" text-anchor="middle">Group B — rep 1</text><circle cx="72.19999999999999" cy="179" r="4.5" fill="crimson" /><circle cx="105.57999999999998" cy="164.7851701525622" r="4.5" fill="crimson" /><circle cx="138.95999999999998" cy="151.62676113672893" r="4.5" fill="crimson" /><circle cx="172.33999999999997" cy="140.3225451205635" r="4.5" fill="crimson" /><circle cx="205.72" cy="131.21632315856885" r="4.5" fill="crimson" /><circle cx="239.1" cy="124.11375070306437" r="4.5" fill="crimson" /><circle cx="272.48" cy="118.32991992746116" r="4.5" fill="crimson" /><circle cx="305.86" cy="112.85704904920652" r="4.5" fill="crimson" /><circle cx="339.24" cy="106.61122245777133" r="4.5" fill="crimson" /><circle cx="372.62" cy="98.69777105898586" r="4.5" fill="crimson" /></g><g transform="translate(445,345)"><line x1="10" y1="269" x2="406" y2="269" stroke="black" stroke-width="1" /><line x1="10" y1="44" x2="10" y2="269" stroke="black" stroke-width="1" /><line x1="89.2" y1="44" x2="89.2" y2="269" stroke="#ccc" stroke-width="1" /><line x1="168.4" y1="44" x2="168.4" y2="269" stroke="#ccc" stroke-width="1" /><line x1="247.6" y1="44" x2="247.6" y2="269" stroke="#ccc" stroke-width="1" /><line x1="326.8" y1="44" x2="326.8" y2="269" stroke="#ccc" stroke-width="1" /><line x1="406" y1="44" x2="406" y2="269" stroke="#ccc" stroke-width="1" /><line x1="10" y1="224" x2="406" y2="224" stroke="#ccc" stroke-width="1" /><line x1="10" y1="179" x2="406" y2="179" stroke="#ccc" stroke-width="1" /><line x1="10" y1="134" x2="406" y2="134" stroke="#ccc" stroke-width="1" /><line x1="10" y1="89" x2="406" y2="89" stroke="#ccc" stroke-width="1" /><line x1="10" y1="44" x2="406" y2="44" stroke="#ccc" stroke-width="1" /><line x1="10" y1="269" x2="10" y2="274" stroke="black" stroke-width="1" /><text x="10" y="286" font-size="12" text-anchor="middle">0</text><line x1="89.2" y1="269" x2="89.2" y2="274" stroke="black" stroke-width="1" /><text x="89.2" y="286" font-size="12" text-anchor="middle">2</text><line x1="168.4" y1="269" x2="168.4" y2="274" stroke="black" stroke-width="1" /><text x="168.4" y="286" font-size="12" text-anchor="middle">4</text><line x1="247.6" y1="269" x2="247.6" y2="274" stroke="black" stroke-width="1" /><text x="247.6" y="286" font-size="12" text-anchor="middle">6</text><line x1="326.8" y1="269" x2="326.8" y2="274" stroke="black" stroke-width="1" /><text x="326.8" y="286" font-size="12" text-anchor="middle">8</text><line x1="406" y1="269" x2="406" y2="274" stroke="black" stroke-width="1" /><text x="406" y="286" font-size="12" text-anchor="middle">10</text><text x="210" y="313" font-size="14" text-anchor="middle">X</text><text x="210" y="22" font-size="18" text-anchor="middle">Group B — rep 2</text><circle cx="10" cy="170" r="4.5" fill="crimson" /><circle cx="49.6" cy="155.78517015256216" r="4.5" fill="crimson" /><circle cx="89.2" cy="142.62676113672893" r="4.5" fill="crimson" /><circle cx="128.8" cy="131.32254512056352" r="4.5" fill="crimson" /><circle cx="168.4" cy="122.21632315856885" r="4.5" fill="crimson" /><circle cx="208" cy="115.1137507030644" r="4.5" fill="crimson" /><circle cx="247.6" cy="109.32991992746119" r="4.5" fill="crimson" /><circle cx="287.2" cy="103.85704904920655" r="4.5" fill="crimson" /><circle cx="326.8" cy="97.61122245777133" r="4.5" fill="crimson" /><circle cx="366.40000000000003" cy="89.6977710589859" r="4.5" fill="crimson" /></g></svg>