<svg xmlns="http://www.w3.org/2000/svg" width="875" height="675" font-family="DejaVu Sans, Liberation Sans, Arial, sans-serif" fill="black"><rect width="100%" height="100%" fill="white" /><g transform="translate(10,10)"><line x1="72.19999999999999" y1="604" x2="406" y2="604" stroke="black" stroke-width="1" /><line x1="72.19999999999999" y1="44" x2="72.19999999999999" y2="604" stroke="black" stroke-width="1" /><line x1="138.95999999999998" y1="44" x2="138.95999999999998" y2="604" stroke="#ccc" stroke-width="1" /><line x1="205.72" y1="44" x2="205.72" y2="604" stroke="#ccc" stroke-width="1" /><line x1="272.48" y1="44" x2="272.48" y2="604" stroke="#ccc" stroke-width="1" /><line x1="339.24" y1="44" x2="339.24" y2="604" stroke="#ccc" stroke-width="1" /><line x1="406" y1="44" x2="406" y2="604" stroke="#ccc" stroke-width="1" /><line x1="72.19999999999999" y1="492" x2="406" y2="492" stroke="#ccc" stroke-width="1" /><line x1="72.19999999999999" y1="380" x2="406" y2="380" stroke="#ccc" stroke-width="1" /><line x1="72.19999999999999" y1="268" x2="406" y2="268" stroke="#ccc" stroke-width="1" /><line x1="72.19999999999999" y1="156" x2="406" y2="156" stroke="#ccc" stroke-width="1" /><line x1="72.19999999999999" y1="44" x2="406" y2="44" stroke="#ccc" stroke-width="1" /><line x1="72.19999999999999" y1="604" x2="72.19999999999999" y2="609" stroke="black" stroke-width="1" /><text x="72.19999999999999" y="621" font-size="12" text-anchor="middle">0</text><line x1="138.95999999999998" y1="604" x2="138.95999999999998" y2="609" stroke="black" stroke-width="1" /><text x="138.95999999999998" y="621" font-size="12" text-anchor="middle">2</text><line x1="205.72" y1="604" x2="205.72" y2="609" stroke="black" stroke-width="1" /><text x="205.72" y="621" font-size="12" text-anchor="middle">4</text><line x1="272.48" y1="604" x2="272.48" y2="609" stroke="black" stroke-width="1" /><text x="272.48" y="621" font-size="12" text-anchor="middle">6</text><line x1="339.24" y1="604" x2="339.24" y2="609" stroke="black" stroke-width="1" /><text x="339.24" y="621" font-size="12" text-anchor="middle">8</text><line x1="406" y1="604" x2="406" y2="609" stroke="black" stroke-width="1" /><text x="406" y="621" font-size="12" text-anchor="middle">10</text><line x1="67.19999999999999" y1="604" x2="72.19999999999999" y2="604" stroke="black" stroke-width="1" /><text x="64.19999999999999" y="608.2" font-size="12" text-anchor="end">-2</text><line x1="67.19999999999999" y1="492" x2="72.19999999999999" y2="492" stroke="black" stroke-width="1" /><text x="64.19999999999999" y="496.2" font-size="12" text-anchor="end">0</text><line x1="67.19999999999999" y1="380" x2="72.19999999999999" y2="380" stroke="black" stroke-width="1" /><text x="64.19999999999999" y="384.2" font-size="12" text-anchor="end">2</text><line x1="67.19999999999999" y1="268" x2="72.19999999999999" y2="268" stroke="black" stroke-width="1" /><text x="64.19999999999999" y="272.2" font-size="12" text-anchor="end">4</text><line x1="67.19999999999999" y1="156" x2="72.19999999999999" y2="156" stroke="black" stroke-width="1" /><text x="64.19999999999999" y="160.2" font-size="12" text-anchor="end">6</text><line x1="67.19999999999999" y1="44" x2="72.19999999999999" y2="44" stroke="black" stroke-width="1" /><text x="64.19999999999999" y="48.2" font-size="12" text-anchor="end">8</text><text x="210" y="648" font-size="14" text-anchor="middle">Time</text><text x="14" y="327.5" font-size="14" text-anchor="middle" transform="rotate(-90,14,327.5)">Value</text><text x="210" y="22" font-size="18" text-anchor="middle">Full Series</text><path d="M 72.19999999999999 352 L 82.21399999999998 345.93268352071584 L 92.22799999999998 347.66071081090024 L 102.24199999999999 356.5071979202747 L 112.25599999999999 371.3872019498561 L 122.26999999999998 390.8699143732657 L 132.284 413.26068077665957 L 142.298 436.698145313582 L 152.31199999999998 459.2609511611257 L 162.32599999999996 479.07788047508575 L 172.33999999999997 494.4351201757744 L 182.35399999999998 503.8745046551994 L 192.368 506.2771037357165 L 202.382 500.92736427981 L 212.39600000000002 487.5541285941374 L 222.41 466.3461782867806 L 232.42399999999998 437.9414125408492 L 242.438 403.3902811496244 L 252.45199999999997 364.09556847977535 L 262.466 321.7319801897696 L 272.48 278.15014231847744 L 282.494 235.27051590503896 L 292.508 194.9733083836661 L 302.522 158.99069247811718 L 312.536 128.80751104535807 L 322.55 105.57615986894876 L 332.564 90.05052766518543 L 342.578 82.54278012840973 L 352.59200000000004 82.90546532904568 L 362.60599999999994 90.53996625542777 " stroke="steelblue" stroke-width="2" fill="none" /></g><text x="18" y="28" font-size="16" text-anchor="start" font-weight="bold">A</text><g transform="translate(445,10)"><line x1="72.19999999999999" y1="269" x2="406" y2="269" stroke="black" stroke-width="1" /><line x1="72.19999999999999" y1="44" x2="72.19999999999999" y2="269" stroke="black" stroke-width="1" /><line x1="138.95999999999998" y1="44" x2="138.95999999999998" y2="269" stroke="#ccc" stroke-width="1" /><line x1="205.72" y1="44" x2="205.72" y2="269" stroke="#ccc" stroke-width="1" /><line x1="272.48" y1="44" x2="272.48" y2="269" stroke="#ccc" stroke-width="1" /><line x1="339.24" y1="44" x2="339.24" y2="269" stroke="#ccc" stroke-width="1" /><line x1="406" y1="44" x2="406" y2="269" stroke="#ccc" stroke-width="1" /><line x1="72.19999999999999" y1="222.125" x2="406" y2="222.125" stroke="#ccc" stroke-width="1" /><line x1="72.19999999999999" y1="175.25" x2="406" y2="175.25" stroke="#ccc" stroke-width="1" /><line x1="72.19999999999999" y1="128.375" x2="406" y2="128.375" stroke="#ccc" stroke-width="1" /><line x1="72.19999999999999" y1="81.5" x2="406" y2="81.5" stroke="#ccc" stroke-width="1" /><line x1="72.19999999999999" y1="269" x2="72.19999999999999" y2="274" stroke="black" stroke-width="1" /><text x="72.19999999999999" y="286" font-size="12" text-anchor="middle">0</text><line x1="138.95999999999998" y1="269" x2="138.95999999999998" y2="274" stroke="black" stroke-width="1" /><text x="138.95999999999998" y="286" font-size="12" text-anchor="middle">2</text><line x1="205.72" y1="269" x2="205.72" y2="274" stroke="black" stroke-width="1" /><text x="205.72" y="286" font-size="12" text-anchor="middle">4</text><line x1="272.48" y1="269" x2="272.48" y2="274" stroke="black" stroke-width="1" /><text x="272.48" y="286" font-size="12" text-anchor="middle">6</text><line x1="339.24" y1="269" x2="339.24" y2="274" stroke="black" stroke-width="1" /><text x="339.24" y="286" font-size="12" text-anchor="middle">8</text><line x1="406" y1="269" x2="406" y2="274" stroke="black" stroke-width="1" /><text x="406" y="286" font-size="12" text-anchor="middle">10</text><line x1="67.19999999999999" y1="269" x2="72.19999999999999" y2="269" stroke="black" stroke-width="1" /><text x="64.19999999999999" y="273.2" font-size="12" text-anchor="end">0</text><line x1="67.19999999999999" y1="222.125" x2="72.19999999999999" y2="222.125" stroke="black" stroke-width="1" /><text x="64.19999999999999" y="226.325" font-size="12" text-anchor="end">2.5</text><line x1="67.19999999999999" y1="175.25" x2="72.19999999999999" y2="175.25" stroke="black" stroke-width="1" /><text x="64.19999999999999" y="179.45" font-size="12" text-anchor="end">5</text><line x1="67.19999999999999" y1="128.375" x2="72.19999999999999" y2="128.375" stroke="black" stroke-width="1" /><text x="64.19999999999999" y="132.575" font-size="12" text-anchor="end">7.5</text><line x1="67.19999999999999" y1="81.5" x2="72.19999999999999" y2="81.5" stroke="black" stroke-width="1" /><text x="64.19999999999999" y="85.7" font-size="12" text-anchor="end">10</text><text x="210" y="22" font-size="18" text-anchor="middle">Period 1</text><circle cx="105.57999999999998" cy="237.125" r="4.5" fill="crimson" /><circle cx="138.95999999999998" cy="214.625" r="4.5" fill="crimson" /><circle cx="172.33999999999997" cy="192.125" r="4.5" fill="crimson" /><circle cx="205.72" cy="169.625" r="4.5" fill="crimson" /><circle cx="239.1" cy="147.125" r="4.5" fill="crimson" /><circle cx="272.48" cy="124.625" r="4.5" fill="crimson" /><circle cx="305.86" cy="102.125" r="4.5" fill="crimson" /><circle cx="339.24" cy="79.625" r="4.5" fill="crimson" /></g><text x="453" y="28" font-size="16" text-anchor="start" font-weight="bold">B</text><g transform="translate(445,345)"><line x1="72.19999999999999" y1="269" x2="406" y2="269" stroke="black" stroke-width="1" /><line x1="72.19999999999999" y1="44" x2="72.19999999999999" y2="269" stroke="black" stroke-width="1" /><line x1="138.95999999999998" y1="44" x2="138.95999999999998" y2="269" stroke="#ccc" stroke-width="1" /><line x1="205.72" y1="44" x2="205.72" y2="269" stroke="#ccc" stroke-width="1" /><line x1="272.48" y1="44" x2="272.48" y2="269" stroke="#ccc" stroke-width="1" /><line x1="339.24" y1="44" x2="339.24" y2="269" stroke="#ccc" stroke-width="1" /><line x1="406" y1="44" x2="406" y2="269" stroke="#ccc" stroke-width="1" /><line x1="72.19999999999999" y1="231.5" x2="406" y2="231.5" stroke="#ccc" stroke-width="1" /><line x1="72.19999999999999" y1="194" x2="406" y2="194" stroke="#ccc" stroke-width="1" /><line x1="72.19999999999999" y1="156.5" x2="406" y2="156.5" stroke="#ccc" stroke-width="1" /><line x1="72.19999999999999" y1="119" x2="406" y2="119" stroke="#ccc" stroke-width="1" /><line x1="72.19999999999999" y1="81.5" x2="406" y2="81.5" stroke="#ccc" stroke-width="1" /><line x1="72.19999999999999" y1="44" x2="406" y2="44" stroke="#ccc" stroke-width="1" /><line x1="72.19999999999999" y1="269" x2="72.19999999999999" y2="274" stroke="black" stroke-width="1" /><text x="72.19999999999999" y="286" font-size="12" text-anchor="middle">0</text><line x1="138.95999999999998" y1="269" x2="138.95999999999998" y2="274" stroke="black" stroke-width="1" /><text x="138.95999999999998" y="286" font-size="12" text-anchor="middle">2</text><line x1="205.72" y1="269" x2="205.72" y2="274" stroke="black" stroke-width="1" /><text x="205.72" y="286" font-size="12" text-anchor="middle">4</text><line x1="272.48" y1="269" x2="272.48" y2="274" stroke="black" stroke-width="1" /><text x="272.48" y="286" font-size="12" text-anchor="middle">6</text><line x1="339.24" y1="269" x2="339.24" y2="274" stroke="black" stroke-width="1" /><text x="339.24" y="286" font-size="12" text-anchor="middle">8</text><line x1="406" y1="269" x2="406" y2="274" stroke="black" stroke-width="1" /><text x="406" y="286" font-size="12" text-anchor="middle">10</text><line x1="67.19999999999999" y1="269" x2="72.19999999999999" y2="269" stroke="black" stroke-width="1" /><text x="64.19999999999999" y="273.2" font-size="12" text-anchor="end">0</text><line x1="67.19999999999999" y1="231.5" x2="72.19999999999999" y2="231.5" stroke="black" stroke-width="1" /><text x="64.19999999999999" y="235.7" font-size="12" text-anchor="end">1</text><line x1="67.19999999999999" y1="194" x2="72.19999999999999" y2="194" stroke="black" stroke-width="1" /><text x="64.19999999999999" y="198.2" font-size="12" text-anchor="end">2</text><line x1="67.19999999999999" y1="156.5" x2="72.19999999999999" y2="156.5" stroke="black" stroke-width="1" /><text x="64.19999999999999" y="160.7" font-size="12" text-anchor="end">3</text><line x1="67.19999999999999" y1="119" x2="72.19999999999999" y2="119" stroke="black" stroke-width="1" /><text x="64.19999999999999" y="123.2" font-size="12" text-anchor="end">4</text><line x1="67.19999999999999" y1="81.5" x2="72.19999999999999" y2="81.5" stroke="black" stroke-width="1" /><text x="64.19999999999999" y="85.7" font-size="12" text-anchor="end">5</text><line x1="67.19999999999999" y1="44" x2="72.19999999999999" y2="44" stroke="black" stroke-width="1" /><text x="64.19999999999999" y="48.2" font-size="12" text-anchor="end">6</text><text x="210" y="22" font-size="18" text-anchor="middle">Period 2</text><circle cx="105.57999999999998" cy="209" r="4.5" fill="seagreen" /><circle cx="138.95999999999998" cy="186.5" r="4.5" fill="seagreen" /><circle cx="172.33999999999997" cy="164" r="4.5" fill="seagreen" /><circle cx="205.72" cy="141.5" r="4.5" fill="seagreen" /><circle cx="239.1" cy="119" r="4.5" fill="seagreen" /><circle cx="272.48" cy="96.5" r="4.5" fill="seagreen" /><circle cx="305.86" cy="74" r="4.5" fill="seagreen" /><circle cx="339.24" cy="51.5" r="4.5" fill="seagreen" /></g><text x="453" y="363" font-size="16" text-anchor="start" font-weight="bold">C</text></svg>