<svg xmlns="http://www.w3.org/2000/svg" width="686.2" height="545" font-family="DejaVu Sans, Liberation Sans, Arial, sans-serif" fill="black"><rect width="100%" height="100%" fill="white" /><line x1="72.19999999999999" y1="494" x2="672.2" y2="494" stroke="black" stroke-width="1" /><line x1="72.19999999999999" y1="44" x2="72.19999999999999" y2="494" stroke="black" stroke-width="1" /><line x1="72.19999999999999" y1="365.42857142857144" x2="672.2" y2="365.42857142857144" stroke="#ccc" stroke-width="1" /><line x1="72.19999999999999" y1="236.8571428571429" x2="672.2" y2="236.8571428571429" stroke="#ccc" stroke-width="1" /><line x1="72.19999999999999" y1="108.28571428571433" x2="672.2" y2="108.28571428571433" stroke="#ccc" stroke-width="1" /><text x="122.19999999999999" y="511" font-size="12" text-anchor="middle">Q1 sales</text><line x1="122.19999999999999" y1="494" x2="122.19999999999999" y2="499" stroke="black" stroke-width="1" /><text x="172.2" y="511" font-size="12" text-anchor="middle">Q2 sales</text><line x1="172.2" y1="494" x2="172.2" y2="499" stroke="black" stroke-width="1" /><text x="222.2" y="511" font-size="12" text-anchor="middle">Returns</text><line x1="222.2" y1="494" x2="222.2" y2="499" stroke="black" stroke-width="1" /><text x="272.2" y="511" font-size="12" text-anchor="middle">Discounts</text><line x1="272.2" y1="494" x2="272.2" y2="499" stroke="black" stroke-width="1" /><text x="322.2" y="511" font-size="12" text-anchor="middle">H1 net</text><line x1="322.2" y1="494" x2="322.2" y2="499" stroke="black" stroke-width="1" /><text x="372.2" y="511" font-size="12" text-anchor="middle">Q3 sales</text><line x1="372.2" y1="494" x2="372.2" y2="499" stroke="black" stroke-width="1" /><text x="422.2" y="511" font-size="12" text-anchor="middle">Q4 sales</text><line x1="422.2" y1="494" x2="422.2" y2="499" stroke="black" stroke-width="1" /><text x="472.2" y="511" font-size="12" text-anchor="middle">Returns</text><line x1="472.2" y1="494" x2="472.2" y2="499" stroke="black" stroke-width="1" /><text x="522.2" y="511" font-size="12" text-anchor="middle">Discounts</text><line x1="522.2" y1="494" x2="522.2" y2="499" stroke="black" stroke-width="1" /><text x="572.2" y="511" font-size="12" text-anchor="middle">H2 net</text><line x1="572.2" y1="494" x2="572.2" y2="499" stroke="black" stroke-width="1" /><line x1="67.19999999999999" y1="494" x2="72.19999999999999" y2="494" stroke="black" stroke-width="1" /><text x="64.19999999999999" y="498.2" font-size="12" text-anchor="end">0</text><line x1="67.19999999999999" y1="365.42857142857144" x2="72.19999999999999" y2="365.42857142857144" stroke="black" stroke-width="1" /><text x="64.19999999999999" y="369.62857142857143" font-size="12" text-anchor="end">500</text><line x1="67.19999999999999" y1="236.8571428571429" x2="72.19999999999999" y2="236.8571428571429" stroke="black" stroke-width="1" /><text x="64.19999999999999" y="241.05714285714288" font-size="12" text-anchor="end">1000</text><line x1="67.19999999999999" y1="108.28571428571433" x2="72.19999999999999" y2="108.28571428571433" stroke="black" stroke-width="1" /><text x="64.19999999999999" y="112.48571428571434" font-size="12" text-anchor="end">1500</text><text x="14" y="272.5" font-size="14" text-anchor="middle" transform="rotate(-90,14,272.5)">USD (thousands)</text><text x="343.1" y="22" font-size="18" text-anchor="middle">Sales – Connectors + Values</text><rect x="107.19999999999999" y="386" width="30" height="108" fill="rgb(68,170,68)" /><text x="122.19999999999999" y="381" font-size="12" text-anchor="middle">+420.00</text><line x1="137.2" y1="386" x2="157.2" y2="386" stroke="gray" stroke-width="1" stroke-dasharray="4,3" /><rect x="157.2" y="288.28571428571433" width="30" height="97.71428571428567" fill="rgb(68,170,68)" /><text x="172.2" y="283.28571428571433" font-size="12" text-anchor="middle">+380.00</text><line x1="187.2" y1="288.28571428571433" x2="207.2" y2="288.28571428571433" stroke="gray" stroke-width="1" stroke-dasharray="4,3" /><rect x="207.2" y="288.28571428571433" width="29.99999999999997" height="24.428571428571388" fill="rgb(204,68,68)" /><text x="222.2" y="327.7142857142857" font-size="12" text-anchor="middle">-95.00</text><line x1="237.19999999999996" y1="312.7142857142857" x2="257.2" y2="312.7142857142857" stroke="gray" stroke-width="1" stroke-dasharray="4,3" /><rect x="257.2" y="312.7142857142857" width="30" height="15.428571428571388" fill="rgb(204,68,68)" /><text x="272.2" y="343.1428571428571" font-size="12" text-anchor="middle">-60.00</text><line x1="287.2" y1="328.1428571428571" x2="307.2" y2="328.1428571428571" stroke="gray" stroke-width="1" stroke-dasharray="4,3" /><rect x="307.2" y="328.1428571428571" width="30" height="165.8571428571429" fill="steelblue" /><text x="322.2" y="323.1428571428571" font-size="12" text-anchor="middle">645.00</text><line x1="337.2" y1="328.1428571428571" x2="357.2" y2="328.1428571428571" stroke="gray" stroke-width="1" stroke-dasharray="4,3" /><rect x="357.2" y="222.71428571428572" width="30" height="105.42857142857139" fill="rgb(68,170,68)" /><text x="372.2" y="217.71428571428572" font-size="12" text-anchor="middle">+410.00</text><line x1="387.2" y1="222.71428571428572" x2="407.2" y2="222.71428571428572" stroke="gray" stroke-width="1" stroke-dasharray="4,3" /><rect x="407.2" y="105.71428571428572" width="29.999999999999943" height="117" fill="rgb(68,170,68)" /><text x="422.19999999999993" y="100.71428571428572" font-size="12" text-anchor="middle">+455.00</text><line x1="437.19999999999993" y1="105.71428571428572" x2="457.20000000000005" y2="105.71428571428572" stroke="gray" stroke-width="1" stroke-dasharray="4,3" /><rect x="457.20000000000005" y="105.71428571428572" width="30" height="27" fill="rgb(204,68,68)" /><text x="472.20000000000005" y="147.71428571428572" font-size="12" text-anchor="middle">-105.00</text><line x1="487.20000000000005" y1="132.71428571428572" x2="507.2" y2="132.71428571428572" stroke="gray" stroke-width="1" stroke-dasharray="4,3" /><rect x="507.2" y="132.71428571428572" width="30.000000000000057" height="18" fill="rgb(204,68,68)" /><text x="522.2" y="165.71428571428572" font-size="12" text-anchor="middle">-70.00</text><line x1="537.2" y1="150.71428571428572" x2="557.1999999999999" y2="150.71428571428572" stroke="gray" stroke-width="1" stroke-dasharray="4,3" /><rect x="557.1999999999999" y="150.71428571428572" width="30.000000000000114" height="343.2857142857143" fill="steelblue" /><text x="572.2" y="145.71428571428572" font-size="12" text-anchor="middle">1335.00</text></svg>