<svg xmlns="http://www.w3.org/2000/svg" width="686.2" height="545" font-family="DejaVu Sans, Liberation Sans, Arial, sans-serif" fill="black"><rect width="100%" height="100%" fill="white" /><line x1="72.19999999999999" y1="494" x2="672.2" y2="494" stroke="black" stroke-width="1" /><line x1="72.19999999999999" y1="44" x2="72.19999999999999" y2="494" stroke="black" stroke-width="1" /><line x1="157.9142857142857" y1="44" x2="157.9142857142857" y2="494" stroke="#ccc" stroke-width="1" /><line x1="243.6285714285714" y1="44" x2="243.6285714285714" y2="494" stroke="#ccc" stroke-width="1" /><line x1="329.3428571428571" y1="44" x2="329.3428571428571" y2="494" stroke="#ccc" stroke-width="1" /><line x1="415.0571428571428" y1="44" x2="415.0571428571428" y2="494" stroke="#ccc" stroke-width="1" /><line x1="500.77142857142854" y1="44" x2="500.77142857142854" y2="494" stroke="#ccc" stroke-width="1" /><line x1="586.4857142857143" y1="44" x2="586.4857142857143" y2="494" stroke="#ccc" stroke-width="1" /><line x1="672.2" y1="44" x2="672.2" y2="494" stroke="#ccc" stroke-width="1" /><line x1="72.19999999999999" y1="419" x2="672.2" y2="419" stroke="#ccc" stroke-width="1" /><line x1="72.19999999999999" y1="344" x2="672.2" y2="344" stroke="#ccc" stroke-width="1" /><line x1="72.19999999999999" y1="269" x2="672.2" y2="269" stroke="#ccc" stroke-width="1" /><line x1="72.19999999999999" y1="194" x2="672.2" y2="194" stroke="#ccc" stroke-width="1" /><line x1="72.19999999999999" y1="119" x2="672.2" y2="119" stroke="#ccc" stroke-width="1" /><line x1="72.19999999999999" y1="44" x2="672.2" y2="44" stroke="#ccc" stroke-width="1" /><line x1="72.19999999999999" y1="494" x2="72.19999999999999" y2="499" stroke="black" stroke-width="1" /><text x="72.19999999999999" y="511" font-size="12" text-anchor="middle">0</text><line x1="157.9142857142857" y1="494" x2="157.9142857142857" y2="499" stroke="black" stroke-width="1" /><text x="157.9142857142857" y="511" font-size="12" text-anchor="middle">1</text><line x1="243.6285714285714" y1="494" x2="243.6285714285714" y2="499" stroke="black" stroke-width="1" /><text x="243.6285714285714" y="511" font-size="12" text-anchor="middle">2</text><line x1="329.3428571428571" y1="494" x2="329.3428571428571" y2="499" stroke="black" stroke-width="1" /><text x="329.3428571428571" y="511" font-size="12" text-anchor="middle">3</text><line x1="415.0571428571428" y1="494" x2="415.0571428571428" y2="499" stroke="black" stroke-width="1" /><text x="415.0571428571428" y="511" font-size="12" text-anchor="middle">4</text><line x1="500.77142857142854" y1="494" x2="500.77142857142854" y2="499" stroke="black" stroke-width="1" /><text x="500.77142857142854" y="511" font-size="12" text-anchor="middle">5</text><line x1="586.4857142857143" y1="494" x2="586.4857142857143" y2="499" stroke="black" stroke-width="1" /><text x="586.4857142857143" y="511" font-size="12" text-anchor="middle">6</text><line x1="672.2" y1="494" x2="672.2" y2="499" stroke="black" stroke-width="1" /><text x="672.2" y="511" font-size="12" text-anchor="middle">7</text><line x1="67.19999999999999" y1="494" x2="72.19999999999999" y2="494" stroke="black" stroke-width="1" /><text x="64.19999999999999" y="498.2" font-size="12" text-anchor="end">-1.5</text><line x1="67.19999999999999" y1="419" x2="72.19999999999999" y2="419" stroke="black" stroke-width="1" /><text x="64.19999999999999" y="423.2" font-size="12" text-anchor="end">-1</text><line x1="67.19999999999999" y1="344" x2="72.19999999999999" y2="344" stroke="black" stroke-width="1" /><text x="64.19999999999999" y="348.2" font-size="12" text-anchor="end">-0.5</text><line x1="67.19999999999999" y1="269" x2="72.19999999999999" y2="269" stroke="black" stroke-width="1" /><text x="64.19999999999999" y="273.2" font-size="12" text-anchor="end">0</text><line x1="67.19999999999999" y1="194" x2="72.19999999999999" y2="194" stroke="black" stroke-width="1" /><text x="64.19999999999999" y="198.2" font-size="12" text-anchor="end">0.5</text><line x1="67.19999999999999" y1="119" x2="72.19999999999999" y2="119" stroke="black" stroke-width="1" /><text x="64.19999999999999" y="123.2" font-size="12" text-anchor="end">1</text><line x1="67.19999999999999" y1="44" x2="72.19999999999999" y2="44" stroke="black" stroke-width="1" /><text x="64.19999999999999" y="48.2" font-size="12" text-anchor="end">1.5</text><text x="343.1" y="538" font-size="14" text-anchor="middle">X</text><text x="14" y="272.5" font-size="14" text-anchor="middle" transform="rotate(-90,14,272.5)">Y</text><text x="343.1" y="22" font-size="18" text-anchor="middle">Annotations</text><rect x="72.19999999999999" y="104" width="600" height="165" fill="steelblue" fill-opacity="0.08" /><path d="M 72.19999999999999 269 L 80.77142857142856 254.02498750297576 L 89.34285714285713 239.19960038074078 L 97.91428571428571 224.67196900079904 L 106.48571428571428 210.58724865370237 L 115.05714285714285 197.0861692093696 L 123.62857142857143 184.30362899074476 L 132.2 172.36734691434634 L 140.77142857142857 161.39658636507158 L 149.34285714285716 151.5009635558775 L 157.9142857142857 142.7793522788155 L 166.4857142857143 135.3188959907847 L 175.05714285714288 129.19413710491602 L 183.62857142857143 124.466272187421 L 192.2 121.18254050173095 L 200.77142857142854 119.37575200939182 L 209.34285714285716 119.06395954377422 L 217.9142857142857 120.25027843212968 L 226.4857142857143 122.92285536827069 L 235.05714285714288 127.0549868468878 L 243.6285714285714 132.60538597614772 L 252.2 139.51859500266892 L 260.7714285714286 147.7255394270615 L 269.34285714285716 157.14421817349205 L 277.9142857142857 167.68052291732738 L 286.48571428571427 179.2291783844065 L 295.0571428571428 191.67479422678036 L 303.62857142857143 204.89301796492555 L 312.2 218.75177747661428 L 320.7714285714286 233.11260061790273 L 329.3428571428571 247.83199879101994 L 337.9142857142857 262.7629006350064 L 346.4857142857143 277.756121514137 L 355.0571428571429 292.6618541214873 L 363.62857142857143 307.33116530402475 L 372.2 321.617484153443 L 380.7714285714286 335.3780664942278 L 389.34285714285716 348.475421136274 L 397.91428571428577 360.7786836414079 L 406.48571428571427 372.1649238775961 L 415.0571428571428 382.52037429618923 L 423.62857142857143 391.74156665966166 L 432.2 399.7363658620382 L 440.77142857142854 406.42489051241824 L 449.3428571428572 411.7403110834274 L 457.9142857142857 415.6295176497646 L 466.4857142857143 418.05365054501965 L 475.0571428571429 418.9884886346151 L 483.6285714285715 418.4246913253761 L 492.20000000000005 416.36789189364987 L 500.77142857142854 412.83864119947077 L 509.34285714285716 407.8722023491598 L 517.9142857142857 401.51819835802297 L 526.4857142857143 393.8401163335851 L 535.0571428571429 384.9146731333981 L 543.6285714285714 374.8310488355588 L 552.2 363.68999568084814 L 560.7714285714285 351.60283138964564 L 569.3428571428572 338.6903269120635 L 577.9142857142857 325.08149972453543 L 586.4857142857143 310.91232472983893 " stroke="steelblue" stroke-width="2" fill="none" /><line x1="72.19999999999999" y1="269" x2="672.2" y2="269" stroke="black" stroke-width="1" stroke-dasharray="6 4" /><text x="668.2" y="265" font-size="12" text-anchor="end">y = 0</text><line x1="206.77142857142857" y1="44" x2="206.77142857142857" y2="494" stroke="crimson" stroke-width="1" stroke-dasharray="6 4" /><text x="210.77142857142857" y="56" font-size="12" text-anchor="start">π/2</text><line x1="157.9142857142857" y1="96.5" x2="201.32157537419042" y2="116.49019918548242" stroke="crimson" stroke-width="1" /><path d="M201.32157537419042,116.49019918548242 L192.38190390152783,116.77703356428442 L195.72830498755127,109.51056263463356 Z" stroke="crimson" stroke-width="1" fill="crimson" /><text x="157.9142857142857" y="90.5" font-size="12" text-anchor="middle">peak</text></svg>