<svg xmlns="http://www.w3.org/2000/svg" width="686.2" height="545" font-family="DejaVu Sans, Liberation Sans, Arial, sans-serif" fill="black"><rect width="100%" height="100%" fill="white" /><line x1="72.19999999999999" y1="494" x2="672.2" y2="494" stroke="black" stroke-width="1" /><line x1="72.19999999999999" y1="44" x2="72.19999999999999" y2="494" stroke="black" stroke-width="1" /><line x1="157.9142857142857" y1="44" x2="157.9142857142857" y2="494" stroke="#ccc" stroke-width="1" /><line x1="243.6285714285714" y1="44" x2="243.6285714285714" y2="494" stroke="#ccc" stroke-width="1" /><line x1="329.3428571428571" y1="44" x2="329.3428571428571" y2="494" stroke="#ccc" stroke-width="1" /><line x1="415.0571428571428" y1="44" x2="415.0571428571428" y2="494" stroke="#ccc" stroke-width="1" /><line x1="500.77142857142854" y1="44" x2="500.77142857142854" y2="494" stroke="#ccc" stroke-width="1" /><line x1="586.4857142857143" y1="44" x2="586.4857142857143" y2="494" stroke="#ccc" stroke-width="1" /><line x1="672.2" y1="44" x2="672.2" y2="494" stroke="#ccc" stroke-width="1" /><line x1="72.19999999999999" y1="419" x2="672.2" y2="419" stroke="#ccc" stroke-width="1" /><line x1="72.19999999999999" y1="344" x2="672.2" y2="344" stroke="#ccc" stroke-width="1" /><line x1="72.19999999999999" y1="269.00000000000006" x2="672.2" y2="269.00000000000006" stroke="#ccc" stroke-width="1" /><line x1="72.19999999999999" y1="194" x2="672.2" y2="194" stroke="#ccc" stroke-width="1" /><line x1="72.19999999999999" y1="119.00000000000006" x2="672.2" y2="119.00000000000006" stroke="#ccc" stroke-width="1" /><line x1="72.19999999999999" y1="44.000000000000114" x2="672.2" y2="44.000000000000114" stroke="#ccc" stroke-width="1" /><line x1="72.19999999999999" y1="494" x2="72.19999999999999" y2="499" stroke="black" stroke-width="1" /><text x="72.19999999999999" y="511" font-size="12" text-anchor="middle">0</text><line x1="157.9142857142857" y1="494" x2="157.9142857142857" y2="499" stroke="black" stroke-width="1" /><text x="157.9142857142857" y="511" font-size="12" text-anchor="middle">1</text><line x1="243.6285714285714" y1="494" x2="243.6285714285714" y2="499" stroke="black" stroke-width="1" /><text x="243.6285714285714" y="511" font-size="12" text-anchor="middle">2</text><line x1="329.3428571428571" y1="494" x2="329.3428571428571" y2="499" stroke="black" stroke-width="1" /><text x="329.3428571428571" y="511" font-size="12" text-anchor="middle">3</text><line x1="415.0571428571428" y1="494" x2="415.0571428571428" y2="499" stroke="black" stroke-width="1" /><text x="415.0571428571428" y="511" font-size="12" text-anchor="middle">4</text><line x1="500.77142857142854" y1="494" x2="500.77142857142854" y2="499" stroke="black" stroke-width="1" /><text x="500.77142857142854" y="511" font-size="12" text-anchor="middle">5</text><line x1="586.4857142857143" y1="494" x2="586.4857142857143" y2="499" stroke="black" stroke-width="1" /><text x="586.4857142857143" y="511" font-size="12" text-anchor="middle">6</text><line x1="672.2" y1="494" x2="672.2" y2="499" stroke="black" stroke-width="1" /><text x="672.2" y="511" font-size="12" text-anchor="middle">7</text><line x1="67.19999999999999" y1="494" x2="72.19999999999999" y2="494" stroke="black" stroke-width="1" /><text x="64.19999999999999" y="498.2" font-size="12" text-anchor="end">0</text><line x1="67.19999999999999" y1="419" x2="72.19999999999999" y2="419" stroke="black" stroke-width="1" /><text x="64.19999999999999" y="423.2" font-size="12" text-anchor="end">0.05</text><line x1="67.19999999999999" y1="344" x2="72.19999999999999" y2="344" stroke="black" stroke-width="1" /><text x="64.19999999999999" y="348.2" font-size="12" text-anchor="end">0.1</text><line x1="67.19999999999999" y1="269.00000000000006" x2="72.19999999999999" y2="269.00000000000006" stroke="black" stroke-width="1" /><text x="64.19999999999999" y="273.20000000000005" font-size="12" text-anchor="end">0.15</text><line x1="67.19999999999999" y1="194" x2="72.19999999999999" y2="194" stroke="black" stroke-width="1" /><text x="64.19999999999999" y="198.2" font-size="12" text-anchor="end">0.2</text><line x1="67.19999999999999" y1="119.00000000000006" x2="72.19999999999999" y2="119.00000000000006" stroke="black" stroke-width="1" /><text x="64.19999999999999" y="123.20000000000006" font-size="12" text-anchor="end">0.25</text><line x1="67.19999999999999" y1="44.000000000000114" x2="72.19999999999999" y2="44.000000000000114" stroke="black" stroke-width="1" /><text x="64.19999999999999" y="48.20000000000012" font-size="12" text-anchor="end">0.3</text><text x="343.1" y="538" font-size="14" text-anchor="middle">X</text><text x="14" y="272.5" font-size="14" text-anchor="middle" transform="rotate(-90,14,272.5)">p-value</text><text x="343.1" y="22" font-size="18" text-anchor="middle">Reference Lines</text><circle cx="115.05714285714285" cy="74.00000000000006" r="5" fill="steelblue" /><circle cx="175.05714285714285" cy="284" r="5" fill="steelblue" /><circle cx="226.4857142857143" cy="434" r="5" fill="steelblue" /><circle cx="277.9142857142857" cy="209.00000000000006" r="5" fill="steelblue" /><circle cx="320.77142857142854" cy="374" r="5" fill="steelblue" /><circle cx="397.91428571428565" cy="179.00000000000006" r="5" fill="steelblue" /><circle cx="457.9142857142857" cy="314" r="5" fill="steelblue" /><circle cx="509.3428571428571" cy="389" r="5" fill="steelblue" /><circle cx="569.3428571428572" cy="119.00000000000006" r="5" fill="steelblue" /><circle cx="629.3428571428572" cy="359" r="5" fill="steelblue" /><line x1="72.19999999999999" y1="419" x2="672.2" y2="419" stroke="crimson" stroke-width="1" stroke-dasharray="6 4" /><text x="668.2" y="415" font-size="12" text-anchor="end">p = 0.05</text><line x1="372.2" y1="44" x2="372.2" y2="494" stroke="steelblue" stroke-width="1.5" stroke-dasharray="8 4" /><text x="376.2" y="56" font-size="12" text-anchor="start">cutoff</text></svg>