<svg xmlns="http://www.w3.org/2000/svg" width="686.2" height="545" font-family="DejaVu Sans, Liberation Sans, Arial, sans-serif" fill="black"><rect width="100%" height="100%" fill="white" /><line x1="72.19999999999999" y1="494" x2="672.2" y2="494" stroke="black" stroke-width="1" /><line x1="72.19999999999999" y1="44" x2="72.19999999999999" y2="494" stroke="black" stroke-width="1" /><line x1="157.9142857142857" y1="44" x2="157.9142857142857" y2="494" stroke="#ccc" stroke-width="1" /><line x1="243.6285714285714" y1="44" x2="243.6285714285714" y2="494" stroke="#ccc" stroke-width="1" /><line x1="329.3428571428571" y1="44" x2="329.3428571428571" y2="494" stroke="#ccc" stroke-width="1" /><line x1="415.0571428571428" y1="44" x2="415.0571428571428" y2="494" stroke="#ccc" stroke-width="1" /><line x1="500.77142857142854" y1="44" x2="500.77142857142854" y2="494" stroke="#ccc" stroke-width="1" /><line x1="586.4857142857143" y1="44" x2="586.4857142857143" y2="494" stroke="#ccc" stroke-width="1" /><line x1="672.2" y1="44" x2="672.2" y2="494" stroke="#ccc" stroke-width="1" /><line x1="72.19999999999999" y1="404" x2="672.2" y2="404" stroke="#ccc" stroke-width="1" /><line x1="72.19999999999999" y1="314" x2="672.2" y2="314" stroke="#ccc" stroke-width="1" /><line x1="72.19999999999999" y1="224" x2="672.2" y2="224" stroke="#ccc" stroke-width="1" /><line x1="72.19999999999999" y1="134" x2="672.2" y2="134" stroke="#ccc" stroke-width="1" /><line x1="72.19999999999999" y1="44" x2="672.2" y2="44" stroke="#ccc" stroke-width="1" /><line x1="72.19999999999999" y1="494" x2="72.19999999999999" y2="499" stroke="black" stroke-width="1" /><text x="72.19999999999999" y="511" font-size="12" text-anchor="middle">0</text><line x1="157.9142857142857" y1="494" x2="157.9142857142857" y2="499" stroke="black" stroke-width="1" /><text x="157.9142857142857" y="511" font-size="12" text-anchor="middle">1</text><line x1="243.6285714285714" y1="494" x2="243.6285714285714" y2="499" stroke="black" stroke-width="1" /><text x="243.6285714285714" y="511" font-size="12" text-anchor="middle">2</text><line x1="329.3428571428571" y1="494" x2="329.3428571428571" y2="499" stroke="black" stroke-width="1" /><text x="329.3428571428571" y="511" font-size="12" text-anchor="middle">3</text><line x1="415.0571428571428" y1="494" x2="415.0571428571428" y2="499" stroke="black" stroke-width="1" /><text x="415.0571428571428" y="511" font-size="12" text-anchor="middle">4</text><line x1="500.77142857142854" y1="494" x2="500.77142857142854" y2="499" stroke="black" stroke-width="1" /><text x="500.77142857142854" y="511" font-size="12" text-anchor="middle">5</text><line x1="586.4857142857143" y1="494" x2="586.4857142857143" y2="499" stroke="black" stroke-width="1" /><text x="586.4857142857143" y="511" font-size="12" text-anchor="middle">6</text><line x1="672.2" y1="494" x2="672.2" y2="499" stroke="black" stroke-width="1" /><text x="672.2" y="511" font-size="12" text-anchor="middle">7</text><line x1="67.19999999999999" y1="494" x2="72.19999999999999" y2="494" stroke="black" stroke-width="1" /><text x="64.19999999999999" y="498.2" font-size="12" text-anchor="end">0</text><line x1="67.19999999999999" y1="404" x2="72.19999999999999" y2="404" stroke="black" stroke-width="1" /><text x="64.19999999999999" y="408.2" font-size="12" text-anchor="end">2</text><line x1="67.19999999999999" y1="314" x2="72.19999999999999" y2="314" stroke="black" stroke-width="1" /><text x="64.19999999999999" y="318.2" font-size="12" text-anchor="end">4</text><line x1="67.19999999999999" y1="224" x2="72.19999999999999" y2="224" stroke="black" stroke-width="1" /><text x="64.19999999999999" y="228.2" font-size="12" text-anchor="end">6</text><line x1="67.19999999999999" y1="134" x2="72.19999999999999" y2="134" stroke="black" stroke-width="1" /><text x="64.19999999999999" y="138.2" font-size="12" text-anchor="end">8</text><line x1="67.19999999999999" y1="44" x2="72.19999999999999" y2="44" stroke="black" stroke-width="1" /><text x="64.19999999999999" y="48.2" font-size="12" text-anchor="end">10</text><text x="343.1" y="538" font-size="14" text-anchor="middle">X</text><text x="14" y="272.5" font-size="14" text-anchor="middle" transform="rotate(-90,14,272.5)">Y</text><text x="343.1" y="22" font-size="18" text-anchor="middle">Text Annotation</text><circle cx="157.9142857142857" cy="440" r="5" fill="steelblue" /><circle cx="226.4857142857143" cy="381.5" r="5" fill="steelblue" /><circle cx="277.9142857142857" cy="408.5" r="5" fill="steelblue" /><circle cx="337.9142857142857" cy="341" r="5" fill="steelblue" /><circle cx="397.91428571428565" cy="368" r="5" fill="steelblue" /><circle cx="457.9142857142857" cy="309.5" r="5" fill="steelblue" /><circle cx="517.9142857142857" cy="318.5" r="5" fill="steelblue" /><circle cx="586.4857142857143" cy="89" r="5" fill="steelblue" /><line x1="500.77142857142854" y1="156.5" x2="581.7718963976454" y2="92.71213158685428" stroke="crimson" stroke-width="1" /><path d="M581.7718963976454,92.71213158685428 L577.9615602714563,100.80418562803929 L573.012051488984,94.51909511061403 Z" stroke="crimson" stroke-width="1" fill="crimson" /><text x="500.77142857142854" y="172.5" font-size="12" text-anchor="middle">Outlier</text></svg>