<svg xmlns="http://www.w3.org/2000/svg" width="686.2" height="545" font-family="DejaVu Sans, Liberation Sans, Arial, sans-serif" fill="black"><rect width="100%" height="100%" fill="white" /><line x1="72.19999999999999" y1="494" x2="672.2" y2="494" stroke="black" stroke-width="1" /><line x1="72.19999999999999" y1="44" x2="72.19999999999999" y2="494" stroke="black" stroke-width="1" /><line x1="197.2" y1="44" x2="197.2" y2="494" stroke="#ccc" stroke-width="1" /><line x1="322.19999999999993" y1="44" x2="322.19999999999993" y2="494" stroke="#ccc" stroke-width="1" /><line x1="447.19999999999993" y1="44" x2="447.19999999999993" y2="494" stroke="#ccc" stroke-width="1" /><line x1="572.1999999999999" y1="44" x2="572.1999999999999" y2="494" stroke="#ccc" stroke-width="1" /><line x1="72.19999999999999" y1="400.25" x2="672.2" y2="400.25" stroke="#ccc" stroke-width="1" /><line x1="72.19999999999999" y1="306.5" x2="672.2" y2="306.5" stroke="#ccc" stroke-width="1" /><line x1="72.19999999999999" y1="212.75000000000006" x2="672.2" y2="212.75000000000006" stroke="#ccc" stroke-width="1" /><line x1="72.19999999999999" y1="119.00000000000006" x2="672.2" y2="119.00000000000006" stroke="#ccc" stroke-width="1" /><line x1="72.19999999999999" y1="494" x2="72.19999999999999" y2="499" stroke="black" stroke-width="1" /><text x="72.19999999999999" y="511" font-size="12" text-anchor="middle">0.00</text><line x1="197.2" y1="494" x2="197.2" y2="499" stroke="black" stroke-width="1" /><text x="197.2" y="511" font-size="12" text-anchor="middle">0.25</text><line x1="322.19999999999993" y1="494" x2="322.19999999999993" y2="499" stroke="black" stroke-width="1" /><text x="322.19999999999993" y="511" font-size="12" text-anchor="middle">0.50</text><line x1="447.19999999999993" y1="494" x2="447.19999999999993" y2="499" stroke="black" stroke-width="1" /><text x="447.19999999999993" y="511" font-size="12" text-anchor="middle">0.75</text><line x1="572.1999999999999" y1="494" x2="572.1999999999999" y2="499" stroke="black" stroke-width="1" /><text x="572.1999999999999" y="511" font-size="12" text-anchor="middle">1.00</text><line x1="67.19999999999999" y1="494" x2="72.19999999999999" y2="494" stroke="black" stroke-width="1" /><text x="64.19999999999999" y="498.2" font-size="12" text-anchor="end">0.00</text><line x1="67.19999999999999" y1="400.25" x2="72.19999999999999" y2="400.25" stroke="black" stroke-width="1" /><text x="64.19999999999999" y="404.45" font-size="12" text-anchor="end">0.25</text><line x1="67.19999999999999" y1="306.5" x2="72.19999999999999" y2="306.5" stroke="black" stroke-width="1" /><text x="64.19999999999999" y="310.7" font-size="12" text-anchor="end">0.50</text><line x1="67.19999999999999" y1="212.75000000000006" x2="72.19999999999999" y2="212.75000000000006" stroke="black" stroke-width="1" /><text x="64.19999999999999" y="216.95000000000005" font-size="12" text-anchor="end">0.75</text><line x1="67.19999999999999" y1="119.00000000000006" x2="72.19999999999999" y2="119.00000000000006" stroke="black" stroke-width="1" /><text x="64.19999999999999" y="123.20000000000006" font-size="12" text-anchor="end">1.00</text><text x="343.1" y="22" font-size="18" text-anchor="middle">Fixed(2)</text><circle cx="72.19999999999999" cy="494" r="5" fill="steelblue" /><circle cx="197.2" cy="400.25" r="5" fill="steelblue" /><circle cx="322.19999999999993" cy="306.5" r="5" fill="steelblue" /><circle cx="447.19999999999993" cy="212.75000000000006" r="5" fill="steelblue" /><circle cx="572.1999999999999" cy="119.00000000000006" r="5" fill="steelblue" /></svg>