<svg xmlns="http://www.w3.org/2000/svg" width="686.2" height="545" font-family="DejaVu Sans, Liberation Sans, Arial, sans-serif" fill="black"><rect width="100%" height="100%" fill="white" /><line x1="72.19999999999999" y1="494" x2="672.2" y2="494" stroke="black" stroke-width="1" /><line x1="72.19999999999999" y1="44" x2="72.19999999999999" y2="494" stroke="black" stroke-width="1" /><line x1="172.2" y1="44" x2="172.2" y2="494" stroke="#ccc" stroke-width="1" /><line x1="272.2" y1="44" x2="272.2" y2="494" stroke="#ccc" stroke-width="1" /><line x1="372.2" y1="44" x2="372.2" y2="494" stroke="#ccc" stroke-width="1" /><line x1="472.2" y1="44" x2="472.2" y2="494" stroke="#ccc" stroke-width="1" /><line x1="572.2" y1="44" x2="572.2" y2="494" stroke="#ccc" stroke-width="1" /><line x1="672.2" y1="44" x2="672.2" y2="494" stroke="#ccc" stroke-width="1" /><line x1="72.19999999999999" y1="400.25" x2="672.2" y2="400.25" stroke="#ccc" stroke-width="1" /><line x1="72.19999999999999" y1="306.5" x2="672.2" y2="306.5" stroke="#ccc" stroke-width="1" /><line x1="72.19999999999999" y1="212.75" x2="672.2" y2="212.75" stroke="#ccc" stroke-width="1" /><line x1="72.19999999999999" y1="119" x2="672.2" y2="119" stroke="#ccc" stroke-width="1" /><line x1="72.19999999999999" y1="494" x2="72.19999999999999" y2="499" stroke="black" stroke-width="1" /><text x="72.19999999999999" y="511" font-size="12" text-anchor="middle">0</text><line x1="172.2" y1="494" x2="172.2" y2="499" stroke="black" stroke-width="1" /><text x="172.2" y="511" font-size="12" text-anchor="middle">1e4</text><line x1="272.2" y1="494" x2="272.2" y2="499" stroke="black" stroke-width="1" /><text x="272.2" y="511" font-size="12" text-anchor="middle">2e4</text><line x1="372.2" y1="494" x2="372.2" y2="499" stroke="black" stroke-width="1" /><text x="372.2" y="511" font-size="12" text-anchor="middle">3e4</text><line x1="472.2" y1="494" x2="472.2" y2="499" stroke="black" stroke-width="1" /><text x="472.2" y="511" font-size="12" text-anchor="middle">4e4</text><line x1="572.2" y1="494" x2="572.2" y2="499" stroke="black" stroke-width="1" /><text x="572.2" y="511" font-size="12" text-anchor="middle">5e4</text><line x1="672.2" y1="494" x2="672.2" y2="499" stroke="black" stroke-width="1" /><text x="672.2" y="511" font-size="12" text-anchor="middle">6e4</text><line x1="67.19999999999999" y1="494" x2="72.19999999999999" y2="494" stroke="black" stroke-width="1" /><text x="64.19999999999999" y="498.2" font-size="12" text-anchor="end">0</text><line x1="67.19999999999999" y1="400.25" x2="72.19999999999999" y2="400.25" stroke="black" stroke-width="1" /><text x="64.19999999999999" y="404.45" font-size="12" text-anchor="end">2.5e4</text><line x1="67.19999999999999" y1="306.5" x2="72.19999999999999" y2="306.5" stroke="black" stroke-width="1" /><text x="64.19999999999999" y="310.7" font-size="12" text-anchor="end">5e4</text><line x1="67.19999999999999" y1="212.75" x2="72.19999999999999" y2="212.75" stroke="black" stroke-width="1" /><text x="64.19999999999999" y="216.95" font-size="12" text-anchor="end">7.5e4</text><line x1="67.19999999999999" y1="119" x2="72.19999999999999" y2="119" stroke="black" stroke-width="1" /><text x="64.19999999999999" y="123.2" font-size="12" text-anchor="end">1e5</text><text x="343.1" y="22" font-size="18" text-anchor="middle">Sci</text><circle cx="72.19999999999999" cy="494" r="5" fill="steelblue" /><circle cx="322.2" cy="306.5" r="5" fill="steelblue" /><circle cx="572.2" cy="119" r="5" fill="steelblue" /></svg>