<svg xmlns="http://www.w3.org/2000/svg" width="686.2" height="545" font-family="DejaVu Sans, Liberation Sans, Arial, sans-serif" fill="black"><rect width="100%" height="100%" fill="white" /><line x1="72.19999999999999" y1="494" x2="672.2" y2="494" stroke="black" stroke-width="1" /><line x1="72.19999999999999" y1="44" x2="72.19999999999999" y2="494" stroke="black" stroke-width="1" /><line x1="172.2" y1="44" x2="172.2" y2="494" stroke="#ccc" stroke-width="1" /><line x1="272.2" y1="44" x2="272.2" y2="494" stroke="#ccc" stroke-width="1" /><line x1="372.2" y1="44" x2="372.2" y2="494" stroke="#ccc" stroke-width="1" /><line x1="472.2" y1="44" x2="472.2" y2="494" stroke="#ccc" stroke-width="1" /><line x1="572.2" y1="44" x2="572.2" y2="494" stroke="#ccc" stroke-width="1" /><line x1="672.2" y1="44" x2="672.2" y2="494" stroke="#ccc" stroke-width="1" /><line x1="72.19999999999999" y1="404" x2="672.2" y2="404" stroke="#ccc" stroke-width="1" /><line x1="72.19999999999999" y1="314" x2="672.2" y2="314" stroke="#ccc" stroke-width="1" /><line x1="72.19999999999999" y1="224" x2="672.2" y2="224" stroke="#ccc" stroke-width="1" /><line x1="72.19999999999999" y1="134" x2="672.2" y2="134" stroke="#ccc" stroke-width="1" /><line x1="72.19999999999999" y1="44" x2="672.2" y2="44" stroke="#ccc" stroke-width="1" /><line x1="72.19999999999999" y1="494" x2="72.19999999999999" y2="499" stroke="black" stroke-width="1" /><text x="72.19999999999999" y="511" font-size="12" text-anchor="middle">0</text><line x1="172.2" y1="494" x2="172.2" y2="499" stroke="black" stroke-width="1" /><text x="172.2" y="511" font-size="12" text-anchor="middle">2.5</text><line x1="272.2" y1="494" x2="272.2" y2="499" stroke="black" stroke-width="1" /><text x="272.2" y="511" font-size="12" text-anchor="middle">5</text><line x1="372.2" y1="494" x2="372.2" y2="499" stroke="black" stroke-width="1" /><text x="372.2" y="511" font-size="12" text-anchor="middle">7.5</text><line x1="472.2" y1="494" x2="472.2" y2="499" stroke="black" stroke-width="1" /><text x="472.2" y="511" font-size="12" text-anchor="middle">10</text><line x1="572.2" y1="494" x2="572.2" y2="499" stroke="black" stroke-width="1" /><text x="572.2" y="511" font-size="12" text-anchor="middle">12.5</text><line x1="672.2" y1="494" x2="672.2" y2="499" stroke="black" stroke-width="1" /><text x="672.2" y="511" font-size="12" text-anchor="middle">15</text><line x1="67.19999999999999" y1="494" x2="72.19999999999999" y2="494" stroke="black" stroke-width="1" /><text x="64.19999999999999" y="498.2" font-size="12" text-anchor="end">-1</text><line x1="67.19999999999999" y1="404" x2="72.19999999999999" y2="404" stroke="black" stroke-width="1" /><text x="64.19999999999999" y="408.2" font-size="12" text-anchor="end">-0.5</text><line x1="67.19999999999999" y1="314" x2="72.19999999999999" y2="314" stroke="black" stroke-width="1" /><text x="64.19999999999999" y="318.2" font-size="12" text-anchor="end">0</text><line x1="67.19999999999999" y1="224" x2="72.19999999999999" y2="224" stroke="black" stroke-width="1" /><text x="64.19999999999999" y="228.2" font-size="12" text-anchor="end">0.5</text><line x1="67.19999999999999" y1="134" x2="72.19999999999999" y2="134" stroke="black" stroke-width="1" /><text x="64.19999999999999" y="138.2" font-size="12" text-anchor="end">1</text><line x1="67.19999999999999" y1="44" x2="72.19999999999999" y2="44" stroke="black" stroke-width="1" /><text x="64.19999999999999" y="48.2" font-size="12" text-anchor="end">1.5</text><text x="343.1" y="538" font-size="14" text-anchor="middle">x</text><text x="14" y="272.5" font-size="14" text-anchor="middle" transform="rotate(-90,14,272.5)">e^(−0.15x) · cos(x)</text><text x="343.1" y="22" font-size="18" text-anchor="middle">Band Attached to Line</text><path d="M 72.19999999999999 97.99999999999994 L 78.48318530717957 104.35606877755299 L 84.76637061435916 114.68984712934173 L 91.04955592153874 128.56410767746178 L 97.33274122871833 145.47468075904237 L 103.61592653589793 164.86593446891584 L 109.8991118430775 186.14680771281127 L 116.1822971502571 208.70697652767063 L 122.46548245743668 231.9327499694822 L 128.74866776461627 255.22231710216528 L 135.03185307179587 278 L 141.31503837897543 299.729208005052 L 147.59822368615502 319.9238344483055 L 153.88140899333462 338.1578872588122 L 160.1645943005142 354.07319791863273 L 166.44777960769378 367.38510763876303 L 172.73096491487337 377.88608403065837 L 179.01415022205296 385.44727459241983 L 185.29733552923256 390.01805377608173 L 191.58052083641212 391.6236671316676 L 197.8637061435917 390.36111805674255 L 204.1468914507713 386.39347919956805 L 210.43007675795087 379.9428409253595 L 216.71326206513046 371.28213299537435 L 222.99644737231006 360.72607244855965 L 229.27963267948962 348.62150051876336 L 235.56281798666922 335.33737434705273 L 241.8460032938488 321.2546755049058 L 248.12918860102843 306.7564873290471 L 254.41237390820797 292.21847731745913 L 260.69555921538756 278 L 266.9787445225672 264.43601052258236 L 273.2619298297467 251.82995048979228 L 279.54511513692637 240.4477362648244 L 285.82830044410593 230.51294682061427 L 292.1114857512855 222.20327426714613 L 298.39467105846506 215.64826622225274 L 304.6778563656447 210.92835608136602 L 310.9610416728243 208.07514575099526 L 317.2442269800039 207.07287624099263 L 323.52741228718344 207.86099527243755 L 329.810597594363 210.33770826153477 L 336.0937829015426 214.3643800874775 L 342.3769682087222 219.77064023289995 L 348.66015351590175 226.36003337353748 L 354.9433388230814 233.91605134926073 L 361.22652413026094 242.2083806218176 L 367.5097094374406 250.99920166159555 L 373.7928947446201 260.04938295735394 L 380.0760800517997 269.1244221752547 L 386.35926535897926 278 L 392.6424506661589 286.467027905514 L 398.92563597333844 294.3360890142625 L 405.20882128051807 301.4411907713667 L 411.49200658769763 307.6427688247543 L 417.77519189487725 312.82990270693824 L 424.0583772020569 316.92172511135584 L 430.3415625092364 319.8680272255635 L 436.62474781641595 321.64908224096075 L 442.90793312359557 322.2747273672834 L 449.19111843077513 321.7827610587559 L 455.47430373795476 320.23672638897466 L 461.7574890451344 317.7231633422496 L 468.04067435231394 314.3484220397759 L 474.32385965949345 310.23513548090114 L 480.6070449666731 305.51845421529504 L 486.8902302738527 300.3421465021886 L 493.17341558103226 294.85466605404315 L 499.4566008882119 289.2052855595563 L 505.73978619539145 283.5403880432667 L 512.0229715025711 278 L 518.3061568097506 272.7146404328822 L 524.5893421169302 267.80254874268337 L 530.8725274241098 263.36734220193256 L 537.1557127312894 259.496140847517 L 543.4388980384689 256.25818438911597 L 549.7220833456486 253.70395249883816 L 556.0052686528281 251.86478694503083 L 562.2884539600077 250.75300176252745 L 568.5716392671873 250.36245628530324 L 568.5716392671873 322.3624562853032 L 562.2884539600077 322.75300176252745 L 556.0052686528281 323.8647869450308 L 549.7220833456486 325.70395249883813 L 543.4388980384689 328.2581843891159 L 537.1557127312894 331.496140847517 L 530.8725274241098 335.3673422019325 L 524.5893421169302 339.80254874268337 L 518.3061568097506 344.7146404328822 L 512.0229715025711 350 L 505.73978619539145 355.54038804326666 L 499.4566008882119 361.2052855595563 L 493.17341558103226 366.85466605404315 L 486.8902302738527 372.3421465021886 L 480.6070449666731 377.518454215295 L 474.32385965949345 382.2351354809011 L 468.04067435231394 386.3484220397759 L 461.7574890451344 389.7231633422496 L 455.47430373795476 392.2367263889747 L 449.19111843077513 393.7827610587559 L 442.90793312359557 394.2747273672834 L 436.62474781641595 393.64908224096075 L 430.3415625092364 391.8680272255635 L 424.0583772020569 388.9217251113558 L 417.77519189487725 384.82990270693824 L 411.49200658769763 379.6427688247543 L 405.20882128051807 373.4411907713667 L 398.92563597333844 366.3360890142625 L 392.6424506661589 358.467027905514 L 386.35926535897926 350 L 380.0760800517997 341.1244221752547 L 373.7928947446201 332.04938295735394 L 367.5097094374406 322.9992016615956 L 361.22652413026094 314.2083806218176 L 354.9433388230814 305.9160513492607 L 348.66015351590175 298.3600333735375 L 342.3769682087222 291.77064023289995 L 336.0937829015426 286.36438008747746 L 329.810597594363 282.3377082615348 L 323.52741228718344 279.8609952724376 L 317.2442269800039 279.0728762409927 L 310.9610416728243 280.07514575099526 L 304.6778563656447 282.928356081366 L 298.39467105846506 287.64826622225274 L 292.1114857512855 294.2032742671462 L 285.82830044410593 302.5129468206143 L 279.54511513692637 312.4477362648244 L 273.2619298297467 323.8299504897923 L 266.9787445225672 336.4360105225824 L 260.69555921538756 350 L 254.41237390820797 364.21847731745913 L 248.12918860102843 378.75648732904716 L 241.8460032938488 393.2546755049058 L 235.56281798666922 407.33737434705273 L 229.27963267948962 420.6215005187633 L 222.99644737231006 432.72607244855965 L 216.71326206513046 443.28213299537435 L 210.43007675795087 451.9428409253596 L 204.1468914507713 458.39347919956805 L 197.8637061435917 462.36111805674255 L 191.58052083641212 463.62366713166756 L 185.29733552923256 462.01805377608173 L 179.01415022205296 457.4472745924198 L 172.73096491487337 449.88608403065837 L 166.44777960769378 439.3851076387631 L 160.1645943005142 426.07319791863273 L 153.88140899333462 410.1578872588122 L 147.59822368615502 391.9238344483055 L 141.31503837897543 371.729208005052 L 135.03185307179587 350 L 128.74866776461627 327.22231710216533 L 122.46548245743668 303.9327499694822 L 116.1822971502571 280.7069765276706 L 109.8991118430775 258.14680771281127 L 103.61592653589793 236.86593446891584 L 97.33274122871833 217.47468075904237 L 91.04955592153874 200.56410767746178 L 84.76637061435916 186.68984712934173 L 78.48318530717957 176.35606877755305 L 72.19999999999999 170 Z" stroke="none" stroke-width="0" fill="firebrick" fill-opacity="0.2" /><path d="M 72.19999999999999 134 L 78.48318530717957 140.356068777553 L 84.76637061435916 150.68984712934167 L 91.04955592153874 164.56410767746183 L 97.33274122871833 181.47468075904237 L 103.61592653589793 200.86593446891584 L 109.8991118430775 222.14680771281127 L 116.1822971502571 244.7069765276706 L 122.46548245743668 267.9327499694822 L 128.74866776461627 291.22231710216533 L 135.03185307179587 314 L 141.31503837897543 335.729208005052 L 147.59822368615502 355.9238344483055 L 153.88140899333462 374.1578872588122 L 160.1645943005142 390.07319791863273 L 166.44777960769378 403.3851076387631 L 172.73096491487337 413.88608403065837 L 179.01415022205296 421.4472745924198 L 185.29733552923256 426.01805377608173 L 191.58052083641212 427.6236671316676 L 197.8637061435917 426.36111805674255 L 204.1468914507713 422.39347919956805 L 210.43007675795087 415.9428409253595 L 216.71326206513046 407.28213299537435 L 222.99644737231006 396.72607244855965 L 229.27963267948962 384.6215005187633 L 235.56281798666922 371.33737434705273 L 241.8460032938488 357.2546755049058 L 248.12918860102843 342.7564873290471 L 254.41237390820797 328.21847731745913 L 260.69555921538756 314 L 266.9787445225672 300.4360105225825 L 273.2619298297467 287.82995048979234 L 279.54511513692637 276.4477362648244 L 285.82830044410593 266.5129468206143 L 292.1114857512855 258.20327426714607 L 298.39467105846506 251.64826622225272 L 304.6778563656447 246.92835608136602 L 310.9610416728243 244.07514575099526 L 317.2442269800039 243.07287624099266 L 323.52741228718344 243.86099527243755 L 329.810597594363 246.33770826153477 L 336.0937829015426 250.3643800874775 L 342.3769682087222 255.7706402328999 L 348.66015351590175 262.3600333735375 L 354.9433388230814 269.9160513492607 L 361.22652413026094 278.2083806218176 L 367.5097094374406 286.9992016615955 L 373.7928947446201 296.04938295735394 L 380.0760800517997 305.12442217525467 L 386.35926535897926 314 L 392.6424506661589 322.467027905514 L 398.92563597333844 330.3360890142625 L 405.20882128051807 337.4411907713667 L 411.49200658769763 343.6427688247543 L 417.77519189487725 348.82990270693824 L 424.0583772020569 352.92172511135584 L 430.3415625092364 355.86802722556354 L 436.62474781641595 357.64908224096075 L 442.90793312359557 358.2747273672834 L 449.19111843077513 357.7827610587559 L 455.47430373795476 356.2367263889747 L 461.7574890451344 353.7231633422497 L 468.04067435231394 350.3484220397759 L 474.32385965949345 346.23513548090114 L 480.6070449666731 341.518454215295 L 486.8902302738527 336.3421465021886 L 493.17341558103226 330.85466605404315 L 499.4566008882119 325.2052855595563 L 505.73978619539145 319.5403880432667 L 512.0229715025711 314 L 518.3061568097506 308.7146404328822 L 524.5893421169302 303.80254874268337 L 530.8725274241098 299.3673422019325 L 537.1557127312894 295.496140847517 L 543.4388980384689 292.2581843891159 L 549.7220833456486 289.7039524988382 L 556.0052686528281 287.8647869450308 L 562.2884539600077 286.75300176252745 L 568.5716392671873 286.3624562853032 " stroke="firebrick" stroke-width="2" fill="none" /></svg>