<svg xmlns="http://www.w3.org/2000/svg" width="686.2" height="545" font-family="DejaVu Sans, Liberation Sans, Arial, sans-serif" fill="black"><rect width="100%" height="100%" fill="white" /><line x1="72.19999999999999" y1="494" x2="672.2" y2="494" stroke="black" stroke-width="1" /><line x1="72.19999999999999" y1="44" x2="72.19999999999999" y2="494" stroke="black" stroke-width="1" /><line x1="172.2" y1="44" x2="172.2" y2="494" stroke="#ccc" stroke-width="1" /><line x1="272.2" y1="44" x2="272.2" y2="494" stroke="#ccc" stroke-width="1" /><line x1="372.2" y1="44" x2="372.2" y2="494" stroke="#ccc" stroke-width="1" /><line x1="472.2" y1="44" x2="472.2" y2="494" stroke="#ccc" stroke-width="1" /><line x1="572.2" y1="44" x2="572.2" y2="494" stroke="#ccc" stroke-width="1" /><line x1="672.2" y1="44" x2="672.2" y2="494" stroke="#ccc" stroke-width="1" /><line x1="72.19999999999999" y1="325.25" x2="672.2" y2="325.25" stroke="#ccc" stroke-width="1" /><line x1="72.19999999999999" y1="212.75" x2="672.2" y2="212.75" stroke="#ccc" stroke-width="1" /><line x1="72.19999999999999" y1="100.25" x2="672.2" y2="100.25" stroke="#ccc" stroke-width="1" /><line x1="72.19999999999999" y1="494" x2="72.19999999999999" y2="499" stroke="black" stroke-width="1" /><text x="72.19999999999999" y="511" font-size="12" text-anchor="middle">0</text><line x1="172.2" y1="494" x2="172.2" y2="499" stroke="black" stroke-width="1" /><text x="172.2" y="511" font-size="12" text-anchor="middle">5</text><line x1="272.2" y1="494" x2="272.2" y2="499" stroke="black" stroke-width="1" /><text x="272.2" y="511" font-size="12" text-anchor="middle">10</text><line x1="372.2" y1="494" x2="372.2" y2="499" stroke="black" stroke-width="1" /><text x="372.2" y="511" font-size="12" text-anchor="middle">15</text><line x1="472.2" y1="494" x2="472.2" y2="499" stroke="black" stroke-width="1" /><text x="472.2" y="511" font-size="12" text-anchor="middle">20</text><line x1="572.2" y1="494" x2="572.2" y2="499" stroke="black" stroke-width="1" /><text x="572.2" y="511" font-size="12" text-anchor="middle">25</text><line x1="672.2" y1="494" x2="672.2" y2="499" stroke="black" stroke-width="1" /><text x="672.2" y="511" font-size="12" text-anchor="middle">30</text><line x1="67.19999999999999" y1="437.75" x2="72.19999999999999" y2="437.75" stroke="black" stroke-width="1" /><text x="64.19999999999999" y="441.95" font-size="12" text-anchor="end">-0</text><line x1="67.19999999999999" y1="325.25" x2="72.19999999999999" y2="325.25" stroke="black" stroke-width="1" /><text x="64.19999999999999" y="329.45" font-size="12" text-anchor="end">5</text><line x1="67.19999999999999" y1="212.75" x2="72.19999999999999" y2="212.75" stroke="black" stroke-width="1" /><text x="64.19999999999999" y="216.95" font-size="12" text-anchor="end">10</text><line x1="67.19999999999999" y1="100.25" x2="72.19999999999999" y2="100.25" stroke="black" stroke-width="1" /><text x="64.19999999999999" y="104.45" font-size="12" text-anchor="end">15</text><text x="343.1" y="538" font-size="14" text-anchor="middle">x</text><text x="14" y="272.5" font-size="14" text-anchor="middle" transform="rotate(-90,14,272.5)">y</text><text x="343.1" y="22" font-size="18" text-anchor="middle">Band Attached to Scatter</text><path d="M 72.19999999999999 336.5 L 92.19999999999999 327.5 L 112.19999999999999 318.5 L 132.2 309.5 L 152.2 300.5 L 172.2 291.5 L 192.2 282.5 L 212.2 273.5 L 232.2 264.5 L 252.2 255.5 L 272.2 246.49999999999997 L 292.19999999999993 237.5 L 312.2 228.49999999999994 L 332.2 219.5 L 352.2 210.49999999999994 L 372.2 201.5 L 392.2 192.5 L 412.2 183.5 L 432.2 174.5 L 452.2 165.49999999999994 L 472.2 156.5 L 492.2 147.5 L 512.1999999999999 138.5 L 532.2 129.49999999999994 L 552.2 120.49999999999994 L 572.2 111.5 L 592.2 102.50000000000006 L 612.2 93.5 L 632.2 84.49999999999994 L 652.2 75.5 L 652.2 188 L 632.2 197 L 612.2 206 L 592.2 215 L 572.2 224 L 552.2 232.99999999999994 L 532.2 241.99999999999997 L 512.1999999999999 250.99999999999997 L 492.2 260 L 472.2 269 L 452.2 278 L 432.2 287 L 412.2 296 L 392.2 305 L 372.2 314 L 352.2 323 L 332.2 332 L 312.2 341 L 292.19999999999993 350 L 272.2 359 L 252.2 368 L 232.2 377 L 212.2 386 L 192.2 395 L 172.2 404 L 152.2 413 L 132.2 422 L 112.19999999999999 431 L 92.19999999999999 440 L 72.19999999999999 449 Z" stroke="none" stroke-width="0" fill="seagreen" fill-opacity="0.2" /><circle cx="72.19999999999999" cy="392.75" r="3" fill="seagreen" /><circle cx="92.19999999999999" cy="383.75" r="3" fill="seagreen" /><circle cx="112.19999999999999" cy="374.75" r="3" fill="seagreen" /><circle cx="132.2" cy="365.75" r="3" fill="seagreen" /><circle cx="152.2" cy="356.75" r="3" fill="seagreen" /><circle cx="172.2" cy="347.75" r="3" fill="seagreen" /><circle cx="192.2" cy="338.75" r="3" fill="seagreen" /><circle cx="212.2" cy="329.75" r="3" fill="seagreen" /><circle cx="232.2" cy="320.75" r="3" fill="seagreen" /><circle cx="252.2" cy="311.75" r="3" fill="seagreen" /><circle cx="272.2" cy="302.75" r="3" fill="seagreen" /><circle cx="292.19999999999993" cy="293.75" r="3" fill="seagreen" /><circle cx="312.2" cy="284.75" r="3" fill="seagreen" /><circle cx="332.2" cy="275.75" r="3" fill="seagreen" /><circle cx="352.2" cy="266.74999999999994" r="3" fill="seagreen" /><circle cx="372.2" cy="257.75" r="3" fill="seagreen" /><circle cx="392.2" cy="248.74999999999997" r="3" fill="seagreen" /><circle cx="412.2" cy="239.74999999999997" r="3" fill="seagreen" /><circle cx="432.2" cy="230.75" r="3" fill="seagreen" /><circle cx="452.2" cy="221.74999999999994" r="3" fill="seagreen" /><circle cx="472.2" cy="212.75" r="3" fill="seagreen" /><circle cx="492.2" cy="203.75" r="3" fill="seagreen" /><circle cx="512.1999999999999" cy="194.75" r="3" fill="seagreen" /><circle cx="532.2" cy="185.75" r="3" fill="seagreen" /><circle cx="552.2" cy="176.74999999999994" r="3" fill="seagreen" /><circle cx="572.2" cy="167.75" r="3" fill="seagreen" /><circle cx="592.2" cy="158.75" r="3" fill="seagreen" /><circle cx="612.2" cy="149.75" r="3" fill="seagreen" /><circle cx="632.2" cy="140.75" r="3" fill="seagreen" /><circle cx="652.2" cy="131.75" r="3" fill="seagreen" /></svg>