<svg xmlns="http://www.w3.org/2000/svg" width="833.2" height="545" font-family="DejaVu Sans, Liberation Sans, Arial, sans-serif" fill="black"><rect width="100%" height="100%" fill="white" /><line x1="72.19999999999999" y1="494" x2="672.2" y2="494" stroke="black" stroke-width="1" /><line x1="72.19999999999999" y1="44" x2="72.19999999999999" y2="494" stroke="black" stroke-width="1" /><line x1="192.2" y1="44" x2="192.2" y2="494" stroke="#ccc" stroke-width="1" /><line x1="312.2" y1="44" x2="312.2" y2="494" stroke="#ccc" stroke-width="1" /><line x1="432.2" y1="44" x2="432.2" y2="494" stroke="#ccc" stroke-width="1" /><line x1="552.2" y1="44" x2="552.2" y2="494" stroke="#ccc" stroke-width="1" /><line x1="672.2" y1="44" x2="672.2" y2="494" stroke="#ccc" stroke-width="1" /><line x1="72.19999999999999" y1="419" x2="672.2" y2="419" stroke="#ccc" stroke-width="1" /><line x1="72.19999999999999" y1="344" x2="672.2" y2="344" stroke="#ccc" stroke-width="1" /><line x1="72.19999999999999" y1="269" x2="672.2" y2="269" stroke="#ccc" stroke-width="1" /><line x1="72.19999999999999" y1="194" x2="672.2" y2="194" stroke="#ccc" stroke-width="1" /><line x1="72.19999999999999" y1="119" x2="672.2" y2="119" stroke="#ccc" stroke-width="1" /><line x1="72.19999999999999" y1="44" x2="672.2" y2="44" stroke="#ccc" stroke-width="1" /><line x1="72.19999999999999" y1="494" x2="72.19999999999999" y2="499" stroke="black" stroke-width="1" /><text x="72.19999999999999" y="511" font-size="12" text-anchor="middle">0</text><line x1="192.2" y1="494" x2="192.2" y2="499" stroke="black" stroke-width="1" /><text x="192.2" y="511" font-size="12" text-anchor="middle">2.5</text><line x1="312.2" y1="494" x2="312.2" y2="499" stroke="black" stroke-width="1" /><text x="312.2" y="511" font-size="12" text-anchor="middle">5</text><line x1="432.2" y1="494" x2="432.2" y2="499" stroke="black" stroke-width="1" /><text x="432.2" y="511" font-size="12" text-anchor="middle">7.5</text><line x1="552.2" y1="494" x2="552.2" y2="499" stroke="black" stroke-width="1" /><text x="552.2" y="511" font-size="12" text-anchor="middle">10</text><line x1="672.2" y1="494" x2="672.2" y2="499" stroke="black" stroke-width="1" /><text x="672.2" y="511" font-size="12" text-anchor="middle">12.5</text><line x1="67.19999999999999" y1="494" x2="72.19999999999999" y2="494" stroke="black" stroke-width="1" /><text x="64.19999999999999" y="498.2" font-size="12" text-anchor="end">-1.5</text><line x1="67.19999999999999" y1="419" x2="72.19999999999999" y2="419" stroke="black" stroke-width="1" /><text x="64.19999999999999" y="423.2" font-size="12" text-anchor="end">-1</text><line x1="67.19999999999999" y1="344" x2="72.19999999999999" y2="344" stroke="black" stroke-width="1" /><text x="64.19999999999999" y="348.2" font-size="12" text-anchor="end">-0.5</text><line x1="67.19999999999999" y1="269" x2="72.19999999999999" y2="269" stroke="black" stroke-width="1" /><text x="64.19999999999999" y="273.2" font-size="12" text-anchor="end">0</text><line x1="67.19999999999999" y1="194" x2="72.19999999999999" y2="194" stroke="black" stroke-width="1" /><text x="64.19999999999999" y="198.2" font-size="12" text-anchor="end">0.5</text><line x1="67.19999999999999" y1="119" x2="72.19999999999999" y2="119" stroke="black" stroke-width="1" /><text x="64.19999999999999" y="123.2" font-size="12" text-anchor="end">1</text><line x1="67.19999999999999" y1="44" x2="72.19999999999999" y2="44" stroke="black" stroke-width="1" /><text x="64.19999999999999" y="48.2" font-size="12" text-anchor="end">1.5</text><text x="416.6" y="538" font-size="14" text-anchor="middle">x</text><text x="14" y="272.5" font-size="14" text-anchor="middle" transform="rotate(-90,14,272.5)">y</text><text x="416.6" y="22" font-size="18" text-anchor="middle">Multiple Series with Bands</text><path d="M 72.19999999999999 231.5 L 81.79999999999998 201.69960038074083 L 91.39999999999999 173.08724865370237 L 101 146.8036289907447 L 110.6 123.89658636507158 L 120.19999999999999 105.27935227881551 L 129.8 91.69413710491608 L 139.39999999999998 83.68254050173095 L 149 81.56395954377427 L 158.6 85.42285536827075 L 168.2 95.10538597614772 L 177.8 110.22553942706145 L 187.4 130.18052291732744 L 197 154.17479422678036 L 206.6 181.25177747661434 L 216.2 210.33199879101988 L 225.79999999999998 240.25612151413705 L 235.4 269.83116530402475 L 245 297.8780664942278 L 254.60000000000002 323.27868364140784 L 264.2 345.02037429618923 L 273.8 362.23636586203827 L 283.4 374.2403110834274 L 293 380.55365054501965 L 302.6 380.9246913253761 L 312.2 375.33864119947077 L 321.8 364.01819835802297 L 331.40000000000003 347.4146731333981 L 341 326.18999568084814 L 350.6 301.1903269120635 L 360.2 273.4123247298389 L 369.8 243.9634104226245 L 379.4 214.01761927242592 L 389 184.7687954729932 L 398.6 157.38299732920865 L 408.20000000000005 132.95201019218166 L 417.8 112.449820422627 L 427.40000000000003 96.69378562825591 L 437.00000000000006 86.31204919527704 L 446.6000000000001 81.71849819380924 L 456.2 83.09626300649273 L 465.80000000000007 90.39041649803409 L 475.40000000000003 103.31016378675798 L 484.99999999999994 121.34043531888301 L 494.6 143.7624210662358 L 504.2 169.6822272137365 L 513.8000000000001 198.06651288496306 L 523.4 227.78368618199636 L 533 257.6490171834472 L 542.6 286.47186938778924 L 552.2 313.10316663340546 L 561.8 336.48120313903155 L 571.4000000000001 355.6739703628481 L 581 369.9163132419211 L 590.6000000000001 378.6404345099737 L 600.2 381.49853098260553 L 609.8 378.37665937269753 L 619.4000000000001 369.3992788497014 L 629 354.9242892453062 L 638.6000000000001 335.5287627165684 L 638.6000000000001 410.5287627165684 L 629 429.9242892453062 L 619.4000000000001 444.3992788497014 L 609.8 453.37665937269753 L 600.2 456.49853098260553 L 590.6000000000001 453.6404345099737 L 581 444.9163132419211 L 571.4000000000001 430.6739703628481 L 561.8 411.48120313903155 L 552.2 388.10316663340546 L 542.6 361.4718693877893 L 533 332.6490171834472 L 523.4 302.78368618199636 L 513.8000000000001 273.0665128849631 L 504.2 244.68222721373652 L 494.6 218.76242106623573 L 484.99999999999994 196.340435318883 L 475.40000000000003 178.31016378675793 L 465.80000000000007 165.39041649803409 L 456.2 158.09626300649268 L 446.6000000000001 156.71849819380924 L 437.00000000000006 161.31204919527698 L 427.40000000000003 171.6937856282559 L 417.8 187.449820422627 L 408.20000000000005 207.95201019218166 L 398.6 232.3829973292087 L 389 259.7687954729932 L 379.4 289.0176192724259 L 369.8 318.96341042262446 L 360.2 348.4123247298389 L 350.6 376.1903269120635 L 341 401.18999568084814 L 331.40000000000003 422.4146731333981 L 321.8 439.01819835802297 L 312.2 450.33864119947077 L 302.6 455.9246913253761 L 293 455.55365054501965 L 283.4 449.2403110834274 L 273.8 437.2363658620382 L 264.2 420.02037429618923 L 254.60000000000002 398.2786836414079 L 245 372.8780664942279 L 235.4 344.83116530402475 L 225.79999999999998 315.256121514137 L 216.2 285.33199879101994 L 206.6 256.2517774766143 L 197 229.17479422678036 L 187.4 205.18052291732738 L 177.8 185.2255394270615 L 168.2 170.10538597614772 L 158.6 160.42285536827075 L 149 156.56395954377427 L 139.39999999999998 158.68254050173095 L 129.8 166.69413710491608 L 120.19999999999999 180.27935227881545 L 110.6 198.89658636507164 L 101 221.8036289907447 L 91.39999999999999 248.0872486537024 L 81.79999999999998 276.6996003807408 L 72.19999999999999 306.5 Z" stroke="none" stroke-width="0" fill="steelblue" fill-opacity="0.2" /><path d="M 72.19999999999999 269 L 81.79999999999998 239.19960038074078 L 91.39999999999999 210.58724865370237 L 101 184.30362899074476 L 110.6 161.39658636507158 L 120.19999999999999 142.7793522788155 L 129.8 129.19413710491602 L 139.39999999999998 121.18254050173095 L 149 119.06395954377422 L 158.6 122.92285536827069 L 168.2 132.60538597614772 L 177.8 147.7255394270615 L 187.4 167.68052291732738 L 197 191.67479422678036 L 206.6 218.75177747661428 L 216.2 247.83199879101994 L 225.79999999999998 277.756121514137 L 235.4 307.33116530402475 L 245 335.3780664942278 L 254.60000000000002 360.7786836414079 L 264.2 382.52037429618923 L 273.8 399.7363658620382 L 283.4 411.7403110834274 L 293 418.05365054501965 L 302.6 418.4246913253761 L 312.2 412.83864119947077 L 321.8 401.51819835802297 L 331.40000000000003 384.9146731333981 L 341 363.68999568084814 L 350.6 338.6903269120635 L 360.2 310.91232472983893 L 369.8 281.46341042262446 L 379.4 251.51761927242597 L 389 222.26879547299325 L 398.6 194.88299732920865 L 408.20000000000005 170.4520101921816 L 417.8 149.94982042262706 L 427.40000000000003 134.19378562825597 L 437.00000000000006 123.81204919527698 L 446.6000000000001 119.21849819380924 L 456.2 120.59626300649273 L 465.80000000000007 127.89041649803409 L 475.40000000000003 140.81016378675793 L 484.99999999999994 158.840435318883 L 494.6 181.2624210662358 L 504.2 207.1822272137365 L 513.8000000000001 235.56651288496312 L 523.4 265.2836861819963 L 533 295.1490171834472 L 542.6 323.97186938778924 L 552.2 350.60316663340546 L 561.8 373.98120313903155 L 571.4000000000001 393.1739703628481 L 581 407.4163132419211 L 590.6000000000001 416.1404345099737 L 600.2 418.99853098260553 L 609.8 415.87665937269753 L 619.4000000000001 406.8992788497014 L 629 392.42428924530617 L 638.6000000000001 373.02876271656834 " stroke="steelblue" stroke-width="2" fill="none" /><path d="M 72.19999999999999 111.5 L 81.79999999999998 112.09950016663686 L 91.39999999999999 113.89201065905104 L 101 116.85962130492726 L 110.6 120.97268071965374 L 120.19999999999999 126.19009257315525 L 129.8 132.45972621083865 L 139.39999999999998 139.71893752586135 L 149 147.89519487834008 L 158.6 156.90680380752025 L 168.2 166.66372329582322 L 177.8 177.06846542893072 L 187.4 188.0170694627992 L 197 199.40014056504953 L 206.6 211.1039428519711 L 216.2 223.01153579987562 L 225.79999999999998 235.00394267615468 L 235.4 246.961339315463 L 245 258.7642513631705 L 254.60000000000002 270.2947480236204 L 264.2 281.43762038565706 L 273.8 292.08153255198295 L 283.4 302.1201340706415 L 293 311.45312255357896 L 302.6 319.9872458649495 L 312.2 327.637233865632 L 321.8 334.32665040427366 L 331.40000000000003 339.9886570420473 L 341 344.566680880239 L 350.6 348.0149798179509 L 360.2 350.2990995920535 L 369.8 351.3962180327935 L 379.4 351.2953730953704 L 389 349.9975723890638 L 398.6 347.51578310953533 L 408.20000000000005 343.87480247489555 L 417.8 339.1110099600976 L 427.40000000000003 333.272003805249 L 437.00000000000006 326.41612542972996 L 446.6000000000001 318.6118765040168 L 456.2 309.9372345036335 L 465.80000000000007 300.47887358399225 L 475.40000000000003 290.33129856088397 L 484.99999999999994 279.59590064959707 L 494.6 268.3799443974103 L 504.2 256.79549593169355 L 513.8000000000001 244.95830323220648 L 523.4 232.98663961554684 L 533 221.0001219872663 L 542.6 209.1185156692909 L 552.2 197.46053774441287 L 561.8 186.14267087444227 L 571.4000000000001 175.27799944395468 L 581 164.9750796585006 L 590.6000000000001 155.33685488688383 L 600.2 146.4596270850488 L 609.8 138.43209457876998 L 619.4000000000001 131.33446581930076 L 629 125.23765796704168 L 638.6000000000001 120.20258831071573 L 638.6000000000001 195.20258831071567 L 629 200.23765796704168 L 619.4000000000001 206.33446581930082 L 609.8 213.43209457876992 L 600.2 221.4596270850488 L 590.6000000000001 230.33685488688383 L 581 239.97507965850065 L 571.4000000000001 250.27799944395474 L 561.8 261.1426708744423 L 552.2 272.4605377444128 L 542.6 284.1185156692909 L 533 296.0001219872663 L 523.4 307.9866396155469 L 513.8000000000001 319.9583032322065 L 504.2 331.79549593169355 L 494.6 343.3799443974103 L 484.99999999999994 354.59590064959707 L 475.40000000000003 365.33129856088397 L 465.80000000000007 375.47887358399225 L 456.2 384.9372345036334 L 446.6000000000001 393.6118765040168 L 437.00000000000006 401.41612542972996 L 427.40000000000003 408.27200380524897 L 417.8 414.11100996009765 L 408.20000000000005 418.87480247489555 L 398.6 422.51578310953533 L 389 424.9975723890638 L 379.4 426.29537309537034 L 369.8 426.3962180327935 L 360.2 425.29909959205344 L 350.6 423.0149798179509 L 341 419.566680880239 L 331.40000000000003 414.98865704204735 L 321.8 409.32665040427366 L 312.2 402.637233865632 L 302.6 394.9872458649495 L 293 386.45312255357896 L 283.4 377.1201340706415 L 273.8 367.0815325519829 L 264.2 356.43762038565706 L 254.60000000000002 345.2947480236204 L 245 333.7642513631704 L 235.4 321.96133931546296 L 225.79999999999998 310.0039426761547 L 216.2 298.0115357998757 L 206.6 286.1039428519711 L 197 274.40014056504947 L 187.4 263.0170694627992 L 177.8 252.06846542893072 L 168.2 241.66372329582325 L 158.6 231.9068038075203 L 149 222.89519487834013 L 139.39999999999998 214.7189375258614 L 129.8 207.4597262108386 L 120.19999999999999 201.1900925731553 L 110.6 195.9726807196538 L 101 191.85962130492726 L 91.39999999999999 188.89201065905104 L 81.79999999999998 187.09950016663686 L 72.19999999999999 186.50000000000006 Z" stroke="none" stroke-width="0" fill="darkorange" fill-opacity="0.2" /><path d="M 72.19999999999999 149 L 81.79999999999998 149.59950016663686 L 91.39999999999999 151.39201065905098 L 101 154.35962130492726 L 110.6 158.4726807196538 L 120.19999999999999 163.69009257315525 L 129.8 169.95972621083865 L 139.39999999999998 177.2189375258614 L 149 185.39519487834013 L 158.6 194.40680380752025 L 168.2 204.16372329582322 L 177.8 214.56846542893072 L 187.4 225.51706946279916 L 197 236.90014056504947 L 206.6 248.6039428519711 L 216.2 260.5115357998757 L 225.79999999999998 272.5039426761547 L 235.4 284.46133931546296 L 245 296.26425136317044 L 254.60000000000002 307.7947480236204 L 264.2 318.93762038565706 L 273.8 329.58153255198295 L 283.4 339.6201340706415 L 293 348.95312255357896 L 302.6 357.4872458649495 L 312.2 365.1372338656321 L 321.8 371.82665040427366 L 331.40000000000003 377.48865704204735 L 341 382.066680880239 L 350.6 385.5149798179509 L 360.2 387.79909959205344 L 369.8 388.89621803279357 L 379.4 388.7953730953704 L 389 387.4975723890638 L 398.6 385.01578310953533 L 408.20000000000005 381.3748024748956 L 417.8 376.61100996009765 L 427.40000000000003 370.77200380524897 L 437.00000000000006 363.91612542972996 L 446.6000000000001 356.1118765040168 L 456.2 347.4372345036334 L 465.80000000000007 337.97887358399225 L 475.40000000000003 327.83129856088397 L 484.99999999999994 317.09590064959707 L 494.6 305.8799443974103 L 504.2 294.29549593169355 L 513.8000000000001 282.4583032322065 L 523.4 270.4866396155469 L 533 258.5001219872663 L 542.6 246.61851566929093 L 552.2 234.96053774441287 L 561.8 223.64267087444227 L 571.4000000000001 212.77799944395474 L 581 202.47507965850065 L 590.6000000000001 192.83685488688388 L 600.2 183.9596270850488 L 609.8 175.93209457876998 L 619.4000000000001 168.83446581930082 L 629 162.73765796704168 L 638.6000000000001 157.70258831071567 " stroke="darkorange" stroke-width="2" fill="none" /><rect x="677.2" y="34" width="147" height="56" fill="white" /><rect x="677.2" y="34" width="147" height="56" fill="none" stroke="black" stroke-width="1" /><text x="707.2" y="49" font-size="12" text-anchor="start">sin(x)</text><line x1="687.2" y1="46" x2="699.2" y2="46" stroke="steelblue" stroke-width="2" /><text x="707.2" y="67" font-size="12" text-anchor="start">0.8 · cos(0.5x)</text><line x1="687.2" y1="64" x2="699.2" y2="64" stroke="darkorange" stroke-width="2" /></svg>