<svg xmlns="http://www.w3.org/2000/svg" width="686.2" height="545" font-family="DejaVu Sans, Liberation Sans, Arial, sans-serif" fill="black"><rect width="100%" height="100%" fill="white" /><line x1="72.19999999999999" y1="494" x2="672.2" y2="494" stroke="black" stroke-width="1" /><line x1="72.19999999999999" y1="44" x2="72.19999999999999" y2="494" stroke="black" stroke-width="1" /><line x1="192.2" y1="44" x2="192.2" y2="494" stroke="#ccc" stroke-width="1" /><line x1="312.2" y1="44" x2="312.2" y2="494" stroke="#ccc" stroke-width="1" /><line x1="432.2" y1="44" x2="432.2" y2="494" stroke="#ccc" stroke-width="1" /><line x1="552.2" y1="44" x2="552.2" y2="494" stroke="#ccc" stroke-width="1" /><line x1="672.2" y1="44" x2="672.2" y2="494" stroke="#ccc" stroke-width="1" /><line x1="72.19999999999999" y1="419" x2="672.2" y2="419" stroke="#ccc" stroke-width="1" /><line x1="72.19999999999999" y1="344" x2="672.2" y2="344" stroke="#ccc" stroke-width="1" /><line x1="72.19999999999999" y1="269" x2="672.2" y2="269" stroke="#ccc" stroke-width="1" /><line x1="72.19999999999999" y1="194" x2="672.2" y2="194" stroke="#ccc" stroke-width="1" /><line x1="72.19999999999999" y1="119" x2="672.2" y2="119" stroke="#ccc" stroke-width="1" /><line x1="72.19999999999999" y1="44" x2="672.2" y2="44" stroke="#ccc" stroke-width="1" /><line x1="72.19999999999999" y1="494" x2="72.19999999999999" y2="499" stroke="black" stroke-width="1" /><text x="72.19999999999999" y="511" font-size="12" text-anchor="middle">0</text><line x1="192.2" y1="494" x2="192.2" y2="499" stroke="black" stroke-width="1" /><text x="192.2" y="511" font-size="12" text-anchor="middle">2.5</text><line x1="312.2" y1="494" x2="312.2" y2="499" stroke="black" stroke-width="1" /><text x="312.2" y="511" font-size="12" text-anchor="middle">5</text><line x1="432.2" y1="494" x2="432.2" y2="499" stroke="black" stroke-width="1" /><text x="432.2" y="511" font-size="12" text-anchor="middle">7.5</text><line x1="552.2" y1="494" x2="552.2" y2="499" stroke="black" stroke-width="1" /><text x="552.2" y="511" font-size="12" text-anchor="middle">10</text><line x1="672.2" y1="494" x2="672.2" y2="499" stroke="black" stroke-width="1" /><text x="672.2" y="511" font-size="12" text-anchor="middle">12.5</text><line x1="67.19999999999999" y1="494" x2="72.19999999999999" y2="494" stroke="black" stroke-width="1" /><text x="64.19999999999999" y="498.2" font-size="12" text-anchor="end">-1.5</text><line x1="67.19999999999999" y1="419" x2="72.19999999999999" y2="419" stroke="black" stroke-width="1" /><text x="64.19999999999999" y="423.2" font-size="12" text-anchor="end">-1</text><line x1="67.19999999999999" y1="344" x2="72.19999999999999" y2="344" stroke="black" stroke-width="1" /><text x="64.19999999999999" y="348.2" font-size="12" text-anchor="end">-0.5</text><line x1="67.19999999999999" y1="269" x2="72.19999999999999" y2="269" stroke="black" stroke-width="1" /><text x="64.19999999999999" y="273.2" font-size="12" text-anchor="end">0</text><line x1="67.19999999999999" y1="194" x2="72.19999999999999" y2="194" stroke="black" stroke-width="1" /><text x="64.19999999999999" y="198.2" font-size="12" text-anchor="end">0.5</text><line x1="67.19999999999999" y1="119" x2="72.19999999999999" y2="119" stroke="black" stroke-width="1" /><text x="64.19999999999999" y="123.2" font-size="12" text-anchor="end">1</text><line x1="67.19999999999999" y1="44" x2="72.19999999999999" y2="44" stroke="black" stroke-width="1" /><text x="64.19999999999999" y="48.2" font-size="12" text-anchor="end">1.5</text><text x="343.1" y="538" font-size="14" text-anchor="middle">x</text><text x="14" y="272.5" font-size="14" text-anchor="middle" transform="rotate(-90,14,272.5)">y</text><text x="343.1" y="22" font-size="18" text-anchor="middle">Band Plot — Standalone</text><path d="M 72.19999999999999 216.5 L 81.79999999999998 186.6996003807409 L 91.39999999999999 158.08724865370243 L 101 131.8036289907447 L 110.6 108.89658636507158 L 120.19999999999999 90.27935227881557 L 129.8 76.69413710491602 L 139.39999999999998 68.68254050173095 L 149 66.56395954377422 L 158.6 70.42285536827069 L 168.2 80.10538597614777 L 177.8 95.22553942706145 L 187.4 115.18052291732738 L 197 139.17479422678036 L 206.6 166.25177747661428 L 216.2 195.33199879101994 L 225.79999999999998 225.25612151413702 L 235.4 254.83116530402478 L 245 282.8780664942279 L 254.60000000000002 308.2786836414079 L 264.2 330.02037429618923 L 273.8 347.23636586203827 L 283.4 359.2403110834274 L 293 365.55365054501965 L 302.6 365.9246913253761 L 312.2 360.33864119947077 L 321.8 349.01819835802297 L 331.40000000000003 332.4146731333981 L 341 311.18999568084814 L 350.6 286.1903269120635 L 360.2 258.4123247298388 L 369.8 228.96341042262446 L 379.4 199.01761927242597 L 389 169.7687954729932 L 398.6 142.38299732920865 L 408.20000000000005 117.9520101921816 L 417.8 97.44982042262706 L 427.40000000000003 81.69378562825597 L 437.00000000000006 71.3120491952771 L 446.6000000000001 66.7184981938093 L 456.2 68.09626300649273 L 465.80000000000007 75.39041649803414 L 475.40000000000003 88.31016378675793 L 484.99999999999994 106.34043531888301 L 494.6 128.7624210662358 L 504.2 154.6822272137365 L 513.8000000000001 183.06651288496306 L 523.4 212.78368618199636 L 533 242.64901718344726 L 542.6 271.4718693877893 L 552.2 298.1031666334055 L 561.8 321.48120313903155 L 571.4000000000001 340.6739703628481 L 581 354.9163132419211 L 590.6000000000001 363.6404345099737 L 600.2 366.49853098260553 L 609.8 363.37665937269753 L 619.4000000000001 354.3992788497014 L 629 339.9242892453062 L 638.6000000000001 320.52876271656834 L 638.6000000000001 425.5287627165684 L 629 444.92428924530617 L 619.4000000000001 459.3992788497013 L 609.8 468.37665937269753 L 600.2 471.49853098260553 L 590.6000000000001 468.6404345099737 L 581 459.9163132419211 L 571.4000000000001 445.6739703628481 L 561.8 426.48120313903155 L 552.2 403.10316663340546 L 542.6 376.4718693877893 L 533 347.6490171834472 L 523.4 317.78368618199636 L 513.8000000000001 288.0665128849631 L 504.2 259.6822272137365 L 494.6 233.76242106623573 L 484.99999999999994 211.340435318883 L 475.40000000000003 193.31016378675793 L 465.80000000000007 180.39041649803409 L 456.2 173.09626300649273 L 446.6000000000001 171.71849819380924 L 437.00000000000006 176.31204919527698 L 427.40000000000003 186.69378562825597 L 417.8 202.44982042262706 L 408.20000000000005 222.95201019218166 L 398.6 247.38299732920862 L 389 274.7687954729932 L 379.4 304.0176192724259 L 369.8 333.9634104226244 L 360.2 363.4123247298389 L 350.6 391.1903269120635 L 341 416.18999568084814 L 331.40000000000003 437.4146731333981 L 321.8 454.01819835802297 L 312.2 465.33864119947077 L 302.6 470.9246913253761 L 293 470.55365054501965 L 283.4 464.2403110834274 L 273.8 452.23636586203827 L 264.2 435.0203742961892 L 254.60000000000002 413.2786836414079 L 245 387.8780664942279 L 235.4 359.83116530402475 L 225.79999999999998 330.256121514137 L 216.2 300.33199879101994 L 206.6 271.25177747661434 L 197 244.17479422678036 L 187.4 220.18052291732738 L 177.8 200.2255394270615 L 168.2 185.10538597614772 L 158.6 175.42285536827075 L 149 171.56395954377427 L 139.39999999999998 173.68254050173095 L 129.8 181.69413710491608 L 120.19999999999999 195.2793522788155 L 110.6 213.89658636507158 L 101 236.80362899074464 L 91.39999999999999 263.08724865370243 L 81.79999999999998 291.69960038074083 L 72.19999999999999 321.5 Z" stroke="none" stroke-width="0" fill="steelblue" fill-opacity="0.25" /><path d="M 72.19999999999999 269 L 81.79999999999998 239.19960038074078 L 91.39999999999999 210.58724865370237 L 101 184.30362899074476 L 110.6 161.39658636507158 L 120.19999999999999 142.7793522788155 L 129.8 129.19413710491602 L 139.39999999999998 121.18254050173095 L 149 119.06395954377422 L 158.6 122.92285536827069 L 168.2 132.60538597614772 L 177.8 147.7255394270615 L 187.4 167.68052291732738 L 197 191.67479422678036 L 206.6 218.75177747661428 L 216.2 247.83199879101994 L 225.79999999999998 277.756121514137 L 235.4 307.33116530402475 L 245 335.3780664942278 L 254.60000000000002 360.7786836414079 L 264.2 382.52037429618923 L 273.8 399.7363658620382 L 283.4 411.7403110834274 L 293 418.05365054501965 L 302.6 418.4246913253761 L 312.2 412.83864119947077 L 321.8 401.51819835802297 L 331.40000000000003 384.9146731333981 L 341 363.68999568084814 L 350.6 338.6903269120635 L 360.2 310.91232472983893 L 369.8 281.46341042262446 L 379.4 251.51761927242597 L 389 222.26879547299325 L 398.6 194.88299732920865 L 408.20000000000005 170.4520101921816 L 417.8 149.94982042262706 L 427.40000000000003 134.19378562825597 L 437.00000000000006 123.81204919527698 L 446.6000000000001 119.21849819380924 L 456.2 120.59626300649273 L 465.80000000000007 127.89041649803409 L 475.40000000000003 140.81016378675793 L 484.99999999999994 158.840435318883 L 494.6 181.2624210662358 L 504.2 207.1822272137365 L 513.8000000000001 235.56651288496312 L 523.4 265.2836861819963 L 533 295.1490171834472 L 542.6 323.97186938778924 L 552.2 350.60316663340546 L 561.8 373.98120313903155 L 571.4000000000001 393.1739703628481 L 581 407.4163132419211 L 590.6000000000001 416.1404345099737 L 600.2 418.99853098260553 L 609.8 415.87665937269753 L 619.4000000000001 406.8992788497014 L 629 392.42428924530617 L 638.6000000000001 373.02876271656834 " stroke="steelblue" stroke-width="2" fill="none" /></svg>