<svg xmlns="http://www.w3.org/2000/svg" width="771.2" height="545" font-family="DejaVu Sans, Liberation Sans, Arial, sans-serif" fill="black"><rect width="100%" height="100%" fill="white" /><line x1="72.19999999999999" y1="494" x2="672.2" y2="494" stroke="black" stroke-width="1" /><line x1="72.19999999999999" y1="44" x2="72.19999999999999" y2="494" stroke="black" stroke-width="1" /><line x1="172.2" y1="44" x2="172.2" y2="494" stroke="#ccc" stroke-width="1" /><line x1="272.2" y1="44" x2="272.2" y2="494" stroke="#ccc" stroke-width="1" /><line x1="372.2" y1="44" x2="372.2" y2="494" stroke="#ccc" stroke-width="1" /><line x1="472.2" y1="44" x2="472.2" y2="494" stroke="#ccc" stroke-width="1" /><line x1="572.2" y1="44" x2="572.2" y2="494" stroke="#ccc" stroke-width="1" /><line x1="672.2" y1="44" x2="672.2" y2="494" stroke="#ccc" stroke-width="1" /><line x1="72.19999999999999" y1="404" x2="672.2" y2="404" stroke="#ccc" stroke-width="1" /><line x1="72.19999999999999" y1="314" x2="672.2" y2="314" stroke="#ccc" stroke-width="1" /><line x1="72.19999999999999" y1="224" x2="672.2" y2="224" stroke="#ccc" stroke-width="1" /><line x1="72.19999999999999" y1="134" x2="672.2" y2="134" stroke="#ccc" stroke-width="1" /><line x1="72.19999999999999" y1="44" x2="672.2" y2="44" stroke="#ccc" stroke-width="1" /><line x1="72.19999999999999" y1="494" x2="72.19999999999999" y2="499" stroke="black" stroke-width="1" /><text x="72.19999999999999" y="511" font-size="12" text-anchor="middle">0</text><line x1="172.2" y1="494" x2="172.2" y2="499" stroke="black" stroke-width="1" /><text x="172.2" y="511" font-size="12" text-anchor="middle">1</text><line x1="272.2" y1="494" x2="272.2" y2="499" stroke="black" stroke-width="1" /><text x="272.2" y="511" font-size="12" text-anchor="middle">2</text><line x1="372.2" y1="494" x2="372.2" y2="499" stroke="black" stroke-width="1" /><text x="372.2" y="511" font-size="12" text-anchor="middle">3</text><line x1="472.2" y1="494" x2="472.2" y2="499" stroke="black" stroke-width="1" /><text x="472.2" y="511" font-size="12" text-anchor="middle">4</text><line x1="572.2" y1="494" x2="572.2" y2="499" stroke="black" stroke-width="1" /><text x="572.2" y="511" font-size="12" text-anchor="middle">5</text><line x1="672.2" y1="494" x2="672.2" y2="499" stroke="black" stroke-width="1" /><text x="672.2" y="511" font-size="12" text-anchor="middle">6</text><line x1="67.19999999999999" y1="494" x2="72.19999999999999" y2="494" stroke="black" stroke-width="1" /><text x="64.19999999999999" y="498.2" font-size="12" text-anchor="end">0</text><line x1="67.19999999999999" y1="404" x2="72.19999999999999" y2="404" stroke="black" stroke-width="1" /><text x="64.19999999999999" y="408.2" font-size="12" text-anchor="end">1</text><line x1="67.19999999999999" y1="314" x2="72.19999999999999" y2="314" stroke="black" stroke-width="1" /><text x="64.19999999999999" y="318.2" font-size="12" text-anchor="end">2</text><line x1="67.19999999999999" y1="224" x2="72.19999999999999" y2="224" stroke="black" stroke-width="1" /><text x="64.19999999999999" y="228.2" font-size="12" text-anchor="end">3</text><line x1="67.19999999999999" y1="134" x2="72.19999999999999" y2="134" stroke="black" stroke-width="1" /><text x="64.19999999999999" y="138.2" font-size="12" text-anchor="end">4</text><line x1="67.19999999999999" y1="44" x2="72.19999999999999" y2="44" stroke="black" stroke-width="1" /><text x="64.19999999999999" y="48.2" font-size="12" text-anchor="end">5</text><text x="385.6" y="22" font-size="18" text-anchor="middle">Heatmap</text><rect x="122.19999999999999" y="359" width="99" height="89.1" fill="rgb(170,219,49)" /><rect x="222.2" y="359" width="99" height="89.1" fill="rgb(58,81,139)" /><rect x="322.2" y="359" width="99" height="89.1" fill="rgb(253,231,37)" /><rect x="422.2" y="359" width="99.00000000000006" height="89.1" fill="rgb(71,44,122)" /><rect x="522.2" y="359" width="99" height="89.1" fill="rgb(39,173,128)" /><rect x="122.19999999999999" y="269" width="99" height="89.1" fill="rgb(44,113,142)" /><rect x="222.2" y="269" width="99" height="89.1" fill="rgb(92,200,98)" /><rect x="322.2" y="269" width="99" height="89.1" fill="rgb(68,1,84)" /><rect x="422.2" y="269" width="99.00000000000006" height="89.1" fill="rgb(170,219,49)" /><rect x="522.2" y="269" width="99" height="89.1" fill="rgb(58,81,139)" /><rect x="122.19999999999999" y="179" width="99" height="89.1" fill="rgb(32,144,140)" /><rect x="222.2" y="179" width="99" height="89.1" fill="rgb(253,231,37)" /><rect x="322.2" y="179" width="99" height="89.1" fill="rgb(44,113,142)" /><rect x="422.2" y="179" width="99.00000000000006" height="89.1" fill="rgb(39,173,128)" /><rect x="522.2" y="179" width="99" height="89.1" fill="rgb(68,1,84)" /><rect x="122.19999999999999" y="89" width="99" height="89.1" fill="rgb(71,44,122)" /><rect x="222.2" y="89" width="99" height="89.1" fill="rgb(32,144,140)" /><rect x="322.2" y="89" width="99" height="89.1" fill="rgb(170,219,49)" /><rect x="422.2" y="89" width="99.00000000000006" height="89.1" fill="rgb(58,81,139)" /><rect x="522.2" y="89" width="99" height="89.1" fill="rgb(92,200,98)" /><rect x="701.2" y="89" width="20" height="7.7" fill="rgb(253,231,37)" /><rect x="701.2" y="96.2" width="20" height="7.7" fill="rgb(240,229,28)" /><rect x="701.2" y="103.4" width="20" height="7.7" fill="rgb(227,227,24)" /><rect x="701.2" y="110.6" width="20" height="7.7" fill="rgb(214,226,25)" /><rect x="701.2" y="117.8" width="20" height="7.7" fill="rgb(200,224,31)" /><rect x="701.2" y="125" width="20" height="7.7" fill="rgb(186,222,39)" /><rect x="701.2" y="132.2" width="20" height="7.7" fill="rgb(172,220,48)" /><rect x="701.2" y="139.4" width="20" height="7.7" fill="rgb(158,217,57)" /><rect x="701.2" y="146.6" width="20" height="7.7" fill="rgb(145,214,66)" /><rect x="701.2" y="153.8" width="20" height="7.7" fill="rgb(132,212,74)" /><rect x="701.2" y="161" width="20" height="7.7" fill="rgb(119,208,82)" /><rect x="701.2" y="168.2" width="20" height="7.7" fill="rgb(107,205,90)" /><rect x="701.2" y="175.4" width="20" height="7.7" fill="rgb(95,201,96)" /><rect x="701.2" y="182.60000000000002" width="20" height="7.7" fill="rgb(84,197,103)" /><rect x="701.2" y="189.8" width="20" height="7.7" fill="rgb(74,193,108)" /><rect x="701.2" y="197" width="20" height="7.7" fill="rgb(64,188,114)" /><rect x="701.2" y="204.2" width="20" height="7.7" fill="rgb(55,184,119)" /><rect x="701.2" y="211.4" width="20" height="7.7" fill="rgb(48,180,123)" /><rect x="701.2" y="218.6" width="20" height="7.7" fill="rgb(41,175,127)" /><rect x="701.2" y="225.8" width="20" height="7.7" fill="rgb(36,171,130)" /><rect x="701.2" y="233" width="20" height="7.7" fill="rgb(33,165,133)" /><rect x="701.2" y="240.20000000000002" width="20" height="7.7" fill="rgb(31,161,135)" /><rect x="701.2" y="247.4" width="20" height="7.7" fill="rgb(30,156,137)" /><rect x="701.2" y="254.6" width="20" height="7.7" fill="rgb(31,151,138)" /><rect x="701.2" y="261.8" width="20" height="7.7" fill="rgb(31,146,140)" /><rect x="701.2" y="269" width="20" height="7.7" fill="rgb(33,141,141)" /><rect x="701.2" y="276.20000000000005" width="20" height="7.7" fill="rgb(35,136,141)" /><rect x="701.2" y="283.4" width="20" height="7.7" fill="rgb(37,131,142)" /><rect x="701.2" y="290.6" width="20" height="7.7" fill="rgb(38,127,141)" /><rect x="701.2" y="297.8" width="20" height="7.7" fill="rgb(40,122,142)" /><rect x="701.2" y="305" width="20" height="7.7" fill="rgb(42,116,141)" /><rect x="701.2" y="312.20000000000005" width="20" height="7.7" fill="rgb(44,112,142)" /><rect x="701.2" y="319.4" width="20" height="7.7" fill="rgb(47,107,142)" /><rect x="701.2" y="326.6" width="20" height="7.7" fill="rgb(49,102,142)" /><rect x="701.2" y="333.8" width="20" height="7.7" fill="rgb(51,97,140)" /><rect x="701.2" y="341" width="20" height="7.7" fill="rgb(54,91,140)" /><rect x="701.2" y="348.2" width="20" height="7.7" fill="rgb(56,85,140)" /><rect x="701.2" y="355.40000000000003" width="20" height="7.7" fill="rgb(59,80,138)" /><rect x="701.2" y="362.6" width="20" height="7.7" fill="rgb(61,74,137)" /><rect x="701.2" y="369.8" width="20" height="7.7" fill="rgb(64,69,135)" /><rect x="701.2" y="377" width="20" height="7.7" fill="rgb(66,62,133)" /><rect x="701.2" y="384.2" width="20" height="7.7" fill="rgb(68,56,130)" /><rect x="701.2" y="391.40000000000003" width="20" height="7.7" fill="rgb(70,50,126)" /><rect x="701.2" y="398.6" width="20" height="7.7" fill="rgb(71,44,122)" /><rect x="701.2" y="405.8" width="20" height="7.7" fill="rgb(72,37,118)" /><rect x="701.2" y="413" width="20" height="7.7" fill="rgb(71,30,111)" /><rect x="701.2" y="420.2" width="20" height="7.7" fill="rgb(72,23,105)" /><rect x="701.2" y="427.40000000000003" width="20" height="7.7" fill="rgb(71,16,99)" /><rect x="701.2" y="434.6" width="20" height="7.7" fill="rgb(70,8,92)" /><rect x="701.2" y="441.8" width="20" height="7.7" fill="rgb(68,1,84)" /><rect x="701.2" y="89" width="20" height="360" fill="none" stroke="black" stroke-width="1" /><line x1="721.2" y1="404" x2="725.2" y2="404" stroke="black" stroke-width="1" /><text x="727.2" y="408" font-size="12" text-anchor="start">0.2</text><line x1="721.2" y1="314" x2="725.2" y2="314" stroke="black" stroke-width="1" /><text x="727.2" y="318" font-size="12" text-anchor="start">0.4</text><line x1="721.2" y1="224" x2="725.2" y2="224" stroke="black" stroke-width="1" /><text x="727.2" y="228" font-size="12" text-anchor="start">0.6</text><line x1="721.2" y1="134" x2="725.2" y2="134" stroke="black" stroke-width="1" /><text x="727.2" y="138" font-size="12" text-anchor="start">0.8</text></svg>