<svg xmlns="http://www.w3.org/2000/svg" width="771.2" height="545" font-family="DejaVu Sans, Liberation Sans, Arial, sans-serif" fill="black"><rect width="100%" height="100%" fill="white" /><line x1="72.19999999999999" y1="494" x2="672.2" y2="494" stroke="black" stroke-width="1" /><line x1="72.19999999999999" y1="44" x2="72.19999999999999" y2="494" stroke="black" stroke-width="1" /><line x1="192.2" y1="44" x2="192.2" y2="494" stroke="#ccc" stroke-width="1" /><line x1="312.2" y1="44" x2="312.2" y2="494" stroke="#ccc" stroke-width="1" /><line x1="432.2" y1="44" x2="432.2" y2="494" stroke="#ccc" stroke-width="1" /><line x1="552.2" y1="44" x2="552.2" y2="494" stroke="#ccc" stroke-width="1" /><line x1="672.2" y1="44" x2="672.2" y2="494" stroke="#ccc" stroke-width="1" /><line x1="72.19999999999999" y1="404" x2="672.2" y2="404" stroke="#ccc" stroke-width="1" /><line x1="72.19999999999999" y1="314" x2="672.2" y2="314" stroke="#ccc" stroke-width="1" /><line x1="72.19999999999999" y1="224" x2="672.2" y2="224" stroke="#ccc" stroke-width="1" /><line x1="72.19999999999999" y1="134" x2="672.2" y2="134" stroke="#ccc" stroke-width="1" /><line x1="72.19999999999999" y1="44" x2="672.2" y2="44" stroke="#ccc" stroke-width="1" /><line x1="72.19999999999999" y1="494" x2="72.19999999999999" y2="499" stroke="black" stroke-width="1" /><text x="72.19999999999999" y="511" font-size="12" text-anchor="middle">0</text><line x1="192.2" y1="494" x2="192.2" y2="499" stroke="black" stroke-width="1" /><text x="192.2" y="511" font-size="12" text-anchor="middle">1</text><line x1="312.2" y1="494" x2="312.2" y2="499" stroke="black" stroke-width="1" /><text x="312.2" y="511" font-size="12" text-anchor="middle">2</text><line x1="432.2" y1="494" x2="432.2" y2="499" stroke="black" stroke-width="1" /><text x="432.2" y="511" font-size="12" text-anchor="middle">3</text><line x1="552.2" y1="494" x2="552.2" y2="499" stroke="black" stroke-width="1" /><text x="552.2" y="511" font-size="12" text-anchor="middle">4</text><line x1="672.2" y1="494" x2="672.2" y2="499" stroke="black" stroke-width="1" /><text x="672.2" y="511" font-size="12" text-anchor="middle">5</text><line x1="67.19999999999999" y1="494" x2="72.19999999999999" y2="494" stroke="black" stroke-width="1" /><text x="64.19999999999999" y="498.2" font-size="12" text-anchor="end">0</text><line x1="67.19999999999999" y1="404" x2="72.19999999999999" y2="404" stroke="black" stroke-width="1" /><text x="64.19999999999999" y="408.2" font-size="12" text-anchor="end">1</text><line x1="67.19999999999999" y1="314" x2="72.19999999999999" y2="314" stroke="black" stroke-width="1" /><text x="64.19999999999999" y="318.2" font-size="12" text-anchor="end">2</text><line x1="67.19999999999999" y1="224" x2="72.19999999999999" y2="224" stroke="black" stroke-width="1" /><text x="64.19999999999999" y="228.2" font-size="12" text-anchor="end">3</text><line x1="67.19999999999999" y1="134" x2="72.19999999999999" y2="134" stroke="black" stroke-width="1" /><text x="64.19999999999999" y="138.2" font-size="12" text-anchor="end">4</text><line x1="67.19999999999999" y1="44" x2="72.19999999999999" y2="44" stroke="black" stroke-width="1" /><text x="64.19999999999999" y="48.2" font-size="12" text-anchor="end">5</text><text x="385.6" y="22" font-size="18" text-anchor="middle">Inferno</text><rect x="132.2" y="359" width="118.8" height="89.1" fill="rgb(0,0,4)" /><rect x="252.2" y="359" width="118.8" height="89.1" fill="rgb(32,12,73)" /><rect x="372.2" y="359" width="118.8" height="89.1" fill="rgb(86,15,109)" /><rect x="492.2" y="359" width="118.80000000000005" height="89.1" fill="rgb(137,34,105)" /><rect x="132.2" y="269" width="118.8" height="89.1" fill="rgb(187,54,84)" /><rect x="252.2" y="269" width="118.8" height="89.1" fill="rgb(227,89,50)" /><rect x="372.2" y="269" width="118.8" height="89.1" fill="rgb(249,140,9)" /><rect x="492.2" y="269" width="118.80000000000005" height="89.1" fill="rgb(248,201,50)" /><rect x="132.2" y="179" width="118.8" height="89.1" fill="rgb(252,255,164)" /><rect x="252.2" y="179" width="118.8" height="89.1" fill="rgb(251,170,15)" /><rect x="372.2" y="179" width="118.8" height="89.1" fill="rgb(208,69,68)" /><rect x="492.2" y="179" width="118.80000000000005" height="89.1" fill="rgb(112,25,110)" /><rect x="132.2" y="89" width="118.8" height="89.1" fill="rgb(10,7,35)" /><rect x="252.2" y="89" width="118.8" height="89.1" fill="rgb(137,34,105)" /><rect x="372.2" y="89" width="118.8" height="89.1" fill="rgb(240,113,30)" /><rect x="492.2" y="89" width="118.80000000000005" height="89.1" fill="rgb(241,232,101)" /><rect x="701.2" y="89" width="20" height="7.7" fill="rgb(252,255,164)" /><rect x="701.2" y="96.2" width="20" height="7.7" fill="rgb(244,248,145)" /><rect x="701.2" y="103.4" width="20" height="7.7" fill="rgb(241,241,123)" /><rect x="701.2" y="110.6" width="20" height="7.7" fill="rgb(241,232,102)" /><rect x="701.2" y="117.8" width="20" height="7.7" fill="rgb(243,223,83)" /><rect x="701.2" y="125" width="20" height="7.7" fill="rgb(246,212,66)" /><rect x="701.2" y="132.2" width="20" height="7.7" fill="rgb(248,202,52)" /><rect x="701.2" y="139.4" width="20" height="7.7" fill="rgb(250,193,39)" /><rect x="701.2" y="146.6" width="20" height="7.7" fill="rgb(251,182,27)" /><rect x="701.2" y="153.8" width="20" height="7.7" fill="rgb(252,172,17)" /><rect x="701.2" y="161" width="20" height="7.7" fill="rgb(252,162,8)" /><rect x="701.2" y="168.2" width="20" height="7.7" fill="rgb(251,152,6)" /><rect x="701.2" y="175.4" width="20" height="7.7" fill="rgb(249,143,8)" /><rect x="701.2" y="182.60000000000002" width="20" height="7.7" fill="rgb(247,133,14)" /><rect x="701.2" y="189.8" width="20" height="7.7" fill="rgb(245,125,20)" /><rect x="701.2" y="197" width="20" height="7.7" fill="rgb(241,116,28)" /><rect x="701.2" y="204.2" width="20" height="7.7" fill="rgb(238,107,35)" /><rect x="701.2" y="211.4" width="20" height="7.7" fill="rgb(234,99,41)" /><rect x="701.2" y="218.6" width="20" height="7.7" fill="rgb(229,92,47)" /><rect x="701.2" y="225.8" width="20" height="7.7" fill="rgb(224,85,53)" /><rect x="701.2" y="233" width="20" height="7.7" fill="rgb(217,78,60)" /><rect x="701.2" y="240.20000000000002" width="20" height="7.7" fill="rgb(211,71,66)" /><rect x="701.2" y="247.4" width="20" height="7.7" fill="rgb(205,66,71)" /><rect x="701.2" y="254.6" width="20" height="7.7" fill="rgb(198,61,76)" /><rect x="701.2" y="261.8" width="20" height="7.7" fill="rgb(190,57,81)" /><rect x="701.2" y="269" width="20" height="7.7" fill="rgb(183,52,87)" /><rect x="701.2" y="276.20000000000005" width="20" height="7.7" fill="rgb(175,48,91)" /><rect x="701.2" y="283.4" width="20" height="7.7" fill="rgb(166,45,95)" /><rect x="701.2" y="290.6" width="20" height="7.7" fill="rgb(159,41,99)" /><rect x="701.2" y="297.8" width="20" height="7.7" fill="rgb(150,38,102)" /><rect x="701.2" y="305" width="20" height="7.7" fill="rgb(142,35,104)" /><rect x="701.2" y="312.20000000000005" width="20" height="7.7" fill="rgb(134,33,106)" /><rect x="701.2" y="319.4" width="20" height="7.7" fill="rgb(125,29,108)" /><rect x="701.2" y="326.6" width="20" height="7.7" fill="rgb(117,27,109)" /><rect x="701.2" y="333.8" width="20" height="7.7" fill="rgb(109,24,110)" /><rect x="701.2" y="341" width="20" height="7.7" fill="rgb(100,21,110)" /><rect x="701.2" y="348.2" width="20" height="7.7" fill="rgb(92,18,109)" /><rect x="701.2" y="355.40000000000003" width="20" height="7.7" fill="rgb(84,14,109)" /><rect x="701.2" y="362.6" width="20" height="7.7" fill="rgb(76,12,107)" /><rect x="701.2" y="369.8" width="20" height="7.7" fill="rgb(67,10,104)" /><rect x="701.2" y="377" width="20" height="7.7" fill="rgb(58,9,99)" /><rect x="701.2" y="384.2" width="20" height="7.7" fill="rgb(49,10,93)" /><rect x="701.2" y="391.40000000000003" width="20" height="7.7" fill="rgb(40,11,83)" /><rect x="701.2" y="398.6" width="20" height="7.7" fill="rgb(31,12,72)" /><rect x="701.2" y="405.8" width="20" height="7.7" fill="rgb(23,11,59)" /><rect x="701.2" y="413" width="20" height="7.7" fill="rgb(16,9,47)" /><rect x="701.2" y="420.2" width="20" height="7.7" fill="rgb(10,7,35)" /><rect x="701.2" y="427.40000000000003" width="20" height="7.7" fill="rgb(5,3,23)" /><rect x="701.2" y="434.6" width="20" height="7.7" fill="rgb(2,1,12)" /><rect x="701.2" y="441.8" width="20" height="7.7" fill="rgb(0,0,4)" /><rect x="701.2" y="89" width="20" height="360" fill="none" stroke="black" stroke-width="1" /><line x1="721.2" y1="404" x2="725.2" y2="404" stroke="black" stroke-width="1" /><text x="727.2" y="408" font-size="12" text-anchor="start">20.0</text><line x1="721.2" y1="314" x2="725.2" y2="314" stroke="black" stroke-width="1" /><text x="727.2" y="318" font-size="12" text-anchor="start">40.0</text><line x1="721.2" y1="224" x2="725.2" y2="224" stroke="black" stroke-width="1" /><text x="727.2" y="228" font-size="12" text-anchor="start">60.0</text><line x1="721.2" y1="134" x2="725.2" y2="134" stroke="black" stroke-width="1" /><text x="727.2" y="138" font-size="12" text-anchor="start">80.0</text></svg>