<svg xmlns="http://www.w3.org/2000/svg" width="771.2" height="545" font-family="DejaVu Sans, Liberation Sans, Arial, sans-serif" fill="black"><rect width="100%" height="100%" fill="white" /><line x1="72.19999999999999" y1="494" x2="672.2" y2="494" stroke="black" stroke-width="1" /><line x1="72.19999999999999" y1="44" x2="72.19999999999999" y2="494" stroke="black" stroke-width="1" /><line x1="192.2" y1="44" x2="192.2" y2="494" stroke="#ccc" stroke-width="1" /><line x1="312.2" y1="44" x2="312.2" y2="494" stroke="#ccc" stroke-width="1" /><line x1="432.2" y1="44" x2="432.2" y2="494" stroke="#ccc" stroke-width="1" /><line x1="552.2" y1="44" x2="552.2" y2="494" stroke="#ccc" stroke-width="1" /><line x1="672.2" y1="44" x2="672.2" y2="494" stroke="#ccc" stroke-width="1" /><line x1="72.19999999999999" y1="404" x2="672.2" y2="404" stroke="#ccc" stroke-width="1" /><line x1="72.19999999999999" y1="314" x2="672.2" y2="314" stroke="#ccc" stroke-width="1" /><line x1="72.19999999999999" y1="224" x2="672.2" y2="224" stroke="#ccc" stroke-width="1" /><line x1="72.19999999999999" y1="134" x2="672.2" y2="134" stroke="#ccc" stroke-width="1" /><line x1="72.19999999999999" y1="44" x2="672.2" y2="44" stroke="#ccc" stroke-width="1" /><line x1="72.19999999999999" y1="494" x2="72.19999999999999" y2="499" stroke="black" stroke-width="1" /><text x="72.19999999999999" y="511" font-size="12" text-anchor="middle">0</text><line x1="192.2" y1="494" x2="192.2" y2="499" stroke="black" stroke-width="1" /><text x="192.2" y="511" font-size="12" text-anchor="middle">1</text><line x1="312.2" y1="494" x2="312.2" y2="499" stroke="black" stroke-width="1" /><text x="312.2" y="511" font-size="12" text-anchor="middle">2</text><line x1="432.2" y1="494" x2="432.2" y2="499" stroke="black" stroke-width="1" /><text x="432.2" y="511" font-size="12" text-anchor="middle">3</text><line x1="552.2" y1="494" x2="552.2" y2="499" stroke="black" stroke-width="1" /><text x="552.2" y="511" font-size="12" text-anchor="middle">4</text><line x1="672.2" y1="494" x2="672.2" y2="499" stroke="black" stroke-width="1" /><text x="672.2" y="511" font-size="12" text-anchor="middle">5</text><line x1="67.19999999999999" y1="494" x2="72.19999999999999" y2="494" stroke="black" stroke-width="1" /><text x="64.19999999999999" y="498.2" font-size="12" text-anchor="end">0</text><line x1="67.19999999999999" y1="404" x2="72.19999999999999" y2="404" stroke="black" stroke-width="1" /><text x="64.19999999999999" y="408.2" font-size="12" text-anchor="end">1</text><line x1="67.19999999999999" y1="314" x2="72.19999999999999" y2="314" stroke="black" stroke-width="1" /><text x="64.19999999999999" y="318.2" font-size="12" text-anchor="end">2</text><line x1="67.19999999999999" y1="224" x2="72.19999999999999" y2="224" stroke="black" stroke-width="1" /><text x="64.19999999999999" y="228.2" font-size="12" text-anchor="end">3</text><line x1="67.19999999999999" y1="134" x2="72.19999999999999" y2="134" stroke="black" stroke-width="1" /><text x="64.19999999999999" y="138.2" font-size="12" text-anchor="end">4</text><line x1="67.19999999999999" y1="44" x2="72.19999999999999" y2="44" stroke="black" stroke-width="1" /><text x="64.19999999999999" y="48.2" font-size="12" text-anchor="end">5</text><text x="385.6" y="22" font-size="18" text-anchor="middle">Greyscale</text><rect x="132.2" y="359" width="118.8" height="89.1" fill="rgb(255,255,255)" /><rect x="252.2" y="359" width="118.8" height="89.1" fill="rgb(238,238,238)" /><rect x="372.2" y="359" width="118.8" height="89.1" fill="rgb(216,216,216)" /><rect x="492.2" y="359" width="118.80000000000005" height="89.1" fill="rgb(187,187,187)" /><rect x="132.2" y="269" width="118.8" height="89.1" fill="rgb(150,150,150)" /><rect x="252.2" y="269" width="118.8" height="89.1" fill="rgb(115,115,115)" /><rect x="372.2" y="269" width="118.8" height="89.1" fill="rgb(80,80,80)" /><rect x="492.2" y="269" width="118.80000000000005" height="89.1" fill="rgb(38,38,38)" /><rect x="132.2" y="179" width="118.8" height="89.1" fill="rgb(0,0,0)" /><rect x="252.2" y="179" width="118.8" height="89.1" fill="rgb(59,59,59)" /><rect x="372.2" y="179" width="118.8" height="89.1" fill="rgb(132,132,132)" /><rect x="492.2" y="179" width="118.80000000000005" height="89.1" fill="rgb(202,202,202)" /><rect x="132.2" y="89" width="118.8" height="89.1" fill="rgb(247,247,247)" /><rect x="252.2" y="89" width="118.8" height="89.1" fill="rgb(187,187,187)" /><rect x="372.2" y="89" width="118.8" height="89.1" fill="rgb(98,98,98)" /><rect x="492.2" y="89" width="118.80000000000005" height="89.1" fill="rgb(18,18,18)" /><rect x="701.2" y="89" width="20" height="7.7" fill="rgb(0,0,0)" /><rect x="701.2" y="96.2" width="20" height="7.7" fill="rgb(6,6,6)" /><rect x="701.2" y="103.4" width="20" height="7.7" fill="rgb(12,12,12)" /><rect x="701.2" y="110.6" width="20" height="7.7" fill="rgb(18,18,18)" /><rect x="701.2" y="117.8" width="20" height="7.7" fill="rgb(24,24,24)" /><rect x="701.2" y="125" width="20" height="7.7" fill="rgb(30,30,30)" /><rect x="701.2" y="132.2" width="20" height="7.7" fill="rgb(37,37,37)" /><rect x="701.2" y="139.4" width="20" height="7.7" fill="rgb(44,44,44)" /><rect x="701.2" y="146.6" width="20" height="7.7" fill="rgb(51,51,51)" /><rect x="701.2" y="153.8" width="20" height="7.7" fill="rgb(58,58,58)" /><rect x="701.2" y="161" width="20" height="7.7" fill="rgb(65,65,65)" /><rect x="701.2" y="168.2" width="20" height="7.7" fill="rgb(71,71,71)" /><rect x="701.2" y="175.4" width="20" height="7.7" fill="rgb(78,78,78)" /><rect x="701.2" y="182.60000000000002" width="20" height="7.7" fill="rgb(84,84,84)" /><rect x="701.2" y="189.8" width="20" height="7.7" fill="rgb(90,90,90)" /><rect x="701.2" y="197" width="20" height="7.7" fill="rgb(96,96,96)" /><rect x="701.2" y="204.2" width="20" height="7.7" fill="rgb(102,102,102)" /><rect x="701.2" y="211.4" width="20" height="7.7" fill="rgb(107,107,107)" /><rect x="701.2" y="218.6" width="20" height="7.7" fill="rgb(113,113,113)" /><rect x="701.2" y="225.8" width="20" height="7.7" fill="rgb(118,118,118)" /><rect x="701.2" y="233" width="20" height="7.7" fill="rgb(124,124,124)" /><rect x="701.2" y="240.20000000000002" width="20" height="7.7" fill="rgb(130,130,130)" /><rect x="701.2" y="247.4" width="20" height="7.7" fill="rgb(135,135,135)" /><rect x="701.2" y="254.6" width="20" height="7.7" fill="rgb(141,141,141)" /><rect x="701.2" y="261.8" width="20" height="7.7" fill="rgb(147,147,147)" /><rect x="701.2" y="269" width="20" height="7.7" fill="rgb(153,153,153)" /><rect x="701.2" y="276.20000000000005" width="20" height="7.7" fill="rgb(159,159,159)" /><rect x="701.2" y="283.4" width="20" height="7.7" fill="rgb(165,165,165)" /><rect x="701.2" y="290.6" width="20" height="7.7" fill="rgb(171,171,171)" /><rect x="701.2" y="297.8" width="20" height="7.7" fill="rgb(177,177,177)" /><rect x="701.2" y="305" width="20" height="7.7" fill="rgb(183,183,183)" /><rect x="701.2" y="312.20000000000005" width="20" height="7.7" fill="rgb(189,189,189)" /><rect x="701.2" y="319.4" width="20" height="7.7" fill="rgb(194,194,194)" /><rect x="701.2" y="326.6" width="20" height="7.7" fill="rgb(199,199,199)" /><rect x="701.2" y="333.8" width="20" height="7.7" fill="rgb(204,204,204)" /><rect x="701.2" y="341" width="20" height="7.7" fill="rgb(208,208,208)" /><rect x="701.2" y="348.2" width="20" height="7.7" fill="rgb(213,213,213)" /><rect x="701.2" y="355.40000000000003" width="20" height="7.7" fill="rgb(217,217,217)" /><rect x="701.2" y="362.6" width="20" height="7.7" fill="rgb(221,221,221)" /><rect x="701.2" y="369.8" width="20" height="7.7" fill="rgb(225,225,225)" /><rect x="701.2" y="377" width="20" height="7.7" fill="rgb(228,228,228)" /><rect x="701.2" y="384.2" width="20" height="7.7" fill="rgb(232,232,232)" /><rect x="701.2" y="391.40000000000003" width="20" height="7.7" fill="rgb(235,235,235)" /><rect x="701.2" y="398.6" width="20" height="7.7" fill="rgb(239,239,239)" /><rect x="701.2" y="405.8" width="20" height="7.7" fill="rgb(242,242,242)" /><rect x="701.2" y="413" width="20" height="7.7" fill="rgb(244,244,244)" /><rect x="701.2" y="420.2" width="20" height="7.7" fill="rgb(247,247,247)" /><rect x="701.2" y="427.40000000000003" width="20" height="7.7" fill="rgb(250,250,250)" /><rect x="701.2" y="434.6" width="20" height="7.7" fill="rgb(252,252,252)" /><rect x="701.2" y="441.8" width="20" height="7.7" fill="rgb(255,255,255)" /><rect x="701.2" y="89" width="20" height="360" fill="none" stroke="black" stroke-width="1" /><line x1="721.2" y1="404" x2="725.2" y2="404" stroke="black" stroke-width="1" /><text x="727.2" y="408" font-size="12" text-anchor="start">20.0</text><line x1="721.2" y1="314" x2="725.2" y2="314" stroke="black" stroke-width="1" /><text x="727.2" y="318" font-size="12" text-anchor="start">40.0</text><line x1="721.2" y1="224" x2="725.2" y2="224" stroke="black" stroke-width="1" /><text x="727.2" y="228" font-size="12" text-anchor="start">60.0</text><line x1="721.2" y1="134" x2="725.2" y2="134" stroke="black" stroke-width="1" /><text x="727.2" y="138" font-size="12" text-anchor="start">80.0</text></svg>