<svg xmlns="http://www.w3.org/2000/svg" width="764" height="545" font-family="DejaVu Sans, Liberation Sans, Arial, sans-serif" fill="black"><rect width="100%" height="100%" fill="white" /><line x1="65" y1="494" x2="665" y2="494" stroke="black" stroke-width="1" /><line x1="65" y1="44" x2="65" y2="494" stroke="black" stroke-width="1" /><text x="55" y="408.2" font-size="12" text-anchor="end">GeneA</text><line x1="60" y1="404" x2="65" y2="404" stroke="black" stroke-width="1" /><text x="55" y="318.2" font-size="12" text-anchor="end">GeneB</text><line x1="60" y1="314" x2="65" y2="314" stroke="black" stroke-width="1" /><text x="55" y="228.2" font-size="12" text-anchor="end">GeneC</text><line x1="60" y1="224" x2="65" y2="224" stroke="black" stroke-width="1" /><text x="55" y="138.2" font-size="12" text-anchor="end">GeneD</text><line x1="60" y1="134" x2="65" y2="134" stroke="black" stroke-width="1" /><text x="165" y="511" font-size="12" text-anchor="middle">Ctrl</text><line x1="165" y1="494" x2="165" y2="499" stroke="black" stroke-width="1" /><text x="265" y="511" font-size="12" text-anchor="middle">T1</text><line x1="265" y1="494" x2="265" y2="499" stroke="black" stroke-width="1" /><text x="365" y="511" font-size="12" text-anchor="middle">T2</text><line x1="365" y1="494" x2="365" y2="499" stroke="black" stroke-width="1" /><text x="465" y="511" font-size="12" text-anchor="middle">T3</text><line x1="465" y1="494" x2="465" y2="499" stroke="black" stroke-width="1" /><text x="565" y="511" font-size="12" text-anchor="middle">T4</text><line x1="565" y1="494" x2="565" y2="499" stroke="black" stroke-width="1" /><text x="382" y="22" font-size="18" text-anchor="middle">Gene Expression Heatmap</text><rect x="115" y="359" width="99" height="89.1" fill="rgb(31,147,139)" /><rect x="215" y="359" width="99" height="89.1" fill="rgb(70,11,94)" /><rect x="315" y="359" width="99" height="89.1" fill="rgb(139,213,69)" /><rect x="415" y="359" width="99" height="89.1" fill="rgb(61,76,137)" /><rect x="515" y="359" width="99" height="89.1" fill="rgb(74,193,108)" /><rect x="115" y="269" width="99" height="89.1" fill="rgb(67,58,131)" /><rect x="215" y="269" width="99" height="89.1" fill="rgb(197,223,32)" /><rect x="315" y="269" width="99" height="89.1" fill="rgb(68,1,84)" /><rect x="415" y="269" width="99" height="89.1" fill="rgb(60,187,116)" /><rect x="515" y="269" width="99" height="89.1" fill="rgb(57,83,139)" /><rect x="115" y="179" width="99" height="89.1" fill="rgb(38,127,141)" /><rect x="215" y="179" width="99" height="89.1" fill="rgb(88,199,100)" /><rect x="315" y="179" width="99" height="89.1" fill="rgb(47,106,142)" /><rect x="415" y="179" width="99" height="89.1" fill="rgb(72,31,112)" /><rect x="515" y="179" width="99" height="89.1" fill="rgb(121,209,81)" /><rect x="115" y="89" width="99" height="89.1" fill="rgb(158,217,57)" /><rect x="215" y="89" width="99" height="89.1" fill="rgb(61,76,137)" /><rect x="315" y="89" width="99" height="89.1" fill="rgb(33,140,141)" /><rect x="415" y="89" width="99" height="89.1" fill="rgb(253,231,37)" /><rect x="515" y="89" width="99" height="89.1" fill="rgb(71,22,104)" /><rect x="694" y="89" width="20" height="7.7" fill="rgb(253,231,37)" /><rect x="694" y="96.2" width="20" height="7.7" fill="rgb(240,229,28)" /><rect x="694" y="103.4" width="20" height="7.7" fill="rgb(227,227,24)" /><rect x="694" y="110.6" width="20" height="7.7" fill="rgb(214,226,25)" /><rect x="694" y="117.8" width="20" height="7.7" fill="rgb(200,224,31)" /><rect x="694" y="125" width="20" height="7.7" fill="rgb(186,222,39)" /><rect x="694" y="132.2" width="20" height="7.7" fill="rgb(172,220,48)" /><rect x="694" y="139.4" width="20" height="7.7" fill="rgb(158,217,57)" /><rect x="694" y="146.6" width="20" height="7.7" fill="rgb(145,214,66)" /><rect x="694" y="153.8" width="20" height="7.7" fill="rgb(132,212,74)" /><rect x="694" y="161" width="20" height="7.7" fill="rgb(119,208,82)" /><rect x="694" y="168.2" width="20" height="7.7" fill="rgb(107,205,90)" /><rect x="694" y="175.4" width="20" height="7.7" fill="rgb(95,201,96)" /><rect x="694" y="182.60000000000002" width="20" height="7.7" fill="rgb(84,197,103)" /><rect x="694" y="189.8" width="20" height="7.7" fill="rgb(74,193,108)" /><rect x="694" y="197" width="20" height="7.7" fill="rgb(64,188,114)" /><rect x="694" y="204.2" width="20" height="7.7" fill="rgb(55,184,119)" /><rect x="694" y="211.4" width="20" height="7.7" fill="rgb(48,180,123)" /><rect x="694" y="218.6" width="20" height="7.7" fill="rgb(41,175,127)" /><rect x="694" y="225.8" width="20" height="7.7" fill="rgb(36,171,130)" /><rect x="694" y="233" width="20" height="7.7" fill="rgb(33,165,133)" /><rect x="694" y="240.20000000000002" width="20" height="7.7" fill="rgb(31,161,135)" /><rect x="694" y="247.4" width="20" height="7.7" fill="rgb(30,156,137)" /><rect x="694" y="254.6" width="20" height="7.7" fill="rgb(31,151,138)" /><rect x="694" y="261.8" width="20" height="7.7" fill="rgb(31,146,140)" /><rect x="694" y="269" width="20" height="7.7" fill="rgb(33,141,141)" /><rect x="694" y="276.20000000000005" width="20" height="7.7" fill="rgb(35,136,141)" /><rect x="694" y="283.4" width="20" height="7.7" fill="rgb(37,131,142)" /><rect x="694" y="290.6" width="20" height="7.7" fill="rgb(38,127,141)" /><rect x="694" y="297.8" width="20" height="7.7" fill="rgb(40,122,142)" /><rect x="694" y="305" width="20" height="7.7" fill="rgb(42,116,141)" /><rect x="694" y="312.20000000000005" width="20" height="7.7" fill="rgb(44,112,142)" /><rect x="694" y="319.4" width="20" height="7.7" fill="rgb(47,107,142)" /><rect x="694" y="326.6" width="20" height="7.7" fill="rgb(49,102,142)" /><rect x="694" y="333.8" width="20" height="7.7" fill="rgb(51,97,140)" /><rect x="694" y="341" width="20" height="7.7" fill="rgb(54,91,140)" /><rect x="694" y="348.2" width="20" height="7.7" fill="rgb(56,85,140)" /><rect x="694" y="355.40000000000003" width="20" height="7.7" fill="rgb(59,80,138)" /><rect x="694" y="362.6" width="20" height="7.7" fill="rgb(61,74,137)" /><rect x="694" y="369.8" width="20" height="7.7" fill="rgb(64,69,135)" /><rect x="694" y="377" width="20" height="7.7" fill="rgb(66,62,133)" /><rect x="694" y="384.2" width="20" height="7.7" fill="rgb(68,56,130)" /><rect x="694" y="391.40000000000003" width="20" height="7.7" fill="rgb(70,50,126)" /><rect x="694" y="398.6" width="20" height="7.7" fill="rgb(71,44,122)" /><rect x="694" y="405.8" width="20" height="7.7" fill="rgb(72,37,118)" /><rect x="694" y="413" width="20" height="7.7" fill="rgb(71,30,111)" /><rect x="694" y="420.2" width="20" height="7.7" fill="rgb(72,23,105)" /><rect x="694" y="427.40000000000003" width="20" height="7.7" fill="rgb(71,16,99)" /><rect x="694" y="434.6" width="20" height="7.7" fill="rgb(70,8,92)" /><rect x="694" y="441.8" width="20" height="7.7" fill="rgb(68,1,84)" /><rect x="694" y="89" width="20" height="360" fill="none" stroke="black" stroke-width="1" /><line x1="714" y1="428.42857142857144" x2="718" y2="428.42857142857144" stroke="black" stroke-width="1" /><text x="720" y="432.42857142857144" font-size="12" text-anchor="start">0.5</text><line x1="714" y1="377" x2="718" y2="377" stroke="black" stroke-width="1" /><text x="720" y="381" font-size="12" text-anchor="start">1.0</text><line x1="714" y1="325.57142857142856" x2="718" y2="325.57142857142856" stroke="black" stroke-width="1" /><text x="720" y="329.57142857142856" font-size="12" text-anchor="start">1.5</text><line x1="714" y1="274.1428571428571" x2="718" y2="274.1428571428571" stroke="black" stroke-width="1" /><text x="720" y="278.1428571428571" font-size="12" text-anchor="start">2.0</text><line x1="714" y1="222.71428571428567" x2="718" y2="222.71428571428567" stroke="black" stroke-width="1" /><text x="720" y="226.71428571428567" font-size="12" text-anchor="start">2.5</text><line x1="714" y1="171.28571428571428" x2="718" y2="171.28571428571428" stroke="black" stroke-width="1" /><text x="720" y="175.28571428571428" font-size="12" text-anchor="start">3.0</text><line x1="714" y1="119.85714285714283" x2="718" y2="119.85714285714283" stroke="black" stroke-width="1" /><text x="720" y="123.85714285714283" font-size="12" text-anchor="start">3.5</text></svg>