<svg xmlns="http://www.w3.org/2000/svg" width="520" height="400" font-family="DejaVu Sans, Liberation Sans, Arial, sans-serif" fill="black"><rect width="100%" height="100%" fill="white" /><defs><clipPath id="kuva-clip-1"><rect x="59" y="44" width="331.5" height="305"/></clipPath></defs><line x1="125.3" y1="44" x2="125.3" y2="349" stroke="#cccccc" stroke-width="1" /><line x1="191.6" y1="44" x2="191.6" y2="349" stroke="#cccccc" stroke-width="1" /><line x1="257.9" y1="44" x2="257.9" y2="349" stroke="#cccccc" stroke-width="1" /><line x1="324.2" y1="44" x2="324.2" y2="349" stroke="#cccccc" stroke-width="1" /><line x1="390.5" y1="44" x2="390.5" y2="349" stroke="#cccccc" stroke-width="1" /><line x1="59" y1="285.46" x2="390.5" y2="285.46" stroke="#cccccc" stroke-width="1" /><line x1="59" y1="221.92000000000002" x2="390.5" y2="221.92000000000002" stroke="#cccccc" stroke-width="1" /><line x1="59" y1="158.38" x2="390.5" y2="158.38" stroke="#cccccc" stroke-width="1" /><line x1="59" y1="94.83" x2="390.5" y2="94.83" stroke="#cccccc" stroke-width="1" /><line x1="59" y1="349" x2="390.5" y2="349" stroke="#000000" stroke-width="1" /><line x1="59" y1="44" x2="59" y2="349" stroke="#000000" stroke-width="1" /><line x1="59" y1="349" x2="59" y2="354" stroke="#000000" stroke-width="1" /><text x="59" y="366" font-size="12" text-anchor="middle">0</text><line x1="125.3" y1="349" x2="125.3" y2="354" stroke="#000000" stroke-width="1" /><text x="125.3" y="366" font-size="12" text-anchor="middle">10</text><line x1="191.6" y1="349" x2="191.6" y2="354" stroke="#000000" stroke-width="1" /><text x="191.6" y="366" font-size="12" text-anchor="middle">20</text><line x1="257.9" y1="349" x2="257.9" y2="354" stroke="#000000" stroke-width="1" /><text x="257.9" y="366" font-size="12" text-anchor="middle">30</text><line x1="324.2" y1="349" x2="324.2" y2="354" stroke="#000000" stroke-width="1" /><text x="324.2" y="366" font-size="12" text-anchor="middle">40</text><line x1="390.5" y1="349" x2="390.5" y2="354" stroke="#000000" stroke-width="1" /><text x="390.5" y="366" font-size="12" text-anchor="middle">50</text><line x1="54" y1="349" x2="59" y2="349" stroke="#000000" stroke-width="1" /><text x="51" y="353.2" font-size="12" text-anchor="end">0</text><line x1="54" y1="285.46" x2="59" y2="285.46" stroke="#000000" stroke-width="1" /><text x="51" y="289.66" font-size="12" text-anchor="end">0.25</text><line x1="54" y1="221.92000000000002" x2="59" y2="221.92000000000002" stroke="#000000" stroke-width="1" /><text x="51" y="226.12" font-size="12" text-anchor="end">0.5</text><line x1="54" y1="158.38" x2="59" y2="158.38" stroke="#000000" stroke-width="1" /><text x="51" y="162.58" font-size="12" text-anchor="end">0.75</text><line x1="54" y1="94.83" x2="59" y2="94.83" stroke="#000000" stroke-width="1" /><text x="51" y="99.03" font-size="12" text-anchor="end">1</text><text x="224.75" y="393" font-size="14" text-anchor="middle">Time (months)</text><text x="15" y="200" font-size="14" text-anchor="middle" transform="rotate(-90,15,200)">Probability of survival</text><text x="224.75" y="22" font-size="18" text-anchor="middle">Overall Survival by Treatment Arm</text><g clip-path="url(#kuva-clip-1)"><path d="M 59,94.83 L 65.63,94.83 L 65.63,94.83 L 72.26,94.83 L 72.26,94.83 L 78.89,94.83 L 78.89,94.83 L 92.15,94.83 L 92.15,101.22 L 105.41,101.22 L 105.41,110.60000000000001 L 125.3,110.60000000000001 L 125.3,121.34 L 151.82,121.34 L 151.82,133.67000000000002 L 158.45000000000002,133.67000000000002 L 158.45000000000002,147.29 L 178.34,147.29 L 178.34,163 L 218.12,163 L 218.12,183.44 L 244.64000000000001,183.44 L 244.64000000000001,213.41 L 350.72,213.41 L 350.72,349 L 244.64000000000001,349 L 244.64000000000001,314.68 L 218.12,314.68 L 218.12,285.15000000000003 L 178.34,285.15000000000003 L 178.34,265.17 L 158.45000000000002,265.17 L 158.45000000000002,247.07 L 151.82,247.07 L 151.82,227.67000000000002 L 125.3,227.67000000000002 L 125.3,209.33 L 105.41,209.33 L 105.41,191.71 L 92.15,191.71 L 92.15,172.73 L 78.89,172.73 L 78.89,153.67000000000002 L 72.26,153.67000000000002 L 72.26,131.82 L 65.63,131.82 L 65.63,94.83 L 59,94.83 Z" stroke="#1f77b4" stroke-width="0" fill="#1f77b4" fill-opacity="0.2" /><path d="M 59,94.83 H 65.63 V 94.83 V 107.54 H 72.26 V 107.54 V 120.25 H 78.89 V 120.25 V 132.96 H 92.15 V 132.96 V 146.46 H 105.41 V 146.46 V 159.96 H 125.3 V 159.96 V 174.5 H 151.82 V 174.5 V 190.37 H 158.45000000000002 V 190.37 V 206.23000000000002 H 178.34 V 206.23000000000002 V 224.08 H 218.12 V 224.08 V 249.06 H 244.64000000000001 V 249.06 V 282.37 H 350.72" stroke="#1f77b4" stroke-width="2" fill="none" /><line x1="85.52" y1="128.96" x2="85.52" y2="136.96" stroke="#1f77b4" stroke-width="2" /><line x1="112.04" y1="155.96" x2="112.04" y2="163.96" stroke="#1f77b4" stroke-width="2" /><line x1="138.56" y1="170.5" x2="138.56" y2="178.5" stroke="#1f77b4" stroke-width="2" /><line x1="165.08" y1="202.23000000000002" x2="165.08" y2="210.23000000000002" stroke="#1f77b4" stroke-width="2" /><line x1="191.6" y1="220.08" x2="191.6" y2="228.08" stroke="#1f77b4" stroke-width="2" /><line x1="204.86" y1="220.08" x2="204.86" y2="228.08" stroke="#1f77b4" stroke-width="2" /><line x1="231.38" y1="245.06" x2="231.38" y2="253.06" stroke="#1f77b4" stroke-width="2" /><line x1="257.9" y1="278.37" x2="257.9" y2="286.37" stroke="#1f77b4" stroke-width="2" /><line x1="271.16" y1="278.37" x2="271.16" y2="286.37" stroke="#1f77b4" stroke-width="2" /><path d="M 59,94.83 L 85.52,94.83 L 85.52,94.83 L 112.04,94.83 L 112.04,94.83 L 151.82,94.83 L 151.82,94.83 L 191.6,94.83 L 191.6,103.12 L 231.38,103.12 L 231.38,116.78 L 284.42,116.78 L 284.42,136.76 L 350.72,136.76 L 350.72,293.41 L 284.42,293.41 L 284.42,246.43 L 231.38,246.43 L 231.38,212.27 L 191.6,212.27 L 191.6,183.92000000000002 L 151.82,183.92000000000002 L 151.82,158.46 L 112.04,158.46 L 112.04,133.73 L 85.52,133.73 L 85.52,94.83 L 59,94.83 Z" stroke="#ff7f0e" stroke-width="0" fill="#ff7f0e" fill-opacity="0.2" /><path d="M 59,94.83 H 85.52 V 94.83 V 108.21000000000001 H 112.04 V 108.21000000000001 V 122.37 H 151.82 V 122.37 V 138.56 H 191.6 V 138.56 V 157.69 H 231.38 V 157.69 V 181.61 H 284.42 V 181.61 V 215.08 H 350.72" stroke="#ff7f0e" stroke-width="2" fill="none" /><line x1="72.26" y1="90.83" x2="72.26" y2="98.83" stroke="#ff7f0e" stroke-width="2" /><line x1="98.78" y1="104.21000000000001" x2="98.78" y2="112.21000000000001" stroke="#ff7f0e" stroke-width="2" /><line x1="125.3" y1="118.37" x2="125.3" y2="126.37" stroke="#ff7f0e" stroke-width="2" /><line x1="138.56" y1="118.37" x2="138.56" y2="126.37" stroke="#ff7f0e" stroke-width="2" /><line x1="165.08" y1="134.56" x2="165.08" y2="142.56" stroke="#ff7f0e" stroke-width="2" /><line x1="178.34" y1="134.56" x2="178.34" y2="142.56" stroke="#ff7f0e" stroke-width="2" /><line x1="204.86" y1="153.69" x2="204.86" y2="161.69" stroke="#ff7f0e" stroke-width="2" /><line x1="218.12" y1="153.69" x2="218.12" y2="161.69" stroke="#ff7f0e" stroke-width="2" /><line x1="244.64000000000001" y1="177.61" x2="244.64000000000001" y2="185.61" stroke="#ff7f0e" stroke-width="2" /><line x1="271.16" y1="177.61" x2="271.16" y2="185.61" stroke="#ff7f0e" stroke-width="2" /><line x1="297.68" y1="211.08" x2="297.68" y2="219.08" stroke="#ff7f0e" stroke-width="2" /><line x1="324.2" y1="211.08" x2="324.2" y2="219.08" stroke="#ff7f0e" stroke-width="2" /><line x1="337.46" y1="211.08" x2="337.46" y2="219.08" stroke="#ff7f0e" stroke-width="2" /><line x1="350.72" y1="211.08" x2="350.72" y2="219.08" stroke="#ff7f0e" stroke-width="2" /><text x="382.5" y="62" font-size="12" text-anchor="end">log-rank p = 0.038</text></g><rect x="395.5" y="34" width="111.5" height="56" fill="#ffffff" /><rect x="395.5" y="34" width="111.5" height="56" fill="none" stroke="#000000" stroke-width="1" /><text x="425.5" y="53.2" font-size="12" text-anchor="start">Control</text><line x1="405.5" y1="49" x2="417.5" y2="49" stroke="#1f77b4" stroke-width="2" /><text x="425.5" y="71.2" font-size="12" text-anchor="start">Treatment</text><line x1="405.5" y1="67" x2="417.5" y2="67" stroke="#ff7f0e" stroke-width="2" /></svg>