<svg xmlns="http://www.w3.org/2000/svg" width="754" height="545" font-family="DejaVu Sans, Liberation Sans, Arial, sans-serif" fill="black"><rect width="100%" height="100%" fill="white" /><line x1="65" y1="494" x2="665" y2="494" stroke="black" stroke-width="1" /><line x1="65" y1="44" x2="65" y2="494" stroke="black" stroke-width="1" /><text x="55" y="453.2" font-size="12" text-anchor="end">LYZ</text><line x1="60" y1="449" x2="65" y2="449" stroke="black" stroke-width="1" /><text x="55" y="408.2" font-size="12" text-anchor="end">CD14</text><line x1="60" y1="404" x2="65" y2="404" stroke="black" stroke-width="1" /><text x="55" y="363.2" font-size="12" text-anchor="end">MS4A1</text><line x1="60" y1="359" x2="65" y2="359" stroke="black" stroke-width="1" /><text x="55" y="318.2" font-size="12" text-anchor="end">GNLY</text><line x1="60" y1="314" x2="65" y2="314" stroke="black" stroke-width="1" /><text x="55" y="273.2" font-size="12" text-anchor="end">CD8A</text><line x1="60" y1="269" x2="65" y2="269" stroke="black" stroke-width="1" /><text x="55" y="228.2" font-size="12" text-anchor="end">CD4</text><line x1="60" y1="224" x2="65" y2="224" stroke="black" stroke-width="1" /><text x="55" y="183.2" font-size="12" text-anchor="end">CD3E</text><line x1="60" y1="179" x2="65" y2="179" stroke="black" stroke-width="1" /><text x="55" y="138.2" font-size="12" text-anchor="end">PTPRC</text><line x1="60" y1="134" x2="65" y2="134" stroke="black" stroke-width="1" /><text x="150.71428571428572" y="511" font-size="12" text-anchor="middle">CD4 T</text><line x1="150.71428571428572" y1="494" x2="150.71428571428572" y2="499" stroke="black" stroke-width="1" /><text x="236.42857142857142" y="511" font-size="12" text-anchor="middle">CD8 T</text><line x1="236.42857142857142" y1="494" x2="236.42857142857142" y2="499" stroke="black" stroke-width="1" /><text x="322.1428571428571" y="511" font-size="12" text-anchor="middle">NK</text><line x1="322.1428571428571" y1="494" x2="322.1428571428571" y2="499" stroke="black" stroke-width="1" /><text x="407.85714285714283" y="511" font-size="12" text-anchor="middle">B cell</text><line x1="407.85714285714283" y1="494" x2="407.85714285714283" y2="499" stroke="black" stroke-width="1" /><text x="493.57142857142856" y="511" font-size="12" text-anchor="middle">Mono</text><line x1="493.57142857142856" y1="494" x2="493.57142857142856" y2="499" stroke="black" stroke-width="1" /><text x="579.2857142857142" y="511" font-size="12" text-anchor="middle">DC</text><line x1="579.2857142857142" y1="494" x2="579.2857142857142" y2="499" stroke="black" stroke-width="1" /><text x="377" y="538" font-size="14" text-anchor="middle">Cell type</text><text x="14" y="272.5" font-size="14" text-anchor="middle" transform="rotate(-90,14,272.5)">Gene</text><text x="377" y="22" font-size="18" text-anchor="middle">Gene Expression Dot Plot</text><circle cx="150.71428571428572" cy="134" r="11.64516129032258" fill="rgb(193,223,35)" /><circle cx="236.42857142857142" cy="134" r="12" fill="rgb(224,227,24)" /><circle cx="322.1428571428571" cy="134" r="11.172043010752688" fill="rgb(162,218,54)" /><circle cx="407.85714285714283" cy="134" r="11.526881720430108" fill="rgb(178,221,44)" /><circle cx="493.57142857142856" cy="134" r="10.817204301075268" fill="rgb(133,212,73)" /><circle cx="579.2857142857142" cy="134" r="10.46236559139785" fill="rgb(105,204,90)" /><circle cx="150.71428571428572" cy="179" r="11.172043010752688" fill="rgb(147,215,64)" /><circle cx="236.42857142857142" cy="179" r="11.526881720430108" fill="rgb(178,221,44)" /><circle cx="322.1428571428571" cy="179" r="2.182795698924731" fill="rgb(72,33,115)" /><circle cx="407.85714285714283" cy="179" r="1.3548387096774195" fill="rgb(70,9,92)" /><circle cx="493.57142857142856" cy="179" r="1.118279569892473" fill="rgb(68,1,84)" /><circle cx="579.2857142857142" cy="179" r="1.2365591397849462" fill="rgb(70,9,92)" /><circle cx="150.71428571428572" cy="224" r="10.817204301075268" fill="rgb(105,204,90)" /><circle cx="236.42857142857142" cy="224" r="1.7096774193548387" fill="rgb(71,18,100)" /><circle cx="322.1428571428571" cy="224" r="1.2365591397849462" fill="rgb(70,9,92)" /><circle cx="407.85714285714283" cy="224" r="1.118279569892473" fill="rgb(68,1,84)" /><circle cx="493.57142857142856" cy="224" r="2.89247311827957" fill="rgb(68,55,129)" /><circle cx="579.2857142857142" cy="224" r="3.3655913978494625" fill="rgb(64,69,135)" /><circle cx="150.71428571428572" cy="269" r="1.3548387096774195" fill="rgb(70,9,92)" /><circle cx="236.42857142857142" cy="269" r="10.46236559139785" fill="rgb(92,200,98)" /><circle cx="322.1428571428571" cy="269" r="2.5376344086021505" fill="rgb(70,47,125)" /><circle cx="407.85714285714283" cy="269" r="1.118279569892473" fill="rgb(68,1,84)" /><circle cx="493.57142857142856" cy="269" r="1" fill="rgb(68,1,84)" /><circle cx="579.2857142857142" cy="269" r="1.2365591397849462" fill="rgb(70,9,92)" /><circle cx="150.71428571428572" cy="314" r="1.7096774193548387" fill="rgb(72,26,108)" /><circle cx="236.42857142857142" cy="314" r="5.731182795698925" fill="rgb(36,132,142)" /><circle cx="322.1428571428571" cy="314" r="11.172043010752688" fill="rgb(253,231,37)" /><circle cx="407.85714285714283" cy="314" r="1.118279569892473" fill="rgb(68,1,84)" /><circle cx="493.57142857142856" cy="314" r="1.3548387096774195" fill="rgb(70,9,92)" /><circle cx="579.2857142857142" cy="314" r="1.4731182795698925" fill="rgb(71,18,100)" /><circle cx="150.71428571428572" cy="359" r="1" fill="rgb(68,1,84)" /><circle cx="236.42857142857142" cy="359" r="1.118279569892473" fill="rgb(68,1,84)" /><circle cx="322.1428571428571" cy="359" r="1" fill="rgb(68,1,84)" /><circle cx="407.85714285714283" cy="359" r="11.408602150537636" fill="rgb(209,225,27)" /><circle cx="493.57142857142856" cy="359" r="1.3548387096774195" fill="rgb(70,9,92)" /><circle cx="579.2857142857142" cy="359" r="1.4731182795698925" fill="rgb(71,18,100)" /><circle cx="150.71428571428572" cy="404" r="1.118279569892473" fill="rgb(68,1,84)" /><circle cx="236.42857142857142" cy="404" r="1" fill="rgb(68,1,84)" /><circle cx="322.1428571428571" cy="404" r="1.2365591397849462" fill="rgb(70,9,92)" /><circle cx="407.85714285714283" cy="404" r="1.3548387096774195" fill="rgb(70,9,92)" /><circle cx="493.57142857142856" cy="404" r="10.817204301075268" fill="rgb(162,218,54)" /><circle cx="579.2857142857142" cy="404" r="3.720430107526882" fill="rgb(58,81,139)" /><circle cx="150.71428571428572" cy="449" r="1.3548387096774195" fill="rgb(70,9,92)" /><circle cx="236.42857142857142" cy="449" r="1.2365591397849462" fill="rgb(70,9,92)" /><circle cx="322.1428571428571" cy="449" r="1.7096774193548387" fill="rgb(72,26,108)" /><circle cx="407.85714285714283" cy="449" r="1.4731182795698925" fill="rgb(71,18,100)" /><circle cx="493.57142857142856" cy="449" r="11.64516129032258" fill="rgb(239,229,28)" /><circle cx="579.2857142857142" cy="449" r="9.989247311827958" fill="rgb(105,204,90)" /><rect x="670" y="60" width="75" height="92" fill="white" /><rect x="670" y="60" width="75" height="92" fill="none" stroke="black" stroke-width="1" /><text x="702.5" y="56" font-size="12" text-anchor="middle">% Expressing</text><text x="700" y="75" font-size="12" text-anchor="start">25.2</text><circle cx="686" cy="71" r="3" fill="#444444" /><text x="700" y="93" font-size="12" text-anchor="start">48.5</text><circle cx="686" cy="89" r="6" fill="#444444" /><text x="700" y="111" font-size="12" text-anchor="start">71.8</text><circle cx="686" cy="107" r="8" fill="#444444" /><text x="700" y="129" font-size="12" text-anchor="start">95.0</text><circle cx="686" cy="125" r="8" fill="#444444" /><text x="685" y="161" font-size="12" text-anchor="middle">Mean expression</text><rect x="675" y="167" width="20" height="6.74" fill="rgb(253,231,37)" /><rect x="675" y="173.24" width="20" height="6.74" fill="rgb(240,229,28)" /><rect x="675" y="179.48" width="20" height="6.74" fill="rgb(227,227,24)" /><rect x="675" y="185.72" width="20" height="6.74" fill="rgb(214,226,25)" /><rect x="675" y="191.96" width="20" height="6.74" fill="rgb(200,224,31)" /><rect x="675" y="198.2" width="20" height="6.74" fill="rgb(186,222,39)" /><rect x="675" y="204.44" width="20" height="6.74" fill="rgb(172,220,48)" /><rect x="675" y="210.68" width="20" height="6.74" fill="rgb(158,217,57)" /><rect x="675" y="216.92000000000002" width="20" height="6.74" fill="rgb(145,214,66)" /><rect x="675" y="223.16" width="20" height="6.74" fill="rgb(132,212,74)" /><rect x="675" y="229.4" width="20" height="6.74" fill="rgb(119,208,82)" /><rect x="675" y="235.64" width="20" height="6.74" fill="rgb(107,205,90)" /><rect x="675" y="241.88" width="20" height="6.74" fill="rgb(95,201,96)" /><rect x="675" y="248.12" width="20" height="6.74" fill="rgb(84,197,103)" /><rect x="675" y="254.36" width="20" height="6.74" fill="rgb(74,193,108)" /><rect x="675" y="260.6" width="20" height="6.74" fill="rgb(64,188,114)" /><rect x="675" y="266.84000000000003" width="20" height="6.74" fill="rgb(55,184,119)" /><rect x="675" y="273.08" width="20" height="6.74" fill="rgb(48,180,123)" /><rect x="675" y="279.32" width="20" height="6.74" fill="rgb(41,175,127)" /><rect x="675" y="285.56" width="20" height="6.74" fill="rgb(36,171,130)" /><rect x="675" y="291.8" width="20" height="6.74" fill="rgb(33,165,133)" /><rect x="675" y="298.03999999999996" width="20" height="6.74" fill="rgb(31,161,135)" /><rect x="675" y="304.28" width="20" height="6.74" fill="rgb(30,156,137)" /><rect x="675" y="310.52" width="20" height="6.74" fill="rgb(31,151,138)" /><rect x="675" y="316.76" width="20" height="6.74" fill="rgb(31,146,140)" /><rect x="675" y="323" width="20" height="6.74" fill="rgb(33,141,141)" /><rect x="675" y="329.24" width="20" height="6.74" fill="rgb(35,136,141)" /><rect x="675" y="335.48" width="20" height="6.74" fill="rgb(37,131,142)" /><rect x="675" y="341.72" width="20" height="6.74" fill="rgb(38,127,141)" /><rect x="675" y="347.96000000000004" width="20" height="6.74" fill="rgb(40,122,142)" /><rect x="675" y="354.20000000000005" width="20" height="6.74" fill="rgb(42,116,141)" /><rect x="675" y="360.44" width="20" height="6.74" fill="rgb(44,112,142)" /><rect x="675" y="366.68" width="20" height="6.74" fill="rgb(47,107,142)" /><rect x="675" y="372.92" width="20" height="6.74" fill="rgb(49,102,142)" /><rect x="675" y="379.15999999999997" width="20" height="6.74" fill="rgb(51,97,140)" /><rect x="675" y="385.4" width="20" height="6.74" fill="rgb(54,91,140)" /><rect x="675" y="391.64" width="20" height="6.74" fill="rgb(56,85,140)" /><rect x="675" y="397.88" width="20" height="6.74" fill="rgb(59,80,138)" /><rect x="675" y="404.12" width="20" height="6.74" fill="rgb(61,74,137)" /><rect x="675" y="410.36" width="20" height="6.74" fill="rgb(64,69,135)" /><rect x="675" y="416.6" width="20" height="6.74" fill="rgb(66,62,133)" /><rect x="675" y="422.84000000000003" width="20" height="6.74" fill="rgb(68,56,130)" /><rect x="675" y="429.08" width="20" height="6.74" fill="rgb(70,50,126)" /><rect x="675" y="435.32" width="20" height="6.74" fill="rgb(71,44,122)" /><rect x="675" y="441.56" width="20" height="6.74" fill="rgb(72,37,118)" /><rect x="675" y="447.8" width="20" height="6.74" fill="rgb(71,30,111)" /><rect x="675" y="454.04" width="20" height="6.74" fill="rgb(72,23,105)" /><rect x="675" y="460.28000000000003" width="20" height="6.74" fill="rgb(71,16,99)" /><rect x="675" y="466.52" width="20" height="6.74" fill="rgb(70,8,92)" /><rect x="675" y="472.76" width="20" height="6.74" fill="rgb(68,1,84)" /><rect x="675" y="167" width="20" height="312" fill="none" stroke="black" stroke-width="1" /><line x1="695" y1="415.1818181818182" x2="699" y2="415.1818181818182" stroke="black" stroke-width="1" /><text x="701" y="419.1818181818182" font-size="12" text-anchor="start">1.0</text><line x1="695" y1="344.27272727272725" x2="699" y2="344.27272727272725" stroke="black" stroke-width="1" /><text x="701" y="348.27272727272725" font-size="12" text-anchor="start">2.0</text><line x1="695" y1="273.3636363636364" x2="699" y2="273.3636363636364" stroke="black" stroke-width="1" /><text x="701" y="277.3636363636364" font-size="12" text-anchor="start">3.0</text><line x1="695" y1="202.4545454545455" x2="699" y2="202.4545454545455" stroke="black" stroke-width="1" /><text x="701" y="206.4545454545455" font-size="12" text-anchor="start">4.0</text></svg>