<svg xmlns="http://www.w3.org/2000/svg" width="764" height="545" font-family="DejaVu Sans, Liberation Sans, Arial, sans-serif" fill="black"><rect width="100%" height="100%" fill="white" /><line x1="65" y1="494" x2="665" y2="494" stroke="black" stroke-width="1" /><line x1="65" y1="44" x2="65" y2="494" stroke="black" stroke-width="1" /><text x="55" y="408.2" font-size="12" text-anchor="end">CD14</text><line x1="60" y1="404" x2="65" y2="404" stroke="black" stroke-width="1" /><text x="55" y="318.2" font-size="12" text-anchor="end">CD8A</text><line x1="60" y1="314" x2="65" y2="314" stroke="black" stroke-width="1" /><text x="55" y="228.2" font-size="12" text-anchor="end">CD4</text><line x1="60" y1="224" x2="65" y2="224" stroke="black" stroke-width="1" /><text x="55" y="138.2" font-size="12" text-anchor="end">CD3E</text><line x1="60" y1="134" x2="65" y2="134" stroke="black" stroke-width="1" /><text x="185" y="511" font-size="12" text-anchor="middle">CD4 T</text><line x1="185" y1="494" x2="185" y2="499" stroke="black" stroke-width="1" /><text x="305" y="511" font-size="12" text-anchor="middle">CD8 T</text><line x1="305" y1="494" x2="305" y2="499" stroke="black" stroke-width="1" /><text x="425" y="511" font-size="12" text-anchor="middle">NK</text><line x1="425" y1="494" x2="425" y2="499" stroke="black" stroke-width="1" /><text x="545" y="511" font-size="12" text-anchor="middle">Mono</text><line x1="545" y1="494" x2="545" y2="499" stroke="black" stroke-width="1" /><text x="382" y="538" font-size="14" text-anchor="middle">Cell type</text><text x="14" y="272.5" font-size="14" text-anchor="middle" transform="rotate(-90,14,272.5)">Gene</text><text x="382" y="22" font-size="18" text-anchor="middle">Colorbar Only</text><circle cx="185" cy="134" r="1" fill="rgb(220,226,24)" /><circle cx="305" cy="134" r="1" fill="rgb(253,231,37)" /><circle cx="425" cy="134" r="1" fill="rgb(72,37,118)" /><circle cx="545" cy="134" r="1" fill="rgb(68,1,84)" /><circle cx="185" cy="224" r="1" fill="rgb(168,219,51)" /><circle cx="305" cy="224" r="1" fill="rgb(71,20,102)" /><circle cx="425" cy="224" r="1" fill="rgb(70,10,93)" /><circle cx="545" cy="224" r="1" fill="rgb(66,61,132)" /><circle cx="185" cy="314" r="1" fill="rgb(70,10,93)" /><circle cx="305" cy="314" r="1" fill="rgb(151,216,62)" /><circle cx="425" cy="314" r="1" fill="rgb(69,53,128)" /><circle cx="545" cy="314" r="1" fill="rgb(68,1,84)" /><circle cx="185" cy="404" r="1" fill="rgb(68,1,84)" /><circle cx="305" cy="404" r="1" fill="rgb(68,1,84)" /><circle cx="425" cy="404" r="1" fill="rgb(70,10,93)" /><circle cx="545" cy="404" r="1" fill="rgb(237,229,27)" /><rect x="694" y="89" width="20" height="7.7" fill="rgb(253,231,37)" /><rect x="694" y="96.2" width="20" height="7.7" fill="rgb(240,229,28)" /><rect x="694" y="103.4" width="20" height="7.7" fill="rgb(227,227,24)" /><rect x="694" y="110.6" width="20" height="7.7" fill="rgb(214,226,25)" /><rect x="694" y="117.8" width="20" height="7.7" fill="rgb(200,224,31)" /><rect x="694" y="125" width="20" height="7.7" fill="rgb(186,222,39)" /><rect x="694" y="132.2" width="20" height="7.7" fill="rgb(172,220,48)" /><rect x="694" y="139.4" width="20" height="7.7" fill="rgb(158,217,57)" /><rect x="694" y="146.6" width="20" height="7.7" fill="rgb(145,214,66)" /><rect x="694" y="153.8" width="20" height="7.7" fill="rgb(132,212,74)" /><rect x="694" y="161" width="20" height="7.7" fill="rgb(119,208,82)" /><rect x="694" y="168.2" width="20" height="7.7" fill="rgb(107,205,90)" /><rect x="694" y="175.4" width="20" height="7.7" fill="rgb(95,201,96)" /><rect x="694" y="182.60000000000002" width="20" height="7.7" fill="rgb(84,197,103)" /><rect x="694" y="189.8" width="20" height="7.7" fill="rgb(74,193,108)" /><rect x="694" y="197" width="20" height="7.7" fill="rgb(64,188,114)" /><rect x="694" y="204.2" width="20" height="7.7" fill="rgb(55,184,119)" /><rect x="694" y="211.4" width="20" height="7.7" fill="rgb(48,180,123)" /><rect x="694" y="218.6" width="20" height="7.7" fill="rgb(41,175,127)" /><rect x="694" y="225.8" width="20" height="7.7" fill="rgb(36,171,130)" /><rect x="694" y="233" width="20" height="7.7" fill="rgb(33,165,133)" /><rect x="694" y="240.20000000000002" width="20" height="7.7" fill="rgb(31,161,135)" /><rect x="694" y="247.4" width="20" height="7.7" fill="rgb(30,156,137)" /><rect x="694" y="254.6" width="20" height="7.7" fill="rgb(31,151,138)" /><rect x="694" y="261.8" width="20" height="7.7" fill="rgb(31,146,140)" /><rect x="694" y="269" width="20" height="7.7" fill="rgb(33,141,141)" /><rect x="694" y="276.20000000000005" width="20" height="7.7" fill="rgb(35,136,141)" /><rect x="694" y="283.4" width="20" height="7.7" fill="rgb(37,131,142)" /><rect x="694" y="290.6" width="20" height="7.7" fill="rgb(38,127,141)" /><rect x="694" y="297.8" width="20" height="7.7" fill="rgb(40,122,142)" /><rect x="694" y="305" width="20" height="7.7" fill="rgb(42,116,141)" /><rect x="694" y="312.20000000000005" width="20" height="7.7" fill="rgb(44,112,142)" /><rect x="694" y="319.4" width="20" height="7.7" fill="rgb(47,107,142)" /><rect x="694" y="326.6" width="20" height="7.7" fill="rgb(49,102,142)" /><rect x="694" y="333.8" width="20" height="7.7" fill="rgb(51,97,140)" /><rect x="694" y="341" width="20" height="7.7" fill="rgb(54,91,140)" /><rect x="694" y="348.2" width="20" height="7.7" fill="rgb(56,85,140)" /><rect x="694" y="355.40000000000003" width="20" height="7.7" fill="rgb(59,80,138)" /><rect x="694" y="362.6" width="20" height="7.7" fill="rgb(61,74,137)" /><rect x="694" y="369.8" width="20" height="7.7" fill="rgb(64,69,135)" /><rect x="694" y="377" width="20" height="7.7" fill="rgb(66,62,133)" /><rect x="694" y="384.2" width="20" height="7.7" fill="rgb(68,56,130)" /><rect x="694" y="391.40000000000003" width="20" height="7.7" fill="rgb(70,50,126)" /><rect x="694" y="398.6" width="20" height="7.7" fill="rgb(71,44,122)" /><rect x="694" y="405.8" width="20" height="7.7" fill="rgb(72,37,118)" /><rect x="694" y="413" width="20" height="7.7" fill="rgb(71,30,111)" /><rect x="694" y="420.2" width="20" height="7.7" fill="rgb(72,23,105)" /><rect x="694" y="427.40000000000003" width="20" height="7.7" fill="rgb(71,16,99)" /><rect x="694" y="434.6" width="20" height="7.7" fill="rgb(70,8,92)" /><rect x="694" y="441.8" width="20" height="7.7" fill="rgb(68,1,84)" /><rect x="694" y="89" width="20" height="360" fill="none" stroke="black" stroke-width="1" /><line x1="714" y1="365.9230769230769" x2="718" y2="365.9230769230769" stroke="black" stroke-width="1" /><text x="720" y="369.9230769230769" font-size="12" text-anchor="start">1.0</text><line x1="714" y1="273.61538461538464" x2="718" y2="273.61538461538464" stroke="black" stroke-width="1" /><text x="720" y="277.61538461538464" font-size="12" text-anchor="start">2.0</text><line x1="714" y1="181.30769230769232" x2="718" y2="181.30769230769232" stroke="black" stroke-width="1" /><text x="720" y="185.30769230769232" font-size="12" text-anchor="start">3.0</text><line x1="714" y1="89" x2="718" y2="89" stroke="black" stroke-width="1" /><text x="720" y="93" font-size="12" text-anchor="start">4.0</text><text x="704" y="83" font-size="12" text-anchor="middle">Mean expression</text></svg>