<svg xmlns="http://www.w3.org/2000/svg" width="754" height="545" font-family="DejaVu Sans, Liberation Sans, Arial, sans-serif" fill="black"><rect width="100%" height="100%" fill="white" /><line x1="65" y1="494" x2="665" y2="494" stroke="black" stroke-width="1" /><line x1="65" y1="44" x2="65" y2="494" stroke="black" stroke-width="1" /><text x="55" y="433.9142857142857" font-size="12" text-anchor="end">Gene6</text><line x1="60" y1="429.7142857142857" x2="65" y2="429.7142857142857" stroke="black" stroke-width="1" /><text x="55" y="369.62857142857143" font-size="12" text-anchor="end">Gene5</text><line x1="60" y1="365.42857142857144" x2="65" y2="365.42857142857144" stroke="black" stroke-width="1" /><text x="55" y="305.34285714285716" font-size="12" text-anchor="end">Gene4</text><line x1="60" y1="301.14285714285717" x2="65" y2="301.14285714285717" stroke="black" stroke-width="1" /><text x="55" y="241.05714285714288" font-size="12" text-anchor="end">Gene3</text><line x1="60" y1="236.8571428571429" x2="65" y2="236.8571428571429" stroke="black" stroke-width="1" /><text x="55" y="176.77142857142854" font-size="12" text-anchor="end">Gene2</text><line x1="60" y1="172.57142857142856" x2="65" y2="172.57142857142856" stroke="black" stroke-width="1" /><text x="55" y="112.48571428571434" font-size="12" text-anchor="end">Gene1</text><line x1="60" y1="108.28571428571433" x2="65" y2="108.28571428571433" stroke="black" stroke-width="1" /><text x="165" y="511" font-size="12" text-anchor="middle">TypeA</text><line x1="165" y1="494" x2="165" y2="499" stroke="black" stroke-width="1" /><text x="265" y="511" font-size="12" text-anchor="middle">TypeB</text><line x1="265" y1="494" x2="265" y2="499" stroke="black" stroke-width="1" /><text x="365" y="511" font-size="12" text-anchor="middle">TypeC</text><line x1="365" y1="494" x2="365" y2="499" stroke="black" stroke-width="1" /><text x="465" y="511" font-size="12" text-anchor="middle">TypeD</text><line x1="465" y1="494" x2="465" y2="499" stroke="black" stroke-width="1" /><text x="565" y="511" font-size="12" text-anchor="middle">TypeE</text><line x1="565" y1="494" x2="565" y2="499" stroke="black" stroke-width="1" /><text x="377" y="538" font-size="14" text-anchor="middle">Cell type</text><text x="14" y="272.5" font-size="14" text-anchor="middle" transform="rotate(-90,14,272.5)">Gene</text><text x="377" y="22" font-size="18" text-anchor="middle">Matrix Input</text><circle cx="165" cy="108.28571428571433" r="10.058823529411764" fill="rgb(115,207,85)" /><circle cx="265" cy="108.28571428571433" r="2.9411764705882355" fill="rgb(66,62,133)" /><circle cx="365" cy="108.28571428571433" r="7.470588235294118" fill="rgb(35,169,131)" /><circle cx="465" cy="108.28571428571433" r="5.529411764705882" fill="rgb(42,118,141)" /><circle cx="565" cy="108.28571428571433" r="8.764705882352942" fill="rgb(59,187,116)" /><circle cx="165" cy="172.57142857142856" r="1.6470588235294117" fill="rgb(72,29,111)" /><circle cx="265" cy="172.57142857142856" r="11.352941176470589" fill="rgb(219,226,24)" /><circle cx="365" cy="172.57142857142856" r="4.235294117647059" fill="rgb(57,85,140)" /><circle cx="465" cy="172.57142857142856" r="8.764705882352942" fill="rgb(72,192,109)" /><circle cx="565" cy="172.57142857142856" r="2.2941176470588234" fill="rgb(72,37,118)" /><circle cx="165" cy="236.8571428571429" r="6.823529411764706" fill="rgb(32,144,140)" /><circle cx="265" cy="236.8571428571429" r="4.882352941176471" fill="rgb(47,106,142)" /><circle cx="365" cy="236.8571428571429" r="10.705882352941176" fill="rgb(166,218,53)" /><circle cx="465" cy="236.8571428571429" r="2.2941176470588234" fill="rgb(72,37,118)" /><circle cx="565" cy="236.8571428571429" r="8.117647058823529" fill="rgb(31,162,134)" /><circle cx="165" cy="301.14285714285717" r="3.588235294117647" fill="rgb(63,70,136)" /><circle cx="265" cy="301.14285714285717" r="8.117647058823529" fill="rgb(41,175,127)" /><circle cx="365" cy="301.14285714285717" r="1" fill="rgb(68,1,84)" /><circle cx="465" cy="301.14285714285717" r="12" fill="rgb(253,231,37)" /><circle cx="565" cy="301.14285714285717" r="4.882352941176471" fill="rgb(53,92,141)" /><circle cx="165" cy="365.42857142857144" r="8.764705882352942" fill="rgb(59,187,116)" /><circle cx="265" cy="365.42857142857144" r="6.176470588235294" fill="rgb(37,131,142)" /><circle cx="365" cy="365.42857142857144" r="9.411764705882351" fill="rgb(85,197,102)" /><circle cx="465" cy="365.42857142857144" r="3.588235294117647" fill="rgb(60,78,138)" /><circle cx="565" cy="365.42857142857144" r="11.094117647058823" fill="rgb(201,224,31)" /><circle cx="165" cy="429.7142857142857" r="5.529411764705882" fill="rgb(42,118,141)" /><circle cx="265" cy="429.7142857142857" r="9.8" fill="rgb(131,212,74)" /><circle cx="365" cy="429.7142857142857" r="6.823529411764706" fill="rgb(39,125,142)" /><circle cx="465" cy="429.7142857142857" r="7.470588235294118" fill="rgb(35,169,131)" /><circle cx="565" cy="429.7142857142857" r="4.235294117647059" fill="rgb(47,106,142)" /><rect x="670" y="60" width="75" height="92" fill="white" /><rect x="670" y="60" width="75" height="92" fill="none" stroke="black" stroke-width="1" /><text x="702.5" y="56" font-size="12" text-anchor="middle">% Expressing</text><text x="700" y="75" font-size="12" text-anchor="start">31.2</text><circle cx="686" cy="71" r="3" fill="#444444" /><text x="700" y="93" font-size="12" text-anchor="start">52.5</text><circle cx="686" cy="89" r="6" fill="#444444" /><text x="700" y="111" font-size="12" text-anchor="start">73.8</text><circle cx="686" cy="107" r="8" fill="#444444" /><text x="700" y="129" font-size="12" text-anchor="start">95.0</text><circle cx="686" cy="125" r="8" fill="#444444" /><text x="685" y="161" font-size="12" text-anchor="middle">Mean expression</text><rect x="675" y="167" width="20" height="6.74" fill="rgb(253,231,37)" /><rect x="675" y="173.24" width="20" height="6.74" fill="rgb(240,229,28)" /><rect x="675" y="179.48" width="20" height="6.74" fill="rgb(227,227,24)" /><rect x="675" y="185.72" width="20" height="6.74" fill="rgb(214,226,25)" /><rect x="675" y="191.96" width="20" height="6.74" fill="rgb(200,224,31)" /><rect x="675" y="198.2" width="20" height="6.74" fill="rgb(186,222,39)" /><rect x="675" y="204.44" width="20" height="6.74" fill="rgb(172,220,48)" /><rect x="675" y="210.68" width="20" height="6.74" fill="rgb(158,217,57)" /><rect x="675" y="216.92000000000002" width="20" height="6.74" fill="rgb(145,214,66)" /><rect x="675" y="223.16" width="20" height="6.74" fill="rgb(132,212,74)" /><rect x="675" y="229.4" width="20" height="6.74" fill="rgb(119,208,82)" /><rect x="675" y="235.64" width="20" height="6.74" fill="rgb(107,205,90)" /><rect x="675" y="241.88" width="20" height="6.74" fill="rgb(95,201,96)" /><rect x="675" y="248.12" width="20" height="6.74" fill="rgb(84,197,103)" /><rect x="675" y="254.36" width="20" height="6.74" fill="rgb(74,193,108)" /><rect x="675" y="260.6" width="20" height="6.74" fill="rgb(64,188,114)" /><rect x="675" y="266.84000000000003" width="20" height="6.74" fill="rgb(55,184,119)" /><rect x="675" y="273.08" width="20" height="6.74" fill="rgb(48,180,123)" /><rect x="675" y="279.32" width="20" height="6.74" fill="rgb(41,175,127)" /><rect x="675" y="285.56" width="20" height="6.74" fill="rgb(36,171,130)" /><rect x="675" y="291.8" width="20" height="6.74" fill="rgb(33,165,133)" /><rect x="675" y="298.03999999999996" width="20" height="6.74" fill="rgb(31,161,135)" /><rect x="675" y="304.28" width="20" height="6.74" fill="rgb(30,156,137)" /><rect x="675" y="310.52" width="20" height="6.74" fill="rgb(31,151,138)" /><rect x="675" y="316.76" width="20" height="6.74" fill="rgb(31,146,140)" /><rect x="675" y="323" width="20" height="6.74" fill="rgb(33,141,141)" /><rect x="675" y="329.24" width="20" height="6.74" fill="rgb(35,136,141)" /><rect x="675" y="335.48" width="20" height="6.74" fill="rgb(37,131,142)" /><rect x="675" y="341.72" width="20" height="6.74" fill="rgb(38,127,141)" /><rect x="675" y="347.96000000000004" width="20" height="6.74" fill="rgb(40,122,142)" /><rect x="675" y="354.20000000000005" width="20" height="6.74" fill="rgb(42,116,141)" /><rect x="675" y="360.44" width="20" height="6.74" fill="rgb(44,112,142)" /><rect x="675" y="366.68" width="20" height="6.74" fill="rgb(47,107,142)" /><rect x="675" y="372.92" width="20" height="6.74" fill="rgb(49,102,142)" /><rect x="675" y="379.15999999999997" width="20" height="6.74" fill="rgb(51,97,140)" /><rect x="675" y="385.4" width="20" height="6.74" fill="rgb(54,91,140)" /><rect x="675" y="391.64" width="20" height="6.74" fill="rgb(56,85,140)" /><rect x="675" y="397.88" width="20" height="6.74" fill="rgb(59,80,138)" /><rect x="675" y="404.12" width="20" height="6.74" fill="rgb(61,74,137)" /><rect x="675" y="410.36" width="20" height="6.74" fill="rgb(64,69,135)" /><rect x="675" y="416.6" width="20" height="6.74" fill="rgb(66,62,133)" /><rect x="675" y="422.84000000000003" width="20" height="6.74" fill="rgb(68,56,130)" /><rect x="675" y="429.08" width="20" height="6.74" fill="rgb(70,50,126)" /><rect x="675" y="435.32" width="20" height="6.74" fill="rgb(71,44,122)" /><rect x="675" y="441.56" width="20" height="6.74" fill="rgb(72,37,118)" /><rect x="675" y="447.8" width="20" height="6.74" fill="rgb(71,30,111)" /><rect x="675" y="454.04" width="20" height="6.74" fill="rgb(72,23,105)" /><rect x="675" y="460.28000000000003" width="20" height="6.74" fill="rgb(71,16,99)" /><rect x="675" y="466.52" width="20" height="6.74" fill="rgb(70,8,92)" /><rect x="675" y="472.76" width="20" height="6.74" fill="rgb(68,1,84)" /><rect x="675" y="167" width="20" height="312" fill="none" stroke="black" stroke-width="1" /><line x1="695" y1="437.94736842105266" x2="699" y2="437.94736842105266" stroke="black" stroke-width="1" /><text x="701" y="441.94736842105266" font-size="12" text-anchor="start">1.0</text><line x1="695" y1="355.8421052631579" x2="699" y2="355.8421052631579" stroke="black" stroke-width="1" /><text x="701" y="359.8421052631579" font-size="12" text-anchor="start">2.0</text><line x1="695" y1="273.7368421052631" x2="699" y2="273.7368421052631" stroke="black" stroke-width="1" /><text x="701" y="277.7368421052631" font-size="12" text-anchor="start">3.0</text><line x1="695" y1="191.63157894736838" x2="699" y2="191.63157894736838" stroke="black" stroke-width="1" /><text x="701" y="195.63157894736838" font-size="12" text-anchor="start">4.0</text></svg>