<svg xmlns="http://www.w3.org/2000/svg" width="759" height="545" font-family="DejaVu Sans, Liberation Sans, Arial, sans-serif" fill="black"><rect width="100%" height="100%" fill="white" /><line x1="65" y1="494" x2="665" y2="494" stroke="black" stroke-width="1" /><line x1="65" y1="44" x2="65" y2="494" stroke="black" stroke-width="1" /><text x="55" y="408.2" font-size="12" text-anchor="end">CD14</text><line x1="60" y1="404" x2="65" y2="404" stroke="black" stroke-width="1" /><text x="55" y="318.2" font-size="12" text-anchor="end">CD8A</text><line x1="60" y1="314" x2="65" y2="314" stroke="black" stroke-width="1" /><text x="55" y="228.2" font-size="12" text-anchor="end">CD4</text><line x1="60" y1="224" x2="65" y2="224" stroke="black" stroke-width="1" /><text x="55" y="138.2" font-size="12" text-anchor="end">CD3E</text><line x1="60" y1="134" x2="65" y2="134" stroke="black" stroke-width="1" /><text x="185" y="511" font-size="12" text-anchor="middle">CD4 T</text><line x1="185" y1="494" x2="185" y2="499" stroke="black" stroke-width="1" /><text x="305" y="511" font-size="12" text-anchor="middle">CD8 T</text><line x1="305" y1="494" x2="305" y2="499" stroke="black" stroke-width="1" /><text x="425" y="511" font-size="12" text-anchor="middle">NK</text><line x1="425" y1="494" x2="425" y2="499" stroke="black" stroke-width="1" /><text x="545" y="511" font-size="12" text-anchor="middle">Mono</text><line x1="545" y1="494" x2="545" y2="499" stroke="black" stroke-width="1" /><text x="379.5" y="538" font-size="14" text-anchor="middle">Cell type</text><text x="14" y="272.5" font-size="14" text-anchor="middle" transform="rotate(-90,14,272.5)">Gene</text><text x="379.5" y="22" font-size="18" text-anchor="middle">Size Legend Only</text><circle cx="185" cy="134" r="11.629213483146067" fill="rgb(68,1,84)" /><circle cx="305" cy="134" r="12" fill="rgb(68,1,84)" /><circle cx="425" cy="134" r="2.235955056179775" fill="rgb(68,1,84)" /><circle cx="545" cy="134" r="1.1235955056179776" fill="rgb(68,1,84)" /><circle cx="185" cy="224" r="11.258426966292134" fill="rgb(68,1,84)" /><circle cx="305" cy="224" r="1.7415730337078652" fill="rgb(68,1,84)" /><circle cx="425" cy="224" r="1.247191011235955" fill="rgb(68,1,84)" /><circle cx="545" cy="224" r="2.9775280898876404" fill="rgb(68,1,84)" /><circle cx="185" cy="314" r="1.3707865168539326" fill="rgb(68,1,84)" /><circle cx="305" cy="314" r="10.887640449438202" fill="rgb(68,1,84)" /><circle cx="425" cy="314" r="2.606741573033708" fill="rgb(68,1,84)" /><circle cx="545" cy="314" r="1" fill="rgb(68,1,84)" /><circle cx="185" cy="404" r="1.1235955056179776" fill="rgb(68,1,84)" /><circle cx="305" cy="404" r="1" fill="rgb(68,1,84)" /><circle cx="425" cy="404" r="1.247191011235955" fill="rgb(68,1,84)" /><circle cx="545" cy="404" r="11.258426966292134" fill="rgb(68,1,84)" /><rect x="670" y="34" width="80" height="92" fill="white" /><rect x="670" y="34" width="80" height="92" fill="none" stroke="black" stroke-width="1" /><text x="700" y="49" font-size="12" text-anchor="start">24.2</text><circle cx="686" cy="45" r="3" fill="#444444" /><text x="700" y="67" font-size="12" text-anchor="start">46.5</text><circle cx="686" cy="63" r="6" fill="#444444" /><text x="700" y="85" font-size="12" text-anchor="start">68.8</text><circle cx="686" cy="81" r="8" fill="#444444" /><text x="700" y="103" font-size="12" text-anchor="start">91.0</text><circle cx="686" cy="99" r="8" fill="#444444" /></svg>