<svg xmlns="http://www.w3.org/2000/svg" width="766.2" height="545" font-family="DejaVu Sans, Liberation Sans, Arial, sans-serif" fill="black"><rect width="100%" height="100%" fill="white" /><line x1="72.19999999999999" y1="494" x2="672.2" y2="494" stroke="black" stroke-width="1" /><line x1="72.19999999999999" y1="44" x2="72.19999999999999" y2="494" stroke="black" stroke-width="1" /><line x1="192.2" y1="44" x2="192.2" y2="494" stroke="#ccc" stroke-width="1" /><line x1="312.2" y1="44" x2="312.2" y2="494" stroke="#ccc" stroke-width="1" /><line x1="432.2" y1="44" x2="432.2" y2="494" stroke="#ccc" stroke-width="1" /><line x1="552.2" y1="44" x2="552.2" y2="494" stroke="#ccc" stroke-width="1" /><line x1="672.2" y1="44" x2="672.2" y2="494" stroke="#ccc" stroke-width="1" /><line x1="72.19999999999999" y1="381.5" x2="672.2" y2="381.5" stroke="#ccc" stroke-width="1" /><line x1="72.19999999999999" y1="269" x2="672.2" y2="269" stroke="#ccc" stroke-width="1" /><line x1="72.19999999999999" y1="156.5" x2="672.2" y2="156.5" stroke="#ccc" stroke-width="1" /><line x1="72.19999999999999" y1="44" x2="672.2" y2="44" stroke="#ccc" stroke-width="1" /><line x1="72.19999999999999" y1="494" x2="72.19999999999999" y2="499" stroke="black" stroke-width="1" /><text x="72.19999999999999" y="511" font-size="12" text-anchor="middle">0</text><line x1="192.2" y1="494" x2="192.2" y2="499" stroke="black" stroke-width="1" /><text x="192.2" y="511" font-size="12" text-anchor="middle">2.5</text><line x1="312.2" y1="494" x2="312.2" y2="499" stroke="black" stroke-width="1" /><text x="312.2" y="511" font-size="12" text-anchor="middle">5</text><line x1="432.2" y1="494" x2="432.2" y2="499" stroke="black" stroke-width="1" /><text x="432.2" y="511" font-size="12" text-anchor="middle">7.5</text><line x1="552.2" y1="494" x2="552.2" y2="499" stroke="black" stroke-width="1" /><text x="552.2" y="511" font-size="12" text-anchor="middle">10</text><line x1="672.2" y1="494" x2="672.2" y2="499" stroke="black" stroke-width="1" /><text x="672.2" y="511" font-size="12" text-anchor="middle">12.5</text><line x1="67.19999999999999" y1="494" x2="72.19999999999999" y2="494" stroke="black" stroke-width="1" /><text x="64.19999999999999" y="498.2" font-size="12" text-anchor="end">0</text><line x1="67.19999999999999" y1="381.5" x2="72.19999999999999" y2="381.5" stroke="black" stroke-width="1" /><text x="64.19999999999999" y="385.7" font-size="12" text-anchor="end">200</text><line x1="67.19999999999999" y1="269" x2="72.19999999999999" y2="269" stroke="black" stroke-width="1" /><text x="64.19999999999999" y="273.2" font-size="12" text-anchor="end">400</text><line x1="67.19999999999999" y1="156.5" x2="72.19999999999999" y2="156.5" stroke="black" stroke-width="1" /><text x="64.19999999999999" y="160.7" font-size="12" text-anchor="end">600</text><line x1="67.19999999999999" y1="44" x2="72.19999999999999" y2="44" stroke="black" stroke-width="1" /><text x="64.19999999999999" y="48.2" font-size="12" text-anchor="end">800</text><text x="383.1" y="538" font-size="14" text-anchor="middle">Month</text><text x="14" y="272.5" font-size="14" text-anchor="middle" transform="rotate(-90,14,272.5)">Variant count</text><text x="383.1" y="22" font-size="18" text-anchor="middle">Without Stroke Lines</text><path d="M 120.19999999999999 257.75 L 168.2 243.6875 L 216.2 270.125 L 264.2 207.125 L 312.2 219.5 L 360.2 212.1875 L 408.20000000000005 231.3125 L 456.2 199.8125 L 504.2 215.5625 L 552.2 190.25 L 600.2 202.625 L 648.2 181.8125 L 648.2 494 L 600.2 494 L 552.2 494 L 504.2 494 L 456.2 494 L 408.20000000000005 494 L 360.2 494 L 312.2 494 L 264.2 494 L 216.2 494 L 168.2 494 L 120.19999999999999 494 Z" stroke="none" stroke-width="0" fill="steelblue" fill-opacity="0.7" /><path d="M 120.19999999999999 204.3125 L 168.2 186.3125 L 216.2 220.625 L 264.2 142.4375 L 312.2 158.75 L 360.2 149.1875 L 408.20000000000005 176.1875 L 456.2 129.5 L 504.2 149.1875 L 552.2 117.125 L 600.2 134 L 648.2 103.0625 L 648.2 181.8125 L 600.2 202.625 L 552.2 190.25 L 504.2 215.5625 L 456.2 199.8125 L 408.20000000000005 231.3125 L 360.2 212.1875 L 312.2 219.5 L 264.2 207.125 L 216.2 270.125 L 168.2 243.6875 L 120.19999999999999 257.75 Z" stroke="none" stroke-width="0" fill="orange" fill-opacity="0.7" /><path d="M 120.19999999999999 191.9375 L 168.2 172.25 L 216.2 209.375 L 264.2 126.6875 L 312.2 144.125 L 360.2 134 L 408.20000000000005 162.6875 L 456.2 112.0625 L 504.2 133.4375 L 552.2 98.5625 L 600.2 117.125 L 648.2 83.375 L 648.2 103.0625 L 600.2 134 L 552.2 117.125 L 504.2 149.1875 L 456.2 129.5 L 408.20000000000005 176.1875 L 360.2 149.1875 L 312.2 158.75 L 264.2 142.4375 L 216.2 220.625 L 168.2 186.3125 L 120.19999999999999 204.3125 Z" stroke="none" stroke-width="0" fill="mediumseagreen" fill-opacity="0.7" /><path d="M 120.19999999999999 183.5 L 168.2 162.6875 L 216.2 201.5 L 264.2 116 L 312.2 134 L 360.2 123.875 L 408.20000000000005 153.6875 L 456.2 100.25 L 504.2 122.75 L 552.2 85.625 L 600.2 105.3125 L 648.2 69.875 L 648.2 83.375 L 600.2 117.125 L 552.2 98.5625 L 504.2 133.4375 L 456.2 112.0625 L 408.20000000000005 162.6875 L 360.2 134 L 312.2 144.125 L 264.2 126.6875 L 216.2 209.375 L 168.2 172.25 L 120.19999999999999 191.9375 Z" stroke="none" stroke-width="0" fill="tomato" fill-opacity="0.7" /><rect x="677.2" y="34" width="80" height="92" fill="white" /><rect x="677.2" y="34" width="80" height="92" fill="none" stroke="black" stroke-width="1" /><text x="707.2" y="49" font-size="12" text-anchor="start">SNVs</text><rect x="687.2" y="43" width="12" height="12" fill="steelblue" /><text x="707.2" y="67" font-size="12" text-anchor="start">Indels</text><rect x="687.2" y="61" width="12" height="12" fill="orange" /><text x="707.2" y="85" font-size="12" text-anchor="start">SVs</text><rect x="687.2" y="79" width="12" height="12" fill="mediumseagreen" /><text x="707.2" y="103" font-size="12" text-anchor="start">CNVs</text><rect x="687.2" y="97" width="12" height="12" fill="tomato" /></svg>