<svg xmlns="http://www.w3.org/2000/svg" width="766.2" height="545" font-family="DejaVu Sans, Liberation Sans, Arial, sans-serif" fill="black"><rect width="100%" height="100%" fill="white" /><line x1="72.19999999999999" y1="494" x2="672.2" y2="494" stroke="black" stroke-width="1" /><line x1="72.19999999999999" y1="44" x2="72.19999999999999" y2="494" stroke="black" stroke-width="1" /><line x1="192.2" y1="44" x2="192.2" y2="494" stroke="#ccc" stroke-width="1" /><line x1="312.2" y1="44" x2="312.2" y2="494" stroke="#ccc" stroke-width="1" /><line x1="432.2" y1="44" x2="432.2" y2="494" stroke="#ccc" stroke-width="1" /><line x1="552.2" y1="44" x2="552.2" y2="494" stroke="#ccc" stroke-width="1" /><line x1="672.2" y1="44" x2="672.2" y2="494" stroke="#ccc" stroke-width="1" /><line x1="72.19999999999999" y1="400.25" x2="672.2" y2="400.25" stroke="#ccc" stroke-width="1" /><line x1="72.19999999999999" y1="306.5" x2="672.2" y2="306.5" stroke="#ccc" stroke-width="1" /><line x1="72.19999999999999" y1="212.75" x2="672.2" y2="212.75" stroke="#ccc" stroke-width="1" /><line x1="72.19999999999999" y1="119" x2="672.2" y2="119" stroke="#ccc" stroke-width="1" /><line x1="72.19999999999999" y1="494" x2="72.19999999999999" y2="499" stroke="black" stroke-width="1" /><text x="72.19999999999999" y="511" font-size="12" text-anchor="middle">0</text><line x1="192.2" y1="494" x2="192.2" y2="499" stroke="black" stroke-width="1" /><text x="192.2" y="511" font-size="12" text-anchor="middle">2.5</text><line x1="312.2" y1="494" x2="312.2" y2="499" stroke="black" stroke-width="1" /><text x="312.2" y="511" font-size="12" text-anchor="middle">5</text><line x1="432.2" y1="494" x2="432.2" y2="499" stroke="black" stroke-width="1" /><text x="432.2" y="511" font-size="12" text-anchor="middle">7.5</text><line x1="552.2" y1="494" x2="552.2" y2="499" stroke="black" stroke-width="1" /><text x="552.2" y="511" font-size="12" text-anchor="middle">10</text><line x1="672.2" y1="494" x2="672.2" y2="499" stroke="black" stroke-width="1" /><text x="672.2" y="511" font-size="12" text-anchor="middle">12.5</text><line x1="67.19999999999999" y1="494" x2="72.19999999999999" y2="494" stroke="black" stroke-width="1" /><text x="64.19999999999999" y="498.2" font-size="12" text-anchor="end">0</text><line x1="67.19999999999999" y1="400.25" x2="72.19999999999999" y2="400.25" stroke="black" stroke-width="1" /><text x="64.19999999999999" y="404.45" font-size="12" text-anchor="end">25</text><line x1="67.19999999999999" y1="306.5" x2="72.19999999999999" y2="306.5" stroke="black" stroke-width="1" /><text x="64.19999999999999" y="310.7" font-size="12" text-anchor="end">50</text><line x1="67.19999999999999" y1="212.75" x2="72.19999999999999" y2="212.75" stroke="black" stroke-width="1" /><text x="64.19999999999999" y="216.95" font-size="12" text-anchor="end">75</text><line x1="67.19999999999999" y1="119" x2="72.19999999999999" y2="119" stroke="black" stroke-width="1" /><text x="64.19999999999999" y="123.2" font-size="12" text-anchor="end">100</text><text x="383.1" y="538" font-size="14" text-anchor="middle">Month</text><text x="14" y="272.5" font-size="14" text-anchor="middle" transform="rotate(-90,14,272.5)">Proportion (%)</text><text x="383.1" y="22" font-size="18" text-anchor="middle">Variant Type Composition (Normalized)</text><path d="M 120.19999999999999 208.67391304347825 L 168.2 210.68081494057725 L 216.2 206.98076923076923 L 264.2 209.40178571428572 L 312.2 208.0625 L 360.2 208.4756838905775 L 408.20000000000005 204.5371900826446 L 456.2 213.8214285714286 L 504.2 212.75 L 552.2 215.07438016528926 L 600.2 212.88567293777135 L 648.2 217.972148541114 L 648.2 494 L 600.2 494 L 552.2 494 L 504.2 494 L 456.2 494 L 408.20000000000005 494 L 360.2 494 L 312.2 494 L 264.2 494 L 216.2 494 L 168.2 494 L 120.19999999999999 494 Z" stroke="none" stroke-width="0" fill="steelblue" fill-opacity="0.7" /><path d="M 120.19999999999999 208.67391304347825 L 168.2 210.68081494057725 L 216.2 206.98076923076923 L 264.2 209.40178571428572 L 312.2 208.0625 L 360.2 208.4756838905775 L 408.20000000000005 204.5371900826446 L 456.2 213.8214285714286 L 504.2 212.75 L 552.2 215.07438016528926 L 600.2 212.88567293777135 L 648.2 217.972148541114 " stroke="steelblue" stroke-width="1.5" fill="none" /><path d="M 120.19999999999999 144.13586956521738 L 168.2 145.7402376910017 L 216.2 143.51923076923083 L 264.2 145.2276785714286 L 312.2 144.78125 L 360.2 144.64589665653494 L 408.20000000000005 143.79338842975204 L 456.2 146.85714285714283 L 504.2 145.70454545454544 L 552.2 147.92561983471074 L 600.2 146.67727930535455 L 648.2 148.3435013262599 L 648.2 217.972148541114 L 600.2 212.88567293777135 L 552.2 215.07438016528926 L 504.2 212.75 L 456.2 213.8214285714286 L 408.20000000000005 204.5371900826446 L 360.2 208.4756838905775 L 312.2 208.0625 L 264.2 209.40178571428572 L 216.2 206.98076923076923 L 168.2 210.68081494057725 L 120.19999999999999 208.67391304347825 Z" stroke="none" stroke-width="0" fill="orange" fill-opacity="0.7" /><path d="M 120.19999999999999 144.13586956521738 L 168.2 145.7402376910017 L 216.2 143.51923076923083 L 264.2 145.2276785714286 L 312.2 144.78125 L 360.2 144.64589665653494 L 408.20000000000005 143.79338842975204 L 456.2 146.85714285714283 L 504.2 145.70454545454544 L 552.2 147.92561983471074 L 600.2 146.67727930535455 L 648.2 148.3435013262599 " stroke="orange" stroke-width="1.5" fill="none" /><path d="M 120.19999999999999 129.19021739130432 L 168.2 129.82342954159589 L 216.2 129.09615384615387 L 264.2 129.60267857142856 L 312.2 129.546875 L 360.2 129.25835866261394 L 408.20000000000005 128.91735537190084 L 456.2 130.25 L 504.2 129.79545454545456 L 552.2 130.88016528925618 L 600.2 130.39652677279298 L 648.2 130.93633952254635 L 648.2 148.3435013262599 L 600.2 146.67727930535455 L 552.2 147.92561983471074 L 504.2 145.70454545454544 L 456.2 146.85714285714283 L 408.20000000000005 143.79338842975204 L 360.2 144.64589665653494 L 312.2 144.78125 L 264.2 145.2276785714286 L 216.2 143.51923076923083 L 168.2 145.7402376910017 L 120.19999999999999 144.13586956521738 Z" stroke="none" stroke-width="0" fill="mediumseagreen" fill-opacity="0.7" /><path d="M 120.19999999999999 129.19021739130432 L 168.2 129.82342954159589 L 216.2 129.09615384615387 L 264.2 129.60267857142856 L 312.2 129.546875 L 360.2 129.25835866261394 L 408.20000000000005 128.91735537190084 L 456.2 130.25 L 504.2 129.79545454545456 L 552.2 130.88016528925618 L 600.2 130.39652677279298 L 648.2 130.93633952254635 " stroke="mediumseagreen" stroke-width="1.5" fill="none" /><path d="M 120.19999999999999 118.99999999999994 L 168.2 118.99999999999994 L 216.2 119.00000000000006 L 264.2 119 L 312.2 119 L 360.2 119 L 408.20000000000005 119 L 456.2 119 L 504.2 119 L 552.2 119 L 600.2 118.99999999999994 L 648.2 118.99999999999994 L 648.2 130.93633952254635 L 600.2 130.39652677279298 L 552.2 130.88016528925618 L 504.2 129.79545454545456 L 456.2 130.25 L 408.20000000000005 128.91735537190084 L 360.2 129.25835866261394 L 312.2 129.546875 L 264.2 129.60267857142856 L 216.2 129.09615384615387 L 168.2 129.82342954159589 L 120.19999999999999 129.19021739130432 Z" stroke="none" stroke-width="0" fill="tomato" fill-opacity="0.7" /><path d="M 120.19999999999999 118.99999999999994 L 168.2 118.99999999999994 L 216.2 119.00000000000006 L 264.2 119 L 312.2 119 L 360.2 119 L 408.20000000000005 119 L 456.2 119 L 504.2 119 L 552.2 119 L 600.2 118.99999999999994 L 648.2 118.99999999999994 " stroke="tomato" stroke-width="1.5" fill="none" /><rect x="677.2" y="34" width="80" height="92" fill="white" /><rect x="677.2" y="34" width="80" height="92" fill="none" stroke="black" stroke-width="1" /><text x="707.2" y="49" font-size="12" text-anchor="start">SNVs</text><rect x="687.2" y="43" width="12" height="12" fill="steelblue" /><text x="707.2" y="67" font-size="12" text-anchor="start">Indels</text><rect x="687.2" y="61" width="12" height="12" fill="orange" /><text x="707.2" y="85" font-size="12" text-anchor="start">SVs</text><rect x="687.2" y="79" width="12" height="12" fill="mediumseagreen" /><text x="707.2" y="103" font-size="12" text-anchor="start">CNVs</text><rect x="687.2" y="97" width="12" height="12" fill="tomato" /></svg>