<svg xmlns="http://www.w3.org/2000/svg" width="681.8000000000001" height="545" font-family="DejaVu Sans, Liberation Sans, Arial, sans-serif" fill="black"><rect width="100%" height="100%" fill="white" /><defs><clipPath id="kuva-clip-0"><rect x="63.800000000000004" y="44" width="600" height="450"/></clipPath></defs><line x1="213.8" y1="44" x2="213.8" y2="494" stroke="#cccccc" stroke-width="1" /><line x1="363.8" y1="44" x2="363.8" y2="494" stroke="#cccccc" stroke-width="1" /><line x1="513.8" y1="44" x2="513.8" y2="494" stroke="#cccccc" stroke-width="1" /><line x1="663.8000000000001" y1="44" x2="663.8000000000001" y2="494" stroke="#cccccc" stroke-width="1" /><line x1="63.800000000000004" y1="381.5" x2="663.8000000000001" y2="381.5" stroke="#cccccc" stroke-width="1" /><line x1="63.800000000000004" y1="269" x2="663.8000000000001" y2="269" stroke="#cccccc" stroke-width="1" /><line x1="63.800000000000004" y1="156.5" x2="663.8000000000001" y2="156.5" stroke="#cccccc" stroke-width="1" /><line x1="63.800000000000004" y1="44" x2="663.8000000000001" y2="44" stroke="#cccccc" stroke-width="1" /><line x1="63.800000000000004" y1="494" x2="663.8000000000001" y2="494" stroke="#000000" stroke-width="1" /><line x1="63.800000000000004" y1="44" x2="63.800000000000004" y2="494" stroke="#000000" stroke-width="1" /><line x1="63.800000000000004" y1="494" x2="63.800000000000004" y2="499" stroke="#000000" stroke-width="1" /><text x="63.800000000000004" y="511" font-size="12" text-anchor="middle">-10</text><line x1="213.8" y1="494" x2="213.8" y2="499" stroke="#000000" stroke-width="1" /><text x="213.8" y="511" font-size="12" text-anchor="middle">-5</text><line x1="363.8" y1="494" x2="363.8" y2="499" stroke="#000000" stroke-width="1" /><text x="363.8" y="511" font-size="12" text-anchor="middle">0</text><line x1="513.8" y1="494" x2="513.8" y2="499" stroke="#000000" stroke-width="1" /><text x="513.8" y="511" font-size="12" text-anchor="middle">5</text><line x1="663.8000000000001" y1="494" x2="663.8000000000001" y2="499" stroke="#000000" stroke-width="1" /><text x="663.8000000000001" y="511" font-size="12" text-anchor="middle">10</text><line x1="58.800000000000004" y1="494" x2="63.800000000000004" y2="494" stroke="#000000" stroke-width="1" /><text x="55.800000000000004" y="498.2" font-size="12" text-anchor="end">-10</text><line x1="58.800000000000004" y1="381.5" x2="63.800000000000004" y2="381.5" stroke="#000000" stroke-width="1" /><text x="55.800000000000004" y="385.7" font-size="12" text-anchor="end">-5</text><line x1="58.800000000000004" y1="269" x2="63.800000000000004" y2="269" stroke="#000000" stroke-width="1" /><text x="55.800000000000004" y="273.2" font-size="12" text-anchor="end">0</text><line x1="58.800000000000004" y1="156.5" x2="63.800000000000004" y2="156.5" stroke="#000000" stroke-width="1" /><text x="55.800000000000004" y="160.70000000000002" font-size="12" text-anchor="end">5</text><line x1="58.800000000000004" y1="44" x2="63.800000000000004" y2="44" stroke="#000000" stroke-width="1" /><text x="55.800000000000004" y="48.2" font-size="12" text-anchor="end">10</text><text x="363.8" y="538" font-size="14" text-anchor="middle">x</text><text x="15" y="272.5" font-size="14" text-anchor="middle" transform="rotate(-90,15,272.5)">y</text><text x="340.90000000000003" y="27.400000000000002" font-size="18" text-anchor="middle">Rotational Field</text><g clip-path="url(#kuva-clip-0)"><line x1="123.64" y1="313.88" x2="292.76" y2="440.72" stroke="#4682b4" stroke-width="1.2" /><path d="M 303.96 449.12 L 288.98 445.76 L 296.54 435.68 Z" stroke="#4682b4" stroke-width="0" fill="#4682b4" /><line x1="143.68" y1="288.88" x2="273.84000000000003" y2="414.40000000000003" stroke="#4682b4" stroke-width="1.2" /><path d="M 283.92 424.12 L 269.47 418.93 L 278.22 409.86 Z" stroke="#4682b4" stroke-width="0" fill="#4682b4" /><line x1="163.71" y1="263.88" x2="255.55" y2="387.87" stroke="#4682b4" stroke-width="1.2" /><path d="M 263.89 399.12 L 250.49 391.62 L 260.62 384.12 Z" stroke="#4682b4" stroke-width="0" fill="#4682b4" /><line x1="183.75" y1="238.88" x2="238.17000000000002" y2="361.32" stroke="#4682b4" stroke-width="1.2" /><path d="M 243.85 374.12 L 232.41 363.88 L 243.92 358.77 Z" stroke="#4682b4" stroke-width="0" fill="#4682b4" /><line x1="203.78" y1="213.88" x2="221.77" y2="335.27" stroke="#4682b4" stroke-width="1.2" /><path d="M 223.82 349.12 L 215.53 336.19 L 228.00 334.34 Z" stroke="#4682b4" stroke-width="0" fill="#4682b4" /><line x1="223.82" y1="188.88" x2="205.83" y2="310.27" stroke="#4682b4" stroke-width="1.2" /><path d="M 203.78 324.12 L 199.60 309.34 L 212.07 311.19 Z" stroke="#4682b4" stroke-width="0" fill="#4682b4" /><line x1="243.85" y1="163.88" x2="189.43" y2="286.32" stroke="#4682b4" stroke-width="1.2" /><path d="M 183.75 299.12 L 183.68 283.77 L 195.19 288.88 Z" stroke="#4682b4" stroke-width="0" fill="#4682b4" /><line x1="263.89" y1="138.88" x2="172.05" y2="262.87" stroke="#4682b4" stroke-width="1.2" /><path d="M 163.71 274.12 L 166.98 259.12 L 177.11 266.62 Z" stroke="#4682b4" stroke-width="0" fill="#4682b4" /><line x1="283.92" y1="113.88" x2="153.76" y2="239.4" stroke="#4682b4" stroke-width="1.2" /><path d="M 143.68 249.12 L 149.38 234.86 L 158.13 243.93 Z" stroke="#4682b4" stroke-width="0" fill="#4682b4" /><line x1="303.96" y1="88.88" x2="134.84" y2="215.72" stroke="#4682b4" stroke-width="1.2" /><path d="M 123.64 224.12 L 131.06 210.68 L 138.62 220.76 Z" stroke="#4682b4" stroke-width="0" fill="#4682b4" /><line x1="156.98" y1="328.91" x2="325.2" y2="427.04" stroke="#4682b4" stroke-width="1.2" /><path d="M 337.29 434.09 L 322.02 432.48 L 328.37 421.60 Z" stroke="#4682b4" stroke-width="0" fill="#4682b4" /><line x1="177.01" y1="303.91" x2="306.05" y2="400.69" stroke="#4682b4" stroke-width="1.2" /><path d="M 317.25 409.09 L 302.27 405.73 L 309.83 395.65 Z" stroke="#4682b4" stroke-width="0" fill="#4682b4" /><line x1="197.05" y1="278.91" x2="287.56" y2="373.95" stroke="#4682b4" stroke-width="1.2" /><path d="M 297.22 384.09 L 283.00 378.30 L 292.13 369.61 Z" stroke="#4682b4" stroke-width="0" fill="#4682b4" /><line x1="217.08" y1="253.91" x2="270.24" y2="346.94" stroke="#4682b4" stroke-width="1.2" /><path d="M 277.19 359.09 L 264.77 350.06 L 275.71 343.81 Z" stroke="#4682b4" stroke-width="0" fill="#4682b4" /><line x1="237.12" y1="228.91" x2="254.53" y2="320.34000000000003" stroke="#4682b4" stroke-width="1.2" /><path d="M 257.15 334.09 L 248.34 321.52 L 260.72 319.16 Z" stroke="#4682b4" stroke-width="0" fill="#4682b4" /><line x1="257.15" y1="203.91" x2="239.74" y2="295.34000000000003" stroke="#4682b4" stroke-width="1.2" /><path d="M 237.12 309.09 L 233.55 294.16 L 245.92 296.52 Z" stroke="#4682b4" stroke-width="0" fill="#4682b4" /><line x1="277.19" y1="178.91" x2="224.03" y2="271.94" stroke="#4682b4" stroke-width="1.2" /><path d="M 217.08 284.09 L 218.56 268.81 L 229.50 275.06 Z" stroke="#4682b4" stroke-width="0" fill="#4682b4" /><line x1="297.22" y1="153.91" x2="206.70000000000002" y2="248.95000000000002" stroke="#4682b4" stroke-width="1.2" /><path d="M 197.05 259.09 L 202.14 244.61 L 211.26 253.30 Z" stroke="#4682b4" stroke-width="0" fill="#4682b4" /><line x1="317.25" y1="128.91" x2="188.21" y2="225.69" stroke="#4682b4" stroke-width="1.2" /><path d="M 177.01 234.09 L 184.43 220.65 L 191.99 230.73 Z" stroke="#4682b4" stroke-width="0" fill="#4682b4" /><line x1="337.29" y1="103.91" x2="169.07" y2="202.04" stroke="#4682b4" stroke-width="1.2" /><path d="M 156.98 209.09 L 165.90 196.60 L 172.24 207.48 Z" stroke="#4682b4" stroke-width="0" fill="#4682b4" /><line x1="190.31" y1="343.93" x2="357.7" y2="413.68" stroke="#4682b4" stroke-width="1.2" /><path d="M 370.62 419.07 L 355.28 419.50 L 360.12 407.87 Z" stroke="#4682b4" stroke-width="0" fill="#4682b4" /><line x1="210.35" y1="318.93" x2="338.25" y2="387.45" stroke="#4682b4" stroke-width="1.2" /><path d="M 350.59 394.07 L 335.27 393.01 L 341.22 381.90 Z" stroke="#4682b4" stroke-width="0" fill="#4682b4" /><line x1="230.38" y1="293.93" x2="319.35" y2="360.67" stroke="#4682b4" stroke-width="1.2" /><path d="M 330.55 369.07 L 315.57 365.71 L 323.13 355.63 Z" stroke="#4682b4" stroke-width="0" fill="#4682b4" /><line x1="250.41" y1="268.93" x2="301.77" y2="333.13" stroke="#4682b4" stroke-width="1.2" /><path d="M 310.52 344.07 L 296.85 337.07 L 306.69 329.20 Z" stroke="#4682b4" stroke-width="0" fill="#4682b4" /><line x1="270.45" y1="243.93" x2="286.88" y2="305.54" stroke="#4682b4" stroke-width="1.2" /><path d="M 290.48 319.07 L 280.79 307.16 L 292.96 303.91 Z" stroke="#4682b4" stroke-width="0" fill="#4682b4" /><line x1="290.48" y1="218.93" x2="274.06" y2="280.54" stroke="#4682b4" stroke-width="1.2" /><path d="M 270.45 294.07 L 267.97 278.91 L 280.14 282.16 Z" stroke="#4682b4" stroke-width="0" fill="#4682b4" /><line x1="310.52" y1="193.93" x2="259.16" y2="258.13" stroke="#4682b4" stroke-width="1.2" /><path d="M 250.41 269.07 L 254.24 254.20 L 264.08 262.07 Z" stroke="#4682b4" stroke-width="0" fill="#4682b4" /><line x1="330.55" y1="168.93" x2="241.58" y2="235.67000000000002" stroke="#4682b4" stroke-width="1.2" /><path d="M 230.38 244.07 L 237.80 230.63 L 245.36 240.71 Z" stroke="#4682b4" stroke-width="0" fill="#4682b4" /><line x1="350.59000000000003" y1="143.93" x2="222.69" y2="212.45000000000002" stroke="#4682b4" stroke-width="1.2" /><path d="M 210.35 219.07 L 219.71 206.90 L 225.66 218.01 Z" stroke="#4682b4" stroke-width="0" fill="#4682b4" /><line x1="370.62" y1="118.93" x2="203.23000000000002" y2="188.68" stroke="#4682b4" stroke-width="1.2" /><path d="M 190.31 194.07 L 200.81 182.87 L 205.66 194.50 Z" stroke="#4682b4" stroke-width="0" fill="#4682b4" /><line x1="223.64000000000001" y1="358.96" x2="390.37" y2="400.64" stroke="#4682b4" stroke-width="1.2" /><path d="M 403.96 404.04 L 388.85 406.76 L 391.90 394.53 Z" stroke="#4682b4" stroke-width="0" fill="#4682b4" /><line x1="243.68" y1="333.96" x2="370.59000000000003" y2="374.75" stroke="#4682b4" stroke-width="1.2" /><path d="M 383.92 379.04 L 368.67 380.75 L 372.52 368.76 Z" stroke="#4682b4" stroke-width="0" fill="#4682b4" /><line x1="263.71" y1="308.96" x2="351.12" y2="348.29" stroke="#4682b4" stroke-width="1.2" /><path d="M 363.89 354.04 L 348.53 354.04 L 353.71 342.55 Z" stroke="#4682b4" stroke-width="0" fill="#4682b4" /><line x1="283.75" y1="283.96" x2="332.65000000000003" y2="320.64" stroke="#4682b4" stroke-width="1.2" /><path d="M 343.85 329.04 L 328.87 325.68 L 336.43 315.60 Z" stroke="#4682b4" stroke-width="0" fill="#4682b4" /><line x1="303.78000000000003" y1="258.96" x2="318.21" y2="291.42" stroke="#4682b4" stroke-width="1.2" /><path d="M 323.82 304.04 L 312.53 293.94 L 323.89 288.89 Z" stroke="#4682b4" stroke-width="0" fill="#4682b4" /><line x1="323.82" y1="233.96" x2="309.39" y2="266.42" stroke="#4682b4" stroke-width="1.2" /><path d="M 303.78 279.04 L 303.71 263.89 L 315.07 268.94 Z" stroke="#4682b4" stroke-width="0" fill="#4682b4" /><line x1="343.85" y1="208.96" x2="294.95" y2="245.64000000000001" stroke="#4682b4" stroke-width="1.2" /><path d="M 283.75 254.04 L 291.17 240.60 L 298.73 250.68 Z" stroke="#4682b4" stroke-width="0" fill="#4682b4" /><line x1="363.89" y1="183.96" x2="276.48" y2="223.29" stroke="#4682b4" stroke-width="1.2" /><path d="M 263.71 229.04 L 273.89 217.55 L 279.07 229.04 Z" stroke="#4682b4" stroke-width="0" fill="#4682b4" /><line x1="383.92" y1="158.96" x2="257.01" y2="199.75" stroke="#4682b4" stroke-width="1.2" /><path d="M 243.68 204.04 L 255.08 193.76 L 258.93 205.75 Z" stroke="#4682b4" stroke-width="0" fill="#4682b4" /><line x1="403.96000000000004" y1="133.96" x2="237.23000000000002" y2="175.64000000000001" stroke="#4682b4" stroke-width="1.2" /><path d="M 223.64 179.04 L 235.70 169.53 L 238.75 181.76 Z" stroke="#4682b4" stroke-width="0" fill="#4682b4" /><line x1="256.98" y1="373.99" x2="423.34000000000003" y2="387.85" stroke="#4682b4" stroke-width="1.2" /><path d="M 437.29 389.01 L 422.81 394.13 L 423.86 381.57 Z" stroke="#4682b4" stroke-width="0" fill="#4682b4" /><line x1="277.01" y1="348.99" x2="403.33" y2="362.52" stroke="#4682b4" stroke-width="1.2" /><path d="M 417.25 364.01 L 402.66 368.79 L 404.01 356.26 Z" stroke="#4682b4" stroke-width="0" fill="#4682b4" /><line x1="297.05" y1="323.99" x2="383.37" y2="336.94" stroke="#4682b4" stroke-width="1.2" /><path d="M 397.22 339.01 L 382.44 343.17 L 384.31 330.71 Z" stroke="#4682b4" stroke-width="0" fill="#4682b4" /><line x1="317.08" y1="298.99" x2="363.6" y2="310.62" stroke="#4682b4" stroke-width="1.2" /><path d="M 377.19 314.01 L 362.08 316.73 L 365.13 304.51 Z" stroke="#4682b4" stroke-width="0" fill="#4682b4" /><line x1="337.12" y1="273.99" x2="351.54" y2="284.81" stroke="#4682b4" stroke-width="1.2" /><path d="M 357.15 289.01 L 349.65 287.33 L 353.43 282.28 Z" stroke="#4682b4" stroke-width="0" fill="#4682b4" /><line x1="357.15000000000003" y1="248.99" x2="342.73" y2="259.81" stroke="#4682b4" stroke-width="1.2" /><path d="M 337.12 264.01 L 340.83 257.28 L 344.62 262.33 Z" stroke="#4682b4" stroke-width="0" fill="#4682b4" /><line x1="377.19" y1="223.99" x2="330.66" y2="235.62" stroke="#4682b4" stroke-width="1.2" /><path d="M 317.08 239.01 L 329.14 229.51 L 332.19 241.73 Z" stroke="#4682b4" stroke-width="0" fill="#4682b4" /><line x1="397.22" y1="198.99" x2="310.89" y2="211.94" stroke="#4682b4" stroke-width="1.2" /><path d="M 297.05 214.01 L 309.96 205.71 L 311.83 218.17 Z" stroke="#4682b4" stroke-width="0" fill="#4682b4" /><line x1="417.25" y1="173.99" x2="290.93" y2="187.52" stroke="#4682b4" stroke-width="1.2" /><path d="M 277.01 189.01 L 290.26 181.26 L 291.60 193.79 Z" stroke="#4682b4" stroke-width="0" fill="#4682b4" /><line x1="437.29" y1="148.99" x2="270.93" y2="162.85" stroke="#4682b4" stroke-width="1.2" /><path d="M 256.98 164.01 L 270.41 156.57 L 271.45 169.13 Z" stroke="#4682b4" stroke-width="0" fill="#4682b4" /><line x1="290.31" y1="389.01" x2="456.67" y2="375.15000000000003" stroke="#4682b4" stroke-width="1.2" /><path d="M 470.62 373.99 L 457.19 381.43 L 456.15 368.87 Z" stroke="#4682b4" stroke-width="0" fill="#4682b4" /><line x1="310.35" y1="364.01" x2="436.67" y2="350.48" stroke="#4682b4" stroke-width="1.2" /><path d="M 450.59 348.99 L 437.34 356.74 L 436.00 344.21 Z" stroke="#4682b4" stroke-width="0" fill="#4682b4" /><line x1="330.38" y1="339.01" x2="416.71000000000004" y2="326.06" stroke="#4682b4" stroke-width="1.2" /><path d="M 430.55 323.99 L 417.64 332.29 L 415.77 319.83 Z" stroke="#4682b4" stroke-width="0" fill="#4682b4" /><line x1="350.41" y1="314.01" x2="396.94" y2="302.38" stroke="#4682b4" stroke-width="1.2" /><path d="M 410.52 298.99 L 398.46 308.49 L 395.41 296.27 Z" stroke="#4682b4" stroke-width="0" fill="#4682b4" /><line x1="370.45" y1="289.01" x2="384.87" y2="278.19" stroke="#4682b4" stroke-width="1.2" /><path d="M 390.48 273.99 L 386.77 280.72 L 382.98 275.67 Z" stroke="#4682b4" stroke-width="0" fill="#4682b4" /><line x1="390.48" y1="264.01" x2="376.06" y2="253.19" stroke="#4682b4" stroke-width="1.2" /><path d="M 370.45 248.99 L 377.95 250.67 L 374.17 255.72 Z" stroke="#4682b4" stroke-width="0" fill="#4682b4" /><line x1="410.52" y1="239.01" x2="364" y2="227.38" stroke="#4682b4" stroke-width="1.2" /><path d="M 350.41 223.99 L 365.52 221.27 L 362.47 233.49 Z" stroke="#4682b4" stroke-width="0" fill="#4682b4" /><line x1="430.55" y1="214.01" x2="344.23" y2="201.06" stroke="#4682b4" stroke-width="1.2" /><path d="M 330.38 198.99 L 345.16 194.83 L 343.29 207.29 Z" stroke="#4682b4" stroke-width="0" fill="#4682b4" /><line x1="450.59000000000003" y1="189.01" x2="324.27" y2="175.48" stroke="#4682b4" stroke-width="1.2" /><path d="M 310.35 173.99 L 324.94 169.21 L 323.59 181.74 Z" stroke="#4682b4" stroke-width="0" fill="#4682b4" /><line x1="470.62" y1="164.01" x2="304.26" y2="150.15" stroke="#4682b4" stroke-width="1.2" /><path d="M 290.31 148.99 L 304.79 143.87 L 303.74 156.43 Z" stroke="#4682b4" stroke-width="0" fill="#4682b4" /><line x1="323.64" y1="404.04" x2="490.37" y2="362.36" stroke="#4682b4" stroke-width="1.2" /><path d="M 503.96 358.96 L 491.90 368.47 L 488.85 356.24 Z" stroke="#4682b4" stroke-width="0" fill="#4682b4" /><line x1="343.68" y1="379.04" x2="470.59000000000003" y2="338.25" stroke="#4682b4" stroke-width="1.2" /><path d="M 483.92 333.96 L 472.52 344.24 L 468.67 332.25 Z" stroke="#4682b4" stroke-width="0" fill="#4682b4" /><line x1="363.71" y1="354.04" x2="451.12" y2="314.71" stroke="#4682b4" stroke-width="1.2" /><path d="M 463.89 308.96 L 453.71 320.45 L 448.53 308.96 Z" stroke="#4682b4" stroke-width="0" fill="#4682b4" /><line x1="383.75" y1="329.04" x2="432.65000000000003" y2="292.36" stroke="#4682b4" stroke-width="1.2" /><path d="M 443.85 283.96 L 436.43 297.40 L 428.87 287.32 Z" stroke="#4682b4" stroke-width="0" fill="#4682b4" /><line x1="403.78000000000003" y1="304.04" x2="418.21000000000004" y2="271.58" stroke="#4682b4" stroke-width="1.2" /><path d="M 423.82 258.96 L 423.89 274.11 L 412.53 269.06 Z" stroke="#4682b4" stroke-width="0" fill="#4682b4" /><line x1="423.82" y1="279.04" x2="409.39" y2="246.58" stroke="#4682b4" stroke-width="1.2" /><path d="M 403.78 233.96 L 415.07 244.06 L 403.71 249.11 Z" stroke="#4682b4" stroke-width="0" fill="#4682b4" /><line x1="443.85" y1="254.04" x2="394.95" y2="217.36" stroke="#4682b4" stroke-width="1.2" /><path d="M 383.75 208.96 L 398.73 212.32 L 391.17 222.40 Z" stroke="#4682b4" stroke-width="0" fill="#4682b4" /><line x1="463.89" y1="229.04" x2="376.48" y2="189.71" stroke="#4682b4" stroke-width="1.2" /><path d="M 363.71 183.96 L 379.07 183.96 L 373.89 195.45 Z" stroke="#4682b4" stroke-width="0" fill="#4682b4" /><line x1="483.92" y1="204.04" x2="357.01" y2="163.25" stroke="#4682b4" stroke-width="1.2" /><path d="M 343.68 158.96 L 358.93 157.25 L 355.08 169.24 Z" stroke="#4682b4" stroke-width="0" fill="#4682b4" /><line x1="503.96000000000004" y1="179.04" x2="337.23" y2="137.36" stroke="#4682b4" stroke-width="1.2" /><path d="M 323.64 133.96 L 338.75 131.24 L 335.70 143.47 Z" stroke="#4682b4" stroke-width="0" fill="#4682b4" /><line x1="356.98" y1="419.07" x2="524.37" y2="349.32" stroke="#4682b4" stroke-width="1.2" /><path d="M 537.29 343.93 L 526.79 355.13 L 521.94 343.50 Z" stroke="#4682b4" stroke-width="0" fill="#4682b4" /><line x1="377.01" y1="394.07" x2="504.91" y2="325.55" stroke="#4682b4" stroke-width="1.2" /><path d="M 517.25 318.93 L 507.89 331.10 L 501.94 319.99 Z" stroke="#4682b4" stroke-width="0" fill="#4682b4" /><line x1="397.05" y1="369.07" x2="486.02" y2="302.33" stroke="#4682b4" stroke-width="1.2" /><path d="M 497.22 293.93 L 489.80 307.37 L 482.24 297.29 Z" stroke="#4682b4" stroke-width="0" fill="#4682b4" /><line x1="417.08" y1="344.07" x2="468.44" y2="279.87" stroke="#4682b4" stroke-width="1.2" /><path d="M 477.19 268.93 L 473.36 283.80 L 463.52 275.93 Z" stroke="#4682b4" stroke-width="0" fill="#4682b4" /><line x1="437.12" y1="319.07" x2="453.54" y2="257.46" stroke="#4682b4" stroke-width="1.2" /><path d="M 457.15 243.93 L 459.63 259.09 L 447.46 255.84 Z" stroke="#4682b4" stroke-width="0" fill="#4682b4" /><line x1="457.15000000000003" y1="294.07" x2="440.72" y2="232.46" stroke="#4682b4" stroke-width="1.2" /><path d="M 437.12 218.93 L 446.81 230.84 L 434.64 234.09 Z" stroke="#4682b4" stroke-width="0" fill="#4682b4" /><line x1="477.19" y1="269.07" x2="425.83" y2="204.87" stroke="#4682b4" stroke-width="1.2" /><path d="M 417.08 193.93 L 430.75 200.93 L 420.91 208.80 Z" stroke="#4682b4" stroke-width="0" fill="#4682b4" /><line x1="497.22" y1="244.07" x2="408.25" y2="177.33" stroke="#4682b4" stroke-width="1.2" /><path d="M 397.05 168.93 L 412.03 172.29 L 404.47 182.37 Z" stroke="#4682b4" stroke-width="0" fill="#4682b4" /><line x1="517.25" y1="219.07" x2="389.35" y2="150.55" stroke="#4682b4" stroke-width="1.2" /><path d="M 377.01 143.93 L 392.33 144.99 L 386.38 156.10 Z" stroke="#4682b4" stroke-width="0" fill="#4682b4" /><line x1="537.29" y1="194.07" x2="369.90000000000003" y2="124.32000000000001" stroke="#4682b4" stroke-width="1.2" /><path d="M 356.98 118.93 L 372.32 118.50 L 367.48 130.13 Z" stroke="#4682b4" stroke-width="0" fill="#4682b4" /><line x1="390.31" y1="434.09000000000003" x2="558.53" y2="335.96" stroke="#4682b4" stroke-width="1.2" /><path d="M 570.62 328.91 L 561.70 341.40 L 555.36 330.52 Z" stroke="#4682b4" stroke-width="0" fill="#4682b4" /><line x1="410.35" y1="409.09000000000003" x2="539.39" y2="312.31" stroke="#4682b4" stroke-width="1.2" /><path d="M 550.59 303.91 L 543.17 317.35 L 535.61 307.27 Z" stroke="#4682b4" stroke-width="0" fill="#4682b4" /><line x1="430.38" y1="384.09000000000003" x2="520.9" y2="289.05" stroke="#4682b4" stroke-width="1.2" /><path d="M 530.55 278.91 L 525.46 293.39 L 516.34 284.70 Z" stroke="#4682b4" stroke-width="0" fill="#4682b4" /><line x1="450.41" y1="359.09000000000003" x2="503.57" y2="266.06" stroke="#4682b4" stroke-width="1.2" /><path d="M 510.52 253.91 L 509.04 269.19 L 498.10 262.94 Z" stroke="#4682b4" stroke-width="0" fill="#4682b4" /><line x1="470.45" y1="334.09000000000003" x2="487.86" y2="242.66" stroke="#4682b4" stroke-width="1.2" /><path d="M 490.48 228.91 L 494.05 243.84 L 481.68 241.48 Z" stroke="#4682b4" stroke-width="0" fill="#4682b4" /><line x1="490.48" y1="309.09000000000003" x2="473.07" y2="217.66" stroke="#4682b4" stroke-width="1.2" /><path d="M 470.45 203.91 L 479.26 216.48 L 466.88 218.84 Z" stroke="#4682b4" stroke-width="0" fill="#4682b4" /><line x1="510.52000000000004" y1="284.09000000000003" x2="457.36" y2="191.06" stroke="#4682b4" stroke-width="1.2" /><path d="M 450.41 178.91 L 462.83 187.94 L 451.89 194.19 Z" stroke="#4682b4" stroke-width="0" fill="#4682b4" /><line x1="530.55" y1="259.09000000000003" x2="440.04" y2="164.05" stroke="#4682b4" stroke-width="1.2" /><path d="M 430.38 153.91 L 444.60 159.70 L 435.47 168.39 Z" stroke="#4682b4" stroke-width="0" fill="#4682b4" /><line x1="550.59" y1="234.09" x2="421.55" y2="137.31" stroke="#4682b4" stroke-width="1.2" /><path d="M 410.35 128.91 L 425.33 132.27 L 417.77 142.35 Z" stroke="#4682b4" stroke-width="0" fill="#4682b4" /><line x1="570.62" y1="209.09" x2="402.40000000000003" y2="110.96000000000001" stroke="#4682b4" stroke-width="1.2" /><path d="M 390.31 103.91 L 405.58 105.52 L 399.23 116.40 Z" stroke="#4682b4" stroke-width="0" fill="#4682b4" /><line x1="423.64" y1="449.12" x2="592.76" y2="322.28000000000003" stroke="#4682b4" stroke-width="1.2" /><path d="M 603.96 313.88 L 596.54 327.32 L 588.98 317.24 Z" stroke="#4682b4" stroke-width="0" fill="#4682b4" /><line x1="443.68" y1="424.12" x2="573.84" y2="298.6" stroke="#4682b4" stroke-width="1.2" /><path d="M 583.92 288.88 L 578.22 303.14 L 569.47 294.07 Z" stroke="#4682b4" stroke-width="0" fill="#4682b4" /><line x1="463.71000000000004" y1="399.12" x2="555.5500000000001" y2="275.13" stroke="#4682b4" stroke-width="1.2" /><path d="M 563.89 263.88 L 560.62 278.88 L 550.49 271.38 Z" stroke="#4682b4" stroke-width="0" fill="#4682b4" /><line x1="483.75" y1="374.12" x2="538.17" y2="251.68" stroke="#4682b4" stroke-width="1.2" /><path d="M 543.85 238.88 L 543.92 254.23 L 532.41 249.12 Z" stroke="#4682b4" stroke-width="0" fill="#4682b4" /><line x1="503.78000000000003" y1="349.12" x2="521.77" y2="227.73000000000002" stroke="#4682b4" stroke-width="1.2" /><path d="M 523.82 213.88 L 528.00 228.66 L 515.53 226.81 Z" stroke="#4682b4" stroke-width="0" fill="#4682b4" /><line x1="523.82" y1="324.12" x2="505.83" y2="202.73000000000002" stroke="#4682b4" stroke-width="1.2" /><path d="M 503.78 188.88 L 512.07 201.81 L 499.60 203.66 Z" stroke="#4682b4" stroke-width="0" fill="#4682b4" /><line x1="543.85" y1="299.12" x2="489.43" y2="176.68" stroke="#4682b4" stroke-width="1.2" /><path d="M 483.75 163.88 L 495.19 174.12 L 483.68 179.23 Z" stroke="#4682b4" stroke-width="0" fill="#4682b4" /><line x1="563.89" y1="274.12" x2="472.05" y2="150.13" stroke="#4682b4" stroke-width="1.2" /><path d="M 463.71 138.88 L 477.11 146.38 L 466.98 153.88 Z" stroke="#4682b4" stroke-width="0" fill="#4682b4" /><line x1="583.92" y1="249.12" x2="453.76" y2="123.60000000000001" stroke="#4682b4" stroke-width="1.2" /><path d="M 443.68 113.88 L 458.13 119.07 L 449.38 128.14 Z" stroke="#4682b4" stroke-width="0" fill="#4682b4" /><line x1="603.96" y1="224.12" x2="434.84000000000003" y2="97.28" stroke="#4682b4" stroke-width="1.2" /><path d="M 423.64 88.88 L 438.62 92.24 L 431.06 102.32 Z" stroke="#4682b4" stroke-width="0" fill="#4682b4" /></g></svg>