<svg xmlns="http://www.w3.org/2000/svg" width="677" height="545" font-family="DejaVu Sans, Liberation Sans, Arial, sans-serif" fill="black"><rect width="100%" height="100%" fill="white" /><defs><clipPath id="kuva-clip-0"><rect x="59" y="44" width="600" height="450"/></clipPath></defs><line x1="109" y1="44" x2="109" y2="494" stroke="#cccccc" stroke-width="1" /><line x1="234" y1="44" x2="234" y2="494" stroke="#cccccc" stroke-width="1" /><line x1="359" y1="44" x2="359" y2="494" stroke="#cccccc" stroke-width="1" /><line x1="484" y1="44" x2="484" y2="494" stroke="#cccccc" stroke-width="1" /><line x1="609" y1="44" x2="609" y2="494" stroke="#cccccc" stroke-width="1" /><line x1="59" y1="456.5" x2="659" y2="456.5" stroke="#cccccc" stroke-width="1" /><line x1="59" y1="362.75" x2="659" y2="362.75" stroke="#cccccc" stroke-width="1" /><line x1="59" y1="269" x2="659" y2="269" stroke="#cccccc" stroke-width="1" /><line x1="59" y1="175.25" x2="659" y2="175.25" stroke="#cccccc" stroke-width="1" /><line x1="59" y1="81.5" x2="659" y2="81.5" stroke="#cccccc" stroke-width="1" /><line x1="59" y1="494" x2="659" y2="494" stroke="#000000" stroke-width="1" /><line x1="59" y1="44" x2="59" y2="494" stroke="#000000" stroke-width="1" /><line x1="109" y1="494" x2="109" y2="499" stroke="#000000" stroke-width="1" /><text x="109" y="511" font-size="12" text-anchor="middle">-5</text><line x1="234" y1="494" x2="234" y2="499" stroke="#000000" stroke-width="1" /><text x="234" y="511" font-size="12" text-anchor="middle">-2.5</text><line x1="359" y1="494" x2="359" y2="499" stroke="#000000" stroke-width="1" /><text x="359" y="511" font-size="12" text-anchor="middle">0</text><line x1="484" y1="494" x2="484" y2="499" stroke="#000000" stroke-width="1" /><text x="484" y="511" font-size="12" text-anchor="middle">2.5</text><line x1="609" y1="494" x2="609" y2="499" stroke="#000000" stroke-width="1" /><text x="609" y="511" font-size="12" text-anchor="middle">5</text><line x1="54" y1="456.5" x2="59" y2="456.5" stroke="#000000" stroke-width="1" /><text x="51" y="460.7" font-size="12" text-anchor="end">-5</text><line x1="54" y1="362.75" x2="59" y2="362.75" stroke="#000000" stroke-width="1" /><text x="51" y="366.95" font-size="12" text-anchor="end">-2.5</text><line x1="54" y1="269" x2="59" y2="269" stroke="#000000" stroke-width="1" /><text x="51" y="273.2" font-size="12" text-anchor="end">0</text><line x1="54" y1="175.25" x2="59" y2="175.25" stroke="#000000" stroke-width="1" /><text x="51" y="179.45000000000002" font-size="12" text-anchor="end">2.5</text><line x1="54" y1="81.5" x2="59" y2="81.5" stroke="#000000" stroke-width="1" /><text x="51" y="85.7" font-size="12" text-anchor="end">5</text><text x="359" y="538" font-size="14" text-anchor="middle">x</text><text x="15" y="272.5" font-size="14" text-anchor="middle" transform="rotate(-90,15,272.5)">y</text><text x="338.5" y="27.400000000000002" font-size="18" text-anchor="middle">Rotational Field</text><g clip-path="url(#kuva-clip-0)"><line x1="93.97" y1="445.23" x2="115.61" y2="461.46000000000004" stroke="#4682b4" stroke-width="1.2" /><path d="M 124.03 467.77 L 112.77 465.25 L 118.45 457.67 Z" stroke="#4682b4" stroke-width="0" fill="#4682b4" /><line x1="97.31" y1="403.56" x2="114.14" y2="419.79" stroke="#4682b4" stroke-width="1.2" /><path d="M 120.69 426.10 L 111.30 422.74 L 116.98 416.85 Z" stroke="#4682b4" stroke-width="0" fill="#4682b4" /><line x1="100.65" y1="361.90000000000003" x2="112.67" y2="378.13" stroke="#4682b4" stroke-width="1.2" /><path d="M 117.35 384.44 L 109.83 380.23 L 115.51 376.02 Z" stroke="#4682b4" stroke-width="0" fill="#4682b4" /><line x1="103.99000000000001" y1="320.23" x2="111.2" y2="336.46" stroke="#4682b4" stroke-width="1.2" /><path d="M 114.01 342.77 L 108.36 337.72 L 114.04 335.20 Z" stroke="#4682b4" stroke-width="0" fill="#4682b4" /><line x1="107.33" y1="278.56" x2="109.73" y2="294.79" stroke="#4682b4" stroke-width="1.2" /><path d="M 110.67 301.10 L 106.89 295.21 L 112.57 294.37 Z" stroke="#4682b4" stroke-width="0" fill="#4682b4" /><line x1="110.67" y1="236.9" x2="108.27" y2="253.13" stroke="#4682b4" stroke-width="1.2" /><path d="M 107.33 259.44 L 105.43 252.70 L 111.11 253.55 Z" stroke="#4682b4" stroke-width="0" fill="#4682b4" /><line x1="114.01" y1="195.23000000000002" x2="106.8" y2="211.46" stroke="#4682b4" stroke-width="1.2" /><path d="M 103.99 217.77 L 103.96 210.20 L 109.64 212.72 Z" stroke="#4682b4" stroke-width="0" fill="#4682b4" /><line x1="117.35000000000001" y1="153.56" x2="105.33" y2="169.79" stroke="#4682b4" stroke-width="1.2" /><path d="M 100.65 176.10 L 102.49 167.69 L 108.17 171.90 Z" stroke="#4682b4" stroke-width="0" fill="#4682b4" /><line x1="120.69" y1="111.9" x2="103.86" y2="128.13" stroke="#4682b4" stroke-width="1.2" /><path d="M 97.31 134.44 L 101.02 125.18 L 106.70 131.07 Z" stroke="#4682b4" stroke-width="0" fill="#4682b4" /><line x1="124.03" y1="70.23" x2="102.39" y2="86.46000000000001" stroke="#4682b4" stroke-width="1.2" /><path d="M 93.97 92.77 L 99.55 82.67 L 105.23 90.25 Z" stroke="#4682b4" stroke-width="0" fill="#4682b4" /><line x1="149.53" y1="447.73" x2="171.17000000000002" y2="460.36" stroke="#4682b4" stroke-width="1.2" /><path d="M 179.58 465.27 L 168.96 464.14 L 173.38 456.57 Z" stroke="#4682b4" stroke-width="0" fill="#4682b4" /><line x1="152.87" y1="406.07" x2="169.70000000000002" y2="418.69" stroke="#4682b4" stroke-width="1.2" /><path d="M 176.24 423.60 L 167.49 421.64 L 171.91 415.74 Z" stroke="#4682b4" stroke-width="0" fill="#4682b4" /><line x1="156.21" y1="364.40000000000003" x2="168.23" y2="377.02" stroke="#4682b4" stroke-width="1.2" /><path d="M 172.90 381.93 L 166.02 379.13 L 170.44 374.92 Z" stroke="#4682b4" stroke-width="0" fill="#4682b4" /><line x1="159.55" y1="322.73" x2="166.76" y2="335.36" stroke="#4682b4" stroke-width="1.2" /><path d="M 169.56 340.27 L 164.55 336.62 L 168.97 334.09 Z" stroke="#4682b4" stroke-width="0" fill="#4682b4" /><line x1="162.89000000000001" y1="281.07" x2="165.29" y2="293.69" stroke="#4682b4" stroke-width="1.2" /><path d="M 166.23 298.60 L 163.08 294.11 L 167.50 293.27 Z" stroke="#4682b4" stroke-width="0" fill="#4682b4" /><line x1="166.23" y1="239.4" x2="163.82" y2="252.02" stroke="#4682b4" stroke-width="1.2" /><path d="M 162.89 256.93 L 161.61 251.60 L 166.03 252.44 Z" stroke="#4682b4" stroke-width="0" fill="#4682b4" /><line x1="169.56" y1="197.73000000000002" x2="162.35" y2="210.36" stroke="#4682b4" stroke-width="1.2" /><path d="M 159.55 215.27 L 160.14 209.09 L 164.56 211.62 Z" stroke="#4682b4" stroke-width="0" fill="#4682b4" /><line x1="172.9" y1="156.07" x2="160.88" y2="168.69" stroke="#4682b4" stroke-width="1.2" /><path d="M 156.21 173.60 L 158.67 166.59 L 163.09 170.79 Z" stroke="#4682b4" stroke-width="0" fill="#4682b4" /><line x1="176.24" y1="114.4" x2="159.41" y2="127.02" stroke="#4682b4" stroke-width="1.2" /><path d="M 152.87 131.93 L 157.20 124.08 L 161.62 129.97 Z" stroke="#4682b4" stroke-width="0" fill="#4682b4" /><line x1="179.58" y1="72.73" x2="157.94" y2="85.36" stroke="#4682b4" stroke-width="1.2" /><path d="M 149.53 90.27 L 155.74 81.57 L 160.15 89.14 Z" stroke="#4682b4" stroke-width="0" fill="#4682b4" /><line x1="205.09" y1="450.24" x2="226.72" y2="459.25" stroke="#4682b4" stroke-width="1.2" /><path d="M 235.14 462.76 L 225.14 463.04 L 228.30 455.47 Z" stroke="#4682b4" stroke-width="0" fill="#4682b4" /><line x1="208.42000000000002" y1="408.57" x2="225.25" y2="417.59000000000003" stroke="#4682b4" stroke-width="1.2" /><path d="M 231.80 421.09 L 223.68 420.53 L 226.83 414.64 Z" stroke="#4682b4" stroke-width="0" fill="#4682b4" /><line x1="211.76" y1="366.91" x2="223.78" y2="375.92" stroke="#4682b4" stroke-width="1.2" /><path d="M 228.46 379.43 L 222.21 378.03 L 225.36 373.82 Z" stroke="#4682b4" stroke-width="0" fill="#4682b4" /><line x1="215.1" y1="325.24" x2="222.31" y2="334.25" stroke="#4682b4" stroke-width="1.2" /><path d="M 225.12 337.76 L 220.74 335.52 L 223.89 332.99 Z" stroke="#4682b4" stroke-width="0" fill="#4682b4" /><line x1="218.44" y1="283.57" x2="220.75" y2="292.23" stroke="#4682b4" stroke-width="1.2" /><path d="M 221.78 296.09 L 219.01 292.69 L 222.49 291.77 Z" stroke="#4682b4" stroke-width="0" fill="#4682b4" /><line x1="221.78" y1="241.91" x2="219.47" y2="250.56" stroke="#4682b4" stroke-width="1.2" /><path d="M 218.44 254.43 L 217.73 250.10 L 221.21 251.03 Z" stroke="#4682b4" stroke-width="0" fill="#4682b4" /><line x1="225.12" y1="200.24" x2="217.91" y2="209.25" stroke="#4682b4" stroke-width="1.2" /><path d="M 215.10 212.76 L 216.33 207.99 L 219.49 210.52 Z" stroke="#4682b4" stroke-width="0" fill="#4682b4" /><line x1="228.46" y1="158.57" x2="216.44" y2="167.59" stroke="#4682b4" stroke-width="1.2" /><path d="M 211.76 171.09 L 214.86 165.48 L 218.02 169.69 Z" stroke="#4682b4" stroke-width="0" fill="#4682b4" /><line x1="231.8" y1="116.91" x2="214.97" y2="125.92" stroke="#4682b4" stroke-width="1.2" /><path d="M 208.42 129.43 L 213.39 122.98 L 216.55 128.87 Z" stroke="#4682b4" stroke-width="0" fill="#4682b4" /><line x1="235.14000000000001" y1="75.24" x2="213.5" y2="84.25" stroke="#4682b4" stroke-width="1.2" /><path d="M 205.09 87.76 L 211.92 80.47 L 215.08 88.04 Z" stroke="#4682b4" stroke-width="0" fill="#4682b4" /><line x1="260.64" y1="452.74" x2="282.28000000000003" y2="458.15000000000003" stroke="#4682b4" stroke-width="1.2" /><path d="M 290.69 460.26 L 281.33 461.94 L 283.22 454.37 Z" stroke="#4682b4" stroke-width="0" fill="#4682b4" /><line x1="263.98" y1="411.08" x2="280.81" y2="416.49" stroke="#4682b4" stroke-width="1.2" /><path d="M 287.35 418.59 L 279.86 419.43 L 281.76 413.54 Z" stroke="#4682b4" stroke-width="0" fill="#4682b4" /><line x1="267.32" y1="369.41" x2="279.34000000000003" y2="374.82" stroke="#4682b4" stroke-width="1.2" /><path d="M 284.01 376.92 L 278.39 376.92 L 280.29 372.72 Z" stroke="#4682b4" stroke-width="0" fill="#4682b4" /><line x1="270.66" y1="327.74" x2="277.48" y2="332.86" stroke="#4682b4" stroke-width="1.2" /><path d="M 280.68 335.26 L 276.40 334.30 L 278.56 331.42 Z" stroke="#4682b4" stroke-width="0" fill="#4682b4" /><line x1="274" y1="286.08" x2="275.71" y2="289.93" stroke="#4682b4" stroke-width="1.2" /><path d="M 277.34 293.59 L 274.07 290.67 L 277.36 289.20 Z" stroke="#4682b4" stroke-width="0" fill="#4682b4" /><line x1="277.34000000000003" y1="244.41" x2="275.62" y2="248.27" stroke="#4682b4" stroke-width="1.2" /><path d="M 274.00 251.92 L 273.98 247.54 L 277.27 249.00 Z" stroke="#4682b4" stroke-width="0" fill="#4682b4" /><line x1="280.68" y1="202.74" x2="273.86" y2="207.86" stroke="#4682b4" stroke-width="1.2" /><path d="M 270.66 210.26 L 272.78 206.42 L 274.94 209.30 Z" stroke="#4682b4" stroke-width="0" fill="#4682b4" /><line x1="284.01" y1="161.08" x2="271.99" y2="166.49" stroke="#4682b4" stroke-width="1.2" /><path d="M 267.32 168.59 L 271.05 164.38 L 272.94 168.59 Z" stroke="#4682b4" stroke-width="0" fill="#4682b4" /><line x1="287.35" y1="119.41" x2="270.52" y2="124.82000000000001" stroke="#4682b4" stroke-width="1.2" /><path d="M 263.98 126.92 L 269.58 121.87 L 271.47 127.76 Z" stroke="#4682b4" stroke-width="0" fill="#4682b4" /><line x1="290.69" y1="77.74" x2="269.06" y2="83.15" stroke="#4682b4" stroke-width="1.2" /><path d="M 260.64 85.26 L 268.11 79.37 L 270.00 86.94 Z" stroke="#4682b4" stroke-width="0" fill="#4682b4" /><line x1="316.2" y1="455.25" x2="337.83" y2="457.05" stroke="#4682b4" stroke-width="1.2" /><path d="M 346.25 457.75 L 337.52 460.84 L 338.15 453.26 Z" stroke="#4682b4" stroke-width="0" fill="#4682b4" /><line x1="319.54" y1="413.58" x2="336.36" y2="415.38" stroke="#4682b4" stroke-width="1.2" /><path d="M 342.91 416.09 L 336.05 418.33 L 336.68 412.44 Z" stroke="#4682b4" stroke-width="0" fill="#4682b4" /><line x1="322.87" y1="371.91" x2="334.90000000000003" y2="373.72" stroke="#4682b4" stroke-width="1.2" /><path d="M 339.57 374.42 L 334.58 375.82 L 335.21 371.61 Z" stroke="#4682b4" stroke-width="0" fill="#4682b4" /><line x1="326.21" y1="330.25" x2="332.35" y2="331.78000000000003" stroke="#4682b4" stroke-width="1.2" /><path d="M 336.23 332.75 L 331.91 333.53 L 332.79 330.04 Z" stroke="#4682b4" stroke-width="0" fill="#4682b4" /><line x1="329.55" y1="288.58" x2="329.69" y2="288.69" stroke="#4682b4" stroke-width="1.2" /><path d="M 332.89 291.09 L 328.61 290.13 L 330.77 287.25 Z" stroke="#4682b4" stroke-width="0" fill="#4682b4" /><line x1="332.89" y1="246.91" x2="332.75" y2="247.02" stroke="#4682b4" stroke-width="1.2" /><path d="M 329.55 249.42 L 331.67 245.58 L 333.83 248.46 Z" stroke="#4682b4" stroke-width="0" fill="#4682b4" /><line x1="336.23" y1="205.25" x2="330.09000000000003" y2="206.78" stroke="#4682b4" stroke-width="1.2" /><path d="M 326.21 207.75 L 329.66 205.04 L 330.53 208.53 Z" stroke="#4682b4" stroke-width="0" fill="#4682b4" /><line x1="339.57" y1="163.58" x2="327.55" y2="165.38" stroke="#4682b4" stroke-width="1.2" /><path d="M 322.87 166.09 L 327.23 163.28 L 327.86 167.49 Z" stroke="#4682b4" stroke-width="0" fill="#4682b4" /><line x1="342.91" y1="121.91" x2="326.08" y2="123.72" stroke="#4682b4" stroke-width="1.2" /><path d="M 319.54 124.42 L 325.76 120.77 L 326.40 126.66 Z" stroke="#4682b4" stroke-width="0" fill="#4682b4" /><line x1="346.25" y1="80.25" x2="324.61" y2="82.05" stroke="#4682b4" stroke-width="1.2" /><path d="M 316.20 82.75 L 324.30 78.26 L 324.93 85.84 Z" stroke="#4682b4" stroke-width="0" fill="#4682b4" /><line x1="371.75" y1="457.75" x2="393.39" y2="455.95" stroke="#4682b4" stroke-width="1.2" /><path d="M 401.80 455.25 L 393.70 459.74 L 393.07 452.16 Z" stroke="#4682b4" stroke-width="0" fill="#4682b4" /><line x1="375.09000000000003" y1="416.09000000000003" x2="391.92" y2="414.28000000000003" stroke="#4682b4" stroke-width="1.2" /><path d="M 398.46 413.58 L 392.24 417.23 L 391.60 411.34 Z" stroke="#4682b4" stroke-width="0" fill="#4682b4" /><line x1="378.43" y1="374.42" x2="390.45" y2="372.62" stroke="#4682b4" stroke-width="1.2" /><path d="M 395.13 371.91 L 390.77 374.72 L 390.14 370.51 Z" stroke="#4682b4" stroke-width="0" fill="#4682b4" /><line x1="381.77" y1="332.75" x2="387.91" y2="331.22" stroke="#4682b4" stroke-width="1.2" /><path d="M 391.79 330.25 L 388.34 332.96 L 387.47 329.47 Z" stroke="#4682b4" stroke-width="0" fill="#4682b4" /><line x1="385.11" y1="291.09000000000003" x2="385.25" y2="290.98" stroke="#4682b4" stroke-width="1.2" /><path d="M 388.45 288.58 L 386.33 292.42 L 384.17 289.54 Z" stroke="#4682b4" stroke-width="0" fill="#4682b4" /><line x1="388.45" y1="249.42000000000002" x2="388.31" y2="249.31" stroke="#4682b4" stroke-width="1.2" /><path d="M 385.11 246.91 L 389.39 247.87 L 387.23 250.75 Z" stroke="#4682b4" stroke-width="0" fill="#4682b4" /><line x1="391.79" y1="207.75" x2="385.65000000000003" y2="206.22" stroke="#4682b4" stroke-width="1.2" /><path d="M 381.77 205.25 L 386.09 204.47 L 385.21 207.96 Z" stroke="#4682b4" stroke-width="0" fill="#4682b4" /><line x1="395.13" y1="166.09" x2="383.1" y2="164.28" stroke="#4682b4" stroke-width="1.2" /><path d="M 378.43 163.58 L 383.42 162.18 L 382.79 166.39 Z" stroke="#4682b4" stroke-width="0" fill="#4682b4" /><line x1="398.46000000000004" y1="124.42" x2="381.64" y2="122.62" stroke="#4682b4" stroke-width="1.2" /><path d="M 375.09 121.91 L 381.95 119.67 L 381.32 125.56 Z" stroke="#4682b4" stroke-width="0" fill="#4682b4" /><line x1="401.8" y1="82.75" x2="380.17" y2="80.95" stroke="#4682b4" stroke-width="1.2" /><path d="M 371.75 80.25 L 380.48 77.16 L 379.85 84.74 Z" stroke="#4682b4" stroke-width="0" fill="#4682b4" /><line x1="427.31" y1="460.26" x2="448.94" y2="454.85" stroke="#4682b4" stroke-width="1.2" /><path d="M 457.36 452.74 L 449.89 458.63 L 448.00 451.06 Z" stroke="#4682b4" stroke-width="0" fill="#4682b4" /><line x1="430.65000000000003" y1="418.59000000000003" x2="447.48" y2="413.18" stroke="#4682b4" stroke-width="1.2" /><path d="M 454.02 411.08 L 448.42 416.13 L 446.53 410.24 Z" stroke="#4682b4" stroke-width="0" fill="#4682b4" /><line x1="433.99" y1="376.92" x2="446.01" y2="371.51" stroke="#4682b4" stroke-width="1.2" /><path d="M 450.68 369.41 L 446.95 373.62 L 445.06 369.41 Z" stroke="#4682b4" stroke-width="0" fill="#4682b4" /><line x1="437.32" y1="335.26" x2="444.14" y2="330.14" stroke="#4682b4" stroke-width="1.2" /><path d="M 447.34 327.74 L 445.22 331.58 L 443.06 328.70 Z" stroke="#4682b4" stroke-width="0" fill="#4682b4" /><line x1="440.66" y1="293.59000000000003" x2="442.38" y2="289.73" stroke="#4682b4" stroke-width="1.2" /><path d="M 444.00 286.08 L 444.02 290.46 L 440.73 289.00 Z" stroke="#4682b4" stroke-width="0" fill="#4682b4" /><line x1="444" y1="251.92000000000002" x2="442.29" y2="248.07" stroke="#4682b4" stroke-width="1.2" /><path d="M 440.66 244.41 L 443.93 247.33 L 440.64 248.80 Z" stroke="#4682b4" stroke-width="0" fill="#4682b4" /><line x1="447.34000000000003" y1="210.26" x2="440.52" y2="205.14000000000001" stroke="#4682b4" stroke-width="1.2" /><path d="M 437.32 202.74 L 441.60 203.70 L 439.44 206.58 Z" stroke="#4682b4" stroke-width="0" fill="#4682b4" /><line x1="450.68" y1="168.59" x2="438.66" y2="163.18" stroke="#4682b4" stroke-width="1.2" /><path d="M 433.99 161.08 L 439.61 161.08 L 437.71 165.28 Z" stroke="#4682b4" stroke-width="0" fill="#4682b4" /><line x1="454.02" y1="126.92" x2="437.19" y2="121.51" stroke="#4682b4" stroke-width="1.2" /><path d="M 430.65 119.41 L 438.14 118.57 L 436.24 124.46 Z" stroke="#4682b4" stroke-width="0" fill="#4682b4" /><line x1="457.36" y1="85.26" x2="435.72" y2="79.85000000000001" stroke="#4682b4" stroke-width="1.2" /><path d="M 427.31 77.74 L 436.67 76.06 L 434.78 83.63 Z" stroke="#4682b4" stroke-width="0" fill="#4682b4" /><line x1="482.86" y1="462.76" x2="504.5" y2="453.75" stroke="#4682b4" stroke-width="1.2" /><path d="M 512.91 450.24 L 506.08 457.53 L 502.92 449.96 Z" stroke="#4682b4" stroke-width="0" fill="#4682b4" /><line x1="486.2" y1="421.09000000000003" x2="503.03000000000003" y2="412.08" stroke="#4682b4" stroke-width="1.2" /><path d="M 509.58 408.57 L 504.61 415.02 L 501.45 409.13 Z" stroke="#4682b4" stroke-width="0" fill="#4682b4" /><line x1="489.54" y1="379.43" x2="501.56" y2="370.41" stroke="#4682b4" stroke-width="1.2" /><path d="M 506.24 366.91 L 503.14 372.52 L 499.98 368.31 Z" stroke="#4682b4" stroke-width="0" fill="#4682b4" /><line x1="492.88" y1="337.76" x2="500.09000000000003" y2="328.75" stroke="#4682b4" stroke-width="1.2" /><path d="M 502.90 325.24 L 501.67 330.01 L 498.51 327.48 Z" stroke="#4682b4" stroke-width="0" fill="#4682b4" /><line x1="496.22" y1="296.09000000000003" x2="498.53000000000003" y2="287.44" stroke="#4682b4" stroke-width="1.2" /><path d="M 499.56 283.57 L 500.27 287.90 L 496.79 286.97 Z" stroke="#4682b4" stroke-width="0" fill="#4682b4" /><line x1="499.56" y1="254.43" x2="497.25" y2="245.77" stroke="#4682b4" stroke-width="1.2" /><path d="M 496.22 241.91 L 498.99 245.31 L 495.51 246.23 Z" stroke="#4682b4" stroke-width="0" fill="#4682b4" /><line x1="502.90000000000003" y1="212.76" x2="495.69" y2="203.75" stroke="#4682b4" stroke-width="1.2" /><path d="M 492.88 200.24 L 497.26 202.48 L 494.11 205.01 Z" stroke="#4682b4" stroke-width="0" fill="#4682b4" /><line x1="506.24" y1="171.09" x2="494.22" y2="162.08" stroke="#4682b4" stroke-width="1.2" /><path d="M 489.54 158.57 L 495.79 159.97 L 492.64 164.18 Z" stroke="#4682b4" stroke-width="0" fill="#4682b4" /><line x1="509.58" y1="129.43" x2="492.75" y2="120.41" stroke="#4682b4" stroke-width="1.2" /><path d="M 486.20 116.91 L 494.32 117.47 L 491.17 123.36 Z" stroke="#4682b4" stroke-width="0" fill="#4682b4" /><line x1="512.91" y1="87.76" x2="491.28000000000003" y2="78.75" stroke="#4682b4" stroke-width="1.2" /><path d="M 482.86 75.24 L 492.86 74.96 L 489.70 82.53 Z" stroke="#4682b4" stroke-width="0" fill="#4682b4" /><line x1="538.42" y1="465.27" x2="560.0600000000001" y2="452.64" stroke="#4682b4" stroke-width="1.2" /><path d="M 568.47 447.73 L 562.26 456.43 L 557.85 448.86 Z" stroke="#4682b4" stroke-width="0" fill="#4682b4" /><line x1="541.76" y1="423.6" x2="558.59" y2="410.98" stroke="#4682b4" stroke-width="1.2" /><path d="M 565.13 406.07 L 560.80 413.92 L 556.38 408.03 Z" stroke="#4682b4" stroke-width="0" fill="#4682b4" /><line x1="545.1" y1="381.93" x2="557.12" y2="369.31" stroke="#4682b4" stroke-width="1.2" /><path d="M 561.79 364.40 L 559.33 371.41 L 554.91 367.21 Z" stroke="#4682b4" stroke-width="0" fill="#4682b4" /><line x1="548.44" y1="340.27" x2="555.65" y2="327.64" stroke="#4682b4" stroke-width="1.2" /><path d="M 558.45 322.73 L 557.86 328.91 L 553.44 326.38 Z" stroke="#4682b4" stroke-width="0" fill="#4682b4" /><line x1="551.77" y1="298.6" x2="554.1800000000001" y2="285.98" stroke="#4682b4" stroke-width="1.2" /><path d="M 555.11 281.07 L 556.39 286.40 L 551.97 285.56 Z" stroke="#4682b4" stroke-width="0" fill="#4682b4" /><line x1="555.11" y1="256.93" x2="552.71" y2="244.31" stroke="#4682b4" stroke-width="1.2" /><path d="M 551.77 239.40 L 554.92 243.89 L 550.50 244.73 Z" stroke="#4682b4" stroke-width="0" fill="#4682b4" /><line x1="558.45" y1="215.27" x2="551.24" y2="202.64000000000001" stroke="#4682b4" stroke-width="1.2" /><path d="M 548.44 197.73 L 553.45 201.38 L 549.03 203.91 Z" stroke="#4682b4" stroke-width="0" fill="#4682b4" /><line x1="561.79" y1="173.6" x2="549.77" y2="160.98" stroke="#4682b4" stroke-width="1.2" /><path d="M 545.10 156.07 L 551.98 158.87 L 547.56 163.08 Z" stroke="#4682b4" stroke-width="0" fill="#4682b4" /><line x1="565.13" y1="131.93" x2="548.3000000000001" y2="119.31" stroke="#4682b4" stroke-width="1.2" /><path d="M 541.76 114.40 L 550.51 116.36 L 546.09 122.26 Z" stroke="#4682b4" stroke-width="0" fill="#4682b4" /><line x1="568.47" y1="90.27" x2="546.83" y2="77.64" stroke="#4682b4" stroke-width="1.2" /><path d="M 538.42 72.73 L 549.04 73.86 L 544.62 81.43 Z" stroke="#4682b4" stroke-width="0" fill="#4682b4" /><line x1="593.97" y1="467.77" x2="615.61" y2="451.54" stroke="#4682b4" stroke-width="1.2" /><path d="M 624.03 445.23 L 618.45 455.33 L 612.77 447.75 Z" stroke="#4682b4" stroke-width="0" fill="#4682b4" /><line x1="597.3100000000001" y1="426.1" x2="614.14" y2="409.87" stroke="#4682b4" stroke-width="1.2" /><path d="M 620.69 403.56 L 616.98 412.82 L 611.30 406.93 Z" stroke="#4682b4" stroke-width="0" fill="#4682b4" /><line x1="600.65" y1="384.44" x2="612.67" y2="368.21" stroke="#4682b4" stroke-width="1.2" /><path d="M 617.35 361.90 L 615.51 370.31 L 609.83 366.10 Z" stroke="#4682b4" stroke-width="0" fill="#4682b4" /><line x1="603.99" y1="342.77" x2="611.2" y2="326.54" stroke="#4682b4" stroke-width="1.2" /><path d="M 614.01 320.23 L 614.04 327.80 L 608.36 325.28 Z" stroke="#4682b4" stroke-width="0" fill="#4682b4" /><line x1="607.33" y1="301.1" x2="609.73" y2="284.87" stroke="#4682b4" stroke-width="1.2" /><path d="M 610.67 278.56 L 612.57 285.30 L 606.89 284.45 Z" stroke="#4682b4" stroke-width="0" fill="#4682b4" /><line x1="610.67" y1="259.44" x2="608.27" y2="243.21" stroke="#4682b4" stroke-width="1.2" /><path d="M 607.33 236.90 L 611.11 242.79 L 605.43 243.63 Z" stroke="#4682b4" stroke-width="0" fill="#4682b4" /><line x1="614.01" y1="217.77" x2="606.8000000000001" y2="201.54" stroke="#4682b4" stroke-width="1.2" /><path d="M 603.99 195.23 L 609.64 200.28 L 603.96 202.80 Z" stroke="#4682b4" stroke-width="0" fill="#4682b4" /><line x1="617.35" y1="176.1" x2="605.33" y2="159.87" stroke="#4682b4" stroke-width="1.2" /><path d="M 600.65 153.56 L 608.17 157.77 L 602.49 161.98 Z" stroke="#4682b4" stroke-width="0" fill="#4682b4" /><line x1="620.69" y1="134.44" x2="603.86" y2="118.21000000000001" stroke="#4682b4" stroke-width="1.2" /><path d="M 597.31 111.90 L 606.70 115.26 L 601.02 121.15 Z" stroke="#4682b4" stroke-width="0" fill="#4682b4" /><line x1="624.03" y1="92.77" x2="602.39" y2="76.54" stroke="#4682b4" stroke-width="1.2" /><path d="M 593.97 70.23 L 605.23 72.75 L 599.55 80.33 Z" stroke="#4682b4" stroke-width="0" fill="#4682b4" /></g></svg>