<svg xmlns="http://www.w3.org/2000/svg" width="767" height="545" font-family="DejaVu Sans, Liberation Sans, Arial, sans-serif" fill="black"><rect width="100%" height="100%" fill="white" /><defs><clipPath id="kuva-clip-1"><rect x="59" y="44" width="600" height="450"/></clipPath></defs><line x1="109" y1="44" x2="109" y2="494" stroke="#cccccc" stroke-width="1" /><line x1="234" y1="44" x2="234" y2="494" stroke="#cccccc" stroke-width="1" /><line x1="359" y1="44" x2="359" y2="494" stroke="#cccccc" stroke-width="1" /><line x1="484" y1="44" x2="484" y2="494" stroke="#cccccc" stroke-width="1" /><line x1="609" y1="44" x2="609" y2="494" stroke="#cccccc" stroke-width="1" /><line x1="59" y1="456.5" x2="659" y2="456.5" stroke="#cccccc" stroke-width="1" /><line x1="59" y1="362.75" x2="659" y2="362.75" stroke="#cccccc" stroke-width="1" /><line x1="59" y1="269" x2="659" y2="269" stroke="#cccccc" stroke-width="1" /><line x1="59" y1="175.25" x2="659" y2="175.25" stroke="#cccccc" stroke-width="1" /><line x1="59" y1="81.5" x2="659" y2="81.5" stroke="#cccccc" stroke-width="1" /><line x1="59" y1="494" x2="659" y2="494" stroke="#000000" stroke-width="1" /><line x1="59" y1="44" x2="59" y2="494" stroke="#000000" stroke-width="1" /><line x1="109" y1="494" x2="109" y2="499" stroke="#000000" stroke-width="1" /><text x="109" y="511" font-size="12" text-anchor="middle">-5</text><line x1="234" y1="494" x2="234" y2="499" stroke="#000000" stroke-width="1" /><text x="234" y="511" font-size="12" text-anchor="middle">-2.5</text><line x1="359" y1="494" x2="359" y2="499" stroke="#000000" stroke-width="1" /><text x="359" y="511" font-size="12" text-anchor="middle">0</text><line x1="484" y1="494" x2="484" y2="499" stroke="#000000" stroke-width="1" /><text x="484" y="511" font-size="12" text-anchor="middle">2.5</text><line x1="609" y1="494" x2="609" y2="499" stroke="#000000" stroke-width="1" /><text x="609" y="511" font-size="12" text-anchor="middle">5</text><line x1="54" y1="456.5" x2="59" y2="456.5" stroke="#000000" stroke-width="1" /><text x="51" y="460.7" font-size="12" text-anchor="end">-5</text><line x1="54" y1="362.75" x2="59" y2="362.75" stroke="#000000" stroke-width="1" /><text x="51" y="366.95" font-size="12" text-anchor="end">-2.5</text><line x1="54" y1="269" x2="59" y2="269" stroke="#000000" stroke-width="1" /><text x="51" y="273.2" font-size="12" text-anchor="end">0</text><line x1="54" y1="175.25" x2="59" y2="175.25" stroke="#000000" stroke-width="1" /><text x="51" y="179.45000000000002" font-size="12" text-anchor="end">2.5</text><line x1="54" y1="81.5" x2="59" y2="81.5" stroke="#000000" stroke-width="1" /><text x="51" y="85.7" font-size="12" text-anchor="end">5</text><text x="359" y="538" font-size="14" text-anchor="middle">x</text><text x="15" y="272.5" font-size="14" text-anchor="middle" transform="rotate(-90,15,272.5)">y</text><text x="383.5" y="27.400000000000002" font-size="18" text-anchor="middle">Saddle Point (u = x, v = -y)</text><g clip-path="url(#kuva-clip-1)"><line x1="120.79" y1="465.34000000000003" x2="103.81" y2="452.61" stroke="#fde725" stroke-width="1.2" /><path d="M 97.21 447.66 L 106.04 449.64 L 101.59 455.58 Z" stroke="#fde725" stroke-width="0" fill="#fde725" /><line x1="120.79" y1="429.64" x2="103.81" y2="419.23" stroke="#bfde25" stroke-width="1.2" /><path d="M 97.21 415.18 L 105.64 416.26 L 101.99 422.20 Z" stroke="#bfde25" stroke-width="0" fill="#bfde25" /><line x1="120.79" y1="393.94" x2="103.81" y2="385.84000000000003" stroke="#87d548" stroke-width="1.2" /><path d="M 97.21 382.69 L 105.23 382.87 L 102.40 388.81 Z" stroke="#87d548" stroke-width="0" fill="#87d548" /><line x1="120.79" y1="358.24" x2="103.81" y2="352.46" stroke="#5ec961" stroke-width="1.2" /><path d="M 97.21 350.21 L 104.83 349.49 L 102.80 355.43 Z" stroke="#5ec961" stroke-width="0" fill="#5ec961" /><line x1="120.79" y1="322.55" x2="103.81" y2="319.08" stroke="#46c06e" stroke-width="1.2" /><path d="M 97.21 317.73 L 104.42 316.11 L 103.21 322.05 Z" stroke="#46c06e" stroke-width="0" fill="#46c06e" /><line x1="120.79" y1="286.85" x2="103.81" y2="285.69" stroke="#3aba75" stroke-width="1.2" /><path d="M 97.21 285.24 L 104.02 282.72 L 103.61 288.66 Z" stroke="#3aba75" stroke-width="0" fill="#3aba75" /><line x1="120.79" y1="251.15" x2="103.81" y2="252.31" stroke="#3aba75" stroke-width="1.2" /><path d="M 97.21 252.76 L 103.61 249.34 L 104.02 255.28 Z" stroke="#3aba75" stroke-width="0" fill="#3aba75" /><line x1="120.79" y1="215.45000000000002" x2="103.81" y2="218.92000000000002" stroke="#46c06e" stroke-width="1.2" /><path d="M 97.21 220.27 L 103.21 215.95 L 104.42 221.89 Z" stroke="#46c06e" stroke-width="0" fill="#46c06e" /><line x1="120.79" y1="179.76" x2="103.81" y2="185.54" stroke="#5ec961" stroke-width="1.2" /><path d="M 97.21 187.79 L 102.80 182.57 L 104.83 188.51 Z" stroke="#5ec961" stroke-width="0" fill="#5ec961" /><line x1="120.79" y1="144.06" x2="103.81" y2="152.16" stroke="#87d548" stroke-width="1.2" /><path d="M 97.21 155.31 L 102.40 149.19 L 105.23 155.13 Z" stroke="#87d548" stroke-width="0" fill="#87d548" /><line x1="120.79" y1="108.36" x2="103.81" y2="118.77" stroke="#bfde25" stroke-width="1.2" /><path d="M 97.21 122.82 L 101.99 115.80 L 105.64 121.74 Z" stroke="#bfde25" stroke-width="0" fill="#bfde25" /><line x1="120.79" y1="72.66" x2="103.81" y2="85.39" stroke="#fde725" stroke-width="1.2" /><path d="M 97.21 90.34 L 101.59 82.42 L 106.04 88.36 Z" stroke="#fde725" stroke-width="0" fill="#fde725" /><line x1="164.1" y1="465.34000000000003" x2="150.21" y2="452.61" stroke="#bfde25" stroke-width="1.2" /><path d="M 144.81 447.66 L 152.44 450.18 L 147.98 455.04 Z" stroke="#bfde25" stroke-width="0" fill="#bfde25" /><line x1="164.1" y1="429.64" x2="150.21" y2="419.23" stroke="#79d151" stroke-width="1.2" /><path d="M 144.81 415.18 L 152.03 416.80 L 148.39 421.66 Z" stroke="#79d151" stroke-width="0" fill="#79d151" /><line x1="164.1" y1="393.94" x2="150.21" y2="385.84000000000003" stroke="#46c06e" stroke-width="1.2" /><path d="M 144.81 382.69 L 151.63 383.41 L 148.79 388.27 Z" stroke="#46c06e" stroke-width="0" fill="#46c06e" /><line x1="164.1" y1="358.24" x2="150.21" y2="352.46" stroke="#28ae7f" stroke-width="1.2" /><path d="M 144.81 350.21 L 151.22 350.03 L 149.20 354.89 Z" stroke="#28ae7f" stroke-width="0" fill="#28ae7f" /><line x1="164.1" y1="322.55" x2="150.21" y2="319.08" stroke="#1fa187" stroke-width="1.2" /><path d="M 144.81 317.73 L 150.82 316.65 L 149.60 321.51 Z" stroke="#1fa187" stroke-width="0" fill="#1fa187" /><line x1="164.1" y1="286.85" x2="150.21" y2="285.69" stroke="#1e998a" stroke-width="1.2" /><path d="M 144.81 285.24 L 150.41 283.26 L 150.01 288.12 Z" stroke="#1e998a" stroke-width="0" fill="#1e998a" /><line x1="164.1" y1="251.15" x2="150.21" y2="252.31" stroke="#1e998a" stroke-width="1.2" /><path d="M 144.81 252.76 L 150.01 249.88 L 150.41 254.74 Z" stroke="#1e998a" stroke-width="0" fill="#1e998a" /><line x1="164.1" y1="215.45000000000002" x2="150.21" y2="218.92000000000002" stroke="#1fa187" stroke-width="1.2" /><path d="M 144.81 220.27 L 149.60 216.49 L 150.82 221.35 Z" stroke="#1fa187" stroke-width="0" fill="#1fa187" /><line x1="164.1" y1="179.76" x2="150.21" y2="185.54" stroke="#28ae7f" stroke-width="1.2" /><path d="M 144.81 187.79 L 149.20 183.11 L 151.22 187.97 Z" stroke="#28ae7f" stroke-width="0" fill="#28ae7f" /><line x1="164.1" y1="144.06" x2="150.21" y2="152.16" stroke="#46c06e" stroke-width="1.2" /><path d="M 144.81 155.31 L 148.79 149.73 L 151.63 154.59 Z" stroke="#46c06e" stroke-width="0" fill="#46c06e" /><line x1="164.1" y1="108.36" x2="150.21" y2="118.77" stroke="#79d151" stroke-width="1.2" /><path d="M 144.81 122.82 L 148.39 116.34 L 152.03 121.20 Z" stroke="#79d151" stroke-width="0" fill="#79d151" /><line x1="164.1" y1="72.66" x2="150.21" y2="85.39" stroke="#bfde25" stroke-width="1.2" /><path d="M 144.81 90.34 L 147.98 82.96 L 152.44 87.82 Z" stroke="#bfde25" stroke-width="0" fill="#bfde25" /><line x1="207.41" y1="465.34000000000003" x2="196.61" y2="452.61" stroke="#87d548" stroke-width="1.2" /><path d="M 192.41 447.66 L 198.84 450.72 L 194.38 454.50 Z" stroke="#87d548" stroke-width="0" fill="#87d548" /><line x1="207.41" y1="429.64" x2="196.61" y2="419.23" stroke="#46c06e" stroke-width="1.2" /><path d="M 192.41 415.18 L 198.43 417.34 L 194.79 421.12 Z" stroke="#46c06e" stroke-width="0" fill="#46c06e" /><line x1="207.41" y1="393.94" x2="196.61" y2="385.84000000000003" stroke="#22a884" stroke-width="1.2" /><path d="M 192.41 382.69 L 198.03 383.95 L 195.19 387.73 Z" stroke="#22a884" stroke-width="0" fill="#22a884" /><line x1="207.41" y1="358.24" x2="196.61" y2="352.46" stroke="#20928c" stroke-width="1.2" /><path d="M 192.41 350.21 L 197.62 350.57 L 195.60 354.35 Z" stroke="#20928c" stroke-width="0" fill="#20928c" /><line x1="207.41" y1="322.55" x2="196.61" y2="319.08" stroke="#26818e" stroke-width="1.2" /><path d="M 192.41 317.73 L 197.22 317.19 L 196.00 320.97 Z" stroke="#26818e" stroke-width="0" fill="#26818e" /><line x1="207.41" y1="286.85" x2="196.61" y2="285.69" stroke="#29788e" stroke-width="1.2" /><path d="M 192.41 285.24 L 196.81 283.80 L 196.41 287.58 Z" stroke="#29788e" stroke-width="0" fill="#29788e" /><line x1="207.41" y1="251.15" x2="196.61" y2="252.31" stroke="#29788e" stroke-width="1.2" /><path d="M 192.41 252.76 L 196.41 250.42 L 196.81 254.20 Z" stroke="#29788e" stroke-width="0" fill="#29788e" /><line x1="207.41" y1="215.45000000000002" x2="196.61" y2="218.92000000000002" stroke="#26818e" stroke-width="1.2" /><path d="M 192.41 220.27 L 196.00 217.03 L 197.22 220.81 Z" stroke="#26818e" stroke-width="0" fill="#26818e" /><line x1="207.41" y1="179.76" x2="196.61" y2="185.54" stroke="#20928c" stroke-width="1.2" /><path d="M 192.41 187.79 L 195.60 183.65 L 197.62 187.43 Z" stroke="#20928c" stroke-width="0" fill="#20928c" /><line x1="207.41" y1="144.06" x2="196.61" y2="152.16" stroke="#22a884" stroke-width="1.2" /><path d="M 192.41 155.31 L 195.19 150.27 L 198.03 154.05 Z" stroke="#22a884" stroke-width="0" fill="#22a884" /><line x1="207.41" y1="108.36" x2="196.61" y2="118.77" stroke="#46c06e" stroke-width="1.2" /><path d="M 192.41 122.82 L 194.79 116.88 L 198.43 120.66 Z" stroke="#46c06e" stroke-width="0" fill="#46c06e" /><line x1="207.41" y1="72.66" x2="196.61" y2="85.39" stroke="#87d548" stroke-width="1.2" /><path d="M 192.41 90.34 L 194.38 83.50 L 198.84 87.28 Z" stroke="#87d548" stroke-width="0" fill="#87d548" /><line x1="250.72" y1="465.34000000000003" x2="243.01" y2="452.61" stroke="#5ec961" stroke-width="1.2" /><path d="M 240.01 447.66 L 245.23 451.26 L 240.78 453.96 Z" stroke="#5ec961" stroke-width="0" fill="#5ec961" /><line x1="250.72" y1="429.64" x2="243.01" y2="419.23" stroke="#28ae7f" stroke-width="1.2" /><path d="M 240.01 415.18 L 244.83 417.88 L 241.18 420.58 Z" stroke="#28ae7f" stroke-width="0" fill="#28ae7f" /><line x1="250.72" y1="393.94" x2="243.01" y2="385.84000000000003" stroke="#20928c" stroke-width="1.2" /><path d="M 240.01 382.69 L 244.42 384.49 L 241.59 387.19 Z" stroke="#20928c" stroke-width="0" fill="#20928c" /><line x1="250.72" y1="358.24" x2="243.21" y2="352.61" stroke="#29788e" stroke-width="1.2" /><path d="M 240.01 350.21 L 244.29 351.17 L 242.13 354.05 Z" stroke="#29788e" stroke-width="0" fill="#29788e" /><line x1="250.72" y1="322.55" x2="243.65" y2="319.37" stroke="#32628d" stroke-width="1.2" /><path d="M 240.01 317.73 L 244.39 317.73 L 242.92 321.01 Z" stroke="#32628d" stroke-width="0" fill="#32628d" /><line x1="250.72" y1="286.85" x2="243.96" y2="285.84000000000003" stroke="#39548b" stroke-width="1.2" /><path d="M 240.01 285.24 L 244.23 284.06 L 243.70 287.62 Z" stroke="#39548b" stroke-width="0" fill="#39548b" /><line x1="250.72" y1="251.15" x2="243.96" y2="252.16" stroke="#39548b" stroke-width="1.2" /><path d="M 240.01 252.76 L 243.70 250.38 L 244.23 253.94 Z" stroke="#39548b" stroke-width="0" fill="#39548b" /><line x1="250.72" y1="215.45000000000002" x2="243.65" y2="218.63" stroke="#32628d" stroke-width="1.2" /><path d="M 240.01 220.27 L 242.92 216.99 L 244.39 220.27 Z" stroke="#32628d" stroke-width="0" fill="#32628d" /><line x1="250.72" y1="179.76" x2="243.21" y2="185.39000000000001" stroke="#29788e" stroke-width="1.2" /><path d="M 240.01 187.79 L 242.13 183.95 L 244.29 186.83 Z" stroke="#29788e" stroke-width="0" fill="#29788e" /><line x1="250.72" y1="144.06" x2="243.01" y2="152.16" stroke="#20928c" stroke-width="1.2" /><path d="M 240.01 155.31 L 241.59 150.81 L 244.42 153.51 Z" stroke="#20928c" stroke-width="0" fill="#20928c" /><line x1="250.72" y1="108.36" x2="243.01" y2="118.77" stroke="#28ae7f" stroke-width="1.2" /><path d="M 240.01 122.82 L 241.18 117.42 L 244.83 120.12 Z" stroke="#28ae7f" stroke-width="0" fill="#28ae7f" /><line x1="250.72" y1="72.66" x2="243.01" y2="85.39" stroke="#5ec961" stroke-width="1.2" /><path d="M 240.01 90.34 L 240.78 84.04 L 245.23 86.74 Z" stroke="#5ec961" stroke-width="0" fill="#5ec961" /><line x1="294.03000000000003" y1="465.34000000000003" x2="289.40000000000003" y2="452.61" stroke="#46c06e" stroke-width="1.2" /><path d="M 287.60 447.66 L 291.63 451.80 L 287.18 453.42 Z" stroke="#46c06e" stroke-width="0" fill="#46c06e" /><line x1="294.03000000000003" y1="429.64" x2="289.40000000000003" y2="419.23" stroke="#1fa187" stroke-width="1.2" /><path d="M 287.60 415.18 L 291.23 418.42 L 287.58 420.04 Z" stroke="#1fa187" stroke-width="0" fill="#1fa187" /><line x1="294.03000000000003" y1="393.94" x2="289.59000000000003" y2="386.17" stroke="#26818e" stroke-width="1.2" /><path d="M 287.60 382.69 L 291.15 385.27 L 288.03 387.06 Z" stroke="#26818e" stroke-width="0" fill="#26818e" /><line x1="294.03000000000003" y1="358.24" x2="290.1" y2="353.33" stroke="#32628d" stroke-width="1.2" /><path d="M 287.60 350.21 L 291.51 352.21 L 288.70 354.46 Z" stroke="#32628d" stroke-width="0" fill="#32628d" /><line x1="294.03000000000003" y1="322.55" x2="290.8" y2="320.13" stroke="#404387" stroke-width="1.2" /><path d="M 287.60 317.73 L 291.88 318.69 L 289.72 321.57 Z" stroke="#404387" stroke-width="0" fill="#404387" /><line x1="294.03000000000003" y1="286.85" x2="291.48" y2="286.21" stroke="#472c7a" stroke-width="1.2" /><path d="M 287.60 285.24 L 291.92 284.47 L 291.05 287.96 Z" stroke="#472c7a" stroke-width="0" fill="#472c7a" /><line x1="294.03000000000003" y1="251.15" x2="291.48" y2="251.79" stroke="#472c7a" stroke-width="1.2" /><path d="M 287.60 252.76 L 291.05 250.04 L 291.92 253.53 Z" stroke="#472c7a" stroke-width="0" fill="#472c7a" /><line x1="294.03000000000003" y1="215.45000000000002" x2="290.8" y2="217.87" stroke="#404387" stroke-width="1.2" /><path d="M 287.60 220.27 L 289.72 216.43 L 291.88 219.31 Z" stroke="#404387" stroke-width="0" fill="#404387" /><line x1="294.03000000000003" y1="179.76" x2="290.1" y2="184.67000000000002" stroke="#32628d" stroke-width="1.2" /><path d="M 287.60 187.79 L 288.70 183.54 L 291.51 185.79 Z" stroke="#32628d" stroke-width="0" fill="#32628d" /><line x1="294.03000000000003" y1="144.06" x2="289.59000000000003" y2="151.83" stroke="#26818e" stroke-width="1.2" /><path d="M 287.60 155.31 L 288.03 150.94 L 291.15 152.73 Z" stroke="#26818e" stroke-width="0" fill="#26818e" /><line x1="294.03000000000003" y1="108.36" x2="289.40000000000003" y2="118.77" stroke="#1fa187" stroke-width="1.2" /><path d="M 287.60 122.82 L 287.58 117.96 L 291.23 119.58 Z" stroke="#1fa187" stroke-width="0" fill="#1fa187" /><line x1="294.03000000000003" y1="72.66" x2="289.40000000000003" y2="85.39" stroke="#46c06e" stroke-width="1.2" /><path d="M 287.60 90.34 L 287.18 84.58 L 291.63 86.20 Z" stroke="#46c06e" stroke-width="0" fill="#46c06e" /><line x1="337.34000000000003" y1="465.34000000000003" x2="335.8" y2="452.61" stroke="#3aba75" stroke-width="1.2" /><path d="M 335.20 447.66 L 338.03 452.34 L 333.57 452.88 Z" stroke="#3aba75" stroke-width="0" fill="#3aba75" /><line x1="337.34000000000003" y1="429.64" x2="335.8" y2="419.23" stroke="#1e998a" stroke-width="1.2" /><path d="M 335.20 415.18 L 337.62 418.96 L 333.98 419.50 Z" stroke="#1e998a" stroke-width="0" fill="#1e998a" /><line x1="337.34000000000003" y1="393.94" x2="335.95" y2="386.62" stroke="#29788e" stroke-width="1.2" /><path d="M 335.20 382.69 L 337.72 386.29 L 334.18 386.96 Z" stroke="#29788e" stroke-width="0" fill="#29788e" /><line x1="337.34000000000003" y1="358.24" x2="336.23" y2="354.07" stroke="#39548b" stroke-width="1.2" /><path d="M 335.20 350.21 L 337.97 353.61 L 334.49 354.54 Z" stroke="#39548b" stroke-width="0" fill="#39548b" /><line x1="337.34000000000003" y1="322.55" x2="336.83" y2="321.38" stroke="#472c7a" stroke-width="1.2" /><path d="M 335.20 317.73 L 338.47 320.65 L 335.18 322.11 Z" stroke="#472c7a" stroke-width="0" fill="#472c7a" /><line x1="337.34000000000003" y1="286.85" x2="337.34000000000003" y2="286.85" stroke="#440154" stroke-width="1.2" /><path d="M 335.20 285.24 L 338.07 285.88 L 336.62 287.81 Z" stroke="#440154" stroke-width="0" fill="#440154" /><line x1="337.34000000000003" y1="251.15" x2="337.34000000000003" y2="251.15" stroke="#440154" stroke-width="1.2" /><path d="M 335.20 252.76 L 336.62 250.19 L 338.07 252.12 Z" stroke="#440154" stroke-width="0" fill="#440154" /><line x1="337.34000000000003" y1="215.45000000000002" x2="336.83" y2="216.62" stroke="#472c7a" stroke-width="1.2" /><path d="M 335.20 220.27 L 335.18 215.89 L 338.47 217.35 Z" stroke="#472c7a" stroke-width="0" fill="#472c7a" /><line x1="337.34000000000003" y1="179.76" x2="336.23" y2="183.93" stroke="#39548b" stroke-width="1.2" /><path d="M 335.20 187.79 L 334.49 183.46 L 337.97 184.39 Z" stroke="#39548b" stroke-width="0" fill="#39548b" /><line x1="337.34000000000003" y1="144.06" x2="335.95" y2="151.38" stroke="#29788e" stroke-width="1.2" /><path d="M 335.20 155.31 L 334.18 151.04 L 337.72 151.71 Z" stroke="#29788e" stroke-width="0" fill="#29788e" /><line x1="337.34000000000003" y1="108.36" x2="335.8" y2="118.77" stroke="#1e998a" stroke-width="1.2" /><path d="M 335.20 122.82 L 333.98 118.50 L 337.62 119.04 Z" stroke="#1e998a" stroke-width="0" fill="#1e998a" /><line x1="337.34000000000003" y1="72.66" x2="335.8" y2="85.39" stroke="#3aba75" stroke-width="1.2" /><path d="M 335.20 90.34 L 333.57 85.12 L 338.03 85.66 Z" stroke="#3aba75" stroke-width="0" fill="#3aba75" /><line x1="380.66" y1="465.34000000000003" x2="382.2" y2="452.61" stroke="#3aba75" stroke-width="1.2" /><path d="M 382.80 447.66 L 384.43 452.88 L 379.97 452.34 Z" stroke="#3aba75" stroke-width="0" fill="#3aba75" /><line x1="380.66" y1="429.64" x2="382.2" y2="419.23" stroke="#1e998a" stroke-width="1.2" /><path d="M 382.80 415.18 L 384.02 419.50 L 380.38 418.96 Z" stroke="#1e998a" stroke-width="0" fill="#1e998a" /><line x1="380.66" y1="393.94" x2="382.05" y2="386.62" stroke="#29788e" stroke-width="1.2" /><path d="M 382.80 382.69 L 383.82 386.96 L 380.28 386.29 Z" stroke="#29788e" stroke-width="0" fill="#29788e" /><line x1="380.66" y1="358.24" x2="381.77" y2="354.07" stroke="#39548b" stroke-width="1.2" /><path d="M 382.80 350.21 L 383.51 354.54 L 380.03 353.61 Z" stroke="#39548b" stroke-width="0" fill="#39548b" /><line x1="380.66" y1="322.55" x2="381.17" y2="321.38" stroke="#472c7a" stroke-width="1.2" /><path d="M 382.80 317.73 L 382.82 322.11 L 379.53 320.65 Z" stroke="#472c7a" stroke-width="0" fill="#472c7a" /><line x1="380.66" y1="286.85" x2="380.66" y2="286.85" stroke="#440154" stroke-width="1.2" /><path d="M 382.80 285.24 L 381.38 287.81 L 379.93 285.88 Z" stroke="#440154" stroke-width="0" fill="#440154" /><line x1="380.66" y1="251.15" x2="380.66" y2="251.15" stroke="#440154" stroke-width="1.2" /><path d="M 382.80 252.76 L 379.93 252.12 L 381.38 250.19 Z" stroke="#440154" stroke-width="0" fill="#440154" /><line x1="380.66" y1="215.45000000000002" x2="381.17" y2="216.62" stroke="#472c7a" stroke-width="1.2" /><path d="M 382.80 220.27 L 379.53 217.35 L 382.82 215.89 Z" stroke="#472c7a" stroke-width="0" fill="#472c7a" /><line x1="380.66" y1="179.76" x2="381.77" y2="183.93" stroke="#39548b" stroke-width="1.2" /><path d="M 382.80 187.79 L 380.03 184.39 L 383.51 183.46 Z" stroke="#39548b" stroke-width="0" fill="#39548b" /><line x1="380.66" y1="144.06" x2="382.05" y2="151.38" stroke="#29788e" stroke-width="1.2" /><path d="M 382.80 155.31 L 380.28 151.71 L 383.82 151.04 Z" stroke="#29788e" stroke-width="0" fill="#29788e" /><line x1="380.66" y1="108.36" x2="382.2" y2="118.77" stroke="#1e998a" stroke-width="1.2" /><path d="M 382.80 122.82 L 380.38 119.04 L 384.02 118.50 Z" stroke="#1e998a" stroke-width="0" fill="#1e998a" /><line x1="380.66" y1="72.66" x2="382.2" y2="85.39" stroke="#3aba75" stroke-width="1.2" /><path d="M 382.80 90.34 L 379.97 85.66 L 384.43 85.12 Z" stroke="#3aba75" stroke-width="0" fill="#3aba75" /><line x1="423.97" y1="465.34000000000003" x2="428.6" y2="452.61" stroke="#46c06e" stroke-width="1.2" /><path d="M 430.40 447.66 L 430.82 453.42 L 426.37 451.80 Z" stroke="#46c06e" stroke-width="0" fill="#46c06e" /><line x1="423.97" y1="429.64" x2="428.6" y2="419.23" stroke="#1fa187" stroke-width="1.2" /><path d="M 430.40 415.18 L 430.42 420.04 L 426.77 418.42 Z" stroke="#1fa187" stroke-width="0" fill="#1fa187" /><line x1="423.97" y1="393.94" x2="428.41" y2="386.17" stroke="#26818e" stroke-width="1.2" /><path d="M 430.40 382.69 L 429.97 387.06 L 426.85 385.27 Z" stroke="#26818e" stroke-width="0" fill="#26818e" /><line x1="423.97" y1="358.24" x2="427.90000000000003" y2="353.33" stroke="#32628d" stroke-width="1.2" /><path d="M 430.40 350.21 L 429.30 354.46 L 426.49 352.21 Z" stroke="#32628d" stroke-width="0" fill="#32628d" /><line x1="423.97" y1="322.55" x2="427.2" y2="320.13" stroke="#404387" stroke-width="1.2" /><path d="M 430.40 317.73 L 428.28 321.57 L 426.12 318.69 Z" stroke="#404387" stroke-width="0" fill="#404387" /><line x1="423.97" y1="286.85" x2="426.52" y2="286.21" stroke="#472c7a" stroke-width="1.2" /><path d="M 430.40 285.24 L 426.95 287.96 L 426.08 284.47 Z" stroke="#472c7a" stroke-width="0" fill="#472c7a" /><line x1="423.97" y1="251.15" x2="426.52" y2="251.79" stroke="#472c7a" stroke-width="1.2" /><path d="M 430.40 252.76 L 426.08 253.53 L 426.95 250.04 Z" stroke="#472c7a" stroke-width="0" fill="#472c7a" /><line x1="423.97" y1="215.45000000000002" x2="427.2" y2="217.87" stroke="#404387" stroke-width="1.2" /><path d="M 430.40 220.27 L 426.12 219.31 L 428.28 216.43 Z" stroke="#404387" stroke-width="0" fill="#404387" /><line x1="423.97" y1="179.76" x2="427.90000000000003" y2="184.67000000000002" stroke="#32628d" stroke-width="1.2" /><path d="M 430.40 187.79 L 426.49 185.79 L 429.30 183.54 Z" stroke="#32628d" stroke-width="0" fill="#32628d" /><line x1="423.97" y1="144.06" x2="428.41" y2="151.83" stroke="#26818e" stroke-width="1.2" /><path d="M 430.40 155.31 L 426.85 152.73 L 429.97 150.94 Z" stroke="#26818e" stroke-width="0" fill="#26818e" /><line x1="423.97" y1="108.36" x2="428.6" y2="118.77" stroke="#1fa187" stroke-width="1.2" /><path d="M 430.40 122.82 L 426.77 119.58 L 430.42 117.96 Z" stroke="#1fa187" stroke-width="0" fill="#1fa187" /><line x1="423.97" y1="72.66" x2="428.6" y2="85.39" stroke="#46c06e" stroke-width="1.2" /><path d="M 430.40 90.34 L 426.37 86.20 L 430.82 84.58 Z" stroke="#46c06e" stroke-width="0" fill="#46c06e" /><line x1="467.28000000000003" y1="465.34000000000003" x2="474.99" y2="452.61" stroke="#5ec961" stroke-width="1.2" /><path d="M 477.99 447.66 L 477.22 453.96 L 472.77 451.26 Z" stroke="#5ec961" stroke-width="0" fill="#5ec961" /><line x1="467.28000000000003" y1="429.64" x2="474.99" y2="419.23" stroke="#28ae7f" stroke-width="1.2" /><path d="M 477.99 415.18 L 476.82 420.58 L 473.17 417.88 Z" stroke="#28ae7f" stroke-width="0" fill="#28ae7f" /><line x1="467.28000000000003" y1="393.94" x2="474.99" y2="385.84000000000003" stroke="#20928c" stroke-width="1.2" /><path d="M 477.99 382.69 L 476.41 387.19 L 473.58 384.49 Z" stroke="#20928c" stroke-width="0" fill="#20928c" /><line x1="467.28000000000003" y1="358.24" x2="474.79" y2="352.61" stroke="#29788e" stroke-width="1.2" /><path d="M 477.99 350.21 L 475.87 354.05 L 473.71 351.17 Z" stroke="#29788e" stroke-width="0" fill="#29788e" /><line x1="467.28000000000003" y1="322.55" x2="474.35" y2="319.37" stroke="#32628d" stroke-width="1.2" /><path d="M 477.99 317.73 L 475.08 321.01 L 473.61 317.73 Z" stroke="#32628d" stroke-width="0" fill="#32628d" /><line x1="467.28000000000003" y1="286.85" x2="474.04" y2="285.84000000000003" stroke="#39548b" stroke-width="1.2" /><path d="M 477.99 285.24 L 474.30 287.62 L 473.77 284.06 Z" stroke="#39548b" stroke-width="0" fill="#39548b" /><line x1="467.28000000000003" y1="251.15" x2="474.04" y2="252.16" stroke="#39548b" stroke-width="1.2" /><path d="M 477.99 252.76 L 473.77 253.94 L 474.30 250.38 Z" stroke="#39548b" stroke-width="0" fill="#39548b" /><line x1="467.28000000000003" y1="215.45000000000002" x2="474.35" y2="218.63" stroke="#32628d" stroke-width="1.2" /><path d="M 477.99 220.27 L 473.61 220.27 L 475.08 216.99 Z" stroke="#32628d" stroke-width="0" fill="#32628d" /><line x1="467.28000000000003" y1="179.76" x2="474.79" y2="185.39000000000001" stroke="#29788e" stroke-width="1.2" /><path d="M 477.99 187.79 L 473.71 186.83 L 475.87 183.95 Z" stroke="#29788e" stroke-width="0" fill="#29788e" /><line x1="467.28000000000003" y1="144.06" x2="474.99" y2="152.16" stroke="#20928c" stroke-width="1.2" /><path d="M 477.99 155.31 L 473.58 153.51 L 476.41 150.81 Z" stroke="#20928c" stroke-width="0" fill="#20928c" /><line x1="467.28000000000003" y1="108.36" x2="474.99" y2="118.77" stroke="#28ae7f" stroke-width="1.2" /><path d="M 477.99 122.82 L 473.17 120.12 L 476.82 117.42 Z" stroke="#28ae7f" stroke-width="0" fill="#28ae7f" /><line x1="467.28000000000003" y1="72.66" x2="474.99" y2="85.39" stroke="#5ec961" stroke-width="1.2" /><path d="M 477.99 90.34 L 472.77 86.74 L 477.22 84.04 Z" stroke="#5ec961" stroke-width="0" fill="#5ec961" /><line x1="510.59000000000003" y1="465.34000000000003" x2="521.39" y2="452.61" stroke="#87d548" stroke-width="1.2" /><path d="M 525.59 447.66 L 523.62 454.50 L 519.16 450.72 Z" stroke="#87d548" stroke-width="0" fill="#87d548" /><line x1="510.59000000000003" y1="429.64" x2="521.39" y2="419.23" stroke="#46c06e" stroke-width="1.2" /><path d="M 525.59 415.18 L 523.21 421.12 L 519.57 417.34 Z" stroke="#46c06e" stroke-width="0" fill="#46c06e" /><line x1="510.59000000000003" y1="393.94" x2="521.39" y2="385.84000000000003" stroke="#22a884" stroke-width="1.2" /><path d="M 525.59 382.69 L 522.81 387.73 L 519.97 383.95 Z" stroke="#22a884" stroke-width="0" fill="#22a884" /><line x1="510.59000000000003" y1="358.24" x2="521.39" y2="352.46" stroke="#20928c" stroke-width="1.2" /><path d="M 525.59 350.21 L 522.40 354.35 L 520.38 350.57 Z" stroke="#20928c" stroke-width="0" fill="#20928c" /><line x1="510.59000000000003" y1="322.55" x2="521.39" y2="319.08" stroke="#26818e" stroke-width="1.2" /><path d="M 525.59 317.73 L 522.00 320.97 L 520.78 317.19 Z" stroke="#26818e" stroke-width="0" fill="#26818e" /><line x1="510.59000000000003" y1="286.85" x2="521.39" y2="285.69" stroke="#29788e" stroke-width="1.2" /><path d="M 525.59 285.24 L 521.59 287.58 L 521.19 283.80 Z" stroke="#29788e" stroke-width="0" fill="#29788e" /><line x1="510.59000000000003" y1="251.15" x2="521.39" y2="252.31" stroke="#29788e" stroke-width="1.2" /><path d="M 525.59 252.76 L 521.19 254.20 L 521.59 250.42 Z" stroke="#29788e" stroke-width="0" fill="#29788e" /><line x1="510.59000000000003" y1="215.45000000000002" x2="521.39" y2="218.92000000000002" stroke="#26818e" stroke-width="1.2" /><path d="M 525.59 220.27 L 520.78 220.81 L 522.00 217.03 Z" stroke="#26818e" stroke-width="0" fill="#26818e" /><line x1="510.59000000000003" y1="179.76" x2="521.39" y2="185.54" stroke="#20928c" stroke-width="1.2" /><path d="M 525.59 187.79 L 520.38 187.43 L 522.40 183.65 Z" stroke="#20928c" stroke-width="0" fill="#20928c" /><line x1="510.59000000000003" y1="144.06" x2="521.39" y2="152.16" stroke="#22a884" stroke-width="1.2" /><path d="M 525.59 155.31 L 519.97 154.05 L 522.81 150.27 Z" stroke="#22a884" stroke-width="0" fill="#22a884" /><line x1="510.59000000000003" y1="108.36" x2="521.39" y2="118.77" stroke="#46c06e" stroke-width="1.2" /><path d="M 525.59 122.82 L 519.57 120.66 L 523.21 116.88 Z" stroke="#46c06e" stroke-width="0" fill="#46c06e" /><line x1="510.59000000000003" y1="72.66" x2="521.39" y2="85.39" stroke="#87d548" stroke-width="1.2" /><path d="M 525.59 90.34 L 519.16 87.28 L 523.62 83.50 Z" stroke="#87d548" stroke-width="0" fill="#87d548" /><line x1="553.9" y1="465.34000000000003" x2="567.79" y2="452.61" stroke="#bfde25" stroke-width="1.2" /><path d="M 573.19 447.66 L 570.02 455.04 L 565.56 450.18 Z" stroke="#bfde25" stroke-width="0" fill="#bfde25" /><line x1="553.9" y1="429.64" x2="567.79" y2="419.23" stroke="#79d151" stroke-width="1.2" /><path d="M 573.19 415.18 L 569.61 421.66 L 565.97 416.80 Z" stroke="#79d151" stroke-width="0" fill="#79d151" /><line x1="553.9" y1="393.94" x2="567.79" y2="385.84000000000003" stroke="#46c06e" stroke-width="1.2" /><path d="M 573.19 382.69 L 569.21 388.27 L 566.37 383.41 Z" stroke="#46c06e" stroke-width="0" fill="#46c06e" /><line x1="553.9" y1="358.24" x2="567.79" y2="352.46" stroke="#28ae7f" stroke-width="1.2" /><path d="M 573.19 350.21 L 568.80 354.89 L 566.78 350.03 Z" stroke="#28ae7f" stroke-width="0" fill="#28ae7f" /><line x1="553.9" y1="322.55" x2="567.79" y2="319.08" stroke="#1fa187" stroke-width="1.2" /><path d="M 573.19 317.73 L 568.40 321.51 L 567.18 316.65 Z" stroke="#1fa187" stroke-width="0" fill="#1fa187" /><line x1="553.9" y1="286.85" x2="567.79" y2="285.69" stroke="#1e998a" stroke-width="1.2" /><path d="M 573.19 285.24 L 567.99 288.12 L 567.59 283.26 Z" stroke="#1e998a" stroke-width="0" fill="#1e998a" /><line x1="553.9" y1="251.15" x2="567.79" y2="252.31" stroke="#1e998a" stroke-width="1.2" /><path d="M 573.19 252.76 L 567.59 254.74 L 567.99 249.88 Z" stroke="#1e998a" stroke-width="0" fill="#1e998a" /><line x1="553.9" y1="215.45000000000002" x2="567.79" y2="218.92000000000002" stroke="#1fa187" stroke-width="1.2" /><path d="M 573.19 220.27 L 567.18 221.35 L 568.40 216.49 Z" stroke="#1fa187" stroke-width="0" fill="#1fa187" /><line x1="553.9" y1="179.76" x2="567.79" y2="185.54" stroke="#28ae7f" stroke-width="1.2" /><path d="M 573.19 187.79 L 566.78 187.97 L 568.80 183.11 Z" stroke="#28ae7f" stroke-width="0" fill="#28ae7f" /><line x1="553.9" y1="144.06" x2="567.79" y2="152.16" stroke="#46c06e" stroke-width="1.2" /><path d="M 573.19 155.31 L 566.37 154.59 L 569.21 149.73 Z" stroke="#46c06e" stroke-width="0" fill="#46c06e" /><line x1="553.9" y1="108.36" x2="567.79" y2="118.77" stroke="#79d151" stroke-width="1.2" /><path d="M 573.19 122.82 L 565.97 121.20 L 569.61 116.34 Z" stroke="#79d151" stroke-width="0" fill="#79d151" /><line x1="553.9" y1="72.66" x2="567.79" y2="85.39" stroke="#bfde25" stroke-width="1.2" /><path d="M 573.19 90.34 L 565.56 87.82 L 570.02 82.96 Z" stroke="#bfde25" stroke-width="0" fill="#bfde25" /><line x1="597.21" y1="465.34000000000003" x2="614.19" y2="452.61" stroke="#fde725" stroke-width="1.2" /><path d="M 620.79 447.66 L 616.41 455.58 L 611.96 449.64 Z" stroke="#fde725" stroke-width="0" fill="#fde725" /><line x1="597.21" y1="429.64" x2="614.19" y2="419.23" stroke="#bfde25" stroke-width="1.2" /><path d="M 620.79 415.18 L 616.01 422.20 L 612.36 416.26 Z" stroke="#bfde25" stroke-width="0" fill="#bfde25" /><line x1="597.21" y1="393.94" x2="614.19" y2="385.84000000000003" stroke="#87d548" stroke-width="1.2" /><path d="M 620.79 382.69 L 615.60 388.81 L 612.77 382.87 Z" stroke="#87d548" stroke-width="0" fill="#87d548" /><line x1="597.21" y1="358.24" x2="614.19" y2="352.46" stroke="#5ec961" stroke-width="1.2" /><path d="M 620.79 350.21 L 615.20 355.43 L 613.17 349.49 Z" stroke="#5ec961" stroke-width="0" fill="#5ec961" /><line x1="597.21" y1="322.55" x2="614.19" y2="319.08" stroke="#46c06e" stroke-width="1.2" /><path d="M 620.79 317.73 L 614.79 322.05 L 613.58 316.11 Z" stroke="#46c06e" stroke-width="0" fill="#46c06e" /><line x1="597.21" y1="286.85" x2="614.19" y2="285.69" stroke="#3aba75" stroke-width="1.2" /><path d="M 620.79 285.24 L 614.39 288.66 L 613.98 282.72 Z" stroke="#3aba75" stroke-width="0" fill="#3aba75" /><line x1="597.21" y1="251.15" x2="614.19" y2="252.31" stroke="#3aba75" stroke-width="1.2" /><path d="M 620.79 252.76 L 613.98 255.28 L 614.39 249.34 Z" stroke="#3aba75" stroke-width="0" fill="#3aba75" /><line x1="597.21" y1="215.45000000000002" x2="614.19" y2="218.92000000000002" stroke="#46c06e" stroke-width="1.2" /><path d="M 620.79 220.27 L 613.58 221.89 L 614.79 215.95 Z" stroke="#46c06e" stroke-width="0" fill="#46c06e" /><line x1="597.21" y1="179.76" x2="614.19" y2="185.54" stroke="#5ec961" stroke-width="1.2" /><path d="M 620.79 187.79 L 613.17 188.51 L 615.20 182.57 Z" stroke="#5ec961" stroke-width="0" fill="#5ec961" /><line x1="597.21" y1="144.06" x2="614.19" y2="152.16" stroke="#87d548" stroke-width="1.2" /><path d="M 620.79 155.31 L 612.77 155.13 L 615.60 149.19 Z" stroke="#87d548" stroke-width="0" fill="#87d548" /><line x1="597.21" y1="108.36" x2="614.19" y2="118.77" stroke="#bfde25" stroke-width="1.2" /><path d="M 620.79 122.82 L 612.36 121.74 L 616.01 115.80 Z" stroke="#bfde25" stroke-width="0" fill="#bfde25" /><line x1="597.21" y1="72.66" x2="614.19" y2="85.39" stroke="#fde725" stroke-width="1.2" /><path d="M 620.79 90.34 L 611.96 88.36 L 616.41 82.42 Z" stroke="#fde725" stroke-width="0" fill="#fde725" /></g><rect x="702" y="89" width="20" height="7.7" fill="#fde725" /><rect x="702" y="96.2" width="20" height="7.7" fill="#f0e51c" /><rect x="702" y="103.4" width="20" height="7.7" fill="#e3e318" /><rect x="702" y="110.60000000000001" width="20" height="7.7" fill="#d6e219" /><rect x="702" y="117.8" width="20" height="7.7" fill="#c8e01f" /><rect x="702" y="125" width="20" height="7.7" fill="#bade27" /><rect x="702" y="132.2" width="20" height="7.7" fill="#acdc30" /><rect x="702" y="139.4" width="20" height="7.7" fill="#9ed939" /><rect x="702" y="146.6" width="20" height="7.7" fill="#91d642" /><rect x="702" y="153.8" width="20" height="7.7" fill="#84d44a" /><rect x="702" y="161" width="20" height="7.7" fill="#77d052" /><rect x="702" y="168.20000000000002" width="20" height="7.7" fill="#6bcd5a" /><rect x="702" y="175.4" width="20" height="7.7" fill="#5fc960" /><rect x="702" y="182.6" width="20" height="7.7" fill="#54c567" /><rect x="702" y="189.8" width="20" height="7.7" fill="#4ac16c" /><rect x="702" y="197" width="20" height="7.7" fill="#40bc72" /><rect x="702" y="204.20000000000002" width="20" height="7.7" fill="#37b877" /><rect x="702" y="211.4" width="20" height="7.7" fill="#30b47b" /><rect x="702" y="218.6" width="20" height="7.7" fill="#29af7f" /><rect x="702" y="225.8" width="20" height="7.7" fill="#24ab82" /><rect x="702" y="233" width="20" height="7.7" fill="#21a585" /><rect x="702" y="240.20000000000002" width="20" height="7.7" fill="#1fa187" /><rect x="702" y="247.4" width="20" height="7.7" fill="#1e9c89" /><rect x="702" y="254.6" width="20" height="7.7" fill="#1f978a" /><rect x="702" y="261.8" width="20" height="7.7" fill="#1f928c" /><rect x="702" y="269" width="20" height="7.7" fill="#218d8d" /><rect x="702" y="276.2" width="20" height="7.7" fill="#23888d" /><rect x="702" y="283.40000000000003" width="20" height="7.7" fill="#25838e" /><rect x="702" y="290.6" width="20" height="7.7" fill="#267f8d" /><rect x="702" y="297.8" width="20" height="7.7" fill="#287a8e" /><rect x="702" y="305" width="20" height="7.7" fill="#2a748d" /><rect x="702" y="312.2" width="20" height="7.7" fill="#2c708e" /><rect x="702" y="319.40000000000003" width="20" height="7.7" fill="#2f6b8e" /><rect x="702" y="326.6" width="20" height="7.7" fill="#31668e" /><rect x="702" y="333.8" width="20" height="7.7" fill="#33618c" /><rect x="702" y="341" width="20" height="7.7" fill="#365b8c" /><rect x="702" y="348.2" width="20" height="7.7" fill="#38558c" /><rect x="702" y="355.40000000000003" width="20" height="7.7" fill="#3b508a" /><rect x="702" y="362.6" width="20" height="7.7" fill="#3d4a89" /><rect x="702" y="369.8" width="20" height="7.7" fill="#404587" /><rect x="702" y="377" width="20" height="7.7" fill="#423e85" /><rect x="702" y="384.2" width="20" height="7.7" fill="#443882" /><rect x="702" y="391.40000000000003" width="20" height="7.7" fill="#46327e" /><rect x="702" y="398.6" width="20" height="7.7" fill="#472c7a" /><rect x="702" y="405.8" width="20" height="7.7" fill="#482576" /><rect x="702" y="413" width="20" height="7.7" fill="#471e6f" /><rect x="702" y="420.2" width="20" height="7.7" fill="#481769" /><rect x="702" y="427.40000000000003" width="20" height="7.7" fill="#471063" /><rect x="702" y="434.6" width="20" height="7.7" fill="#46085c" /><rect x="702" y="441.8" width="20" height="7.7" fill="#440154" /><rect x="702" y="89" width="20" height="360" fill="none" stroke="#000000" stroke-width="1" /><line x1="722" y1="415" x2="726" y2="415" stroke="#000000" stroke-width="1" /><text x="727" y="419" font-size="12" text-anchor="start">0.5</text><line x1="722" y1="344.99" x2="726" y2="344.99" stroke="#000000" stroke-width="1" /><text x="727" y="348.99" font-size="12" text-anchor="start">1</text><line x1="722" y1="274.99" x2="726" y2="274.99" stroke="#000000" stroke-width="1" /><text x="727" y="278.99" font-size="12" text-anchor="start">1.5</text><line x1="722" y1="204.99" x2="726" y2="204.99" stroke="#000000" stroke-width="1" /><text x="727" y="208.99" font-size="12" text-anchor="start">2</text><line x1="722" y1="134.98" x2="726" y2="134.98" stroke="#000000" stroke-width="1" /><text x="727" y="138.98" font-size="12" text-anchor="start">2.5</text><text x="692" y="269" font-size="12" text-anchor="middle" transform="rotate(-90,692,269)">Speed</text></svg>