<svg xmlns="http://www.w3.org/2000/svg" width="771.8000000000001" height="545" font-family="DejaVu Sans, Liberation Sans, Arial, sans-serif" fill="black"><rect width="100%" height="100%" fill="white" /><defs><clipPath id="kuva-clip-1"><rect x="63.800000000000004" y="44" width="600" height="450"/></clipPath></defs><line x1="213.8" y1="44" x2="213.8" y2="494" stroke="#cccccc" stroke-width="1" /><line x1="363.8" y1="44" x2="363.8" y2="494" stroke="#cccccc" stroke-width="1" /><line x1="513.8" y1="44" x2="513.8" y2="494" stroke="#cccccc" stroke-width="1" /><line x1="663.8000000000001" y1="44" x2="663.8000000000001" y2="494" stroke="#cccccc" stroke-width="1" /><line x1="63.800000000000004" y1="381.5" x2="663.8000000000001" y2="381.5" stroke="#cccccc" stroke-width="1" /><line x1="63.800000000000004" y1="269" x2="663.8000000000001" y2="269" stroke="#cccccc" stroke-width="1" /><line x1="63.800000000000004" y1="156.5" x2="663.8000000000001" y2="156.5" stroke="#cccccc" stroke-width="1" /><line x1="63.800000000000004" y1="44" x2="663.8000000000001" y2="44" stroke="#cccccc" stroke-width="1" /><line x1="63.800000000000004" y1="494" x2="663.8000000000001" y2="494" stroke="#000000" stroke-width="1" /><line x1="63.800000000000004" y1="44" x2="63.800000000000004" y2="494" stroke="#000000" stroke-width="1" /><line x1="63.800000000000004" y1="494" x2="63.800000000000004" y2="499" stroke="#000000" stroke-width="1" /><text x="63.800000000000004" y="511" font-size="12" text-anchor="middle">-10</text><line x1="213.8" y1="494" x2="213.8" y2="499" stroke="#000000" stroke-width="1" /><text x="213.8" y="511" font-size="12" text-anchor="middle">-5</text><line x1="363.8" y1="494" x2="363.8" y2="499" stroke="#000000" stroke-width="1" /><text x="363.8" y="511" font-size="12" text-anchor="middle">0</text><line x1="513.8" y1="494" x2="513.8" y2="499" stroke="#000000" stroke-width="1" /><text x="513.8" y="511" font-size="12" text-anchor="middle">5</text><line x1="663.8000000000001" y1="494" x2="663.8000000000001" y2="499" stroke="#000000" stroke-width="1" /><text x="663.8000000000001" y="511" font-size="12" text-anchor="middle">10</text><line x1="58.800000000000004" y1="494" x2="63.800000000000004" y2="494" stroke="#000000" stroke-width="1" /><text x="55.800000000000004" y="498.2" font-size="12" text-anchor="end">-10</text><line x1="58.800000000000004" y1="381.5" x2="63.800000000000004" y2="381.5" stroke="#000000" stroke-width="1" /><text x="55.800000000000004" y="385.7" font-size="12" text-anchor="end">-5</text><line x1="58.800000000000004" y1="269" x2="63.800000000000004" y2="269" stroke="#000000" stroke-width="1" /><text x="55.800000000000004" y="273.2" font-size="12" text-anchor="end">0</text><line x1="58.800000000000004" y1="156.5" x2="63.800000000000004" y2="156.5" stroke="#000000" stroke-width="1" /><text x="55.800000000000004" y="160.70000000000002" font-size="12" text-anchor="end">5</text><line x1="58.800000000000004" y1="44" x2="63.800000000000004" y2="44" stroke="#000000" stroke-width="1" /><text x="55.800000000000004" y="48.2" font-size="12" text-anchor="end">10</text><text x="363.8" y="538" font-size="14" text-anchor="middle">x</text><text x="15" y="272.5" font-size="14" text-anchor="middle" transform="rotate(-90,15,272.5)">y</text><text x="385.90000000000003" y="27.400000000000002" font-size="18" text-anchor="middle">Saddle Point (u = x, v = -y)</text><g clip-path="url(#kuva-clip-1)"><line x1="298.65000000000003" y1="445.14" x2="140.15" y2="326.26" stroke="#fde725" stroke-width="1.2" /><path d="M 128.95 317.86 L 143.93 321.22 L 136.37 331.30 Z" stroke="#fde725" stroke-width="0" fill="#fde725" /><line x1="298.65000000000003" y1="413.11" x2="140.88" y2="316.3" stroke="#bfde25" stroke-width="1.2" /><path d="M 128.95 308.98 L 144.17 310.93 L 137.58 321.67 Z" stroke="#bfde25" stroke-width="0" fill="#bfde25" /><line x1="298.65000000000003" y1="381.09000000000003" x2="141.58" y2="306.12" stroke="#87d548" stroke-width="1.2" /><path d="M 128.95 300.09 L 144.30 300.44 L 138.87 311.81 Z" stroke="#87d548" stroke-width="0" fill="#87d548" /><line x1="298.65000000000003" y1="349.06" x2="142.20000000000002" y2="295.73" stroke="#5ec961" stroke-width="1.2" /><path d="M 128.95 291.21 L 144.23 289.76 L 140.17 301.69 Z" stroke="#5ec961" stroke-width="0" fill="#5ec961" /><line x1="298.65000000000003" y1="317.04" x2="142.66" y2="285.13" stroke="#46c06e" stroke-width="1.2" /><path d="M 128.95 282.33 L 143.93 278.96 L 141.40 291.30 Z" stroke="#46c06e" stroke-width="0" fill="#46c06e" /><line x1="298.65000000000003" y1="285.01" x2="142.91" y2="274.39" stroke="#3aba75" stroke-width="1.2" /><path d="M 128.95 273.44 L 143.34 268.11 L 142.49 280.68 Z" stroke="#3aba75" stroke-width="0" fill="#3aba75" /><line x1="298.65000000000003" y1="252.99" x2="142.91" y2="263.61" stroke="#3aba75" stroke-width="1.2" /><path d="M 128.95 264.56 L 142.49 257.32 L 143.34 269.89 Z" stroke="#3aba75" stroke-width="0" fill="#3aba75" /><line x1="298.65000000000003" y1="220.96" x2="142.66" y2="252.87" stroke="#46c06e" stroke-width="1.2" /><path d="M 128.95 255.67 L 141.40 246.70 L 143.93 259.04 Z" stroke="#46c06e" stroke-width="0" fill="#46c06e" /><line x1="298.65000000000003" y1="188.94" x2="142.20000000000002" y2="242.27" stroke="#5ec961" stroke-width="1.2" /><path d="M 128.95 246.79 L 140.17 236.31 L 144.23 248.24 Z" stroke="#5ec961" stroke-width="0" fill="#5ec961" /><line x1="298.65000000000003" y1="156.91" x2="141.58" y2="231.88" stroke="#87d548" stroke-width="1.2" /><path d="M 128.95 237.91 L 138.87 226.19 L 144.30 237.56 Z" stroke="#87d548" stroke-width="0" fill="#87d548" /><line x1="298.65000000000003" y1="124.89" x2="140.88" y2="221.70000000000002" stroke="#bfde25" stroke-width="1.2" /><path d="M 128.95 229.02 L 137.58 216.33 L 144.17 227.07 Z" stroke="#bfde25" stroke-width="0" fill="#bfde25" /><line x1="298.65000000000003" y1="92.86" x2="140.15" y2="211.74" stroke="#fde725" stroke-width="1.2" /><path d="M 128.95 220.14 L 136.37 206.70 L 143.93 216.78 Z" stroke="#fde725" stroke-width="0" fill="#fde725" /><line x1="310.5" y1="445.14" x2="181.97" y2="327.32" stroke="#bfde25" stroke-width="1.2" /><path d="M 171.65 317.86 L 186.22 322.68 L 177.71 331.96 Z" stroke="#bfde25" stroke-width="0" fill="#bfde25" /><line x1="310.5" y1="413.11" x2="182.85" y2="317.38" stroke="#79d151" stroke-width="1.2" /><path d="M 171.65 308.98 L 186.63 312.34 L 179.07 322.42 Z" stroke="#79d151" stroke-width="0" fill="#79d151" /><line x1="310.5" y1="381.09000000000003" x2="183.74" y2="307.15000000000003" stroke="#46c06e" stroke-width="1.2" /><path d="M 171.65 300.09 L 186.91 301.71 L 180.57 312.59 Z" stroke="#46c06e" stroke-width="0" fill="#46c06e" /><line x1="310.5" y1="349.06" x2="184.57" y2="296.59000000000003" stroke="#28ae7f" stroke-width="1.2" /><path d="M 171.65 291.21 L 186.99 290.78 L 182.15 302.41 Z" stroke="#28ae7f" stroke-width="0" fill="#28ae7f" /><line x1="310.5" y1="317.04" x2="185.23" y2="285.72" stroke="#1fa187" stroke-width="1.2" /><path d="M 171.65 282.33 L 186.76 279.61 L 183.70 291.83 Z" stroke="#1fa187" stroke-width="0" fill="#1fa187" /><line x1="310.5" y1="285.01" x2="185.6" y2="274.6" stroke="#1e998a" stroke-width="1.2" /><path d="M 171.65 273.44 L 186.12 268.33 L 185.08 280.88 Z" stroke="#1e998a" stroke-width="0" fill="#1e998a" /><line x1="310.5" y1="252.99" x2="185.6" y2="263.4" stroke="#1e998a" stroke-width="1.2" /><path d="M 171.65 264.56 L 185.08 257.12 L 186.12 269.67 Z" stroke="#1e998a" stroke-width="0" fill="#1e998a" /><line x1="310.5" y1="220.96" x2="185.23" y2="252.28" stroke="#1fa187" stroke-width="1.2" /><path d="M 171.65 255.67 L 183.70 246.17 L 186.76 258.39 Z" stroke="#1fa187" stroke-width="0" fill="#1fa187" /><line x1="310.5" y1="188.94" x2="184.57" y2="241.41" stroke="#28ae7f" stroke-width="1.2" /><path d="M 171.65 246.79 L 182.15 235.59 L 186.99 247.22 Z" stroke="#28ae7f" stroke-width="0" fill="#28ae7f" /><line x1="310.5" y1="156.91" x2="183.74" y2="230.85" stroke="#46c06e" stroke-width="1.2" /><path d="M 171.65 237.91 L 180.57 225.41 L 186.91 236.29 Z" stroke="#46c06e" stroke-width="0" fill="#46c06e" /><line x1="310.5" y1="124.89" x2="182.85" y2="220.62" stroke="#79d151" stroke-width="1.2" /><path d="M 171.65 229.02 L 179.07 215.58 L 186.63 225.66 Z" stroke="#79d151" stroke-width="0" fill="#79d151" /><line x1="310.5" y1="92.86" x2="181.97" y2="210.68" stroke="#bfde25" stroke-width="1.2" /><path d="M 171.65 220.14 L 177.71 206.04 L 186.22 215.32 Z" stroke="#bfde25" stroke-width="0" fill="#bfde25" /><line x1="322.34000000000003" y1="445.14" x2="223.41" y2="328.54" stroke="#87d548" stroke-width="1.2" /><path d="M 214.35 317.86 L 228.21 324.46 L 218.60 332.61 Z" stroke="#87d548" stroke-width="0" fill="#87d548" /><line x1="322.34000000000003" y1="413.11" x2="224.43" y2="318.69" stroke="#46c06e" stroke-width="1.2" /><path d="M 214.35 308.98 L 228.80 314.16 L 220.05 323.23 Z" stroke="#46c06e" stroke-width="0" fill="#46c06e" /><line x1="322.34000000000003" y1="381.09000000000003" x2="225.55" y2="308.49" stroke="#22a884" stroke-width="1.2" /><path d="M 214.35 300.09 L 229.33 303.45 L 221.77 313.53 Z" stroke="#22a884" stroke-width="0" fill="#22a884" /><line x1="322.34000000000003" y1="349.06" x2="226.69" y2="297.82" stroke="#20928c" stroke-width="1.2" /><path d="M 214.35 291.21 L 229.66 292.27 L 223.71 303.37 Z" stroke="#20928c" stroke-width="0" fill="#20928c" /><line x1="322.34000000000003" y1="317.04" x2="227.68" y2="286.61" stroke="#26818e" stroke-width="1.2" /><path d="M 214.35 282.33 L 229.60 280.61 L 225.75 292.61 Z" stroke="#26818e" stroke-width="0" fill="#26818e" /><line x1="322.34000000000003" y1="285.01" x2="228.27" y2="274.93" stroke="#29788e" stroke-width="1.2" /><path d="M 214.35 273.44 L 228.94 268.67 L 227.60 281.20 Z" stroke="#29788e" stroke-width="0" fill="#29788e" /><line x1="322.34000000000003" y1="252.99" x2="228.27" y2="263.07" stroke="#29788e" stroke-width="1.2" /><path d="M 214.35 264.56 L 227.60 256.80 L 228.94 269.33 Z" stroke="#29788e" stroke-width="0" fill="#29788e" /><line x1="322.34000000000003" y1="220.96" x2="227.68" y2="251.39000000000001" stroke="#26818e" stroke-width="1.2" /><path d="M 214.35 255.67 L 225.75 245.39 L 229.60 257.39 Z" stroke="#26818e" stroke-width="0" fill="#26818e" /><line x1="322.34000000000003" y1="188.94" x2="226.69" y2="240.18" stroke="#20928c" stroke-width="1.2" /><path d="M 214.35 246.79 L 223.71 234.63 L 229.66 245.73 Z" stroke="#20928c" stroke-width="0" fill="#20928c" /><line x1="322.34000000000003" y1="156.91" x2="225.55" y2="229.51" stroke="#22a884" stroke-width="1.2" /><path d="M 214.35 237.91 L 221.77 224.47 L 229.33 234.55 Z" stroke="#22a884" stroke-width="0" fill="#22a884" /><line x1="322.34000000000003" y1="124.89" x2="224.43" y2="219.31" stroke="#46c06e" stroke-width="1.2" /><path d="M 214.35 229.02 L 220.05 214.77 L 228.80 223.84 Z" stroke="#46c06e" stroke-width="0" fill="#46c06e" /><line x1="322.34000000000003" y1="92.86" x2="223.41" y2="209.46" stroke="#87d548" stroke-width="1.2" /><path d="M 214.35 220.14 L 218.60 205.39 L 228.21 213.54 Z" stroke="#87d548" stroke-width="0" fill="#87d548" /><line x1="334.19" y1="445.14" x2="264.3" y2="329.83" stroke="#5ec961" stroke-width="1.2" /><path d="M 257.05 317.86 L 269.69 326.57 L 258.92 333.10 Z" stroke="#5ec961" stroke-width="0" fill="#5ec961" /><line x1="334.19" y1="413.11" x2="265.38" y2="320.23" stroke="#28ae7f" stroke-width="1.2" /><path d="M 257.05 308.98 L 270.44 316.48 L 260.32 323.98 Z" stroke="#28ae7f" stroke-width="0" fill="#28ae7f" /><line x1="334.19" y1="381.09000000000003" x2="266.7" y2="310.23" stroke="#20928c" stroke-width="1.2" /><path d="M 257.05 300.09 L 271.27 305.89 L 262.14 314.58 Z" stroke="#20928c" stroke-width="0" fill="#20928c" /><line x1="334.19" y1="349.06" x2="268.25" y2="299.61" stroke="#29788e" stroke-width="1.2" /><path d="M 257.05 291.21 L 272.03 294.57 L 264.47 304.65 Z" stroke="#29788e" stroke-width="0" fill="#29788e" /><line x1="334.19" y1="317.04" x2="269.82" y2="288.07" stroke="#32628d" stroke-width="1.2" /><path d="M 257.05 282.33 L 272.40 282.33 L 267.23 293.82 Z" stroke="#32628d" stroke-width="0" fill="#32628d" /><line x1="334.19" y1="285.01" x2="270.89" y2="275.52" stroke="#39548b" stroke-width="1.2" /><path d="M 257.05 273.44 L 271.83 269.29 L 269.96 281.75 Z" stroke="#39548b" stroke-width="0" fill="#39548b" /><line x1="334.19" y1="252.99" x2="270.89" y2="262.48" stroke="#39548b" stroke-width="1.2" /><path d="M 257.05 264.56 L 269.96 256.25 L 271.83 268.71 Z" stroke="#39548b" stroke-width="0" fill="#39548b" /><line x1="334.19" y1="220.96" x2="269.82" y2="249.93" stroke="#32628d" stroke-width="1.2" /><path d="M 257.05 255.67 L 267.23 244.18 L 272.40 255.67 Z" stroke="#32628d" stroke-width="0" fill="#32628d" /><line x1="334.19" y1="188.94" x2="268.25" y2="238.39000000000001" stroke="#29788e" stroke-width="1.2" /><path d="M 257.05 246.79 L 264.47 233.35 L 272.03 243.43 Z" stroke="#29788e" stroke-width="0" fill="#29788e" /><line x1="334.19" y1="156.91" x2="266.7" y2="227.77" stroke="#20928c" stroke-width="1.2" /><path d="M 257.05 237.91 L 262.14 223.42 L 271.27 232.11 Z" stroke="#20928c" stroke-width="0" fill="#20928c" /><line x1="334.19" y1="124.89" x2="265.38" y2="217.77" stroke="#28ae7f" stroke-width="1.2" /><path d="M 257.05 229.02 L 260.32 214.02 L 270.44 221.52 Z" stroke="#28ae7f" stroke-width="0" fill="#28ae7f" /><line x1="334.19" y1="92.86" x2="264.3" y2="208.17000000000002" stroke="#5ec961" stroke-width="1.2" /><path d="M 257.05 220.14 L 258.92 204.90 L 269.69 211.43 Z" stroke="#5ec961" stroke-width="0" fill="#5ec961" /><line x1="346.03000000000003" y1="445.14" x2="304.53000000000003" y2="331.02" stroke="#46c06e" stroke-width="1.2" /><path d="M 299.75 317.86 L 310.45 328.86 L 298.61 333.17 Z" stroke="#46c06e" stroke-width="0" fill="#46c06e" /><line x1="346.03000000000003" y1="413.11" x2="305.44" y2="321.77" stroke="#1fa187" stroke-width="1.2" /><path d="M 299.75 308.98 L 311.19 319.21 L 299.68 324.33 Z" stroke="#1fa187" stroke-width="0" fill="#1fa187" /><line x1="346.03000000000003" y1="381.09000000000003" x2="306.7" y2="312.25" stroke="#26818e" stroke-width="1.2" /><path d="M 299.75 300.09 L 312.17 309.12 L 301.23 315.37 Z" stroke="#26818e" stroke-width="0" fill="#26818e" /><line x1="346.03000000000003" y1="349.06" x2="308.49" y2="302.14" stroke="#32628d" stroke-width="1.2" /><path d="M 299.75 291.21 L 313.41 298.21 L 303.58 306.08 Z" stroke="#32628d" stroke-width="0" fill="#32628d" /><line x1="346.03000000000003" y1="317.04" x2="310.95" y2="290.73" stroke="#404387" stroke-width="1.2" /><path d="M 299.75 282.33 L 314.73 285.69 L 307.17 295.77 Z" stroke="#404387" stroke-width="0" fill="#404387" /><line x1="346.03000000000003" y1="285.01" x2="312.71" y2="276.68" stroke="#472c7a" stroke-width="1.2" /><path d="M 299.75 273.44 L 314.17 270.85 L 311.25 282.51 Z" stroke="#472c7a" stroke-width="0" fill="#472c7a" /><line x1="346.03000000000003" y1="252.99" x2="312.71" y2="261.32" stroke="#472c7a" stroke-width="1.2" /><path d="M 299.75 264.56 L 311.25 255.49 L 314.17 267.15 Z" stroke="#472c7a" stroke-width="0" fill="#472c7a" /><line x1="346.03000000000003" y1="220.96" x2="310.95" y2="247.27" stroke="#404387" stroke-width="1.2" /><path d="M 299.75 255.67 L 307.17 242.23 L 314.73 252.31 Z" stroke="#404387" stroke-width="0" fill="#404387" /><line x1="346.03000000000003" y1="188.94" x2="308.49" y2="235.86" stroke="#32628d" stroke-width="1.2" /><path d="M 299.75 246.79 L 303.58 231.92 L 313.41 239.79 Z" stroke="#32628d" stroke-width="0" fill="#32628d" /><line x1="346.03000000000003" y1="156.91" x2="306.7" y2="225.75" stroke="#26818e" stroke-width="1.2" /><path d="M 299.75 237.91 L 301.23 222.63 L 312.17 228.88 Z" stroke="#26818e" stroke-width="0" fill="#26818e" /><line x1="346.03000000000003" y1="124.89" x2="305.44" y2="216.23000000000002" stroke="#1fa187" stroke-width="1.2" /><path d="M 299.75 229.02 L 299.68 213.67 L 311.19 218.79 Z" stroke="#1fa187" stroke-width="0" fill="#1fa187" /><line x1="346.03000000000003" y1="92.86" x2="304.53000000000003" y2="206.98000000000002" stroke="#46c06e" stroke-width="1.2" /><path d="M 299.75 220.14 L 298.61 204.83 L 310.45 209.14 Z" stroke="#46c06e" stroke-width="0" fill="#46c06e" /><line x1="357.88" y1="445.14" x2="344.13" y2="331.76" stroke="#3aba75" stroke-width="1.2" /><path d="M 342.45 317.86 L 350.39 331.00 L 337.88 332.52 Z" stroke="#3aba75" stroke-width="0" fill="#3aba75" /><line x1="357.88" y1="413.11" x2="344.5" y2="322.83" stroke="#1e998a" stroke-width="1.2" /><path d="M 342.45 308.98 L 350.73 321.90 L 338.27 323.75 Z" stroke="#1e998a" stroke-width="0" fill="#1e998a" /><line x1="357.88" y1="381.09000000000003" x2="345.07" y2="313.85" stroke="#29788e" stroke-width="1.2" /><path d="M 342.45 300.09 L 351.26 312.67 L 338.88 315.02 Z" stroke="#29788e" stroke-width="0" fill="#29788e" /><line x1="357.88" y1="349.06" x2="346.06" y2="304.74" stroke="#39548b" stroke-width="1.2" /><path d="M 342.45 291.21 L 352.14 303.11 L 339.97 306.36 Z" stroke="#39548b" stroke-width="0" fill="#39548b" /><line x1="357.88" y1="317.04" x2="346.77" y2="292.05" stroke="#472c7a" stroke-width="1.2" /><path d="M 342.45 282.33 L 351.14 290.10 L 342.40 293.99 Z" stroke="#472c7a" stroke-width="0" fill="#472c7a" /><line x1="357.88" y1="285.01" x2="346.77" y2="276.68" stroke="#440154" stroke-width="1.2" /><path d="M 342.45 273.44 L 348.23 274.74 L 345.31 278.63 Z" stroke="#440154" stroke-width="0" fill="#440154" /><line x1="357.88" y1="252.99" x2="346.77" y2="261.32" stroke="#440154" stroke-width="1.2" /><path d="M 342.45 264.56 L 345.31 259.37 L 348.23 263.26 Z" stroke="#440154" stroke-width="0" fill="#440154" /><line x1="357.88" y1="220.96" x2="346.77" y2="245.95000000000002" stroke="#472c7a" stroke-width="1.2" /><path d="M 342.45 255.67 L 342.40 244.01 L 351.14 247.90 Z" stroke="#472c7a" stroke-width="0" fill="#472c7a" /><line x1="357.88" y1="188.94" x2="346.06" y2="233.26" stroke="#39548b" stroke-width="1.2" /><path d="M 342.45 246.79 L 339.97 231.64 L 352.14 234.89 Z" stroke="#39548b" stroke-width="0" fill="#39548b" /><line x1="357.88" y1="156.91" x2="345.07" y2="224.15" stroke="#29788e" stroke-width="1.2" /><path d="M 342.45 237.91 L 338.88 222.98 L 351.26 225.33 Z" stroke="#29788e" stroke-width="0" fill="#29788e" /><line x1="357.88" y1="124.89" x2="344.5" y2="215.17000000000002" stroke="#1e998a" stroke-width="1.2" /><path d="M 342.45 229.02 L 338.27 214.25 L 350.73 216.10 Z" stroke="#1e998a" stroke-width="0" fill="#1e998a" /><line x1="357.88" y1="92.86" x2="344.13" y2="206.24" stroke="#3aba75" stroke-width="1.2" /><path d="M 342.45 220.14 L 337.88 205.48 L 350.39 207.00 Z" stroke="#3aba75" stroke-width="0" fill="#3aba75" /><line x1="369.72" y1="445.14" x2="383.47" y2="331.76" stroke="#3aba75" stroke-width="1.2" /><path d="M 385.15 317.86 L 389.72 332.52 L 377.21 331.00 Z" stroke="#3aba75" stroke-width="0" fill="#3aba75" /><line x1="369.72" y1="413.11" x2="383.1" y2="322.83" stroke="#1e998a" stroke-width="1.2" /><path d="M 385.15 308.98 L 389.33 323.75 L 376.87 321.90 Z" stroke="#1e998a" stroke-width="0" fill="#1e998a" /><line x1="369.72" y1="381.09000000000003" x2="382.53000000000003" y2="313.85" stroke="#29788e" stroke-width="1.2" /><path d="M 385.15 300.09 L 388.72 315.02 L 376.34 312.67 Z" stroke="#29788e" stroke-width="0" fill="#29788e" /><line x1="369.72" y1="349.06" x2="381.54" y2="304.74" stroke="#39548b" stroke-width="1.2" /><path d="M 385.15 291.21 L 387.63 306.36 L 375.46 303.11 Z" stroke="#39548b" stroke-width="0" fill="#39548b" /><line x1="369.72" y1="317.04" x2="380.83" y2="292.05" stroke="#472c7a" stroke-width="1.2" /><path d="M 385.15 282.33 L 385.20 293.99 L 376.46 290.10 Z" stroke="#472c7a" stroke-width="0" fill="#472c7a" /><line x1="369.72" y1="285.01" x2="380.83" y2="276.68" stroke="#440154" stroke-width="1.2" /><path d="M 385.15 273.44 L 382.29 278.63 L 379.37 274.74 Z" stroke="#440154" stroke-width="0" fill="#440154" /><line x1="369.72" y1="252.99" x2="380.83" y2="261.32" stroke="#440154" stroke-width="1.2" /><path d="M 385.15 264.56 L 379.37 263.26 L 382.29 259.37 Z" stroke="#440154" stroke-width="0" fill="#440154" /><line x1="369.72" y1="220.96" x2="380.83" y2="245.95000000000002" stroke="#472c7a" stroke-width="1.2" /><path d="M 385.15 255.67 L 376.46 247.90 L 385.20 244.01 Z" stroke="#472c7a" stroke-width="0" fill="#472c7a" /><line x1="369.72" y1="188.94" x2="381.54" y2="233.26" stroke="#39548b" stroke-width="1.2" /><path d="M 385.15 246.79 L 375.46 234.89 L 387.63 231.64 Z" stroke="#39548b" stroke-width="0" fill="#39548b" /><line x1="369.72" y1="156.91" x2="382.53000000000003" y2="224.15" stroke="#29788e" stroke-width="1.2" /><path d="M 385.15 237.91 L 376.34 225.33 L 388.72 222.98 Z" stroke="#29788e" stroke-width="0" fill="#29788e" /><line x1="369.72" y1="124.89" x2="383.1" y2="215.17000000000002" stroke="#1e998a" stroke-width="1.2" /><path d="M 385.15 229.02 L 376.87 216.10 L 389.33 214.25 Z" stroke="#1e998a" stroke-width="0" fill="#1e998a" /><line x1="369.72" y1="92.86" x2="383.47" y2="206.24" stroke="#3aba75" stroke-width="1.2" /><path d="M 385.15 220.14 L 377.21 207.00 L 389.72 205.48 Z" stroke="#3aba75" stroke-width="0" fill="#3aba75" /><line x1="381.57" y1="445.14" x2="423.07" y2="331.02" stroke="#46c06e" stroke-width="1.2" /><path d="M 427.85 317.86 L 428.99 333.17 L 417.15 328.86 Z" stroke="#46c06e" stroke-width="0" fill="#46c06e" /><line x1="381.57" y1="413.11" x2="422.16" y2="321.77" stroke="#1fa187" stroke-width="1.2" /><path d="M 427.85 308.98 L 427.92 324.33 L 416.41 319.21 Z" stroke="#1fa187" stroke-width="0" fill="#1fa187" /><line x1="381.57" y1="381.09000000000003" x2="420.90000000000003" y2="312.25" stroke="#26818e" stroke-width="1.2" /><path d="M 427.85 300.09 L 426.37 315.37 L 415.43 309.12 Z" stroke="#26818e" stroke-width="0" fill="#26818e" /><line x1="381.57" y1="349.06" x2="419.11" y2="302.14" stroke="#32628d" stroke-width="1.2" /><path d="M 427.85 291.21 L 424.02 306.08 L 414.19 298.21 Z" stroke="#32628d" stroke-width="0" fill="#32628d" /><line x1="381.57" y1="317.04" x2="416.65000000000003" y2="290.73" stroke="#404387" stroke-width="1.2" /><path d="M 427.85 282.33 L 420.43 295.77 L 412.87 285.69 Z" stroke="#404387" stroke-width="0" fill="#404387" /><line x1="381.57" y1="285.01" x2="414.89" y2="276.68" stroke="#472c7a" stroke-width="1.2" /><path d="M 427.85 273.44 L 416.35 282.51 L 413.43 270.85 Z" stroke="#472c7a" stroke-width="0" fill="#472c7a" /><line x1="381.57" y1="252.99" x2="414.89" y2="261.32" stroke="#472c7a" stroke-width="1.2" /><path d="M 427.85 264.56 L 413.43 267.15 L 416.35 255.49 Z" stroke="#472c7a" stroke-width="0" fill="#472c7a" /><line x1="381.57" y1="220.96" x2="416.65000000000003" y2="247.27" stroke="#404387" stroke-width="1.2" /><path d="M 427.85 255.67 L 412.87 252.31 L 420.43 242.23 Z" stroke="#404387" stroke-width="0" fill="#404387" /><line x1="381.57" y1="188.94" x2="419.11" y2="235.86" stroke="#32628d" stroke-width="1.2" /><path d="M 427.85 246.79 L 414.19 239.79 L 424.02 231.92 Z" stroke="#32628d" stroke-width="0" fill="#32628d" /><line x1="381.57" y1="156.91" x2="420.90000000000003" y2="225.75" stroke="#26818e" stroke-width="1.2" /><path d="M 427.85 237.91 L 415.43 228.88 L 426.37 222.63 Z" stroke="#26818e" stroke-width="0" fill="#26818e" /><line x1="381.57" y1="124.89" x2="422.16" y2="216.23000000000002" stroke="#1fa187" stroke-width="1.2" /><path d="M 427.85 229.02 L 416.41 218.79 L 427.92 213.67 Z" stroke="#1fa187" stroke-width="0" fill="#1fa187" /><line x1="381.57" y1="92.86" x2="423.07" y2="206.98000000000002" stroke="#46c06e" stroke-width="1.2" /><path d="M 427.85 220.14 L 417.15 209.14 L 428.99 204.83 Z" stroke="#46c06e" stroke-width="0" fill="#46c06e" /><line x1="393.41" y1="445.14" x2="463.3" y2="329.83" stroke="#5ec961" stroke-width="1.2" /><path d="M 470.55 317.86 L 468.68 333.10 L 457.91 326.57 Z" stroke="#5ec961" stroke-width="0" fill="#5ec961" /><line x1="393.41" y1="413.11" x2="462.22" y2="320.23" stroke="#28ae7f" stroke-width="1.2" /><path d="M 470.55 308.98 L 467.28 323.98 L 457.16 316.48 Z" stroke="#28ae7f" stroke-width="0" fill="#28ae7f" /><line x1="393.41" y1="381.09000000000003" x2="460.90000000000003" y2="310.23" stroke="#20928c" stroke-width="1.2" /><path d="M 470.55 300.09 L 465.46 314.58 L 456.33 305.89 Z" stroke="#20928c" stroke-width="0" fill="#20928c" /><line x1="393.41" y1="349.06" x2="459.35" y2="299.61" stroke="#29788e" stroke-width="1.2" /><path d="M 470.55 291.21 L 463.13 304.65 L 455.57 294.57 Z" stroke="#29788e" stroke-width="0" fill="#29788e" /><line x1="393.41" y1="317.04" x2="457.78000000000003" y2="288.07" stroke="#32628d" stroke-width="1.2" /><path d="M 470.55 282.33 L 460.37 293.82 L 455.20 282.33 Z" stroke="#32628d" stroke-width="0" fill="#32628d" /><line x1="393.41" y1="285.01" x2="456.71000000000004" y2="275.52" stroke="#39548b" stroke-width="1.2" /><path d="M 470.55 273.44 L 457.64 281.75 L 455.77 269.29 Z" stroke="#39548b" stroke-width="0" fill="#39548b" /><line x1="393.41" y1="252.99" x2="456.71000000000004" y2="262.48" stroke="#39548b" stroke-width="1.2" /><path d="M 470.55 264.56 L 455.77 268.71 L 457.64 256.25 Z" stroke="#39548b" stroke-width="0" fill="#39548b" /><line x1="393.41" y1="220.96" x2="457.78000000000003" y2="249.93" stroke="#32628d" stroke-width="1.2" /><path d="M 470.55 255.67 L 455.20 255.67 L 460.37 244.18 Z" stroke="#32628d" stroke-width="0" fill="#32628d" /><line x1="393.41" y1="188.94" x2="459.35" y2="238.39000000000001" stroke="#29788e" stroke-width="1.2" /><path d="M 470.55 246.79 L 455.57 243.43 L 463.13 233.35 Z" stroke="#29788e" stroke-width="0" fill="#29788e" /><line x1="393.41" y1="156.91" x2="460.90000000000003" y2="227.77" stroke="#20928c" stroke-width="1.2" /><path d="M 470.55 237.91 L 456.33 232.11 L 465.46 223.42 Z" stroke="#20928c" stroke-width="0" fill="#20928c" /><line x1="393.41" y1="124.89" x2="462.22" y2="217.77" stroke="#28ae7f" stroke-width="1.2" /><path d="M 470.55 229.02 L 457.16 221.52 L 467.28 214.02 Z" stroke="#28ae7f" stroke-width="0" fill="#28ae7f" /><line x1="393.41" y1="92.86" x2="463.3" y2="208.17000000000002" stroke="#5ec961" stroke-width="1.2" /><path d="M 470.55 220.14 L 457.91 211.43 L 468.68 204.90 Z" stroke="#5ec961" stroke-width="0" fill="#5ec961" /><line x1="405.26" y1="445.14" x2="504.19" y2="328.54" stroke="#87d548" stroke-width="1.2" /><path d="M 513.25 317.86 L 509.00 332.61 L 499.39 324.46 Z" stroke="#87d548" stroke-width="0" fill="#87d548" /><line x1="405.26" y1="413.11" x2="503.17" y2="318.69" stroke="#46c06e" stroke-width="1.2" /><path d="M 513.25 308.98 L 507.55 323.23 L 498.80 314.16 Z" stroke="#46c06e" stroke-width="0" fill="#46c06e" /><line x1="405.26" y1="381.09000000000003" x2="502.05" y2="308.49" stroke="#22a884" stroke-width="1.2" /><path d="M 513.25 300.09 L 505.83 313.53 L 498.27 303.45 Z" stroke="#22a884" stroke-width="0" fill="#22a884" /><line x1="405.26" y1="349.06" x2="500.91" y2="297.82" stroke="#20928c" stroke-width="1.2" /><path d="M 513.25 291.21 L 503.89 303.37 L 497.94 292.27 Z" stroke="#20928c" stroke-width="0" fill="#20928c" /><line x1="405.26" y1="317.04" x2="499.92" y2="286.61" stroke="#26818e" stroke-width="1.2" /><path d="M 513.25 282.33 L 501.85 292.61 L 498.00 280.61 Z" stroke="#26818e" stroke-width="0" fill="#26818e" /><line x1="405.26" y1="285.01" x2="499.33" y2="274.93" stroke="#29788e" stroke-width="1.2" /><path d="M 513.25 273.44 L 500.00 281.20 L 498.66 268.67 Z" stroke="#29788e" stroke-width="0" fill="#29788e" /><line x1="405.26" y1="252.99" x2="499.33" y2="263.07" stroke="#29788e" stroke-width="1.2" /><path d="M 513.25 264.56 L 498.66 269.33 L 500.00 256.80 Z" stroke="#29788e" stroke-width="0" fill="#29788e" /><line x1="405.26" y1="220.96" x2="499.92" y2="251.39000000000001" stroke="#26818e" stroke-width="1.2" /><path d="M 513.25 255.67 L 498.00 257.39 L 501.85 245.39 Z" stroke="#26818e" stroke-width="0" fill="#26818e" /><line x1="405.26" y1="188.94" x2="500.91" y2="240.18" stroke="#20928c" stroke-width="1.2" /><path d="M 513.25 246.79 L 497.94 245.73 L 503.89 234.63 Z" stroke="#20928c" stroke-width="0" fill="#20928c" /><line x1="405.26" y1="156.91" x2="502.05" y2="229.51" stroke="#22a884" stroke-width="1.2" /><path d="M 513.25 237.91 L 498.27 234.55 L 505.83 224.47 Z" stroke="#22a884" stroke-width="0" fill="#22a884" /><line x1="405.26" y1="124.89" x2="503.17" y2="219.31" stroke="#46c06e" stroke-width="1.2" /><path d="M 513.25 229.02 L 498.80 223.84 L 507.55 214.77 Z" stroke="#46c06e" stroke-width="0" fill="#46c06e" /><line x1="405.26" y1="92.86" x2="504.19" y2="209.46" stroke="#87d548" stroke-width="1.2" /><path d="M 513.25 220.14 L 499.39 213.54 L 509.00 205.39 Z" stroke="#87d548" stroke-width="0" fill="#87d548" /><line x1="417.1" y1="445.14" x2="545.63" y2="327.32" stroke="#bfde25" stroke-width="1.2" /><path d="M 555.95 317.86 L 549.89 331.96 L 541.38 322.68 Z" stroke="#bfde25" stroke-width="0" fill="#bfde25" /><line x1="417.1" y1="413.11" x2="544.75" y2="317.38" stroke="#79d151" stroke-width="1.2" /><path d="M 555.95 308.98 L 548.53 322.42 L 540.97 312.34 Z" stroke="#79d151" stroke-width="0" fill="#79d151" /><line x1="417.1" y1="381.09000000000003" x2="543.86" y2="307.15000000000003" stroke="#46c06e" stroke-width="1.2" /><path d="M 555.95 300.09 L 547.03 312.59 L 540.69 301.71 Z" stroke="#46c06e" stroke-width="0" fill="#46c06e" /><line x1="417.1" y1="349.06" x2="543.03" y2="296.59000000000003" stroke="#28ae7f" stroke-width="1.2" /><path d="M 555.95 291.21 L 545.45 302.41 L 540.61 290.78 Z" stroke="#28ae7f" stroke-width="0" fill="#28ae7f" /><line x1="417.1" y1="317.04" x2="542.37" y2="285.72" stroke="#1fa187" stroke-width="1.2" /><path d="M 555.95 282.33 L 543.90 291.83 L 540.84 279.61 Z" stroke="#1fa187" stroke-width="0" fill="#1fa187" /><line x1="417.1" y1="285.01" x2="542" y2="274.6" stroke="#1e998a" stroke-width="1.2" /><path d="M 555.95 273.44 L 542.52 280.88 L 541.48 268.33 Z" stroke="#1e998a" stroke-width="0" fill="#1e998a" /><line x1="417.1" y1="252.99" x2="542" y2="263.4" stroke="#1e998a" stroke-width="1.2" /><path d="M 555.95 264.56 L 541.48 269.67 L 542.52 257.12 Z" stroke="#1e998a" stroke-width="0" fill="#1e998a" /><line x1="417.1" y1="220.96" x2="542.37" y2="252.28" stroke="#1fa187" stroke-width="1.2" /><path d="M 555.95 255.67 L 540.84 258.39 L 543.90 246.17 Z" stroke="#1fa187" stroke-width="0" fill="#1fa187" /><line x1="417.1" y1="188.94" x2="543.03" y2="241.41" stroke="#28ae7f" stroke-width="1.2" /><path d="M 555.95 246.79 L 540.61 247.22 L 545.45 235.59 Z" stroke="#28ae7f" stroke-width="0" fill="#28ae7f" /><line x1="417.1" y1="156.91" x2="543.86" y2="230.85" stroke="#46c06e" stroke-width="1.2" /><path d="M 555.95 237.91 L 540.69 236.29 L 547.03 225.41 Z" stroke="#46c06e" stroke-width="0" fill="#46c06e" /><line x1="417.1" y1="124.89" x2="544.75" y2="220.62" stroke="#79d151" stroke-width="1.2" /><path d="M 555.95 229.02 L 540.97 225.66 L 548.53 215.58 Z" stroke="#79d151" stroke-width="0" fill="#79d151" /><line x1="417.1" y1="92.86" x2="545.63" y2="210.68" stroke="#bfde25" stroke-width="1.2" /><path d="M 555.95 220.14 L 541.38 215.32 L 549.89 206.04 Z" stroke="#bfde25" stroke-width="0" fill="#bfde25" /><line x1="428.95" y1="445.14" x2="587.45" y2="326.26" stroke="#fde725" stroke-width="1.2" /><path d="M 598.65 317.86 L 591.23 331.30 L 583.67 321.22 Z" stroke="#fde725" stroke-width="0" fill="#fde725" /><line x1="428.95" y1="413.11" x2="586.72" y2="316.3" stroke="#bfde25" stroke-width="1.2" /><path d="M 598.65 308.98 L 590.02 321.67 L 583.43 310.93 Z" stroke="#bfde25" stroke-width="0" fill="#bfde25" /><line x1="428.95" y1="381.09000000000003" x2="586.02" y2="306.12" stroke="#87d548" stroke-width="1.2" /><path d="M 598.65 300.09 L 588.73 311.81 L 583.30 300.44 Z" stroke="#87d548" stroke-width="0" fill="#87d548" /><line x1="428.95" y1="349.06" x2="585.4" y2="295.73" stroke="#5ec961" stroke-width="1.2" /><path d="M 598.65 291.21 L 587.43 301.69 L 583.37 289.76 Z" stroke="#5ec961" stroke-width="0" fill="#5ec961" /><line x1="428.95" y1="317.04" x2="584.94" y2="285.13" stroke="#46c06e" stroke-width="1.2" /><path d="M 598.65 282.33 L 586.20 291.30 L 583.67 278.96 Z" stroke="#46c06e" stroke-width="0" fill="#46c06e" /><line x1="428.95" y1="285.01" x2="584.69" y2="274.39" stroke="#3aba75" stroke-width="1.2" /><path d="M 598.65 273.44 L 585.11 280.68 L 584.26 268.11 Z" stroke="#3aba75" stroke-width="0" fill="#3aba75" /><line x1="428.95" y1="252.99" x2="584.69" y2="263.61" stroke="#3aba75" stroke-width="1.2" /><path d="M 598.65 264.56 L 584.26 269.89 L 585.11 257.32 Z" stroke="#3aba75" stroke-width="0" fill="#3aba75" /><line x1="428.95" y1="220.96" x2="584.94" y2="252.87" stroke="#46c06e" stroke-width="1.2" /><path d="M 598.65 255.67 L 583.67 259.04 L 586.20 246.70 Z" stroke="#46c06e" stroke-width="0" fill="#46c06e" /><line x1="428.95" y1="188.94" x2="585.4" y2="242.27" stroke="#5ec961" stroke-width="1.2" /><path d="M 598.65 246.79 L 583.37 248.24 L 587.43 236.31 Z" stroke="#5ec961" stroke-width="0" fill="#5ec961" /><line x1="428.95" y1="156.91" x2="586.02" y2="231.88" stroke="#87d548" stroke-width="1.2" /><path d="M 598.65 237.91 L 583.30 237.56 L 588.73 226.19 Z" stroke="#87d548" stroke-width="0" fill="#87d548" /><line x1="428.95" y1="124.89" x2="586.72" y2="221.70000000000002" stroke="#bfde25" stroke-width="1.2" /><path d="M 598.65 229.02 L 583.43 227.07 L 590.02 216.33 Z" stroke="#bfde25" stroke-width="0" fill="#bfde25" /><line x1="428.95" y1="92.86" x2="587.45" y2="211.74" stroke="#fde725" stroke-width="1.2" /><path d="M 598.65 220.14 L 583.67 216.78 L 591.23 206.70 Z" stroke="#fde725" stroke-width="0" fill="#fde725" /></g><rect x="706.8000000000001" y="89" width="20" height="7.7" fill="#fde725" /><rect x="706.8000000000001" y="96.2" width="20" height="7.7" fill="#f0e51c" /><rect x="706.8000000000001" y="103.4" width="20" height="7.7" fill="#e3e318" /><rect x="706.8000000000001" y="110.60000000000001" width="20" height="7.7" fill="#d6e219" /><rect x="706.8000000000001" y="117.8" width="20" height="7.7" fill="#c8e01f" /><rect x="706.8000000000001" y="125" width="20" height="7.7" fill="#bade27" /><rect x="706.8000000000001" y="132.2" width="20" height="7.7" fill="#acdc30" /><rect x="706.8000000000001" y="139.4" width="20" height="7.7" fill="#9ed939" /><rect x="706.8000000000001" y="146.6" width="20" height="7.7" fill="#91d642" /><rect x="706.8000000000001" y="153.8" width="20" height="7.7" fill="#84d44a" /><rect x="706.8000000000001" y="161" width="20" height="7.7" fill="#77d052" /><rect x="706.8000000000001" y="168.20000000000002" width="20" height="7.7" fill="#6bcd5a" /><rect x="706.8000000000001" y="175.4" width="20" height="7.7" fill="#5fc960" /><rect x="706.8000000000001" y="182.6" width="20" height="7.7" fill="#54c567" /><rect x="706.8000000000001" y="189.8" width="20" height="7.7" fill="#4ac16c" /><rect x="706.8000000000001" y="197" width="20" height="7.7" fill="#40bc72" /><rect x="706.8000000000001" y="204.20000000000002" width="20" height="7.7" fill="#37b877" /><rect x="706.8000000000001" y="211.4" width="20" height="7.7" fill="#30b47b" /><rect x="706.8000000000001" y="218.6" width="20" height="7.7" fill="#29af7f" /><rect x="706.8000000000001" y="225.8" width="20" height="7.7" fill="#24ab82" /><rect x="706.8000000000001" y="233" width="20" height="7.7" fill="#21a585" /><rect x="706.8000000000001" y="240.20000000000002" width="20" height="7.7" fill="#1fa187" /><rect x="706.8000000000001" y="247.4" width="20" height="7.7" fill="#1e9c89" /><rect x="706.8000000000001" y="254.6" width="20" height="7.7" fill="#1f978a" /><rect x="706.8000000000001" y="261.8" width="20" height="7.7" fill="#1f928c" /><rect x="706.8000000000001" y="269" width="20" height="7.7" fill="#218d8d" /><rect x="706.8000000000001" y="276.2" width="20" height="7.7" fill="#23888d" /><rect x="706.8000000000001" y="283.40000000000003" width="20" height="7.7" fill="#25838e" /><rect x="706.8000000000001" y="290.6" width="20" height="7.7" fill="#267f8d" /><rect x="706.8000000000001" y="297.8" width="20" height="7.7" fill="#287a8e" /><rect x="706.8000000000001" y="305" width="20" height="7.7" fill="#2a748d" /><rect x="706.8000000000001" y="312.2" width="20" height="7.7" fill="#2c708e" /><rect x="706.8000000000001" y="319.40000000000003" width="20" height="7.7" fill="#2f6b8e" /><rect x="706.8000000000001" y="326.6" width="20" height="7.7" fill="#31668e" /><rect x="706.8000000000001" y="333.8" width="20" height="7.7" fill="#33618c" /><rect x="706.8000000000001" y="341" width="20" height="7.7" fill="#365b8c" /><rect x="706.8000000000001" y="348.2" width="20" height="7.7" fill="#38558c" /><rect x="706.8000000000001" y="355.40000000000003" width="20" height="7.7" fill="#3b508a" /><rect x="706.8000000000001" y="362.6" width="20" height="7.7" fill="#3d4a89" /><rect x="706.8000000000001" y="369.8" width="20" height="7.7" fill="#404587" /><rect x="706.8000000000001" y="377" width="20" height="7.7" fill="#423e85" /><rect x="706.8000000000001" y="384.2" width="20" height="7.7" fill="#443882" /><rect x="706.8000000000001" y="391.40000000000003" width="20" height="7.7" fill="#46327e" /><rect x="706.8000000000001" y="398.6" width="20" height="7.7" fill="#472c7a" /><rect x="706.8000000000001" y="405.8" width="20" height="7.7" fill="#482576" /><rect x="706.8000000000001" y="413" width="20" height="7.7" fill="#471e6f" /><rect x="706.8000000000001" y="420.2" width="20" height="7.7" fill="#481769" /><rect x="706.8000000000001" y="427.40000000000003" width="20" height="7.7" fill="#471063" /><rect x="706.8000000000001" y="434.6" width="20" height="7.7" fill="#46085c" /><rect x="706.8000000000001" y="441.8" width="20" height="7.7" fill="#440154" /><rect x="706.8000000000001" y="89" width="20" height="360" fill="none" stroke="#000000" stroke-width="1" /><line x1="726.8000000000001" y1="415" x2="730.8000000000001" y2="415" stroke="#000000" stroke-width="1" /><text x="731.8000000000001" y="419" font-size="12" text-anchor="start">0.5</text><line x1="726.8000000000001" y1="344.99" x2="730.8000000000001" y2="344.99" stroke="#000000" stroke-width="1" /><text x="731.8000000000001" y="348.99" font-size="12" text-anchor="start">1</text><line x1="726.8000000000001" y1="274.99" x2="730.8000000000001" y2="274.99" stroke="#000000" stroke-width="1" /><text x="731.8000000000001" y="278.99" font-size="12" text-anchor="start">1.5</text><line x1="726.8000000000001" y1="204.99" x2="730.8000000000001" y2="204.99" stroke="#000000" stroke-width="1" /><text x="731.8000000000001" y="208.99" font-size="12" text-anchor="start">2</text><line x1="726.8000000000001" y1="134.98" x2="730.8000000000001" y2="134.98" stroke="#000000" stroke-width="1" /><text x="731.8000000000001" y="138.98" font-size="12" text-anchor="start">2.5</text><text x="696.8000000000001" y="269" font-size="12" text-anchor="middle" transform="rotate(-90,696.8000000000001,269)">Speed</text></svg>