<svg xmlns="http://www.w3.org/2000/svg" width="771.8000000000001" height="545" font-family="DejaVu Sans, Liberation Sans, Arial, sans-serif" fill="black"><rect width="100%" height="100%" fill="white" /><defs><clipPath id="kuva-clip-2"><rect x="63.800000000000004" y="44" width="600" height="450"/></clipPath></defs><line x1="213.8" y1="44" x2="213.8" y2="494" stroke="#cccccc" stroke-width="1" /><line x1="363.8" y1="44" x2="363.8" y2="494" stroke="#cccccc" stroke-width="1" /><line x1="513.8" y1="44" x2="513.8" y2="494" stroke="#cccccc" stroke-width="1" /><line x1="663.8000000000001" y1="44" x2="663.8000000000001" y2="494" stroke="#cccccc" stroke-width="1" /><line x1="63.800000000000004" y1="381.5" x2="663.8000000000001" y2="381.5" stroke="#cccccc" stroke-width="1" /><line x1="63.800000000000004" y1="269" x2="663.8000000000001" y2="269" stroke="#cccccc" stroke-width="1" /><line x1="63.800000000000004" y1="156.5" x2="663.8000000000001" y2="156.5" stroke="#cccccc" stroke-width="1" /><line x1="63.800000000000004" y1="44" x2="663.8000000000001" y2="44" stroke="#cccccc" stroke-width="1" /><line x1="63.800000000000004" y1="494" x2="663.8000000000001" y2="494" stroke="#000000" stroke-width="1" /><line x1="63.800000000000004" y1="44" x2="63.800000000000004" y2="494" stroke="#000000" stroke-width="1" /><line x1="63.800000000000004" y1="494" x2="63.800000000000004" y2="499" stroke="#000000" stroke-width="1" /><text x="63.800000000000004" y="511" font-size="12" text-anchor="middle">-10</text><line x1="213.8" y1="494" x2="213.8" y2="499" stroke="#000000" stroke-width="1" /><text x="213.8" y="511" font-size="12" text-anchor="middle">-5</text><line x1="363.8" y1="494" x2="363.8" y2="499" stroke="#000000" stroke-width="1" /><text x="363.8" y="511" font-size="12" text-anchor="middle">0</text><line x1="513.8" y1="494" x2="513.8" y2="499" stroke="#000000" stroke-width="1" /><text x="513.8" y="511" font-size="12" text-anchor="middle">5</text><line x1="663.8000000000001" y1="494" x2="663.8000000000001" y2="499" stroke="#000000" stroke-width="1" /><text x="663.8000000000001" y="511" font-size="12" text-anchor="middle">10</text><line x1="58.800000000000004" y1="494" x2="63.800000000000004" y2="494" stroke="#000000" stroke-width="1" /><text x="55.800000000000004" y="498.2" font-size="12" text-anchor="end">-10</text><line x1="58.800000000000004" y1="381.5" x2="63.800000000000004" y2="381.5" stroke="#000000" stroke-width="1" /><text x="55.800000000000004" y="385.7" font-size="12" text-anchor="end">-5</text><line x1="58.800000000000004" y1="269" x2="63.800000000000004" y2="269" stroke="#000000" stroke-width="1" /><text x="55.800000000000004" y="273.2" font-size="12" text-anchor="end">0</text><line x1="58.800000000000004" y1="156.5" x2="63.800000000000004" y2="156.5" stroke="#000000" stroke-width="1" /><text x="55.800000000000004" y="160.70000000000002" font-size="12" text-anchor="end">5</text><line x1="58.800000000000004" y1="44" x2="63.800000000000004" y2="44" stroke="#000000" stroke-width="1" /><text x="55.800000000000004" y="48.2" font-size="12" text-anchor="end">10</text><text x="363.8" y="538" font-size="14" text-anchor="middle">x</text><text x="15" y="272.5" font-size="14" text-anchor="middle" transform="rotate(-90,15,272.5)">y</text><text x="385.90000000000003" y="27.400000000000002" font-size="18" text-anchor="middle">Divergent Source</text><g clip-path="url(#kuva-clip-2)"><line x1="298.65000000000003" y1="317.86" x2="140.15" y2="436.74" stroke="#f0f921" stroke-width="1.4000000000000001" /><path d="M 128.95 445.14 L 136.37 431.70 L 143.93 441.78 Z" stroke="#f0f921" stroke-width="0" fill="#f0f921" /><line x1="298.65000000000003" y1="307" x2="141.04" y2="398.94" stroke="#fdc626" stroke-width="1.4000000000000001" /><path d="M 128.95 406.00 L 137.87 393.50 L 144.21 404.39 Z" stroke="#fdc626" stroke-width="0" fill="#fdc626" /><line x1="298.65000000000003" y1="296.14" x2="141.87" y2="361.47" stroke="#fba138" stroke-width="1.4000000000000001" /><path d="M 128.95 366.86 L 139.45 355.66 L 144.29 367.29 Z" stroke="#fba138" stroke-width="0" fill="#fba138" /><line x1="298.65000000000003" y1="285.29" x2="142.53" y2="324.32" stroke="#f38749" stroke-width="1.4000000000000001" /><path d="M 128.95 327.71 L 141.00 318.21 L 144.06 330.43 Z" stroke="#f38749" stroke-width="0" fill="#f38749" /><line x1="298.65000000000003" y1="274.43" x2="142.9" y2="287.41" stroke="#ee7b51" stroke-width="1.4000000000000001" /><path d="M 128.95 288.57 L 142.38 281.13 L 143.42 293.69 Z" stroke="#ee7b51" stroke-width="0" fill="#ee7b51" /><line x1="298.65000000000003" y1="263.57" x2="142.9" y2="250.59" stroke="#ee7b51" stroke-width="1.4000000000000001" /><path d="M 128.95 249.43 L 143.42 244.31 L 142.38 256.87 Z" stroke="#ee7b51" stroke-width="0" fill="#ee7b51" /><line x1="298.65000000000003" y1="252.71" x2="142.53" y2="213.68" stroke="#f38749" stroke-width="1.4000000000000001" /><path d="M 128.95 210.29 L 144.06 207.57 L 141.00 219.79 Z" stroke="#f38749" stroke-width="0" fill="#f38749" /><line x1="298.65000000000003" y1="241.86" x2="141.87" y2="176.53" stroke="#fba138" stroke-width="1.4000000000000001" /><path d="M 128.95 171.14 L 144.29 170.71 L 139.45 182.34 Z" stroke="#fba138" stroke-width="0" fill="#fba138" /><line x1="298.65000000000003" y1="231" x2="141.04" y2="139.06" stroke="#fdc626" stroke-width="1.4000000000000001" /><path d="M 128.95 132.00 L 144.21 133.61 L 137.87 144.50 Z" stroke="#fdc626" stroke-width="0" fill="#fdc626" /><line x1="298.65000000000003" y1="220.14000000000001" x2="140.15" y2="101.26" stroke="#f0f921" stroke-width="1.4000000000000001" /><path d="M 128.95 92.86 L 143.93 96.22 L 136.37 106.30 Z" stroke="#f0f921" stroke-width="0" fill="#f0f921" /><line x1="313.13" y1="317.86" x2="191.21" y2="435.42" stroke="#fdc626" stroke-width="1.4000000000000001" /><path d="M 181.14 445.14 L 186.84 430.89 L 195.59 439.96 Z" stroke="#fdc626" stroke-width="0" fill="#fdc626" /><line x1="313.13" y1="307" x2="192.34" y2="397.6" stroke="#f79440" stroke-width="1.4000000000000001" /><path d="M 181.14 406.00 L 188.56 392.56 L 196.12 402.64 Z" stroke="#f79440" stroke-width="0" fill="#f79440" /><line x1="313.13" y1="296.14" x2="193.48000000000002" y2="360.24" stroke="#e76f59" stroke-width="1.4000000000000001" /><path d="M 181.14 366.86 L 190.50 354.69 L 196.45 365.80 Z" stroke="#e76f59" stroke-width="0" fill="#e76f59" /><line x1="313.13" y1="285.29" x2="194.47" y2="323.43" stroke="#d5546d" stroke-width="1.4000000000000001" /><path d="M 181.14 327.71 L 192.54 317.43 L 196.39 329.43 Z" stroke="#d5546d" stroke-width="0" fill="#d5546d" /><line x1="313.13" y1="274.43" x2="195.06" y2="287.08" stroke="#cb4678" stroke-width="1.4000000000000001" /><path d="M 181.14 288.57 L 194.39 280.82 L 195.73 293.34 Z" stroke="#cb4678" stroke-width="0" fill="#cb4678" /><line x1="313.13" y1="263.57" x2="195.06" y2="250.92000000000002" stroke="#cb4678" stroke-width="1.4000000000000001" /><path d="M 181.14 249.43 L 195.73 244.66 L 194.39 257.18 Z" stroke="#cb4678" stroke-width="0" fill="#cb4678" /><line x1="313.13" y1="252.71" x2="194.47" y2="214.57" stroke="#d5546d" stroke-width="1.4000000000000001" /><path d="M 181.14 210.29 L 196.39 208.57 L 192.54 220.57 Z" stroke="#d5546d" stroke-width="0" fill="#d5546d" /><line x1="313.13" y1="241.86" x2="193.48000000000002" y2="177.76" stroke="#e76f59" stroke-width="1.4000000000000001" /><path d="M 181.14 171.14 L 196.45 172.20 L 190.50 183.31 Z" stroke="#e76f59" stroke-width="0" fill="#e76f59" /><line x1="313.13" y1="231" x2="192.34" y2="140.4" stroke="#f79440" stroke-width="1.4000000000000001" /><path d="M 181.14 132.00 L 196.12 135.36 L 188.56 145.44 Z" stroke="#f79440" stroke-width="0" fill="#f79440" /><line x1="313.13" y1="220.14000000000001" x2="191.21" y2="102.58" stroke="#fdc626" stroke-width="1.4000000000000001" /><path d="M 181.14 92.86 L 195.59 98.04 L 186.84 107.11 Z" stroke="#fdc626" stroke-width="0" fill="#fdc626" /><line x1="327.61" y1="317.86" x2="241.66" y2="433.89" stroke="#fba138" stroke-width="1.4000000000000001" /><path d="M 233.33 445.14 L 236.60 430.14 L 246.72 437.64 Z" stroke="#fba138" stroke-width="0" fill="#fba138" /><line x1="327.61" y1="307" x2="242.98000000000002" y2="395.86" stroke="#e76f59" stroke-width="1.4000000000000001" /><path d="M 233.33 406.00 L 238.42 391.51 L 247.54 400.20 Z" stroke="#e76f59" stroke-width="0" fill="#e76f59" /><line x1="327.61" y1="296.14" x2="244.53" y2="358.46" stroke="#cb4678" stroke-width="1.4000000000000001" /><path d="M 233.33 366.86 L 240.75 353.42 L 248.31 363.50 Z" stroke="#cb4678" stroke-width="0" fill="#cb4678" /><line x1="327.61" y1="285.29" x2="246.09" y2="321.97" stroke="#ad2792" stroke-width="1.4000000000000001" /><path d="M 233.33 327.71 L 243.51 316.22 L 248.68 327.71 Z" stroke="#ad2792" stroke-width="0" fill="#ad2792" /><line x1="327.61" y1="274.43" x2="247.17000000000002" y2="286.49" stroke="#99159f" stroke-width="1.4000000000000001" /><path d="M 233.33 288.57 L 246.24 280.26 L 248.11 292.72 Z" stroke="#99159f" stroke-width="0" fill="#99159f" /><line x1="327.61" y1="263.57" x2="247.17000000000002" y2="251.51000000000002" stroke="#99159f" stroke-width="1.4000000000000001" /><path d="M 233.33 249.43 L 248.11 245.28 L 246.24 257.74 Z" stroke="#99159f" stroke-width="0" fill="#99159f" /><line x1="327.61" y1="252.71" x2="246.09" y2="216.03" stroke="#ad2792" stroke-width="1.4000000000000001" /><path d="M 233.33 210.29 L 248.68 210.29 L 243.51 221.78 Z" stroke="#ad2792" stroke-width="0" fill="#ad2792" /><line x1="327.61" y1="241.86" x2="244.53" y2="179.54" stroke="#cb4678" stroke-width="1.4000000000000001" /><path d="M 233.33 171.14 L 248.31 174.50 L 240.75 184.58 Z" stroke="#cb4678" stroke-width="0" fill="#cb4678" /><line x1="327.61" y1="231" x2="242.98000000000002" y2="142.14000000000001" stroke="#e76f59" stroke-width="1.4000000000000001" /><path d="M 233.33 132.00 L 247.54 137.80 L 238.42 146.49 Z" stroke="#e76f59" stroke-width="0" fill="#e76f59" /><line x1="327.61" y1="220.14000000000001" x2="241.66" y2="104.11" stroke="#fba138" stroke-width="1.4000000000000001" /><path d="M 233.33 92.86 L 246.72 100.36 L 236.60 107.86 Z" stroke="#fba138" stroke-width="0" fill="#fba138" /><line x1="342.08" y1="317.86" x2="291.2" y2="432.35" stroke="#f38749" stroke-width="1.4000000000000001" /><path d="M 285.52 445.14 L 285.44 429.79 L 296.96 434.90 Z" stroke="#f38749" stroke-width="0" fill="#f38749" /><line x1="342.08" y1="307" x2="292.46" y2="393.84000000000003" stroke="#d5546d" stroke-width="1.4000000000000001" /><path d="M 285.52 406.00 L 286.99 390.72 L 297.93 396.97 Z" stroke="#d5546d" stroke-width="0" fill="#d5546d" /><line x1="342.08" y1="296.14" x2="294.26" y2="355.92" stroke="#ad2792" stroke-width="1.4000000000000001" /><path d="M 285.52 366.86 L 289.34 351.99 L 299.18 359.86 Z" stroke="#ad2792" stroke-width="0" fill="#ad2792" /><line x1="342.08" y1="285.29" x2="296.72" y2="319.31" stroke="#7d03a8" stroke-width="1.4000000000000001" /><path d="M 285.52 327.71 L 292.94 314.27 L 300.50 324.35 Z" stroke="#7d03a8" stroke-width="0" fill="#7d03a8" /><line x1="342.08" y1="274.43" x2="299.1" y2="285.18" stroke="#5801a4" stroke-width="1.4000000000000001" /><path d="M 285.52 288.57 L 297.57 279.06 L 300.63 291.29 Z" stroke="#5801a4" stroke-width="0" fill="#5801a4" /><line x1="342.08" y1="263.57" x2="299.1" y2="252.82" stroke="#5801a4" stroke-width="1.4000000000000001" /><path d="M 285.52 249.43 L 300.63 246.71 L 297.57 258.94 Z" stroke="#5801a4" stroke-width="0" fill="#5801a4" /><line x1="342.08" y1="252.71" x2="296.72" y2="218.69" stroke="#7d03a8" stroke-width="1.4000000000000001" /><path d="M 285.52 210.29 L 300.50 213.65 L 292.94 223.73 Z" stroke="#7d03a8" stroke-width="0" fill="#7d03a8" /><line x1="342.08" y1="241.86" x2="294.26" y2="182.08" stroke="#ad2792" stroke-width="1.4000000000000001" /><path d="M 285.52 171.14 L 299.18 178.14 L 289.34 186.01 Z" stroke="#ad2792" stroke-width="0" fill="#ad2792" /><line x1="342.08" y1="231" x2="292.46" y2="144.16" stroke="#d5546d" stroke-width="1.4000000000000001" /><path d="M 285.52 132.00 L 297.93 141.03 L 286.99 147.28 Z" stroke="#d5546d" stroke-width="0" fill="#d5546d" /><line x1="342.08" y1="220.14000000000001" x2="291.2" y2="105.65" stroke="#f38749" stroke-width="1.4000000000000001" /><path d="M 285.52 92.86 L 296.96 103.10 L 285.44 108.21 Z" stroke="#f38749" stroke-width="0" fill="#f38749" /><line x1="356.56" y1="317.86" x2="339.76" y2="431.29" stroke="#ee7b51" stroke-width="1.4000000000000001" /><path d="M 337.71 445.14 L 333.52 430.37 L 345.99 432.21 Z" stroke="#ee7b51" stroke-width="0" fill="#ee7b51" /><line x1="356.56" y1="307" x2="340.32" y2="392.24" stroke="#cb4678" stroke-width="1.4000000000000001" /><path d="M 337.71 406.00 L 334.14 391.07 L 346.51 393.42 Z" stroke="#cb4678" stroke-width="0" fill="#cb4678" /><line x1="356.56" y1="296.14" x2="341.31" y2="353.33" stroke="#99159f" stroke-width="1.4000000000000001" /><path d="M 337.71 366.86 L 335.23 351.70 L 347.40 354.95 Z" stroke="#99159f" stroke-width="0" fill="#99159f" /><line x1="356.56" y1="285.29" x2="342.98" y2="315.83" stroke="#5801a4" stroke-width="1.4000000000000001" /><path d="M 337.71 327.71 L 337.64 313.46 L 348.33 318.21 Z" stroke="#5801a4" stroke-width="0" fill="#5801a4" /><line x1="356.56" y1="274.43" x2="342.98" y2="284.61" stroke="#0d0887" stroke-width="1.4000000000000001" /><path d="M 337.71 288.57 L 341.20 282.24 L 344.77 286.99 Z" stroke="#0d0887" stroke-width="0" fill="#0d0887" /><line x1="356.56" y1="263.57" x2="342.98" y2="253.39000000000001" stroke="#0d0887" stroke-width="1.4000000000000001" /><path d="M 337.71 249.43 L 344.77 251.01 L 341.20 255.76 Z" stroke="#0d0887" stroke-width="0" fill="#0d0887" /><line x1="356.56" y1="252.71" x2="342.98" y2="222.17000000000002" stroke="#5801a4" stroke-width="1.4000000000000001" /><path d="M 337.71 210.29 L 348.33 219.79 L 337.64 224.54 Z" stroke="#5801a4" stroke-width="0" fill="#5801a4" /><line x1="356.56" y1="241.86" x2="341.31" y2="184.67000000000002" stroke="#99159f" stroke-width="1.4000000000000001" /><path d="M 337.71 171.14 L 347.40 183.05 L 335.23 186.30 Z" stroke="#99159f" stroke-width="0" fill="#99159f" /><line x1="356.56" y1="231" x2="340.32" y2="145.76" stroke="#cb4678" stroke-width="1.4000000000000001" /><path d="M 337.71 132.00 L 346.51 144.58 L 334.14 146.93 Z" stroke="#cb4678" stroke-width="0" fill="#cb4678" /><line x1="356.56" y1="220.14000000000001" x2="339.76" y2="106.71000000000001" stroke="#ee7b51" stroke-width="1.4000000000000001" /><path d="M 337.71 92.86 L 345.99 105.79 L 333.52 107.63 Z" stroke="#ee7b51" stroke-width="0" fill="#ee7b51" /><line x1="371.04" y1="317.86" x2="387.84000000000003" y2="431.29" stroke="#ee7b51" stroke-width="1.4000000000000001" /><path d="M 389.89 445.14 L 381.61 432.21 L 394.08 430.37 Z" stroke="#ee7b51" stroke-width="0" fill="#ee7b51" /><line x1="371.04" y1="307" x2="387.28000000000003" y2="392.24" stroke="#cb4678" stroke-width="1.4000000000000001" /><path d="M 389.89 406.00 L 381.09 393.42 L 393.46 391.07 Z" stroke="#cb4678" stroke-width="0" fill="#cb4678" /><line x1="371.04" y1="296.14" x2="386.29" y2="353.33" stroke="#99159f" stroke-width="1.4000000000000001" /><path d="M 389.89 366.86 L 380.20 354.95 L 392.37 351.70 Z" stroke="#99159f" stroke-width="0" fill="#99159f" /><line x1="371.04" y1="285.29" x2="384.62" y2="315.83" stroke="#5801a4" stroke-width="1.4000000000000001" /><path d="M 389.89 327.71 L 379.27 318.21 L 389.96 313.46 Z" stroke="#5801a4" stroke-width="0" fill="#5801a4" /><line x1="371.04" y1="274.43" x2="384.62" y2="284.61" stroke="#0d0887" stroke-width="1.4000000000000001" /><path d="M 389.89 288.57 L 382.83 286.99 L 386.40 282.24 Z" stroke="#0d0887" stroke-width="0" fill="#0d0887" /><line x1="371.04" y1="263.57" x2="384.62" y2="253.39000000000001" stroke="#0d0887" stroke-width="1.4000000000000001" /><path d="M 389.89 249.43 L 386.40 255.76 L 382.83 251.01 Z" stroke="#0d0887" stroke-width="0" fill="#0d0887" /><line x1="371.04" y1="252.71" x2="384.62" y2="222.17000000000002" stroke="#5801a4" stroke-width="1.4000000000000001" /><path d="M 389.89 210.29 L 389.96 224.54 L 379.27 219.79 Z" stroke="#5801a4" stroke-width="0" fill="#5801a4" /><line x1="371.04" y1="241.86" x2="386.29" y2="184.67000000000002" stroke="#99159f" stroke-width="1.4000000000000001" /><path d="M 389.89 171.14 L 392.37 186.30 L 380.20 183.05 Z" stroke="#99159f" stroke-width="0" fill="#99159f" /><line x1="371.04" y1="231" x2="387.28000000000003" y2="145.76" stroke="#cb4678" stroke-width="1.4000000000000001" /><path d="M 389.89 132.00 L 393.46 146.93 L 381.09 144.58 Z" stroke="#cb4678" stroke-width="0" fill="#cb4678" /><line x1="371.04" y1="220.14000000000001" x2="387.84000000000003" y2="106.71000000000001" stroke="#ee7b51" stroke-width="1.4000000000000001" /><path d="M 389.89 92.86 L 394.08 107.63 L 381.61 105.79 Z" stroke="#ee7b51" stroke-width="0" fill="#ee7b51" /><line x1="385.52" y1="317.86" x2="436.40000000000003" y2="432.35" stroke="#f38749" stroke-width="1.4000000000000001" /><path d="M 442.08 445.14 L 430.64 434.90 L 442.16 429.79 Z" stroke="#f38749" stroke-width="0" fill="#f38749" /><line x1="385.52" y1="307" x2="435.14" y2="393.84000000000003" stroke="#d5546d" stroke-width="1.4000000000000001" /><path d="M 442.08 406.00 L 429.67 396.97 L 440.61 390.72 Z" stroke="#d5546d" stroke-width="0" fill="#d5546d" /><line x1="385.52" y1="296.14" x2="433.34000000000003" y2="355.92" stroke="#ad2792" stroke-width="1.4000000000000001" /><path d="M 442.08 366.86 L 428.42 359.86 L 438.26 351.99 Z" stroke="#ad2792" stroke-width="0" fill="#ad2792" /><line x1="385.52" y1="285.29" x2="430.88" y2="319.31" stroke="#7d03a8" stroke-width="1.4000000000000001" /><path d="M 442.08 327.71 L 427.10 324.35 L 434.66 314.27 Z" stroke="#7d03a8" stroke-width="0" fill="#7d03a8" /><line x1="385.52" y1="274.43" x2="428.5" y2="285.18" stroke="#5801a4" stroke-width="1.4000000000000001" /><path d="M 442.08 288.57 L 426.97 291.29 L 430.03 279.06 Z" stroke="#5801a4" stroke-width="0" fill="#5801a4" /><line x1="385.52" y1="263.57" x2="428.5" y2="252.82" stroke="#5801a4" stroke-width="1.4000000000000001" /><path d="M 442.08 249.43 L 430.03 258.94 L 426.97 246.71 Z" stroke="#5801a4" stroke-width="0" fill="#5801a4" /><line x1="385.52" y1="252.71" x2="430.88" y2="218.69" stroke="#7d03a8" stroke-width="1.4000000000000001" /><path d="M 442.08 210.29 L 434.66 223.73 L 427.10 213.65 Z" stroke="#7d03a8" stroke-width="0" fill="#7d03a8" /><line x1="385.52" y1="241.86" x2="433.34000000000003" y2="182.08" stroke="#ad2792" stroke-width="1.4000000000000001" /><path d="M 442.08 171.14 L 438.26 186.01 L 428.42 178.14 Z" stroke="#ad2792" stroke-width="0" fill="#ad2792" /><line x1="385.52" y1="231" x2="435.14" y2="144.16" stroke="#d5546d" stroke-width="1.4000000000000001" /><path d="M 442.08 132.00 L 440.61 147.28 L 429.67 141.03 Z" stroke="#d5546d" stroke-width="0" fill="#d5546d" /><line x1="385.52" y1="220.14000000000001" x2="436.40000000000003" y2="105.65" stroke="#f38749" stroke-width="1.4000000000000001" /><path d="M 442.08 92.86 L 442.16 108.21 L 430.64 103.10 Z" stroke="#f38749" stroke-width="0" fill="#f38749" /><line x1="399.99" y1="317.86" x2="485.94" y2="433.89" stroke="#fba138" stroke-width="1.4000000000000001" /><path d="M 494.27 445.14 L 480.88 437.64 L 491.00 430.14 Z" stroke="#fba138" stroke-width="0" fill="#fba138" /><line x1="399.99" y1="307" x2="484.62" y2="395.86" stroke="#e76f59" stroke-width="1.4000000000000001" /><path d="M 494.27 406.00 L 480.06 400.20 L 489.18 391.51 Z" stroke="#e76f59" stroke-width="0" fill="#e76f59" /><line x1="399.99" y1="296.14" x2="483.07" y2="358.46" stroke="#cb4678" stroke-width="1.4000000000000001" /><path d="M 494.27 366.86 L 479.29 363.50 L 486.85 353.42 Z" stroke="#cb4678" stroke-width="0" fill="#cb4678" /><line x1="399.99" y1="285.29" x2="481.51" y2="321.97" stroke="#ad2792" stroke-width="1.4000000000000001" /><path d="M 494.27 327.71 L 478.92 327.71 L 484.09 316.22 Z" stroke="#ad2792" stroke-width="0" fill="#ad2792" /><line x1="399.99" y1="274.43" x2="480.43" y2="286.49" stroke="#99159f" stroke-width="1.4000000000000001" /><path d="M 494.27 288.57 L 479.49 292.72 L 481.36 280.26 Z" stroke="#99159f" stroke-width="0" fill="#99159f" /><line x1="399.99" y1="263.57" x2="480.43" y2="251.51000000000002" stroke="#99159f" stroke-width="1.4000000000000001" /><path d="M 494.27 249.43 L 481.36 257.74 L 479.49 245.28 Z" stroke="#99159f" stroke-width="0" fill="#99159f" /><line x1="399.99" y1="252.71" x2="481.51" y2="216.03" stroke="#ad2792" stroke-width="1.4000000000000001" /><path d="M 494.27 210.29 L 484.09 221.78 L 478.92 210.29 Z" stroke="#ad2792" stroke-width="0" fill="#ad2792" /><line x1="399.99" y1="241.86" x2="483.07" y2="179.54" stroke="#cb4678" stroke-width="1.4000000000000001" /><path d="M 494.27 171.14 L 486.85 184.58 L 479.29 174.50 Z" stroke="#cb4678" stroke-width="0" fill="#cb4678" /><line x1="399.99" y1="231" x2="484.62" y2="142.14000000000001" stroke="#e76f59" stroke-width="1.4000000000000001" /><path d="M 494.27 132.00 L 489.18 146.49 L 480.06 137.80 Z" stroke="#e76f59" stroke-width="0" fill="#e76f59" /><line x1="399.99" y1="220.14000000000001" x2="485.94" y2="104.11" stroke="#fba138" stroke-width="1.4000000000000001" /><path d="M 494.27 92.86 L 491.00 107.86 L 480.88 100.36 Z" stroke="#fba138" stroke-width="0" fill="#fba138" /><line x1="414.47" y1="317.86" x2="536.39" y2="435.42" stroke="#fdc626" stroke-width="1.4000000000000001" /><path d="M 546.46 445.14 L 532.01 439.96 L 540.76 430.89 Z" stroke="#fdc626" stroke-width="0" fill="#fdc626" /><line x1="414.47" y1="307" x2="535.26" y2="397.6" stroke="#f79440" stroke-width="1.4000000000000001" /><path d="M 546.46 406.00 L 531.48 402.64 L 539.04 392.56 Z" stroke="#f79440" stroke-width="0" fill="#f79440" /><line x1="414.47" y1="296.14" x2="534.12" y2="360.24" stroke="#e76f59" stroke-width="1.4000000000000001" /><path d="M 546.46 366.86 L 531.15 365.80 L 537.10 354.69 Z" stroke="#e76f59" stroke-width="0" fill="#e76f59" /><line x1="414.47" y1="285.29" x2="533.13" y2="323.43" stroke="#d5546d" stroke-width="1.4000000000000001" /><path d="M 546.46 327.71 L 531.21 329.43 L 535.06 317.43 Z" stroke="#d5546d" stroke-width="0" fill="#d5546d" /><line x1="414.47" y1="274.43" x2="532.54" y2="287.08" stroke="#cb4678" stroke-width="1.4000000000000001" /><path d="M 546.46 288.57 L 531.87 293.34 L 533.21 280.82 Z" stroke="#cb4678" stroke-width="0" fill="#cb4678" /><line x1="414.47" y1="263.57" x2="532.54" y2="250.92000000000002" stroke="#cb4678" stroke-width="1.4000000000000001" /><path d="M 546.46 249.43 L 533.21 257.18 L 531.87 244.66 Z" stroke="#cb4678" stroke-width="0" fill="#cb4678" /><line x1="414.47" y1="252.71" x2="533.13" y2="214.57" stroke="#d5546d" stroke-width="1.4000000000000001" /><path d="M 546.46 210.29 L 535.06 220.57 L 531.21 208.57 Z" stroke="#d5546d" stroke-width="0" fill="#d5546d" /><line x1="414.47" y1="241.86" x2="534.12" y2="177.76" stroke="#e76f59" stroke-width="1.4000000000000001" /><path d="M 546.46 171.14 L 537.10 183.31 L 531.15 172.20 Z" stroke="#e76f59" stroke-width="0" fill="#e76f59" /><line x1="414.47" y1="231" x2="535.26" y2="140.4" stroke="#f79440" stroke-width="1.4000000000000001" /><path d="M 546.46 132.00 L 539.04 145.44 L 531.48 135.36 Z" stroke="#f79440" stroke-width="0" fill="#f79440" /><line x1="414.47" y1="220.14000000000001" x2="536.39" y2="102.58" stroke="#fdc626" stroke-width="1.4000000000000001" /><path d="M 546.46 92.86 L 540.76 107.11 L 532.01 98.04 Z" stroke="#fdc626" stroke-width="0" fill="#fdc626" /><line x1="428.95" y1="317.86" x2="587.45" y2="436.74" stroke="#f0f921" stroke-width="1.4000000000000001" /><path d="M 598.65 445.14 L 583.67 441.78 L 591.23 431.70 Z" stroke="#f0f921" stroke-width="0" fill="#f0f921" /><line x1="428.95" y1="307" x2="586.5600000000001" y2="398.94" stroke="#fdc626" stroke-width="1.4000000000000001" /><path d="M 598.65 406.00 L 583.39 404.39 L 589.73 393.50 Z" stroke="#fdc626" stroke-width="0" fill="#fdc626" /><line x1="428.95" y1="296.14" x2="585.73" y2="361.47" stroke="#fba138" stroke-width="1.4000000000000001" /><path d="M 598.65 366.86 L 583.31 367.29 L 588.15 355.66 Z" stroke="#fba138" stroke-width="0" fill="#fba138" /><line x1="428.95" y1="285.29" x2="585.07" y2="324.32" stroke="#f38749" stroke-width="1.4000000000000001" /><path d="M 598.65 327.71 L 583.54 330.43 L 586.60 318.21 Z" stroke="#f38749" stroke-width="0" fill="#f38749" /><line x1="428.95" y1="274.43" x2="584.7" y2="287.41" stroke="#ee7b51" stroke-width="1.4000000000000001" /><path d="M 598.65 288.57 L 584.18 293.69 L 585.22 281.13 Z" stroke="#ee7b51" stroke-width="0" fill="#ee7b51" /><line x1="428.95" y1="263.57" x2="584.7" y2="250.59" stroke="#ee7b51" stroke-width="1.4000000000000001" /><path d="M 598.65 249.43 L 585.22 256.87 L 584.18 244.31 Z" stroke="#ee7b51" stroke-width="0" fill="#ee7b51" /><line x1="428.95" y1="252.71" x2="585.07" y2="213.68" stroke="#f38749" stroke-width="1.4000000000000001" /><path d="M 598.65 210.29 L 586.60 219.79 L 583.54 207.57 Z" stroke="#f38749" stroke-width="0" fill="#f38749" /><line x1="428.95" y1="241.86" x2="585.73" y2="176.53" stroke="#fba138" stroke-width="1.4000000000000001" /><path d="M 598.65 171.14 L 588.15 182.34 L 583.31 170.71 Z" stroke="#fba138" stroke-width="0" fill="#fba138" /><line x1="428.95" y1="231" x2="586.5600000000001" y2="139.06" stroke="#fdc626" stroke-width="1.4000000000000001" /><path d="M 598.65 132.00 L 589.73 144.50 L 583.39 133.61 Z" stroke="#fdc626" stroke-width="0" fill="#fdc626" /><line x1="428.95" y1="220.14000000000001" x2="587.45" y2="101.26" stroke="#f0f921" stroke-width="1.4000000000000001" /><path d="M 598.65 92.86 L 591.23 106.30 L 583.67 96.22 Z" stroke="#f0f921" stroke-width="0" fill="#f0f921" /></g><rect x="706.8000000000001" y="89" width="20" height="7.7" fill="#f0f921" /><rect x="706.8000000000001" y="96.2" width="20" height="7.7" fill="#f2ef26" /><rect x="706.8000000000001" y="103.4" width="20" height="7.7" fill="#f5e725" /><rect x="706.8000000000001" y="110.60000000000001" width="20" height="7.7" fill="#f8dd24" /><rect x="706.8000000000001" y="117.8" width="20" height="7.7" fill="#fad524" /><rect x="706.8000000000001" y="125" width="20" height="7.7" fill="#fccc25" /><rect x="706.8000000000001" y="132.2" width="20" height="7.7" fill="#fdc427" /><rect x="706.8000000000001" y="139.4" width="20" height="7.7" fill="#fdbc2a" /><rect x="706.8000000000001" y="146.6" width="20" height="7.7" fill="#fdb42e" /><rect x="706.8000000000001" y="153.8" width="20" height="7.7" fill="#fdac32" /><rect x="706.8000000000001" y="161" width="20" height="7.7" fill="#fba437" /><rect x="706.8000000000001" y="168.20000000000002" width="20" height="7.7" fill="#fa9d3b" /><rect x="706.8000000000001" y="175.4" width="20" height="7.7" fill="#f8963f" /><rect x="706.8000000000001" y="182.6" width="20" height="7.7" fill="#f68f44" /><rect x="706.8000000000001" y="189.8" width="20" height="7.7" fill="#f38848" /><rect x="706.8000000000001" y="197" width="20" height="7.7" fill="#f0814d" /><rect x="706.8000000000001" y="204.20000000000002" width="20" height="7.7" fill="#ed7a51" /><rect x="706.8000000000001" y="211.4" width="20" height="7.7" fill="#ea7456" /><rect x="706.8000000000001" y="218.6" width="20" height="7.7" fill="#e66e5a" /><rect x="706.8000000000001" y="225.8" width="20" height="7.7" fill="#e3685e" /><rect x="706.8000000000001" y="233" width="20" height="7.7" fill="#de6163" /><rect x="706.8000000000001" y="240.20000000000002" width="20" height="7.7" fill="#da5b68" /><rect x="706.8000000000001" y="247.4" width="20" height="7.7" fill="#d6556c" /><rect x="706.8000000000001" y="254.6" width="20" height="7.7" fill="#d24f71" /><rect x="706.8000000000001" y="261.8" width="20" height="7.7" fill="#cd4a75" /><rect x="706.8000000000001" y="269" width="20" height="7.7" fill="#c8437a" /><rect x="706.8000000000001" y="276.2" width="20" height="7.7" fill="#c33d7f" /><rect x="706.8000000000001" y="283.40000000000003" width="20" height="7.7" fill="#be3884" /><rect x="706.8000000000001" y="290.6" width="20" height="7.7" fill="#b83288" /><rect x="706.8000000000001" y="297.8" width="20" height="7.7" fill="#b32c8d" /><rect x="706.8000000000001" y="305" width="20" height="7.7" fill="#ac2693" /><rect x="706.8000000000001" y="312.2" width="20" height="7.7" fill="#a62097" /><rect x="706.8000000000001" y="319.40000000000003" width="20" height="7.7" fill="#a01a9b" /><rect x="706.8000000000001" y="326.6" width="20" height="7.7" fill="#99159f" /><rect x="706.8000000000001" y="333.8" width="20" height="7.7" fill="#920fa2" /><rect x="706.8000000000001" y="341" width="20" height="7.7" fill="#8a09a5" /><rect x="706.8000000000001" y="348.2" width="20" height="7.7" fill="#8305a6" /><rect x="706.8000000000001" y="355.40000000000003" width="20" height="7.7" fill="#7b02a8" /><rect x="706.8000000000001" y="362.6" width="20" height="7.7" fill="#7400a8" /><rect x="706.8000000000001" y="369.8" width="20" height="7.7" fill="#6c00a7" /><rect x="706.8000000000001" y="377" width="20" height="7.7" fill="#6300a7" /><rect x="706.8000000000001" y="384.2" width="20" height="7.7" fill="#5b01a5" /><rect x="706.8000000000001" y="391.40000000000003" width="20" height="7.7" fill="#5301a3" /><rect x="706.8000000000001" y="398.6" width="20" height="7.7" fill="#4b02a0" /><rect x="706.8000000000001" y="405.8" width="20" height="7.7" fill="#42039d" /><rect x="706.8000000000001" y="413" width="20" height="7.7" fill="#39039a" /><rect x="706.8000000000001" y="420.2" width="20" height="7.7" fill="#300596" /><rect x="706.8000000000001" y="427.40000000000003" width="20" height="7.7" fill="#260591" /><rect x="706.8000000000001" y="434.6" width="20" height="7.7" fill="#1b068d" /><rect x="706.8000000000001" y="441.8" width="20" height="7.7" fill="#0d0887" /><rect x="706.8000000000001" y="89" width="20" height="360" fill="none" stroke="#000000" stroke-width="1" /><line x1="726.8000000000001" y1="436.72" x2="730.8000000000001" y2="436.72" stroke="#000000" stroke-width="1" /><text x="731.8000000000001" y="440.72" font-size="12" text-anchor="start">0.25</text><line x1="726.8000000000001" y1="379.45" x2="730.8000000000001" y2="379.45" stroke="#000000" stroke-width="1" /><text x="731.8000000000001" y="383.45" font-size="12" text-anchor="start">0.5</text><line x1="726.8000000000001" y1="322.17" x2="730.8000000000001" y2="322.17" stroke="#000000" stroke-width="1" /><text x="731.8000000000001" y="326.17" font-size="12" text-anchor="start">0.75</text><line x1="726.8000000000001" y1="264.9" x2="730.8000000000001" y2="264.9" stroke="#000000" stroke-width="1" /><text x="731.8000000000001" y="268.9" font-size="12" text-anchor="start">1</text><line x1="726.8000000000001" y1="207.62" x2="730.8000000000001" y2="207.62" stroke="#000000" stroke-width="1" /><text x="731.8000000000001" y="211.62" font-size="12" text-anchor="start">1.25</text><line x1="726.8000000000001" y1="150.35" x2="730.8000000000001" y2="150.35" stroke="#000000" stroke-width="1" /><text x="731.8000000000001" y="154.35" font-size="12" text-anchor="start">1.5</text><line x1="726.8000000000001" y1="93.07000000000001" x2="730.8000000000001" y2="93.07000000000001" stroke="#000000" stroke-width="1" /><text x="731.8000000000001" y="97.07000000000001" font-size="12" text-anchor="start">1.75</text><text x="696.8000000000001" y="269" font-size="12" text-anchor="middle" transform="rotate(-90,696.8000000000001,269)">|v|</text></svg>