<svg xmlns="http://www.w3.org/2000/svg" width="767" height="545" font-family="DejaVu Sans, Liberation Sans, Arial, sans-serif" fill="black"><rect width="100%" height="100%" fill="white" /><defs><clipPath id="kuva-clip-2"><rect x="59" y="44" width="600" height="450"/></clipPath></defs><line x1="109" y1="44" x2="109" y2="494" stroke="#cccccc" stroke-width="1" /><line x1="234" y1="44" x2="234" y2="494" stroke="#cccccc" stroke-width="1" /><line x1="359" y1="44" x2="359" y2="494" stroke="#cccccc" stroke-width="1" /><line x1="484" y1="44" x2="484" y2="494" stroke="#cccccc" stroke-width="1" /><line x1="609" y1="44" x2="609" y2="494" stroke="#cccccc" stroke-width="1" /><line x1="59" y1="456.5" x2="659" y2="456.5" stroke="#cccccc" stroke-width="1" /><line x1="59" y1="362.75" x2="659" y2="362.75" stroke="#cccccc" stroke-width="1" /><line x1="59" y1="269" x2="659" y2="269" stroke="#cccccc" stroke-width="1" /><line x1="59" y1="175.25" x2="659" y2="175.25" stroke="#cccccc" stroke-width="1" /><line x1="59" y1="81.5" x2="659" y2="81.5" stroke="#cccccc" stroke-width="1" /><line x1="59" y1="494" x2="659" y2="494" stroke="#000000" stroke-width="1" /><line x1="59" y1="44" x2="59" y2="494" stroke="#000000" stroke-width="1" /><line x1="109" y1="494" x2="109" y2="499" stroke="#000000" stroke-width="1" /><text x="109" y="511" font-size="12" text-anchor="middle">-5</text><line x1="234" y1="494" x2="234" y2="499" stroke="#000000" stroke-width="1" /><text x="234" y="511" font-size="12" text-anchor="middle">-2.5</text><line x1="359" y1="494" x2="359" y2="499" stroke="#000000" stroke-width="1" /><text x="359" y="511" font-size="12" text-anchor="middle">0</text><line x1="484" y1="494" x2="484" y2="499" stroke="#000000" stroke-width="1" /><text x="484" y="511" font-size="12" text-anchor="middle">2.5</text><line x1="609" y1="494" x2="609" y2="499" stroke="#000000" stroke-width="1" /><text x="609" y="511" font-size="12" text-anchor="middle">5</text><line x1="54" y1="456.5" x2="59" y2="456.5" stroke="#000000" stroke-width="1" /><text x="51" y="460.7" font-size="12" text-anchor="end">-5</text><line x1="54" y1="362.75" x2="59" y2="362.75" stroke="#000000" stroke-width="1" /><text x="51" y="366.95" font-size="12" text-anchor="end">-2.5</text><line x1="54" y1="269" x2="59" y2="269" stroke="#000000" stroke-width="1" /><text x="51" y="273.2" font-size="12" text-anchor="end">0</text><line x1="54" y1="175.25" x2="59" y2="175.25" stroke="#000000" stroke-width="1" /><text x="51" y="179.45000000000002" font-size="12" text-anchor="end">2.5</text><line x1="54" y1="81.5" x2="59" y2="81.5" stroke="#000000" stroke-width="1" /><text x="51" y="85.7" font-size="12" text-anchor="end">5</text><text x="359" y="538" font-size="14" text-anchor="middle">x</text><text x="15" y="272.5" font-size="14" text-anchor="middle" transform="rotate(-90,15,272.5)">y</text><text x="383.5" y="27.400000000000002" font-size="18" text-anchor="middle">Divergent Source</text><g clip-path="url(#kuva-clip-2)"><line x1="123.14" y1="445.89" x2="102.78" y2="461.17" stroke="#f0f921" stroke-width="1.4000000000000001" /><path d="M 94.86 467.11 L 100.10 457.60 L 105.45 464.73 Z" stroke="#f0f921" stroke-width="0" fill="#f0f921" /><line x1="123.14" y1="406.58" x2="102.78" y2="418.46000000000004" stroke="#fdc626" stroke-width="1.4000000000000001" /><path d="M 94.86 423.08 L 100.70 414.90 L 104.86 422.03 Z" stroke="#fdc626" stroke-width="0" fill="#fdc626" /><line x1="123.14" y1="367.27" x2="102.78" y2="375.76" stroke="#fba138" stroke-width="1.4000000000000001" /><path d="M 94.86 379.06 L 101.29 372.20 L 104.26 379.32 Z" stroke="#fba138" stroke-width="0" fill="#fba138" /><line x1="123.14" y1="327.96" x2="102.78" y2="333.06" stroke="#f38749" stroke-width="1.4000000000000001" /><path d="M 94.86 335.04 L 101.89 329.49 L 103.67 336.62 Z" stroke="#f38749" stroke-width="0" fill="#f38749" /><line x1="123.14" y1="288.65000000000003" x2="102.78" y2="290.35" stroke="#ee7b51" stroke-width="1.4000000000000001" /><path d="M 94.86 291.01 L 102.48 286.79 L 103.07 293.92 Z" stroke="#ee7b51" stroke-width="0" fill="#ee7b51" /><line x1="123.14" y1="249.35" x2="102.78" y2="247.65" stroke="#ee7b51" stroke-width="1.4000000000000001" /><path d="M 94.86 246.99 L 103.07 244.08 L 102.48 251.21 Z" stroke="#ee7b51" stroke-width="0" fill="#ee7b51" /><line x1="123.14" y1="210.04" x2="102.78" y2="204.94" stroke="#f38749" stroke-width="1.4000000000000001" /><path d="M 94.86 202.96 L 103.67 201.38 L 101.89 208.51 Z" stroke="#f38749" stroke-width="0" fill="#f38749" /><line x1="123.14" y1="170.73" x2="102.78" y2="162.24" stroke="#fba138" stroke-width="1.4000000000000001" /><path d="M 94.86 158.94 L 104.26 158.68 L 101.29 165.80 Z" stroke="#fba138" stroke-width="0" fill="#fba138" /><line x1="123.14" y1="131.42000000000002" x2="102.78" y2="119.54" stroke="#fdc626" stroke-width="1.4000000000000001" /><path d="M 94.86 114.92 L 104.86 115.97 L 100.70 123.10 Z" stroke="#fdc626" stroke-width="0" fill="#fdc626" /><line x1="123.14" y1="92.11" x2="102.78" y2="76.83" stroke="#f0f921" stroke-width="1.4000000000000001" /><path d="M 94.86 70.89 L 105.45 73.27 L 100.10 80.40 Z" stroke="#f0f921" stroke-width="0" fill="#f0f921" /><line x1="175.55" y1="445.89" x2="159.72" y2="461.17" stroke="#fdc626" stroke-width="1.4000000000000001" /><path d="M 153.56 467.11 L 157.04 458.40 L 162.39 463.94 Z" stroke="#fdc626" stroke-width="0" fill="#fdc626" /><line x1="175.55" y1="406.58" x2="159.72" y2="418.46000000000004" stroke="#f79440" stroke-width="1.4000000000000001" /><path d="M 153.56 423.08 L 157.64 415.69 L 161.79 421.24 Z" stroke="#f79440" stroke-width="0" fill="#f79440" /><line x1="175.55" y1="367.27" x2="159.72" y2="375.76" stroke="#e76f59" stroke-width="1.4000000000000001" /><path d="M 153.56 379.06 L 158.23 372.99 L 161.20 378.53 Z" stroke="#e76f59" stroke-width="0" fill="#e76f59" /><line x1="175.55" y1="327.96" x2="159.72" y2="333.06" stroke="#d5546d" stroke-width="1.4000000000000001" /><path d="M 153.56 335.04 L 158.82 330.28 L 160.61 335.83 Z" stroke="#d5546d" stroke-width="0" fill="#d5546d" /><line x1="175.55" y1="288.65000000000003" x2="159.72" y2="290.35" stroke="#cb4678" stroke-width="1.4000000000000001" /><path d="M 153.56 291.01 L 159.42 287.58 L 160.01 293.12 Z" stroke="#cb4678" stroke-width="0" fill="#cb4678" /><line x1="175.55" y1="249.35" x2="159.72" y2="247.65" stroke="#cb4678" stroke-width="1.4000000000000001" /><path d="M 153.56 246.99 L 160.01 244.88 L 159.42 250.42 Z" stroke="#cb4678" stroke-width="0" fill="#cb4678" /><line x1="175.55" y1="210.04" x2="159.72" y2="204.94" stroke="#d5546d" stroke-width="1.4000000000000001" /><path d="M 153.56 202.96 L 160.61 202.17 L 158.82 207.72 Z" stroke="#d5546d" stroke-width="0" fill="#d5546d" /><line x1="175.55" y1="170.73" x2="159.72" y2="162.24" stroke="#e76f59" stroke-width="1.4000000000000001" /><path d="M 153.56 158.94 L 161.20 159.47 L 158.23 165.01 Z" stroke="#e76f59" stroke-width="0" fill="#e76f59" /><line x1="175.55" y1="131.42000000000002" x2="159.72" y2="119.54" stroke="#f79440" stroke-width="1.4000000000000001" /><path d="M 153.56 114.92 L 161.79 116.76 L 157.64 122.31 Z" stroke="#f79440" stroke-width="0" fill="#f79440" /><line x1="175.55" y1="92.11" x2="159.72" y2="76.83" stroke="#fdc626" stroke-width="1.4000000000000001" /><path d="M 153.56 70.89 L 162.39 74.06 L 157.04 79.60 Z" stroke="#fdc626" stroke-width="0" fill="#fdc626" /><line x1="227.97" y1="445.89" x2="216.65" y2="461.17" stroke="#fba138" stroke-width="1.4000000000000001" /><path d="M 212.25 467.11 L 213.98 459.19 L 219.33 463.15 Z" stroke="#fba138" stroke-width="0" fill="#fba138" /><line x1="227.97" y1="406.58" x2="216.65" y2="418.46000000000004" stroke="#e76f59" stroke-width="1.4000000000000001" /><path d="M 212.25 423.08 L 214.58 416.48 L 218.73 420.44 Z" stroke="#e76f59" stroke-width="0" fill="#e76f59" /><line x1="227.97" y1="367.27" x2="216.65" y2="375.76" stroke="#cb4678" stroke-width="1.4000000000000001" /><path d="M 212.25 379.06 L 215.17 373.78 L 218.14 377.74 Z" stroke="#cb4678" stroke-width="0" fill="#cb4678" /><line x1="227.97" y1="327.96" x2="216.65" y2="333.06" stroke="#ad2792" stroke-width="1.4000000000000001" /><path d="M 212.25 335.04 L 215.76 331.08 L 217.55 335.04 Z" stroke="#ad2792" stroke-width="0" fill="#ad2792" /><line x1="227.97" y1="288.65000000000003" x2="216.65" y2="290.35" stroke="#99159f" stroke-width="1.4000000000000001" /><path d="M 212.25 291.01 L 216.36 288.37 L 216.95 292.33 Z" stroke="#99159f" stroke-width="0" fill="#99159f" /><line x1="227.97" y1="249.35" x2="216.65" y2="247.65" stroke="#99159f" stroke-width="1.4000000000000001" /><path d="M 212.25 246.99 L 216.95 245.67 L 216.36 249.63 Z" stroke="#99159f" stroke-width="0" fill="#99159f" /><line x1="227.97" y1="210.04" x2="216.65" y2="204.94" stroke="#ad2792" stroke-width="1.4000000000000001" /><path d="M 212.25 202.96 L 217.55 202.96 L 215.76 206.92 Z" stroke="#ad2792" stroke-width="0" fill="#ad2792" /><line x1="227.97" y1="170.73" x2="216.65" y2="162.24" stroke="#cb4678" stroke-width="1.4000000000000001" /><path d="M 212.25 158.94 L 218.14 160.26 L 215.17 164.22 Z" stroke="#cb4678" stroke-width="0" fill="#cb4678" /><line x1="227.97" y1="131.42000000000002" x2="216.65" y2="119.54" stroke="#e76f59" stroke-width="1.4000000000000001" /><path d="M 212.25 114.92 L 218.73 117.56 L 214.58 121.52 Z" stroke="#e76f59" stroke-width="0" fill="#e76f59" /><line x1="227.97" y1="92.11" x2="216.65" y2="76.83" stroke="#fba138" stroke-width="1.4000000000000001" /><path d="M 212.25 70.89 L 219.33 74.85 L 213.98 78.81 Z" stroke="#fba138" stroke-width="0" fill="#fba138" /><line x1="280.38" y1="445.89" x2="273.59000000000003" y2="461.17" stroke="#f38749" stroke-width="1.4000000000000001" /><path d="M 270.95 467.11 L 270.92 459.98 L 276.27 462.35 Z" stroke="#f38749" stroke-width="0" fill="#f38749" /><line x1="280.38" y1="406.58" x2="273.59000000000003" y2="418.46000000000004" stroke="#d5546d" stroke-width="1.4000000000000001" /><path d="M 270.95 423.08 L 271.51 417.28 L 275.67 419.65 Z" stroke="#d5546d" stroke-width="0" fill="#d5546d" /><line x1="280.38" y1="367.27" x2="273.59000000000003" y2="375.76" stroke="#ad2792" stroke-width="1.4000000000000001" /><path d="M 270.95 379.06 L 272.11 374.57 L 275.08 376.95 Z" stroke="#ad2792" stroke-width="0" fill="#ad2792" /><line x1="280.38" y1="327.96" x2="274.15000000000003" y2="332.64" stroke="#7d03a8" stroke-width="1.4000000000000001" /><path d="M 270.95 335.04 L 273.07 331.20 L 275.23 334.08 Z" stroke="#7d03a8" stroke-width="0" fill="#7d03a8" /><line x1="280.38" y1="288.65000000000003" x2="274.83" y2="290.04" stroke="#5801a4" stroke-width="1.4000000000000001" /><path d="M 270.95 291.01 L 274.40 288.30 L 275.27 291.79 Z" stroke="#5801a4" stroke-width="0" fill="#5801a4" /><line x1="280.38" y1="249.35" x2="274.83" y2="247.96" stroke="#5801a4" stroke-width="1.4000000000000001" /><path d="M 270.95 246.99 L 275.27 246.21 L 274.40 249.70 Z" stroke="#5801a4" stroke-width="0" fill="#5801a4" /><line x1="280.38" y1="210.04" x2="274.15000000000003" y2="205.36" stroke="#7d03a8" stroke-width="1.4000000000000001" /><path d="M 270.95 202.96 L 275.23 203.92 L 273.07 206.80 Z" stroke="#7d03a8" stroke-width="0" fill="#7d03a8" /><line x1="280.38" y1="170.73" x2="273.59000000000003" y2="162.24" stroke="#ad2792" stroke-width="1.4000000000000001" /><path d="M 270.95 158.94 L 275.08 161.05 L 272.11 163.43 Z" stroke="#ad2792" stroke-width="0" fill="#ad2792" /><line x1="280.38" y1="131.42000000000002" x2="273.59000000000003" y2="119.54" stroke="#d5546d" stroke-width="1.4000000000000001" /><path d="M 270.95 114.92 L 275.67 118.35 L 271.51 120.72 Z" stroke="#d5546d" stroke-width="0" fill="#d5546d" /><line x1="280.38" y1="92.11" x2="273.59000000000003" y2="76.83" stroke="#f38749" stroke-width="1.4000000000000001" /><path d="M 270.95 70.89 L 276.27 75.65 L 270.92 78.02 Z" stroke="#f38749" stroke-width="0" fill="#f38749" /><line x1="332.79" y1="445.89" x2="330.53000000000003" y2="461.17" stroke="#ee7b51" stroke-width="1.4000000000000001" /><path d="M 329.65 467.11 L 327.86 460.77 L 333.20 461.56 Z" stroke="#ee7b51" stroke-width="0" fill="#ee7b51" /><line x1="332.79" y1="406.58" x2="330.53000000000003" y2="418.46000000000004" stroke="#cb4678" stroke-width="1.4000000000000001" /><path d="M 329.65 423.08 L 328.45 418.07 L 332.61 418.86 Z" stroke="#cb4678" stroke-width="0" fill="#cb4678" /><line x1="332.79" y1="367.27" x2="330.68" y2="375.19" stroke="#99159f" stroke-width="1.4000000000000001" /><path d="M 329.65 379.06 L 328.94 374.73 L 332.42 375.66 Z" stroke="#99159f" stroke-width="0" fill="#99159f" /><line x1="332.79" y1="327.96" x2="331.28000000000003" y2="331.38" stroke="#5801a4" stroke-width="1.4000000000000001" /><path d="M 329.65 335.04 L 329.63 330.65 L 332.92 332.11 Z" stroke="#5801a4" stroke-width="0" fill="#5801a4" /><line x1="332.79" y1="288.65000000000003" x2="332.79" y2="288.65000000000003" stroke="#0d0887" stroke-width="1.4000000000000001" /><path d="M 329.65 291.01 L 331.73 287.24 L 333.85 290.07 Z" stroke="#0d0887" stroke-width="0" fill="#0d0887" /><line x1="332.79" y1="249.35" x2="332.79" y2="249.35" stroke="#0d0887" stroke-width="1.4000000000000001" /><path d="M 329.65 246.99 L 333.85 247.93 L 331.73 250.76 Z" stroke="#0d0887" stroke-width="0" fill="#0d0887" /><line x1="332.79" y1="210.04" x2="331.28000000000003" y2="206.62" stroke="#5801a4" stroke-width="1.4000000000000001" /><path d="M 329.65 202.96 L 332.92 205.89 L 329.63 207.35 Z" stroke="#5801a4" stroke-width="0" fill="#5801a4" /><line x1="332.79" y1="170.73" x2="330.68" y2="162.81" stroke="#99159f" stroke-width="1.4000000000000001" /><path d="M 329.65 158.94 L 332.42 162.34 L 328.94 163.27 Z" stroke="#99159f" stroke-width="0" fill="#99159f" /><line x1="332.79" y1="131.42000000000002" x2="330.53000000000003" y2="119.54" stroke="#cb4678" stroke-width="1.4000000000000001" /><path d="M 329.65 114.92 L 332.61 119.14 L 328.45 119.93 Z" stroke="#cb4678" stroke-width="0" fill="#cb4678" /><line x1="332.79" y1="92.11" x2="330.53000000000003" y2="76.83" stroke="#ee7b51" stroke-width="1.4000000000000001" /><path d="M 329.65 70.89 L 333.20 76.44 L 327.86 77.23 Z" stroke="#ee7b51" stroke-width="0" fill="#ee7b51" /><line x1="385.21000000000004" y1="445.89" x2="387.47" y2="461.17" stroke="#ee7b51" stroke-width="1.4000000000000001" /><path d="M 388.35 467.11 L 384.80 461.56 L 390.14 460.77 Z" stroke="#ee7b51" stroke-width="0" fill="#ee7b51" /><line x1="385.21000000000004" y1="406.58" x2="387.47" y2="418.46000000000004" stroke="#cb4678" stroke-width="1.4000000000000001" /><path d="M 388.35 423.08 L 385.39 418.86 L 389.55 418.07 Z" stroke="#cb4678" stroke-width="0" fill="#cb4678" /><line x1="385.21000000000004" y1="367.27" x2="387.32" y2="375.19" stroke="#99159f" stroke-width="1.4000000000000001" /><path d="M 388.35 379.06 L 385.58 375.66 L 389.06 374.73 Z" stroke="#99159f" stroke-width="0" fill="#99159f" /><line x1="385.21000000000004" y1="327.96" x2="386.72" y2="331.38" stroke="#5801a4" stroke-width="1.4000000000000001" /><path d="M 388.35 335.04 L 385.08 332.11 L 388.37 330.65 Z" stroke="#5801a4" stroke-width="0" fill="#5801a4" /><line x1="385.21000000000004" y1="288.65000000000003" x2="385.21000000000004" y2="288.65000000000003" stroke="#0d0887" stroke-width="1.4000000000000001" /><path d="M 388.35 291.01 L 384.15 290.07 L 386.27 287.24 Z" stroke="#0d0887" stroke-width="0" fill="#0d0887" /><line x1="385.21000000000004" y1="249.35" x2="385.21000000000004" y2="249.35" stroke="#0d0887" stroke-width="1.4000000000000001" /><path d="M 388.35 246.99 L 386.27 250.76 L 384.15 247.93 Z" stroke="#0d0887" stroke-width="0" fill="#0d0887" /><line x1="385.21000000000004" y1="210.04" x2="386.72" y2="206.62" stroke="#5801a4" stroke-width="1.4000000000000001" /><path d="M 388.35 202.96 L 388.37 207.35 L 385.08 205.89 Z" stroke="#5801a4" stroke-width="0" fill="#5801a4" /><line x1="385.21000000000004" y1="170.73" x2="387.32" y2="162.81" stroke="#99159f" stroke-width="1.4000000000000001" /><path d="M 388.35 158.94 L 389.06 163.27 L 385.58 162.34 Z" stroke="#99159f" stroke-width="0" fill="#99159f" /><line x1="385.21000000000004" y1="131.42000000000002" x2="387.47" y2="119.54" stroke="#cb4678" stroke-width="1.4000000000000001" /><path d="M 388.35 114.92 L 389.55 119.93 L 385.39 119.14 Z" stroke="#cb4678" stroke-width="0" fill="#cb4678" /><line x1="385.21000000000004" y1="92.11" x2="387.47" y2="76.83" stroke="#ee7b51" stroke-width="1.4000000000000001" /><path d="M 388.35 70.89 L 390.14 77.23 L 384.80 76.44 Z" stroke="#ee7b51" stroke-width="0" fill="#ee7b51" /><line x1="437.62" y1="445.89" x2="444.41" y2="461.17" stroke="#f38749" stroke-width="1.4000000000000001" /><path d="M 447.05 467.11 L 441.73 462.35 L 447.08 459.98 Z" stroke="#f38749" stroke-width="0" fill="#f38749" /><line x1="437.62" y1="406.58" x2="444.41" y2="418.46000000000004" stroke="#d5546d" stroke-width="1.4000000000000001" /><path d="M 447.05 423.08 L 442.33 419.65 L 446.49 417.28 Z" stroke="#d5546d" stroke-width="0" fill="#d5546d" /><line x1="437.62" y1="367.27" x2="444.41" y2="375.76" stroke="#ad2792" stroke-width="1.4000000000000001" /><path d="M 447.05 379.06 L 442.92 376.95 L 445.89 374.57 Z" stroke="#ad2792" stroke-width="0" fill="#ad2792" /><line x1="437.62" y1="327.96" x2="443.85" y2="332.64" stroke="#7d03a8" stroke-width="1.4000000000000001" /><path d="M 447.05 335.04 L 442.77 334.08 L 444.93 331.20 Z" stroke="#7d03a8" stroke-width="0" fill="#7d03a8" /><line x1="437.62" y1="288.65000000000003" x2="443.17" y2="290.04" stroke="#5801a4" stroke-width="1.4000000000000001" /><path d="M 447.05 291.01 L 442.73 291.79 L 443.60 288.30 Z" stroke="#5801a4" stroke-width="0" fill="#5801a4" /><line x1="437.62" y1="249.35" x2="443.17" y2="247.96" stroke="#5801a4" stroke-width="1.4000000000000001" /><path d="M 447.05 246.99 L 443.60 249.70 L 442.73 246.21 Z" stroke="#5801a4" stroke-width="0" fill="#5801a4" /><line x1="437.62" y1="210.04" x2="443.85" y2="205.36" stroke="#7d03a8" stroke-width="1.4000000000000001" /><path d="M 447.05 202.96 L 444.93 206.80 L 442.77 203.92 Z" stroke="#7d03a8" stroke-width="0" fill="#7d03a8" /><line x1="437.62" y1="170.73" x2="444.41" y2="162.24" stroke="#ad2792" stroke-width="1.4000000000000001" /><path d="M 447.05 158.94 L 445.89 163.43 L 442.92 161.05 Z" stroke="#ad2792" stroke-width="0" fill="#ad2792" /><line x1="437.62" y1="131.42000000000002" x2="444.41" y2="119.54" stroke="#d5546d" stroke-width="1.4000000000000001" /><path d="M 447.05 114.92 L 446.49 120.72 L 442.33 118.35 Z" stroke="#d5546d" stroke-width="0" fill="#d5546d" /><line x1="437.62" y1="92.11" x2="444.41" y2="76.83" stroke="#f38749" stroke-width="1.4000000000000001" /><path d="M 447.05 70.89 L 447.08 78.02 L 441.73 75.65 Z" stroke="#f38749" stroke-width="0" fill="#f38749" /><line x1="490.03000000000003" y1="445.89" x2="501.35" y2="461.17" stroke="#fba138" stroke-width="1.4000000000000001" /><path d="M 505.75 467.11 L 498.67 463.15 L 504.02 459.19 Z" stroke="#fba138" stroke-width="0" fill="#fba138" /><line x1="490.03000000000003" y1="406.58" x2="501.35" y2="418.46000000000004" stroke="#e76f59" stroke-width="1.4000000000000001" /><path d="M 505.75 423.08 L 499.27 420.44 L 503.42 416.48 Z" stroke="#e76f59" stroke-width="0" fill="#e76f59" /><line x1="490.03000000000003" y1="367.27" x2="501.35" y2="375.76" stroke="#cb4678" stroke-width="1.4000000000000001" /><path d="M 505.75 379.06 L 499.86 377.74 L 502.83 373.78 Z" stroke="#cb4678" stroke-width="0" fill="#cb4678" /><line x1="490.03000000000003" y1="327.96" x2="501.35" y2="333.06" stroke="#ad2792" stroke-width="1.4000000000000001" /><path d="M 505.75 335.04 L 500.45 335.04 L 502.24 331.08 Z" stroke="#ad2792" stroke-width="0" fill="#ad2792" /><line x1="490.03000000000003" y1="288.65000000000003" x2="501.35" y2="290.35" stroke="#99159f" stroke-width="1.4000000000000001" /><path d="M 505.75 291.01 L 501.05 292.33 L 501.64 288.37 Z" stroke="#99159f" stroke-width="0" fill="#99159f" /><line x1="490.03000000000003" y1="249.35" x2="501.35" y2="247.65" stroke="#99159f" stroke-width="1.4000000000000001" /><path d="M 505.75 246.99 L 501.64 249.63 L 501.05 245.67 Z" stroke="#99159f" stroke-width="0" fill="#99159f" /><line x1="490.03000000000003" y1="210.04" x2="501.35" y2="204.94" stroke="#ad2792" stroke-width="1.4000000000000001" /><path d="M 505.75 202.96 L 502.24 206.92 L 500.45 202.96 Z" stroke="#ad2792" stroke-width="0" fill="#ad2792" /><line x1="490.03000000000003" y1="170.73" x2="501.35" y2="162.24" stroke="#cb4678" stroke-width="1.4000000000000001" /><path d="M 505.75 158.94 L 502.83 164.22 L 499.86 160.26 Z" stroke="#cb4678" stroke-width="0" fill="#cb4678" /><line x1="490.03000000000003" y1="131.42000000000002" x2="501.35" y2="119.54" stroke="#e76f59" stroke-width="1.4000000000000001" /><path d="M 505.75 114.92 L 503.42 121.52 L 499.27 117.56 Z" stroke="#e76f59" stroke-width="0" fill="#e76f59" /><line x1="490.03000000000003" y1="92.11" x2="501.35" y2="76.83" stroke="#fba138" stroke-width="1.4000000000000001" /><path d="M 505.75 70.89 L 504.02 78.81 L 498.67 74.85 Z" stroke="#fba138" stroke-width="0" fill="#fba138" /><line x1="542.45" y1="445.89" x2="558.28" y2="461.17" stroke="#fdc626" stroke-width="1.4000000000000001" /><path d="M 564.44 467.11 L 555.61 463.94 L 560.96 458.40 Z" stroke="#fdc626" stroke-width="0" fill="#fdc626" /><line x1="542.45" y1="406.58" x2="558.28" y2="418.46000000000004" stroke="#f79440" stroke-width="1.4000000000000001" /><path d="M 564.44 423.08 L 556.21 421.24 L 560.36 415.69 Z" stroke="#f79440" stroke-width="0" fill="#f79440" /><line x1="542.45" y1="367.27" x2="558.28" y2="375.76" stroke="#e76f59" stroke-width="1.4000000000000001" /><path d="M 564.44 379.06 L 556.80 378.53 L 559.77 372.99 Z" stroke="#e76f59" stroke-width="0" fill="#e76f59" /><line x1="542.45" y1="327.96" x2="558.28" y2="333.06" stroke="#d5546d" stroke-width="1.4000000000000001" /><path d="M 564.44 335.04 L 557.39 335.83 L 559.18 330.28 Z" stroke="#d5546d" stroke-width="0" fill="#d5546d" /><line x1="542.45" y1="288.65000000000003" x2="558.28" y2="290.35" stroke="#cb4678" stroke-width="1.4000000000000001" /><path d="M 564.44 291.01 L 557.99 293.12 L 558.58 287.58 Z" stroke="#cb4678" stroke-width="0" fill="#cb4678" /><line x1="542.45" y1="249.35" x2="558.28" y2="247.65" stroke="#cb4678" stroke-width="1.4000000000000001" /><path d="M 564.44 246.99 L 558.58 250.42 L 557.99 244.88 Z" stroke="#cb4678" stroke-width="0" fill="#cb4678" /><line x1="542.45" y1="210.04" x2="558.28" y2="204.94" stroke="#d5546d" stroke-width="1.4000000000000001" /><path d="M 564.44 202.96 L 559.18 207.72 L 557.39 202.17 Z" stroke="#d5546d" stroke-width="0" fill="#d5546d" /><line x1="542.45" y1="170.73" x2="558.28" y2="162.24" stroke="#e76f59" stroke-width="1.4000000000000001" /><path d="M 564.44 158.94 L 559.77 165.01 L 556.80 159.47 Z" stroke="#e76f59" stroke-width="0" fill="#e76f59" /><line x1="542.45" y1="131.42000000000002" x2="558.28" y2="119.54" stroke="#f79440" stroke-width="1.4000000000000001" /><path d="M 564.44 114.92 L 560.36 122.31 L 556.21 116.76 Z" stroke="#f79440" stroke-width="0" fill="#f79440" /><line x1="542.45" y1="92.11" x2="558.28" y2="76.83" stroke="#fdc626" stroke-width="1.4000000000000001" /><path d="M 564.44 70.89 L 560.96 79.60 L 555.61 74.06 Z" stroke="#fdc626" stroke-width="0" fill="#fdc626" /><line x1="594.86" y1="445.89" x2="615.22" y2="461.17" stroke="#f0f921" stroke-width="1.4000000000000001" /><path d="M 623.14 467.11 L 612.55 464.73 L 617.90 457.60 Z" stroke="#f0f921" stroke-width="0" fill="#f0f921" /><line x1="594.86" y1="406.58" x2="615.22" y2="418.46000000000004" stroke="#fdc626" stroke-width="1.4000000000000001" /><path d="M 623.14 423.08 L 613.14 422.03 L 617.30 414.90 Z" stroke="#fdc626" stroke-width="0" fill="#fdc626" /><line x1="594.86" y1="367.27" x2="615.22" y2="375.76" stroke="#fba138" stroke-width="1.4000000000000001" /><path d="M 623.14 379.06 L 613.74 379.32 L 616.71 372.20 Z" stroke="#fba138" stroke-width="0" fill="#fba138" /><line x1="594.86" y1="327.96" x2="615.22" y2="333.06" stroke="#f38749" stroke-width="1.4000000000000001" /><path d="M 623.14 335.04 L 614.33 336.62 L 616.11 329.49 Z" stroke="#f38749" stroke-width="0" fill="#f38749" /><line x1="594.86" y1="288.65000000000003" x2="615.22" y2="290.35" stroke="#ee7b51" stroke-width="1.4000000000000001" /><path d="M 623.14 291.01 L 614.93 293.92 L 615.52 286.79 Z" stroke="#ee7b51" stroke-width="0" fill="#ee7b51" /><line x1="594.86" y1="249.35" x2="615.22" y2="247.65" stroke="#ee7b51" stroke-width="1.4000000000000001" /><path d="M 623.14 246.99 L 615.52 251.21 L 614.93 244.08 Z" stroke="#ee7b51" stroke-width="0" fill="#ee7b51" /><line x1="594.86" y1="210.04" x2="615.22" y2="204.94" stroke="#f38749" stroke-width="1.4000000000000001" /><path d="M 623.14 202.96 L 616.11 208.51 L 614.33 201.38 Z" stroke="#f38749" stroke-width="0" fill="#f38749" /><line x1="594.86" y1="170.73" x2="615.22" y2="162.24" stroke="#fba138" stroke-width="1.4000000000000001" /><path d="M 623.14 158.94 L 616.71 165.80 L 613.74 158.68 Z" stroke="#fba138" stroke-width="0" fill="#fba138" /><line x1="594.86" y1="131.42000000000002" x2="615.22" y2="119.54" stroke="#fdc626" stroke-width="1.4000000000000001" /><path d="M 623.14 114.92 L 617.30 123.10 L 613.14 115.97 Z" stroke="#fdc626" stroke-width="0" fill="#fdc626" /><line x1="594.86" y1="92.11" x2="615.22" y2="76.83" stroke="#f0f921" stroke-width="1.4000000000000001" /><path d="M 623.14 70.89 L 617.90 80.40 L 612.55 73.27 Z" stroke="#f0f921" stroke-width="0" fill="#f0f921" /></g><rect x="702" y="89" width="20" height="7.7" fill="#f0f921" /><rect x="702" y="96.2" width="20" height="7.7" fill="#f2ef26" /><rect x="702" y="103.4" width="20" height="7.7" fill="#f5e725" /><rect x="702" y="110.60000000000001" width="20" height="7.7" fill="#f8dd24" /><rect x="702" y="117.8" width="20" height="7.7" fill="#fad524" /><rect x="702" y="125" width="20" height="7.7" fill="#fccc25" /><rect x="702" y="132.2" width="20" height="7.7" fill="#fdc427" /><rect x="702" y="139.4" width="20" height="7.7" fill="#fdbc2a" /><rect x="702" y="146.6" width="20" height="7.7" fill="#fdb42e" /><rect x="702" y="153.8" width="20" height="7.7" fill="#fdac32" /><rect x="702" y="161" width="20" height="7.7" fill="#fba437" /><rect x="702" y="168.20000000000002" width="20" height="7.7" fill="#fa9d3b" /><rect x="702" y="175.4" width="20" height="7.7" fill="#f8963f" /><rect x="702" y="182.6" width="20" height="7.7" fill="#f68f44" /><rect x="702" y="189.8" width="20" height="7.7" fill="#f38848" /><rect x="702" y="197" width="20" height="7.7" fill="#f0814d" /><rect x="702" y="204.20000000000002" width="20" height="7.7" fill="#ed7a51" /><rect x="702" y="211.4" width="20" height="7.7" fill="#ea7456" /><rect x="702" y="218.6" width="20" height="7.7" fill="#e66e5a" /><rect x="702" y="225.8" width="20" height="7.7" fill="#e3685e" /><rect x="702" y="233" width="20" height="7.7" fill="#de6163" /><rect x="702" y="240.20000000000002" width="20" height="7.7" fill="#da5b68" /><rect x="702" y="247.4" width="20" height="7.7" fill="#d6556c" /><rect x="702" y="254.6" width="20" height="7.7" fill="#d24f71" /><rect x="702" y="261.8" width="20" height="7.7" fill="#cd4a75" /><rect x="702" y="269" width="20" height="7.7" fill="#c8437a" /><rect x="702" y="276.2" width="20" height="7.7" fill="#c33d7f" /><rect x="702" y="283.40000000000003" width="20" height="7.7" fill="#be3884" /><rect x="702" y="290.6" width="20" height="7.7" fill="#b83288" /><rect x="702" y="297.8" width="20" height="7.7" fill="#b32c8d" /><rect x="702" y="305" width="20" height="7.7" fill="#ac2693" /><rect x="702" y="312.2" width="20" height="7.7" fill="#a62097" /><rect x="702" y="319.40000000000003" width="20" height="7.7" fill="#a01a9b" /><rect x="702" y="326.6" width="20" height="7.7" fill="#99159f" /><rect x="702" y="333.8" width="20" height="7.7" fill="#920fa2" /><rect x="702" y="341" width="20" height="7.7" fill="#8a09a5" /><rect x="702" y="348.2" width="20" height="7.7" fill="#8305a6" /><rect x="702" y="355.40000000000003" width="20" height="7.7" fill="#7b02a8" /><rect x="702" y="362.6" width="20" height="7.7" fill="#7400a8" /><rect x="702" y="369.8" width="20" height="7.7" fill="#6c00a7" /><rect x="702" y="377" width="20" height="7.7" fill="#6300a7" /><rect x="702" y="384.2" width="20" height="7.7" fill="#5b01a5" /><rect x="702" y="391.40000000000003" width="20" height="7.7" fill="#5301a3" /><rect x="702" y="398.6" width="20" height="7.7" fill="#4b02a0" /><rect x="702" y="405.8" width="20" height="7.7" fill="#42039d" /><rect x="702" y="413" width="20" height="7.7" fill="#39039a" /><rect x="702" y="420.2" width="20" height="7.7" fill="#300596" /><rect x="702" y="427.40000000000003" width="20" height="7.7" fill="#260591" /><rect x="702" y="434.6" width="20" height="7.7" fill="#1b068d" /><rect x="702" y="441.8" width="20" height="7.7" fill="#0d0887" /><rect x="702" y="89" width="20" height="360" fill="none" stroke="#000000" stroke-width="1" /><line x1="722" y1="436.72" x2="726" y2="436.72" stroke="#000000" stroke-width="1" /><text x="727" y="440.72" font-size="12" text-anchor="start">0.25</text><line x1="722" y1="379.45" x2="726" y2="379.45" stroke="#000000" stroke-width="1" /><text x="727" y="383.45" font-size="12" text-anchor="start">0.5</text><line x1="722" y1="322.17" x2="726" y2="322.17" stroke="#000000" stroke-width="1" /><text x="727" y="326.17" font-size="12" text-anchor="start">0.75</text><line x1="722" y1="264.9" x2="726" y2="264.9" stroke="#000000" stroke-width="1" /><text x="727" y="268.9" font-size="12" text-anchor="start">1</text><line x1="722" y1="207.62" x2="726" y2="207.62" stroke="#000000" stroke-width="1" /><text x="727" y="211.62" font-size="12" text-anchor="start">1.25</text><line x1="722" y1="150.35" x2="726" y2="150.35" stroke="#000000" stroke-width="1" /><text x="727" y="154.35" font-size="12" text-anchor="start">1.5</text><line x1="722" y1="93.07000000000001" x2="726" y2="93.07000000000001" stroke="#000000" stroke-width="1" /><text x="727" y="97.07000000000001" font-size="12" text-anchor="start">1.75</text><text x="692" y="269" font-size="12" text-anchor="middle" transform="rotate(-90,692,269)">|v|</text></svg>