<svg xmlns="http://www.w3.org/2000/svg" width="737" height="545" font-family="DejaVu Sans, Liberation Sans, Arial, sans-serif" fill="black"><rect width="100%" height="100%" fill="white" /><text x="368.5" y="22" font-size="18" text-anchor="middle">Outside Labels</text><path d="M397.59999999999997,269 L617.5999999999999,269 A220,220 0 0,1 329.61626123751154,478.2324335849338 Z" stroke="seagreen" stroke-width="1" fill="seagreen" /><path d="M397.59999999999997,269 L329.61626123751154,478.2324335849338 A220,220 0 0,1 188.36756641506616,201.0162612375116 Z" stroke="darkorange" stroke-width="1" fill="darkorange" /><path d="M397.59999999999997,269 L188.36756641506616,201.0162612375116 A220,220 0 0,1 397.5999999999999,49 Z" stroke="gold" stroke-width="1" fill="gold" /><path d="M397.59999999999997,269 L397.5999999999999,49 A220,220 0 0,1 548.2003633043114,108.62690196728946 Z" stroke="mediumpurple" stroke-width="1" fill="mediumpurple" /><path d="M397.59999999999997,269 L548.2003633043114,108.62690196728946 A220,220 0 0,1 606.8324335849337,201.01626123751151 Z" stroke="coral" stroke-width="1" fill="coral" /><path d="M397.59999999999997,269 L606.8324335849337,201.01626123751151 A220,220 0 0,1 617.5999999999999,268.99999999999994 Z" stroke="olivedrab" stroke-width="1" fill="olivedrab" /><line x1="529.8516817658065" y1="451.0288237343632" x2="538.6684605501935" y2="463.1640786499874" stroke="#666" stroke-width="1" /><line x1="538.6684605501935" y1="463.1640786499874" x2="647.5999999999999" y2="463.1640786499874" stroke="#666" stroke-width="1" /><text x="647.5999999999999" y="463.1640786499874" font-size="12" text-anchor="start">Apples</text><line x1="197.1235320576172" y1="371.14786244139805" x2="183.7584341947917" y2="377.9577199374912" stroke="#666" stroke-width="1" /><line x1="183.7584341947917" y1="377.9577199374912" x2="147.59999999999997" y2="377.9577199374912" stroke="#666" stroke-width="1" /><text x="147.59999999999997" y="377.9577199374912" font-size="12" text-anchor="end">Oranges</text><line x1="265.34831823419347" y1="86.97117626563684" x2="256.53153944980636" y2="74.83592135001263" stroke="#666" stroke-width="1" /><line x1="256.53153944980636" y1="74.83592135001263" x2="147.59999999999997" y2="74.83592135001263" stroke="#666" stroke-width="1" /><text x="147.59999999999997" y="74.83592135001263" font-size="12" text-anchor="end">Bananas</text><line x1="480.42802435405235" y1="59.8002906751434" x2="485.9498926443225" y2="45.85364338681961" stroke="#666" stroke-width="1" /><line x1="485.9498926443225" y1="45.85364338681961" x2="647.5999999999999" y2="45.85364338681961" stroke="#666" stroke-width="1" /><text x="647.5999999999999" y="45.85364338681961" font-size="12" text-anchor="start">Grapes</text><line x1="587.5737832379534" y1="148.43897112972581" x2="600.2387021204836" y2="140.4015692050409" stroke="#666" stroke-width="1" /><line x1="600.2387021204836" y1="140.4015692050409" x2="647.5999999999999" y2="140.4015692050409" stroke="#666" stroke-width="1" /><text x="647.5999999999999" y="140.4015692050409" font-size="12" text-anchor="start">Mango</text><line x1="619.829876633906" y1="233.802245365948" x2="634.645201742833" y2="231.45572839034452" stroke="#666" stroke-width="1" /><line x1="634.645201742833" y1="231.45572839034452" x2="647.5999999999999" y2="231.45572839034452" stroke="#666" stroke-width="1" /><text x="647.5999999999999" y="231.45572839034452" font-size="12" text-anchor="start">Kiwi</text></svg>