<svg xmlns="http://www.w3.org/2000/svg" width="778" height="545" font-family="DejaVu Sans, Liberation Sans, Arial, sans-serif" fill="black"><rect width="100%" height="100%" fill="white" /><text x="363.8" y="22" font-size="18" text-anchor="middle">Gene Expression Profiles</text><line x1="93.8" y1="44" x2="93.8" y2="494" stroke="#555555" stroke-width="1.5" /><line x1="273.8" y1="44" x2="273.8" y2="494" stroke="#555555" stroke-width="1.5" /><line x1="453.8" y1="44" x2="453.8" y2="494" stroke="#555555" stroke-width="1.5" /><line x1="633.8000000000001" y1="44" x2="633.8000000000001" y2="494" stroke="#555555" stroke-width="1.5" /><text x="93.8" y="36" font-size="12" text-anchor="start" font-weight="bold">Control</text><text x="273.8" y="36" font-size="12" text-anchor="middle" font-weight="bold">Treated</text><text x="453.8" y="36" font-size="12" text-anchor="middle" font-weight="bold">Recovery</text><text x="633.8000000000001" y="36" font-size="12" text-anchor="end" font-weight="bold">Washout</text><line x1="93.8" y1="494" x2="97.8" y2="494" stroke="#555555" stroke-width="1" /><text x="99.8" y="497.5" font-size="10" text-anchor="start">1.5</text><line x1="93.8" y1="404" x2="97.8" y2="404" stroke="#555555" stroke-width="1" /><text x="99.8" y="407.5" font-size="10" text-anchor="start">2.2</text><line x1="93.8" y1="314" x2="97.8" y2="314" stroke="#555555" stroke-width="1" /><text x="99.8" y="317.5" font-size="10" text-anchor="start">2.9</text><line x1="93.8" y1="224" x2="97.8" y2="224" stroke="#555555" stroke-width="1" /><text x="99.8" y="227.5" font-size="10" text-anchor="start">3.6</text><line x1="93.8" y1="134" x2="97.8" y2="134" stroke="#555555" stroke-width="1" /><text x="99.8" y="137.5" font-size="10" text-anchor="start">4.3</text><line x1="93.8" y1="44" x2="97.8" y2="44" stroke="#555555" stroke-width="1" /><text x="99.8" y="47.5" font-size="10" text-anchor="start">5</text><line x1="273.8" y1="494" x2="277.8" y2="494" stroke="#555555" stroke-width="1" /><text x="279.8" y="497.5" font-size="10" text-anchor="start">1.2</text><line x1="273.8" y1="404" x2="277.8" y2="404" stroke="#555555" stroke-width="1" /><text x="279.8" y="407.5" font-size="10" text-anchor="start">2.18</text><line x1="273.8" y1="314" x2="277.8" y2="314" stroke="#555555" stroke-width="1" /><text x="279.8" y="317.5" font-size="10" text-anchor="start">3.16</text><line x1="273.8" y1="224" x2="277.8" y2="224" stroke="#555555" stroke-width="1" /><text x="279.8" y="227.5" font-size="10" text-anchor="start">4.14</text><line x1="273.8" y1="134" x2="277.8" y2="134" stroke="#555555" stroke-width="1" /><text x="279.8" y="137.5" font-size="10" text-anchor="start">5.12</text><line x1="273.8" y1="44" x2="277.8" y2="44" stroke="#555555" stroke-width="1" /><text x="279.8" y="47.5" font-size="10" text-anchor="start">6.1</text><line x1="453.8" y1="494" x2="457.8" y2="494" stroke="#555555" stroke-width="1" /><text x="459.8" y="497.5" font-size="10" text-anchor="start">0.7</text><line x1="453.8" y1="404" x2="457.8" y2="404" stroke="#555555" stroke-width="1" /><text x="459.8" y="407.5" font-size="10" text-anchor="start">1.31</text><line x1="453.8" y1="314" x2="457.8" y2="314" stroke="#555555" stroke-width="1" /><text x="459.8" y="317.5" font-size="10" text-anchor="start">1.92</text><line x1="453.8" y1="224" x2="457.8" y2="224" stroke="#555555" stroke-width="1" /><text x="459.8" y="227.5" font-size="10" text-anchor="start">2.53</text><line x1="453.8" y1="134" x2="457.8" y2="134" stroke="#555555" stroke-width="1" /><text x="459.8" y="137.5" font-size="10" text-anchor="start">3.14</text><line x1="453.8" y1="44" x2="457.8" y2="44" stroke="#555555" stroke-width="1" /><text x="459.8" y="47.5" font-size="10" text-anchor="start">3.75</text><line x1="633.8000000000001" y1="494" x2="629.8000000000001" y2="494" stroke="#555555" stroke-width="1" /><text x="627.8000000000001" y="497.5" font-size="10" text-anchor="end">1.2</text><line x1="633.8000000000001" y1="404" x2="629.8000000000001" y2="404" stroke="#555555" stroke-width="1" /><text x="627.8000000000001" y="407.5" font-size="10" text-anchor="end">1.74</text><line x1="633.8000000000001" y1="314" x2="629.8000000000001" y2="314" stroke="#555555" stroke-width="1" /><text x="627.8000000000001" y="317.5" font-size="10" text-anchor="end">2.28</text><line x1="633.8000000000001" y1="224" x2="629.8000000000001" y2="224" stroke="#555555" stroke-width="1" /><text x="627.8000000000001" y="227.5" font-size="10" text-anchor="end">2.82</text><line x1="633.8000000000001" y1="134" x2="629.8000000000001" y2="134" stroke="#555555" stroke-width="1" /><text x="627.8000000000001" y="137.5" font-size="10" text-anchor="end">3.36</text><line x1="633.8000000000001" y1="44" x2="629.8000000000001" y2="44" stroke="#555555" stroke-width="1" /><text x="627.8000000000001" y="47.5" font-size="10" text-anchor="end">3.9</text><path d="M 93.80,494.00 L 273.80,145.02 L 453.80,228.43 L 633.80,410.67" stroke="#1f77b4" stroke-width="1.5" fill="none" fill-opacity="0.5" /><path d="M 93.80,481.14 L 273.80,135.84 L 453.80,213.67 L 633.80,394.00" stroke="#1f77b4" stroke-width="1.5" fill="none" fill-opacity="0.5" /><path d="M 93.80,468.29 L 273.80,126.65 L 453.80,198.92 L 633.80,377.33" stroke="#1f77b4" stroke-width="1.5" fill="none" fill-opacity="0.5" /><path d="M 93.80,455.43 L 273.80,117.47 L 453.80,184.16 L 633.80,360.67" stroke="#1f77b4" stroke-width="1.5" fill="none" fill-opacity="0.5" /><path d="M 93.80,442.57 L 273.80,108.29 L 453.80,169.41 L 633.80,344.00" stroke="#1f77b4" stroke-width="1.5" fill="none" fill-opacity="0.5" /><path d="M 93.80,429.71 L 273.80,99.10 L 453.80,154.66 L 633.80,327.33" stroke="#1f77b4" stroke-width="1.5" fill="none" fill-opacity="0.5" /><path d="M 93.80,416.86 L 273.80,89.92 L 453.80,139.90 L 633.80,310.67" stroke="#1f77b4" stroke-width="1.5" fill="none" fill-opacity="0.5" /><path d="M 93.80,404.00 L 273.80,80.73 L 453.80,125.15 L 633.80,294.00" stroke="#1f77b4" stroke-width="1.5" fill="none" fill-opacity="0.5" /><path d="M 93.80,391.14 L 273.80,71.55 L 453.80,110.39 L 633.80,277.33" stroke="#1f77b4" stroke-width="1.5" fill="none" fill-opacity="0.5" /><path d="M 93.80,378.29 L 273.80,62.37 L 453.80,95.64 L 633.80,260.67" stroke="#1f77b4" stroke-width="1.5" fill="none" fill-opacity="0.5" /><path d="M 93.80,365.43 L 273.80,53.18 L 453.80,80.89 L 633.80,244.00" stroke="#1f77b4" stroke-width="1.5" fill="none" fill-opacity="0.5" /><path d="M 93.80,352.57 L 273.80,44.00 L 453.80,66.13 L 633.80,227.33" stroke="#1f77b4" stroke-width="1.5" fill="none" fill-opacity="0.5" /><path d="M 93.80,44.00 L 273.80,328.69 L 453.80,228.43 L 633.80,194.00" stroke="#ff7f0e" stroke-width="1.5" fill="none" fill-opacity="0.5" /><path d="M 93.80,69.71 L 273.80,347.06 L 453.80,257.93 L 633.80,227.33" stroke="#ff7f0e" stroke-width="1.5" fill="none" fill-opacity="0.5" /><path d="M 93.80,95.43 L 273.80,365.43 L 453.80,287.44 L 633.80,260.67" stroke="#ff7f0e" stroke-width="1.5" fill="none" fill-opacity="0.5" /><path d="M 93.80,121.14 L 273.80,383.80 L 453.80,316.95 L 633.80,294.00" stroke="#ff7f0e" stroke-width="1.5" fill="none" fill-opacity="0.5" /><path d="M 93.80,146.86 L 273.80,402.16 L 453.80,346.46 L 633.80,327.33" stroke="#ff7f0e" stroke-width="1.5" fill="none" fill-opacity="0.5" /><path d="M 93.80,172.57 L 273.80,420.53 L 453.80,375.97 L 633.80,360.67" stroke="#ff7f0e" stroke-width="1.5" fill="none" fill-opacity="0.5" /><path d="M 93.80,198.29 L 273.80,438.90 L 453.80,405.48 L 633.80,394.00" stroke="#ff7f0e" stroke-width="1.5" fill="none" fill-opacity="0.5" /><path d="M 93.80,224.00 L 273.80,457.27 L 453.80,434.98 L 633.80,427.33" stroke="#ff7f0e" stroke-width="1.5" fill="none" fill-opacity="0.5" /><path d="M 93.80,249.71 L 273.80,475.63 L 453.80,464.49 L 633.80,460.67" stroke="#ff7f0e" stroke-width="1.5" fill="none" fill-opacity="0.5" /><path d="M 93.80,275.43 L 273.80,494.00 L 453.80,494.00 L 633.80,494.00" stroke="#ff7f0e" stroke-width="1.5" fill="none" fill-opacity="0.5" /><path d="M 93.80,236.86 L 273.80,273.59 L 453.80,95.64 L 633.80,102.33" stroke="#2ca02c" stroke-width="1.5" fill="none" fill-opacity="0.5" /><path d="M 93.80,230.43 L 273.80,269.00 L 453.80,88.26 L 633.80,94.00" stroke="#2ca02c" stroke-width="1.5" fill="none" fill-opacity="0.5" /><path d="M 93.80,224.00 L 273.80,264.41 L 453.80,80.89 L 633.80,85.67" stroke="#2ca02c" stroke-width="1.5" fill="none" fill-opacity="0.5" /><path d="M 93.80,217.57 L 273.80,259.82 L 453.80,73.51 L 633.80,77.33" stroke="#2ca02c" stroke-width="1.5" fill="none" fill-opacity="0.5" /><path d="M 93.80,211.14 L 273.80,255.22 L 453.80,66.13 L 633.80,69.00" stroke="#2ca02c" stroke-width="1.5" fill="none" fill-opacity="0.5" /><path d="M 93.80,204.71 L 273.80,250.63 L 453.80,58.75 L 633.80,60.67" stroke="#2ca02c" stroke-width="1.5" fill="none" fill-opacity="0.5" /><path d="M 93.80,198.29 L 273.80,246.04 L 453.80,51.38 L 633.80,52.33" stroke="#2ca02c" stroke-width="1.5" fill="none" fill-opacity="0.5" /><path d="M 93.80,191.86 L 273.80,241.45 L 453.80,44.00 L 633.80,44.00" stroke="#2ca02c" stroke-width="1.5" fill="none" fill-opacity="0.5" /><rect x="668.8000000000001" y="34" width="99.8" height="74" fill="#ffffff" /><rect x="668.8000000000001" y="34" width="99.8" height="74" fill="none" stroke="#000000" stroke-width="1" /><text x="698.8000000000001" y="53.2" font-size="12" text-anchor="start">Induced</text><line x1="678.8000000000001" y1="49" x2="690.8000000000001" y2="49" stroke="#1f77b4" stroke-width="2" /><text x="698.8000000000001" y="71.2" font-size="12" text-anchor="start">Repressed</text><line x1="678.8000000000001" y1="67" x2="690.8000000000001" y2="67" stroke="#ff7f0e" stroke-width="2" /><text x="698.8000000000001" y="89.2" font-size="12" text-anchor="start">Stable</text><line x1="678.8000000000001" y1="85" x2="690.8000000000001" y2="85" stroke="#2ca02c" stroke-width="2" /></svg>