<svg xmlns="http://www.w3.org/2000/svg" width="785.2" height="545" font-family="DejaVu Sans, Liberation Sans, Arial, sans-serif" fill="black"><rect width="100%" height="100%" fill="white" /><text x="363.8" y="22" font-size="18" text-anchor="middle">Iris — Curved Lines + Group Means</text><line x1="93.8" y1="44" x2="93.8" y2="494" stroke="#555555" stroke-width="1.5" /><line x1="273.8" y1="44" x2="273.8" y2="494" stroke="#555555" stroke-width="1.5" /><line x1="453.8" y1="44" x2="453.8" y2="494" stroke="#555555" stroke-width="1.5" /><line x1="633.8000000000001" y1="44" x2="633.8000000000001" y2="494" stroke="#555555" stroke-width="1.5" /><text x="93.8" y="36" font-size="12" text-anchor="start" font-weight="bold">Sepal Length</text><text x="273.8" y="36" font-size="12" text-anchor="middle" font-weight="bold">Sepal Width</text><text x="453.8" y="36" font-size="12" text-anchor="middle" font-weight="bold">Petal Length</text><text x="633.8000000000001" y="36" font-size="12" text-anchor="end" font-weight="bold">Petal Width</text><line x1="93.8" y1="494" x2="97.8" y2="494" stroke="#555555" stroke-width="1" /><text x="99.8" y="497.5" font-size="10" text-anchor="start">4.4</text><line x1="93.8" y1="404" x2="97.8" y2="404" stroke="#555555" stroke-width="1" /><text x="99.8" y="407.5" font-size="10" text-anchor="start">5.04</text><line x1="93.8" y1="314" x2="97.8" y2="314" stroke="#555555" stroke-width="1" /><text x="99.8" y="317.5" font-size="10" text-anchor="start">5.68</text><line x1="93.8" y1="224" x2="97.8" y2="224" stroke="#555555" stroke-width="1" /><text x="99.8" y="227.5" font-size="10" text-anchor="start">6.32</text><line x1="93.8" y1="134" x2="97.8" y2="134" stroke="#555555" stroke-width="1" /><text x="99.8" y="137.5" font-size="10" text-anchor="start">6.96</text><line x1="93.8" y1="44" x2="97.8" y2="44" stroke="#555555" stroke-width="1" /><text x="99.8" y="47.5" font-size="10" text-anchor="start">7.6</text><line x1="273.8" y1="494" x2="277.8" y2="494" stroke="#555555" stroke-width="1" /><text x="279.8" y="497.5" font-size="10" text-anchor="start">2.3</text><line x1="273.8" y1="404" x2="277.8" y2="404" stroke="#555555" stroke-width="1" /><text x="279.8" y="407.5" font-size="10" text-anchor="start">2.62</text><line x1="273.8" y1="314" x2="277.8" y2="314" stroke="#555555" stroke-width="1" /><text x="279.8" y="317.5" font-size="10" text-anchor="start">2.94</text><line x1="273.8" y1="224" x2="277.8" y2="224" stroke="#555555" stroke-width="1" /><text x="279.8" y="227.5" font-size="10" text-anchor="start">3.26</text><line x1="273.8" y1="134" x2="277.8" y2="134" stroke="#555555" stroke-width="1" /><text x="279.8" y="137.5" font-size="10" text-anchor="start">3.58</text><line x1="273.8" y1="44" x2="277.8" y2="44" stroke="#555555" stroke-width="1" /><text x="279.8" y="47.5" font-size="10" text-anchor="start">3.9</text><line x1="453.8" y1="494" x2="457.8" y2="494" stroke="#555555" stroke-width="1" /><text x="459.8" y="497.5" font-size="10" text-anchor="start">1.3</text><line x1="453.8" y1="404" x2="457.8" y2="404" stroke="#555555" stroke-width="1" /><text x="459.8" y="407.5" font-size="10" text-anchor="start">2.36</text><line x1="453.8" y1="314" x2="457.8" y2="314" stroke="#555555" stroke-width="1" /><text x="459.8" y="317.5" font-size="10" text-anchor="start">3.42</text><line x1="453.8" y1="224" x2="457.8" y2="224" stroke="#555555" stroke-width="1" /><text x="459.8" y="227.5" font-size="10" text-anchor="start">4.48</text><line x1="453.8" y1="134" x2="457.8" y2="134" stroke="#555555" stroke-width="1" /><text x="459.8" y="137.5" font-size="10" text-anchor="start">5.54</text><line x1="453.8" y1="44" x2="457.8" y2="44" stroke="#555555" stroke-width="1" /><text x="459.8" y="47.5" font-size="10" text-anchor="start">6.6</text><line x1="633.8000000000001" y1="494" x2="629.8000000000001" y2="494" stroke="#555555" stroke-width="1" /><text x="627.8000000000001" y="497.5" font-size="10" text-anchor="end">0.1</text><line x1="633.8000000000001" y1="404" x2="629.8000000000001" y2="404" stroke="#555555" stroke-width="1" /><text x="627.8000000000001" y="407.5" font-size="10" text-anchor="end">0.58</text><line x1="633.8000000000001" y1="314" x2="629.8000000000001" y2="314" stroke="#555555" stroke-width="1" /><text x="627.8000000000001" y="317.5" font-size="10" text-anchor="end">1.06</text><line x1="633.8000000000001" y1="224" x2="629.8000000000001" y2="224" stroke="#555555" stroke-width="1" /><text x="627.8000000000001" y="227.5" font-size="10" text-anchor="end">1.54</text><line x1="633.8000000000001" y1="134" x2="629.8000000000001" y2="134" stroke="#555555" stroke-width="1" /><text x="627.8000000000001" y="137.5" font-size="10" text-anchor="end">2.02</text><line x1="633.8000000000001" y1="44" x2="629.8000000000001" y2="44" stroke="#555555" stroke-width="1" /><text x="627.8000000000001" y="47.5" font-size="10" text-anchor="end">2.5</text><path d="M 93.80,395.56 C 183.80,395.56 183.80,156.50 273.80,156.50 C 363.80,156.50 363.80,485.51 453.80,485.51 C 543.80,485.51 543.80,475.25 633.80,475.25" stroke="#1f77b4" stroke-width="1.2" fill="none" fill-opacity="0.35000000000000003" /><path d="M 93.80,423.69 C 183.80,423.69 183.80,297.12 273.80,297.12 C 363.80,297.12 363.80,485.51 453.80,485.51 C 543.80,485.51 543.80,475.25 633.80,475.25" stroke="#1f77b4" stroke-width="1.2" fill="none" fill-opacity="0.35000000000000003" /><path d="M 93.80,451.81 C 183.80,451.81 183.80,240.87 273.80,240.87 C 363.80,240.87 363.80,494.00 453.80,494.00 C 543.80,494.00 543.80,475.25 633.80,475.25" stroke="#1f77b4" stroke-width="1.2" fill="none" fill-opacity="0.35000000000000003" /><path d="M 93.80,465.88 C 183.80,465.88 183.80,269.00 273.80,269.00 C 363.80,269.00 363.80,477.02 453.80,477.02 C 543.80,477.02 543.80,475.25 633.80,475.25" stroke="#1f77b4" stroke-width="1.2" fill="none" fill-opacity="0.35000000000000003" /><path d="M 93.80,409.63 C 183.80,409.63 183.80,128.37 273.80,128.37 C 363.80,128.37 363.80,485.51 453.80,485.51 C 543.80,485.51 543.80,475.25 633.80,475.25" stroke="#1f77b4" stroke-width="1.2" fill="none" fill-opacity="0.35000000000000003" /><path d="M 93.80,353.38 C 183.80,353.38 183.80,44.00 273.80,44.00 C 363.80,44.00 363.80,460.04 453.80,460.04 C 543.80,460.04 543.80,437.75 633.80,437.75" stroke="#1f77b4" stroke-width="1.2" fill="none" fill-opacity="0.35000000000000003" /><path d="M 93.80,465.88 C 183.80,465.88 183.80,184.62 273.80,184.62 C 363.80,184.62 363.80,485.51 453.80,485.51 C 543.80,485.51 543.80,456.50 633.80,456.50" stroke="#1f77b4" stroke-width="1.2" fill="none" fill-opacity="0.35000000000000003" /><path d="M 93.80,409.63 C 183.80,409.63 183.80,184.62 273.80,184.62 C 363.80,184.62 363.80,477.02 453.80,477.02 C 543.80,477.02 543.80,475.25 633.80,475.25" stroke="#1f77b4" stroke-width="1.2" fill="none" fill-opacity="0.35000000000000003" /><path d="M 93.80,494.00 C 183.80,494.00 183.80,325.25 273.80,325.25 C 363.80,325.25 363.80,485.51 453.80,485.51 C 543.80,485.51 543.80,475.25 633.80,475.25" stroke="#1f77b4" stroke-width="1.2" fill="none" fill-opacity="0.35000000000000003" /><path d="M 93.80,423.69 C 183.80,423.69 183.80,269.00 273.80,269.00 C 363.80,269.00 363.80,477.02 453.80,477.02 C 543.80,477.02 543.80,494.00 633.80,494.00" stroke="#1f77b4" stroke-width="1.2" fill="none" fill-opacity="0.35000000000000003" /><path d="M 93.80,128.37 C 183.80,128.37 183.80,240.87 273.80,240.87 C 363.80,240.87 363.80,205.32 453.80,205.32 C 543.80,205.32 543.80,250.25 633.80,250.25" stroke="#ff7f0e" stroke-width="1.2" fill="none" fill-opacity="0.35000000000000003" /><path d="M 93.80,212.75 C 183.80,212.75 183.80,240.87 273.80,240.87 C 363.80,240.87 363.80,222.30 453.80,222.30 C 543.80,222.30 543.80,231.50 633.80,231.50" stroke="#ff7f0e" stroke-width="1.2" fill="none" fill-opacity="0.35000000000000003" /><path d="M 93.80,142.44 C 183.80,142.44 183.80,269.00 273.80,269.00 C 363.80,269.00 363.80,188.34 453.80,188.34 C 543.80,188.34 543.80,231.50 633.80,231.50" stroke="#ff7f0e" stroke-width="1.2" fill="none" fill-opacity="0.35000000000000003" /><path d="M 93.80,339.31 C 183.80,339.31 183.80,494.00 273.80,494.00 C 363.80,494.00 363.80,264.75 453.80,264.75 C 543.80,264.75 543.80,269.00 633.80,269.00" stroke="#ff7f0e" stroke-width="1.2" fill="none" fill-opacity="0.35000000000000003" /><path d="M 93.80,198.69 C 183.80,198.69 183.80,353.38 273.80,353.38 C 363.80,353.38 363.80,213.81 453.80,213.81 C 543.80,213.81 543.80,231.50 633.80,231.50" stroke="#ff7f0e" stroke-width="1.2" fill="none" fill-opacity="0.35000000000000003" /><path d="M 93.80,311.19 C 183.80,311.19 183.80,353.38 273.80,353.38 C 363.80,353.38 363.80,222.30 453.80,222.30 C 543.80,222.30 543.80,269.00 633.80,269.00" stroke="#ff7f0e" stroke-width="1.2" fill="none" fill-opacity="0.35000000000000003" /><path d="M 93.80,226.81 C 183.80,226.81 183.80,212.75 273.80,212.75 C 363.80,212.75 363.80,205.32 453.80,205.32 C 543.80,205.32 543.80,212.75 633.80,212.75" stroke="#ff7f0e" stroke-width="1.2" fill="none" fill-opacity="0.35000000000000003" /><path d="M 93.80,423.69 C 183.80,423.69 183.80,465.88 273.80,465.88 C 363.80,465.88 363.80,324.19 453.80,324.19 C 543.80,324.19 543.80,325.25 633.80,325.25" stroke="#ff7f0e" stroke-width="1.2" fill="none" fill-opacity="0.35000000000000003" /><path d="M 93.80,184.63 C 183.80,184.63 183.80,325.25 273.80,325.25 C 363.80,325.25 363.80,213.81 453.80,213.81 C 543.80,213.81 543.80,269.00 633.80,269.00" stroke="#ff7f0e" stroke-width="1.2" fill="none" fill-opacity="0.35000000000000003" /><path d="M 93.80,381.50 C 183.80,381.50 183.80,381.50 273.80,381.50 C 363.80,381.50 363.80,273.25 453.80,273.25 C 543.80,273.25 543.80,250.25 633.80,250.25" stroke="#ff7f0e" stroke-width="1.2" fill="none" fill-opacity="0.35000000000000003" /><path d="M 93.80,226.81 C 183.80,226.81 183.80,212.75 273.80,212.75 C 363.80,212.75 363.80,94.94 453.80,94.94 C 543.80,94.94 543.80,44.00 633.80,44.00" stroke="#2ca02c" stroke-width="1.2" fill="none" fill-opacity="0.35000000000000003" /><path d="M 93.80,297.12 C 183.80,297.12 183.80,381.50 273.80,381.50 C 363.80,381.50 363.80,171.36 453.80,171.36 C 543.80,171.36 543.80,156.50 633.80,156.50" stroke="#2ca02c" stroke-width="1.2" fill="none" fill-opacity="0.35000000000000003" /><path d="M 93.80,114.31 C 183.80,114.31 183.80,297.12 273.80,297.12 C 363.80,297.12 363.80,103.43 453.80,103.43 C 543.80,103.43 543.80,119.00 633.80,119.00" stroke="#2ca02c" stroke-width="1.2" fill="none" fill-opacity="0.35000000000000003" /><path d="M 93.80,226.81 C 183.80,226.81 183.80,325.25 273.80,325.25 C 363.80,325.25 363.80,128.91 453.80,128.91 C 543.80,128.91 543.80,175.25 633.80,175.25" stroke="#2ca02c" stroke-width="1.2" fill="none" fill-opacity="0.35000000000000003" /><path d="M 93.80,198.69 C 183.80,198.69 183.80,297.12 273.80,297.12 C 363.80,297.12 363.80,111.92 453.80,111.92 C 543.80,111.92 543.80,100.25 633.80,100.25" stroke="#2ca02c" stroke-width="1.2" fill="none" fill-opacity="0.35000000000000003" /><path d="M 93.80,44.00 C 183.80,44.00 183.80,297.12 273.80,297.12 C 363.80,297.12 363.80,44.00 453.80,44.00 C 543.80,44.00 543.80,119.00 633.80,119.00" stroke="#2ca02c" stroke-width="1.2" fill="none" fill-opacity="0.35000000000000003" /><path d="M 93.80,423.69 C 183.80,423.69 183.80,437.75 273.80,437.75 C 363.80,437.75 363.80,222.30 453.80,222.30 C 543.80,222.30 543.80,194.00 633.80,194.00" stroke="#2ca02c" stroke-width="1.2" fill="none" fill-opacity="0.35000000000000003" /><path d="M 93.80,86.19 C 183.80,86.19 183.80,325.25 273.80,325.25 C 363.80,325.25 363.80,69.47 453.80,69.47 C 543.80,69.47 543.80,175.25 633.80,175.25" stroke="#2ca02c" stroke-width="1.2" fill="none" fill-opacity="0.35000000000000003" /><path d="M 93.80,170.56 C 183.80,170.56 183.80,437.75 273.80,437.75 C 363.80,437.75 363.80,111.92 453.80,111.92 C 543.80,111.92 543.80,175.25 633.80,175.25" stroke="#2ca02c" stroke-width="1.2" fill="none" fill-opacity="0.35000000000000003" /><path d="M 93.80,100.25 C 183.80,100.25 183.80,128.37 273.80,128.37 C 363.80,128.37 363.80,86.45 453.80,86.45 C 543.80,86.45 543.80,44.00 633.80,44.00" stroke="#2ca02c" stroke-width="1.2" fill="none" fill-opacity="0.35000000000000003" /><path d="M 93.80,429.31 C 183.80,429.31 183.80,209.94 273.80,209.94 C 363.80,209.94 363.80,481.26 453.80,481.26 C 543.80,481.26 543.80,471.50 633.80,471.50" stroke="#1f77b4" stroke-width="3" fill="none" fill-opacity="1" /><path d="M 93.80,254.94 C 183.80,254.94 183.80,333.69 273.80,333.69 C 363.80,333.69 363.80,233.34 453.80,233.34 C 543.80,233.34 543.80,254.00 633.80,254.00" stroke="#ff7f0e" stroke-width="3" fill="none" fill-opacity="1" /><path d="M 93.80,188.84 C 183.80,188.84 183.80,314.00 273.80,314.00 C 363.80,314.00 363.80,114.47 453.80,114.47 C 543.80,114.47 543.80,130.25 633.80,130.25" stroke="#2ca02c" stroke-width="3" fill="none" fill-opacity="1" /><rect x="668.8000000000001" y="34" width="107" height="74" fill="#ffffff" /><rect x="668.8000000000001" y="34" width="107" height="74" fill="none" stroke="#000000" stroke-width="1" /><text x="698.8000000000001" y="53.2" font-size="12" text-anchor="start">setosa</text><line x1="678.8000000000001" y1="49" x2="690.8000000000001" y2="49" stroke="#1f77b4" stroke-width="2" /><text x="698.8000000000001" y="71.2" font-size="12" text-anchor="start">versicolor</text><line x1="678.8000000000001" y1="67" x2="690.8000000000001" y2="67" stroke="#ff7f0e" stroke-width="2" /><text x="698.8000000000001" y="89.2" font-size="12" text-anchor="start">virginica</text><line x1="678.8000000000001" y1="85" x2="690.8000000000001" y2="85" stroke="#2ca02c" stroke-width="2" /></svg>