<svg xmlns="http://www.w3.org/2000/svg" width="770.8000000000001" height="545" font-family="DejaVu Sans, Liberation Sans, Arial, sans-serif" fill="black"><rect width="100%" height="100%" fill="white" /><text x="363.8" y="22" font-size="18" text-anchor="middle">Shared Scale Parallel Plot</text><line x1="93.8" y1="44" x2="93.8" y2="494" stroke="#555555" stroke-width="1.5" /><line x1="273.8" y1="44" x2="273.8" y2="494" stroke="#555555" stroke-width="1.5" /><line x1="453.8" y1="44" x2="453.8" y2="494" stroke="#555555" stroke-width="1.5" /><line x1="633.8000000000001" y1="44" x2="633.8000000000001" y2="494" stroke="#555555" stroke-width="1.5" /><text x="93.8" y="36" font-size="12" text-anchor="start" font-weight="bold">Q1 Score</text><text x="273.8" y="36" font-size="12" text-anchor="middle" font-weight="bold">Q2 Score</text><text x="453.8" y="36" font-size="12" text-anchor="middle" font-weight="bold">Q3 Score</text><text x="633.8000000000001" y="36" font-size="12" text-anchor="end" font-weight="bold">Q4 Score</text><line x1="93.8" y1="494" x2="97.8" y2="494" stroke="#555555" stroke-width="1" /><text x="99.8" y="497.5" font-size="10" text-anchor="start">48</text><line x1="93.8" y1="404" x2="97.8" y2="404" stroke="#555555" stroke-width="1" /><text x="99.8" y="407.5" font-size="10" text-anchor="start">56.4</text><line x1="93.8" y1="314" x2="97.8" y2="314" stroke="#555555" stroke-width="1" /><text x="99.8" y="317.5" font-size="10" text-anchor="start">64.8</text><line x1="93.8" y1="224" x2="97.8" y2="224" stroke="#555555" stroke-width="1" /><text x="99.8" y="227.5" font-size="10" text-anchor="start">73.2</text><line x1="93.8" y1="134" x2="97.8" y2="134" stroke="#555555" stroke-width="1" /><text x="99.8" y="137.5" font-size="10" text-anchor="start">81.6</text><line x1="93.8" y1="44" x2="97.8" y2="44" stroke="#555555" stroke-width="1" /><text x="99.8" y="47.5" font-size="10" text-anchor="start">90</text><line x1="273.8" y1="494" x2="277.8" y2="494" stroke="#555555" stroke-width="1" /><text x="279.8" y="497.5" font-size="10" text-anchor="start">48</text><line x1="273.8" y1="404" x2="277.8" y2="404" stroke="#555555" stroke-width="1" /><text x="279.8" y="407.5" font-size="10" text-anchor="start">56.4</text><line x1="273.8" y1="314" x2="277.8" y2="314" stroke="#555555" stroke-width="1" /><text x="279.8" y="317.5" font-size="10" text-anchor="start">64.8</text><line x1="273.8" y1="224" x2="277.8" y2="224" stroke="#555555" stroke-width="1" /><text x="279.8" y="227.5" font-size="10" text-anchor="start">73.2</text><line x1="273.8" y1="134" x2="277.8" y2="134" stroke="#555555" stroke-width="1" /><text x="279.8" y="137.5" font-size="10" text-anchor="start">81.6</text><line x1="273.8" y1="44" x2="277.8" y2="44" stroke="#555555" stroke-width="1" /><text x="279.8" y="47.5" font-size="10" text-anchor="start">90</text><line x1="453.8" y1="494" x2="457.8" y2="494" stroke="#555555" stroke-width="1" /><text x="459.8" y="497.5" font-size="10" text-anchor="start">48</text><line x1="453.8" y1="404" x2="457.8" y2="404" stroke="#555555" stroke-width="1" /><text x="459.8" y="407.5" font-size="10" text-anchor="start">56.4</text><line x1="453.8" y1="314" x2="457.8" y2="314" stroke="#555555" stroke-width="1" /><text x="459.8" y="317.5" font-size="10" text-anchor="start">64.8</text><line x1="453.8" y1="224" x2="457.8" y2="224" stroke="#555555" stroke-width="1" /><text x="459.8" y="227.5" font-size="10" text-anchor="start">73.2</text><line x1="453.8" y1="134" x2="457.8" y2="134" stroke="#555555" stroke-width="1" /><text x="459.8" y="137.5" font-size="10" text-anchor="start">81.6</text><line x1="453.8" y1="44" x2="457.8" y2="44" stroke="#555555" stroke-width="1" /><text x="459.8" y="47.5" font-size="10" text-anchor="start">90</text><line x1="633.8000000000001" y1="494" x2="629.8000000000001" y2="494" stroke="#555555" stroke-width="1" /><text x="627.8000000000001" y="497.5" font-size="10" text-anchor="end">48</text><line x1="633.8000000000001" y1="404" x2="629.8000000000001" y2="404" stroke="#555555" stroke-width="1" /><text x="627.8000000000001" y="407.5" font-size="10" text-anchor="end">56.4</text><line x1="633.8000000000001" y1="314" x2="629.8000000000001" y2="314" stroke="#555555" stroke-width="1" /><text x="627.8000000000001" y="317.5" font-size="10" text-anchor="end">64.8</text><line x1="633.8000000000001" y1="224" x2="629.8000000000001" y2="224" stroke="#555555" stroke-width="1" /><text x="627.8000000000001" y="227.5" font-size="10" text-anchor="end">73.2</text><line x1="633.8000000000001" y1="134" x2="629.8000000000001" y2="134" stroke="#555555" stroke-width="1" /><text x="627.8000000000001" y="137.5" font-size="10" text-anchor="end">81.6</text><line x1="633.8000000000001" y1="44" x2="629.8000000000001" y2="44" stroke="#555555" stroke-width="1" /><text x="627.8000000000001" y="47.5" font-size="10" text-anchor="end">90</text><path d="M 93.80,258.29 L 273.80,151.14 L 453.80,204.71 L 633.80,97.57" stroke="#4682b4" stroke-width="1.2" fill="none" fill-opacity="0.6" /><path d="M 93.80,311.86 L 273.80,236.86 L 453.80,279.71 L 633.80,172.57" stroke="#4682b4" stroke-width="1.2" fill="none" fill-opacity="0.6" /><path d="M 93.80,151.14 L 273.80,97.57 L 453.80,44.00 L 633.80,65.43" stroke="#4682b4" stroke-width="1.2" fill="none" fill-opacity="0.6" /><path d="M 93.80,419.00 L 273.80,365.43 L 453.80,386.86 L 633.80,344.00" stroke="#ff6347" stroke-width="1.2" fill="none" fill-opacity="0.6" /><path d="M 93.80,236.86 L 273.80,172.57 L 453.80,151.14 L 633.80,194.00" stroke="#ff6347" stroke-width="1.2" fill="none" fill-opacity="0.6" /><path d="M 93.80,494.00 L 273.80,451.14 L 453.80,419.00 L 633.80,472.57" stroke="#ff6347" stroke-width="1.2" fill="none" fill-opacity="0.6" /><rect x="668.8000000000001" y="34" width="92.60000000000001" height="56" fill="#ffffff" /><rect x="668.8000000000001" y="34" width="92.60000000000001" height="56" fill="none" stroke="#000000" stroke-width="1" /><text x="698.8000000000001" y="53.2" font-size="12" text-anchor="start">Cohort A</text><line x1="678.8000000000001" y1="49" x2="690.8000000000001" y2="49" stroke="#4682b4" stroke-width="2" /><text x="698.8000000000001" y="71.2" font-size="12" text-anchor="start">Cohort B</text><line x1="678.8000000000001" y1="67" x2="690.8000000000001" y2="67" stroke="#ff6347" stroke-width="2" /></svg>