<svg xmlns="http://www.w3.org/2000/svg" width="686.2" height="545" font-family="DejaVu Sans, Liberation Sans, Arial, sans-serif" fill="black"><rect width="100%" height="100%" fill="white" /><text x="343.1" y="22" font-size="18" text-anchor="middle">DEG Overlap — Sorted by Degree</text><line x1="180.2" y1="291.5" x2="180.2" y2="494" stroke="black" stroke-width="1" /><line x1="72.19999999999999" y1="494" x2="180.2" y2="494" stroke="black" stroke-width="1" /><rect x="72.19999999999999" y="304.8125" width="108" height="24" fill="#1d4ed8" /><text x="183.2" y="321.0125" font-size="12" text-anchor="start">40</text><rect x="85.69999999999999" y="355.4375" width="94.5" height="24" fill="#1d4ed8" /><text x="183.2" y="371.6375" font-size="12" text-anchor="start">35</text><rect x="104.6" y="406.0625" width="75.6" height="24" fill="#1d4ed8" /><text x="183.2" y="422.2625" font-size="12" text-anchor="start">28</text><rect x="109.99999999999999" y="456.6875" width="70.2" height="24" fill="#1d4ed8" /><text x="183.2" y="472.8875" font-size="12" text-anchor="start">26</text><text x="126.19999999999999" y="275.5" font-size="14" text-anchor="middle">Set size</text><text x="292.4" y="321.0125" font-size="12" text-anchor="end">Condition A</text><text x="292.4" y="371.6375" font-size="12" text-anchor="end">Condition B</text><text x="292.4" y="422.2625" font-size="12" text-anchor="end">Condition C</text><text x="292.4" y="472.8875" font-size="12" text-anchor="end">Condition D</text><line x1="297.4" y1="58" x2="297.4" y2="286.5" stroke="black" stroke-width="1" /><line x1="297.4" y1="286.5" x2="672.2" y2="286.5" stroke="black" stroke-width="1" /><line x1="293.4" y1="286.5" x2="297.4" y2="286.5" stroke="black" stroke-width="1" /><text x="290.4" y="290.7" font-size="12" text-anchor="end">0</text><line x1="293.4" y1="229.375" x2="297.4" y2="229.375" stroke="black" stroke-width="1" /><text x="290.4" y="233.575" font-size="12" text-anchor="end">3</text><line x1="293.4" y1="172.25" x2="297.4" y2="172.25" stroke="black" stroke-width="1" /><text x="290.4" y="176.45" font-size="12" text-anchor="end">6</text><line x1="293.4" y1="115.125" x2="297.4" y2="115.125" stroke="black" stroke-width="1" /><text x="290.4" y="119.325" font-size="12" text-anchor="end">8</text><line x1="293.4" y1="58" x2="297.4" y2="58" stroke="black" stroke-width="1" /><text x="290.4" y="62.2" font-size="12" text-anchor="end">11</text><text x="253.39999999999998" y="172.25" font-size="14" text-anchor="middle" transform="rotate(-90,253.39999999999998,172.25)">Intersection size</text><rect x="306.77" y="58" width="28.110000000000003" height="228.5" fill="#1d4ed8" /><text x="320.825" y="56" font-size="12" text-anchor="middle">11</text><rect x="353.61999999999995" y="78.77272727272728" width="28.110000000000003" height="207.72727272727272" fill="#1d4ed8" /><text x="367.67499999999995" y="76.77272727272728" font-size="12" text-anchor="middle">10</text><rect x="400.46999999999997" y="78.77272727272728" width="28.110000000000003" height="207.72727272727272" fill="#1d4ed8" /><text x="414.525" y="76.77272727272728" font-size="12" text-anchor="middle">10</text><rect x="447.32" y="78.77272727272728" width="28.110000000000003" height="207.72727272727272" fill="#1d4ed8" /><text x="461.375" y="76.77272727272728" font-size="12" text-anchor="middle">10</text><rect x="494.17" y="203.4090909090909" width="28.110000000000003" height="83.0909090909091" fill="#1d4ed8" /><text x="508.225" y="201.4090909090909" font-size="12" text-anchor="middle">4</text><rect x="541.0200000000001" y="224.1818181818182" width="28.110000000000003" height="62.31818181818181" fill="#1d4ed8" /><text x="555.075" y="222.1818181818182" font-size="12" text-anchor="middle">3</text><rect x="587.87" y="78.77272727272728" width="28.110000000000003" height="207.72727272727272" fill="#1d4ed8" /><text x="601.925" y="76.77272727272728" font-size="12" text-anchor="middle">10</text><rect x="634.7200000000001" y="244.95454545454544" width="28.110000000000003" height="41.54545454545455" fill="#1d4ed8" /><text x="648.7750000000001" y="242.95454545454544" font-size="12" text-anchor="middle">2</text><line x1="297.4" y1="291.5" x2="672.2" y2="291.5" stroke="#ccc" stroke-width="0.5" /><line x1="297.4" y1="342.125" x2="672.2" y2="342.125" stroke="#ccc" stroke-width="0.5" /><line x1="297.4" y1="392.75" x2="672.2" y2="392.75" stroke="#ccc" stroke-width="0.5" /><line x1="297.4" y1="443.375" x2="672.2" y2="443.375" stroke="#ccc" stroke-width="0.5" /><line x1="297.4" y1="494" x2="672.2" y2="494" stroke="#ccc" stroke-width="0.5" /><line x1="320.825" y1="367.4375" x2="320.825" y2="468.6875" stroke="#1e3a8a" stroke-width="6" /><circle cx="320.825" cy="316.8125" r="12" fill="#dddddd" /><circle cx="320.825" cy="367.4375" r="12" fill="#1e3a8a" /><circle cx="320.825" cy="418.0625" r="12" fill="#1e3a8a" /><circle cx="320.825" cy="468.6875" r="12" fill="#1e3a8a" /><line x1="367.67499999999995" y1="316.8125" x2="367.67499999999995" y2="418.0625" stroke="#1e3a8a" stroke-width="6" /><circle cx="367.67499999999995" cy="316.8125" r="12" fill="#1e3a8a" /><circle cx="367.67499999999995" cy="367.4375" r="12" fill="#1e3a8a" /><circle cx="367.67499999999995" cy="418.0625" r="12" fill="#1e3a8a" /><circle cx="367.67499999999995" cy="468.6875" r="12" fill="#dddddd" /><line x1="414.525" y1="316.8125" x2="414.525" y2="367.4375" stroke="#1e3a8a" stroke-width="6" /><circle cx="414.525" cy="316.8125" r="12" fill="#1e3a8a" /><circle cx="414.525" cy="367.4375" r="12" fill="#1e3a8a" /><circle cx="414.525" cy="418.0625" r="12" fill="#dddddd" /><circle cx="414.525" cy="468.6875" r="12" fill="#dddddd" /><line x1="461.375" y1="316.8125" x2="461.375" y2="468.6875" stroke="#1e3a8a" stroke-width="6" /><circle cx="461.375" cy="316.8125" r="12" fill="#1e3a8a" /><circle cx="461.375" cy="367.4375" r="12" fill="#dddddd" /><circle cx="461.375" cy="418.0625" r="12" fill="#dddddd" /><circle cx="461.375" cy="468.6875" r="12" fill="#1e3a8a" /><line x1="508.225" y1="367.4375" x2="508.225" y2="418.0625" stroke="#1e3a8a" stroke-width="6" /><circle cx="508.225" cy="316.8125" r="12" fill="#dddddd" /><circle cx="508.225" cy="367.4375" r="12" fill="#1e3a8a" /><circle cx="508.225" cy="418.0625" r="12" fill="#1e3a8a" /><circle cx="508.225" cy="468.6875" r="12" fill="#dddddd" /><line x1="555.075" y1="418.0625" x2="555.075" y2="468.6875" stroke="#1e3a8a" stroke-width="6" /><circle cx="555.075" cy="316.8125" r="12" fill="#dddddd" /><circle cx="555.075" cy="367.4375" r="12" fill="#dddddd" /><circle cx="555.075" cy="418.0625" r="12" fill="#1e3a8a" /><circle cx="555.075" cy="468.6875" r="12" fill="#1e3a8a" /><circle cx="601.925" cy="316.8125" r="12" fill="#1e3a8a" /><circle cx="601.925" cy="367.4375" r="12" fill="#dddddd" /><circle cx="601.925" cy="418.0625" r="12" fill="#dddddd" /><circle cx="601.925" cy="468.6875" r="12" fill="#dddddd" /><circle cx="648.7750000000001" cy="316.8125" r="12" fill="#dddddd" /><circle cx="648.7750000000001" cy="367.4375" r="12" fill="#dddddd" /><circle cx="648.7750000000001" cy="418.0625" r="12" fill="#dddddd" /><circle cx="648.7750000000001" cy="468.6875" r="12" fill="#1e3a8a" /></svg>