<svg xmlns="http://www.w3.org/2000/svg" width="686.2" height="545" font-family="DejaVu Sans, Liberation Sans, Arial, sans-serif" fill="black"><rect width="100%" height="100%" fill="white" /><text x="343.1" y="22" font-size="18" text-anchor="middle">Variant Calls by Pipeline (top 5 intersections)</text><text x="142" y="329.45" font-size="12" text-anchor="end">GATK</text><text x="142" y="396.95" font-size="12" text-anchor="end">FreeBayes</text><text x="142" y="464.45" font-size="12" text-anchor="end">Strelka</text><line x1="147" y1="58" x2="147" y2="286.5" stroke="black" stroke-width="1" /><line x1="147" y1="286.5" x2="672.2" y2="286.5" stroke="black" stroke-width="1" /><line x1="143" y1="286.5" x2="147" y2="286.5" stroke="black" stroke-width="1" /><text x="140" y="290.7" font-size="12" text-anchor="end">0</text><line x1="143" y1="229.375" x2="147" y2="229.375" stroke="black" stroke-width="1" /><text x="140" y="233.575" font-size="12" text-anchor="end">30</text><line x1="143" y1="172.25" x2="147" y2="172.25" stroke="black" stroke-width="1" /><text x="140" y="176.45" font-size="12" text-anchor="end">59</text><line x1="143" y1="115.125" x2="147" y2="115.125" stroke="black" stroke-width="1" /><text x="140" y="119.325" font-size="12" text-anchor="end">89</text><line x1="143" y1="58" x2="147" y2="58" stroke="black" stroke-width="1" /><text x="140" y="62.2" font-size="12" text-anchor="end">118</text><text x="103" y="172.25" font-size="14" text-anchor="middle" transform="rotate(-90,103,172.25)">Intersection size</text><rect x="168.008" y="58" width="63.024" height="228.5" fill="#333333" /><text x="199.52" y="56" font-size="12" text-anchor="middle">118</text><rect x="273.048" y="166.4406779661017" width="63.024" height="120.05932203389831" fill="#333333" /><text x="304.56" y="164.4406779661017" font-size="12" text-anchor="middle">62</text><rect x="378.088" y="179.99576271186442" width="63.024" height="106.50423728813558" fill="#333333" /><text x="409.6" y="177.99576271186442" font-size="12" text-anchor="middle">55</text><rect x="483.1280000000001" y="193.55084745762713" width="63.024" height="92.94915254237289" fill="#333333" /><text x="514.6400000000001" y="191.55084745762713" font-size="12" text-anchor="middle">48</text><rect x="588.1680000000001" y="199.36016949152543" width="63.024" height="87.13983050847457" fill="#333333" /><text x="619.6800000000001" y="197.36016949152543" font-size="12" text-anchor="middle">45</text><line x1="147" y1="291.5" x2="672.2" y2="291.5" stroke="#ccc" stroke-width="0.5" /><line x1="147" y1="359" x2="672.2" y2="359" stroke="#ccc" stroke-width="0.5" /><line x1="147" y1="426.5" x2="672.2" y2="426.5" stroke="#ccc" stroke-width="0.5" /><line x1="147" y1="494" x2="672.2" y2="494" stroke="#ccc" stroke-width="0.5" /><line x1="199.52" y1="325.25" x2="199.52" y2="460.25" stroke="#333333" stroke-width="6" /><circle cx="199.52" cy="325.25" r="12" fill="#333333" /><circle cx="199.52" cy="392.75" r="12" fill="#333333" /><circle cx="199.52" cy="460.25" r="12" fill="#333333" /><line x1="304.56" y1="325.25" x2="304.56" y2="392.75" stroke="#333333" stroke-width="6" /><circle cx="304.56" cy="325.25" r="12" fill="#333333" /><circle cx="304.56" cy="392.75" r="12" fill="#333333" /><circle cx="304.56" cy="460.25" r="12" fill="#dddddd" /><line x1="409.6" y1="325.25" x2="409.6" y2="460.25" stroke="#333333" stroke-width="6" /><circle cx="409.6" cy="325.25" r="12" fill="#333333" /><circle cx="409.6" cy="392.75" r="12" fill="#dddddd" /><circle cx="409.6" cy="460.25" r="12" fill="#333333" /><line x1="514.6400000000001" y1="392.75" x2="514.6400000000001" y2="460.25" stroke="#333333" stroke-width="6" /><circle cx="514.6400000000001" cy="325.25" r="12" fill="#dddddd" /><circle cx="514.6400000000001" cy="392.75" r="12" fill="#333333" /><circle cx="514.6400000000001" cy="460.25" r="12" fill="#333333" /><circle cx="619.6800000000001" cy="325.25" r="12" fill="#333333" /><circle cx="619.6800000000001" cy="392.75" r="12" fill="#dddddd" /><circle cx="619.6800000000001" cy="460.25" r="12" fill="#dddddd" /></svg>