<svg xmlns="http://www.w3.org/2000/svg" width="686.2" height="551.5470129472588" font-family="DejaVu Sans, Liberation Sans, Arial, sans-serif" fill="black"><rect width="100%" height="100%" fill="white" /><line x1="72.19999999999999" y1="494" x2="672.2" y2="494" stroke="black" stroke-width="1" /><line x1="72.19999999999999" y1="44" x2="72.19999999999999" y2="494" stroke="black" stroke-width="1" /><line x1="72.19999999999999" y1="365.42857142857144" x2="672.2" y2="365.42857142857144" stroke="#ccc" stroke-width="1" /><line x1="72.19999999999999" y1="236.8571428571429" x2="672.2" y2="236.8571428571429" stroke="#ccc" stroke-width="1" /><line x1="72.19999999999999" y1="108.28571428571433" x2="672.2" y2="108.28571428571433" stroke="#ccc" stroke-width="1" /><text x="96.19999999999999" y="511" font-size="12" text-anchor="end" transform="rotate(-45,96.19999999999999,511)">Nov 01</text><line x1="96.19999999999999" y1="494" x2="96.19999999999999" y2="499" stroke="black" stroke-width="1" /><text x="120.19999999999999" y="511" font-size="12" text-anchor="end" transform="rotate(-45,120.19999999999999,511)">Nov 02</text><line x1="120.19999999999999" y1="494" x2="120.19999999999999" y2="499" stroke="black" stroke-width="1" /><text x="144.2" y="511" font-size="12" text-anchor="end" transform="rotate(-45,144.2,511)">Nov 03</text><line x1="144.2" y1="494" x2="144.2" y2="499" stroke="black" stroke-width="1" /><text x="168.2" y="511" font-size="12" text-anchor="end" transform="rotate(-45,168.2,511)">Nov 04</text><line x1="168.2" y1="494" x2="168.2" y2="499" stroke="black" stroke-width="1" /><text x="192.2" y="511" font-size="12" text-anchor="end" transform="rotate(-45,192.2,511)">Nov 05</text><line x1="192.2" y1="494" x2="192.2" y2="499" stroke="black" stroke-width="1" /><text x="216.2" y="511" font-size="12" text-anchor="end" transform="rotate(-45,216.2,511)">Nov 06</text><line x1="216.2" y1="494" x2="216.2" y2="499" stroke="black" stroke-width="1" /><text x="240.20000000000002" y="511" font-size="12" text-anchor="end" transform="rotate(-45,240.20000000000002,511)">Nov 07</text><line x1="240.20000000000002" y1="494" x2="240.20000000000002" y2="499" stroke="black" stroke-width="1" /><text x="264.2" y="511" font-size="12" text-anchor="end" transform="rotate(-45,264.2,511)">Nov 08</text><line x1="264.2" y1="494" x2="264.2" y2="499" stroke="black" stroke-width="1" /><text x="288.2" y="511" font-size="12" text-anchor="end" transform="rotate(-45,288.2,511)">Nov 11</text><line x1="288.2" y1="494" x2="288.2" y2="499" stroke="black" stroke-width="1" /><text x="312.2" y="511" font-size="12" text-anchor="end" transform="rotate(-45,312.2,511)">Nov 12</text><line x1="312.2" y1="494" x2="312.2" y2="499" stroke="black" stroke-width="1" /><text x="336.2" y="511" font-size="12" text-anchor="end" transform="rotate(-45,336.2,511)">Nov 13</text><line x1="336.2" y1="494" x2="336.2" y2="499" stroke="black" stroke-width="1" /><text x="360.2" y="511" font-size="12" text-anchor="end" transform="rotate(-45,360.2,511)">Nov 14</text><line x1="360.2" y1="494" x2="360.2" y2="499" stroke="black" stroke-width="1" /><text x="384.2" y="511" font-size="12" text-anchor="end" transform="rotate(-45,384.2,511)">Nov 15</text><line x1="384.2" y1="494" x2="384.2" y2="499" stroke="black" stroke-width="1" /><text x="408.20000000000005" y="511" font-size="12" text-anchor="end" transform="rotate(-45,408.20000000000005,511)">Nov 18</text><line x1="408.20000000000005" y1="494" x2="408.20000000000005" y2="499" stroke="black" stroke-width="1" /><text x="432.2" y="511" font-size="12" text-anchor="end" transform="rotate(-45,432.2,511)">Nov 19</text><line x1="432.2" y1="494" x2="432.2" y2="499" stroke="black" stroke-width="1" /><text x="456.2" y="511" font-size="12" text-anchor="end" transform="rotate(-45,456.2,511)">Nov 20</text><line x1="456.2" y1="494" x2="456.2" y2="499" stroke="black" stroke-width="1" /><text x="480.20000000000005" y="511" font-size="12" text-anchor="end" transform="rotate(-45,480.20000000000005,511)">Nov 21</text><line x1="480.20000000000005" y1="494" x2="480.20000000000005" y2="499" stroke="black" stroke-width="1" /><text x="504.2" y="511" font-size="12" text-anchor="end" transform="rotate(-45,504.2,511)">Nov 22</text><line x1="504.2" y1="494" x2="504.2" y2="499" stroke="black" stroke-width="1" /><text x="528.2" y="511" font-size="12" text-anchor="end" transform="rotate(-45,528.2,511)">Nov 25</text><line x1="528.2" y1="494" x2="528.2" y2="499" stroke="black" stroke-width="1" /><text x="552.2" y="511" font-size="12" text-anchor="end" transform="rotate(-45,552.2,511)">Nov 26</text><line x1="552.2" y1="494" x2="552.2" y2="499" stroke="black" stroke-width="1" /><line x1="67.19999999999999" y1="494" x2="72.19999999999999" y2="494" stroke="black" stroke-width="1" /><text x="64.19999999999999" y="498.2" font-size="12" text-anchor="end">0</text><line x1="67.19999999999999" y1="365.42857142857144" x2="72.19999999999999" y2="365.42857142857144" stroke="black" stroke-width="1" /><text x="64.19999999999999" y="369.62857142857143" font-size="12" text-anchor="end">50</text><line x1="67.19999999999999" y1="236.8571428571429" x2="72.19999999999999" y2="236.8571428571429" stroke="black" stroke-width="1" /><text x="64.19999999999999" y="241.05714285714288" font-size="12" text-anchor="end">100</text><line x1="67.19999999999999" y1="108.28571428571433" x2="72.19999999999999" y2="108.28571428571433" stroke="black" stroke-width="1" /><text x="64.19999999999999" y="112.48571428571434" font-size="12" text-anchor="end">150</text><text x="343.1" y="544.5470129472588" font-size="14" text-anchor="middle">Date</text><text x="14" y="275.7735064736294" font-size="14" text-anchor="middle" transform="rotate(-90,14,275.7735064736294)">Price (USD)</text><text x="343.1" y="22" font-size="18" text-anchor="middle">Daily OHLC — November</text><line x1="96.19999999999999" y1="118.05714285714289" x2="96.19999999999999" y2="129.37142857142854" stroke="rgb(68,170,68)" stroke-width="1.5" /><rect x="87.79999999999998" y="120.37142857142854" width="16.799999999999997" height="7.200000000000031" fill="rgb(68,170,68)" stroke="rgb(68,170,68)" stroke-width="0.5" /><line x1="120.19999999999999" y1="113.94285714285711" x2="120.19999999999999" y2="125" stroke="rgb(204,68,68)" stroke-width="1.5" /><rect x="111.79999999999998" y="120.1142857142857" width="16.799999999999997" height="3.34285714285717" fill="rgb(204,68,68)" stroke="rgb(204,68,68)" stroke-width="0.5" /><line x1="144.2" y1="121.39999999999998" x2="144.2" y2="128.34285714285716" stroke="#888888" stroke-width="1.5" /><rect x="135.79999999999998" y="123.45714285714287" width="16.799999999999997" height="1" fill="#888888" stroke="#888888" stroke-width="0.5" /><line x1="168.2" y1="112.14285714285715" x2="168.2" y2="125.7714285714286" stroke="rgb(68,170,68)" stroke-width="1.5" /><rect x="159.79999999999998" y="113.68571428571427" width="16.799999999999997" height="10.54285714285713" fill="rgb(68,170,68)" stroke="rgb(68,170,68)" stroke-width="0.5" /><line x1="192.2" y1="107.7714285714286" x2="192.2" y2="117.79999999999997" stroke="rgb(68,170,68)" stroke-width="1.5" /><rect x="183.79999999999998" y="108.79999999999997" width="16.799999999999997" height="4.8857142857143" fill="rgb(68,170,68)" stroke="rgb(68,170,68)" stroke-width="0.5" /><line x1="216.2" y1="105.71428571428572" x2="216.2" y2="117.28571428571429" stroke="rgb(204,68,68)" stroke-width="1.5" /><rect x="207.79999999999998" y="108.79999999999997" width="16.799999999999997" height="6.68571428571434" fill="rgb(204,68,68)" stroke="rgb(204,68,68)" stroke-width="0.5" /><line x1="240.20000000000002" y1="113.17142857142859" x2="240.20000000000002" y2="124.2285714285714" stroke="rgb(204,68,68)" stroke-width="1.5" /><rect x="231.8" y="115.48571428571431" width="16.799999999999997" height="6.942857142857122" fill="rgb(204,68,68)" stroke="rgb(204,68,68)" stroke-width="0.5" /><line x1="264.2" y1="116.51428571428569" x2="264.2" y2="125.7714285714286" stroke="rgb(68,170,68)" stroke-width="1.5" /><rect x="255.79999999999998" y="118.82857142857142" width="16.799999999999997" height="3.6000000000000085" fill="rgb(68,170,68)" stroke="rgb(68,170,68)" stroke-width="0.5" /><line x1="288.2" y1="110.08571428571426" x2="288.2" y2="119.85714285714286" stroke="rgb(68,170,68)" stroke-width="1.5" /><rect x="279.8" y="111.62857142857146" width="16.799999999999997" height="7.19999999999996" fill="rgb(68,170,68)" stroke="rgb(68,170,68)" stroke-width="0.5" /><line x1="312.2" y1="103.14285714285714" x2="312.2" y2="113.17142857142859" stroke="rgb(68,170,68)" stroke-width="1.5" /><rect x="303.8" y="104.42857142857143" width="16.799999999999997" height="7.200000000000031" fill="rgb(68,170,68)" stroke="rgb(68,170,68)" stroke-width="0.5" /><line x1="336.2" y1="95.94285714285712" x2="336.2" y2="105.97142857142856" stroke="rgb(68,170,68)" stroke-width="1.5" /><rect x="327.8" y="98.51428571428568" width="16.799999999999997" height="5.914285714285754" fill="rgb(68,170,68)" stroke="rgb(68,170,68)" stroke-width="0.5" /><line x1="360.2" y1="97.48571428571432" x2="360.2" y2="107.51428571428568" stroke="rgb(204,68,68)" stroke-width="1.5" /><rect x="351.8" y="98.51428571428568" width="16.799999999999997" height="8.228571428571485" fill="rgb(204,68,68)" stroke="rgb(204,68,68)" stroke-width="0.5" /><line x1="384.2" y1="102.8857142857143" x2="384.2" y2="111.37142857142855" stroke="rgb(68,170,68)" stroke-width="1.5" /><rect x="375.8" y="105.20000000000003" width="16.799999999999997" height="1.5428571428571303" fill="rgb(68,170,68)" stroke="rgb(68,170,68)" stroke-width="0.5" /><line x1="408.20000000000005" y1="99.54285714285713" x2="408.20000000000005" y2="106.2285714285714" stroke="rgb(68,170,68)" stroke-width="1.5" /><rect x="399.80000000000007" y="99.54285714285713" width="16.799999999999997" height="5.657142857142901" fill="rgb(68,170,68)" stroke="rgb(68,170,68)" stroke-width="0.5" /><line x1="432.2" y1="89.7714285714286" x2="432.2" y2="101.08571428571426" stroke="rgb(68,170,68)" stroke-width="1.5" /><rect x="423.8" y="91.57142857142858" width="16.799999999999997" height="7.971428571428547" fill="rgb(68,170,68)" stroke="rgb(68,170,68)" stroke-width="0.5" /><line x1="456.2" y1="87.45714285714287" x2="456.2" y2="97.48571428571432" stroke="rgb(204,68,68)" stroke-width="1.5" /><rect x="447.8" y="91.57142857142858" width="16.799999999999997" height="4.371428571428538" fill="rgb(204,68,68)" stroke="rgb(204,68,68)" stroke-width="0.5" /><line x1="480.20000000000005" y1="94.91428571428574" x2="480.20000000000005" y2="102.8857142857143" stroke="#888888" stroke-width="1.5" /><rect x="471.80000000000007" y="95.94285714285712" width="16.799999999999997" height="1" fill="#888888" stroke="#888888" stroke-width="0.5" /><line x1="504.2" y1="86.42857142857143" x2="504.2" y2="97.2285714285714" stroke="rgb(68,170,68)" stroke-width="1.5" /><rect x="495.8" y="87.97142857142856" width="16.799999999999997" height="7.971428571428561" fill="rgb(68,170,68)" stroke="rgb(68,170,68)" stroke-width="0.5" /><line x1="528.2" y1="82.31428571428573" x2="528.2" y2="90.79999999999998" stroke="rgb(68,170,68)" stroke-width="1.5" /><rect x="519.8000000000001" y="83.85714285714286" width="16.799999999999997" height="4.1142857142857" fill="rgb(68,170,68)" stroke="rgb(68,170,68)" stroke-width="0.5" /><line x1="552.2" y1="79.48571428571432" x2="552.2" y2="89.51428571428568" stroke="rgb(204,68,68)" stroke-width="1.5" /><rect x="543.8000000000001" y="83.85714285714286" width="16.799999999999997" height="2.828571428571408" fill="rgb(204,68,68)" stroke="rgb(204,68,68)" stroke-width="0.5" /></svg>