<svg xmlns="http://www.w3.org/2000/svg" width="686.2" height="545" font-family="DejaVu Sans, Liberation Sans, Arial, sans-serif" fill="black"><rect width="100%" height="100%" fill="white" /><line x1="72.19999999999999" y1="494" x2="672.2" y2="494" stroke="black" stroke-width="1" /><line x1="72.19999999999999" y1="44" x2="72.19999999999999" y2="494" stroke="black" stroke-width="1" /><line x1="157.9142857142857" y1="44" x2="157.9142857142857" y2="494" stroke="#ccc" stroke-width="1" /><line x1="243.6285714285714" y1="44" x2="243.6285714285714" y2="494" stroke="#ccc" stroke-width="1" /><line x1="329.3428571428571" y1="44" x2="329.3428571428571" y2="494" stroke="#ccc" stroke-width="1" /><line x1="415.0571428571428" y1="44" x2="415.0571428571428" y2="494" stroke="#ccc" stroke-width="1" /><line x1="500.77142857142854" y1="44" x2="500.77142857142854" y2="494" stroke="#ccc" stroke-width="1" /><line x1="586.4857142857143" y1="44" x2="586.4857142857143" y2="494" stroke="#ccc" stroke-width="1" /><line x1="672.2" y1="44" x2="672.2" y2="494" stroke="#ccc" stroke-width="1" /><line x1="72.19999999999999" y1="419" x2="672.2" y2="419" stroke="#ccc" stroke-width="1" /><line x1="72.19999999999999" y1="344" x2="672.2" y2="344" stroke="#ccc" stroke-width="1" /><line x1="72.19999999999999" y1="269" x2="672.2" y2="269" stroke="#ccc" stroke-width="1" /><line x1="72.19999999999999" y1="194" x2="672.2" y2="194" stroke="#ccc" stroke-width="1" /><line x1="72.19999999999999" y1="119" x2="672.2" y2="119" stroke="#ccc" stroke-width="1" /><line x1="72.19999999999999" y1="44" x2="672.2" y2="44" stroke="#ccc" stroke-width="1" /><line x1="72.19999999999999" y1="494" x2="72.19999999999999" y2="499" stroke="black" stroke-width="1" /><text x="72.19999999999999" y="511" font-size="12" text-anchor="middle">2021.5</text><line x1="157.9142857142857" y1="494" x2="157.9142857142857" y2="499" stroke="black" stroke-width="1" /><text x="157.9142857142857" y="511" font-size="12" text-anchor="middle">2022</text><line x1="243.6285714285714" y1="494" x2="243.6285714285714" y2="499" stroke="black" stroke-width="1" /><text x="243.6285714285714" y="511" font-size="12" text-anchor="middle">2022.5</text><line x1="329.3428571428571" y1="494" x2="329.3428571428571" y2="499" stroke="black" stroke-width="1" /><text x="329.3428571428571" y="511" font-size="12" text-anchor="middle">2023</text><line x1="415.0571428571428" y1="494" x2="415.0571428571428" y2="499" stroke="black" stroke-width="1" /><text x="415.0571428571428" y="511" font-size="12" text-anchor="middle">2023.5</text><line x1="500.77142857142854" y1="494" x2="500.77142857142854" y2="499" stroke="black" stroke-width="1" /><text x="500.77142857142854" y="511" font-size="12" text-anchor="middle">2024</text><line x1="586.4857142857143" y1="494" x2="586.4857142857143" y2="499" stroke="black" stroke-width="1" /><text x="586.4857142857143" y="511" font-size="12" text-anchor="middle">2024.5</text><line x1="672.2" y1="494" x2="672.2" y2="499" stroke="black" stroke-width="1" /><text x="672.2" y="511" font-size="12" text-anchor="middle">2025</text><line x1="67.19999999999999" y1="494" x2="72.19999999999999" y2="494" stroke="black" stroke-width="1" /><text x="64.19999999999999" y="498.2" font-size="12" text-anchor="end">0</text><line x1="67.19999999999999" y1="419" x2="72.19999999999999" y2="419" stroke="black" stroke-width="1" /><text x="64.19999999999999" y="423.2" font-size="12" text-anchor="end">25</text><line x1="67.19999999999999" y1="344" x2="72.19999999999999" y2="344" stroke="black" stroke-width="1" /><text x="64.19999999999999" y="348.2" font-size="12" text-anchor="end">50</text><line x1="67.19999999999999" y1="269" x2="72.19999999999999" y2="269" stroke="black" stroke-width="1" /><text x="64.19999999999999" y="273.2" font-size="12" text-anchor="end">75</text><line x1="67.19999999999999" y1="194" x2="72.19999999999999" y2="194" stroke="black" stroke-width="1" /><text x="64.19999999999999" y="198.2" font-size="12" text-anchor="end">100</text><line x1="67.19999999999999" y1="119" x2="72.19999999999999" y2="119" stroke="black" stroke-width="1" /><text x="64.19999999999999" y="123.2" font-size="12" text-anchor="end">125</text><line x1="67.19999999999999" y1="44" x2="72.19999999999999" y2="44" stroke="black" stroke-width="1" /><text x="64.19999999999999" y="48.2" font-size="12" text-anchor="end">150</text><text x="343.1" y="538" font-size="14" text-anchor="middle">Quarter</text><text x="14" y="272.5" font-size="14" text-anchor="middle" transform="rotate(-90,14,272.5)">Price</text><text x="343.1" y="22" font-size="18" text-anchor="middle">Quarterly OHLC — Numeric x-axis</text><line x1="157.9142857142857" y1="170" x2="157.9142857142857" y2="209" stroke="rgb(68,170,68)" stroke-width="1.5" /><rect x="154.7" y="179" width="6.428571428571429" height="21" fill="rgb(68,170,68)" stroke="rgb(68,170,68)" stroke-width="0.5" /><line x1="200.77142857142854" y1="158" x2="200.77142857142854" y2="191" stroke="rgb(68,170,68)" stroke-width="1.5" /><rect x="197.55714285714282" y="168.5" width="6.428571428571429" height="10.5" fill="rgb(68,170,68)" stroke="rgb(68,170,68)" stroke-width="0.5" /><line x1="243.6285714285714" y1="149" x2="243.6285714285714" y2="173" stroke="rgb(68,170,68)" stroke-width="1.5" /><rect x="240.41428571428568" y="155" width="6.428571428571429" height="13.5" fill="rgb(68,170,68)" stroke="rgb(68,170,68)" stroke-width="0.5" /><line x1="286.48571428571427" y1="146" x2="286.48571428571427" y2="167" stroke="rgb(204,68,68)" stroke-width="1.5" /><rect x="283.27142857142854" y="155" width="6.428571428571429" height="7.5" fill="rgb(204,68,68)" stroke="rgb(204,68,68)" stroke-width="0.5" /><line x1="329.3428571428571" y1="140" x2="329.3428571428571" y2="164" stroke="rgb(68,170,68)" stroke-width="1.5" /><rect x="326.1285714285714" y="143.60000000000002" width="6.428571428571429" height="18.899999999999977" fill="rgb(68,170,68)" stroke="rgb(68,170,68)" stroke-width="0.5" /><line x1="372.2" y1="128" x2="372.2" y2="147.5" stroke="rgb(68,170,68)" stroke-width="1.5" /><rect x="368.98571428571427" y="131" width="6.428571428571429" height="12.600000000000023" fill="rgb(68,170,68)" stroke="rgb(68,170,68)" stroke-width="0.5" /><line x1="415.0571428571428" y1="117.5" x2="415.0571428571428" y2="137" stroke="rgb(204,68,68)" stroke-width="1.5" /><rect x="411.8428571428571" y="131" width="6.428571428571429" height="2.3999999999999773" fill="rgb(204,68,68)" stroke="rgb(204,68,68)" stroke-width="0.5" /><line x1="457.9142857142857" y1="110" x2="457.9142857142857" y2="134.60000000000002" stroke="rgb(68,170,68)" stroke-width="1.5" /><rect x="454.7" y="113" width="6.428571428571429" height="20.399999999999977" fill="rgb(68,170,68)" stroke="rgb(68,170,68)" stroke-width="0.5" /><line x1="500.77142857142854" y1="89" x2="500.77142857142854" y2="116" stroke="rgb(68,170,68)" stroke-width="1.5" /><rect x="497.5571428571428" y="93.5" width="6.428571428571429" height="19.5" fill="rgb(68,170,68)" stroke="rgb(68,170,68)" stroke-width="0.5" /><line x1="543.6285714285714" y1="80" x2="543.6285714285714" y2="101" stroke="rgb(68,170,68)" stroke-width="1.5" /><rect x="540.4142857142857" y="92" width="6.428571428571429" height="1.5" fill="rgb(68,170,68)" stroke="rgb(68,170,68)" stroke-width="0.5" /><line x1="586.4857142857143" y1="71" x2="586.4857142857143" y2="93.5" stroke="rgb(68,170,68)" stroke-width="1.5" /><rect x="583.2714285714286" y="74" width="6.428571428571429" height="18" fill="rgb(68,170,68)" stroke="rgb(68,170,68)" stroke-width="0.5" /><line x1="629.3428571428572" y1="60.5" x2="629.3428571428572" y2="83" stroke="rgb(68,170,68)" stroke-width="1.5" /><rect x="626.1285714285715" y="65.59999999999997" width="6.428571428571429" height="8.400000000000034" fill="rgb(68,170,68)" stroke="rgb(68,170,68)" stroke-width="0.5" /></svg>