<svg xmlns="http://www.w3.org/2000/svg" width="686.2" height="545" font-family="DejaVu Sans, Liberation Sans, Arial, sans-serif" fill="black"><rect width="100%" height="100%" fill="white" /><line x1="72.19999999999999" y1="494" x2="672.2" y2="494" stroke="black" stroke-width="1" /><line x1="72.19999999999999" y1="44" x2="72.19999999999999" y2="494" stroke="black" stroke-width="1" /><line x1="72.19999999999999" y1="404" x2="672.2" y2="404" stroke="#ccc" stroke-width="1" /><line x1="72.19999999999999" y1="314" x2="672.2" y2="314" stroke="#ccc" stroke-width="1" /><line x1="72.19999999999999" y1="224" x2="672.2" y2="224" stroke="#ccc" stroke-width="1" /><line x1="72.19999999999999" y1="134" x2="672.2" y2="134" stroke="#ccc" stroke-width="1" /><line x1="72.19999999999999" y1="44" x2="672.2" y2="44" stroke="#ccc" stroke-width="1" /><text x="122.19999999999999" y="511" font-size="12" text-anchor="middle">Mon</text><line x1="122.19999999999999" y1="494" x2="122.19999999999999" y2="499" stroke="black" stroke-width="1" /><text x="172.2" y="511" font-size="12" text-anchor="middle">Tue</text><line x1="172.2" y1="494" x2="172.2" y2="499" stroke="black" stroke-width="1" /><text x="222.2" y="511" font-size="12" text-anchor="middle">Wed</text><line x1="222.2" y1="494" x2="222.2" y2="499" stroke="black" stroke-width="1" /><text x="272.2" y="511" font-size="12" text-anchor="middle">Thu</text><line x1="272.2" y1="494" x2="272.2" y2="499" stroke="black" stroke-width="1" /><text x="322.2" y="511" font-size="12" text-anchor="middle">Fri</text><line x1="322.2" y1="494" x2="322.2" y2="499" stroke="black" stroke-width="1" /><text x="372.2" y="511" font-size="12" text-anchor="middle">Mon</text><line x1="372.2" y1="494" x2="372.2" y2="499" stroke="black" stroke-width="1" /><text x="422.2" y="511" font-size="12" text-anchor="middle">Tue</text><line x1="422.2" y1="494" x2="422.2" y2="499" stroke="black" stroke-width="1" /><text x="472.2" y="511" font-size="12" text-anchor="middle">Wed</text><line x1="472.2" y1="494" x2="472.2" y2="499" stroke="black" stroke-width="1" /><text x="522.2" y="511" font-size="12" text-anchor="middle">Thu</text><line x1="522.2" y1="494" x2="522.2" y2="499" stroke="black" stroke-width="1" /><text x="572.2" y="511" font-size="12" text-anchor="middle">Fri</text><line x1="572.2" y1="494" x2="572.2" y2="499" stroke="black" stroke-width="1" /><line x1="67.19999999999999" y1="494" x2="72.19999999999999" y2="494" stroke="black" stroke-width="1" /><text x="64.19999999999999" y="498.2" font-size="12" text-anchor="end">0</text><line x1="67.19999999999999" y1="404" x2="72.19999999999999" y2="404" stroke="black" stroke-width="1" /><text x="64.19999999999999" y="408.2" font-size="12" text-anchor="end">25</text><line x1="67.19999999999999" y1="314" x2="72.19999999999999" y2="314" stroke="black" stroke-width="1" /><text x="64.19999999999999" y="318.2" font-size="12" text-anchor="end">50</text><line x1="67.19999999999999" y1="224" x2="72.19999999999999" y2="224" stroke="black" stroke-width="1" /><text x="64.19999999999999" y="228.2" font-size="12" text-anchor="end">75</text><line x1="67.19999999999999" y1="134" x2="72.19999999999999" y2="134" stroke="black" stroke-width="1" /><text x="64.19999999999999" y="138.2" font-size="12" text-anchor="end">100</text><line x1="67.19999999999999" y1="44" x2="72.19999999999999" y2="44" stroke="black" stroke-width="1" /><text x="64.19999999999999" y="48.2" font-size="12" text-anchor="end">125</text><text x="343.1" y="538" font-size="14" text-anchor="middle">Day</text><text x="14" y="272.5" font-size="14" text-anchor="middle" transform="rotate(-90,14,272.5)">Price</text><text x="343.1" y="22" font-size="18" text-anchor="middle">Custom Colors</text><line x1="122.19999999999999" y1="113.12" x2="122.19999999999999" y2="136.88" stroke="#00c896" stroke-width="1.5" /><rect x="104.69999999999999" y="117.8" width="35" height="16.200000000000003" fill="#00c896" stroke="#00c896" stroke-width="0.5" /><line x1="172.2" y1="111.67999999999999" x2="172.2" y2="122.84000000000002" stroke="#ff4560" stroke-width="1.5" /><rect x="154.7" y="117.8" width="35" height="3.9599999999999795" fill="#ff4560" stroke="#ff4560" stroke-width="0.5" /><line x1="222.2" y1="107" x2="222.2" y2="123.92000000000002" stroke="#00c896" stroke-width="1.5" /><rect x="204.7" y="109.15999999999998" width="35" height="12.599999999999994" fill="#00c896" stroke="#00c896" stroke-width="0.5" /><line x1="272.2" y1="101.24000000000001" x2="272.2" y2="111.32000000000001" stroke="#00c896" stroke-width="1.5" /><rect x="254.7" y="103.04000000000002" width="35" height="6.119999999999962" fill="#00c896" stroke="#00c896" stroke-width="0.5" /><line x1="322.2" y1="101.6" x2="322.2" y2="113.47999999999999" stroke="#aaaaaa" stroke-width="1.5" /><rect x="304.7" y="103.04000000000002" width="35" height="1" fill="#aaaaaa" stroke="#aaaaaa" stroke-width="0.5" /><line x1="372.2" y1="89.72000000000001" x2="372.2" y2="104.84000000000002" stroke="#00c896" stroke-width="1.5" /><rect x="354.7" y="92.6" width="35" height="10.440000000000026" fill="#00c896" stroke="#00c896" stroke-width="0.5" /><line x1="422.2" y1="84.32000000000002" x2="422.2" y2="98.35999999999999" stroke="#ff4560" stroke-width="1.5" /><rect x="404.7" y="92.6" width="35" height="4.679999999999993" fill="#ff4560" stroke="#ff4560" stroke-width="0.5" /><line x1="472.2" y1="94.4" x2="472.2" y2="107.35999999999999" stroke="#ff4560" stroke-width="1.5" /><rect x="454.7" y="97.27999999999999" width="35" height="5.0400000000000205" fill="#ff4560" stroke="#ff4560" stroke-width="0.5" /><line x1="522.2" y1="85.4" x2="522.2" y2="103.4" stroke="#00c896" stroke-width="1.5" /><rect x="504.70000000000005" y="88.27999999999999" width="35" height="14.04000000000002" fill="#00c896" stroke="#00c896" stroke-width="0.5" /><line x1="572.2" y1="79.28" x2="572.2" y2="91.52000000000001" stroke="#00c896" stroke-width="1.5" /><rect x="554.7" y="80.35999999999999" width="35" height="7.920000000000002" fill="#00c896" stroke="#00c896" stroke-width="0.5" /></svg>