<svg xmlns="http://www.w3.org/2000/svg" width="686.2" height="551.5470129472588" font-family="DejaVu Sans, Liberation Sans, Arial, sans-serif" fill="black"><rect width="100%" height="100%" fill="white" /><line x1="72.19999999999999" y1="494" x2="672.2" y2="494" stroke="black" stroke-width="1" /><line x1="72.19999999999999" y1="44" x2="72.19999999999999" y2="494" stroke="black" stroke-width="1" /><line x1="72.19999999999999" y1="365.42857142857144" x2="672.2" y2="365.42857142857144" stroke="#ccc" stroke-width="1" /><line x1="72.19999999999999" y1="236.8571428571429" x2="672.2" y2="236.8571428571429" stroke="#ccc" stroke-width="1" /><line x1="72.19999999999999" y1="108.28571428571433" x2="672.2" y2="108.28571428571433" stroke="#ccc" stroke-width="1" /><text x="96.19999999999999" y="511" font-size="12" text-anchor="end" transform="rotate(-45,96.19999999999999,511)">Nov 01</text><line x1="96.19999999999999" y1="494" x2="96.19999999999999" y2="499" stroke="black" stroke-width="1" /><text x="120.19999999999999" y="511" font-size="12" text-anchor="end" transform="rotate(-45,120.19999999999999,511)">Nov 02</text><line x1="120.19999999999999" y1="494" x2="120.19999999999999" y2="499" stroke="black" stroke-width="1" /><text x="144.2" y="511" font-size="12" text-anchor="end" transform="rotate(-45,144.2,511)">Nov 03</text><line x1="144.2" y1="494" x2="144.2" y2="499" stroke="black" stroke-width="1" /><text x="168.2" y="511" font-size="12" text-anchor="end" transform="rotate(-45,168.2,511)">Nov 04</text><line x1="168.2" y1="494" x2="168.2" y2="499" stroke="black" stroke-width="1" /><text x="192.2" y="511" font-size="12" text-anchor="end" transform="rotate(-45,192.2,511)">Nov 05</text><line x1="192.2" y1="494" x2="192.2" y2="499" stroke="black" stroke-width="1" /><text x="216.2" y="511" font-size="12" text-anchor="end" transform="rotate(-45,216.2,511)">Nov 06</text><line x1="216.2" y1="494" x2="216.2" y2="499" stroke="black" stroke-width="1" /><text x="240.20000000000002" y="511" font-size="12" text-anchor="end" transform="rotate(-45,240.20000000000002,511)">Nov 07</text><line x1="240.20000000000002" y1="494" x2="240.20000000000002" y2="499" stroke="black" stroke-width="1" /><text x="264.2" y="511" font-size="12" text-anchor="end" transform="rotate(-45,264.2,511)">Nov 08</text><line x1="264.2" y1="494" x2="264.2" y2="499" stroke="black" stroke-width="1" /><text x="288.2" y="511" font-size="12" text-anchor="end" transform="rotate(-45,288.2,511)">Nov 11</text><line x1="288.2" y1="494" x2="288.2" y2="499" stroke="black" stroke-width="1" /><text x="312.2" y="511" font-size="12" text-anchor="end" transform="rotate(-45,312.2,511)">Nov 12</text><line x1="312.2" y1="494" x2="312.2" y2="499" stroke="black" stroke-width="1" /><text x="336.2" y="511" font-size="12" text-anchor="end" transform="rotate(-45,336.2,511)">Nov 13</text><line x1="336.2" y1="494" x2="336.2" y2="499" stroke="black" stroke-width="1" /><text x="360.2" y="511" font-size="12" text-anchor="end" transform="rotate(-45,360.2,511)">Nov 14</text><line x1="360.2" y1="494" x2="360.2" y2="499" stroke="black" stroke-width="1" /><text x="384.2" y="511" font-size="12" text-anchor="end" transform="rotate(-45,384.2,511)">Nov 15</text><line x1="384.2" y1="494" x2="384.2" y2="499" stroke="black" stroke-width="1" /><text x="408.20000000000005" y="511" font-size="12" text-anchor="end" transform="rotate(-45,408.20000000000005,511)">Nov 18</text><line x1="408.20000000000005" y1="494" x2="408.20000000000005" y2="499" stroke="black" stroke-width="1" /><text x="432.2" y="511" font-size="12" text-anchor="end" transform="rotate(-45,432.2,511)">Nov 19</text><line x1="432.2" y1="494" x2="432.2" y2="499" stroke="black" stroke-width="1" /><text x="456.2" y="511" font-size="12" text-anchor="end" transform="rotate(-45,456.2,511)">Nov 20</text><line x1="456.2" y1="494" x2="456.2" y2="499" stroke="black" stroke-width="1" /><text x="480.20000000000005" y="511" font-size="12" text-anchor="end" transform="rotate(-45,480.20000000000005,511)">Nov 21</text><line x1="480.20000000000005" y1="494" x2="480.20000000000005" y2="499" stroke="black" stroke-width="1" /><text x="504.2" y="511" font-size="12" text-anchor="end" transform="rotate(-45,504.2,511)">Nov 22</text><line x1="504.2" y1="494" x2="504.2" y2="499" stroke="black" stroke-width="1" /><text x="528.2" y="511" font-size="12" text-anchor="end" transform="rotate(-45,528.2,511)">Nov 25</text><line x1="528.2" y1="494" x2="528.2" y2="499" stroke="black" stroke-width="1" /><text x="552.2" y="511" font-size="12" text-anchor="end" transform="rotate(-45,552.2,511)">Nov 26</text><line x1="552.2" y1="494" x2="552.2" y2="499" stroke="black" stroke-width="1" /><line x1="67.19999999999999" y1="494" x2="72.19999999999999" y2="494" stroke="black" stroke-width="1" /><text x="64.19999999999999" y="498.2" font-size="12" text-anchor="end">0</text><line x1="67.19999999999999" y1="365.42857142857144" x2="72.19999999999999" y2="365.42857142857144" stroke="black" stroke-width="1" /><text x="64.19999999999999" y="369.62857142857143" font-size="12" text-anchor="end">50</text><line x1="67.19999999999999" y1="236.8571428571429" x2="72.19999999999999" y2="236.8571428571429" stroke="black" stroke-width="1" /><text x="64.19999999999999" y="241.05714285714288" font-size="12" text-anchor="end">100</text><line x1="67.19999999999999" y1="108.28571428571433" x2="72.19999999999999" y2="108.28571428571433" stroke="black" stroke-width="1" /><text x="64.19999999999999" y="112.48571428571434" font-size="12" text-anchor="end">150</text><text x="343.1" y="544.5470129472588" font-size="14" text-anchor="middle">Date</text><text x="14" y="275.7735064736294" font-size="14" text-anchor="middle" transform="rotate(-90,14,275.7735064736294)">Price (USD)</text><text x="343.1" y="22" font-size="18" text-anchor="middle">Daily OHLC with Volume Panel</text><line x1="96.19999999999999" y1="101.10628571428575" x2="96.19999999999999" y2="109.83085714285711" stroke="rgb(68,170,68)" stroke-width="1.5" /><rect x="87.79999999999998" y="102.89085714285713" width="16.799999999999997" height="5.552000000000021" fill="rgb(68,170,68)" stroke="rgb(68,170,68)" stroke-width="0.5" /><line x1="120.19999999999999" y1="97.93371428571426" x2="120.19999999999999" y2="106.46000000000001" stroke="rgb(204,68,68)" stroke-width="1.5" /><rect x="111.79999999999998" y="102.69257142857143" width="16.799999999999997" height="2.5777142857143076" fill="rgb(204,68,68)" stroke="rgb(204,68,68)" stroke-width="0.5" /><line x1="144.2" y1="103.68399999999998" x2="144.2" y2="109.03771428571432" stroke="#888888" stroke-width="1.5" /><rect x="135.79999999999998" y="105.27028571428573" width="16.799999999999997" height="1" fill="#888888" stroke="#888888" stroke-width="0.5" /><line x1="168.2" y1="96.5457142857143" x2="168.2" y2="107.05485714285717" stroke="rgb(68,170,68)" stroke-width="1.5" /><rect x="159.79999999999998" y="97.73542857142857" width="16.799999999999997" height="8.129714285714272" fill="rgb(68,170,68)" stroke="rgb(68,170,68)" stroke-width="0.5" /><line x1="192.2" y1="93.17485714285718" x2="192.2" y2="100.90799999999997" stroke="rgb(68,170,68)" stroke-width="1.5" /><rect x="183.79999999999998" y="93.96799999999998" width="16.799999999999997" height="3.7674285714285958" fill="rgb(68,170,68)" stroke="rgb(68,170,68)" stroke-width="0.5" /><line x1="216.2" y1="91.58857142857144" x2="216.2" y2="100.51142857142858" stroke="rgb(204,68,68)" stroke-width="1.5" /><rect x="207.79999999999998" y="93.96799999999998" width="16.799999999999997" height="5.155428571428615" fill="rgb(204,68,68)" stroke="rgb(204,68,68)" stroke-width="0.5" /><line x1="240.20000000000002" y1="97.33885714285715" x2="240.20000000000002" y2="105.86514285714284" stroke="rgb(204,68,68)" stroke-width="1.5" /><rect x="231.8" y="99.12342857142859" width="16.799999999999997" height="5.353714285714275" fill="rgb(204,68,68)" stroke="rgb(204,68,68)" stroke-width="0.5" /><line x1="264.2" y1="99.91657142857142" x2="264.2" y2="107.05485714285717" stroke="rgb(68,170,68)" stroke-width="1.5" /><rect x="255.79999999999998" y="101.70114285714286" width="16.799999999999997" height="2.7760000000000105" fill="rgb(68,170,68)" stroke="rgb(68,170,68)" stroke-width="0.5" /><line x1="288.2" y1="94.95942857142856" x2="288.2" y2="102.49428571428571" stroke="rgb(68,170,68)" stroke-width="1.5" /><rect x="279.8" y="96.14914285714289" width="16.799999999999997" height="5.551999999999964" fill="rgb(68,170,68)" stroke="rgb(68,170,68)" stroke-width="0.5" /><line x1="312.2" y1="89.60571428571428" x2="312.2" y2="97.33885714285715" stroke="rgb(68,170,68)" stroke-width="1.5" /><rect x="303.8" y="90.59714285714286" width="16.799999999999997" height="5.552000000000035" fill="rgb(68,170,68)" stroke="rgb(68,170,68)" stroke-width="0.5" /><line x1="336.2" y1="84.05371428571426" x2="336.2" y2="91.78685714285713" stroke="rgb(68,170,68)" stroke-width="1.5" /><rect x="327.8" y="86.0365714285714" width="16.799999999999997" height="4.56057142857145" fill="rgb(68,170,68)" stroke="rgb(68,170,68)" stroke-width="0.5" /><line x1="360.2" y1="85.2434285714286" x2="360.2" y2="92.9765714285714" stroke="rgb(204,68,68)" stroke-width="1.5" /><rect x="351.8" y="86.0365714285714" width="16.799999999999997" height="6.345142857142889" fill="rgb(204,68,68)" stroke="rgb(204,68,68)" stroke-width="0.5" /><line x1="384.2" y1="89.40742857142858" x2="384.2" y2="95.95085714285713" stroke="rgb(68,170,68)" stroke-width="1.5" /><rect x="375.8" y="91.19200000000002" width="16.799999999999997" height="1.189714285714274" fill="rgb(68,170,68)" stroke="rgb(68,170,68)" stroke-width="0.5" /><line x1="408.20000000000005" y1="86.82971428571427" x2="408.20000000000005" y2="91.98514285714285" stroke="rgb(68,170,68)" stroke-width="1.5" /><rect x="399.80000000000007" y="86.82971428571427" width="16.799999999999997" height="4.362285714285747" fill="rgb(68,170,68)" stroke="rgb(68,170,68)" stroke-width="0.5" /><line x1="432.2" y1="79.29485714285717" x2="432.2" y2="88.01942857142853" stroke="rgb(68,170,68)" stroke-width="1.5" /><rect x="423.8" y="80.68285714285715" width="16.799999999999997" height="6.1468571428571295" fill="rgb(68,170,68)" stroke="rgb(68,170,68)" stroke-width="0.5" /><line x1="456.2" y1="77.51028571428571" x2="456.2" y2="85.2434285714286" stroke="rgb(204,68,68)" stroke-width="1.5" /><rect x="447.8" y="80.68285714285715" width="16.799999999999997" height="3.370857142857119" fill="rgb(204,68,68)" stroke="rgb(204,68,68)" stroke-width="0.5" /><line x1="480.20000000000005" y1="83.26057142857145" x2="480.20000000000005" y2="89.40742857142858" stroke="#888888" stroke-width="1.5" /><rect x="471.80000000000007" y="84.05371428571426" width="16.799999999999997" height="1" fill="#888888" stroke="#888888" stroke-width="0.5" /><line x1="504.2" y1="76.71714285714286" x2="504.2" y2="85.04514285714284" stroke="rgb(68,170,68)" stroke-width="1.5" /><rect x="495.8" y="77.90685714285713" width="16.799999999999997" height="6.1468571428571295" fill="rgb(68,170,68)" stroke="rgb(68,170,68)" stroke-width="0.5" /><line x1="528.2" y1="73.54457142857143" x2="528.2" y2="80.08799999999998" stroke="rgb(68,170,68)" stroke-width="1.5" /><rect x="519.8000000000001" y="74.7342857142857" width="16.799999999999997" height="3.1725714285714304" fill="rgb(68,170,68)" stroke="rgb(68,170,68)" stroke-width="0.5" /><line x1="552.2" y1="71.36342857142859" x2="552.2" y2="79.09657142857141" stroke="rgb(204,68,68)" stroke-width="1.5" /><rect x="543.8000000000001" y="74.7342857142857" width="16.799999999999997" height="2.181142857142845" fill="rgb(204,68,68)" stroke="rgb(204,68,68)" stroke-width="0.5" /><rect x="87.79999999999998" y="434.26190476190476" width="16.799999999999997" height="57.73809523809524" fill="rgb(68,170,68)" fill-opacity="0.5" /><rect x="111.79999999999998" y="446.73333333333335" width="16.799999999999997" height="45.266666666666666" fill="rgb(204,68,68)" fill-opacity="0.5" /><rect x="135.79999999999998" y="458.74285714285713" width="16.799999999999997" height="33.25714285714286" fill="#888888" fill-opacity="0.5" /><rect x="159.79999999999998" y="419.0190476190476" width="16.799999999999997" height="72.98095238095237" fill="rgb(68,170,68)" fill-opacity="0.5" /><rect x="183.79999999999998" y="426.4095238095238" width="16.799999999999997" height="65.5904761904762" fill="rgb(68,170,68)" fill-opacity="0.5" /><rect x="207.79999999999998" y="441.1904761904762" width="16.799999999999997" height="50.80952380952381" fill="rgb(204,68,68)" fill-opacity="0.5" /><rect x="231.8" y="429.6428571428571" width="16.799999999999997" height="62.35714285714286" fill="rgb(204,68,68)" fill-opacity="0.5" /><rect x="255.79999999999998" y="450.8904761904762" width="16.799999999999997" height="41.10952380952381" fill="rgb(68,170,68)" fill-opacity="0.5" /><rect x="279.8" y="437.4952380952381" width="16.799999999999997" height="54.50476190476191" fill="rgb(68,170,68)" fill-opacity="0.5" /><rect x="303.8" y="417.1714285714286" width="16.799999999999997" height="74.82857142857144" fill="rgb(68,170,68)" fill-opacity="0.5" /><rect x="327.8" y="409.7809523809524" width="16.799999999999997" height="82.21904761904761" fill="rgb(68,170,68)" fill-opacity="0.5" /><rect x="351.8" y="432.4142857142857" width="16.799999999999997" height="59.58571428571429" fill="rgb(204,68,68)" fill-opacity="0.5" /><rect x="375.8" y="443.5" width="16.799999999999997" height="48.5" fill="rgb(68,170,68)" fill-opacity="0.5" /><rect x="399.80000000000007" y="430.1047619047619" width="16.799999999999997" height="61.89523809523809" fill="rgb(68,170,68)" fill-opacity="0.5" /><rect x="423.8" y="395" width="16.799999999999997" height="97" fill="rgb(68,170,68)" fill-opacity="0.5" /><rect x="447.8" y="415.7857142857143" width="16.799999999999997" height="76.21428571428571" fill="rgb(204,68,68)" fill-opacity="0.5" /><rect x="471.80000000000007" y="446.73333333333335" width="16.799999999999997" height="45.266666666666666" fill="#888888" fill-opacity="0.5" /><rect x="495.8" y="426.4095238095238" width="16.799999999999997" height="65.5904761904762" fill="rgb(68,170,68)" fill-opacity="0.5" /><rect x="519.8000000000001" y="404.7" width="16.799999999999997" height="87.3" fill="rgb(68,170,68)" fill-opacity="0.5" /><rect x="543.8000000000001" y="419.9428571428571" width="16.799999999999997" height="72.05714285714286" fill="rgb(204,68,68)" fill-opacity="0.5" /></svg>