<svg xmlns="http://www.w3.org/2000/svg" width="620" height="360" font-family="DejaVu Sans, Liberation Sans, Arial, sans-serif" fill="black"><rect width="100%" height="100%" fill="white" /><defs><clipPath id="kuva-clip-1"><rect x="59" y="44" width="539.4" height="265"/></clipPath></defs><line x1="193.85" y1="44" x2="193.85" y2="309" stroke="#cccccc" stroke-width="1" /><line x1="328.7" y1="44" x2="328.7" y2="309" stroke="#cccccc" stroke-width="1" /><line x1="463.55" y1="44" x2="463.55" y2="309" stroke="#cccccc" stroke-width="1" /><line x1="598.4" y1="44" x2="598.4" y2="309" stroke="#cccccc" stroke-width="1" /><line x1="59" y1="264.83" x2="598.4" y2="264.83" stroke="#cccccc" stroke-width="1" /><line x1="59" y1="209.63" x2="598.4" y2="209.63" stroke="#cccccc" stroke-width="1" /><line x1="59" y1="154.42000000000002" x2="598.4" y2="154.42000000000002" stroke="#cccccc" stroke-width="1" /><line x1="59" y1="99.21000000000001" x2="598.4" y2="99.21000000000001" stroke="#cccccc" stroke-width="1" /><line x1="59" y1="44" x2="598.4" y2="44" stroke="#cccccc" stroke-width="1" /><line x1="59" y1="309" x2="598.4" y2="309" stroke="#000000" stroke-width="1" /><line x1="59" y1="44" x2="59" y2="309" stroke="#000000" stroke-width="1" /><line x1="59" y1="309" x2="59" y2="314" stroke="#000000" stroke-width="1" /><text x="59" y="326" font-size="12" text-anchor="middle">0</text><line x1="193.85" y1="309" x2="193.85" y2="314" stroke="#000000" stroke-width="1" /><text x="193.85" y="326" font-size="12" text-anchor="middle">50</text><line x1="328.7" y1="309" x2="328.7" y2="314" stroke="#000000" stroke-width="1" /><text x="328.7" y="326" font-size="12" text-anchor="middle">100</text><line x1="463.55" y1="309" x2="463.55" y2="314" stroke="#000000" stroke-width="1" /><text x="463.55" y="326" font-size="12" text-anchor="middle">150</text><line x1="598.4" y1="309" x2="598.4" y2="314" stroke="#000000" stroke-width="1" /><text x="598.4" y="326" font-size="12" text-anchor="middle">200</text><line x1="54" y1="264.83" x2="59" y2="264.83" stroke="#000000" stroke-width="1" /><text x="51" y="269.03000000000003" font-size="12" text-anchor="end">0</text><line x1="54" y1="209.63" x2="59" y2="209.63" stroke="#000000" stroke-width="1" /><text x="51" y="213.83" font-size="12" text-anchor="end">2.5</text><line x1="54" y1="154.42000000000002" x2="59" y2="154.42000000000002" stroke="#000000" stroke-width="1" /><text x="51" y="158.62" font-size="12" text-anchor="end">5</text><line x1="54" y1="99.21000000000001" x2="59" y2="99.21000000000001" stroke="#000000" stroke-width="1" /><text x="51" y="103.41" font-size="12" text-anchor="end">7.5</text><line x1="54" y1="44" x2="59" y2="44" stroke="#000000" stroke-width="1" /><text x="51" y="48.2" font-size="12" text-anchor="end">10</text><text x="328.7" y="353" font-size="14" text-anchor="middle">Amino acid position</text><text x="15" y="180" font-size="14" text-anchor="middle" transform="rotate(-90,15,180)">Mutation count</text><text x="328.7" y="22" font-size="18" text-anchor="middle">TP53 Mutation Landscape</text><g clip-path="url(#kuva-clip-1)"><rect x="61.7" y="264.83" width="178" height="33.13" fill="#4e79a7" fill-opacity="0.35000000000000003" /><text x="150.70000000000002" y="285.6" font-size="9" text-anchor="middle">N-terminal</text><rect x="242.4" y="264.83" width="167.21" height="33.13" fill="#f28e2b" fill-opacity="0.35000000000000003" /><text x="326" y="285.6" font-size="9" text-anchor="middle">DNA-binding</text><rect x="412.31" y="264.83" width="145.64000000000001" height="33.13" fill="#59a14f" fill-opacity="0.35000000000000003" /><text x="485.13" y="285.6" font-size="9" text-anchor="middle">C-terminal</text><line x1="61.7" y1="264.83" x2="557.94" y2="264.83" stroke="#888888" stroke-width="1" /><line x1="80.58" y1="264.83" x2="80.58" y2="242.75" stroke="#4682b4" stroke-width="1.5" /><circle cx="80.58" cy="242.75" r="4.5" fill="#4682b4" stroke="#4682b4" stroke-width="1" /><line x1="91.36" y1="264.83" x2="91.36" y2="198.58" stroke="#4682b4" stroke-width="1.5" /><circle cx="91.36" cy="198.58" r="4.5" fill="#4682b4" stroke="#4682b4" stroke-width="1" /><line x1="110.24000000000001" y1="264.83" x2="110.24000000000001" y2="242.75" stroke="#4682b4" stroke-width="1.5" /><circle cx="110.24000000000001" cy="242.75" r="4.5" fill="#4682b4" stroke="#4682b4" stroke-width="1" /><line x1="126.43" y1="264.83" x2="126.43" y2="220.67000000000002" stroke="#4682b4" stroke-width="1.5" /><circle cx="126.43" cy="220.67000000000002" r="4.5" fill="#4682b4" stroke="#4682b4" stroke-width="1" /><line x1="169.58" y1="264.83" x2="169.58" y2="110.25" stroke="#4682b4" stroke-width="1.5" /><circle cx="169.58" cy="110.25" r="4.5" fill="#4682b4" stroke="#4682b4" stroke-width="1" /><line x1="201.94" y1="264.83" x2="201.94" y2="220.67000000000002" stroke="#4682b4" stroke-width="1.5" /><circle cx="201.94" cy="220.67000000000002" r="4.5" fill="#4682b4" stroke="#4682b4" stroke-width="1" /><line x1="207.34" y1="264.83" x2="207.34" y2="242.75" stroke="#4682b4" stroke-width="1.5" /><circle cx="207.34" cy="242.75" r="4.5" fill="#4682b4" stroke="#4682b4" stroke-width="1" /><line x1="226.21" y1="264.83" x2="226.21" y2="176.5" stroke="#4682b4" stroke-width="1.5" /><circle cx="226.21" cy="176.5" r="4.5" fill="#4682b4" stroke="#4682b4" stroke-width="1" /><line x1="272.06" y1="264.83" x2="272.06" y2="242.75" stroke="#4682b4" stroke-width="1.5" /><circle cx="272.06" cy="242.75" r="4.5" fill="#4682b4" stroke="#4682b4" stroke-width="1" /><line x1="296.34000000000003" y1="264.83" x2="296.34000000000003" y2="198.58" stroke="#4682b4" stroke-width="1.5" /><circle cx="296.34000000000003" cy="198.58" r="4.5" fill="#4682b4" stroke="#4682b4" stroke-width="1" /><line x1="320.61" y1="264.83" x2="320.61" y2="154.42000000000002" stroke="#4682b4" stroke-width="1.5" /><circle cx="320.61" cy="154.42000000000002" r="4.5" fill="#4682b4" stroke="#4682b4" stroke-width="1" /><line x1="355.67" y1="264.83" x2="355.67" y2="220.67000000000002" stroke="#4682b4" stroke-width="1.5" /><circle cx="355.67" cy="220.67000000000002" r="4.5" fill="#4682b4" stroke="#4682b4" stroke-width="1" /><line x1="393.43" y1="264.83" x2="393.43" y2="88.17" stroke="#4682b4" stroke-width="1.5" /><circle cx="393.43" cy="88.17" r="4.5" fill="#4682b4" stroke="#4682b4" stroke-width="1" /><line x1="412.31" y1="264.83" x2="412.31" y2="242.75" stroke="#4682b4" stroke-width="1.5" /><circle cx="412.31" cy="242.75" r="4.5" fill="#4682b4" stroke="#4682b4" stroke-width="1" /><line x1="431.19" y1="264.83" x2="431.19" y2="198.58" stroke="#4682b4" stroke-width="1.5" /><circle cx="431.19" cy="198.58" r="4.5" fill="#4682b4" stroke="#4682b4" stroke-width="1" /><line x1="463.55" y1="264.83" x2="463.55" y2="242.75" stroke="#4682b4" stroke-width="1.5" /><circle cx="463.55" cy="242.75" r="4.5" fill="#4682b4" stroke="#4682b4" stroke-width="1" /><line x1="485.13" y1="264.83" x2="485.13" y2="220.67000000000002" stroke="#4682b4" stroke-width="1.5" /><circle cx="485.13" cy="220.67000000000002" r="4.5" fill="#4682b4" stroke="#4682b4" stroke-width="1" /><line x1="498.61" y1="264.83" x2="498.61" y2="132.33" stroke="#4682b4" stroke-width="1.5" /><circle cx="498.61" cy="132.33" r="4.5" fill="#4682b4" stroke="#4682b4" stroke-width="1" /><line x1="522.88" y1="264.83" x2="522.88" y2="242.75" stroke="#4682b4" stroke-width="1.5" /><circle cx="522.88" cy="242.75" r="4.5" fill="#4682b4" stroke="#4682b4" stroke-width="1" /><line x1="544.46" y1="264.83" x2="544.46" y2="220.67000000000002" stroke="#4682b4" stroke-width="1.5" /><circle cx="544.46" cy="220.67000000000002" r="4.5" fill="#4682b4" stroke="#4682b4" stroke-width="1" /><line x1="169.58" y1="264.83" x2="169.58" y2="110.25" stroke="#ff6347" stroke-width="1.5" /><circle cx="169.58" cy="110.25" r="4.5" fill="#ff6347" stroke="#ff6347" stroke-width="1" /><text x="169.58" y="101.75" font-size="9" text-anchor="middle">R175H</text><line x1="393.43" y1="264.83" x2="393.43" y2="88.17" stroke="#ff6347" stroke-width="1.5" /><circle cx="393.43" cy="88.17" r="4.5" fill="#ff6347" stroke="#ff6347" stroke-width="1" /><text x="393.43" y="79.67" font-size="9" text-anchor="middle">R248W</text><line x1="498.61" y1="264.83" x2="498.61" y2="132.33" stroke="#ff6347" stroke-width="1.5" /><circle cx="498.61" cy="132.33" r="4.5" fill="#ff6347" stroke="#ff6347" stroke-width="1" /><text x="498.61" y="123.83" font-size="9" text-anchor="middle">R273H</text></g></svg>