<svg xmlns="http://www.w3.org/2000/svg" width="784.2" height="545" font-family="DejaVu Sans, Liberation Sans, Arial, sans-serif" fill="black"><rect width="100%" height="100%" fill="white" /><line x1="72.19999999999999" y1="494" x2="672.2" y2="494" stroke="black" stroke-width="1" /><line x1="72.19999999999999" y1="44" x2="72.19999999999999" y2="494" stroke="black" stroke-width="1" /><line x1="72.19999999999999" y1="419" x2="672.2" y2="419" stroke="#ccc" stroke-width="1" /><line x1="72.19999999999999" y1="344" x2="672.2" y2="344" stroke="#ccc" stroke-width="1" /><line x1="72.19999999999999" y1="269" x2="672.2" y2="269" stroke="#ccc" stroke-width="1" /><line x1="72.19999999999999" y1="194" x2="672.2" y2="194" stroke="#ccc" stroke-width="1" /><line x1="72.19999999999999" y1="119" x2="672.2" y2="119" stroke="#ccc" stroke-width="1" /><line x1="72.19999999999999" y1="44" x2="672.2" y2="44" stroke="#ccc" stroke-width="1" /><text x="192.2" y="511" font-size="12" text-anchor="middle">Q1</text><line x1="192.2" y1="494" x2="192.2" y2="499" stroke="black" stroke-width="1" /><text x="312.2" y="511" font-size="12" text-anchor="middle">Q2</text><line x1="312.2" y1="494" x2="312.2" y2="499" stroke="black" stroke-width="1" /><text x="432.2" y="511" font-size="12" text-anchor="middle">Q3</text><line x1="432.2" y1="494" x2="432.2" y2="499" stroke="black" stroke-width="1" /><text x="552.2" y="511" font-size="12" text-anchor="middle">Q4</text><line x1="552.2" y1="494" x2="552.2" y2="499" stroke="black" stroke-width="1" /><line x1="67.19999999999999" y1="494" x2="72.19999999999999" y2="494" stroke="black" stroke-width="1" /><text x="64.19999999999999" y="498.2" font-size="12" text-anchor="end">0</text><line x1="67.19999999999999" y1="419" x2="72.19999999999999" y2="419" stroke="black" stroke-width="1" /><text x="64.19999999999999" y="423.2" font-size="12" text-anchor="end">5</text><line x1="67.19999999999999" y1="344" x2="72.19999999999999" y2="344" stroke="black" stroke-width="1" /><text x="64.19999999999999" y="348.2" font-size="12" text-anchor="end">10</text><line x1="67.19999999999999" y1="269" x2="72.19999999999999" y2="269" stroke="black" stroke-width="1" /><text x="64.19999999999999" y="273.2" font-size="12" text-anchor="end">15</text><line x1="67.19999999999999" y1="194" x2="72.19999999999999" y2="194" stroke="black" stroke-width="1" /><text x="64.19999999999999" y="198.2" font-size="12" text-anchor="end">20</text><line x1="67.19999999999999" y1="119" x2="72.19999999999999" y2="119" stroke="black" stroke-width="1" /><text x="64.19999999999999" y="123.2" font-size="12" text-anchor="end">25</text><line x1="67.19999999999999" y1="44" x2="72.19999999999999" y2="44" stroke="black" stroke-width="1" /><text x="64.19999999999999" y="48.2" font-size="12" text-anchor="end">30</text><text x="14" y="272.5" font-size="14" text-anchor="middle" transform="rotate(-90,14,272.5)">Sales (units)</text><text x="392.1" y="22" font-size="18" text-anchor="middle">Grouped Bar Chart</text><rect x="144.2" y="224" width="32" height="270" fill="steelblue" /><rect x="176.2" y="314" width="32" height="180" fill="crimson" /><rect x="208.2" y="359" width="31.99999999999997" height="135" fill="seagreen" /><rect x="264.2" y="164" width="32" height="330" fill="steelblue" /><rect x="296.2" y="239" width="31.999999999999943" height="255" fill="crimson" /><rect x="328.19999999999993" y="284" width="32.00000000000006" height="210" fill="seagreen" /><rect x="384.2" y="209" width="32" height="285" fill="steelblue" /><rect x="416.2" y="179" width="32" height="315" fill="crimson" /><rect x="448.2" y="329" width="31.999999999999943" height="165" fill="seagreen" /><rect x="504.2" y="119" width="32.00000000000006" height="375" fill="steelblue" /><rect x="536.2" y="269" width="32" height="225" fill="crimson" /><rect x="568.1999999999999" y="224" width="32.000000000000114" height="270" fill="seagreen" /><rect x="677.2" y="34" width="98" height="74" fill="white" /><rect x="677.2" y="34" width="98" height="74" fill="none" stroke="black" stroke-width="1" /><text x="707.2" y="49" font-size="12" text-anchor="start">Product A</text><rect x="687.2" y="43" width="12" height="12" fill="steelblue" /><text x="707.2" y="67" font-size="12" text-anchor="start">Product B</text><rect x="687.2" y="61" width="12" height="12" fill="crimson" /><text x="707.2" y="85" font-size="12" text-anchor="start">Product C</text><rect x="687.2" y="79" width="12" height="12" fill="seagreen" /></svg>