<svg xmlns="http://www.w3.org/2000/svg" width="686.2" height="545" font-family="DejaVu Sans, Liberation Sans, Arial, sans-serif" fill="black"><rect width="100%" height="100%" fill="white" /><line x1="72.19999999999999" y1="494" x2="672.2" y2="494" stroke="black" stroke-width="1" /><line x1="72.19999999999999" y1="44" x2="72.19999999999999" y2="494" stroke="black" stroke-width="1" /><line x1="192.2" y1="44" x2="192.2" y2="494" stroke="#ccc" stroke-width="1" /><line x1="312.2" y1="44" x2="312.2" y2="494" stroke="#ccc" stroke-width="1" /><line x1="432.2" y1="44" x2="432.2" y2="494" stroke="#ccc" stroke-width="1" /><line x1="552.2" y1="44" x2="552.2" y2="494" stroke="#ccc" stroke-width="1" /><line x1="672.2" y1="44" x2="672.2" y2="494" stroke="#ccc" stroke-width="1" /><line x1="72.19999999999999" y1="404" x2="672.2" y2="404" stroke="#ccc" stroke-width="1" /><line x1="72.19999999999999" y1="314" x2="672.2" y2="314" stroke="#ccc" stroke-width="1" /><line x1="72.19999999999999" y1="224" x2="672.2" y2="224" stroke="#ccc" stroke-width="1" /><line x1="72.19999999999999" y1="134" x2="672.2" y2="134" stroke="#ccc" stroke-width="1" /><line x1="72.19999999999999" y1="44" x2="672.2" y2="44" stroke="#ccc" stroke-width="1" /><line x1="72.19999999999999" y1="494" x2="72.19999999999999" y2="499" stroke="black" stroke-width="1" /><text x="72.19999999999999" y="511" font-size="12" text-anchor="middle">0</text><line x1="192.2" y1="494" x2="192.2" y2="499" stroke="black" stroke-width="1" /><text x="192.2" y="511" font-size="12" text-anchor="middle">2</text><line x1="312.2" y1="494" x2="312.2" y2="499" stroke="black" stroke-width="1" /><text x="312.2" y="511" font-size="12" text-anchor="middle">4</text><line x1="432.2" y1="494" x2="432.2" y2="499" stroke="black" stroke-width="1" /><text x="432.2" y="511" font-size="12" text-anchor="middle">6</text><line x1="552.2" y1="494" x2="552.2" y2="499" stroke="black" stroke-width="1" /><text x="552.2" y="511" font-size="12" text-anchor="middle">8</text><line x1="672.2" y1="494" x2="672.2" y2="499" stroke="black" stroke-width="1" /><text x="672.2" y="511" font-size="12" text-anchor="middle">10</text><line x1="67.19999999999999" y1="494" x2="72.19999999999999" y2="494" stroke="black" stroke-width="1" /><text x="64.19999999999999" y="498.2" font-size="12" text-anchor="end">0</text><line x1="67.19999999999999" y1="404" x2="72.19999999999999" y2="404" stroke="black" stroke-width="1" /><text x="64.19999999999999" y="408.2" font-size="12" text-anchor="end">2</text><line x1="67.19999999999999" y1="314" x2="72.19999999999999" y2="314" stroke="black" stroke-width="1" /><text x="64.19999999999999" y="318.2" font-size="12" text-anchor="end">4</text><line x1="67.19999999999999" y1="224" x2="72.19999999999999" y2="224" stroke="black" stroke-width="1" /><text x="64.19999999999999" y="228.2" font-size="12" text-anchor="end">6</text><line x1="67.19999999999999" y1="134" x2="72.19999999999999" y2="134" stroke="black" stroke-width="1" /><text x="64.19999999999999" y="138.2" font-size="12" text-anchor="end">8</text><line x1="67.19999999999999" y1="44" x2="72.19999999999999" y2="44" stroke="black" stroke-width="1" /><text x="64.19999999999999" y="48.2" font-size="12" text-anchor="end">10</text><text x="343.1" y="538" font-size="14" text-anchor="middle">X</text><text x="14" y="272.5" font-size="14" text-anchor="middle" transform="rotate(-90,14,272.5)">Y</text><text x="343.1" y="22" font-size="18" text-anchor="middle">Scatter Plot</text><circle cx="102.19999999999999" cy="440" r="5" fill="steelblue" /><circle cx="156.2" cy="354.5" r="5" fill="steelblue" /><circle cx="198.2" cy="386" r="5" fill="steelblue" /><circle cx="270.19999999999993" cy="269" r="5" fill="steelblue" /><circle cx="312.2" cy="300.5" r="5" fill="steelblue" /><circle cx="384.2" cy="188" r="5" fill="steelblue" /><circle cx="438.2" cy="224" r="5" fill="steelblue" /><circle cx="492.2" cy="111.5" r="5" fill="steelblue" /><circle cx="576.2" cy="138.5" r="5" fill="steelblue" /><circle cx="618.2" cy="52.99999999999994" r="5" fill="steelblue" /></svg>