<svg xmlns="http://www.w3.org/2000/svg" width="686.2" height="545" font-family="DejaVu Sans, Liberation Sans, Arial, sans-serif" fill="black"><rect width="100%" height="100%" fill="white" /><line x1="72.19999999999999" y1="494" x2="672.2" y2="494" stroke="black" stroke-width="1" /><line x1="72.19999999999999" y1="44" x2="72.19999999999999" y2="494" stroke="black" stroke-width="1" /><line x1="197.2" y1="44" x2="197.2" y2="494" stroke="#ccc" stroke-width="1" /><line x1="322.2" y1="44" x2="322.2" y2="494" stroke="#ccc" stroke-width="1" /><line x1="447.2" y1="44" x2="447.2" y2="494" stroke="#ccc" stroke-width="1" /><line x1="572.2" y1="44" x2="572.2" y2="494" stroke="#ccc" stroke-width="1" /><line x1="72.19999999999999" y1="381.5" x2="672.2" y2="381.5" stroke="#ccc" stroke-width="1" /><line x1="72.19999999999999" y1="269" x2="672.2" y2="269" stroke="#ccc" stroke-width="1" /><line x1="72.19999999999999" y1="156.5" x2="672.2" y2="156.5" stroke="#ccc" stroke-width="1" /><line x1="72.19999999999999" y1="44" x2="672.2" y2="44" stroke="#ccc" stroke-width="1" /><line x1="72.19999999999999" y1="494" x2="72.19999999999999" y2="499" stroke="black" stroke-width="1" /><text x="72.19999999999999" y="511" font-size="12" text-anchor="middle">0</text><line x1="197.2" y1="494" x2="197.2" y2="499" stroke="black" stroke-width="1" /><text x="197.2" y="511" font-size="12" text-anchor="middle">2.5</text><line x1="322.2" y1="494" x2="322.2" y2="499" stroke="black" stroke-width="1" /><text x="322.2" y="511" font-size="12" text-anchor="middle">5</text><line x1="447.2" y1="494" x2="447.2" y2="499" stroke="black" stroke-width="1" /><text x="447.2" y="511" font-size="12" text-anchor="middle">7.5</text><line x1="572.2" y1="494" x2="572.2" y2="499" stroke="black" stroke-width="1" /><text x="572.2" y="511" font-size="12" text-anchor="middle">10</text><line x1="67.19999999999999" y1="494" x2="72.19999999999999" y2="494" stroke="black" stroke-width="1" /><text x="64.19999999999999" y="498.2" font-size="12" text-anchor="end">0</text><line x1="67.19999999999999" y1="381.5" x2="72.19999999999999" y2="381.5" stroke="black" stroke-width="1" /><text x="64.19999999999999" y="385.7" font-size="12" text-anchor="end">5</text><line x1="67.19999999999999" y1="269" x2="72.19999999999999" y2="269" stroke="black" stroke-width="1" /><text x="64.19999999999999" y="273.2" font-size="12" text-anchor="end">10</text><line x1="67.19999999999999" y1="156.5" x2="72.19999999999999" y2="156.5" stroke="black" stroke-width="1" /><text x="64.19999999999999" y="160.7" font-size="12" text-anchor="end">15</text><line x1="67.19999999999999" y1="44" x2="72.19999999999999" y2="44" stroke="black" stroke-width="1" /><text x="64.19999999999999" y="48.2" font-size="12" text-anchor="end">20</text><text x="343.1" y="538" font-size="14" text-anchor="middle">X</text><text x="14" y="272.5" font-size="14" text-anchor="middle" transform="rotate(-90,14,272.5)">Y</text><text x="343.1" y="22" font-size="18" text-anchor="middle">Confidence Band</text><path d="M 122.19999999999999 415.25 L 172.2 374.75 L 222.2 334.25 L 272.2 293.75 L 322.2 253.25000000000003 L 372.2 212.75 L 422.2 172.25 L 472.2 131.75 L 522.2 91.25000000000006 L 572.2 50.75 L 572.2 104.75 L 522.2 145.25 L 472.2 185.75 L 422.2 226.25 L 372.2 266.74999999999994 L 322.2 307.25 L 272.2 347.75 L 222.2 388.25 L 172.2 428.75 L 122.19999999999999 469.25 Z" stroke="none" stroke-width="0" fill="steelblue" fill-opacity="0.2" /><circle cx="122.19999999999999" cy="442.25" r="5" fill="steelblue" /><circle cx="172.2" cy="401.75" r="5" fill="steelblue" /><circle cx="222.2" cy="361.25" r="5" fill="steelblue" /><circle cx="272.2" cy="320.75" r="5" fill="steelblue" /><circle cx="322.2" cy="280.25" r="5" fill="steelblue" /><circle cx="372.2" cy="239.74999999999997" r="5" fill="steelblue" /><circle cx="422.2" cy="199.25" r="5" fill="steelblue" /><circle cx="472.2" cy="158.75" r="5" fill="steelblue" /><circle cx="522.2" cy="118.25" r="5" fill="steelblue" /><circle cx="572.2" cy="77.75" r="5" fill="steelblue" /></svg>