<svg xmlns="http://www.w3.org/2000/svg" width="777.2" height="545" font-family="DejaVu Sans, Liberation Sans, Arial, sans-serif" fill="black"><rect width="100%" height="100%" fill="white" /><line x1="72.19999999999999" y1="494" x2="672.2" y2="494" stroke="black" stroke-width="1" /><line x1="72.19999999999999" y1="44" x2="72.19999999999999" y2="494" stroke="black" stroke-width="1" /><line x1="157.9142857142857" y1="44" x2="157.9142857142857" y2="494" stroke="#ccc" stroke-width="1" /><line x1="243.6285714285714" y1="44" x2="243.6285714285714" y2="494" stroke="#ccc" stroke-width="1" /><line x1="329.3428571428571" y1="44" x2="329.3428571428571" y2="494" stroke="#ccc" stroke-width="1" /><line x1="415.0571428571428" y1="44" x2="415.0571428571428" y2="494" stroke="#ccc" stroke-width="1" /><line x1="500.77142857142854" y1="44" x2="500.77142857142854" y2="494" stroke="#ccc" stroke-width="1" /><line x1="586.4857142857143" y1="44" x2="586.4857142857143" y2="494" stroke="#ccc" stroke-width="1" /><line x1="672.2" y1="44" x2="672.2" y2="494" stroke="#ccc" stroke-width="1" /><line x1="72.19999999999999" y1="429.7142857142857" x2="672.2" y2="429.7142857142857" stroke="#ccc" stroke-width="1" /><line x1="72.19999999999999" y1="365.42857142857144" x2="672.2" y2="365.42857142857144" stroke="#ccc" stroke-width="1" /><line x1="72.19999999999999" y1="301.14285714285717" x2="672.2" y2="301.14285714285717" stroke="#ccc" stroke-width="1" /><line x1="72.19999999999999" y1="236.8571428571429" x2="672.2" y2="236.8571428571429" stroke="#ccc" stroke-width="1" /><line x1="72.19999999999999" y1="172.57142857142856" x2="672.2" y2="172.57142857142856" stroke="#ccc" stroke-width="1" /><line x1="72.19999999999999" y1="108.28571428571433" x2="672.2" y2="108.28571428571433" stroke="#ccc" stroke-width="1" /><line x1="72.19999999999999" y1="44" x2="672.2" y2="44" stroke="#ccc" stroke-width="1" /><line x1="72.19999999999999" y1="494" x2="72.19999999999999" y2="499" stroke="black" stroke-width="1" /><text x="72.19999999999999" y="511" font-size="12" text-anchor="middle">0</text><line x1="157.9142857142857" y1="494" x2="157.9142857142857" y2="499" stroke="black" stroke-width="1" /><text x="157.9142857142857" y="511" font-size="12" text-anchor="middle">0.5</text><line x1="243.6285714285714" y1="494" x2="243.6285714285714" y2="499" stroke="black" stroke-width="1" /><text x="243.6285714285714" y="511" font-size="12" text-anchor="middle">1</text><line x1="329.3428571428571" y1="494" x2="329.3428571428571" y2="499" stroke="black" stroke-width="1" /><text x="329.3428571428571" y="511" font-size="12" text-anchor="middle">1.5</text><line x1="415.0571428571428" y1="494" x2="415.0571428571428" y2="499" stroke="black" stroke-width="1" /><text x="415.0571428571428" y="511" font-size="12" text-anchor="middle">2</text><line x1="500.77142857142854" y1="494" x2="500.77142857142854" y2="499" stroke="black" stroke-width="1" /><text x="500.77142857142854" y="511" font-size="12" text-anchor="middle">2.5</text><line x1="586.4857142857143" y1="494" x2="586.4857142857143" y2="499" stroke="black" stroke-width="1" /><text x="586.4857142857143" y="511" font-size="12" text-anchor="middle">3</text><line x1="672.2" y1="494" x2="672.2" y2="499" stroke="black" stroke-width="1" /><text x="672.2" y="511" font-size="12" text-anchor="middle">3.5</text><line x1="67.19999999999999" y1="494" x2="72.19999999999999" y2="494" stroke="black" stroke-width="1" /><text x="64.19999999999999" y="498.2" font-size="12" text-anchor="end">0</text><line x1="67.19999999999999" y1="429.7142857142857" x2="72.19999999999999" y2="429.7142857142857" stroke="black" stroke-width="1" /><text x="64.19999999999999" y="433.9142857142857" font-size="12" text-anchor="end">1</text><line x1="67.19999999999999" y1="365.42857142857144" x2="72.19999999999999" y2="365.42857142857144" stroke="black" stroke-width="1" /><text x="64.19999999999999" y="369.62857142857143" font-size="12" text-anchor="end">2</text><line x1="67.19999999999999" y1="301.14285714285717" x2="72.19999999999999" y2="301.14285714285717" stroke="black" stroke-width="1" /><text x="64.19999999999999" y="305.34285714285716" font-size="12" text-anchor="end">3</text><line x1="67.19999999999999" y1="236.8571428571429" x2="72.19999999999999" y2="236.8571428571429" stroke="black" stroke-width="1" /><text x="64.19999999999999" y="241.05714285714288" font-size="12" text-anchor="end">4</text><line x1="67.19999999999999" y1="172.57142857142856" x2="72.19999999999999" y2="172.57142857142856" stroke="black" stroke-width="1" /><text x="64.19999999999999" y="176.77142857142854" font-size="12" text-anchor="end">5</text><line x1="67.19999999999999" y1="108.28571428571433" x2="72.19999999999999" y2="108.28571428571433" stroke="black" stroke-width="1" /><text x="64.19999999999999" y="112.48571428571434" font-size="12" text-anchor="end">6</text><line x1="67.19999999999999" y1="44" x2="72.19999999999999" y2="44" stroke="black" stroke-width="1" /><text x="64.19999999999999" y="48.2" font-size="12" text-anchor="end">7</text><text x="388.6" y="538" font-size="14" text-anchor="middle">X</text><text x="14" y="272.5" font-size="14" text-anchor="middle" transform="rotate(-90,14,272.5)"></text><text x="388.6" y="22" font-size="18" text-anchor="middle">Marker Shapes</text><circle cx="243.6285714285714" cy="429.7142857142857" r="7" fill="steelblue" /><circle cx="415.0571428571428" cy="429.7142857142857" r="7" fill="steelblue" /><circle cx="586.4857142857143" cy="429.7142857142857" r="7" fill="steelblue" /><rect x="236.6285714285714" y="358.42857142857144" width="14" height="14" fill="crimson" /><rect x="408.0571428571428" y="358.42857142857144" width="14" height="14" fill="crimson" /><rect x="579.4857142857143" y="358.42857142857144" width="14" height="14" fill="crimson" /><path d="M243.6285714285714,294.0028571428572 L236.6285714285714,305.90285714285716 L250.6285714285714,305.90285714285716 Z" stroke="seagreen" stroke-width="0.5" fill="seagreen" /><path d="M415.0571428571428,294.0028571428572 L408.0571428571428,305.90285714285716 L422.0571428571428,305.90285714285716 Z" stroke="seagreen" stroke-width="0.5" fill="seagreen" /><path d="M586.4857142857143,294.0028571428572 L579.4857142857143,305.90285714285716 L593.4857142857143,305.90285714285716 Z" stroke="seagreen" stroke-width="0.5" fill="seagreen" /><path d="M243.6285714285714,227.7571428571429 L252.7285714285714,236.8571428571429 L243.6285714285714,245.95714285714288 L234.5285714285714,236.8571428571429 Z" stroke="darkorange" stroke-width="0.5" fill="darkorange" /><path d="M415.0571428571428,227.7571428571429 L424.15714285714284,236.8571428571429 L415.0571428571428,245.95714285714288 L405.9571428571428,236.8571428571429 Z" stroke="darkorange" stroke-width="0.5" fill="darkorange" /><path d="M586.4857142857143,227.7571428571429 L595.5857142857143,236.8571428571429 L586.4857142857143,245.95714285714288 L577.3857142857142,236.8571428571429 Z" stroke="darkorange" stroke-width="0.5" fill="darkorange" /><line x1="237.3285714285714" y1="166.27142857142854" x2="249.92857142857142" y2="178.87142857142857" stroke="purple" stroke-width="1.5" /><line x1="237.3285714285714" y1="178.87142857142857" x2="249.92857142857142" y2="166.27142857142854" stroke="purple" stroke-width="1.5" /><line x1="408.7571428571428" y1="166.27142857142854" x2="421.35714285714283" y2="178.87142857142857" stroke="purple" stroke-width="1.5" /><line x1="408.7571428571428" y1="178.87142857142857" x2="421.35714285714283" y2="166.27142857142854" stroke="purple" stroke-width="1.5" /><line x1="580.1857142857143" y1="166.27142857142854" x2="592.7857142857142" y2="178.87142857142857" stroke="purple" stroke-width="1.5" /><line x1="580.1857142857143" y1="178.87142857142857" x2="592.7857142857142" y2="166.27142857142854" stroke="purple" stroke-width="1.5" /><line x1="237.3285714285714" y1="108.28571428571433" x2="249.92857142857142" y2="108.28571428571433" stroke="saddlebrown" stroke-width="1.5" /><line x1="243.6285714285714" y1="101.98571428571434" x2="243.6285714285714" y2="114.58571428571433" stroke="saddlebrown" stroke-width="1.5" /><line x1="408.7571428571428" y1="108.28571428571433" x2="421.35714285714283" y2="108.28571428571433" stroke="saddlebrown" stroke-width="1.5" /><line x1="415.0571428571428" y1="101.98571428571434" x2="415.0571428571428" y2="114.58571428571433" stroke="saddlebrown" stroke-width="1.5" /><line x1="580.1857142857143" y1="108.28571428571433" x2="592.7857142857142" y2="108.28571428571433" stroke="saddlebrown" stroke-width="1.5" /><line x1="586.4857142857143" y1="101.98571428571434" x2="586.4857142857143" y2="114.58571428571433" stroke="saddlebrown" stroke-width="1.5" /><rect x="677.2" y="34" width="91" height="128" fill="white" /><rect x="677.2" y="34" width="91" height="128" fill="none" stroke="black" stroke-width="1" /><text x="707.2" y="49" font-size="12" text-anchor="start">Circle</text><circle cx="693.2" cy="45" r="5" fill="steelblue" /><text x="707.2" y="67" font-size="12" text-anchor="start">Square</text><rect x="688.2" y="58" width="10" height="10" fill="crimson" /><text x="707.2" y="85" font-size="12" text-anchor="start">Triangle</text><path d="M693.2,75.9 L688.2,84.4 L698.2,84.4 Z" stroke="seagreen" stroke-width="0.5" fill="seagreen" /><text x="707.2" y="103" font-size="12" text-anchor="start">Diamond</text><path d="M693.2,92.5 L699.7,99 L693.2,105.5 L686.7,99 Z" stroke="darkorange" stroke-width="0.5" fill="darkorange" /><text x="707.2" y="121" font-size="12" text-anchor="start">Cross</text><line x1="688.7" y1="112.5" x2="697.7" y2="121.5" stroke="purple" stroke-width="1.5" /><line x1="688.7" y1="121.5" x2="697.7" y2="112.5" stroke="purple" stroke-width="1.5" /><text x="707.2" y="139" font-size="12" text-anchor="start">Plus</text><line x1="688.7" y1="135" x2="697.7" y2="135" stroke="saddlebrown" stroke-width="1.5" /><line x1="693.2" y1="130.5" x2="693.2" y2="139.5" stroke="saddlebrown" stroke-width="1.5" /></svg>