<svg xmlns="http://www.w3.org/2000/svg" width="777.2" height="545" font-family="DejaVu Sans, Liberation Sans, Arial, sans-serif" fill="black"><rect width="100%" height="100%" fill="white" /><line x1="72.19999999999999" y1="494" x2="672.2" y2="494" stroke="black" stroke-width="1" /><line x1="72.19999999999999" y1="44" x2="72.19999999999999" y2="494" stroke="black" stroke-width="1" /><line x1="172.2" y1="44" x2="172.2" y2="494" stroke="#ccc" stroke-width="1" /><line x1="272.2" y1="44" x2="272.2" y2="494" stroke="#ccc" stroke-width="1" /><line x1="372.2" y1="44" x2="372.2" y2="494" stroke="#ccc" stroke-width="1" /><line x1="472.2" y1="44" x2="472.2" y2="494" stroke="#ccc" stroke-width="1" /><line x1="572.2" y1="44" x2="572.2" y2="494" stroke="#ccc" stroke-width="1" /><line x1="672.2" y1="44" x2="672.2" y2="494" stroke="#ccc" stroke-width="1" /><line x1="72.19999999999999" y1="381.5" x2="672.2" y2="381.5" stroke="#ccc" stroke-width="1" /><line x1="72.19999999999999" y1="269" x2="672.2" y2="269" stroke="#ccc" stroke-width="1" /><line x1="72.19999999999999" y1="156.5" x2="672.2" y2="156.5" stroke="#ccc" stroke-width="1" /><line x1="72.19999999999999" y1="44" x2="672.2" y2="44" stroke="#ccc" stroke-width="1" /><line x1="72.19999999999999" y1="494" x2="72.19999999999999" y2="499" stroke="black" stroke-width="1" /><text x="72.19999999999999" y="511" font-size="12" text-anchor="middle">0</text><line x1="172.2" y1="494" x2="172.2" y2="499" stroke="black" stroke-width="1" /><text x="172.2" y="511" font-size="12" text-anchor="middle">1</text><line x1="272.2" y1="494" x2="272.2" y2="499" stroke="black" stroke-width="1" /><text x="272.2" y="511" font-size="12" text-anchor="middle">2</text><line x1="372.2" y1="494" x2="372.2" y2="499" stroke="black" stroke-width="1" /><text x="372.2" y="511" font-size="12" text-anchor="middle">3</text><line x1="472.2" y1="494" x2="472.2" y2="499" stroke="black" stroke-width="1" /><text x="472.2" y="511" font-size="12" text-anchor="middle">4</text><line x1="572.2" y1="494" x2="572.2" y2="499" stroke="black" stroke-width="1" /><text x="572.2" y="511" font-size="12" text-anchor="middle">5</text><line x1="672.2" y1="494" x2="672.2" y2="499" stroke="black" stroke-width="1" /><text x="672.2" y="511" font-size="12" text-anchor="middle">6</text><line x1="67.19999999999999" y1="494" x2="72.19999999999999" y2="494" stroke="black" stroke-width="1" /><text x="64.19999999999999" y="498.2" font-size="12" text-anchor="end">0</text><line x1="67.19999999999999" y1="381.5" x2="72.19999999999999" y2="381.5" stroke="black" stroke-width="1" /><text x="64.19999999999999" y="385.7" font-size="12" text-anchor="end">2</text><line x1="67.19999999999999" y1="269" x2="72.19999999999999" y2="269" stroke="black" stroke-width="1" /><text x="64.19999999999999" y="273.2" font-size="12" text-anchor="end">4</text><line x1="67.19999999999999" y1="156.5" x2="72.19999999999999" y2="156.5" stroke="black" stroke-width="1" /><text x="64.19999999999999" y="160.7" font-size="12" text-anchor="end">6</text><line x1="67.19999999999999" y1="44" x2="72.19999999999999" y2="44" stroke="black" stroke-width="1" /><text x="64.19999999999999" y="48.2" font-size="12" text-anchor="end">8</text><text x="388.6" y="538" font-size="14" text-anchor="middle">X</text><text x="14" y="272.5" font-size="14" text-anchor="middle" transform="rotate(-90,14,272.5)">Y</text><text x="388.6" y="22" font-size="18" text-anchor="middle">Two Series</text><circle cx="172.2" cy="381.5" r="5" fill="steelblue" /><circle cx="372.2" cy="269" r="5" fill="steelblue" /><circle cx="572.2" cy="297.125" r="5" fill="steelblue" /><circle cx="172.2" cy="212.75" r="5" fill="crimson" /><circle cx="372.2" cy="128.375" r="5" fill="crimson" /><circle cx="572.2" cy="100.25" r="5" fill="crimson" /><rect x="677.2" y="34" width="91" height="56" fill="white" /><rect x="677.2" y="34" width="91" height="56" fill="none" stroke="black" stroke-width="1" /><text x="707.2" y="49" font-size="12" text-anchor="start">Series A</text><circle cx="693.2" cy="45" r="5" fill="steelblue" /><text x="707.2" y="67" font-size="12" text-anchor="start">Series B</text><circle cx="693.2" cy="63" r="5" fill="crimson" /></svg>