<svg xmlns="http://www.w3.org/2000/svg" width="686.2" height="545" font-family="DejaVu Sans, Liberation Sans, Arial, sans-serif" fill="black"><rect width="100%" height="100%" fill="white" /><line x1="72.19999999999999" y1="494" x2="672.2" y2="494" stroke="black" stroke-width="1" /><line x1="72.19999999999999" y1="44" x2="72.19999999999999" y2="494" stroke="black" stroke-width="1" /><line x1="197.2" y1="44" x2="197.2" y2="494" stroke="#ccc" stroke-width="1" /><line x1="322.2" y1="44" x2="322.2" y2="494" stroke="#ccc" stroke-width="1" /><line x1="447.2" y1="44" x2="447.2" y2="494" stroke="#ccc" stroke-width="1" /><line x1="572.2" y1="44" x2="572.2" y2="494" stroke="#ccc" stroke-width="1" /><line x1="72.19999999999999" y1="404" x2="672.2" y2="404" stroke="#ccc" stroke-width="1" /><line x1="72.19999999999999" y1="314" x2="672.2" y2="314" stroke="#ccc" stroke-width="1" /><line x1="72.19999999999999" y1="224" x2="672.2" y2="224" stroke="#ccc" stroke-width="1" /><line x1="72.19999999999999" y1="134" x2="672.2" y2="134" stroke="#ccc" stroke-width="1" /><line x1="72.19999999999999" y1="44" x2="672.2" y2="44" stroke="#ccc" stroke-width="1" /><line x1="72.19999999999999" y1="494" x2="72.19999999999999" y2="499" stroke="black" stroke-width="1" /><text x="72.19999999999999" y="511" font-size="12" text-anchor="middle">0</text><line x1="197.2" y1="494" x2="197.2" y2="499" stroke="black" stroke-width="1" /><text x="197.2" y="511" font-size="12" text-anchor="middle">2.5</text><line x1="322.2" y1="494" x2="322.2" y2="499" stroke="black" stroke-width="1" /><text x="322.2" y="511" font-size="12" text-anchor="middle">5</text><line x1="447.2" y1="494" x2="447.2" y2="499" stroke="black" stroke-width="1" /><text x="447.2" y="511" font-size="12" text-anchor="middle">7.5</text><line x1="572.2" y1="494" x2="572.2" y2="499" stroke="black" stroke-width="1" /><text x="572.2" y="511" font-size="12" text-anchor="middle">10</text><line x1="67.19999999999999" y1="494" x2="72.19999999999999" y2="494" stroke="black" stroke-width="1" /><text x="64.19999999999999" y="498.2" font-size="12" text-anchor="end">0</text><line x1="67.19999999999999" y1="404" x2="72.19999999999999" y2="404" stroke="black" stroke-width="1" /><text x="64.19999999999999" y="408.2" font-size="12" text-anchor="end">5</text><line x1="67.19999999999999" y1="314" x2="72.19999999999999" y2="314" stroke="black" stroke-width="1" /><text x="64.19999999999999" y="318.2" font-size="12" text-anchor="end">10</text><line x1="67.19999999999999" y1="224" x2="72.19999999999999" y2="224" stroke="black" stroke-width="1" /><text x="64.19999999999999" y="228.2" font-size="12" text-anchor="end">15</text><line x1="67.19999999999999" y1="134" x2="72.19999999999999" y2="134" stroke="black" stroke-width="1" /><text x="64.19999999999999" y="138.2" font-size="12" text-anchor="end">20</text><line x1="67.19999999999999" y1="44" x2="72.19999999999999" y2="44" stroke="black" stroke-width="1" /><text x="64.19999999999999" y="48.2" font-size="12" text-anchor="end">25</text><text x="343.1" y="538" font-size="14" text-anchor="middle">X</text><text x="14" y="272.5" font-size="14" text-anchor="middle" transform="rotate(-90,14,272.5)">Y</text><text x="343.1" y="22" font-size="18" text-anchor="middle">Linear Trend Line</text><circle cx="122.19999999999999" cy="456.2" r="5" fill="steelblue" /><circle cx="172.2" cy="423.8" r="5" fill="steelblue" /><circle cx="222.2" cy="382.4" r="5" fill="steelblue" /><circle cx="272.2" cy="353.6" r="5" fill="steelblue" /><circle cx="322.2" cy="312.20000000000005" r="5" fill="steelblue" /><circle cx="372.2" cy="272.59999999999997" r="5" fill="steelblue" /><circle cx="422.2" cy="243.79999999999998" r="5" fill="steelblue" /><circle cx="472.2" cy="202.39999999999998" r="5" fill="steelblue" /><circle cx="522.2" cy="173.59999999999997" r="5" fill="steelblue" /><circle cx="572.2" cy="139.40000000000003" r="5" fill="steelblue" /><line x1="72.19999999999999" y1="491.72" x2="672.2" y2="64.69454545454539" stroke="crimson" stroke-width="1" /><text x="82.19999999999999" y="64" font-size="12" text-anchor="start">y = 1.98x + 0.13  r = 1.00</text></svg>