<svg xmlns="http://www.w3.org/2000/svg" width="686.2" height="545" font-family="DejaVu Sans, Liberation Sans, Arial, sans-serif" fill="black"><rect width="100%" height="100%" fill="white" /><line x1="72.19999999999999" y1="494" x2="672.2" y2="494" stroke="black" stroke-width="1" /><line x1="72.19999999999999" y1="44" x2="72.19999999999999" y2="494" stroke="black" stroke-width="1" /><line x1="72.19999999999999" y1="381.5" x2="672.2" y2="381.5" stroke="#ccc" stroke-width="1" /><line x1="72.19999999999999" y1="269" x2="672.2" y2="269" stroke="#ccc" stroke-width="1" /><line x1="72.19999999999999" y1="156.5" x2="672.2" y2="156.5" stroke="#ccc" stroke-width="1" /><line x1="72.19999999999999" y1="44" x2="672.2" y2="44" stroke="#ccc" stroke-width="1" /><text x="172.2" y="511" font-size="12" text-anchor="middle">Control</text><line x1="172.2" y1="494" x2="172.2" y2="499" stroke="black" stroke-width="1" /><text x="372.2" y="511" font-size="12" text-anchor="middle">Bimodal</text><line x1="372.2" y1="494" x2="372.2" y2="499" stroke="black" stroke-width="1" /><text x="572.2" y="511" font-size="12" text-anchor="middle">High-spread</text><line x1="572.2" y1="494" x2="572.2" y2="499" stroke="black" stroke-width="1" /><line x1="67.19999999999999" y1="494" x2="72.19999999999999" y2="494" stroke="black" stroke-width="1" /><text x="64.19999999999999" y="498.2" font-size="12" text-anchor="end">-5</text><line x1="67.19999999999999" y1="381.5" x2="72.19999999999999" y2="381.5" stroke="black" stroke-width="1" /><text x="64.19999999999999" y="385.7" font-size="12" text-anchor="end">0</text><line x1="67.19999999999999" y1="269" x2="72.19999999999999" y2="269" stroke="black" stroke-width="1" /><text x="64.19999999999999" y="273.2" font-size="12" text-anchor="end">5</text><line x1="67.19999999999999" y1="156.5" x2="72.19999999999999" y2="156.5" stroke="black" stroke-width="1" /><text x="64.19999999999999" y="160.7" font-size="12" text-anchor="end">10</text><line x1="67.19999999999999" y1="44" x2="72.19999999999999" y2="44" stroke="black" stroke-width="1" /><text x="64.19999999999999" y="48.2" font-size="12" text-anchor="end">15</text><text x="14" y="272.5" font-size="14" text-anchor="middle" transform="rotate(-90,14,272.5)">Value</text><text x="343.1" y="22" font-size="18" text-anchor="middle">Box + Strip</text><rect x="92.19999999999999" y="278.23274248875157" width="160" height="28.65793956608053" fill="steelblue" /><line x1="92.19999999999999" y1="295.2840208653283" x2="252.2" y2="295.2840208653283" stroke="white" stroke-width="1.5" /><line x1="172.2" y1="349.2679076628324" x2="172.2" y2="306.8906820548321" stroke="steelblue" stroke-width="1" /><line x1="172.2" y1="278.23274248875157" x2="172.2" y2="240.09865697476718" stroke="steelblue" stroke-width="1" /><line x1="132.2" y1="349.2679076628324" x2="212.19999999999996" y2="349.2679076628324" stroke="steelblue" stroke-width="1" /><line x1="132.2" y1="240.09865697476718" x2="212.19999999999996" y2="240.09865697476718" stroke="steelblue" stroke-width="1" /><rect x="292.20000000000005" y="230.2481153430349" width="159.99999999999994" height="89.2863756833707" fill="steelblue" /><line x1="292.20000000000005" y1="280.41567568758506" x2="452.2" y2="280.41567568758506" stroke="white" stroke-width="1.5" /><line x1="372.2" y1="360.43744646460203" x2="372.2" y2="319.5344910264056" stroke="steelblue" stroke-width="1" /><line x1="372.2" y1="230.2481153430349" x2="372.2" y2="200.39390491056815" stroke="steelblue" stroke-width="1" /><line x1="332.2" y1="360.43744646460203" x2="412.20000000000005" y2="360.43744646460203" stroke="steelblue" stroke-width="1" /><line x1="332.2" y1="200.39390491056815" x2="412.20000000000005" y2="200.39390491056815" stroke="steelblue" stroke-width="1" /><rect x="492.20000000000005" y="230.40975481262376" width="160" height="59.43943260769731" fill="steelblue" /><line x1="492.20000000000005" y1="261.4323168613409" x2="652.2" y2="261.4323168613409" stroke="white" stroke-width="1.5" /><line x1="572.2" y1="353.5285596391709" x2="572.2" y2="289.8491874203211" stroke="steelblue" stroke-width="1" /><line x1="572.2" y1="230.40975481262376" x2="572.2" y2="195.2009429577318" stroke="steelblue" stroke-width="1" /><line x1="532.1999999999999" y1="353.5285596391709" x2="612.2" y2="353.5285596391709" stroke="steelblue" stroke-width="1" /><line x1="532.1999999999999" y1="195.2009429577318" x2="612.2" y2="195.2009429577318" stroke="steelblue" stroke-width="1" /><circle cx="186.59176474343664" cy="299.6618758710075" r="2.5" fill="rgba(0,0,0,0.3)" /><circle cx="182.97775065766848" cy="306.87813265769955" r="2.5" fill="rgba(0,0,0,0.3)" /><circle cx="189.7127960481133" cy="331.52798512987783" r="2.5" fill="rgba(0,0,0,0.3)" /><circle cx="156.0113735840787" cy="301.4763573954131" r="2.5" fill="rgba(0,0,0,0.3)" /><circle cx="167.58713696568967" cy="261.6947146923734" r="2.5" fill="rgba(0,0,0,0.3)" /><circle cx="156.42359342210426" cy="293.1535990801001" r="2.5" fill="rgba(0,0,0,0.3)" /><circle cx="152.83484041439925" cy="281.1413037816729" r="2.5" fill="rgba(0,0,0,0.3)" /><circle cx="163.8958912551797" cy="301.23125700272647" r="2.5" fill="rgba(0,0,0,0.3)" /><circle cx="170.97510142599975" cy="305.9548421383255" r="2.5" fill="rgba(0,0,0,0.3)" /><circle cx="185.95916889878347" cy="349.2679076628324" r="2.5" fill="rgba(0,0,0,0.3)" /><circle cx="155.419622085951" cy="301.06959246059296" r="2.5" fill="rgba(0,0,0,0.3)" /><circle cx="187.45556355189092" cy="301.5687536210366" r="2.5" fill="rgba(0,0,0,0.3)" /><circle cx="153.23850907495563" cy="302.15934994007534" r="2.5" fill="rgba(0,0,0,0.3)" /><circle cx="165.876738583656" cy="300.76418027419845" r="2.5" fill="rgba(0,0,0,0.3)" /><circle cx="171.5571920280981" cy="262.12105861764985" r="2.5" fill="rgba(0,0,0,0.3)" /><circle cx="174.39229343967955" cy="306.8357491419877" r="2.5" fill="rgba(0,0,0,0.3)" /><circle cx="170.42422406246752" cy="300.65148314927654" r="2.5" fill="rgba(0,0,0,0.3)" /><circle cx="187.47420502628745" cy="240.09865697476718" r="2.5" fill="rgba(0,0,0,0.3)" /><circle cx="176.03618154011124" cy="274.433185912971" r="2.5" fill="rgba(0,0,0,0.3)" /><circle cx="187.5409326129901" cy="263.66920600394445" r="2.5" fill="rgba(0,0,0,0.3)" /><circle cx="163.03059961935793" cy="328.2599061809309" r="2.5" fill="rgba(0,0,0,0.3)" /><circle cx="160.45447439251524" cy="292.6914005266241" r="2.5" fill="rgba(0,0,0,0.3)" /><circle cx="186.89398455492648" cy="246.04999560185524" r="2.5" fill="rgba(0,0,0,0.3)" /><circle cx="152.82006586399996" cy="287.33863471177426" r="2.5" fill="rgba(0,0,0,0.3)" /><circle cx="172.68753471183578" cy="285.23616368193774" r="2.5" fill="rgba(0,0,0,0.3)" /><circle cx="176.24895699948593" cy="314.1290945322475" r="2.5" fill="rgba(0,0,0,0.3)" /><circle cx="175.24738327561786" cy="259.81448200659133" r="2.5" fill="rgba(0,0,0,0.3)" /><circle cx="166.82478837083758" cy="310.59517286510913" r="2.5" fill="rgba(0,0,0,0.3)" /><circle cx="172.05530519869563" cy="283.9196475857218" r="2.5" fill="rgba(0,0,0,0.3)" /><circle cx="171.22386642702153" cy="247.027399231748" r="2.5" fill="rgba(0,0,0,0.3)" /><circle cx="155.59348873898222" cy="262.86964117414846" r="2.5" fill="rgba(0,0,0,0.3)" /><circle cx="167.43763688180542" cy="338.77845499786497" r="2.5" fill="rgba(0,0,0,0.3)" /><circle cx="153.42108257173442" cy="278.85483265143694" r="2.5" fill="rgba(0,0,0,0.3)" /><circle cx="163.65723081177498" cy="300.33994330293535" r="2.5" fill="rgba(0,0,0,0.3)" /><circle cx="180.9059365679065" cy="315.011230552774" r="2.5" fill="rgba(0,0,0,0.3)" /><circle cx="170.9325898214987" cy="305.05168415253024" r="2.5" fill="rgba(0,0,0,0.3)" /><circle cx="177.23492433063632" cy="251.53969097615405" r="2.5" fill="rgba(0,0,0,0.3)" /><circle cx="188.3577370663474" cy="261.7900784832382" r="2.5" fill="rgba(0,0,0,0.3)" /><circle cx="163.44545111298703" cy="283.9718864724579" r="2.5" fill="rgba(0,0,0,0.3)" /><circle cx="155.63614872961526" cy="229.58852038583933" r="2.5" fill="rgba(0,0,0,0.3)" /><circle cx="163.83654592024027" cy="262.34491369179875" r="2.5" fill="rgba(0,0,0,0.3)" /><circle cx="177.29849545053824" cy="357.47258507575924" r="2.5" fill="rgba(0,0,0,0.3)" /><circle cx="164.834616545348" cy="343.8740862116073" r="2.5" fill="rgba(0,0,0,0.3)" /><circle cx="185.20492048687225" cy="255.37710559813667" r="2.5" fill="rgba(0,0,0,0.3)" /><circle cx="164.07893563211817" cy="322.82276236317483" r="2.5" fill="rgba(0,0,0,0.3)" /><circle cx="170.12295333823803" cy="298.380554118049" r="2.5" fill="rgba(0,0,0,0.3)" /><circle cx="165.70195222276266" cy="324.9706000973356" r="2.5" fill="rgba(0,0,0,0.3)" /><circle cx="162.75220551119966" cy="304.9367382332668" r="2.5" fill="rgba(0,0,0,0.3)" /><circle cx="159.79128514943528" cy="296.29905050033534" r="2.5" fill="rgba(0,0,0,0.3)" /><circle cx="161.21795145807573" cy="323.9118095401442" r="2.5" fill="rgba(0,0,0,0.3)" /><circle cx="164.85760269221575" cy="276.3664720006951" r="2.5" fill="rgba(0,0,0,0.3)" /><circle cx="184.95341690949243" cy="319.9765143844086" r="2.5" fill="rgba(0,0,0,0.3)" /><circle cx="155.32074501045508" cy="295.38650112518667" r="2.5" fill="rgba(0,0,0,0.3)" /><circle cx="174.43509111090523" cy="275.3720249382508" r="2.5" fill="rgba(0,0,0,0.3)" /><circle cx="163.32213906196057" cy="304.72729005608596" r="2.5" fill="rgba(0,0,0,0.3)" /><circle cx="177.2687365745303" cy="284.74758309875784" r="2.5" fill="rgba(0,0,0,0.3)" /><circle cx="153.617813807119" cy="284.0446851006767" r="2.5" fill="rgba(0,0,0,0.3)" /><circle cx="170.65323894080382" cy="314.38966119895656" r="2.5" fill="rgba(0,0,0,0.3)" /><circle cx="190.03118660770878" cy="288.9325909432432" r="2.5" fill="rgba(0,0,0,0.3)" /><circle cx="170.1942178942039" cy="306.9283302462296" r="2.5" fill="rgba(0,0,0,0.3)" /><circle cx="152.7409764956618" cy="268.98169898254696" r="2.5" fill="rgba(0,0,0,0.3)" /><circle cx="171.93892175299678" cy="295.18154060546976" r="2.5" fill="rgba(0,0,0,0.3)" /><circle cx="154.8010027521317" cy="308.5148639439828" r="2.5" fill="rgba(0,0,0,0.3)" /><circle cx="188.45394404793262" cy="313.15588254780243" r="2.5" fill="rgba(0,0,0,0.3)" /><circle cx="183.55666662620104" cy="281.33383505719576" r="2.5" fill="rgba(0,0,0,0.3)" /><circle cx="182.30826446840268" cy="269.962478774653" r="2.5" fill="rgba(0,0,0,0.3)" /><circle cx="169.65416689056948" cy="279.2582339478745" r="2.5" fill="rgba(0,0,0,0.3)" /><circle cx="162.11906185884197" cy="301.67472750469085" r="2.5" fill="rgba(0,0,0,0.3)" /><circle cx="159.2991902102003" cy="279.7318456579127" r="2.5" fill="rgba(0,0,0,0.3)" /><circle cx="187.6556302103765" cy="286.42517362077234" r="2.5" fill="rgba(0,0,0,0.3)" /><circle cx="186.47956647461257" cy="254.16482058604095" r="2.5" fill="rgba(0,0,0,0.3)" /><circle cx="172.83444878741176" cy="301.251670618597" r="2.5" fill="rgba(0,0,0,0.3)" /><circle cx="186.12825928219533" cy="314.6879529482204" r="2.5" fill="rgba(0,0,0,0.3)" /><circle cx="165.2038354119441" cy="311.78332788558316" r="2.5" fill="rgba(0,0,0,0.3)" /><circle cx="163.11653187253657" cy="290.29206125244684" r="2.5" fill="rgba(0,0,0,0.3)" /><circle cx="171.5462926515657" cy="254.1230539683491" r="2.5" fill="rgba(0,0,0,0.3)" /><circle cx="175.15496746166798" cy="286.85919777249353" r="2.5" fill="rgba(0,0,0,0.3)" /><circle cx="175.851777393549" cy="281.3740294931914" r="2.5" fill="rgba(0,0,0,0.3)" /><circle cx="188.56223488954126" cy="282.3368973034627" r="2.5" fill="rgba(0,0,0,0.3)" /><circle cx="160.15205960152946" cy="309.96753253509974" r="2.5" fill="rgba(0,0,0,0.3)" /><circle cx="386.59176474574656" cy="360.43744646460203" r="2.5" fill="rgba(0,0,0,0.3)" /><circle cx="385.47760043519185" cy="307.51793981668055" r="2.5" fill="rgba(0,0,0,0.3)" /><circle cx="368.92512801694306" cy="321.1205428055291" r="2.5" fill="rgba(0,0,0,0.3)" /><circle cx="389.2608352239674" cy="290.39390491056815" r="2.5" fill="rgba(0,0,0,0.3)" /><circle cx="387.89722819821105" cy="306.4180555966626" r="2.5" fill="rgba(0,0,0,0.3)" /><circle cx="389.34339368599575" cy="332.40724431975946" r="2.5" fill="rgba(0,0,0,0.3)" /><circle cx="378.19006256644883" cy="323.88796213853607" r="2.5" fill="rgba(0,0,0,0.3)" /><circle cx="374.2251932170525" cy="317.61188037891884" r="2.5" fill="rgba(0,0,0,0.3)" /><circle cx="352.99537245919623" cy="333.2142419502039" r="2.5" fill="rgba(0,0,0,0.3)" /><circle cx="379.0240793625916" cy="312.51058165605195" r="2.5" fill="rgba(0,0,0,0.3)" /><circle cx="353.4999120596209" cy="337.743105410524" r="2.5" fill="rgba(0,0,0,0.3)" /><circle cx="354.3971604912286" cy="323.3527333133227" r="2.5" fill="rgba(0,0,0,0.3)" /><circle cx="363.5378126290879" cy="309.06345363296145" r="2.5" fill="rgba(0,0,0,0.3)" /><circle cx="383.3545897493689" cy="316.3185610874468" r="2.5" fill="rgba(0,0,0,0.3)" /><circle cx="390.07356397863157" cy="300.06953836089605" r="2.5" fill="rgba(0,0,0,0.3)" /><circle cx="362.45078898572984" cy="319.177678868091" r="2.5" fill="rgba(0,0,0,0.3)" /><circle cx="369.6245255742884" cy="305.6803710714339" r="2.5" fill="rgba(0,0,0,0.3)" /><circle cx="363.58566031614515" cy="318.50936336586614" r="2.5" fill="rgba(0,0,0,0.3)" /><circle cx="375.71374909885384" cy="315.2934350923513" r="2.5" fill="rgba(0,0,0,0.3)" /><circle cx="375.1990213263213" cy="306.0930517806335" r="2.5" fill="rgba(0,0,0,0.3)" /><circle cx="380.85320230658095" cy="341.729212283439" r="2.5" fill="rgba(0,0,0,0.3)" /><circle cx="369.7408607032729" cy="318.26880134553784" r="2.5" fill="rgba(0,0,0,0.3)" /><circle cx="391.47853861270744" cy="354.14904759782166" r="2.5" fill="rgba(0,0,0,0.3)" /><circle cx="368.3703720592444" cy="310.5486395992228" r="2.5" fill="rgba(0,0,0,0.3)" /><circle cx="362.24373462403605" cy="322.03234267612265" r="2.5" fill="rgba(0,0,0,0.3)" /><circle cx="368.97681037347496" cy="336.56723102397933" r="2.5" fill="rgba(0,0,0,0.3)" /><circle cx="386.98938261015417" cy="333.01194340056327" r="2.5" fill="rgba(0,0,0,0.3)" /><circle cx="368.60323290843786" cy="318.34131094168265" r="2.5" fill="rgba(0,0,0,0.3)" /><circle cx="359.3284788241382" cy="307.5531208264012" r="2.5" fill="rgba(0,0,0,0.3)" /><circle cx="357.6151091614204" cy="323.9768498810123" r="2.5" fill="rgba(0,0,0,0.3)" /><circle cx="381.6592669026763" cy="328.9456215703234" r="2.5" fill="rgba(0,0,0,0.3)" /><circle cx="373.7885809677571" cy="340.96705271015725" r="2.5" fill="rgba(0,0,0,0.3)" /><circle cx="360.74129883352" cy="329.2308232041695" r="2.5" fill="rgba(0,0,0,0.3)" /><circle cx="370.51905960792874" cy="298.20563098933553" r="2.5" fill="rgba(0,0,0,0.3)" /><circle cx="353.6372346957341" cy="320.6049275013495" r="2.5" fill="rgba(0,0,0,0.3)" /><circle cx="391.7026989349267" cy="347.8836397673328" r="2.5" fill="rgba(0,0,0,0.3)" /><circle cx="378.70955295506036" cy="335.84315501276825" r="2.5" fill="rgba(0,0,0,0.3)" /><circle cx="352.8180005757068" cy="314.7929602232137" r="2.5" fill="rgba(0,0,0,0.3)" /><circle cx="389.42912018616965" cy="344.4778184850236" r="2.5" fill="rgba(0,0,0,0.3)" /><circle cx="358.28939392417936" cy="315.99395471769793" r="2.5" fill="rgba(0,0,0,0.3)" /><circle cx="369.02125799337966" cy="270.43744646460203" r="2.5" fill="rgba(0,0,0,0.3)" /><circle cx="369.02307573372144" cy="217.5179398166806" r="2.5" fill="rgba(0,0,0,0.3)" /><circle cx="367.3666850154256" cy="231.12054280552906" r="2.5" fill="rgba(0,0,0,0.3)" /><circle cx="376.1146199681166" cy="200.39390491056815" r="2.5" fill="rgba(0,0,0,0.3)" /><circle cx="378.0934494206856" cy="216.4180555966626" r="2.5" fill="rgba(0,0,0,0.3)" /><circle cx="373.60394986714414" cy="242.4072443197595" r="2.5" fill="rgba(0,0,0,0.3)" /><circle cx="369.4203978397225" cy="233.88796213853612" r="2.5" fill="rgba(0,0,0,0.3)" /><circle cx="364.0753781452621" cy="227.6118803789189" r="2.5" fill="rgba(0,0,0,0.3)" /><circle cx="389.67105429718464" cy="243.2142419502039" r="2.5" fill="rgba(0,0,0,0.3)" /><circle cx="373.6180780836874" cy="222.51058165605195" r="2.5" fill="rgba(0,0,0,0.3)" /><circle cx="365.9724885459138" cy="247.74310541052398" r="2.5" fill="rgba(0,0,0,0.3)" /><circle cx="377.09667876235767" cy="233.35273331332274" r="2.5" fill="rgba(0,0,0,0.3)" /><circle cx="359.41299059948653" cy="219.06345363296145" r="2.5" fill="rgba(0,0,0,0.3)" /><circle cx="387.7654444226119" cy="226.31856108744677" r="2.5" fill="rgba(0,0,0,0.3)" /><circle cx="387.20376467347563" cy="210.06953836089605" r="2.5" fill="rgba(0,0,0,0.3)" /><circle cx="383.2880343991642" cy="229.17767886809094" r="2.5" fill="rgba(0,0,0,0.3)" /><circle cx="385.5214060763659" cy="215.6803710714339" r="2.5" fill="rgba(0,0,0,0.3)" /><circle cx="367.0059171796672" cy="228.5093633658662" r="2.5" fill="rgba(0,0,0,0.3)" /><circle cx="353.2492120583014" cy="225.29343509235127" r="2.5" fill="rgba(0,0,0,0.3)" /><circle cx="361.1111331698218" cy="216.09305178063352" r="2.5" fill="rgba(0,0,0,0.3)" /><circle cx="376.79175962905" cy="251.72921228343895" r="2.5" fill="rgba(0,0,0,0.3)" /><circle cx="353.16152334904086" cy="228.26880134553784" r="2.5" fill="rgba(0,0,0,0.3)" /><circle cx="356.42355086820186" cy="264.14904759782166" r="2.5" fill="rgba(0,0,0,0.3)" /><circle cx="383.2855147186328" cy="220.54863959922284" r="2.5" fill="rgba(0,0,0,0.3)" /><circle cx="368.55871535036914" cy="232.0323426761226" r="2.5" fill="rgba(0,0,0,0.3)" /><circle cx="389.02007171597097" cy="246.56723102397936" r="2.5" fill="rgba(0,0,0,0.3)" /><circle cx="357.107203320882" cy="243.01194340056333" r="2.5" fill="rgba(0,0,0,0.3)" /><circle cx="379.67913915889596" cy="228.34131094168265" r="2.5" fill="rgba(0,0,0,0.3)" /><circle cx="387.7882369209733" cy="217.5531208264012" r="2.5" fill="rgba(0,0,0,0.3)" /><circle cx="380.97731067781285" cy="233.9768498810123" r="2.5" fill="rgba(0,0,0,0.3)" /><circle cx="391.3478317076247" cy="238.94562157032345" r="2.5" fill="rgba(0,0,0,0.3)" /><circle cx="391.97826600981233" cy="250.96705271015725" r="2.5" fill="rgba(0,0,0,0.3)" /><circle cx="384.7998892550055" cy="239.2308232041695" r="2.5" fill="rgba(0,0,0,0.3)" /><circle cx="390.55012037857784" cy="208.20563098933553" r="2.5" fill="rgba(0,0,0,0.3)" /><circle cx="374.39223941243546" cy="230.6049275013495" r="2.5" fill="rgba(0,0,0,0.3)" /><circle cx="377.38366107867995" cy="257.88363976733274" r="2.5" fill="rgba(0,0,0,0.3)" /><circle cx="365.09854806447294" cy="245.84315501276825" r="2.5" fill="rgba(0,0,0,0.3)" /><circle cx="381.5694275049392" cy="224.7929602232137" r="2.5" fill="rgba(0,0,0,0.3)" /><circle cx="357.76426875456644" cy="254.4778184850236" r="2.5" fill="rgba(0,0,0,0.3)" /><circle cx="375.4873766129473" cy="225.99395471769793" r="2.5" fill="rgba(0,0,0,0.3)" /><circle cx="586.5917647480587" cy="216.62957784648995" r="2.5" fill="rgba(0,0,0,0.3)" /><circle cx="577.9786615269442" cy="281.7156599642302" r="2.5" fill="rgba(0,0,0,0.3)" /><circle cx="578.8128084277198" cy="225.72073407122974" r="2.5" fill="rgba(0,0,0,0.3)" /><circle cx="575.5642092345181" cy="263.5191471532181" r="2.5" fill="rgba(0,0,0,0.3)" /><circle cx="575.00250901334" cy="195.8971241577126" r="2.5" fill="rgba(0,0,0,0.3)" /><circle cx="566.5695067504621" cy="223.20214289079996" r="2.5" fill="rgba(0,0,0,0.3)" /><circle cx="589.527542346266" cy="208.1003290675776" r="2.5" fill="rgba(0,0,0,0.3)" /><circle cx="558.5207257837601" cy="312.30777374546096" r="2.5" fill="rgba(0,0,0,0.3)" /><circle cx="585.1545888016935" cy="296.11871048496886" r="2.5" fill="rgba(0,0,0,0.3)" /><circle cx="588.0151154516384" cy="218.22853006652286" r="2.5" fill="rgba(0,0,0,0.3)" /><circle cx="591.7700556124553" cy="278.99531755090806" r="2.5" fill="rgba(0,0,0,0.3)" /><circle cx="582.6983131548388" cy="280.2173210851039" r="2.5" fill="rgba(0,0,0,0.3)" /><circle cx="587.7357512644348" cy="287.58682943427243" r="2.5" fill="rgba(0,0,0,0.3)" /><circle cx="559.8659382508756" cy="276.9513748074495" r="2.5" fill="rgba(0,0,0,0.3)" /><circle cx="574.0941231073707" cy="214.31583850696484" r="2.5" fill="rgba(0,0,0,0.3)" /><circle cx="586.5043188077711" cy="232.98399789589092" r="2.5" fill="rgba(0,0,0,0.3)" /><circle cx="559.2261858099705" cy="248.22649508229526" r="2.5" fill="rgba(0,0,0,0.3)" /><circle cx="581.484693518667" cy="250.8792752956682" r="2.5" fill="rgba(0,0,0,0.3)" /><circle cx="556.7365869752304" cy="291.873050412401" r="2.5" fill="rgba(0,0,0,0.3)" /><circle cx="561.7264299958861" cy="258.35300122039905" r="2.5" fill="rgba(0,0,0,0.3)" /><circle cx="562.0471577742569" cy="282.9312892792797" r="2.5" fill="rgba(0,0,0,0.3)" /><circle cx="578.3478896195834" cy="294.3131958247806" r="2.5" fill="rgba(0,0,0,0.3)" /><circle cx="553.9965317098178" cy="204.7990320339178" r="2.5" fill="rgba(0,0,0,0.3)" /><circle cx="558.308453043265" cy="228.6516034329524" r="2.5" fill="rgba(0,0,0,0.3)" /><circle cx="585.3938370091694" cy="304.3569880103219" r="2.5" fill="rgba(0,0,0,0.3)" /><circle cx="584.8002128380936" cy="266.1759962465798" r="2.5" fill="rgba(0,0,0,0.3)" /><circle cx="567.514766675698" cy="270.83967345760755" r="2.5" fill="rgba(0,0,0,0.3)" /><circle cx="579.8138376309923" cy="219.81179779406938" r="2.5" fill="rgba(0,0,0,0.3)" /><circle cx="585.785511995146" cy="259.92742413369314" r="2.5" fill="rgba(0,0,0,0.3)" /><circle cx="579.1246450051713" cy="292.8787313029924" r="2.5" fill="rgba(0,0,0,0.3)" /><circle cx="585.6051588684049" cy="329.8760682823158" r="2.5" fill="rgba(0,0,0,0.3)" /><circle cx="565.9183723107911" cy="220.71397409730054" r="2.5" fill="rgba(0,0,0,0.3)" /><circle cx="557.237643786005" cy="233.38864660615565" r="2.5" fill="rgba(0,0,0,0.3)" /><circle cx="589.2560132602173" cy="201.94939777209294" r="2.5" fill="rgba(0,0,0,0.3)" /><circle cx="590.816193498594" cy="307.7139385830263" r="2.5" fill="rgba(0,0,0,0.3)" /><circle cx="586.4856592125527" cy="251.14049063410675" r="2.5" fill="rgba(0,0,0,0.3)" /><circle cx="572.0121767744768" cy="353.5285596391709" r="2.5" fill="rgba(0,0,0,0.3)" /><circle cx="572.1875763165547" cy="312.2345783943422" r="2.5" fill="rgba(0,0,0,0.3)" /><circle cx="560.7048436568236" cy="289.17456642296116" r="2.5" fill="rgba(0,0,0,0.3)" /><circle cx="575.8474130520178" cy="327.95866342610236" r="2.5" fill="rgba(0,0,0,0.3)" /><circle cx="572.6441658543197" cy="257.0708081344834" r="2.5" fill="rgba(0,0,0,0.3)" /><circle cx="565.2343429298089" cy="237.13722735407998" r="2.5" fill="rgba(0,0,0,0.3)" /><circle cx="568.3821881696638" cy="310.1426588395959" r="2.5" fill="rgba(0,0,0,0.3)" /><circle cx="559.2743150822473" cy="230.99580527251425" r="2.5" fill="rgba(0,0,0,0.3)" /><circle cx="587.8214470786595" cy="298.670105852316" r="2.5" fill="rgba(0,0,0,0.3)" /><circle cx="554.6452935794882" cy="320.02734644333145" r="2.5" fill="rgba(0,0,0,0.3)" /><circle cx="569.6662798466211" cy="268.0859175465512" r="2.5" fill="rgba(0,0,0,0.3)" /><circle cx="554.1030056504649" cy="297.8176151683683" r="2.5" fill="rgba(0,0,0,0.3)" /><circle cx="552.7031676137104" cy="327.74063380397325" r="2.5" fill="rgba(0,0,0,0.3)" /><circle cx="552.9238069070623" cy="228.39430252582275" r="2.5" fill="rgba(0,0,0,0.3)" /><circle cx="572.5546843776381" cy="326.66150785623375" r="2.5" fill="rgba(0,0,0,0.3)" /><circle cx="590.9976469964442" cy="288.88201059659264" r="2.5" fill="rgba(0,0,0,0.3)" /><circle cx="561.8311905152759" cy="260.5679598466796" r="2.5" fill="rgba(0,0,0,0.3)" /><circle cx="570.4616354574075" cy="256.52474693576374" r="2.5" fill="rgba(0,0,0,0.3)" /><circle cx="587.6471554374889" cy="263.039969576991" r="2.5" fill="rgba(0,0,0,0.3)" /><circle cx="555.3435651471782" cy="285.4386296474196" r="2.5" fill="rgba(0,0,0,0.3)" /><circle cx="564.6255171033099" cy="248.05124653616693" r="2.5" fill="rgba(0,0,0,0.3)" /><circle cx="560.1388217190859" cy="206.86745196970804" r="2.5" fill="rgba(0,0,0,0.3)" /><circle cx="571.930246143336" cy="277.0367683251176" r="2.5" fill="rgba(0,0,0,0.3)" /><circle cx="561.6469271394662" cy="254.69965311140908" r="2.5" fill="rgba(0,0,0,0.3)" /><circle cx="578.0695821076856" cy="200.84144929903522" r="2.5" fill="rgba(0,0,0,0.3)" /><circle cx="587.7288031646842" cy="349.86287488317413" r="2.5" fill="rgba(0,0,0,0.3)" /><circle cx="561.8790608503616" cy="249.5681107125757" r="2.5" fill="rgba(0,0,0,0.3)" /><circle cx="573.9764549132526" cy="195.2009429577318" r="2.5" fill="rgba(0,0,0,0.3)" /><circle cx="585.6880125195314" cy="255.2142971448242" r="2.5" fill="rgba(0,0,0,0.3)" /><circle cx="567.4897457685877" cy="233.7294118038934" r="2.5" fill="rgba(0,0,0,0.3)" /><circle cx="591.5635722471777" cy="240.40977874747614" r="2.5" fill="rgba(0,0,0,0.3)" /><circle cx="576.9820032801988" cy="208.56792839504567" r="2.5" fill="rgba(0,0,0,0.3)" /><circle cx="587.0965277950872" cy="223.80684118541842" r="2.5" fill="rgba(0,0,0,0.3)" /><circle cx="584.8322619052881" cy="204.90619313450168" r="2.5" fill="rgba(0,0,0,0.3)" /><circle cx="588.4844904050797" cy="263.065224142583" r="2.5" fill="rgba(0,0,0,0.3)" /><circle cx="590.3801431048007" cy="261.6567467314103" r="2.5" fill="rgba(0,0,0,0.3)" /><circle cx="564.0884772374643" cy="305.44973481228186" r="2.5" fill="rgba(0,0,0,0.3)" /><circle cx="563.6503332729109" cy="261.2078869912715" r="2.5" fill="rgba(0,0,0,0.3)" /><circle cx="579.0323711476434" cy="240.96876164296177" r="2.5" fill="rgba(0,0,0,0.3)" /><circle cx="560.678693758368" cy="270.70962205873536" r="2.5" fill="rgba(0,0,0,0.3)" /><circle cx="586.8255124118596" cy="277.39989660527" r="2.5" fill="rgba(0,0,0,0.3)" /><circle cx="552.3879911523787" cy="295.9091269882499" r="2.5" fill="rgba(0,0,0,0.3)" /><circle cx="586.325686547792" cy="268.49450114879494" r="2.5" fill="rgba(0,0,0,0.3)" /><circle cx="569.6567567362567" cy="217.1968387170063" r="2.5" fill="rgba(0,0,0,0.3)" /></svg>