<svg xmlns="http://www.w3.org/2000/svg" width="686.2" height="545" font-family="DejaVu Sans, Liberation Sans, Arial, sans-serif" fill="black"><rect width="100%" height="100%" fill="white" /><line x1="72.19999999999999" y1="494" x2="672.2" y2="494" stroke="black" stroke-width="1" /><line x1="72.19999999999999" y1="44" x2="72.19999999999999" y2="494" stroke="black" stroke-width="1" /><line x1="72.19999999999999" y1="381.5" x2="672.2" y2="381.5" stroke="#ccc" stroke-width="1" /><line x1="72.19999999999999" y1="269" x2="672.2" y2="269" stroke="#ccc" stroke-width="1" /><line x1="72.19999999999999" y1="156.5" x2="672.2" y2="156.5" stroke="#ccc" stroke-width="1" /><line x1="72.19999999999999" y1="44" x2="672.2" y2="44" stroke="#ccc" stroke-width="1" /><text x="172.2" y="511" font-size="12" text-anchor="middle">Control</text><line x1="172.2" y1="494" x2="172.2" y2="499" stroke="black" stroke-width="1" /><text x="372.2" y="511" font-size="12" text-anchor="middle">Treatment</text><line x1="372.2" y1="494" x2="372.2" y2="499" stroke="black" stroke-width="1" /><text x="572.2" y="511" font-size="12" text-anchor="middle">Placebo</text><line x1="572.2" y1="494" x2="572.2" y2="499" stroke="black" stroke-width="1" /><line x1="67.19999999999999" y1="494" x2="72.19999999999999" y2="494" stroke="black" stroke-width="1" /><text x="64.19999999999999" y="498.2" font-size="12" text-anchor="end">0</text><line x1="67.19999999999999" y1="381.5" x2="72.19999999999999" y2="381.5" stroke="black" stroke-width="1" /><text x="64.19999999999999" y="385.7" font-size="12" text-anchor="end">2</text><line x1="67.19999999999999" y1="269" x2="72.19999999999999" y2="269" stroke="black" stroke-width="1" /><text x="64.19999999999999" y="273.2" font-size="12" text-anchor="end">4</text><line x1="67.19999999999999" y1="156.5" x2="72.19999999999999" y2="156.5" stroke="black" stroke-width="1" /><text x="64.19999999999999" y="160.7" font-size="12" text-anchor="end">6</text><line x1="67.19999999999999" y1="44" x2="72.19999999999999" y2="44" stroke="black" stroke-width="1" /><text x="64.19999999999999" y="48.2" font-size="12" text-anchor="end">8</text><text x="14" y="272.5" font-size="14" text-anchor="middle" transform="rotate(-90,14,272.5)">Measurement</text><text x="343.1" y="22" font-size="18" text-anchor="middle">Per-Group Colors</text><circle cx="193.78764711515504" cy="263.375" r="4" fill="steelblue" /><circle cx="188.3666259865027" cy="212.75" r="4" fill="steelblue" /><circle cx="198.46919407216998" cy="195.875" r="4" fill="steelblue" /><circle cx="147.91706037611806" cy="167.75" r="4" fill="steelblue" /><circle cx="165.2807054485345" cy="145.25" r="4" fill="steelblue" /><circle cx="148.53539013315637" cy="229.625" r="4" fill="steelblue" /><circle cx="393.7876471186198" cy="184.625" r="4" fill="crimson" /><circle cx="392.1164006527877" cy="150.875" r="4" fill="crimson" /><circle cx="367.28769202541463" cy="134" r="4" fill="crimson" /><circle cx="397.791252835951" cy="89" r="4" fill="crimson" /><circle cx="395.7458422973166" cy="55.25" r="4" fill="crimson" /><circle cx="397.9150905289935" cy="105.875" r="4" fill="crimson" /><circle cx="593.7876471220882" cy="274.625" r="4" fill="seagreen" /><circle cx="580.8679922904162" cy="240.875" r="4" fill="seagreen" /><circle cx="582.1192126415797" cy="224" r="4" fill="seagreen" /><circle cx="577.2463138517772" cy="207.125" r="4" fill="seagreen" /><circle cx="576.4037635200101" cy="179" r="4" fill="seagreen" /><circle cx="563.754260125693" cy="252.125" r="4" fill="seagreen" /></svg>