<svg xmlns="http://www.w3.org/2000/svg" width="766.2" height="545" font-family="DejaVu Sans, Liberation Sans, Arial, sans-serif" fill="black"><rect width="100%" height="100%" fill="white" /><line x1="72.19999999999999" y1="494" x2="672.2" y2="494" stroke="black" stroke-width="1" /><line x1="72.19999999999999" y1="44" x2="72.19999999999999" y2="494" stroke="black" stroke-width="1" /><line x1="72.19999999999999" y1="404" x2="672.2" y2="404" stroke="#ccc" stroke-width="1" /><line x1="72.19999999999999" y1="314" x2="672.2" y2="314" stroke="#ccc" stroke-width="1" /><line x1="72.19999999999999" y1="224" x2="672.2" y2="224" stroke="#ccc" stroke-width="1" /><line x1="72.19999999999999" y1="134" x2="672.2" y2="134" stroke="#ccc" stroke-width="1" /><line x1="72.19999999999999" y1="44" x2="672.2" y2="44" stroke="#ccc" stroke-width="1" /><text x="172.2" y="511" font-size="12" text-anchor="middle">WT</text><line x1="172.2" y1="494" x2="172.2" y2="499" stroke="black" stroke-width="1" /><text x="372.2" y="511" font-size="12" text-anchor="middle">HET</text><line x1="372.2" y1="494" x2="372.2" y2="499" stroke="black" stroke-width="1" /><text x="572.2" y="511" font-size="12" text-anchor="middle">KO</text><line x1="572.2" y1="494" x2="572.2" y2="499" stroke="black" stroke-width="1" /><line x1="67.19999999999999" y1="494" x2="72.19999999999999" y2="494" stroke="black" stroke-width="1" /><text x="64.19999999999999" y="498.2" font-size="12" text-anchor="end">0</text><line x1="67.19999999999999" y1="404" x2="72.19999999999999" y2="404" stroke="black" stroke-width="1" /><text x="64.19999999999999" y="408.2" font-size="12" text-anchor="end">2.5</text><line x1="67.19999999999999" y1="314" x2="72.19999999999999" y2="314" stroke="black" stroke-width="1" /><text x="64.19999999999999" y="318.2" font-size="12" text-anchor="end">5</text><line x1="67.19999999999999" y1="224" x2="72.19999999999999" y2="224" stroke="black" stroke-width="1" /><text x="64.19999999999999" y="228.2" font-size="12" text-anchor="end">7.5</text><line x1="67.19999999999999" y1="134" x2="72.19999999999999" y2="134" stroke="black" stroke-width="1" /><text x="64.19999999999999" y="138.2" font-size="12" text-anchor="end">10</text><line x1="67.19999999999999" y1="44" x2="72.19999999999999" y2="44" stroke="black" stroke-width="1" /><text x="64.19999999999999" y="48.2" font-size="12" text-anchor="end">12.5</text><text x="14" y="272.5" font-size="14" text-anchor="middle" transform="rotate(-90,14,272.5)">Expression</text><text x="383.1" y="22" font-size="18" text-anchor="middle">Two Lines – Palette</text><circle cx="193.78764711515504" cy="317.859438896801" r="2.5" fill="#E69F00" /><circle cx="188.3666259865027" cy="326.22383366514157" r="2.5" fill="#E69F00" /><circle cx="198.46919407216998" cy="309.81127335393694" r="2.5" fill="#E69F00" /><circle cx="147.91706037611806" cy="373.8600875278337" r="2.5" fill="#E69F00" /><circle cx="165.2807054485345" cy="313.5106806966521" r="2.5" fill="#E69F00" /><circle cx="148.53539013315637" cy="365.2795622083472" r="2.5" fill="#E69F00" /><circle cx="143.15226062159888" cy="322.24029442252277" r="2.5" fill="#E69F00" /><circle cx="159.74383688276956" cy="308.5701366153048" r="2.5" fill="#E69F00" /><circle cx="170.3626521389996" cy="330.47996388665695" r="2.5" fill="#E69F00" /><circle cx="192.8387533481752" cy="296.9187496720276" r="2.5" fill="#E69F00" /><circle cx="147.02943312892654" cy="367.5220414590934" r="2.5" fill="#E69F00" /><circle cx="195.08334532783638" cy="316.69676284599313" r="2.5" fill="#E69F00" /><circle cx="143.75776361243348" cy="320.5545931081987" r="2.5" fill="#E69F00" /><circle cx="162.715107875484" cy="323.18638563287936" r="2.5" fill="#E69F00" /><circle cx="171.23578804214716" cy="395.21686227357856" r="2.5" fill="#E69F00" /><circle cx="175.4884401595193" cy="339.7914698840295" r="2.5" fill="#E69F00" /><circle cx="169.53633609370132" cy="358.92000050903" r="2.5" fill="#E69F00" /><circle cx="195.11130753943118" cy="302.11911281011385" r="2.5" fill="#E69F00" /><circle cx="177.95427231016689" cy="284.22719333570944" r="2.5" fill="#E69F00" /><circle cx="195.2113989194852" cy="283.56167727566844" r="2.5" fill="#E69F00" /><circle cx="158.4458994290369" cy="333.8355751238622" r="2.5" fill="#E69F00" /><circle cx="154.58171158877286" cy="263.3019504959721" r="2.5" fill="#E69F00" /><circle cx="194.24097683238972" cy="328.0211808253446" r="2.5" fill="#E69F00" /><circle cx="143.13009879599997" cy="316.0106612621704" r="2.5" fill="#E69F00" /><circle cx="172.93130206775368" cy="301.00279432211477" r="2.5" fill="#E69F00" /><circle cx="178.27343549922887" cy="298.84479167554764" r="2.5" fill="#E69F00" /><circle cx="176.7710749134268" cy="317.97444340912125" r="2.5" fill="#E69F00" /><circle cx="164.13718255625633" cy="337.29238963691955" r="2.5" fill="#E69F00" /><circle cx="171.98295779804346" cy="345.09847092500763" r="2.5" fill="#E69F00" /><circle cx="170.73579964053232" cy="339.08778841903063" r="2.5" fill="#E69F00" /><circle cx="147.29023310847333" cy="259.0265356123056" r="2.5" fill="#E69F00" /><circle cx="165.05645532270813" cy="306.81941074722033" r="2.5" fill="#E69F00" /><circle cx="144.03162385760163" cy="350.4465267462228" r="2.5" fill="#E69F00" /><circle cx="159.3858462176625" cy="319.1814441620045" r="2.5" fill="#E69F00" /><circle cx="185.25890485185977" cy="350.0390231405183" r="2.5" fill="#E69F00" /><circle cx="170.29888473224807" cy="332.611143338213" r="2.5" fill="#E69F00" /><circle cx="179.75238649595445" cy="293.5068631198782" r="2.5" fill="#E69F00" /><circle cx="196.4366055995211" cy="322.1977576281581" r="2.5" fill="#E69F00" /><circle cx="159.06817666948058" cy="327.82654602928494" r="2.5" fill="#E69F00" /><circle cx="147.35422309442288" cy="368.29425582417707" r="2.5" fill="#E69F00" /><circle cx="159.65481888036038" cy="332.0548966706387" r="2.5" fill="#E69F00" /><circle cx="179.84774317580732" cy="353.6482083591691" r="2.5" fill="#E69F00" /><circle cx="161.151924818022" cy="317.43838346936934" r="2.5" fill="#E69F00" /><circle cx="191.70738073030836" cy="306.30188194271034" r="2.5" fill="#E69F00" /><circle cx="160.01840344817728" cy="376.7299348277925" r="2.5" fill="#E69F00" /><circle cx="169.08443000735707" cy="253.9426904296902" r="2.5" fill="#E69F00" /><circle cx="162.452928334144" cy="389.70261557972185" r="2.5" fill="#E69F00" /><circle cx="158.02830826679948" cy="324.9183610385435" r="2.5" fill="#E69F00" /><circle cx="153.5869277241529" cy="236.8953665013929" r="2.5" fill="#E69F00" /><circle cx="155.72692718711357" cy="298.74011492394595" r="2.5" fill="#E69F00" /><circle cx="161.18640403832364" cy="314.4618700350628" r="2.5" fill="#E69F00" /><circle cx="191.33012536423865" cy="315.1922656596065" r="2.5" fill="#E69F00" /><circle cx="146.88111751568266" cy="260.6265440947527" r="2.5" fill="#E69F00" /><circle cx="175.5526366663579" cy="267.16810342878136" r="2.5" fill="#E69F00" /><circle cx="158.8832085929409" cy="363.81793455377067" r="2.5" fill="#E69F00" /><circle cx="179.80310486179548" cy="319.4845106862468" r="2.5" fill="#E69F00" /><circle cx="144.3267207106785" cy="305.0282117235597" r="2.5" fill="#E69F00" /><circle cx="169.8798584112057" cy="294.9553523801866" r="2.5" fill="#E69F00" /><circle cx="198.94677991156317" cy="305.30686848505195" r="2.5" fill="#E69F00" /><circle cx="169.19132684130585" cy="305.6659692626675" r="2.5" fill="#E69F00" /><circle cx="143.01146474349275" cy="329.352409869635" r="2.5" fill="#E69F00" /><circle cx="171.80838262949516" cy="311.36023295066246" r="2.5" fill="#E69F00" /><circle cx="146.10150412819758" cy="310.56279629706836" r="2.5" fill="#E69F00" /><circle cx="196.58091607189894" cy="288.8044753700967" r="2.5" fill="#E69F00" /><circle cx="189.23499993930156" cy="312.45849480016506" r="2.5" fill="#E69F00" /><circle cx="187.3623967026041" cy="285.68170299660756" r="2.5" fill="#E69F00" /><circle cx="168.38125033585422" cy="322.29296673855174" r="2.5" fill="#E69F00" /><circle cx="157.07859278826294" cy="316.10921586270337" r="2.5" fill="#E69F00" /><circle cx="152.8487853153004" cy="295.7627223928257" r="2.5" fill="#E69F00" /><circle cx="195.38344531556473" cy="305.19754598374584" r="2.5" fill="#E69F00" /><circle cx="193.61934971191886" cy="329.15619104861173" r="2.5" fill="#E69F00" /><circle cx="173.1516731811177" cy="350.35483486576777" r="2.5" fill="#E69F00" /><circle cx="193.09238892329302" cy="294.8085445323346" r="2.5" fill="#E69F00" /><circle cx="161.70575311791617" cy="355.4120731099621" r="2.5" fill="#E69F00" /><circle cx="158.57479780880485" cy="341.48725590578823" r="2.5" fill="#E69F00" /><circle cx="171.21943897734852" cy="288.8158213297711" r="2.5" fill="#E69F00" /><circle cx="176.63245119250197" cy="296.42169075626305" r="2.5" fill="#E69F00" /><circle cx="177.67766609032356" cy="262.8438613953832" r="2.5" fill="#E69F00" /><circle cx="196.7433523343119" cy="319.9616375847103" r="2.5" fill="#E69F00" /><circle cx="154.12808940229417" cy="248.40038416458023" r="2.5" fill="#E69F00" /><circle cx="155.51803749839436" cy="305.14011199284334" r="2.5" fill="#E69F00" /><circle cx="178.52999190610393" cy="286.9649434622404" r="2.5" fill="#E69F00" /><circle cx="161.64500845432738" cy="331.3768184017469" r="2.5" fill="#E69F00" /><circle cx="192.79369423334742" cy="298.28596594461294" r="2.5" fill="#E69F00" /><circle cx="193.82625056531327" cy="301.9756214148136" r="2.5" fill="#E69F00" /><circle cx="144.4689217631717" cy="333.2561146729754" r="2.5" fill="#E69F00" /><circle cx="156.04589977510162" cy="346.58887205161034" r="2.5" fill="#E69F00" /><circle cx="150.9719657520339" cy="259.3647623346767" r="2.5" fill="#E69F00" /><circle cx="196.83602741364857" cy="345.67385326379423" r="2.5" fill="#E69F00" /><circle cx="188.41823152939656" cy="354.75209021451707" r="2.5" fill="#E69F00" /><circle cx="167.1079982393453" cy="391.09169721369585" r="2.5" fill="#E69F00" /><circle cx="165.98557291205367" cy="318.02337874869204" r="2.5" fill="#E69F00" /><circle cx="144.28898912821253" cy="356.31249054358204" r="2.5" fill="#E69F00" /><circle cx="182.13352155865383" cy="311.6712585510628" r="2.5" fill="#E69F00" /><circle cx="149.35804818617237" cy="324.95900392767356" r="2.5" fill="#E69F00" /><circle cx="187.41684472136058" cy="337.0975600834935" r="2.5" fill="#E69F00" /><circle cx="156.12154891613477" cy="347.477399145399" r="2.5" fill="#E69F00" /><circle cx="199.27493295134957" cy="350.03503580789504" r="2.5" fill="#E69F00" /><circle cx="179.5816570775226" cy="307.65279878573705" r="2.5" fill="#E69F00" /><circle cx="162.42635150562035" cy="340.49798852753736" r="2.5" fill="#E69F00" /><circle cx="171.32533859312713" cy="261.601754749718" r="2.5" fill="#E69F00" /><circle cx="182.34069305096904" cy="302.9693783939612" r="2.5" fill="#E69F00" /><circle cx="193.11465569425485" cy="257.9680998042569" r="2.5" fill="#E69F00" /><circle cx="150.82880580690335" cy="287.8026475414381" r="2.5" fill="#E69F00" /><circle cx="152.01498819670405" cy="336.53890426649025" r="2.5" fill="#E69F00" /><circle cx="151.47744952198912" cy="273.1316319504108" r="2.5" fill="#E69F00" /><circle cx="171.9135326882457" cy="283.0879146178179" r="2.5" fill="#E69F00" /><circle cx="172.20262762708626" cy="303.6836857478797" r="2.5" fill="#E69F00" /><circle cx="143.58730691342436" cy="305.62288150873934" r="2.5" fill="#E69F00" /><circle cx="175.47201746336015" cy="305.15944354392775" r="2.5" fill="#E69F00" /><circle cx="161.69098302480148" cy="332.0009274039254" r="2.5" fill="#E69F00" /><circle cx="156.97523200941743" cy="324.64406675655573" r="2.5" fill="#E69F00" /><circle cx="182.60317912637836" cy="305.16942541521547" r="2.5" fill="#E69F00" /><circle cx="181.22487934884407" cy="317.92938790821256" r="2.5" fill="#E69F00" /><circle cx="188.09235074568886" cy="312.116450044413" r="2.5" fill="#E69F00" /><circle cx="157.20109514722856" cy="320.80932629075073" r="2.5" fill="#E69F00" /><circle cx="170.0074639483597" cy="352.9965378576768" r="2.5" fill="#E69F00" /><circle cx="153.21778524467004" cy="313.8122409963265" r="2.5" fill="#E69F00" /><circle cx="188.72999038150348" cy="344.23479918492694" r="2.5" fill="#E69F00" /><circle cx="151.30180723164713" cy="296.2828412904253" r="2.5" fill="#E69F00" /><circle cx="197.2474457139652" cy="296.4186671272612" r="2.5" fill="#E69F00" /><circle cx="192.3031163752886" cy="289.14360440421297" r="2.5" fill="#E69F00" /><circle cx="160.81657256612044" cy="308.81452959403316" r="2.5" fill="#E69F00" /><circle cx="192.11292042091029" cy="307.5863517702195" r="2.5" fill="#E69F00" /><circle cx="150.7802038323267" cy="308.94972891819896" r="2.5" fill="#E69F00" /><circle cx="168.899772009978" cy="330.929654880046" r="2.5" fill="#E69F00" /><circle cx="153.95169276953663" cy="329.50392755788016" r="2.5" fill="#E69F00" /><circle cx="164.12624193609352" cy="280.4789438566377" r="2.5" fill="#E69F00" /><circle cx="197.17172896458055" cy="298.4382341756002" r="2.5" fill="#E69F00" /><circle cx="151.75191566507903" cy="294.4930866804493" r="2.5" fill="#E69F00" /><circle cx="190.39551863097145" cy="338.25204327874434" r="2.5" fill="#E69F00" /><circle cx="157.18899483069475" cy="343.6547159881124" r="2.5" fill="#E69F00" /><circle cx="199.84377570962283" cy="325.9024266959142" r="2.5" fill="#E69F00" /><circle cx="194.4117778869274" cy="233.2280774493086" r="2.5" fill="#E69F00" /><circle cx="198.74417068517056" cy="303.8110161136268" r="2.5" fill="#E69F00" /><circle cx="142.85406926552363" cy="324.5117559028069" r="2.5" fill="#E69F00" /><circle cx="164.22057289884262" cy="290.3421750328341" r="2.5" fill="#E69F00" /><circle cx="158.50304741158982" cy="328.93497131783204" r="2.5" fill="#E69F00" /><circle cx="178.60344722706373" cy="325.95462138298933" r="2.5" fill="#E69F00" /><circle cx="149.2138077556082" cy="314.8519739236996" r="2.5" fill="#E69F00" /><circle cx="161.41759014800235" cy="279.51967383272836" r="2.5" fill="#E69F00" /><circle cx="171.88312721849474" cy="268.87780934684724" r="2.5" fill="#E69F00" /><circle cx="193.73203691462342" cy="295.2892930046778" r="2.5" fill="#E69F00" /><circle cx="152.5887814104542" cy="311.0944038326269" r="2.5" fill="#E69F00" /><circle cx="157.52646062079157" cy="316.9614560018176" r="2.5" fill="#E69F00" /><circle cx="184.67686469063062" cy="347.83475334540276" r="2.5" fill="#E69F00" /><circle cx="150.33488765667602" cy="363.2972429785524" r="2.5" fill="#E69F00" /><circle cx="149.92228143506907" cy="376.6729722294605" r="2.5" fill="#E69F00" /><circle cx="152.83755327152454" cy="383.269917278118" r="2.5" fill="#E69F00" /><circle cx="174.83395848026265" cy="315.2925181687532" r="2.5" fill="#E69F00" /><circle cx="143.52683768270114" cy="280.2195279081998" r="2.5" fill="#E69F00" /><circle cx="168.06266494546122" cy="304.1172696898633" r="2.5" fill="#E69F00" /><circle cx="163.54548430080743" cy="280.4221574790388" r="2.5" fill="#E69F00" /><circle cx="167.11102722298182" cy="278.25137023454784" r="2.5" fill="#E69F00" /><circle cx="163.82276705856762" cy="292.2466525364039" r="2.5" fill="#E69F00" /><circle cx="153.81566491075006" cy="345.10941044888466" r="2.5" fill="#E69F00" /><circle cx="202.066976360878" cy="342.88195143422263" r="2.5" fill="#E69F00" /><circle cx="158.75628101921302" cy="320.88777001931464" r="2.5" fill="#E69F00" /><circle cx="171.68232390888073" cy="376.5274139621083" r="2.5" fill="#E69F00" /><circle cx="188.27230761044035" cy="274.05654300601486" r="2.5" fill="#E69F00" /><circle cx="188.1104475535946" cy="236.68969290250254" r="2.5" fill="#E69F00" /><circle cx="184.4882232959157" cy="330.6213227114803" r="2.5" fill="#E69F00" /><circle cx="168.65602902212112" cy="327.16093178131666" r="2.5" fill="#E69F00" /><circle cx="187.42008414698057" cy="275.1206762502945" r="2.5" fill="#E69F00" /><circle cx="145.05220744928712" cy="288.9515014595777" r="2.5" fill="#E69F00" /><circle cx="175.7974534346289" cy="332.8012152962807" r="2.5" fill="#E69F00" /><circle cx="177.62172402930182" cy="354.88798020173203" r="2.5" fill="#E69F00" /><circle cx="201.18821308834205" cy="388.65884748731753" r="2.5" fill="#E69F00" /><circle cx="152.8171888948176" cy="274.7043986623741" r="2.5" fill="#E69F00" /><circle cx="182.9250371382305" cy="335.30193251736694" r="2.5" fill="#E69F00" /><circle cx="186.92414698527438" cy="310.0123161465818" r="2.5" fill="#E69F00" /><circle cx="155.17174690042444" cy="323.89064675657585" r="2.5" fill="#E69F00" /><circle cx="152.92337676900124" cy="283.70258539399947" r="2.5" fill="#E69F00" /><circle cx="151.96180976393606" cy="259.2891384323351" r="2.5" fill="#E69F00" /><circle cx="155.07762992938427" cy="330.82360532938804" r="2.5" fill="#E69F00" /><circle cx="163.72499892077985" cy="310.53943864573125" r="2.5" fill="#E69F00" /><circle cx="143.98957791127793" cy="403.85233378796283" r="2.5" fill="#E69F00" /><circle cx="183.9629229298223" cy="347.9587119787408" r="2.5" fill="#E69F00" /><circle cx="173.90290200407293" cy="324.2654235353058" r="2.5" fill="#E69F00" /><circle cx="175.67354386292743" cy="253.15677978926044" r="2.5" fill="#E69F00" /><circle cx="172.74608568176112" cy="312.6688996494304" r="2.5" fill="#E69F00" /><circle cx="145.17838955625888" cy="264.0773938253993" r="2.5" fill="#E69F00" /><circle cx="153.43572266446787" cy="257.2404898348898" r="2.5" fill="#E69F00" /><circle cx="198.39872299600344" cy="308.53254602853895" r="2.5" fill="#E69F00" /><circle cx="158.58762891850444" cy="298.14956617127984" r="2.5" fill="#E69F00" /><circle cx="179.21369759992683" cy="298.8074528061784" r="2.5" fill="#E69F00" /><circle cx="171.44810287310267" cy="280.50814686588205" r="2.5" fill="#E69F00" /><circle cx="177.5298949209909" cy="307.73408706707045" r="2.5" fill="#E69F00" /><circle cx="155.021600139183" cy="313.67084987782187" r="2.5" fill="#E69F00" /><circle cx="194.76903897341685" cy="337.41030906793515" r="2.5" fill="#E69F00" /><circle cx="180.70856114183567" cy="299.25333464524306" r="2.5" fill="#E69F00" /><circle cx="181.14991759783902" cy="288.2815719816633" r="2.5" fill="#E69F00" /><circle cx="186.44593477334283" cy="306.066260689876" r="2.5" fill="#E69F00" /><circle cx="143.99346207150205" cy="244.42032246677368" r="2.5" fill="#E69F00" /><circle cx="166.1189907108171" cy="282.6556101987826" r="2.5" fill="#E69F00" /><circle cx="178.0942637475786" cy="349.19133119794174" r="2.5" fill="#E69F00" /><circle cx="160.12775479241338" cy="340.74688734580604" r="2.5" fill="#E69F00" /><circle cx="191.2569737707039" cy="339.33551746222804" r="2.5" fill="#E69F00" /><circle cx="145.2968745296307" cy="332.5965406107332" r="2.5" fill="#E69F00" /><circle cx="150.62743449176037" cy="326.5636808140234" r="2.5" fill="#E69F00" /><circle cx="393.7876471186198" cy="269.1386674244802" r="2.5" fill="#E69F00" /><circle cx="392.1164006527877" cy="243.9696890451447" r="2.5" fill="#E69F00" /><circle cx="367.28769202541463" cy="195.1188836537117" r="2.5" fill="#E69F00" /><circle cx="397.791252835951" cy="312.9717682723042" r="2.5" fill="#E69F00" /><circle cx="395.7458422973166" cy="225.33375463581484" r="2.5" fill="#E69F00" /><circle cx="397.9150905289935" cy="198.0269404559224" r="2.5" fill="#E69F00" /><circle cx="381.18509384967325" cy="296.29658508525284" r="2.5" fill="#E69F00" /><circle cx="375.23778982557866" cy="255.34532014064493" r="2.5" fill="#E69F00" /><circle cx="343.3930586887944" cy="285.7815458301958" r="2.5" fill="#E69F00" /><circle cx="382.4361190438874" cy="193.48273611244326" r="2.5" fill="#E69F00" /><circle cx="344.1498680894313" cy="287.16026288139926" r="2.5" fill="#E69F00" /><circle cx="345.4957407368429" cy="294.863237699603" r="2.5" fill="#E69F00" /><circle cx="359.20671894363187" cy="228.76503104420397" r="2.5" fill="#E69F00" /><circle cx="388.93188462405345" cy="248.3492470843773" r="2.5" fill="#E69F00" /><circle cx="399.01034596794733" cy="256.49273170587884" r="2.5" fill="#E69F00" /><circle cx="357.5761834785947" cy="264.56911242551655" r="2.5" fill="#E69F00" /><circle cx="368.33678836143264" cy="252.405331446343" r="2.5" fill="#E69F00" /><circle cx="359.27849047421773" cy="226.43260128854143" r="2.5" fill="#E69F00" /><circle cx="377.4706236482808" cy="273.4901406615993" r="2.5" fill="#E69F00" /><circle cx="376.6985319894819" cy="284.2520964418999" r="2.5" fill="#E69F00" /><circle cx="385.1798034598715" cy="307.45163331961396" r="2.5" fill="#E69F00" /><circle cx="368.5112910549094" cy="239.00157950495304" r="2.5" fill="#E69F00" /><circle cx="401.1178079190611" cy="226.0897365232011" r="2.5" fill="#E69F00" /><circle cx="366.45555808886667" cy="213.9373970818695" r="2.5" fill="#E69F00" /><circle cx="357.26560193605405" cy="248.34623023304496" r="2.5" fill="#E69F00" /><circle cx="367.3652155602124" cy="234.99727550004565" r="2.5" fill="#E69F00" /><circle cx="394.3840739152313" cy="263.4641396151785" r="2.5" fill="#E69F00" /><circle cx="366.8048493626568" cy="229.66308414818735" r="2.5" fill="#E69F00" /><circle cx="352.89271823620726" cy="272.17447576564496" r="2.5" fill="#E69F00" /><circle cx="350.3226637421305" cy="241.81564670366467" r="2.5" fill="#E69F00" /><circle cx="386.38890035401454" cy="237.2896836477234" r="2.5" fill="#E69F00" /><circle cx="374.58287145163575" cy="285.70169402949085" r="2.5" fill="#E69F00" /><circle cx="355.01194825028" cy="201.98496957433645" r="2.5" fill="#E69F00" /><circle cx="369.67858941189303" cy="263.14783012799694" r="2.5" fill="#E69F00" /><circle cx="344.35585204360115" cy="270.77466118395233" r="2.5" fill="#E69F00" /><circle cx="401.45404840238996" cy="268.7532405498049" r="2.5" fill="#E69F00" /><circle cx="381.9643294325906" cy="287.1232837943737" r="2.5" fill="#E69F00" /><circle cx="343.12700086356017" cy="213.7276547327869" r="2.5" fill="#E69F00" /><circle cx="398.0436802792545" cy="273.7050478983749" r="2.5" fill="#E69F00" /><circle cx="351.33409088626905" cy="272.36183156834875" r="2.5" fill="#E69F00" /><circle cx="367.4318869900695" cy="294.3566320656065" r="2.5" fill="#E69F00" /><circle cx="367.43461360058217" cy="225.59205125992787" r="2.5" fill="#E69F00" /><circle cx="364.9500275231384" cy="348.71149304552205" r="2.5" fill="#E69F00" /><circle cx="378.07192995217486" cy="325.7656133806937" r="2.5" fill="#E69F00" /><circle cx="381.04017413102844" cy="298.7944174714021" r="2.5" fill="#E69F00" /><circle cx="374.30592480071624" cy="289.65790801033984" r="2.5" fill="#E69F00" /><circle cx="368.0305967595837" cy="243.1384961637664" r="2.5" fill="#E69F00" /><circle cx="360.0130672178932" cy="340.5849381984756" r="2.5" fill="#E69F00" /><circle cx="398.4065814457769" cy="241.08371316426246" r="2.5" fill="#E69F00" /><circle cx="374.32711712553106" cy="243.31547289195103" r="2.5" fill="#E69F00" /><circle cx="362.8587328188707" cy="288.18605088808886" r="2.5" fill="#E69F00" /><circle cx="379.5450181435366" cy="203.53304169941458" r="2.5" fill="#E69F00" /><circle cx="353.0194858992298" cy="244.70546168635775" r="2.5" fill="#E69F00" /><circle cx="395.54816663391796" cy="277.1206015421152" r="2.5" fill="#E69F00" /><circle cx="394.7056470102134" cy="272.2267596144202" r="2.5" fill="#E69F00" /><circle cx="388.8320515987463" cy="281.79373077238904" r="2.5" fill="#E69F00" /><circle cx="392.182109114549" cy="247.02343612909175" r="2.5" fill="#E69F00" /><circle cx="364.40887576950087" cy="282.19873780841596" r="2.5" fill="#E69F00" /><circle cx="343.7738180874522" cy="248.3660863861579" r="2.5" fill="#E69F00" /><circle cx="355.56669975473267" cy="268.80567140152516" r="2.5" fill="#E69F00" /><circle cx="379.08763944357503" cy="322.4821508611186" r="2.5" fill="#E69F00" /><circle cx="343.64228502356127" cy="253.806674742704" r="2.5" fill="#E69F00" /><circle cx="348.5353263023028" cy="309.0886876960229" r="2.5" fill="#E69F00" /><circle cx="388.8282720779491" cy="250.77749263948598" r="2.5" fill="#E69F00" /><circle cx="366.7380730255538" cy="295.8416032700696" r="2.5" fill="#E69F00" /><circle cx="397.4301075739565" cy="226.81813139433507" r="2.5" fill="#E69F00" /><circle cx="349.560804981323" cy="267.75254106167654" r="2.5" fill="#E69F00" /><circle cx="383.41870873834404" cy="247.97906506621163" r="2.5" fill="#E69F00" /><circle cx="395.58235538145993" cy="313.84439730078384" r="2.5" fill="#E69F00" /><circle cx="385.36596601671926" cy="291.81676180955185" r="2.5" fill="#E69F00" /><circle cx="400.921747561437" cy="201.79112695145642" r="2.5" fill="#E69F00" /><circle cx="401.8673990147184" cy="285.34831648936154" r="2.5" fill="#E69F00" /><circle cx="391.09983388250834" cy="318.23257548275615" r="2.5" fill="#E69F00" /><circle cx="399.72518056786686" cy="298.0102364630826" r="2.5" fill="#E69F00" /><circle cx="375.4883591186531" cy="249.50937127119616" r="2.5" fill="#E69F00" /><circle cx="379.9754916180199" cy="265.8661305715764" r="2.5" fill="#E69F00" /><circle cx="361.5478220967094" cy="329.8724050183795" r="2.5" fill="#E69F00" /><circle cx="386.25414125740883" cy="351.0141439194505" r="2.5" fill="#E69F00" /><circle cx="350.5464031318496" cy="278.9105005960013" r="2.5" fill="#E69F00" /><circle cx="377.13106491942096" cy="291.77639576886884" r="2.5" fill="#E69F00" /><circle cx="354.68285159078005" cy="290.6034688954975" r="2.5" fill="#E69F00" /><circle cx="396.06095515780027" cy="296.50096395174126" r="2.5" fill="#E69F00" /><circle cx="367.04204805339066" cy="267.0786474504688" r="2.5" fill="#E69F00" /><circle cx="367.2362772538582" cy="304.0037511898039" r="2.5" fill="#E69F00" /><circle cx="392.05532276006335" cy="249.85902241779607" r="2.5" fill="#E69F00" /><circle cx="366.92730085047316" cy="283.69766684757553" r="2.5" fill="#E69F00" /><circle cx="379.2404273602494" cy="291.68682669381525" r="2.5" fill="#E69F00" /><circle cx="383.4380900361714" cy="238.63692095546946" r="2.5" fill="#E69F00" /><circle cx="400.7355000613781" cy="314.9382965127825" r="2.5" fill="#E69F00" /><circle cx="378.32241974067216" cy="232.3155297765967" r="2.5" fill="#E69F00" /><circle cx="343.00134142973707" cy="262.2435705227849" r="2.5" fill="#E69F00" /><circle cx="377.6156281898334" cy="295.3552755089044" r="2.5" fill="#E69F00" /><circle cx="356.5411400442899" cy="211.42032217510365" r="2.5" fill="#E69F00" /><circle cx="350.8121699137712" cy="263.0798834466698" r="2.5" fill="#E69F00" /><circle cx="392.71978867676495" cy="314.6754165592148" r="2.5" fill="#E69F00" /><circle cx="343.1711451454336" cy="251.62140442482402" r="2.5" fill="#E69F00" /><circle cx="388.5003064405718" cy="174.97909871592356" r="2.5" fill="#E69F00" /><circle cx="390.6959528019102" cy="218.23333494249147" r="2.5" fill="#E69F00" /><circle cx="394.41873412156326" cy="295.85368247045074" r="2.5" fill="#E69F00" /><circle cx="387.56708767334305" cy="235.87217833403508" r="2.5" fill="#E69F00" /><circle cx="351.58184880772876" cy="275.10365661080937" r="2.5" fill="#E69F00" /><circle cx="377.23889282692016" cy="321.2073829244313" r="2.5" fill="#E69F00" /><circle cx="395.22380558052225" cy="346.3577160596503" r="2.5" fill="#E69F00" /><circle cx="371.54321875407504" cy="204.32149848347206" r="2.5" fill="#E69F00" /><circle cx="357.8346488200561" cy="279.54176364358375" r="2.5" fill="#E69F00" /><circle cx="344.4065120463636" cy="249.9209945038662" r="2.5" fill="#E69F00" /><circle cx="359.5073731560139" cy="270.9218457117615" r="2.5" fill="#E69F00" /><circle cx="374.83744256935" cy="189.68350467058013" r="2.5" fill="#E69F00" /><circle cx="369.91124524905354" cy="234.63489366828645" r="2.5" fill="#E69F00" /><circle cx="376.8097474389706" cy="217.56873984903729" r="2.5" fill="#E69F00" /><circle cx="381.11365400771723" cy="271.47944648050236" r="2.5" fill="#E69F00" /><circle cx="368.3603501077288" cy="288.7060580609725" r="2.5" fill="#E69F00" /><circle cx="363.5211074177687" cy="263.77970827247077" r="2.5" fill="#E69F00" /><circle cx="386.57814561327336" cy="279.2732286303485" r="2.5" fill="#E69F00" /><circle cx="371.32997197123785" cy="298.486426254917" r="2.5" fill="#E69F00" /><circle cx="387.0999040457185" cy="286.4607738986873" r="2.5" fill="#E69F00" /><circle cx="370.81948601088493" cy="264.1042453731163" r="2.5" fill="#E69F00" /><circle cx="360.4777037974881" cy="293.72688962084476" r="2.5" fill="#E69F00" /><circle cx="370.2479100480193" cy="258.75120399369086" r="2.5" fill="#E69F00" /><circle cx="379.8188784251223" cy="231.45264902328694" r="2.5" fill="#E69F00" /><circle cx="345.09982418452097" cy="283.5482929778205" r="2.5" fill="#E69F00" /><circle cx="384.9166213865829" cy="311.31178358736196" r="2.5" fill="#E69F00" /><circle cx="398.2669182027208" cy="276.94909691382657" r="2.5" fill="#E69F00" /><circle cx="391.47442501113926" cy="227.98282798158414" r="2.5" fill="#E69F00" /><circle cx="397.45202197836596" cy="274.00103147006996" r="2.5" fill="#E69F00" /><circle cx="367.23405567117464" cy="280.5311673485638" r="2.5" fill="#E69F00" /><circle cx="348.0412620753435" cy="237.55505364220664" r="2.5" fill="#E69F00" /><circle cx="369.8723108710234" cy="257.04715168734816" r="2.5" fill="#E69F00" /><circle cx="347.7046817008855" cy="269.04744163053135" r="2.5" fill="#E69F00" /><circle cx="356.5231698888086" cy="307.65173812834166" r="2.5" fill="#E69F00" /><circle cx="387.0765460057581" cy="235.03791944898018" r="2.5" fill="#E69F00" /><circle cx="366.4343892263579" cy="260.66224176051264" r="2.5" fill="#E69F00" /><circle cx="396.2794550790383" cy="283.12478937099183" r="2.5" fill="#E69F00" /><circle cx="380.8618231545919" cy="248.99516388291028" r="2.5" fill="#E69F00" /><circle cx="358.2694222701539" cy="314.42532387246837" r="2.5" fill="#E69F00" /><circle cx="394.0961509770659" cy="231.05340892990375" r="2.5" fill="#E69F00" /><circle cx="355.5553316586143" cy="244.03151431031463" r="2.5" fill="#E69F00" /><circle cx="382.2997279988331" cy="321.95165536429283" r="2.5" fill="#E69F00" /><circle cx="394.6798706672487" cy="282.23203196990835" r="2.5" fill="#E69F00" /><circle cx="344.16561937214334" cy="271.0613555936681" r="2.5" fill="#E69F00" /><circle cx="371.9385189180416" cy="283.27856669312087" r="2.5" fill="#E69F00" /><circle cx="401.7038693877538" cy="360.6297317914282" r="2.5" fill="#E69F00" /><circle cx="352.4520577791823" cy="275.7582353155839" r="2.5" fill="#E69F00" /><circle cx="362.7040916232064" cy="273.1019715964193" r="2.5" fill="#E69F00" /><circle cx="372.679119543937" cy="226.2985930057987" r="2.5" fill="#E69F00" /><circle cx="375.96864195301737" cy="290.49214696866085" r="2.5" fill="#E69F00" /><circle cx="347.9710721853595" cy="318.7827510865779" r="2.5" fill="#E69F00" /><circle cx="358.25574224219747" cy="234.4057761438495" r="2.5" fill="#E69F00" /><circle cx="343.99425152171904" cy="188.5782633010752" r="2.5" fill="#E69F00" /><circle cx="387.2406890870869" cy="266.05774857702636" r="2.5" fill="#E69F00" /><circle cx="353.7002980158444" cy="284.87260816210954" r="2.5" fill="#E69F00" /><circle cx="392.32105548283846" cy="326.445822527941" r="2.5" fill="#E69F00" /><circle cx="370.33688061384737" cy="371.37571360108586" r="2.5" fill="#E69F00" /><circle cx="401.032005374837" cy="292.9769920644727" r="2.5" fill="#E69F00" /><circle cx="376.30775768351344" cy="225.01357694877981" r="2.5" fill="#E69F00" /><circle cx="393.9487857930111" cy="239.67776904855918" r="2.5" fill="#E69F00" /><circle cx="392.6709571100968" cy="288.3436153128715" r="2.5" fill="#E69F00" /><circle cx="351.4681660974817" cy="220.99742181666454" r="2.5" fill="#E69F00" /><circle cx="382.58081810485305" cy="246.2350943016204" r="2.5" fill="#E69F00" /><circle cx="365.07030168529786" cy="315.65145152753985" r="2.5" fill="#E69F00" /><circle cx="369.8006884502641" cy="215.302912737498" r="2.5" fill="#E69F00" /><circle cx="354.96604758233855" cy="277.844720162699" r="2.5" fill="#E69F00" /><circle cx="363.651203198238" cy="287.1287134102024" r="2.5" fill="#E69F00" /><circle cx="395.2538769522568" cy="279.92662098658747" r="2.5" fill="#E69F00" /><circle cx="357.73636336790855" cy="302.62991249749297" r="2.5" fill="#E69F00" /><circle cx="386.15384596873326" cy="250.87201794203202" r="2.5" fill="#E69F00" /><circle cx="364.297267304795" cy="256.07695751919954" r="2.5" fill="#E69F00" /><circle cx="348.08288337642813" cy="321.60547371477475" r="2.5" fill="#E69F00" /><circle cx="367.8411024430423" cy="240.42982569291212" r="2.5" fill="#E69F00" /><circle cx="389.1313795245485" cy="263.1352526612303" r="2.5" fill="#E69F00" /><circle cx="352.5425415381634" cy="230.21463151956192" r="2.5" fill="#E69F00" /><circle cx="360.42543710726113" cy="297.9405519617248" r="2.5" fill="#E69F00" /><circle cx="377.92171218765696" cy="261.87970978942764" r="2.5" fill="#E69F00" /><circle cx="347.32167451761035" cy="263.59985440503476" r="2.5" fill="#E69F00" /><circle cx="347.4709026664558" cy="272.64517545468044" r="2.5" fill="#E69F00" /><circle cx="389.8327001170551" cy="263.8464183355673" r="2.5" fill="#E69F00" /><circle cx="374.9440675532232" cy="298.26265592075276" r="2.5" fill="#E69F00" /><circle cx="382.9266011570197" cy="333.74302172572914" r="2.5" fill="#E69F00" /><circle cx="401.88262606182656" cy="231.5545842081114" r="2.5" fill="#E69F00" /><circle cx="380.40928260278037" cy="298.6178163466999" r="2.5" fill="#E69F00" /><circle cx="364.8218571321489" cy="277.76120216958896" r="2.5" fill="#E69F00" /><circle cx="367.27966599987803" cy="314.27659308420874" r="2.5" fill="#E69F00" /><circle cx="354.3292425678036" cy="334.4598260911672" r="2.5" fill="#E69F00" /><circle cx="350.73929429381764" cy="242.27614410392312" r="2.5" fill="#E69F00" /><circle cx="350.65127081206856" cy="270.4553662676641" r="2.5" fill="#E69F00" /><circle cx="396.2763919459769" cy="282.9555815837258" r="2.5" fill="#E69F00" /><circle cx="386.430647179062" cy="320.55902366753213" r="2.5" fill="#E69F00" /><circle cx="376.4908990966492" cy="345.2599818659665" r="2.5" fill="#E69F00" /><circle cx="379.88778484118825" cy="288.31661229655225" r="2.5" fill="#E69F00" /><circle cx="377.6233576860677" cy="206.4032687269331" r="2.5" fill="#E69F00" /><circle cx="373.84440777017886" cy="247.98044886684673" r="2.5" fill="#E69F00" /><circle cx="387.5373027633341" cy="255.9271870843907" r="2.5" fill="#E69F00" /><circle cx="379.4799411130391" cy="211.97262227362836" r="2.5" fill="#E69F00" /><circle cx="359.2537938555607" cy="265.19213332606364" r="2.5" fill="#E69F00" /><circle cx="350.7148044572241" cy="274.1111784700262" r="2.5" fill="#E69F00" /><circle cx="398.7379203730473" cy="278.0784555751668" r="2.5" fill="#E69F00" /><circle cx="358.9447091031544" cy="286.8255787320209" r="2.5" fill="#E69F00" /><circle cx="357.24122950640736" cy="309.960141575516" r="2.5" fill="#E69F00" /><circle cx="389.46453660202167" cy="306.42364031322563" r="2.5" fill="#E69F00" /><circle cx="378.48455915105137" cy="241.79684557042143" r="2.5" fill="#E69F00" /><circle cx="593.7876471220882" cy="174.1501948077103" r="2.5" fill="#E69F00" /><circle cx="580.8679922904162" cy="237.3002650372934" r="2.5" fill="#E69F00" /><circle cx="582.1192126415797" cy="147.31834957799578" r="2.5" fill="#E69F00" /><circle cx="577.2463138517772" cy="191.46351249465897" r="2.5" fill="#E69F00" /><circle cx="576.4037635200101" cy="168.56839047404424" r="2.5" fill="#E69F00" /><circle cx="563.754260125693" cy="200.3713919628321" r="2.5" fill="#E69F00" /><circle cx="598.191313519399" cy="277.658447616687" r="2.5" fill="#E69F00" /><circle cx="551.6810886756402" cy="193.80358135391583" r="2.5" fill="#E69F00" /><circle cx="591.6318832025404" cy="241.72979343352512" r="2.5" fill="#E69F00" /><circle cx="595.9226731774577" cy="175.21721776625049" r="2.5" fill="#E69F00" /><circle cx="601.5550834186829" cy="202.0138583273212" r="2.5" fill="#E69F00" /><circle cx="587.9474697322582" cy="121.76163081543848" r="2.5" fill="#E69F00" /><circle cx="595.5036268966521" cy="190.04422554938907" r="2.5" fill="#E69F00" /><circle cx="553.6989073763134" cy="258.25837148759" r="2.5" fill="#E69F00" /><circle cx="575.041184661056" cy="223.34557111409038" r="2.5" fill="#E69F00" /><circle cx="593.6564782116568" cy="205.86847185884545" r="2.5" fill="#E69F00" /><circle cx="552.7392787149558" cy="272.6541448373472" r="2.5" fill="#E69F00" /><circle cx="586.1270402780005" cy="278.3930919381205" r="2.5" fill="#E69F00" /><circle cx="549.0048804628457" cy="210.50917256413152" r="2.5" fill="#E69F00" /><circle cx="556.4896449938292" cy="218.06662250626806" r="2.5" fill="#E69F00" /><circle cx="556.9707366613852" cy="254.16084621548228" r="2.5" fill="#E69F00" /><circle cx="581.421834429375" cy="186.2656254605355" r="2.5" fill="#E69F00" /><circle cx="544.8947975647266" cy="182.72118077697206" r="2.5" fill="#E69F00" /><circle cx="551.3626795648975" cy="207.33126011429812" r="2.5" fill="#E69F00" /><circle cx="591.990755513754" cy="171.58217606237503" r="2.5" fill="#E69F00" /><circle cx="591.1003192571404" cy="282.2149336062066" r="2.5" fill="#E69F00" /><circle cx="565.1721500135468" cy="223.25663814492015" r="2.5" fill="#E69F00" /><circle cx="583.6207564464885" cy="165.59440802386922" r="2.5" fill="#E69F00" /><circle cx="592.5782679927188" cy="208.56533018431946" r="2.5" fill="#E69F00" /><circle cx="582.586967507757" cy="188.812795689695" r="2.5" fill="#E69F00" /><circle cx="592.3077383026075" cy="306.9702316591373" r="2.5" fill="#E69F00" /><circle cx="562.7775584661867" cy="182.4589413170168" r="2.5" fill="#E69F00" /><circle cx="549.7564656790078" cy="170.0075941440648" r="2.5" fill="#E69F00" /><circle cx="597.7840198903259" cy="279.8588020431424" r="2.5" fill="#E69F00" /><circle cx="600.1242902478909" cy="98.52731537216005" r="2.5" fill="#E69F00" /><circle cx="593.6284888188288" cy="158.0985581356863" r="2.5" fill="#E69F00" /><circle cx="571.9182651617152" cy="188.36578269000438" r="2.5" fill="#E69F00" /><circle cx="572.1813644748321" cy="229.52982824641765" r="2.5" fill="#E69F00" /><circle cx="554.9572654852354" cy="208.1673415949495" r="2.5" fill="#E69F00" /><circle cx="577.6711195780265" cy="155.6288930911267" r="2.5" fill="#E69F00" /><circle cx="572.8662487814794" cy="145.27512940547598" r="2.5" fill="#E69F00" /><circle cx="561.7515143947135" cy="288.2919826701168" r="2.5" fill="#E69F00" /><circle cx="566.4732822544956" cy="215.75290960360303" r="2.5" fill="#E69F00" /><circle cx="552.8114726233711" cy="199.07441142125992" r="2.5" fill="#E69F00" /><circle cx="595.6321706179892" cy="271.6659674320561" r="2.5" fill="#E69F00" /><circle cx="545.8679403692322" cy="223.64929287517998" r="2.5" fill="#E69F00" /><circle cx="568.3994197699317" cy="196.1284075499177" r="2.5" fill="#E69F00" /><circle cx="545.0545084756973" cy="199.84170701123463" r="2.5" fill="#E69F00" /><circle cx="542.9547514205656" cy="201.49492132118297" r="2.5" fill="#E69F00" /><circle cx="543.2857103605934" cy="255.1766330099744" r="2.5" fill="#E69F00" /><circle cx="572.7320265664572" cy="155.01412265178317" r="2.5" fill="#E69F00" /><circle cx="600.3964704946663" cy="214.75423714753646" r="2.5" fill="#E69F00" /><circle cx="556.6467857729137" cy="220.0724563370125" r="2.5" fill="#E69F00" /><circle cx="569.5924531861112" cy="178.7085077641653" r="2.5" fill="#E69F00" /><circle cx="595.3707331562334" cy="192.43260877830693" r="2.5" fill="#E69F00" /><circle cx="546.9153477207672" cy="258.5516817060824" r="2.5" fill="#E69F00" /><circle cx="560.8382756549647" cy="185.808752001929" r="2.5" fill="#E69F00" /><circle cx="554.1082325786288" cy="244.32645486275723" r="2.5" fill="#E69F00" /><circle cx="571.795369215004" cy="194.8264130440228" r="2.5" fill="#E69F00" /><circle cx="556.3703907091995" cy="273.323554286068" r="2.5" fill="#E69F00" /><circle cx="581.0043731615285" cy="195.08091735718284" r="2.5" fill="#E69F00" /><circle cx="595.4932047470265" cy="128.99196309685" r="2.5" fill="#E69F00" /><circle cx="556.7185912755423" cy="153.06595427783458" r="2.5" fill="#E69F00" /><circle cx="574.8646823698789" cy="176.2585228908124" r="2.5" fill="#E69F00" /><circle cx="592.4320187792971" cy="146.31263321859603" r="2.5" fill="#E69F00" /><circle cx="565.1346186528817" cy="196.41124753232884" r="2.5" fill="#E69F00" /><circle cx="601.2453583707666" cy="200.04303462255183" r="2.5" fill="#E69F00" /><circle cx="579.3730049202984" cy="169.0940157032432" r="2.5" fill="#E69F00" /><circle cx="594.5447916926307" cy="276.0878371893876" r="2.5" fill="#E69F00" /><circle cx="591.1483928579323" cy="333.9718914375047" r="2.5" fill="#E69F00" /><circle cx="596.6267356076196" cy="271.5177391183814" r="2.5" fill="#E69F00" /><circle cx="599.4702146572013" cy="116.90424783099462" r="2.5" fill="#E69F00" /><circle cx="560.0327158561964" cy="189.02183058361237" r="2.5" fill="#E69F00" /><circle cx="559.3754999093663" cy="245.5509134927317" r="2.5" fill="#E69F00" /><circle cx="582.4485567214653" cy="255.7751070123394" r="2.5" fill="#E69F00" /><circle cx="554.9180406375519" cy="215.85571143926614" r="2.5" fill="#E69F00" /><circle cx="594.1382686177892" cy="271.5187275128985" r="2.5" fill="#E69F00" /><circle cx="542.4819867285681" cy="239.51443987471853" r="2.5" fill="#E69F00" /><circle cx="593.3885298216878" cy="181.7731954891313" r="2.5" fill="#E69F00" /><circle cx="568.3851351043852" cy="230.21426197618302" r="2.5" fill="#E69F00" /><circle cx="580.4524501573194" cy="187.76156262637943" r="2.5" fill="#E69F00" /><circle cx="554.094040299764" cy="231.3107190821524" r="2.5" fill="#E69F00" /><circle cx="574.836352731698" cy="278.2002816394778" r="2.5" fill="#E69F00" /><circle cx="586.8570833386016" cy="238.27874526787988" r="2.5" fill="#E69F00" /><circle cx="594.4968323992368" cy="322.77351945528045" r="2.5" fill="#E69F00" /><circle cx="545.2736332514946" cy="232.28784395396946" r="2.5" fill="#E69F00" /><circle cx="551.7169481266542" cy="227.1131671928107" r="2.5" fill="#E69F00" /><circle cx="562.667925467588" cy="220.3815225008504" r="2.5" fill="#E69F00" /><circle cx="599.5724792101948" cy="195.6009243879488" r="2.5" fill="#E69F00" /><circle cx="576.9421239209623" cy="206.7583024562183" r="2.5" fill="#E69F00" /><circle cx="573.0531732639573" cy="181.9020894433799" r="2.5" fill="#E69F00" /><circle cx="585.8401860975202" cy="285.8045183341122" r="2.5" fill="#E69F00" /><circle cx="557.1592101399892" cy="172.80584449199682" r="2.5" fill="#E69F00" /><circle cx="592.7744314890613" cy="200.31893933454722" r="2.5" fill="#E69F00" /><circle cx="563.046651746065" cy="159.09904433722159" r="2.5" fill="#E69F00" /><circle cx="560.5339865783767" cy="208.9917104455243" r="2.5" fill="#E69F00" /><circle cx="564.8323053282213" cy="300.0537781400543" r="2.5" fill="#E69F00" /><circle cx="573.6746992292047" cy="204.50232625149272" r="2.5" fill="#E69F00" /><circle cx="556.6972389036698" cy="263.5849413566663" r="2.5" fill="#E69F00" /><circle cx="594.8245002116878" cy="277.59697124575166" r="2.5" fill="#E69F00" /><circle cx="575.9065533596739" cy="194.7752696797342" r="2.5" fill="#E69F00" /><circle cx="565.9708602865671" cy="220.7904168737412" r="2.5" fill="#E69F00" /><circle cx="601.5478803560472" cy="268.97062582564536" r="2.5" fill="#E69F00" /><circle cx="590.7733141300203" cy="243.15939189634355" r="2.5" fill="#E69F00" /><circle cx="565.3060342256688" cy="98.97980729390918" r="2.5" fill="#E69F00" /><circle cx="557.1116545046137" cy="265.6633579221151" r="2.5" fill="#E69F00" /><circle cx="546.194750055098" cy="180.52310775127194" r="2.5" fill="#E69F00" /><circle cx="580.2488569736254" cy="118.81154756864595" r="2.5" fill="#E69F00" /><circle cx="544.4426967870553" cy="184.8949544807728" r="2.5" fill="#E69F00" /><circle cx="583.0753494611771" cy="219.99950145362453" r="2.5" fill="#E69F00" /><circle cx="542.664377611647" cy="176.33337825685612" r="2.5" fill="#E69F00" /><circle cx="563.3102475317374" cy="191.55635592201259" r="2.5" fill="#E69F00" /><circle cx="544.4581071422002" cy="248.9620941640954" r="2.5" fill="#E69F00" /><circle cx="555.7350666171653" cy="226.05881693484804" r="2.5" fill="#E69F00" /><circle cx="569.502364177333" cy="215.1856814979945" r="2.5" fill="#E69F00" /><circle cx="567.070255438249" cy="146.89881113401998" r="2.5" fill="#E69F00" /><circle cx="576.1982519904127" cy="188.48446175601816" r="2.5" fill="#E69F00" /><circle cx="562.516244205527" cy="243.02137802224337" r="2.5" fill="#E69F00" /><circle cx="582.908355725029" cy="229.6370412289907" r="2.5" fill="#E69F00" /><circle cx="550.7923876760909" cy="226.26989964672293" r="2.5" fill="#E69F00" /><circle cx="590.3056747634289" cy="179.4153067965555" r="2.5" fill="#E69F00" /><circle cx="584.5536666163787" cy="163.34239699943265" r="2.5" fill="#E69F00" /><circle cx="578.4510411943654" cy="114.1238237032843" r="2.5" fill="#E69F00" /><circle cx="580.0683525706816" cy="173.63555812621735" r="2.5" fill="#E69F00" /><circle cx="566.2755606377283" cy="177.84573459605213" r="2.5" fill="#E69F00" /><circle cx="598.6143173287373" cy="261.77513909472725" r="2.5" fill="#E69F00" /><circle cx="586.9151394778378" cy="160.72885852697203" r="2.5" fill="#E69F00" /><circle cx="590.6299612283103" cy="182.81953173239077" r="2.5" fill="#E69F00" /><circle cx="577.6216188808869" cy="238.07328361671296" r="2.5" fill="#E69F00" /><circle cx="588.854898132839" cy="230.30017036693664" r="2.5" fill="#E69F00" /><circle cx="544.9547820750555" cy="198.28334081966386" r="2.5" fill="#E69F00" /><circle cx="599.0126965647075" cy="174.3917404863825" r="2.5" fill="#E69F00" /><circle cx="567.7386824308205" cy="228.7934564657666" r="2.5" fill="#E69F00" /><circle cx="576.2103591159503" cy="218.0664605877884" r="2.5" fill="#E69F00" /><circle cx="581.2062296295954" cy="258.83747579684587" r="2.5" fill="#E69F00" /><circle cx="593.9479759872365" cy="226.89763236712412" r="2.5" fill="#E69F00" /><circle cx="598.5428509036594" cy="170.7179722641996" r="2.5" fill="#E69F00" /><circle cx="588.7106926108679" cy="173.8298147526312" r="2.5" fill="#E69F00" /><circle cx="547.0350139509886" cy="169.07115423593592" r="2.5" fill="#E69F00" /><circle cx="573.9862878190858" cy="230.5677024722644" r="2.5" fill="#E69F00" /><circle cx="579.8302852994944" cy="231.20016490326287" r="2.5" fill="#E69F00" /><circle cx="585.4366342025146" cy="238.59458094235103" r="2.5" fill="#E69F00" /><circle cx="599.4160668452339" cy="203.51606142774472" r="2.5" fill="#E69F00" /><circle cx="571.6798468516174" cy="244.3379460474776" r="2.5" fill="#E69F00" /><circle cx="581.5926138648638" cy="219.01643036899105" r="2.5" fill="#E69F00" /><circle cx="543.0663362745368" cy="271.9902724135152" r="2.5" fill="#E69F00" /><circle cx="548.091564391925" cy="209.85637069429976" r="2.5" fill="#E69F00" /><circle cx="564.1200564799099" cy="173.1846233892163" r="2.5" fill="#E69F00" /><circle cx="600.563758161034" cy="182.26698620474838" r="2.5" fill="#E69F00" /><circle cx="577.6543545139393" cy="176.41708491021177" r="2.5" fill="#E69F00" /><circle cx="546.3371385496202" cy="281.5009616599747" r="2.5" fill="#E69F00" /><circle cx="555.1327773274132" cy="239.7673170001645" r="2.5" fill="#E69F00" /><circle cx="557.2778570912437" cy="230.48816548222396" r="2.5" fill="#E69F00" /><circle cx="571.891700891993" cy="229.77850753041247" r="2.5" fill="#E69F00" /><circle cx="575.8839725267582" cy="171.52942915201976" r="2.5" fill="#E69F00" /><circle cx="574.4635808635553" cy="243.9623018209976" r="2.5" fill="#E69F00" /><circle cx="548.6532538710842" cy="210.97319288228573" r="2.5" fill="#E69F00" /><circle cx="565.1981402483791" cy="262.5791619037361" r="2.5" fill="#E69F00" /><circle cx="550.4851828189112" cy="244.4150822430891" r="2.5" fill="#E69F00" /><circle cx="568.1888448975621" cy="231.3282014260189" r="2.5" fill="#E69F00" /><circle cx="569.4048765253083" cy="218.09343463234535" r="2.5" fill="#E69F00" /><circle cx="600.1462695107284" cy="245.2524778584027" r="2.5" fill="#E69F00" /><circle cx="599.9885954719155" cy="206.56302943872828" r="2.5" fill="#E69F00" /><circle cx="601.6319122230946" cy="186.08798629194035" r="2.5" fill="#E69F00" /><circle cx="575.5157704885784" cy="175.55062561156944" r="2.5" fill="#E69F00" /><circle cx="580.6251715113428" cy="248.12604454456417" r="2.5" fill="#E69F00" /><circle cx="566.6839167780709" cy="170.43461221410024" r="2.5" fill="#E69F00" /><circle cx="573.0513187242695" cy="123.21280618198062" r="2.5" fill="#E69F00" /><circle cx="572.4646789332277" cy="275.7653691941981" r="2.5" fill="#E69F00" /><circle cx="593.3662779906067" cy="198.3131309347882" r="2.5" fill="#E69F00" /><circle cx="581.1784566722885" cy="125.13126623567194" r="2.5" fill="#E69F00" /><circle cx="570.4022590109896" cy="254.28974834608206" r="2.5" fill="#E69F00" /><circle cx="553.1029309475914" cy="176.6291906846214" r="2.5" fill="#E69F00" /><circle cx="552.303815265432" cy="200.25040155430372" r="2.5" fill="#E69F00" /><circle cx="554.3386503643665" cy="238.79705414424262" r="2.5" fill="#E69F00" /><circle cx="598.266368326993" cy="251.3056550306038" r="2.5" fill="#E69F00" /><circle cx="564.1223851083066" cy="300.32214559901337" r="2.5" fill="#E69F00" /><circle cx="542.404061215835" cy="218.52017152412589" r="2.5" fill="#E69F00" /><circle cx="542.4726301040972" cy="130.1740845639464" r="2.5" fill="#E69F00" /><circle cx="586.3167443662501" cy="225.1794862553768" r="2.5" fill="#E69F00" /><circle cx="549.3860584771667" cy="254.0839570887548" r="2.5" fill="#E69F00" /><circle cx="594.7456229291649" cy="212.21369533872576" r="2.5" fill="#E69F00" /><circle cx="550.8408033844457" cy="298.73817049964384" r="2.5" fill="#E69F00" /><circle cx="578.7526085745578" cy="231.37374394155393" r="2.5" fill="#E69F00" /><circle cx="576.5818615555918" cy="206.6539995463349" r="2.5" fill="#E69F00" /><circle cx="547.2020491334104" cy="249.87736268450354" r="2.5" fill="#E69F00" /><circle cx="584.6701915026097" cy="208.6545099097603" r="2.5" fill="#E69F00" /><circle cx="553.1440886159401" cy="210.93917485554852" r="2.5" fill="#E69F00" /><circle cx="578.8079000772805" cy="173.58586476523328" r="2.5" fill="#E69F00" /><circle cx="551.5317846712309" cy="226.76558168272135" r="2.5" fill="#E69F00" /><circle cx="571.1054085559531" cy="282.3531487299323" r="2.5" fill="#E69F00" /><circle cx="568.3269534323117" cy="177.0503274985353" r="2.5" fill="#E69F00" /><circle cx="585.3914719516722" cy="229.9402860986096" r="2.5" fill="#E69F00" /><circle cx="551.3832777788306" cy="276.3660409057258" r="2.5" fill="#E69F00" /><circle cx="548.892842666278" cy="271.5744072389732" r="2.5" fill="#E69F00" /><circle cx="584.4037661911773" cy="179.10209005944654" r="2.5" fill="#E69F00" /><circle cx="586.2378787391701" cy="226.90098010244145" r="2.5" fill="#E69F00" /><circle cx="562.6660949266459" cy="118.07082311455395" r="2.5" fill="#E69F00" /><circle cx="544.7352875266783" cy="203.13186863654823" r="2.5" fill="#E69F00" /><circle cx="567.887363912792" cy="222.74746438591916" r="2.5" fill="#E69F00" /><circle cx="193.78764711515504" cy="336.6640121605686" r="2.5" fill="#56B4E9" /><circle cx="188.3666259865027" cy="290.6568195061608" r="2.5" fill="#56B4E9" /><circle cx="198.46919407216998" cy="280.3724622849453" r="2.5" fill="#56B4E9" /><circle cx="147.91706037611806" cy="224.39717007005112" r="2.5" fill="#56B4E9" /><circle cx="165.2807054485345" cy="306.6264682915891" r="2.5" fill="#56B4E9" /><circle cx="148.53539013315637" cy="315.8462216861998" r="2.5" fill="#56B4E9" /><circle cx="143.15226062159888" cy="376.2175154010613" r="2.5" fill="#56B4E9" /><circle cx="159.74383688276956" cy="339.34626244288035" r="2.5" fill="#56B4E9" /><circle cx="170.3626521389996" cy="230.82373327695757" r="2.5" fill="#56B4E9" /><circle cx="192.8387533481752" cy="316.2358316780442" r="2.5" fill="#56B4E9" /><circle cx="147.02943312892654" cy="288.4238520158504" r="2.5" fill="#56B4E9" /><circle cx="195.08334532783638" cy="310.89350710399503" r="2.5" fill="#56B4E9" /><circle cx="143.75776361243348" cy="346.20954964682085" r="2.5" fill="#56B4E9" /><circle cx="162.715107875484" cy="328.9503801806484" r="2.5" fill="#56B4E9" /><circle cx="171.23578804214716" cy="309.1074585777241" r="2.5" fill="#56B4E9" /><circle cx="175.4884401595193" cy="332.57646729728344" r="2.5" fill="#56B4E9" /><circle cx="169.53633609370132" cy="344.0013328453663" r="2.5" fill="#56B4E9" /><circle cx="195.11130753943118" cy="317.1437365914005" r="2.5" fill="#56B4E9" /><circle cx="177.95427231016689" cy="254.7508623020463" r="2.5" fill="#56B4E9" /><circle cx="195.2113989194852" cy="247.5272199102589" r="2.5" fill="#56B4E9" /><circle cx="158.4458994290369" cy="325.8052353046705" r="2.5" fill="#56B4E9" /><circle cx="154.58171158877286" cy="317.55546211595146" r="2.5" fill="#56B4E9" /><circle cx="194.24097683238972" cy="294.2676919875387" r="2.5" fill="#56B4E9" /><circle cx="143.13009879599997" cy="297.38016541584875" r="2.5" fill="#56B4E9" /><circle cx="172.93130206775368" cy="334.5165408609282" r="2.5" fill="#56B4E9" /><circle cx="178.27343549922887" cy="309.4289461198978" r="2.5" fill="#56B4E9" /><circle cx="176.7710749134268" cy="303.49614817592163" r="2.5" fill="#56B4E9" /><circle cx="164.13718255625633" cy="258.7335309496377" r="2.5" fill="#56B4E9" /><circle cx="171.98295779804346" cy="329.9677151880521" r="2.5" fill="#56B4E9" /><circle cx="170.73579964053232" cy="334.2113282461437" r="2.5" fill="#56B4E9" /><circle cx="147.29023310847333" cy="282.60156581236845" r="2.5" fill="#56B4E9" /><circle cx="165.05645532270813" cy="348.87282756078014" r="2.5" fill="#56B4E9" /><circle cx="144.03162385760163" cy="293.5542450065742" r="2.5" fill="#56B4E9" /><circle cx="159.3858462176625" cy="274.4158101455364" r="2.5" fill="#56B4E9" /><circle cx="185.25890485185977" cy="298.8255233106761" r="2.5" fill="#56B4E9" /><circle cx="170.29888473224807" cy="335.38025264521696" r="2.5" fill="#56B4E9" /><circle cx="179.75238649595445" cy="271.42449388732905" r="2.5" fill="#56B4E9" /><circle cx="196.4366055995211" cy="326.9326710571247" r="2.5" fill="#56B4E9" /><circle cx="159.06817666948058" cy="346.9499570931951" r="2.5" fill="#56B4E9" /><circle cx="147.35422309442288" cy="267.8313223194277" r="2.5" fill="#56B4E9" /><circle cx="159.65481888036038" cy="335.89318835451684" r="2.5" fill="#56B4E9" /><circle cx="179.84774317580732" cy="349.71921914600154" r="2.5" fill="#56B4E9" /><circle cx="161.151924818022" cy="323.9512185341339" r="2.5" fill="#56B4E9" /><circle cx="191.70738073030836" cy="267.01966297850856" r="2.5" fill="#56B4E9" /><circle cx="160.01840344817728" cy="324.00181501981643" r="2.5" fill="#56B4E9" /><circle cx="169.08443000735707" cy="330.6941081895353" r="2.5" fill="#56B4E9" /><circle cx="162.452928334144" cy="315.99720543379556" r="2.5" fill="#56B4E9" /><circle cx="158.02830826679948" cy="238.97046337845646" r="2.5" fill="#56B4E9" /><circle cx="153.5869277241529" cy="338.28302649639454" r="2.5" fill="#56B4E9" /><circle cx="155.72692718711357" cy="248.0488285800586" r="2.5" fill="#56B4E9" /><circle cx="161.18640403832364" cy="293.01005943809184" r="2.5" fill="#56B4E9" /><circle cx="191.33012536423865" cy="339.9896431003935" r="2.5" fill="#56B4E9" /><circle cx="146.88111751568266" cy="308.96813919210194" r="2.5" fill="#56B4E9" /><circle cx="175.5526366663579" cy="293.45686936874256" r="2.5" fill="#56B4E9" /><circle cx="158.8832085929409" cy="353.7123703112576" r="2.5" fill="#56B4E9" /><circle cx="179.80310486179548" cy="306.99576980767233" r="2.5" fill="#56B4E9" /><circle cx="144.3267207106785" cy="324.5322240128972" r="2.5" fill="#56B4E9" /><circle cx="169.8798584112057" cy="267.6481170300074" r="2.5" fill="#56B4E9" /><circle cx="198.94677991156317" cy="304.7143994681693" r="2.5" fill="#56B4E9" /><circle cx="169.19132684130585" cy="327.05672040896525" r="2.5" fill="#56B4E9" /><circle cx="143.01146474349275" cy="337.2897828340732" r="2.5" fill="#56B4E9" /><circle cx="171.80838262949516" cy="307.73458502336837" r="2.5" fill="#56B4E9" /><circle cx="146.10150412819758" cy="319.6572633471392" r="2.5" fill="#56B4E9" /><circle cx="196.58091607189894" cy="289.28583016700964" r="2.5" fill="#56B4E9" /><circle cx="189.23499993930156" cy="338.1961335210341" r="2.5" fill="#56B4E9" /><circle cx="187.3623967026041" cy="327.16761623172846" r="2.5" fill="#56B4E9" /><circle cx="168.38125033585422" cy="353.1323617034618" r="2.5" fill="#56B4E9" /><circle cx="157.07859278826294" cy="299.8317878776232" r="2.5" fill="#56B4E9" /><circle cx="152.8487853153004" cy="272.90019904622915" r="2.5" fill="#56B4E9" /><circle cx="195.38344531556473" cy="247.12842097594054" r="2.5" fill="#56B4E9" /><circle cx="193.61934971191886" cy="269.960615725757" r="2.5" fill="#56B4E9" /><circle cx="173.1516731811177" cy="220.62437401534618" r="2.5" fill="#56B4E9" /><circle cx="193.09238892329302" cy="314.999343426167" r="2.5" fill="#56B4E9" /><circle cx="161.70575311791617" cy="370.4392479047639" r="2.5" fill="#56B4E9" /><circle cx="158.57479780880485" cy="330.59454540836634" r="2.5" fill="#56B4E9" /><circle cx="171.21943897734852" cy="307.08620420699094" r="2.5" fill="#56B4E9" /><circle cx="176.63245119250197" cy="244.20926960654515" r="2.5" fill="#56B4E9" /><circle cx="177.67766609032356" cy="210.73173197625107" r="2.5" fill="#56B4E9" /><circle cx="196.7433523343119" cy="321.90824416438977" r="2.5" fill="#56B4E9" /><circle cx="154.12808940229417" cy="297.58658290546066" r="2.5" fill="#56B4E9" /><circle cx="155.51803749839436" cy="285.9105353987532" r="2.5" fill="#56B4E9" /><circle cx="178.52999190610393" cy="307.1809116906008" r="2.5" fill="#56B4E9" /><circle cx="161.64500845432738" cy="271.9239150052854" r="2.5" fill="#56B4E9" /><circle cx="192.79369423334742" cy="310.90318105421704" r="2.5" fill="#56B4E9" /><circle cx="193.82625056531327" cy="257.45335761722174" r="2.5" fill="#56B4E9" /><circle cx="144.4689217631717" cy="257.3083487804728" r="2.5" fill="#56B4E9" /><circle cx="156.04589977510162" cy="270.6560037892634" r="2.5" fill="#56B4E9" /><circle cx="150.9719657520339" cy="333.5674917358905" r="2.5" fill="#56B4E9" /><circle cx="196.83602741364857" cy="279.646963196887" r="2.5" fill="#56B4E9" /><circle cx="188.41823152939656" cy="284.1329696017574" r="2.5" fill="#56B4E9" /><circle cx="167.1079982393453" cy="343.4043339122804" r="2.5" fill="#56B4E9" /><circle cx="165.98557291205367" cy="291.57345003822365" r="2.5" fill="#56B4E9" /><circle cx="144.28898912821253" cy="282.1530987789492" r="2.5" fill="#56B4E9" /><circle cx="182.13352155865383" cy="324.0774306817957" r="2.5" fill="#56B4E9" /><circle cx="149.35804818617237" cy="318.80280324923945" r="2.5" fill="#56B4E9" /><circle cx="187.41684472136058" cy="286.38970602681115" r="2.5" fill="#56B4E9" /><circle cx="156.12154891613477" cy="329.2380281587251" r="2.5" fill="#56B4E9" /><circle cx="199.27493295134957" cy="254.94748435312027" r="2.5" fill="#56B4E9" /><circle cx="179.5816570775226" cy="310.94206731021416" r="2.5" fill="#56B4E9" /><circle cx="162.42635150562035" cy="287.67092354427723" r="2.5" fill="#56B4E9" /><circle cx="171.32533859312713" cy="301.4579035431182" r="2.5" fill="#56B4E9" /><circle cx="182.34069305096904" cy="289.1900297173802" r="2.5" fill="#56B4E9" /><circle cx="193.11465569425485" cy="313.6269385244051" r="2.5" fill="#56B4E9" /><circle cx="150.82880580690335" cy="266.15693783233803" r="2.5" fill="#56B4E9" /><circle cx="152.01498819670405" cy="311.106729450007" r="2.5" fill="#56B4E9" /><circle cx="151.47744952198912" cy="354.2730330693039" r="2.5" fill="#56B4E9" /><circle cx="171.9135326882457" cy="277.6822736938385" r="2.5" fill="#56B4E9" /><circle cx="172.20262762708626" cy="247.56585857204593" r="2.5" fill="#56B4E9" /><circle cx="143.58730691342436" cy="306.58217524015174" r="2.5" fill="#56B4E9" /><circle cx="175.47201746336015" cy="314.08615865470796" r="2.5" fill="#56B4E9" /><circle cx="161.69098302480148" cy="319.1106740694012" r="2.5" fill="#56B4E9" /><circle cx="156.97523200941743" cy="296.2300251128412" r="2.5" fill="#56B4E9" /><circle cx="182.60317912637836" cy="230.5086476286191" r="2.5" fill="#56B4E9" /><circle cx="181.22487934884407" cy="274.13982316143426" r="2.5" fill="#56B4E9" /><circle cx="188.09235074568886" cy="234.22033195251873" r="2.5" fill="#56B4E9" /><circle cx="157.20109514722856" cy="336.4147633089501" r="2.5" fill="#56B4E9" /><circle cx="170.0074639483597" cy="260.7788043424483" r="2.5" fill="#56B4E9" /><circle cx="153.21778524467004" cy="277.00379989311307" r="2.5" fill="#56B4E9" /><circle cx="188.72999038150348" cy="327.3331399124909" r="2.5" fill="#56B4E9" /><circle cx="151.30180723164713" cy="259.34303713271936" r="2.5" fill="#56B4E9" /><circle cx="197.2474457139652" cy="309.34565182924564" r="2.5" fill="#56B4E9" /><circle cx="192.3031163752886" cy="298.5106708947378" r="2.5" fill="#56B4E9" /><circle cx="160.81657256612044" cy="304.7600368150545" r="2.5" fill="#56B4E9" /><circle cx="192.11292042091029" cy="327.31902777210996" r="2.5" fill="#56B4E9" /><circle cx="150.7802038323267" cy="296.5177951359351" r="2.5" fill="#56B4E9" /><circle cx="168.899772009978" cy="275.4771899181598" r="2.5" fill="#56B4E9" /><circle cx="153.95169276953663" cy="290.7852902815123" r="2.5" fill="#56B4E9" /><circle cx="164.12624193609352" cy="266.825750391059" r="2.5" fill="#56B4E9" /><circle cx="197.17172896458055" cy="316.1281276502564" r="2.5" fill="#56B4E9" /><circle cx="151.75191566507903" cy="267.1485336320386" r="2.5" fill="#56B4E9" /><circle cx="190.39551863097145" cy="306.9775617254657" r="2.5" fill="#56B4E9" /><circle cx="157.18899483069475" cy="311.1429375633215" r="2.5" fill="#56B4E9" /><circle cx="199.84377570962283" cy="260.89021922502195" r="2.5" fill="#56B4E9" /><circle cx="194.4117778869274" cy="366.0612449102679" r="2.5" fill="#56B4E9" /><circle cx="198.74417068517056" cy="294.85075875956045" r="2.5" fill="#56B4E9" /><circle cx="142.85406926552363" cy="313.750801859116" r="2.5" fill="#56B4E9" /><circle cx="164.22057289884262" cy="258.0595320649965" r="2.5" fill="#56B4E9" /><circle cx="158.50304741158982" cy="308.4292590931037" r="2.5" fill="#56B4E9" /><circle cx="178.60344722706373" cy="279.8790454273785" r="2.5" fill="#56B4E9" /><circle cx="149.2138077556082" cy="263.7151495626666" r="2.5" fill="#56B4E9" /><circle cx="161.41759014800235" cy="303.5715140551061" r="2.5" fill="#56B4E9" /><circle cx="171.88312721849474" cy="291.36111221707347" r="2.5" fill="#56B4E9" /><circle cx="193.73203691462342" cy="242.56093718748622" r="2.5" fill="#56B4E9" /><circle cx="152.5887814104542" cy="259.11244421140225" r="2.5" fill="#56B4E9" /><circle cx="157.52646062079157" cy="321.25964136896636" r="2.5" fill="#56B4E9" /><circle cx="184.67686469063062" cy="291.88333187917283" r="2.5" fill="#56B4E9" /><circle cx="150.33488765667602" cy="315.5750862725449" r="2.5" fill="#56B4E9" /><circle cx="149.92228143506907" cy="321.15794306058876" r="2.5" fill="#56B4E9" /><circle cx="152.83755327152454" cy="273.6098582414098" r="2.5" fill="#56B4E9" /><circle cx="174.83395848026265" cy="273.7572255115269" r="2.5" fill="#56B4E9" /><circle cx="143.52683768270114" cy="299.57856927719945" r="2.5" fill="#56B4E9" /><circle cx="168.06266494546122" cy="313.2877762155128" r="2.5" fill="#56B4E9" /><circle cx="163.54548430080743" cy="295.34768859093845" r="2.5" fill="#56B4E9" /><circle cx="167.11102722298182" cy="279.5208092961452" r="2.5" fill="#56B4E9" /><circle cx="163.82276705856762" cy="366.738143174618" r="2.5" fill="#56B4E9" /><circle cx="153.81566491075006" cy="367.84625250157217" r="2.5" fill="#56B4E9" /><circle cx="202.066976360878" cy="316.753925283183" r="2.5" fill="#56B4E9" /><circle cx="158.75628101921302" cy="341.43258129682306" r="2.5" fill="#56B4E9" /><circle cx="171.68232390888073" cy="267.5055770042489" r="2.5" fill="#56B4E9" /><circle cx="188.27230761044035" cy="302.6200329433548" r="2.5" fill="#56B4E9" /><circle cx="188.1104475535946" cy="247.78879060600653" r="2.5" fill="#56B4E9" /><circle cx="184.4882232959157" cy="356.1977358106352" r="2.5" fill="#56B4E9" /><circle cx="168.65602902212112" cy="260.88249796102644" r="2.5" fill="#56B4E9" /><circle cx="187.42008414698057" cy="272.802925463714" r="2.5" fill="#56B4E9" /><circle cx="145.05220744928712" cy="331.3657205029378" r="2.5" fill="#56B4E9" /><circle cx="175.7974534346289" cy="322.8753020800839" r="2.5" fill="#56B4E9" /><circle cx="177.62172402930182" cy="334.04262310382967" r="2.5" fill="#56B4E9" /><circle cx="201.18821308834205" cy="306.49230842753764" r="2.5" fill="#56B4E9" /><circle cx="152.8171888948176" cy="284.4512735623234" r="2.5" fill="#56B4E9" /><circle cx="182.9250371382305" cy="276.88236685253514" r="2.5" fill="#56B4E9" /><circle cx="186.92414698527438" cy="284.2040788397207" r="2.5" fill="#56B4E9" /><circle cx="155.17174690042444" cy="357.79192873482134" r="2.5" fill="#56B4E9" /><circle cx="152.92337676900124" cy="342.3993390584826" r="2.5" fill="#56B4E9" /><circle cx="151.96180976393606" cy="353.58116893067665" r="2.5" fill="#56B4E9" /><circle cx="155.07762992938427" cy="280.61775692302433" r="2.5" fill="#56B4E9" /><circle cx="163.72499892077985" cy="279.227548164693" r="2.5" fill="#56B4E9" /><circle cx="143.98957791127793" cy="298.8207338005313" r="2.5" fill="#56B4E9" /><circle cx="183.9629229298223" cy="299.96240967152164" r="2.5" fill="#56B4E9" /><circle cx="173.90290200407293" cy="273.6503648701864" r="2.5" fill="#56B4E9" /><circle cx="175.67354386292743" cy="310.05433560726703" r="2.5" fill="#56B4E9" /><circle cx="172.74608568176112" cy="257.68928154239063" r="2.5" fill="#56B4E9" /><circle cx="145.17838955625888" cy="313.12781397123695" r="2.5" fill="#56B4E9" /><circle cx="153.43572266446787" cy="303.60680774322407" r="2.5" fill="#56B4E9" /><circle cx="198.39872299600344" cy="373.2971905746877" r="2.5" fill="#56B4E9" /><circle cx="158.58762891850444" cy="319.4842119966237" r="2.5" fill="#56B4E9" /><circle cx="179.21369759992683" cy="249.55015196242977" r="2.5" fill="#56B4E9" /><circle cx="171.44810287310267" cy="325.5695715091342" r="2.5" fill="#56B4E9" /><circle cx="177.5298949209909" cy="283.8271278565079" r="2.5" fill="#56B4E9" /><circle cx="155.021600139183" cy="335.8113715237227" r="2.5" fill="#56B4E9" /><circle cx="194.76903897341685" cy="258.58035146618147" r="2.5" fill="#56B4E9" /><circle cx="180.70856114183567" cy="248.71015405256608" r="2.5" fill="#56B4E9" /><circle cx="181.14991759783902" cy="328.30845634857064" r="2.5" fill="#56B4E9" /><circle cx="186.44593477334283" cy="322.25718231733845" r="2.5" fill="#56B4E9" /><circle cx="143.99346207150205" cy="380.4521354173088" r="2.5" fill="#56B4E9" /><circle cx="166.1189907108171" cy="276.1002580824737" r="2.5" fill="#56B4E9" /><circle cx="178.0942637475786" cy="326.07985425192294" r="2.5" fill="#56B4E9" /><circle cx="160.12775479241338" cy="299.4351272524797" r="2.5" fill="#56B4E9" /><circle cx="191.2569737707039" cy="265.1845696187718" r="2.5" fill="#56B4E9" /><circle cx="145.2968745296307" cy="272.9153122536762" r="2.5" fill="#56B4E9" /><circle cx="150.62743449176037" cy="320.4778041676665" r="2.5" fill="#56B4E9" /><circle cx="393.7876471186198" cy="306.7952810566068" r="2.5" fill="#56B4E9" /><circle cx="392.1164006527877" cy="217.92267732833176" r="2.5" fill="#56B4E9" /><circle cx="367.28769202541463" cy="223.24357722371724" r="2.5" fill="#56B4E9" /><circle cx="397.791252835951" cy="262.9723676240297" r="2.5" fill="#56B4E9" /><circle cx="395.7458422973166" cy="166.95325683059252" r="2.5" fill="#56B4E9" /><circle cx="397.9150905289935" cy="257.91929666733654" r="2.5" fill="#56B4E9" /><circle cx="381.18509384967325" cy="204.20270484703008" r="2.5" fill="#56B4E9" /><circle cx="375.23778982557866" cy="230.44515147618154" r="2.5" fill="#56B4E9" /><circle cx="343.3930586887944" cy="286.13592654375555" r="2.5" fill="#56B4E9" /><circle cx="382.4361190438874" cy="239.89502398827395" r="2.5" fill="#56B4E9" /><circle cx="344.1498680894313" cy="245.6782385650671" r="2.5" fill="#56B4E9" /><circle cx="345.4957407368429" cy="280.9516677283089" r="2.5" fill="#56B4E9" /><circle cx="359.20671894363187" cy="296.17084493217766" r="2.5" fill="#56B4E9" /><circle cx="388.93188462405345" cy="282.317057937713" r="2.5" fill="#56B4E9" /><circle cx="399.01034596794733" cy="282.2680554257339" r="2.5" fill="#56B4E9" /><circle cx="357.5761834785947" cy="276.14065774928883" r="2.5" fill="#56B4E9" /><circle cx="368.33678836143264" cy="211.25251275594644" r="2.5" fill="#56B4E9" /><circle cx="359.27849047421773" cy="201.5974126045399" r="2.5" fill="#56B4E9" /><circle cx="377.4706236482808" cy="260.8511053238043" r="2.5" fill="#56B4E9" /><circle cx="376.6985319894819" cy="265.5632581561089" r="2.5" fill="#56B4E9" /><circle cx="385.1798034598715" cy="317.06091504173014" r="2.5" fill="#56B4E9" /><circle cx="368.5112910549094" cy="298.0105320889485" r="2.5" fill="#56B4E9" /><circle cx="401.1178079190611" cy="284.42212416252136" r="2.5" fill="#56B4E9" /><circle cx="366.45555808886667" cy="224.1732612722496" r="2.5" fill="#56B4E9" /><circle cx="357.26560193605405" cy="226.79126220904521" r="2.5" fill="#56B4E9" /><circle cx="367.3652155602124" cy="246.19191098369964" r="2.5" fill="#56B4E9" /><circle cx="394.3840739152313" cy="259.71509960864717" r="2.5" fill="#56B4E9" /><circle cx="366.8048493626568" cy="292.24186459373595" r="2.5" fill="#56B4E9" /><circle cx="352.89271823620726" cy="233.69627500521466" r="2.5" fill="#56B4E9" /><circle cx="350.3226637421305" cy="230.0253754261683" r="2.5" fill="#56B4E9" /><circle cx="386.38890035401454" cy="269.1948131530786" r="2.5" fill="#56B4E9" /><circle cx="374.58287145163575" cy="271.5848033125122" r="2.5" fill="#56B4E9" /><circle cx="355.01194825028" cy="252.8612741676713" r="2.5" fill="#56B4E9" /><circle cx="369.67858941189303" cy="190.54544428942694" r="2.5" fill="#56B4E9" /><circle cx="344.35585204360115" cy="249.09175528460383" r="2.5" fill="#56B4E9" /><circle cx="401.45404840238996" cy="257.0206221232873" r="2.5" fill="#56B4E9" /><circle cx="381.9643294325906" cy="246.35020268142424" r="2.5" fill="#56B4E9" /><circle cx="343.12700086356017" cy="237.1598846101681" r="2.5" fill="#56B4E9" /><circle cx="398.0436802792545" cy="189.2902687189267" r="2.5" fill="#56B4E9" /><circle cx="351.33409088626905" cy="277.63125115635495" r="2.5" fill="#56B4E9" /><circle cx="367.4318869900695" cy="197.57655850688622" r="2.5" fill="#56B4E9" /><circle cx="367.43461360058217" cy="221.19389779793914" r="2.5" fill="#56B4E9" /><circle cx="364.9500275231384" cy="200.8857418876367" r="2.5" fill="#56B4E9" /><circle cx="378.07192995217486" cy="260.1718235851348" r="2.5" fill="#56B4E9" /><circle cx="381.04017413102844" cy="262.8594874714064" r="2.5" fill="#56B4E9" /><circle cx="374.30592480071624" cy="284.709671522137" r="2.5" fill="#56B4E9" /><circle cx="368.0305967595837" cy="220.04243897135262" r="2.5" fill="#56B4E9" /><circle cx="360.0130672178932" cy="294.1159751977725" r="2.5" fill="#56B4E9" /><circle cx="398.4065814457769" cy="292.75829863347866" r="2.5" fill="#56B4E9" /><circle cx="374.32711712553106" cy="209.02497085311944" r="2.5" fill="#56B4E9" /><circle cx="362.8587328188707" cy="236.6816762934434" r="2.5" fill="#56B4E9" /><circle cx="379.5450181435366" cy="249.11839120902528" r="2.5" fill="#56B4E9" /><circle cx="353.0194858992298" cy="338.4831163729325" r="2.5" fill="#56B4E9" /><circle cx="395.54816663391796" cy="264.23586639731536" r="2.5" fill="#56B4E9" /><circle cx="394.7056470102134" cy="247.6146389411154" r="2.5" fill="#56B4E9" /><circle cx="388.8320515987463" cy="253.61304421700967" r="2.5" fill="#56B4E9" /><circle cx="392.182109114549" cy="301.22901389318645" r="2.5" fill="#56B4E9" /><circle cx="364.40887576950087" cy="179.17959161420794" r="2.5" fill="#56B4E9" /><circle cx="343.7738180874522" cy="226.74266737390553" r="2.5" fill="#56B4E9" /><circle cx="355.56669975473267" cy="242.11332752871596" r="2.5" fill="#56B4E9" /><circle cx="379.08763944357503" cy="271.4698115687014" r="2.5" fill="#56B4E9" /><circle cx="343.64228502356127" cy="296.07658570185663" r="2.5" fill="#56B4E9" /><circle cx="348.5353263023028" cy="270.1532537619943" r="2.5" fill="#56B4E9" /><circle cx="388.8282720779491" cy="231.85783178676417" r="2.5" fill="#56B4E9" /><circle cx="366.7380730255538" cy="244.76651598700138" r="2.5" fill="#56B4E9" /><circle cx="397.4301075739565" cy="259.46000776121616" r="2.5" fill="#56B4E9" /><circle cx="349.560804981323" cy="306.05609357958633" r="2.5" fill="#56B4E9" /><circle cx="383.41870873834404" cy="311.5916364662453" r="2.5" fill="#56B4E9" /><circle cx="395.58235538145993" cy="228.56621613134683" r="2.5" fill="#56B4E9" /><circle cx="385.36596601671926" cy="244.14233921707424" r="2.5" fill="#56B4E9" /><circle cx="400.921747561437" cy="237.42891222388573" r="2.5" fill="#56B4E9" /><circle cx="401.8673990147184" cy="291.6215392249838" r="2.5" fill="#56B4E9" /><circle cx="391.09983388250834" cy="242.64217061930296" r="2.5" fill="#56B4E9" /><circle cx="399.72518056786686" cy="250.1743506701305" r="2.5" fill="#56B4E9" /><circle cx="375.4883591186531" cy="314.21930361678767" r="2.5" fill="#56B4E9" /><circle cx="379.9754916180199" cy="284.9184310588536" r="2.5" fill="#56B4E9" /><circle cx="361.5478220967094" cy="283.820333744812" r="2.5" fill="#56B4E9" /><circle cx="386.25414125740883" cy="303.49271919354584" r="2.5" fill="#56B4E9" /><circle cx="350.5464031318496" cy="255.90704194614068" r="2.5" fill="#56B4E9" /><circle cx="377.13106491942096" cy="243.48025350791394" r="2.5" fill="#56B4E9" /><circle cx="354.68285159078005" cy="238.7896342690165" r="2.5" fill="#56B4E9" /><circle cx="396.06095515780027" cy="296.22060442108756" r="2.5" fill="#56B4E9" /><circle cx="367.04204805339066" cy="216.14966495007542" r="2.5" fill="#56B4E9" /><circle cx="367.2362772538582" cy="253.88010496640328" r="2.5" fill="#56B4E9" /><circle cx="392.05532276006335" cy="234.49989235691004" r="2.5" fill="#56B4E9" /><circle cx="366.92730085047316" cy="174.33149082585606" r="2.5" fill="#56B4E9" /><circle cx="379.2404273602494" cy="294.5840427300343" r="2.5" fill="#56B4E9" /><circle cx="383.4380900361714" cy="219.7305321791639" r="2.5" fill="#56B4E9" /><circle cx="400.7355000613781" cy="154.05166550565593" r="2.5" fill="#56B4E9" /><circle cx="378.32241974067216" cy="305.58786872796827" r="2.5" fill="#56B4E9" /><circle cx="343.00134142973707" cy="312.44643863873165" r="2.5" fill="#56B4E9" /><circle cx="377.6156281898334" cy="210.11735244082837" r="2.5" fill="#56B4E9" /><circle cx="356.5411400442899" cy="270.32800329267764" r="2.5" fill="#56B4E9" /><circle cx="350.8121699137712" cy="246.5663224714607" r="2.5" fill="#56B4E9" /><circle cx="392.71978867676495" cy="317.10892587266324" r="2.5" fill="#56B4E9" /><circle cx="343.1711451454336" cy="305.6414683678468" r="2.5" fill="#56B4E9" /><circle cx="388.5003064405718" cy="229.0746738024182" r="2.5" fill="#56B4E9" /><circle cx="390.6959528019102" cy="252.3340428262899" r="2.5" fill="#56B4E9" /><circle cx="394.41873412156326" cy="281.0965152099013" r="2.5" fill="#56B4E9" /><circle cx="387.56708767334305" cy="233.27751127369538" r="2.5" fill="#56B4E9" /><circle cx="351.58184880772876" cy="245.17648349796212" r="2.5" fill="#56B4E9" /><circle cx="377.23889282692016" cy="226.05192043342151" r="2.5" fill="#56B4E9" /><circle cx="395.22380558052225" cy="219.78732543000928" r="2.5" fill="#56B4E9" /><circle cx="371.54321875407504" cy="359.34705249451423" r="2.5" fill="#56B4E9" /><circle cx="357.8346488200561" cy="231.20461868981937" r="2.5" fill="#56B4E9" /><circle cx="344.4065120463636" cy="207.12095442023724" r="2.5" fill="#56B4E9" /><circle cx="359.5073731560139" cy="288.59111410624575" r="2.5" fill="#56B4E9" /><circle cx="374.83744256935" cy="241.66557752096398" r="2.5" fill="#56B4E9" /><circle cx="369.91124524905354" cy="268.673065137608" r="2.5" fill="#56B4E9" /><circle cx="376.8097474389706" cy="192.61922169683334" r="2.5" fill="#56B4E9" /><circle cx="381.11365400771723" cy="223.60565315226376" r="2.5" fill="#56B4E9" /><circle cx="368.3603501077288" cy="168.14400084442968" r="2.5" fill="#56B4E9" /><circle cx="363.5211074177687" cy="218.42199613648182" r="2.5" fill="#56B4E9" /><circle cx="386.57814561327336" cy="225.51330201276363" r="2.5" fill="#56B4E9" /><circle cx="371.32997197123785" cy="282.51769371842465" r="2.5" fill="#56B4E9" /><circle cx="387.0999040457185" cy="244.1640300298591" r="2.5" fill="#56B4E9" /><circle cx="370.81948601088493" cy="265.72870024850437" r="2.5" fill="#56B4E9" /><circle cx="360.4777037974881" cy="256.0800420174064" r="2.5" fill="#56B4E9" /><circle cx="370.2479100480193" cy="306.6704553256789" r="2.5" fill="#56B4E9" /><circle cx="379.8188784251223" cy="227.1480488332498" r="2.5" fill="#56B4E9" /><circle cx="345.09982418452097" cy="241.7017706907271" r="2.5" fill="#56B4E9" /><circle cx="384.9166213865829" cy="187.25368955882357" r="2.5" fill="#56B4E9" /><circle cx="398.2669182027208" cy="233.3763990576623" r="2.5" fill="#56B4E9" /><circle cx="391.47442501113926" cy="228.6318045798189" r="2.5" fill="#56B4E9" /><circle cx="397.45202197836596" cy="260.3303857639237" r="2.5" fill="#56B4E9" /><circle cx="367.23405567117464" cy="304.39531550993036" r="2.5" fill="#56B4E9" /><circle cx="348.0412620753435" cy="270.79521625112613" r="2.5" fill="#56B4E9" /><circle cx="369.8723108710234" cy="253.6348841407094" r="2.5" fill="#56B4E9" /><circle cx="347.7046817008855" cy="221.32743002891795" r="2.5" fill="#56B4E9" /><circle cx="356.5231698888086" cy="249.25490123637192" r="2.5" fill="#56B4E9" /><circle cx="387.0765460057581" cy="273.08198251908277" r="2.5" fill="#56B4E9" /><circle cx="366.4343892263579" cy="238.7893685096052" r="2.5" fill="#56B4E9" /><circle cx="396.2794550790383" cy="202.12381057788588" r="2.5" fill="#56B4E9" /><circle cx="380.8618231545919" cy="298.15586102993814" r="2.5" fill="#56B4E9" /><circle cx="358.2694222701539" cy="276.65246028375344" r="2.5" fill="#56B4E9" /><circle cx="394.0961509770659" cy="259.65352054915843" r="2.5" fill="#56B4E9" /><circle cx="355.5553316586143" cy="336.3776947329414" r="2.5" fill="#56B4E9" /><circle cx="382.2997279988331" cy="237.67909772339783" r="2.5" fill="#56B4E9" /><circle cx="394.6798706672487" cy="233.4303678595757" r="2.5" fill="#56B4E9" /><circle cx="344.16561937214334" cy="227.90982247395021" r="2.5" fill="#56B4E9" /><circle cx="371.9385189180416" cy="262.7354766847451" r="2.5" fill="#56B4E9" /><circle cx="401.7038693877538" cy="154.68044258645665" r="2.5" fill="#56B4E9" /><circle cx="352.4520577791823" cy="210.04844580662512" r="2.5" fill="#56B4E9" /><circle cx="362.7040916232064" cy="312.64543768605085" r="2.5" fill="#56B4E9" /><circle cx="372.679119543937" cy="236.07849577571176" r="2.5" fill="#56B4E9" /><circle cx="375.96864195301737" cy="223.86126899117335" r="2.5" fill="#56B4E9" /><circle cx="347.9710721853595" cy="201.02261606634198" r="2.5" fill="#56B4E9" /><circle cx="358.25574224219747" cy="253.47801016813386" r="2.5" fill="#56B4E9" /><circle cx="343.99425152171904" cy="277.90513942524285" r="2.5" fill="#56B4E9" /><circle cx="387.2406890870869" cy="160.8050756835135" r="2.5" fill="#56B4E9" /><circle cx="353.7002980158444" cy="198.69854233568032" r="2.5" fill="#56B4E9" /><circle cx="392.32105548283846" cy="271.48753125083397" r="2.5" fill="#56B4E9" /><circle cx="370.33688061384737" cy="267.77674767894996" r="2.5" fill="#56B4E9" /><circle cx="401.032005374837" cy="287.0817108579568" r="2.5" fill="#56B4E9" /><circle cx="376.30775768351344" cy="226.17806483141982" r="2.5" fill="#56B4E9" /><circle cx="393.9487857930111" cy="289.9786983527156" r="2.5" fill="#56B4E9" /><circle cx="392.6709571100968" cy="292.3393959975059" r="2.5" fill="#56B4E9" /><circle cx="351.4681660974817" cy="293.2865111065313" r="2.5" fill="#56B4E9" /><circle cx="382.58081810485305" cy="293.4785107549731" r="2.5" fill="#56B4E9" /><circle cx="365.07030168529786" cy="272.2299953772289" r="2.5" fill="#56B4E9" /><circle cx="369.8006884502641" cy="267.04991069581547" r="2.5" fill="#56B4E9" /><circle cx="354.96604758233855" cy="247.63547799943944" r="2.5" fill="#56B4E9" /><circle cx="363.651203198238" cy="281.58323703902494" r="2.5" fill="#56B4E9" /><circle cx="395.2538769522568" cy="282.312475374659" r="2.5" fill="#56B4E9" /><circle cx="357.73636336790855" cy="238.3591451981788" r="2.5" fill="#56B4E9" /><circle cx="386.15384596873326" cy="273.8508952697066" r="2.5" fill="#56B4E9" /><circle cx="364.297267304795" cy="287.1189831164843" r="2.5" fill="#56B4E9" /><circle cx="348.08288337642813" cy="205.41286330506216" r="2.5" fill="#56B4E9" /><circle cx="367.8411024430423" cy="263.263702891505" r="2.5" fill="#56B4E9" /><circle cx="389.1313795245485" cy="168.30854056544746" r="2.5" fill="#56B4E9" /><circle cx="352.5425415381634" cy="246.55239519485957" r="2.5" fill="#56B4E9" /><circle cx="360.42543710726113" cy="332.4008959716434" r="2.5" fill="#56B4E9" /><circle cx="377.92171218765696" cy="180.00008231728611" r="2.5" fill="#56B4E9" /><circle cx="347.32167451761035" cy="240.53285092830677" r="2.5" fill="#56B4E9" /><circle cx="347.4709026664558" cy="261.0224771180155" r="2.5" fill="#56B4E9" /><circle cx="389.8327001170551" cy="190.65043573282247" r="2.5" fill="#56B4E9" /><circle cx="374.9440675532232" cy="240.5799125562216" r="2.5" fill="#56B4E9" /><circle cx="382.9266011570197" cy="218.6447131252918" r="2.5" fill="#56B4E9" /><circle cx="401.88262606182656" cy="239.74898648193576" r="2.5" fill="#56B4E9" /><circle cx="380.40928260278037" cy="268.3687115296755" r="2.5" fill="#56B4E9" /><circle cx="364.8218571321489" cy="310.0896756959419" r="2.5" fill="#56B4E9" /><circle cx="367.27966599987803" cy="226.5840233699925" r="2.5" fill="#56B4E9" /><circle cx="354.3292425678036" cy="257.1346870192429" r="2.5" fill="#56B4E9" /><circle cx="350.73929429381764" cy="219.7520546091984" r="2.5" fill="#56B4E9" /><circle cx="350.65127081206856" cy="289.7871616134907" r="2.5" fill="#56B4E9" /><circle cx="396.2763919459769" cy="220.90567996736286" r="2.5" fill="#56B4E9" /><circle cx="386.430647179062" cy="239.0557525862914" r="2.5" fill="#56B4E9" /><circle cx="376.4908990966492" cy="282.9093631445669" r="2.5" fill="#56B4E9" /><circle cx="379.88778484118825" cy="250.75384611858692" r="2.5" fill="#56B4E9" /><circle cx="377.6233576860677" cy="287.7384990002719" r="2.5" fill="#56B4E9" /><circle cx="373.84440777017886" cy="175.98418507130435" r="2.5" fill="#56B4E9" /><circle cx="387.5373027633341" cy="219.7840364737487" r="2.5" fill="#56B4E9" /><circle cx="379.4799411130391" cy="316.57824833043276" r="2.5" fill="#56B4E9" /><circle cx="359.2537938555607" cy="247.64435639550095" r="2.5" fill="#56B4E9" /><circle cx="350.7148044572241" cy="239.8443284612427" r="2.5" fill="#56B4E9" /><circle cx="398.7379203730473" cy="286.86825070873306" r="2.5" fill="#56B4E9" /><circle cx="358.9447091031544" cy="264.87793103353454" r="2.5" fill="#56B4E9" /><circle cx="357.24122950640736" cy="255.2667138988606" r="2.5" fill="#56B4E9" /><circle cx="389.46453660202167" cy="249.79937868931196" r="2.5" fill="#56B4E9" /><circle cx="378.48455915105137" cy="268.5491818902347" r="2.5" fill="#56B4E9" /><circle cx="593.7876471220882" cy="192.94671087257865" r="2.5" fill="#56B4E9" /><circle cx="580.8679922904162" cy="190.34617786969113" r="2.5" fill="#56B4E9" /><circle cx="582.1192126415797" cy="200.47650712259951" r="2.5" fill="#56B4E9" /><circle cx="577.2463138517772" cy="184.7710788196241" r="2.5" fill="#56B4E9" /><circle cx="576.4037635200101" cy="264.21655507419655" r="2.5" fill="#56B4E9" /><circle cx="563.754260125693" cy="99.84094849848731" r="2.5" fill="#56B4E9" /><circle cx="598.191313519399" cy="116.7136288786682" r="2.5" fill="#56B4E9" /><circle cx="551.6810886756402" cy="110.56074409517186" r="2.5" fill="#56B4E9" /><circle cx="591.6318832025404" cy="219.78494068427926" r="2.5" fill="#56B4E9" /><circle cx="595.9226731774577" cy="176.6153855567929" r="2.5" fill="#56B4E9" /><circle cx="601.5550834186829" cy="149.6014831842947" r="2.5" fill="#56B4E9" /><circle cx="587.9474697322582" cy="248.83888871941372" r="2.5" fill="#56B4E9" /><circle cx="595.5036268966521" cy="232.59873211154292" r="2.5" fill="#56B4E9" /><circle cx="553.6989073763134" cy="194.47061466357428" r="2.5" fill="#56B4E9" /><circle cx="575.041184661056" cy="219.12227802516207" r="2.5" fill="#56B4E9" /><circle cx="593.6564782116568" cy="216.13969356072806" r="2.5" fill="#56B4E9" /><circle cx="552.7392787149558" cy="157.3616065654207" r="2.5" fill="#56B4E9" /><circle cx="586.1270402780005" cy="125.35337488580603" r="2.5" fill="#56B4E9" /><circle cx="549.0048804628457" cy="173.69449767499333" r="2.5" fill="#56B4E9" /><circle cx="556.4896449938292" cy="226.82522962777432" r="2.5" fill="#56B4E9" /><circle cx="556.9707366613852" cy="227.1569252242549" r="2.5" fill="#56B4E9" /><circle cx="581.421834429375" cy="152.75843447942555" r="2.5" fill="#56B4E9" /><circle cx="544.8947975647266" cy="180.96217634968576" r="2.5" fill="#56B4E9" /><circle cx="551.3626795648975" cy="237.32248843548507" r="2.5" fill="#56B4E9" /><circle cx="591.990755513754" cy="150.96152332012144" r="2.5" fill="#56B4E9" /><circle cx="591.1003192571404" cy="211.5741981434229" r="2.5" fill="#56B4E9" /><circle cx="565.1721500135468" cy="194.7255085828097" r="2.5" fill="#56B4E9" /><circle cx="583.6207564464885" cy="160.98196702500684" r="2.5" fill="#56B4E9" /><circle cx="592.5782679927188" cy="221.82878961192233" r="2.5" fill="#56B4E9" /><circle cx="582.586967507757" cy="221.58135055727394" r="2.5" fill="#56B4E9" /><circle cx="592.3077383026075" cy="241.70207182537138" r="2.5" fill="#56B4E9" /><circle cx="562.7775584661867" cy="119.22689699140034" r="2.5" fill="#56B4E9" /><circle cx="549.7564656790078" cy="163.77982710346544" r="2.5" fill="#56B4E9" /><circle cx="597.7840198903259" cy="129.06879087555546" r="2.5" fill="#56B4E9" /><circle cx="600.1242902478909" cy="244.77157495553823" r="2.5" fill="#56B4E9" /><circle cx="593.6284888188288" cy="217.8488926649158" r="2.5" fill="#56B4E9" /><circle cx="571.9182651617152" cy="168.83121875000853" r="2.5" fill="#56B4E9" /><circle cx="572.1813644748321" cy="169.38679972955634" r="2.5" fill="#56B4E9" /><circle cx="554.9572654852354" cy="243.4456818089991" r="2.5" fill="#56B4E9" /><circle cx="577.6711195780265" cy="196.74318892542954" r="2.5" fill="#56B4E9" /><circle cx="572.8662487814794" cy="179.32422032461898" r="2.5" fill="#56B4E9" /><circle cx="561.7515143947135" cy="200.80475502698715" r="2.5" fill="#56B4E9" /><circle cx="566.4732822544956" cy="208.10132456147164" r="2.5" fill="#56B4E9" /><circle cx="552.8114726233711" cy="110.70691668541735" r="2.5" fill="#56B4E9" /><circle cx="595.6321706179892" cy="154.62046966019255" r="2.5" fill="#56B4E9" /><circle cx="545.8679403692322" cy="139.31985240057975" r="2.5" fill="#56B4E9" /><circle cx="568.3994197699317" cy="183.16029121131686" r="2.5" fill="#56B4E9" /><circle cx="545.0545084756973" cy="214.58454161450499" r="2.5" fill="#56B4E9" /><circle cx="542.9547514205656" cy="54.37826916365134" r="2.5" fill="#56B4E9" /><circle cx="543.2857103605934" cy="265.6356115375353" r="2.5" fill="#56B4E9" /><circle cx="572.7320265664572" cy="180.09613130383838" r="2.5" fill="#56B4E9" /><circle cx="600.3964704946663" cy="170.49225062148275" r="2.5" fill="#56B4E9" /><circle cx="556.6467857729137" cy="182.351565304747" r="2.5" fill="#56B4E9" /><circle cx="569.5924531861112" cy="121.64270919485489" r="2.5" fill="#56B4E9" /><circle cx="595.3707331562334" cy="212.4671400354897" r="2.5" fill="#56B4E9" /><circle cx="546.9153477207672" cy="131.13466091225604" r="2.5" fill="#56B4E9" /><circle cx="560.8382756549647" cy="216.4797963226178" r="2.5" fill="#56B4E9" /><circle cx="554.1082325786288" cy="232.64937418061794" r="2.5" fill="#56B4E9" /><circle cx="571.795369215004" cy="162.41644384632139" r="2.5" fill="#56B4E9" /><circle cx="556.3703907091995" cy="144.46397173978914" r="2.5" fill="#56B4E9" /><circle cx="581.0043731615285" cy="126.63620210280357" r="2.5" fill="#56B4E9" /><circle cx="595.4932047470265" cy="158.89726457876145" r="2.5" fill="#56B4E9" /><circle cx="556.7185912755423" cy="177.2928242409402" r="2.5" fill="#56B4E9" /><circle cx="574.8646823698789" cy="215.97233291293355" r="2.5" fill="#56B4E9" /><circle cx="592.4320187792971" cy="258.3681987322722" r="2.5" fill="#56B4E9" /><circle cx="565.1346186528817" cy="131.4205434237989" r="2.5" fill="#56B4E9" /><circle cx="601.2453583707666" cy="121.76099189327982" r="2.5" fill="#56B4E9" /><circle cx="579.3730049202984" cy="235.78589519971558" r="2.5" fill="#56B4E9" /><circle cx="594.5447916926307" cy="196.7825473688739" r="2.5" fill="#56B4E9" /><circle cx="591.1483928579323" cy="132.29485118075775" r="2.5" fill="#56B4E9" /><circle cx="596.6267356076196" cy="242.83039340991826" r="2.5" fill="#56B4E9" /><circle cx="599.4702146572013" cy="101.5301808096915" r="2.5" fill="#56B4E9" /><circle cx="560.0327158561964" cy="133.36813936768317" r="2.5" fill="#56B4E9" /><circle cx="559.3754999093663" cy="210.8593943791205" r="2.5" fill="#56B4E9" /><circle cx="582.4485567214653" cy="229.42767097713482" r="2.5" fill="#56B4E9" /><circle cx="554.9180406375519" cy="180.44644107579836" r="2.5" fill="#56B4E9" /><circle cx="594.1382686177892" cy="236.80682522274589" r="2.5" fill="#56B4E9" /><circle cx="542.4819867285681" cy="266.41368322324206" r="2.5" fill="#56B4E9" /><circle cx="593.3885298216878" cy="235.69525573411897" r="2.5" fill="#56B4E9" /><circle cx="568.3851351043852" cy="175.9892916309658" r="2.5" fill="#56B4E9" /><circle cx="580.4524501573194" cy="230.76179063661345" r="2.5" fill="#56B4E9" /><circle cx="554.094040299764" cy="225.14674805347425" r="2.5" fill="#56B4E9" /><circle cx="574.836352731698" cy="186.8772700301501" r="2.5" fill="#56B4E9" /><circle cx="586.8570833386016" cy="178.33422092122777" r="2.5" fill="#56B4E9" /><circle cx="594.4968323992368" cy="191.06298713611358" r="2.5" fill="#56B4E9" /><circle cx="545.2736332514946" cy="126.93666466791524" r="2.5" fill="#56B4E9" /><circle cx="551.7169481266542" cy="169.22202301061463" r="2.5" fill="#56B4E9" /><circle cx="562.667925467588" cy="246.85046590051485" r="2.5" fill="#56B4E9" /><circle cx="599.5724792101948" cy="203.4076651690118" r="2.5" fill="#56B4E9" /><circle cx="576.9421239209623" cy="224.44532789207705" r="2.5" fill="#56B4E9" /><circle cx="573.0531732639573" cy="154.56001210398074" r="2.5" fill="#56B4E9" /><circle cx="585.8401860975202" cy="174.4527143651727" r="2.5" fill="#56B4E9" /><circle cx="557.1592101399892" cy="239.1736946065922" r="2.5" fill="#56B4E9" /><circle cx="592.7744314890613" cy="139.98509585816868" r="2.5" fill="#56B4E9" /><circle cx="563.046651746065" cy="160.56459372083003" r="2.5" fill="#56B4E9" /><circle cx="560.5339865783767" cy="208.08239919945413" r="2.5" fill="#56B4E9" /><circle cx="564.8323053282213" cy="232.42391752569284" r="2.5" fill="#56B4E9" /><circle cx="573.6746992292047" cy="233.7558041010671" r="2.5" fill="#56B4E9" /><circle cx="556.6972389036698" cy="213.35280459235003" r="2.5" fill="#56B4E9" /><circle cx="594.8245002116878" cy="132.39509806454288" r="2.5" fill="#56B4E9" /><circle cx="575.9065533596739" cy="215.9334222776593" r="2.5" fill="#56B4E9" /><circle cx="565.9708602865671" cy="185.18425927330958" r="2.5" fill="#56B4E9" /><circle cx="601.5478803560472" cy="122.57706166453119" r="2.5" fill="#56B4E9" /><circle cx="590.7733141300203" cy="263.3683524417927" r="2.5" fill="#56B4E9" /><circle cx="565.3060342256688" cy="272.4670140153976" r="2.5" fill="#56B4E9" /><circle cx="557.1116545046137" cy="123.78726121447687" r="2.5" fill="#56B4E9" /><circle cx="546.194750055098" cy="166.588402517936" r="2.5" fill="#56B4E9" /><circle cx="580.2488569736254" cy="212.01153733390646" r="2.5" fill="#56B4E9" /><circle cx="544.4426967870553" cy="229.314543783285" r="2.5" fill="#56B4E9" /><circle cx="583.0753494611771" cy="183.2647429426661" r="2.5" fill="#56B4E9" /><circle cx="542.664377611647" cy="193.33683143949202" r="2.5" fill="#56B4E9" /><circle cx="563.3102475317374" cy="136.8985996103965" r="2.5" fill="#56B4E9" /><circle cx="544.4581071422002" cy="186.41949780234194" r="2.5" fill="#56B4E9" /><circle cx="555.7350666171653" cy="210.0486334003299" r="2.5" fill="#56B4E9" /><circle cx="569.502364177333" cy="160.07370140286764" r="2.5" fill="#56B4E9" /><circle cx="567.070255438249" cy="210.24936639826313" r="2.5" fill="#56B4E9" /><circle cx="576.1982519904127" cy="110.27384247960794" r="2.5" fill="#56B4E9" /><circle cx="562.516244205527" cy="193.17286368579943" r="2.5" fill="#56B4E9" /><circle cx="582.908355725029" cy="153.34760753975917" r="2.5" fill="#56B4E9" /><circle cx="550.7923876760909" cy="240.43076661941004" r="2.5" fill="#56B4E9" /><circle cx="590.3056747634289" cy="212.26960157586552" r="2.5" fill="#56B4E9" /><circle cx="584.5536666163787" cy="143.01494863338678" r="2.5" fill="#56B4E9" /><circle cx="578.4510411943654" cy="176.42313726501743" r="2.5" fill="#56B4E9" /><circle cx="580.0683525706816" cy="158.1810151642557" r="2.5" fill="#56B4E9" /><circle cx="566.2755606377283" cy="229.08282514089797" r="2.5" fill="#56B4E9" /><circle cx="598.6143173287373" cy="227.80782048264064" r="2.5" fill="#56B4E9" /><circle cx="586.9151394778378" cy="151.95390297564" r="2.5" fill="#56B4E9" /><circle cx="590.6299612283103" cy="186.0678065208246" r="2.5" fill="#56B4E9" /><circle cx="577.6216188808869" cy="156.22758483276328" r="2.5" fill="#56B4E9" /><circle cx="588.854898132839" cy="249.58906976059538" r="2.5" fill="#56B4E9" /><circle cx="544.9547820750555" cy="193.77019975989697" r="2.5" fill="#56B4E9" /><circle cx="599.0126965647075" cy="222.5482850589538" r="2.5" fill="#56B4E9" /><circle cx="567.7386824308205" cy="185.2393985466099" r="2.5" fill="#56B4E9" /><circle cx="576.2103591159503" cy="159.5038888133621" r="2.5" fill="#56B4E9" /><circle cx="581.2062296295954" cy="173.99904701632676" r="2.5" fill="#56B4E9" /><circle cx="593.9479759872365" cy="178.83072927053314" r="2.5" fill="#56B4E9" /><circle cx="598.5428509036594" cy="165.55732158859536" r="2.5" fill="#56B4E9" /><circle cx="588.7106926108679" cy="247.8686451553671" r="2.5" fill="#56B4E9" /><circle cx="547.0350139509886" cy="202.12883460024898" r="2.5" fill="#56B4E9" /><circle cx="573.9862878190858" cy="118.62588865025157" r="2.5" fill="#56B4E9" /><circle cx="579.8302852994944" cy="133.5952392073517" r="2.5" fill="#56B4E9" /><circle cx="585.4366342025146" cy="152.0082145332936" r="2.5" fill="#56B4E9" /><circle cx="599.4160668452339" cy="126.5676999183064" r="2.5" fill="#56B4E9" /><circle cx="571.6798468516174" cy="158.24052754730758" r="2.5" fill="#56B4E9" /><circle cx="581.5926138648638" cy="173.93221452388315" r="2.5" fill="#56B4E9" /><circle cx="543.0663362745368" cy="305.6515174248435" r="2.5" fill="#56B4E9" /><circle cx="548.091564391925" cy="210.6120727903171" r="2.5" fill="#56B4E9" /><circle cx="564.1200564799099" cy="225.28060773672013" r="2.5" fill="#56B4E9" /><circle cx="600.563758161034" cy="131.4657763319717" r="2.5" fill="#56B4E9" /><circle cx="577.6543545139393" cy="160.28094107350853" r="2.5" fill="#56B4E9" /><circle cx="546.3371385496202" cy="172.2701636192429" r="2.5" fill="#56B4E9" /><circle cx="555.1327773274132" cy="253.3239193600323" r="2.5" fill="#56B4E9" /><circle cx="557.2778570912437" cy="210.84818803569038" r="2.5" fill="#56B4E9" /><circle cx="571.891700891993" cy="269.6432237522049" r="2.5" fill="#56B4E9" /><circle cx="575.8839725267582" cy="177.54775501400917" r="2.5" fill="#56B4E9" /><circle cx="574.4635808635553" cy="204.9325358806165" r="2.5" fill="#56B4E9" /><circle cx="548.6532538710842" cy="239.34084097850433" r="2.5" fill="#56B4E9" /><circle cx="565.1981402483791" cy="210.86838028055035" r="2.5" fill="#56B4E9" /><circle cx="550.4851828189112" cy="157.71525905594217" r="2.5" fill="#56B4E9" /><circle cx="568.1888448975621" cy="149.5341265636626" r="2.5" fill="#56B4E9" /><circle cx="569.4048765253083" cy="160.29190591544364" r="2.5" fill="#56B4E9" /><circle cx="600.1462695107284" cy="182.80960497198032" r="2.5" fill="#56B4E9" /><circle cx="599.9885954719155" cy="155.80422050425835" r="2.5" fill="#56B4E9" /><circle cx="601.6319122230946" cy="214.0701433547531" r="2.5" fill="#56B4E9" /><circle cx="575.5157704885784" cy="263.863001190427" r="2.5" fill="#56B4E9" /><circle cx="580.6251715113428" cy="131.50381293651873" r="2.5" fill="#56B4E9" /><circle cx="566.6839167780709" cy="178.44729846695117" r="2.5" fill="#56B4E9" /><circle cx="573.0513187242695" cy="129.9092685576548" r="2.5" fill="#56B4E9" /><circle cx="572.4646789332277" cy="157.22191826091398" r="2.5" fill="#56B4E9" /><circle cx="593.3662779906067" cy="252.56225083240463" r="2.5" fill="#56B4E9" /><circle cx="581.1784566722885" cy="235.83820794059415" r="2.5" fill="#56B4E9" /><circle cx="570.4022590109896" cy="206.33350812183386" r="2.5" fill="#56B4E9" /><circle cx="553.1029309475914" cy="103.5179915741258" r="2.5" fill="#56B4E9" /><circle cx="552.303815265432" cy="147.17684257559893" r="2.5" fill="#56B4E9" /><circle cx="554.3386503643665" cy="185.86872232106083" r="2.5" fill="#56B4E9" /><circle cx="598.266368326993" cy="242.2577548352496" r="2.5" fill="#56B4E9" /><circle cx="564.1223851083066" cy="209.56228269867387" r="2.5" fill="#56B4E9" /><circle cx="542.404061215835" cy="166.22208609876594" r="2.5" fill="#56B4E9" /><circle cx="542.4726301040972" cy="193.4046907104949" r="2.5" fill="#56B4E9" /><circle cx="586.3167443662501" cy="149.3217578651911" r="2.5" fill="#56B4E9" /><circle cx="549.3860584771667" cy="189.52875788436495" r="2.5" fill="#56B4E9" /><circle cx="594.7456229291649" cy="153.38843613439315" r="2.5" fill="#56B4E9" /><circle cx="550.8408033844457" cy="233.63847824303008" r="2.5" fill="#56B4E9" /><circle cx="578.7526085745578" cy="165.44360914393815" r="2.5" fill="#56B4E9" /><circle cx="576.5818615555918" cy="201.78609724727664" r="2.5" fill="#56B4E9" /><circle cx="547.2020491334104" cy="124.12274580071778" r="2.5" fill="#56B4E9" /><circle cx="584.6701915026097" cy="196.81283105074533" r="2.5" fill="#56B4E9" /><circle cx="553.1440886159401" cy="217.55883010247157" r="2.5" fill="#56B4E9" /><circle cx="578.8079000772805" cy="150.40419651956063" r="2.5" fill="#56B4E9" /><circle cx="551.5317846712309" cy="169.78047637371895" r="2.5" fill="#56B4E9" /><circle cx="571.1054085559531" cy="162.90971486141694" r="2.5" fill="#56B4E9" /><circle cx="568.3269534323117" cy="159.61029839802575" r="2.5" fill="#56B4E9" /><circle cx="585.3914719516722" cy="147.75359242356433" r="2.5" fill="#56B4E9" /><circle cx="551.3832777788306" cy="129.77168869133772" r="2.5" fill="#56B4E9" /><circle cx="548.892842666278" cy="204.17381991534972" r="2.5" fill="#56B4E9" /><circle cx="584.4037661911773" cy="223.80920716152747" r="2.5" fill="#56B4E9" /><circle cx="586.2378787391701" cy="220.80671368456842" r="2.5" fill="#56B4E9" /><circle cx="562.6660949266459" cy="248.902653550042" r="2.5" fill="#56B4E9" /><circle cx="544.7352875266783" cy="257.49416030675854" r="2.5" fill="#56B4E9" /><circle cx="567.887363912792" cy="143.7173565793019" r="2.5" fill="#56B4E9" /><rect x="677.2" y="34" width="80" height="56" fill="white" /><rect x="677.2" y="34" width="80" height="56" fill="none" stroke="black" stroke-width="1" /><text x="707.2" y="49" font-size="12" text-anchor="start">Line A</text><circle cx="693.2" cy="45" r="5" fill="#E69F00" /><text x="707.2" y="67" font-size="12" text-anchor="start">Line B</text><circle cx="693.2" cy="63" r="5" fill="#56B4E9" /></svg>