<svg xmlns="http://www.w3.org/2000/svg" width="686.2" height="545" font-family="DejaVu Sans, Liberation Sans, Arial, sans-serif" fill="black"><rect width="100%" height="100%" fill="white" /><line x1="72.19999999999999" y1="494" x2="672.2" y2="494" stroke="black" stroke-width="1" /><line x1="72.19999999999999" y1="44" x2="72.19999999999999" y2="494" stroke="black" stroke-width="1" /><line x1="72.19999999999999" y1="429.7142857142857" x2="672.2" y2="429.7142857142857" stroke="#ccc" stroke-width="1" /><line x1="72.19999999999999" y1="365.42857142857144" x2="672.2" y2="365.42857142857144" stroke="#ccc" stroke-width="1" /><line x1="72.19999999999999" y1="301.14285714285717" x2="672.2" y2="301.14285714285717" stroke="#ccc" stroke-width="1" /><line x1="72.19999999999999" y1="236.8571428571429" x2="672.2" y2="236.8571428571429" stroke="#ccc" stroke-width="1" /><line x1="72.19999999999999" y1="172.57142857142856" x2="672.2" y2="172.57142857142856" stroke="#ccc" stroke-width="1" /><line x1="72.19999999999999" y1="108.28571428571433" x2="672.2" y2="108.28571428571433" stroke="#ccc" stroke-width="1" /><line x1="72.19999999999999" y1="44" x2="672.2" y2="44" stroke="#ccc" stroke-width="1" /><text x="172.2" y="511" font-size="12" text-anchor="middle">Control</text><line x1="172.2" y1="494" x2="172.2" y2="499" stroke="black" stroke-width="1" /><text x="372.2" y="511" font-size="12" text-anchor="middle">Bimodal</text><line x1="372.2" y1="494" x2="372.2" y2="499" stroke="black" stroke-width="1" /><text x="572.2" y="511" font-size="12" text-anchor="middle">Right-skewed</text><line x1="572.2" y1="494" x2="572.2" y2="499" stroke="black" stroke-width="1" /><line x1="67.19999999999999" y1="494" x2="72.19999999999999" y2="494" stroke="black" stroke-width="1" /><text x="64.19999999999999" y="498.2" font-size="12" text-anchor="end">-3</text><line x1="67.19999999999999" y1="429.7142857142857" x2="72.19999999999999" y2="429.7142857142857" stroke="black" stroke-width="1" /><text x="64.19999999999999" y="433.9142857142857" font-size="12" text-anchor="end">-2</text><line x1="67.19999999999999" y1="365.42857142857144" x2="72.19999999999999" y2="365.42857142857144" stroke="black" stroke-width="1" /><text x="64.19999999999999" y="369.62857142857143" font-size="12" text-anchor="end">-1</text><line x1="67.19999999999999" y1="301.14285714285717" x2="72.19999999999999" y2="301.14285714285717" stroke="black" stroke-width="1" /><text x="64.19999999999999" y="305.34285714285716" font-size="12" text-anchor="end">0</text><line x1="67.19999999999999" y1="236.8571428571429" x2="72.19999999999999" y2="236.8571428571429" stroke="black" stroke-width="1" /><text x="64.19999999999999" y="241.05714285714288" font-size="12" text-anchor="end">1</text><line x1="67.19999999999999" y1="172.57142857142856" x2="72.19999999999999" y2="172.57142857142856" stroke="black" stroke-width="1" /><text x="64.19999999999999" y="176.77142857142854" font-size="12" text-anchor="end">2</text><line x1="67.19999999999999" y1="108.28571428571433" x2="72.19999999999999" y2="108.28571428571433" stroke="black" stroke-width="1" /><text x="64.19999999999999" y="112.48571428571434" font-size="12" text-anchor="end">3</text><line x1="67.19999999999999" y1="44" x2="72.19999999999999" y2="44" stroke="black" stroke-width="1" /><text x="64.19999999999999" y="48.2" font-size="12" text-anchor="end">4</text><text x="14" y="272.5" font-size="14" text-anchor="middle" transform="rotate(-90,14,272.5)">Value</text><text x="343.1" y="22" font-size="18" text-anchor="middle">Beeswarm</text><circle cx="187.2" cy="349.2330523309241" r="3" fill="steelblue" /><circle cx="181.2" cy="272.8498738928773" r="3" fill="steelblue" /><circle cx="172.2" cy="390.99643500863954" r="3" fill="steelblue" /><circle cx="181.2" cy="210.95344393510243" r="3" fill="steelblue" /><circle cx="166.2" cy="263.22252328013064" r="3" fill="steelblue" /><circle cx="172.2" cy="348.39718005850443" r="3" fill="steelblue" /><circle cx="166.2" cy="255.38032374424256" r="3" fill="steelblue" /><circle cx="178.2" cy="411.60843573706495" r="3" fill="steelblue" /><circle cx="172.2" cy="327.2971524061918" r="3" fill="steelblue" /><circle cx="190.2" cy="335.65173381741397" r="3" fill="steelblue" /><circle cx="151.2" cy="370.0382283745025" r="3" fill="steelblue" /><circle cx="178.2" cy="321.33972520193026" r="3" fill="steelblue" /><circle cx="172.2" cy="297.3462789751411" r="3" fill="steelblue" /><circle cx="178.2" cy="327.62278972784407" r="3" fill="steelblue" /><circle cx="172.2" cy="463.9432016186694" r="3" fill="steelblue" /><circle cx="178.2" cy="247.20417235382587" r="3" fill="steelblue" /><circle cx="184.2" cy="322.90270590963155" r="3" fill="steelblue" /><circle cx="169.2" cy="335.50615162514083" r="3" fill="steelblue" /><circle cx="172.2" cy="265.15767972898806" r="3" fill="steelblue" /><circle cx="175.2" cy="340.6686582503105" r="3" fill="steelblue" /><circle cx="184.2" cy="249.88177209785235" r="3" fill="steelblue" /><circle cx="172.2" cy="477.2807542315991" r="3" fill="steelblue" /><circle cx="157.2" cy="305.7622279357545" r="3" fill="steelblue" /><circle cx="181.2" cy="351.9410643697679" r="3" fill="steelblue" /><circle cx="178.2" cy="241.19622682673904" r="3" fill="steelblue" /><circle cx="178.2" cy="394.57136641225776" r="3" fill="steelblue" /><circle cx="175.2" cy="354.2097284688317" r="3" fill="steelblue" /><circle cx="166.2" cy="247.40002013329376" r="3" fill="steelblue" /><circle cx="154.2" cy="299.2082195913876" r="3" fill="steelblue" /><circle cx="157.2" cy="365.770554208834" r="3" fill="steelblue" /><circle cx="166.2" cy="288.5482068674345" r="3" fill="steelblue" /><circle cx="172.2" cy="365.42785587694596" r="3" fill="steelblue" /><circle cx="172.2" cy="486.5467337019911" r="3" fill="steelblue" /><circle cx="190.2" cy="259.94066907924514" r="3" fill="steelblue" /><circle cx="190.2" cy="281.9330122344686" r="3" fill="steelblue" /><circle cx="193.2" cy="352.5493981178737" r="3" fill="steelblue" /><circle cx="190.2" cy="290.8478385792614" r="3" fill="steelblue" /><circle cx="172.2" cy="201.91730582605692" r="3" fill="steelblue" /><circle cx="178.2" cy="294.3338554043631" r="3" fill="steelblue" /><circle cx="190.2" cy="369.20855013484436" r="3" fill="steelblue" /><circle cx="178.2" cy="346.5730424364936" r="3" fill="steelblue" /><circle cx="175.2" cy="216.35639927467213" r="3" fill="steelblue" /><circle cx="169.2" cy="217.08217094441977" r="3" fill="steelblue" /><circle cx="169.2" cy="303.3148478901861" r="3" fill="steelblue" /><circle cx="151.2" cy="353.3189462962588" r="3" fill="steelblue" /><circle cx="172.2" cy="311.5194655148737" r="3" fill="steelblue" /><circle cx="178.2" cy="261.6557075528306" r="3" fill="steelblue" /><circle cx="190.2" cy="315.9076246540558" r="3" fill="steelblue" /><circle cx="163.2" cy="304.68752821101054" r="3" fill="steelblue" /><circle cx="193.2" cy="220.3098715957097" r="3" fill="steelblue" /><circle cx="169.2" cy="271.8535702395185" r="3" fill="steelblue" /><circle cx="184.2" cy="343.4714573012707" r="3" fill="steelblue" /><circle cx="172.2" cy="258.09895377293697" r="3" fill="steelblue" /><circle cx="193.2" cy="275.29674829396396" r="3" fill="steelblue" /><circle cx="178.2" cy="313.7675178399739" r="3" fill="steelblue" /><circle cx="172.2" cy="152.84510224803591" r="3" fill="steelblue" /><circle cx="184.2" cy="289.1978349620444" r="3" fill="steelblue" /><circle cx="172.2" cy="223.77907245770905" r="3" fill="steelblue" /><circle cx="160.2" cy="242.4740992011993" r="3" fill="steelblue" /><circle cx="151.2" cy="308.0819208523749" r="3" fill="steelblue" /><circle cx="178.2" cy="286.2844477881923" r="3" fill="steelblue" /><circle cx="172.2" cy="278.78817935051876" r="3" fill="steelblue" /><circle cx="175.2" cy="306.2274622860007" r="3" fill="steelblue" /><circle cx="157.2" cy="338.96242820234806" r="3" fill="steelblue" /><circle cx="178.2" cy="279.6217736973832" r="3" fill="steelblue" /><circle cx="172.2" cy="244.0820554867694" r="3" fill="steelblue" /><circle cx="160.2" cy="331.4745504474429" r="3" fill="steelblue" /><circle cx="184.2" cy="266.7312360187441" r="3" fill="steelblue" /><circle cx="196.2" cy="300.2985341832547" r="3" fill="steelblue" /><circle cx="196.2" cy="261.16520891656705" r="3" fill="steelblue" /><circle cx="184.2" cy="259.69576982768547" r="3" fill="steelblue" /><circle cx="166.2" cy="189.00673125271402" r="3" fill="steelblue" /><circle cx="187.2" cy="222.22961351495786" r="3" fill="steelblue" /><circle cx="166.2" cy="241.32814688292845" r="3" fill="steelblue" /><circle cx="169.2" cy="357.86249461440565" r="3" fill="steelblue" /><circle cx="178.2" cy="228.83651489681023" r="3" fill="steelblue" /><circle cx="178.2" cy="187.71961136034253" r="3" fill="steelblue" /><circle cx="184.2" cy="314.056805981613" r="3" fill="steelblue" /><circle cx="166.2" cy="374.4259841988255" r="3" fill="steelblue" /><circle cx="172.2" cy="172.66399455441535" r="3" fill="steelblue" /><circle cx="166.2" cy="367.9234707624658" r="3" fill="steelblue" /><circle cx="190.2" cy="245.92975596424589" r="3" fill="steelblue" /><circle cx="178.2" cy="300.8299254021855" r="3" fill="steelblue" /><circle cx="166.2" cy="205.4574630913864" r="3" fill="steelblue" /><circle cx="163.2" cy="360.8134335177161" r="3" fill="steelblue" /><circle cx="145.2" cy="308.50797496132753" r="3" fill="steelblue" /><circle cx="160.2" cy="298.5918478038913" r="3" fill="steelblue" /><circle cx="160.2" cy="314.2920308782625" r="3" fill="steelblue" /><circle cx="166.2" cy="295.3247404619393" r="3" fill="steelblue" /><circle cx="172.2" cy="182.61022419185764" r="3" fill="steelblue" /><circle cx="178.2" cy="255.33458736695698" r="3" fill="steelblue" /><circle cx="169.2" cy="342.97376753904723" r="3" fill="steelblue" /><circle cx="157.2" cy="215.49255222918197" r="3" fill="steelblue" /><circle cx="178.2" cy="205.02891320886414" r="3" fill="steelblue" /><circle cx="181.2" cy="218.91128412495203" r="3" fill="steelblue" /><circle cx="184.2" cy="330.91652226418347" r="3" fill="steelblue" /><circle cx="160.2" cy="344.25641325240264" r="3" fill="steelblue" /><circle cx="163.2" cy="338.5523042130329" r="3" fill="steelblue" /><circle cx="184.2" cy="305.2911817901215" r="3" fill="steelblue" /><circle cx="172.2" cy="284.91394180299375" r="3" fill="steelblue" /><circle cx="166.2" cy="330.14993149573877" r="3" fill="steelblue" /><circle cx="163.2" cy="211.11803807385394" r="3" fill="steelblue" /><circle cx="190.2" cy="298.76707574645326" r="3" fill="steelblue" /><circle cx="172.2" cy="318.14325594204786" r="3" fill="steelblue" /><circle cx="160.2" cy="281.50862310513673" r="3" fill="steelblue" /><circle cx="196.2" cy="283.9882563255586" r="3" fill="steelblue" /><circle cx="154.2" cy="316.14275040701466" r="3" fill="steelblue" /><circle cx="172.2" cy="373.3138675452953" r="3" fill="steelblue" /><circle cx="187.2" cy="274.6226231578519" r="3" fill="steelblue" /><circle cx="184.2" cy="368.7632071944031" r="3" fill="steelblue" /><circle cx="172.2" cy="210.45833974138867" r="3" fill="steelblue" /><circle cx="169.2" cy="229.57816511543712" r="3" fill="steelblue" /><circle cx="154.2" cy="282.16239430366784" r="3" fill="steelblue" /><circle cx="184.2" cy="280.846589992923" r="3" fill="steelblue" /><circle cx="172.2" cy="122.95099152690506" r="3" fill="steelblue" /><circle cx="160.2" cy="324.0028634722149" r="3" fill="steelblue" /><circle cx="163.2" cy="219.797788717252" r="3" fill="steelblue" /><circle cx="172.2" cy="291.26907916852076" r="3" fill="steelblue" /><circle cx="160.2" cy="259.742792931098" r="3" fill="steelblue" /><circle cx="172.2" cy="188.89275268743563" r="3" fill="steelblue" /><circle cx="184.2" cy="297.41635408872685" r="3" fill="steelblue" /><circle cx="166.2" cy="313.859017230203" r="3" fill="steelblue" /><circle cx="184.2" cy="361.44716149683666" r="3" fill="steelblue" /><circle cx="172.2" cy="237.11511826254866" r="3" fill="steelblue" /><circle cx="178.2" cy="359.92590751703347" r="3" fill="steelblue" /><circle cx="187.2" cy="215.45366716116564" r="3" fill="steelblue" /><circle cx="172.2" cy="408.4090551453894" r="3" fill="steelblue" /><circle cx="175.2" cy="333.083135955276" r="3" fill="steelblue" /><circle cx="166.2" cy="348.8759761684152" r="3" fill="steelblue" /><circle cx="178.2" cy="374.0036424850755" r="3" fill="steelblue" /><circle cx="172.2" cy="250.53226326365825" r="3" fill="steelblue" /><circle cx="166.2" cy="280.34313409998737" r="3" fill="steelblue" /><circle cx="184.2" cy="241.38963849250035" r="3" fill="steelblue" /><circle cx="181.2" cy="337.60429966500175" r="3" fill="steelblue" /><circle cx="157.2" cy="349.6594855033394" r="3" fill="steelblue" /><circle cx="154.2" cy="260.91308177776745" r="3" fill="steelblue" /><circle cx="178.2" cy="365.93976759840405" r="3" fill="steelblue" /><circle cx="184.2" cy="376.52650485006524" r="3" fill="steelblue" /><circle cx="163.2" cy="230.73753349089515" r="3" fill="steelblue" /><circle cx="196.2" cy="370.32129571309827" r="3" fill="steelblue" /><circle cx="160.2" cy="266.86090862553897" r="3" fill="steelblue" /><circle cx="190.2" cy="306.95448321216315" r="3" fill="steelblue" /><circle cx="157.2" cy="274.80347126050606" r="3" fill="steelblue" /><circle cx="175.2" cy="270.72902579191725" r="3" fill="steelblue" /><circle cx="160.2" cy="289.93916787344824" r="3" fill="steelblue" /><circle cx="166.2" cy="321.4543768230286" r="3" fill="steelblue" /><circle cx="172.2" cy="450.72087364612764" r="3" fill="steelblue" /><circle cx="196.2" cy="308.4304110438278" r="3" fill="steelblue" /><circle cx="163.2" cy="274.43491645730563" r="3" fill="steelblue" /><circle cx="172.2" cy="381.9908581012271" r="3" fill="steelblue" /><circle cx="381.2" cy="358.5095616765543" r="3" fill="steelblue" /><circle cx="378.2" cy="367.35232169903225" r="3" fill="steelblue" /><circle cx="372.2" cy="328.85447009336855" r="3" fill="steelblue" /><circle cx="378.2" cy="377.2006009194488" r="3" fill="steelblue" /><circle cx="378.2" cy="442.2071482000624" r="3" fill="steelblue" /><circle cx="366.2" cy="377.66259233290646" r="3" fill="steelblue" /><circle cx="384.2" cy="444.420251720593" r="3" fill="steelblue" /><circle cx="378.2" cy="416.1879190185059" r="3" fill="steelblue" /><circle cx="372.2" cy="388.6312728525229" r="3" fill="steelblue" /><circle cx="396.2" cy="407.08806824294953" r="3" fill="steelblue" /><circle cx="363.2" cy="369.7567633274414" r="3" fill="steelblue" /><circle cx="372.2" cy="408.21132585920697" r="3" fill="steelblue" /><circle cx="378.2" cy="409.4569035428834" r="3" fill="steelblue" /><circle cx="372.2" cy="414.85759711148376" r="3" fill="steelblue" /><circle cx="369.2" cy="420.766645325067" r="3" fill="steelblue" /><circle cx="366.2" cy="359.1851709853632" r="3" fill="steelblue" /><circle cx="372.2" cy="469.55188667795386" r="3" fill="steelblue" /><circle cx="387.2" cy="385.24870579271555" r="3" fill="steelblue" /><circle cx="360.2" cy="359.94764604542684" r="3" fill="steelblue" /><circle cx="390.2" cy="405.33336229055266" r="3" fill="steelblue" /><circle cx="372.2" cy="440.48020604222944" r="3" fill="steelblue" /><circle cx="372.2" cy="402.1901676026814" r="3" fill="steelblue" /><circle cx="378.2" cy="341.4730553861468" r="3" fill="steelblue" /><circle cx="372.2" cy="381.89309816582943" r="3" fill="steelblue" /><circle cx="372.2" cy="350.9556314560223" r="3" fill="steelblue" /><circle cx="354.2" cy="360.9906483932821" r="3" fill="steelblue" /><circle cx="393.2" cy="398.766774295372" r="3" fill="steelblue" /><circle cx="384.2" cy="413.1023308873114" r="3" fill="steelblue" /><circle cx="375.2" cy="421.67283274681233" r="3" fill="steelblue" /><circle cx="372.2" cy="429.21976842089896" r="3" fill="steelblue" /><circle cx="366.2" cy="384.7759088085187" r="3" fill="steelblue" /><circle cx="381.2" cy="424.6924912838135" r="3" fill="steelblue" /><circle cx="366.2" cy="393.568416050845" r="3" fill="steelblue" /><circle cx="390.2" cy="379.81432298160473" r="3" fill="steelblue" /><circle cx="372.2" cy="459.40660824598854" r="3" fill="steelblue" /><circle cx="372.2" cy="357.1506360211417" r="3" fill="steelblue" /><circle cx="366.2" cy="413.0863298360528" r="3" fill="steelblue" /><circle cx="378.2" cy="352.92155333928713" r="3" fill="steelblue" /><circle cx="372.2" cy="446.78329627897074" r="3" fill="steelblue" /><circle cx="381.2" cy="396.05635237278227" r="3" fill="steelblue" /><circle cx="390.2" cy="433.62990196363296" r="3" fill="steelblue" /><circle cx="360.2" cy="416.96498588232834" r="3" fill="steelblue" /><circle cx="348.2" cy="407.37368873936526" r="3" fill="steelblue" /><circle cx="360.2" cy="429.8757941735066" r="3" fill="steelblue" /><circle cx="384.2" cy="432.2735453813054" r="3" fill="steelblue" /><circle cx="360.2" cy="387.2352686669292" r="3" fill="steelblue" /><circle cx="378.2" cy="471.05693055759866" r="3" fill="steelblue" /><circle cx="366.2" cy="426.32384205734473" r="3" fill="steelblue" /><circle cx="372.2" cy="363.2440189154175" r="3" fill="steelblue" /><circle cx="360.2" cy="396.09700971735583" r="3" fill="steelblue" /><circle cx="387.2" cy="360.0432527242803" r="3" fill="steelblue" /><circle cx="384.2" cy="403.52475390924826" r="3" fill="steelblue" /><circle cx="384.2" cy="370.15947549709955" r="3" fill="steelblue" /><circle cx="360.2" cy="379.7985062476914" r="3" fill="steelblue" /><circle cx="387.2" cy="398.22713747452525" r="3" fill="steelblue" /><circle cx="354.2" cy="388.75342587668865" r="3" fill="steelblue" /><circle cx="360.2" cy="403.5735524393775" r="3" fill="steelblue" /><circle cx="372.2" cy="395.0568307294158" r="3" fill="steelblue" /><circle cx="378.2" cy="430.5238758922593" r="3" fill="steelblue" /><circle cx="366.2" cy="443.2204465139769" r="3" fill="steelblue" /><circle cx="372.2" cy="338.26627353150127" r="3" fill="steelblue" /><circle cx="372.2" cy="374.79639812949296" r="3" fill="steelblue" /><circle cx="378.2" cy="449.0771540029213" r="3" fill="steelblue" /><circle cx="384.2" cy="379.6970008226323" r="3" fill="steelblue" /><circle cx="378.2" cy="383.95134161573685" r="3" fill="steelblue" /><circle cx="369.2" cy="368.4900770502843" r="3" fill="steelblue" /><circle cx="378.2" cy="390.6872852727883" r="3" fill="steelblue" /><circle cx="366.2" cy="353.1121504490952" r="3" fill="steelblue" /><circle cx="366.2" cy="432.8593031029751" r="3" fill="steelblue" /><circle cx="402.2" cy="408.6856949381655" r="3" fill="steelblue" /><circle cx="366.2" cy="343.32459665062265" r="3" fill="steelblue" /><circle cx="366.2" cy="403.35689692452206" r="3" fill="steelblue" /><circle cx="354.2" cy="398.70965086583277" r="3" fill="steelblue" /><circle cx="354.2" cy="405.48263814549944" r="3" fill="steelblue" /><circle cx="378.2" cy="403.0964934092756" r="3" fill="steelblue" /><circle cx="381.2" cy="165.65241881941148" r="3" fill="steelblue" /><circle cx="378.2" cy="174.49517884188936" r="3" fill="steelblue" /><circle cx="372.2" cy="135.99732723622571" r="3" fill="steelblue" /><circle cx="378.2" cy="184.3434580623059" r="3" fill="steelblue" /><circle cx="378.2" cy="249.35000534291956" r="3" fill="steelblue" /><circle cx="366.2" cy="184.80544947576362" r="3" fill="steelblue" /><circle cx="384.2" cy="251.56310886345014" r="3" fill="steelblue" /><circle cx="378.2" cy="223.33077616136308" r="3" fill="steelblue" /><circle cx="372.2" cy="195.77412999538" r="3" fill="steelblue" /><circle cx="396.2" cy="214.23092538580664" r="3" fill="steelblue" /><circle cx="363.2" cy="176.89962047029854" r="3" fill="steelblue" /><circle cx="372.2" cy="215.35418300206413" r="3" fill="steelblue" /><circle cx="378.2" cy="216.5997606857406" r="3" fill="steelblue" /><circle cx="372.2" cy="222.00045425434087" r="3" fill="steelblue" /><circle cx="369.2" cy="227.90950246792414" r="3" fill="steelblue" /><circle cx="366.2" cy="166.3280281282203" r="3" fill="steelblue" /><circle cx="372.2" cy="276.694743820811" r="3" fill="steelblue" /><circle cx="387.2" cy="192.39156293557272" r="3" fill="steelblue" /><circle cx="360.2" cy="167.09050318828395" r="3" fill="steelblue" /><circle cx="390.2" cy="212.47621943340977" r="3" fill="steelblue" /><circle cx="372.2" cy="247.6230631850866" r="3" fill="steelblue" /><circle cx="372.2" cy="209.33302474553852" r="3" fill="steelblue" /><circle cx="378.2" cy="148.615912529004" r="3" fill="steelblue" /><circle cx="372.2" cy="189.0359553086866" r="3" fill="steelblue" /><circle cx="372.2" cy="158.09848859887938" r="3" fill="steelblue" /><circle cx="354.2" cy="168.13350553613924" r="3" fill="steelblue" /><circle cx="393.2" cy="205.90963143822916" r="3" fill="steelblue" /><circle cx="384.2" cy="220.24518803016855" r="3" fill="steelblue" /><circle cx="375.2" cy="228.81568988966944" r="3" fill="steelblue" /><circle cx="372.2" cy="236.36262556375607" r="3" fill="steelblue" /><circle cx="366.2" cy="191.9187659513758" r="3" fill="steelblue" /><circle cx="381.2" cy="231.83534842667063" r="3" fill="steelblue" /><circle cx="366.2" cy="200.7112731937022" r="3" fill="steelblue" /><circle cx="390.2" cy="186.95718012446184" r="3" fill="steelblue" /><circle cx="372.2" cy="266.5494653888457" r="3" fill="steelblue" /><circle cx="372.2" cy="164.29349316399885" r="3" fill="steelblue" /><circle cx="366.2" cy="220.22918697890992" r="3" fill="steelblue" /><circle cx="378.2" cy="160.06441048214435" r="3" fill="steelblue" /><circle cx="372.2" cy="253.92615342182785" r="3" fill="steelblue" /><circle cx="381.2" cy="203.19920951563944" r="3" fill="steelblue" /><circle cx="390.2" cy="240.7727591064901" r="3" fill="steelblue" /><circle cx="360.2" cy="224.10784302518545" r="3" fill="steelblue" /><circle cx="348.2" cy="214.51654588222243" r="3" fill="steelblue" /><circle cx="360.2" cy="237.0186513163638" r="3" fill="steelblue" /><circle cx="384.2" cy="239.41640252416255" r="3" fill="steelblue" /><circle cx="360.2" cy="194.3781258097864" r="3" fill="steelblue" /><circle cx="378.2" cy="278.19978770045583" r="3" fill="steelblue" /><circle cx="366.2" cy="233.4666992002019" r="3" fill="steelblue" /><circle cx="372.2" cy="170.3868760582746" r="3" fill="steelblue" /><circle cx="360.2" cy="203.23986686021294" r="3" fill="steelblue" /><circle cx="387.2" cy="167.18610986713747" r="3" fill="steelblue" /><circle cx="384.2" cy="210.66761105210543" r="3" fill="steelblue" /><circle cx="384.2" cy="177.30233263995672" r="3" fill="steelblue" /><circle cx="360.2" cy="186.94136339054853" r="3" fill="steelblue" /><circle cx="387.2" cy="205.36999461738242" r="3" fill="steelblue" /><circle cx="354.2" cy="195.89628301954576" r="3" fill="steelblue" /><circle cx="360.2" cy="210.7164095822347" r="3" fill="steelblue" /><circle cx="372.2" cy="202.199687872273" r="3" fill="steelblue" /><circle cx="378.2" cy="237.6667330351164" r="3" fill="steelblue" /><circle cx="366.2" cy="250.36330365683403" r="3" fill="steelblue" /><circle cx="372.2" cy="145.40913067435838" r="3" fill="steelblue" /><circle cx="372.2" cy="181.93925527235012" r="3" fill="steelblue" /><circle cx="378.2" cy="256.22001114577847" r="3" fill="steelblue" /><circle cx="384.2" cy="186.83985796548944" r="3" fill="steelblue" /><circle cx="378.2" cy="191.09419875859402" r="3" fill="steelblue" /><circle cx="369.2" cy="175.63293419314147" r="3" fill="steelblue" /><circle cx="378.2" cy="197.83014241564547" r="3" fill="steelblue" /><circle cx="366.2" cy="160.25500759195234" r="3" fill="steelblue" /><circle cx="366.2" cy="240.00216024583224" r="3" fill="steelblue" /><circle cx="402.2" cy="215.82855208102268" r="3" fill="steelblue" /><circle cx="366.2" cy="150.46745379347976" r="3" fill="steelblue" /><circle cx="366.2" cy="210.49975406737923" r="3" fill="steelblue" /><circle cx="354.2" cy="205.85250800868988" r="3" fill="steelblue" /><circle cx="354.2" cy="212.6254952883566" r="3" fill="steelblue" /><circle cx="378.2" cy="210.23935055213275" r="3" fill="steelblue" /><circle cx="566.2" cy="292.39886162039545" r="3" fill="steelblue" /><circle cx="578.2" cy="303.14750590892766" r="3" fill="steelblue" /><circle cx="563.2" cy="258.83310461005044" r="3" fill="steelblue" /><circle cx="575.2" cy="276.6955615790624" r="3" fill="steelblue" /><circle cx="578.2" cy="156.38652642847273" r="3" fill="steelblue" /><circle cx="542.2" cy="320.8319004144113" r="3" fill="steelblue" /><circle cx="575.2" cy="212.12568897594855" r="3" fill="steelblue" /><circle cx="578.2" cy="224.25412310134095" r="3" fill="steelblue" /><circle cx="572.2" cy="182.66097120200993" r="3" fill="steelblue" /><circle cx="572.2" cy="146.08938603189802" r="3" fill="steelblue" /><circle cx="569.2" cy="326.7792703599524" r="3" fill="steelblue" /><circle cx="548.2" cy="297.5814420732929" r="3" fill="steelblue" /><circle cx="572.2" cy="306.64396296405084" r="3" fill="steelblue" /><circle cx="578.2" cy="309.6051205625291" r="3" fill="steelblue" /><circle cx="554.2" cy="303.44952499885903" r="3" fill="steelblue" /><circle cx="572.2" cy="300.3001625011069" r="3" fill="steelblue" /><circle cx="593.2" cy="317.9577994816141" r="3" fill="steelblue" /><circle cx="605.2" cy="323.26956066631396" r="3" fill="steelblue" /><circle cx="599.2" cy="295.67879820323515" r="3" fill="steelblue" /><circle cx="575.2" cy="246.8563350855635" r="3" fill="steelblue" /><circle cx="590.2" cy="243.53225306885818" r="3" fill="steelblue" /><circle cx="572.2" cy="206.18798271831452" r="3" fill="steelblue" /><circle cx="563.2" cy="222.54580540474467" r="3" fill="steelblue" /><circle cx="578.2" cy="147.39512317027936" r="3" fill="steelblue" /><circle cx="593.2" cy="332.26873981296546" r="3" fill="steelblue" /><circle cx="572.2" cy="138.35374458459194" r="3" fill="steelblue" /><circle cx="560.2" cy="317.04489233917536" r="3" fill="steelblue" /><circle cx="572.2" cy="234.98399244405726" r="3" fill="steelblue" /><circle cx="587.2" cy="281.10969949488106" r="3" fill="steelblue" /><circle cx="569.2" cy="250.4741176004022" r="3" fill="steelblue" /><circle cx="569.2" cy="241.84958665499747" r="3" fill="steelblue" /><circle cx="572.2" cy="191.57173228416457" r="3" fill="steelblue" /><circle cx="536.2" cy="323.38954135600295" r="3" fill="steelblue" /><circle cx="608.2" cy="314.3505967095277" r="3" fill="steelblue" /><circle cx="584.2" cy="204.0518540645536" r="3" fill="steelblue" /><circle cx="584.2" cy="293.2370111287379" r="3" fill="steelblue" /><circle cx="575.2" cy="261.0336375842677" r="3" fill="steelblue" /><circle cx="557.2" cy="329.794268548843" r="3" fill="steelblue" /><circle cx="593.2" cy="283.29447554214914" r="3" fill="steelblue" /><circle cx="569.2" cy="215.09717225592965" r="3" fill="steelblue" /><circle cx="551.2" cy="323.7341502364475" r="3" fill="steelblue" /><circle cx="599.2" cy="326.9846586405755" r="3" fill="steelblue" /><circle cx="545.2" cy="332.6542265765924" r="3" fill="steelblue" /><circle cx="524.2" cy="325.3286089223806" r="3" fill="steelblue" /><circle cx="578.2" cy="296.30538990708965" r="3" fill="steelblue" /><circle cx="572.2" cy="228.90743909294378" r="3" fill="steelblue" /><circle cx="578.2" cy="196.5932519689435" r="3" fill="steelblue" /><circle cx="587.2" cy="329.55986485764845" r="3" fill="steelblue" /><circle cx="581.2" cy="219.0417774885076" r="3" fill="steelblue" /><circle cx="551.2" cy="332.4376267078811" r="3" fill="steelblue" /><circle cx="590.2" cy="310.8174016297975" r="3" fill="steelblue" /><circle cx="617.2" cy="324.73874652624943" r="3" fill="steelblue" /><circle cx="569.2" cy="279.3501137313617" r="3" fill="steelblue" /><circle cx="566.2" cy="267.03594921572176" r="3" fill="steelblue" /><circle cx="581.2" cy="277.08283159170867" r="3" fill="steelblue" /><circle cx="596.2" cy="312.26843938375373" r="3" fill="steelblue" /><circle cx="572.2" cy="162.51886829134844" r="3" fill="steelblue" /><circle cx="572.2" cy="69.10826570957187" r="3" fill="steelblue" /><circle cx="578.2" cy="203.90498249758218" r="3" fill="steelblue" /><circle cx="566.2" cy="286.05426458624913" r="3" fill="steelblue" /><circle cx="536.2" cy="316.17880185422257" r="3" fill="steelblue" /><circle cx="575.2" cy="323.9934310805209" r="3" fill="steelblue" /><circle cx="581.2" cy="242.7317545401308" r="3" fill="steelblue" /><circle cx="557.2" cy="238.40812776306285" r="3" fill="steelblue" /><circle cx="584.2" cy="310.1362093296281" r="3" fill="steelblue" /><circle cx="557.2" cy="282.2502115355351" r="3" fill="steelblue" /><circle cx="542.2" cy="314.3178621853751" r="3" fill="steelblue" /><circle cx="584.2" cy="149.8988641130701" r="3" fill="steelblue" /><circle cx="566.2" cy="207.6557744232253" r="3" fill="steelblue" /><circle cx="584.2" cy="303.1620382808135" r="3" fill="steelblue" /><circle cx="560.2" cy="288.15143205321965" r="3" fill="steelblue" /><circle cx="608.2" cy="306.905283854873" r="3" fill="steelblue" /><circle cx="602.2" cy="305.64078472118723" r="3" fill="steelblue" /><circle cx="548.2" cy="305.3542854807015" r="3" fill="steelblue" /><circle cx="581.2" cy="262.1448095315809" r="3" fill="steelblue" /><circle cx="548.2" cy="290.7063866142756" r="3" fill="steelblue" /><circle cx="575.2" cy="218.25554507086883" r="3" fill="steelblue" /><circle cx="566.2" cy="230.49956543252625" r="3" fill="steelblue" /><circle cx="593.2" cy="324.04550728375875" r="3" fill="steelblue" /><circle cx="563.2" cy="280.19435486386794" r="3" fill="steelblue" /><circle cx="566.2" cy="321.41678473711295" r="3" fill="steelblue" /><circle cx="614.2" cy="316.3579645915779" r="3" fill="steelblue" /><circle cx="572.2" cy="285.1606358727088" r="3" fill="steelblue" /><circle cx="587.2" cy="238.14699818974452" r="3" fill="steelblue" /><circle cx="563.2" cy="326.84531647380703" r="3" fill="steelblue" /><circle cx="530.2" cy="324.52128706002264" r="3" fill="steelblue" /><circle cx="578.2" cy="282.6689714562492" r="3" fill="steelblue" /><circle cx="584.2" cy="287.23246104286716" r="3" fill="steelblue" /><circle cx="572.2" cy="199.25828844270364" r="3" fill="steelblue" /><circle cx="572.2" cy="266.51612006314826" r="3" fill="steelblue" /><circle cx="587.2" cy="316.0557227524096" r="3" fill="steelblue" /><circle cx="560.2" cy="303.2748969411691" r="3" fill="steelblue" /><circle cx="566.2" cy="308.66804404810443" r="3" fill="steelblue" /><circle cx="566.2" cy="199.78099329771175" r="3" fill="steelblue" /><circle cx="581.2" cy="235.60443251400812" r="3" fill="steelblue" /><circle cx="566.2" cy="315.0408151189513" r="3" fill="steelblue" /><circle cx="557.2" cy="244.93388285113306" r="3" fill="steelblue" /><circle cx="578.2" cy="315.81964332940834" r="3" fill="steelblue" /><circle cx="557.2" cy="323.0070342292072" r="3" fill="steelblue" /><circle cx="530.2" cy="318.15151470670435" r="3" fill="steelblue" /><circle cx="584.2" cy="226.1313210875627" r="3" fill="steelblue" /><circle cx="590.2" cy="303.33675330142677" r="3" fill="steelblue" /><circle cx="572.2" cy="331.9901604106313" r="3" fill="steelblue" /><circle cx="563.2" cy="242.92433217936374" r="3" fill="steelblue" /><circle cx="563.2" cy="235.7975263260414" r="3" fill="steelblue" /><circle cx="602.2" cy="314.0793579531661" r="3" fill="steelblue" /><circle cx="593.2" cy="294.0582801267547" r="3" fill="steelblue" /><circle cx="554.2" cy="317.6952814192499" r="3" fill="steelblue" /><circle cx="596.2" cy="304.3073189831182" r="3" fill="steelblue" /><circle cx="578.2" cy="138.7455282727435" r="3" fill="steelblue" /><circle cx="560.2" cy="310.5875596985951" r="3" fill="steelblue" /><circle cx="566.2" cy="148.81966267888333" r="3" fill="steelblue" /><circle cx="554.2" cy="290.52307501798884" r="3" fill="steelblue" /><circle cx="575.2" cy="240.5030863201987" r="3" fill="steelblue" /><circle cx="560.2" cy="294.80595162960276" r="3" fill="steelblue" /><circle cx="578.2" cy="187.42029056046186" r="3" fill="steelblue" /><circle cx="554.2" cy="296.62470091380385" r="3" fill="steelblue" /><circle cx="566.2" cy="332.2162704386542" r="3" fill="steelblue" /><circle cx="569.2" cy="272.2540020773572" r="3" fill="steelblue" /><circle cx="572.2" cy="318.7057023608577" r="3" fill="steelblue" /><circle cx="590.2" cy="288.5935224900979" r="3" fill="steelblue" /><circle cx="572.2" cy="93.35227900521062" r="3" fill="steelblue" /><circle cx="581.2" cy="321.71072006916324" r="3" fill="steelblue" /><circle cx="548.2" cy="318.3954720871782" r="3" fill="steelblue" /><circle cx="566.2" cy="301.2444965193513" r="3" fill="steelblue" /><circle cx="554.2" cy="311.62083414173884" r="3" fill="steelblue" /><circle cx="575.2" cy="253.55469692585805" r="3" fill="steelblue" /><circle cx="611.2" cy="324.1107872036431" r="3" fill="steelblue" /><circle cx="572.2" cy="291.69285530071767" r="3" fill="steelblue" /><circle cx="566.2" cy="187.48381665325775" r="3" fill="steelblue" /><circle cx="578.2" cy="290.12156997451723" r="3" fill="steelblue" /><circle cx="572.2" cy="312.6752352456298" r="3" fill="steelblue" /><circle cx="599.2" cy="319.3394584916563" r="3" fill="steelblue" /><circle cx="581.2" cy="328.39645486210384" r="3" fill="steelblue" /><circle cx="569.2" cy="222.0480438801597" r="3" fill="steelblue" /><circle cx="572.2" cy="156.25666648779583" r="3" fill="steelblue" /><circle cx="578.2" cy="268.7266779691072" r="3" fill="steelblue" /><circle cx="536.2" cy="307.1944254929024" r="3" fill="steelblue" /><circle cx="584.2" cy="269.62604477656134" r="3" fill="steelblue" /><circle cx="569.2" cy="257.054532722634" r="3" fill="steelblue" /><circle cx="548.2" cy="312.26868557890225" r="3" fill="steelblue" /><circle cx="581.2" cy="253.89690716638594" r="3" fill="steelblue" /><circle cx="602.2" cy="332.9400494172619" r="3" fill="steelblue" /><circle cx="539.2" cy="333.0003627300252" r="3" fill="steelblue" /><circle cx="578.2" cy="97.23584894098542" r="3" fill="steelblue" /><circle cx="551.2" cy="283.65008499320754" r="3" fill="steelblue" /><circle cx="542.2" cy="306.88352917196323" r="3" fill="steelblue" /><circle cx="599.2" cy="287.43351450258814" r="3" fill="steelblue" /><circle cx="587.2" cy="322.2017090967316" r="3" fill="steelblue" /><circle cx="578.2" cy="230.26549924994373" r="3" fill="steelblue" /></svg>