<svg xmlns="http://www.w3.org/2000/svg" width="686.2" height="545" font-family="DejaVu Sans, Liberation Sans, Arial, sans-serif" fill="black"><rect width="100%" height="100%" fill="white" /><line x1="72.19999999999999" y1="494" x2="672.2" y2="494" stroke="black" stroke-width="1" /><line x1="72.19999999999999" y1="44" x2="72.19999999999999" y2="494" stroke="black" stroke-width="1" /><line x1="222.2" y1="44" x2="222.2" y2="494" stroke="#ccc" stroke-width="1" /><line x1="372.2" y1="44" x2="372.2" y2="494" stroke="#ccc" stroke-width="1" /><line x1="522.2" y1="44" x2="522.2" y2="494" stroke="#ccc" stroke-width="1" /><line x1="672.2" y1="44" x2="672.2" y2="494" stroke="#ccc" stroke-width="1" /><line x1="72.19999999999999" y1="419" x2="672.2" y2="419" stroke="#ccc" stroke-width="1" /><line x1="72.19999999999999" y1="344" x2="672.2" y2="344" stroke="#ccc" stroke-width="1" /><line x1="72.19999999999999" y1="269" x2="672.2" y2="269" stroke="#ccc" stroke-width="1" /><line x1="72.19999999999999" y1="194" x2="672.2" y2="194" stroke="#ccc" stroke-width="1" /><line x1="72.19999999999999" y1="119" x2="672.2" y2="119" stroke="#ccc" stroke-width="1" /><line x1="72.19999999999999" y1="44" x2="672.2" y2="44" stroke="#ccc" stroke-width="1" /><line x1="72.19999999999999" y1="494" x2="72.19999999999999" y2="499" stroke="black" stroke-width="1" /><text x="72.19999999999999" y="511" font-size="12" text-anchor="middle">0</text><line x1="222.2" y1="494" x2="222.2" y2="499" stroke="black" stroke-width="1" /><text x="222.2" y="511" font-size="12" text-anchor="middle">20</text><line x1="372.2" y1="494" x2="372.2" y2="499" stroke="black" stroke-width="1" /><text x="372.2" y="511" font-size="12" text-anchor="middle">40</text><line x1="522.2" y1="494" x2="522.2" y2="499" stroke="black" stroke-width="1" /><text x="522.2" y="511" font-size="12" text-anchor="middle">60</text><line x1="672.2" y1="494" x2="672.2" y2="499" stroke="black" stroke-width="1" /><text x="672.2" y="511" font-size="12" text-anchor="middle">80</text><line x1="67.19999999999999" y1="494" x2="72.19999999999999" y2="494" stroke="black" stroke-width="1" /><text x="64.19999999999999" y="498.2" font-size="12" text-anchor="end">-1.5</text><line x1="67.19999999999999" y1="419" x2="72.19999999999999" y2="419" stroke="black" stroke-width="1" /><text x="64.19999999999999" y="423.2" font-size="12" text-anchor="end">-1</text><line x1="67.19999999999999" y1="344" x2="72.19999999999999" y2="344" stroke="black" stroke-width="1" /><text x="64.19999999999999" y="348.2" font-size="12" text-anchor="end">-0.5</text><line x1="67.19999999999999" y1="269" x2="72.19999999999999" y2="269" stroke="black" stroke-width="1" /><text x="64.19999999999999" y="273.2" font-size="12" text-anchor="end">0</text><line x1="67.19999999999999" y1="194" x2="72.19999999999999" y2="194" stroke="black" stroke-width="1" /><text x="64.19999999999999" y="198.2" font-size="12" text-anchor="end">0.5</text><line x1="67.19999999999999" y1="119" x2="72.19999999999999" y2="119" stroke="black" stroke-width="1" /><text x="64.19999999999999" y="123.2" font-size="12" text-anchor="end">1</text><line x1="67.19999999999999" y1="44" x2="72.19999999999999" y2="44" stroke="black" stroke-width="1" /><text x="64.19999999999999" y="48.2" font-size="12" text-anchor="end">1.5</text><text x="343.1" y="538" font-size="14" text-anchor="middle">Sample</text><text x="14" y="272.5" font-size="14" text-anchor="middle" transform="rotate(-90,14,272.5)">Amplitude</text><text x="343.1" y="22" font-size="18" text-anchor="middle">Series Plot — Line Style</text><path d="M 72.19999999999999 269 L 79.69999999999999 257.23113564082325 L 87.19999999999999 245.5348302439654 L 94.69999999999999 233.9831954216142 L 102.19999999999999 222.64745084375784 L 109.69999999999999 211.59748514523653 L 117.19999999999999 200.901425039068 L 124.69999999999999 190.62521529260766 L 132.2 180.832212156129 L 139.7 171.58279275047238 L 147.2 162.93398282201792 L 154.7 154.93910515999545 L 162.2 147.6474508437579 L 169.7 141.10397534688616 L 177.2 135.34902137174487 L 184.7 130.41807012330696 L 192.2 126.34152255572695 L 199.7 123.14451194034848 L 207.2 120.84674891072933 L 214.7 119.46239994003082 L 222.2 119 L 229.7 119.46239994003082 L 237.2 120.84674891072933 L 244.7 123.14451194034848 L 252.2 126.34152255572695 L 259.7 130.41807012330696 L 267.2 135.34902137174487 L 274.7 141.10397534688616 L 282.2 147.6474508437579 L 289.7 154.93910515999534 L 297.2 162.93398282201792 L 304.7 171.58279275047238 L 312.2 180.832212156129 L 319.7 190.62521529260766 L 327.2 200.901425039068 L 334.7 211.59748514523653 L 342.2 222.64745084375784 L 349.7 233.98319542161414 L 357.2 245.5348302439654 L 364.7 257.23113564082325 L 372.2 268.99999999999994 L 379.7 280.76886435917663 L 387.2 292.4651697560346 L 394.7 304.0168045783858 L 402.2 315.35254915624205 L 409.7 326.40251485476347 L 417.2 337.098574960932 L 424.7 347.37478470739234 L 432.2 357.16778784387094 L 439.7 366.41720724952745 L 447.2 375.06601717798213 L 454.7 383.0608948400046 L 462.2 390.3525491562421 L 469.7 396.89602465311384 L 477.2 402.6509786282552 L 484.7 407.58192987669304 L 492.2 411.65847744427305 L 499.7 414.85548805965146 L 507.2 417.1532510892706 L 514.7 418.5376000599692 L 522.2 419 L 529.7 418.5376000599692 L 537.2 417.15325108927067 L 544.7 414.85548805965146 L 552.2 411.65847744427305 L 559.7 407.58192987669304 L 567.2 402.6509786282552 L 574.7 396.8960246531139 L 582.2 390.35254915624216 L 589.7 383.0608948400046 L 597.2 375.06601717798213 L 604.7 366.4172072495275 L 612.2 357.167787843871 L 619.7 347.37478470739245 L 627.2 337.09857496093207 L 634.7 326.4025148547636 L 642.2 315.35254915624216 L 649.7 304.01680457838575 L 657.2 292.4651697560347 L 664.7 280.76886435917675 " stroke="steelblue" stroke-width="2" fill="none" /></svg>