<svg xmlns="http://www.w3.org/2000/svg" width="847.2" height="545" font-family="DejaVu Sans, Liberation Sans, Arial, sans-serif" fill="black"><rect width="100%" height="100%" fill="white" /><line x1="72.19999999999999" y1="494" x2="672.2" y2="494" stroke="black" stroke-width="1" /><line x1="72.19999999999999" y1="44" x2="72.19999999999999" y2="494" stroke="black" stroke-width="1" /><line x1="222.2" y1="44" x2="222.2" y2="494" stroke="#ccc" stroke-width="1" /><line x1="372.2" y1="44" x2="372.2" y2="494" stroke="#ccc" stroke-width="1" /><line x1="522.2" y1="44" x2="522.2" y2="494" stroke="#ccc" stroke-width="1" /><line x1="672.2" y1="44" x2="672.2" y2="494" stroke="#ccc" stroke-width="1" /><line x1="72.19999999999999" y1="419" x2="672.2" y2="419" stroke="#ccc" stroke-width="1" /><line x1="72.19999999999999" y1="344" x2="672.2" y2="344" stroke="#ccc" stroke-width="1" /><line x1="72.19999999999999" y1="269" x2="672.2" y2="269" stroke="#ccc" stroke-width="1" /><line x1="72.19999999999999" y1="194" x2="672.2" y2="194" stroke="#ccc" stroke-width="1" /><line x1="72.19999999999999" y1="119" x2="672.2" y2="119" stroke="#ccc" stroke-width="1" /><line x1="72.19999999999999" y1="44" x2="672.2" y2="44" stroke="#ccc" stroke-width="1" /><line x1="72.19999999999999" y1="494" x2="72.19999999999999" y2="499" stroke="black" stroke-width="1" /><text x="72.19999999999999" y="511" font-size="12" text-anchor="middle">0</text><line x1="222.2" y1="494" x2="222.2" y2="499" stroke="black" stroke-width="1" /><text x="222.2" y="511" font-size="12" text-anchor="middle">20</text><line x1="372.2" y1="494" x2="372.2" y2="499" stroke="black" stroke-width="1" /><text x="372.2" y="511" font-size="12" text-anchor="middle">40</text><line x1="522.2" y1="494" x2="522.2" y2="499" stroke="black" stroke-width="1" /><text x="522.2" y="511" font-size="12" text-anchor="middle">60</text><line x1="672.2" y1="494" x2="672.2" y2="499" stroke="black" stroke-width="1" /><text x="672.2" y="511" font-size="12" text-anchor="middle">80</text><line x1="67.19999999999999" y1="494" x2="72.19999999999999" y2="494" stroke="black" stroke-width="1" /><text x="64.19999999999999" y="498.2" font-size="12" text-anchor="end">-1.5</text><line x1="67.19999999999999" y1="419" x2="72.19999999999999" y2="419" stroke="black" stroke-width="1" /><text x="64.19999999999999" y="423.2" font-size="12" text-anchor="end">-1</text><line x1="67.19999999999999" y1="344" x2="72.19999999999999" y2="344" stroke="black" stroke-width="1" /><text x="64.19999999999999" y="348.2" font-size="12" text-anchor="end">-0.5</text><line x1="67.19999999999999" y1="269" x2="72.19999999999999" y2="269" stroke="black" stroke-width="1" /><text x="64.19999999999999" y="273.2" font-size="12" text-anchor="end">0</text><line x1="67.19999999999999" y1="194" x2="72.19999999999999" y2="194" stroke="black" stroke-width="1" /><text x="64.19999999999999" y="198.2" font-size="12" text-anchor="end">0.5</text><line x1="67.19999999999999" y1="119" x2="72.19999999999999" y2="119" stroke="black" stroke-width="1" /><text x="64.19999999999999" y="123.2" font-size="12" text-anchor="end">1</text><line x1="67.19999999999999" y1="44" x2="72.19999999999999" y2="44" stroke="black" stroke-width="1" /><text x="64.19999999999999" y="48.2" font-size="12" text-anchor="end">1.5</text><text x="423.6" y="538" font-size="14" text-anchor="middle">Sample</text><text x="14" y="272.5" font-size="14" text-anchor="middle" transform="rotate(-90,14,272.5)">Amplitude</text><text x="423.6" y="22" font-size="18" text-anchor="middle">Multiple Series</text><path d="M 72.19999999999999 269 L 79.69999999999999 257.23113564082325 L 87.19999999999999 245.5348302439654 L 94.69999999999999 233.9831954216142 L 102.19999999999999 222.64745084375784 L 109.69999999999999 211.59748514523653 L 117.19999999999999 200.901425039068 L 124.69999999999999 190.62521529260766 L 132.2 180.832212156129 L 139.7 171.58279275047238 L 147.2 162.93398282201792 L 154.7 154.93910515999545 L 162.2 147.6474508437579 L 169.7 141.10397534688616 L 177.2 135.34902137174487 L 184.7 130.41807012330696 L 192.2 126.34152255572695 L 199.7 123.14451194034848 L 207.2 120.84674891072933 L 214.7 119.46239994003082 L 222.2 119 L 229.7 119.46239994003082 L 237.2 120.84674891072933 L 244.7 123.14451194034848 L 252.2 126.34152255572695 L 259.7 130.41807012330696 L 267.2 135.34902137174487 L 274.7 141.10397534688616 L 282.2 147.6474508437579 L 289.7 154.93910515999534 L 297.2 162.93398282201792 L 304.7 171.58279275047238 L 312.2 180.832212156129 L 319.7 190.62521529260766 L 327.2 200.901425039068 L 334.7 211.59748514523653 L 342.2 222.64745084375784 L 349.7 233.98319542161414 L 357.2 245.5348302439654 L 364.7 257.23113564082325 L 372.2 268.99999999999994 L 379.7 280.76886435917663 L 387.2 292.4651697560346 L 394.7 304.0168045783858 L 402.2 315.35254915624205 L 409.7 326.40251485476347 L 417.2 337.098574960932 L 424.7 347.37478470739234 L 432.2 357.16778784387094 L 439.7 366.41720724952745 L 447.2 375.06601717798213 L 454.7 383.0608948400046 L 462.2 390.3525491562421 L 469.7 396.89602465311384 L 477.2 402.6509786282552 L 484.7 407.58192987669304 L 492.2 411.65847744427305 L 499.7 414.85548805965146 L 507.2 417.1532510892706 L 514.7 418.5376000599692 L 522.2 419 L 529.7 418.5376000599692 L 537.2 417.15325108927067 L 544.7 414.85548805965146 L 552.2 411.65847744427305 L 559.7 407.58192987669304 L 567.2 402.6509786282552 L 574.7 396.8960246531139 L 582.2 390.35254915624216 L 589.7 383.0608948400046 L 597.2 375.06601717798213 L 604.7 366.4172072495275 L 612.2 357.167787843871 L 619.7 347.37478470739245 L 627.2 337.09857496093207 L 634.7 326.4025148547636 L 642.2 315.35254915624216 L 649.7 304.01680457838575 L 657.2 292.4651697560347 L 664.7 280.76886435917675 " stroke="steelblue" stroke-width="2" fill="none" /><path d="M 72.19999999999999 119 L 79.69999999999999 119.46239994003082 L 87.19999999999999 120.84674891072933 L 94.69999999999999 123.14451194034848 L 102.19999999999999 126.34152255572695 L 109.69999999999999 130.41807012330696 L 117.19999999999999 135.34902137174487 L 124.69999999999999 141.10397534688616 L 132.2 147.6474508437579 L 139.7 154.93910515999534 L 147.2 162.93398282201792 L 154.7 171.58279275047238 L 162.2 180.832212156129 L 169.7 190.62521529260766 L 177.2 200.901425039068 L 184.7 211.59748514523653 L 192.2 222.64745084375784 L 199.7 233.98319542161414 L 207.2 245.5348302439654 L 214.7 257.23113564082325 L 222.2 269 L 229.7 280.76886435917675 L 237.2 292.4651697560346 L 244.7 304.0168045783858 L 252.2 315.3525491562421 L 259.7 326.40251485476347 L 267.2 337.098574960932 L 274.7 347.37478470739234 L 282.2 357.16778784387094 L 289.7 366.4172072495275 L 297.2 375.06601717798213 L 304.7 383.0608948400046 L 312.2 390.3525491562421 L 319.7 396.89602465311384 L 327.2 402.6509786282552 L 334.7 407.58192987669304 L 342.2 411.65847744427305 L 349.7 414.85548805965146 L 357.2 417.1532510892706 L 364.7 418.5376000599692 L 372.2 419 L 379.7 418.53760005996924 L 387.2 417.15325108927067 L 394.7 414.8554880596515 L 402.2 411.65847744427305 L 409.7 407.58192987669304 L 417.2 402.6509786282552 L 424.7 396.89602465311384 L 432.2 390.35254915624216 L 439.7 383.0608948400047 L 447.2 375.06601717798213 L 454.7 366.4172072495276 L 462.2 357.167787843871 L 469.7 347.37478470739234 L 477.2 337.09857496093207 L 484.7 326.40251485476347 L 492.2 315.3525491562421 L 499.7 304.01680457838586 L 507.2 292.46516975603464 L 514.7 280.7688643591768 L 522.2 269 L 529.7 257.2311356408232 L 537.2 245.5348302439654 L 544.7 233.98319542161414 L 552.2 222.6474508437579 L 559.7 211.59748514523665 L 567.2 200.901425039068 L 574.7 190.62521529260772 L 582.2 180.83221215612906 L 589.7 171.58279275047238 L 597.2 162.93398282201792 L 604.7 154.93910515999534 L 612.2 147.6474508437579 L 619.7 141.10397534688627 L 627.2 135.34902137174487 L 634.7 130.41807012330702 L 642.2 126.34152255572695 L 649.7 123.14451194034848 L 657.2 120.84674891072933 L 664.7 119.46239994003082 " stroke="firebrick" stroke-width="2" fill="none" /><path d="M 72.19999999999999 269 L 79.69999999999999 257.68434095774967 L 87.19999999999999 247.3072659663661 L 94.69999999999999 237.87478219333445 L 102.19999999999999 229.38544283855566 L 109.69999999999999 221.8309208899305 L 117.19999999999999 215.19659052863386 L 124.69999999999999 209.46211129755852 L 132.2 204.60201049503058 L 139.7 200.5862596118243 L 147.2 197.3808409895267 L 154.7 194.948301239466 L 162.2 193.2482883209379 L 169.7 192.23806953282048 L 177.2 191.8730280215225 L 184.7 192.10713574848836 L 192.2 192.89340119029157 L 199.7 194.18429036204884 L 207.2 195.9321200590337 L 214.7 198.08942250072795 L 222.2 200.60928083510055 L 229.7 203.4456352178106 L 237.2 206.55355942064375 L 244.7 209.88950814534888 L 252.2 213.41153542282933 L 259.7 217.07948466322796 L 267.2 220.85515108981787 L 274.7 224.7024174389071 L 282.2 228.58736393945355 L 289.7 232.4783537001224 L 297.2 236.3460947285896 L 304.7 240.16367988855347 L 312.2 243.90660616480798 L 319.7 247.55277465656886 L 327.2 251.0824727547882 L 334.7 254.4783399812659 L 342.2 257.7253189768223 L 349.7 260.81059312351215 L 357.2 263.7235122727459 L 364.7 266.4555080281543 L 372.2 269 L 379.7 271.35229440783263 L 387.2 273.50947636080156 L 394.7 275.4702970914748 L 402.2 277.2350573600441 L 409.7 278.8054881822568 L 417.2 280.18462996713413 L 424.7 281.37671108028235 L 432.2 282.3870267761339 L 439.7 283.221819368465 L 447.2 283.888160433695 L 454.7 284.39383576639403 L 462.2 284.7472337316885 L 469.7 284.95723758538395 L 477.2 285.033122260103 L 484.7 284.9844560450009 L 492.2 284.8210075180596 L 499.7 284.5526580239189 L 507.2 284.1893199269764 L 514.7 283.7408608093366 L 522.2 283.2170337263232 L 529.7 282.62741357886483 L 537.2 281.9813396122496 L 544.7 281.28786400463 L 552.2 280.5557064662916 L 559.7 279.79321473212144 L 567.2 279.0083307949201 L 574.7 278.2085626961629 L 582.2 277.40096166348394 L 589.7 276.59210436045095 L 597.2 275.78807999401874 L 604.7 274.9944820082825 L 612.2 274.21640407966254 L 619.7 273.45844011829183 L 627.2 272.7246879729879 L 634.7 272.01875653260424 L 642.2 271.34377591458815 L 649.7 270.7024104320483 L 657.2 270.0968740333616 L 664.7 269.5289479131352 " stroke="seagreen" stroke-width="1.5" fill="none" /><rect x="677.2" y="34" width="161" height="74" fill="white" /><rect x="677.2" y="34" width="161" height="74" fill="none" stroke="black" stroke-width="1" /><text x="707.2" y="49" font-size="12" text-anchor="start">sin(t)</text><circle cx="693.2" cy="45" r="5" fill="steelblue" /><text x="707.2" y="67" font-size="12" text-anchor="start">cos(t)</text><circle cx="693.2" cy="63" r="5" fill="firebrick" /><text x="707.2" y="85" font-size="12" text-anchor="start">e^(−t/2)·sin(t)</text><circle cx="693.2" cy="81" r="5" fill="seagreen" /></svg>