<svg xmlns="http://www.w3.org/2000/svg" width="766.2" height="545" font-family="DejaVu Sans, Liberation Sans, Arial, sans-serif" fill="black"><rect width="100%" height="100%" fill="white" /><line x1="72.19999999999999" y1="494" x2="672.2" y2="494" stroke="black" stroke-width="1" /><line x1="72.19999999999999" y1="44" x2="72.19999999999999" y2="494" stroke="black" stroke-width="1" /><line x1="222.2" y1="44" x2="222.2" y2="494" stroke="#ccc" stroke-width="1" /><line x1="372.2" y1="44" x2="372.2" y2="494" stroke="#ccc" stroke-width="1" /><line x1="522.2" y1="44" x2="522.2" y2="494" stroke="#ccc" stroke-width="1" /><line x1="672.2" y1="44" x2="672.2" y2="494" stroke="#ccc" stroke-width="1" /><line x1="72.19999999999999" y1="381.5" x2="672.2" y2="381.5" stroke="#ccc" stroke-width="1" /><line x1="72.19999999999999" y1="269" x2="672.2" y2="269" stroke="#ccc" stroke-width="1" /><line x1="72.19999999999999" y1="156.5" x2="672.2" y2="156.5" stroke="#ccc" stroke-width="1" /><line x1="72.19999999999999" y1="44" x2="672.2" y2="44" stroke="#ccc" stroke-width="1" /><line x1="72.19999999999999" y1="494" x2="72.19999999999999" y2="499" stroke="black" stroke-width="1" /><text x="72.19999999999999" y="511" font-size="12" text-anchor="middle">0</text><line x1="222.2" y1="494" x2="222.2" y2="499" stroke="black" stroke-width="1" /><text x="222.2" y="511" font-size="12" text-anchor="middle">20</text><line x1="372.2" y1="494" x2="372.2" y2="499" stroke="black" stroke-width="1" /><text x="372.2" y="511" font-size="12" text-anchor="middle">40</text><line x1="522.2" y1="494" x2="522.2" y2="499" stroke="black" stroke-width="1" /><text x="522.2" y="511" font-size="12" text-anchor="middle">60</text><line x1="672.2" y1="494" x2="672.2" y2="499" stroke="black" stroke-width="1" /><text x="672.2" y="511" font-size="12" text-anchor="middle">80</text><line x1="67.19999999999999" y1="494" x2="72.19999999999999" y2="494" stroke="black" stroke-width="1" /><text x="64.19999999999999" y="498.2" font-size="12" text-anchor="end">-1</text><line x1="67.19999999999999" y1="381.5" x2="72.19999999999999" y2="381.5" stroke="black" stroke-width="1" /><text x="64.19999999999999" y="385.7" font-size="12" text-anchor="end">-0.5</text><line x1="67.19999999999999" y1="269" x2="72.19999999999999" y2="269" stroke="black" stroke-width="1" /><text x="64.19999999999999" y="273.2" font-size="12" text-anchor="end">0</text><line x1="67.19999999999999" y1="156.5" x2="72.19999999999999" y2="156.5" stroke="black" stroke-width="1" /><text x="64.19999999999999" y="160.7" font-size="12" text-anchor="end">0.5</text><line x1="67.19999999999999" y1="44" x2="72.19999999999999" y2="44" stroke="black" stroke-width="1" /><text x="64.19999999999999" y="48.2" font-size="12" text-anchor="end">1</text><text x="383.1" y="538" font-size="14" text-anchor="middle">Sample</text><text x="14" y="272.5" font-size="14" text-anchor="middle" transform="rotate(-90,14,272.5)">Amplitude</text><text x="383.1" y="22" font-size="18" text-anchor="middle">Custom Stroke &amp; Point Size</text><path d="M 72.19999999999999 269 L 79.69999999999999 235.5891414009613 L 87.19999999999999 203.15788663352868 L 94.69999999999999 172.63704987013392 L 102.19999999999999 144.86252914532793 L 109.69999999999999 120.53435927334294 L 117.19999999999999 100.18317456843016 L 124.69999999999999 84.14590291192536 L 132.2 72.55200338427068 L 139.7 65.32097803180744 L 147.2 62.171266502934884 L 154.7 62.640004621666435 L 162.2 66.11252914532787 L 169.7 71.85997405869978 L 177.2 79.08285844783285 L 184.7 86.95823686960404 L 192.2 94.6877883633324 L 199.7 101.54417058852482 L 207.2 106.91306374880884 L 214.7 110.3285695368894 L 222.2 111.5 L 229.7 110.3285695368894 L 237.2 106.9130637488089 L 244.7 101.54417058852482 L 252.2 94.6877883633324 L 259.7 86.9582368696041 L 267.2 79.08285844783285 L 274.7 71.85997405869966 L 282.2 66.11252914532787 L 289.7 62.64000462166649 L 297.2 62.171266502934884 L 304.7 65.32097803180744 L 312.2 72.55200338427068 L 319.7 84.14590291192536 L 327.2 100.18317456843016 L 334.7 120.53435927334294 L 342.2 144.86252914532787 L 349.7 172.6370498701338 L 357.2 203.15788663352868 L 364.7 235.58914140096124 L 372.2 268.99999999999994 L 379.7 302.4108585990384 L 387.2 334.84211336647127 L 394.7 365.3629501298661 L 402.2 393.1374708546719 L 409.7 417.465640726657 L 417.2 437.8168254315698 L 424.7 453.8540970880747 L 432.2 465.4479966157293 L 439.7 472.6790219681925 L 447.2 475.8287334970652 L 454.7 475.35999537833356 L 462.2 471.88747085467213 L 469.7 466.1400259413003 L 477.2 458.91714155216715 L 484.7 451.04176313039585 L 492.2 443.31221163666766 L 499.7 436.45582941147524 L 507.2 431.08693625119116 L 514.7 427.6714304631107 L 522.2 426.5 L 529.7 427.6714304631106 L 537.2 431.08693625119116 L 544.7 436.4558294114752 L 552.2 443.3122116366676 L 559.7 451.0417631303958 L 567.2 458.9171415521671 L 574.7 466.1400259413002 L 582.2 471.887470854672 L 589.7 475.3599953783336 L 597.2 475.8287334970652 L 604.7 472.67902196819256 L 612.2 465.4479966157294 L 619.7 453.85409708807475 L 627.2 437.8168254315699 L 634.7 417.4656407266573 L 642.2 393.13747085467213 L 649.7 365.36295012986614 L 657.2 334.8421133664714 L 664.7 302.41085859903853 " stroke="darkorchid" stroke-width="1.5" fill="none" /><circle cx="72.19999999999999" cy="269" r="4" fill="darkorchid" /><circle cx="79.69999999999999" cy="235.5891414009613" r="4" fill="darkorchid" /><circle cx="87.19999999999999" cy="203.15788663352868" r="4" fill="darkorchid" /><circle cx="94.69999999999999" cy="172.63704987013392" r="4" fill="darkorchid" /><circle cx="102.19999999999999" cy="144.86252914532793" r="4" fill="darkorchid" /><circle cx="109.69999999999999" cy="120.53435927334294" r="4" fill="darkorchid" /><circle cx="117.19999999999999" cy="100.18317456843016" r="4" fill="darkorchid" /><circle cx="124.69999999999999" cy="84.14590291192536" r="4" fill="darkorchid" /><circle cx="132.2" cy="72.55200338427068" r="4" fill="darkorchid" /><circle cx="139.7" cy="65.32097803180744" r="4" fill="darkorchid" /><circle cx="147.2" cy="62.171266502934884" r="4" fill="darkorchid" /><circle cx="154.7" cy="62.640004621666435" r="4" fill="darkorchid" /><circle cx="162.2" cy="66.11252914532787" r="4" fill="darkorchid" /><circle cx="169.7" cy="71.85997405869978" r="4" fill="darkorchid" /><circle cx="177.2" cy="79.08285844783285" r="4" fill="darkorchid" /><circle cx="184.7" cy="86.95823686960404" r="4" fill="darkorchid" /><circle cx="192.2" cy="94.6877883633324" r="4" fill="darkorchid" /><circle cx="199.7" cy="101.54417058852482" r="4" fill="darkorchid" /><circle cx="207.2" cy="106.91306374880884" r="4" fill="darkorchid" /><circle cx="214.7" cy="110.3285695368894" r="4" fill="darkorchid" /><circle cx="222.2" cy="111.5" r="4" fill="darkorchid" /><circle cx="229.7" cy="110.3285695368894" r="4" fill="darkorchid" /><circle cx="237.2" cy="106.9130637488089" r="4" fill="darkorchid" /><circle cx="244.7" cy="101.54417058852482" r="4" fill="darkorchid" /><circle cx="252.2" cy="94.6877883633324" r="4" fill="darkorchid" /><circle cx="259.7" cy="86.9582368696041" r="4" fill="darkorchid" /><circle cx="267.2" cy="79.08285844783285" r="4" fill="darkorchid" /><circle cx="274.7" cy="71.85997405869966" r="4" fill="darkorchid" /><circle cx="282.2" cy="66.11252914532787" r="4" fill="darkorchid" /><circle cx="289.7" cy="62.64000462166649" r="4" fill="darkorchid" /><circle cx="297.2" cy="62.171266502934884" r="4" fill="darkorchid" /><circle cx="304.7" cy="65.32097803180744" r="4" fill="darkorchid" /><circle cx="312.2" cy="72.55200338427068" r="4" fill="darkorchid" /><circle cx="319.7" cy="84.14590291192536" r="4" fill="darkorchid" /><circle cx="327.2" cy="100.18317456843016" r="4" fill="darkorchid" /><circle cx="334.7" cy="120.53435927334294" r="4" fill="darkorchid" /><circle cx="342.2" cy="144.86252914532787" r="4" fill="darkorchid" /><circle cx="349.7" cy="172.6370498701338" r="4" fill="darkorchid" /><circle cx="357.2" cy="203.15788663352868" r="4" fill="darkorchid" /><circle cx="364.7" cy="235.58914140096124" r="4" fill="darkorchid" /><circle cx="372.2" cy="268.99999999999994" r="4" fill="darkorchid" /><circle cx="379.7" cy="302.4108585990384" r="4" fill="darkorchid" /><circle cx="387.2" cy="334.84211336647127" r="4" fill="darkorchid" /><circle cx="394.7" cy="365.3629501298661" r="4" fill="darkorchid" /><circle cx="402.2" cy="393.1374708546719" r="4" fill="darkorchid" /><circle cx="409.7" cy="417.465640726657" r="4" fill="darkorchid" /><circle cx="417.2" cy="437.8168254315698" r="4" fill="darkorchid" /><circle cx="424.7" cy="453.8540970880747" r="4" fill="darkorchid" /><circle cx="432.2" cy="465.4479966157293" r="4" fill="darkorchid" /><circle cx="439.7" cy="472.6790219681925" r="4" fill="darkorchid" /><circle cx="447.2" cy="475.8287334970652" r="4" fill="darkorchid" /><circle cx="454.7" cy="475.35999537833356" r="4" fill="darkorchid" /><circle cx="462.2" cy="471.88747085467213" r="4" fill="darkorchid" /><circle cx="469.7" cy="466.1400259413003" r="4" fill="darkorchid" /><circle cx="477.2" cy="458.91714155216715" r="4" fill="darkorchid" /><circle cx="484.7" cy="451.04176313039585" r="4" fill="darkorchid" /><circle cx="492.2" cy="443.31221163666766" r="4" fill="darkorchid" /><circle cx="499.7" cy="436.45582941147524" r="4" fill="darkorchid" /><circle cx="507.2" cy="431.08693625119116" r="4" fill="darkorchid" /><circle cx="514.7" cy="427.6714304631107" r="4" fill="darkorchid" /><circle cx="522.2" cy="426.5" r="4" fill="darkorchid" /><circle cx="529.7" cy="427.6714304631106" r="4" fill="darkorchid" /><circle cx="537.2" cy="431.08693625119116" r="4" fill="darkorchid" /><circle cx="544.7" cy="436.4558294114752" r="4" fill="darkorchid" /><circle cx="552.2" cy="443.3122116366676" r="4" fill="darkorchid" /><circle cx="559.7" cy="451.0417631303958" r="4" fill="darkorchid" /><circle cx="567.2" cy="458.9171415521671" r="4" fill="darkorchid" /><circle cx="574.7" cy="466.1400259413002" r="4" fill="darkorchid" /><circle cx="582.2" cy="471.887470854672" r="4" fill="darkorchid" /><circle cx="589.7" cy="475.3599953783336" r="4" fill="darkorchid" /><circle cx="597.2" cy="475.8287334970652" r="4" fill="darkorchid" /><circle cx="604.7" cy="472.67902196819256" r="4" fill="darkorchid" /><circle cx="612.2" cy="465.4479966157294" r="4" fill="darkorchid" /><circle cx="619.7" cy="453.85409708807475" r="4" fill="darkorchid" /><circle cx="627.2" cy="437.8168254315699" r="4" fill="darkorchid" /><circle cx="634.7" cy="417.4656407266573" r="4" fill="darkorchid" /><circle cx="642.2" cy="393.13747085467213" r="4" fill="darkorchid" /><circle cx="649.7" cy="365.36295012986614" r="4" fill="darkorchid" /><circle cx="657.2" cy="334.8421133664714" r="4" fill="darkorchid" /><circle cx="664.7" cy="302.41085859903853" r="4" fill="darkorchid" /><rect x="677.2" y="34" width="80" height="38" fill="white" /><rect x="677.2" y="34" width="80" height="38" fill="none" stroke="black" stroke-width="1" /><text x="707.2" y="49" font-size="12" text-anchor="start">signal</text><circle cx="693.2" cy="45" r="5" fill="darkorchid" /></svg>