<svg xmlns="http://www.w3.org/2000/svg" width="686.2" height="545" font-family="DejaVu Sans, Liberation Sans, Arial, sans-serif" fill="black"><rect width="100%" height="100%" fill="white" /><text x="343.1" y="22" font-size="18" text-anchor="middle">Circular Tree — 20 Taxa</text><line x1="372.2" y1="269" x2="348.1784184747131" y2="286.45270056806885" stroke="black" stroke-width="1.5" /><line x1="381.37542767913305" y1="297.23906271460993" x2="399.7262830373992" y2="353.71718814382984" stroke="black" stroke-width="1.5" /><line x1="444.2647445758607" y1="321.35810170420643" x2="480.2971168637911" y2="347.5371525563097" stroke="black" stroke-width="1.5" /><line x1="499.27578221574475" y1="310.28942455609877" x2="533.1626574732767" y2="321.2999377710584" stroke="black" stroke-width="1.5" /><line x1="539.3624528444171" y1="295.4759315370397" x2="554.0258259009449" y2="297.79838167186773" stroke="black" stroke-width="1.5" /><line x1="522.9994272707113" y1="345.8361459636116" x2="544.164259168355" y2="356.62016644973255" stroke="black" stroke-width="1.5" /><line x1="450.7371525563097" y1="377.0971168637911" x2="468.1898531243785" y2="401.11869838907796" stroke="black" stroke-width="1.5" /><line x1="487.6759766506954" y1="384.47597665069543" x2="502.37291913351123" y2="399.1729191335112" stroke="black" stroke-width="1.5" /><line x1="446.3401408420814" y1="414.50821929630035" x2="454.42815620667204" y2="430.38184321953315" stroke="black" stroke-width="1.5" /><line x1="344.67371696260085" y1="353.71718814382984" x2="333.66320374764115" y2="387.60406340136177" stroke="black" stroke-width="1.5" /><line x1="372.2" y1="393.7076923076923" x2="372.2" y2="417.46153846153845" stroke="black" stroke-width="1.5" /><line x1="395.42450134828044" y1="415.63373056527814" x2="399.6049115909709" y2="442.02780206702823" stroke="black" stroke-width="1.5" /><line x1="348.97549865171953" y1="415.63373056527814" x2="343.8661083550978" y2="447.8931512896393" stroke="black" stroke-width="1.5" /><line x1="298.89865761411096" y1="369.89064240620496" x2="276.2101468756215" y2="401.11869838907796" stroke="black" stroke-width="1.5" /><line x1="298.05985915791865" y1="414.50821929630035" x2="289.97184379332793" y2="430.38184321953315" stroke="black" stroke-width="1.5" /><line x1="256.7240233493046" y1="384.47597665069543" x2="235.72839123099632" y2="405.4716087690037" stroke="black" stroke-width="1.5" /><line x1="348.1784184747131" y1="251.54729943193118" x2="304.93957172919664" y2="220.1324384094073" stroke="black" stroke-width="1.5" /><line x1="289.0615384615385" y1="269" x2="244.5230769230769" y2="269" stroke="black" stroke-width="1.5" /><line x1="250.77203032717722" y1="308.45433902027213" x2="222.5329676125673" y2="317.6297666994052" stroke="black" stroke-width="1.5" /><line x1="231.98298867811053" y1="340.4441357205511" x2="210.81815678046686" y2="351.2281562066721" stroke="black" stroke-width="1.5" /><line x1="216.76824560080516" y1="293.61797142917726" x2="181.5761502651384" y2="299.1918517527646" stroke="black" stroke-width="1.5" /><line x1="250.77203032717722" y1="229.5456609797278" x2="219.70906134110626" y2="219.45269053268146" stroke="black" stroke-width="1.5" /><line x1="213.83557098949956" y1="243.91753854385715" x2="199.17219793297176" y2="241.59508840902913" stroke="black" stroke-width="1.5" /><line x1="229.337384690905" y1="196.20786171868383" x2="205.52694880605588" y2="184.0758386717978" stroke="black" stroke-width="1.5" /><line x1="346.5088024984274" y1="189.93062439909215" x2="333.66320374764115" y2="150.39593659863823" stroke="black" stroke-width="1.5" /><line x1="298.8986576141109" y1="168.10935759379504" x2="283.191227102849" y2="146.48993422103683" stroke="black" stroke-width="1.5" /><line x1="265.12227619662787" y1="161.9222761966279" x2="250.42533371381205" y2="147.22533371381212" stroke="black" stroke-width="1.5" /><line x1="303.45186940097904" y1="134.0741966525215" x2="292.66784891485815" y2="112.9093647548778" stroke="black" stroke-width="1.5" /><line x1="372.2" y1="144.2923076923077" x2="372.19999999999993" y2="108.66153846153844" stroke="black" stroke-width="1.5" /><line x1="347.1175385438571" y1="110.6355709894996" x2="342.472638274201" y2="81.30882487644402" stroke="black" stroke-width="1.5" /><line x1="397.2824614561428" y1="110.63557098949957" x2="400.0694016179365" y2="93.03952332166622" stroke="black" stroke-width="1.5" /><line x1="372.2" y1="269" x2="432.2539538132172" y2="225.36824857982793" stroke="black" stroke-width="1.5" /><line x1="415.831751420172" y1="208.94604618678275" x2="450.73715255630964" y2="160.9028831362089" stroke="black" stroke-width="1.5" /><line x1="432.86011523443017" y1="149.94782057575424" x2="453.0801536459069" y2="110.2637607676723" stroke="black" stroke-width="1.5" /><line x1="466.68034453238715" y1="174.51965546761284" x2="491.87510307435707" y2="149.3248969256429" stroke="black" stroke-width="1.5" /><line x1="442.79765678652484" y1="246.06143080216737" x2="493.62796967282276" y2="229.54566097972784" stroke="black" stroke-width="1.5" /><line x1="485.9609714498348" y1="211.03588988709998" x2="507.1258033474785" y2="200.25186940097907" stroke="black" stroke-width="1.5" /><line x1="498.3050082861392" y1="249.0269288404788" x2="527.6317543991948" y2="244.3820285708227" stroke="black" stroke-width="1.5" /><path d="M 381.375 297.239 A 29.692 29.692 0 0 1 348.178 251.547" stroke="black" stroke-width="1.5" fill="none" /><path d="M 444.265 321.358 A 89.077 89.077 0 0 1 344.674 353.717" stroke="black" stroke-width="1.5" fill="none" /><path d="M 499.276 310.289 A 133.615 133.615 0 0 1 450.737 377.097" stroke="black" stroke-width="1.5" fill="none" /><path d="M 539.362 295.476 A 169.246 169.246 0 0 1 522.999 345.836" stroke="black" stroke-width="1.5" fill="none" /><path d="M 487.676 384.476 A 163.308 163.308 0 0 1 446.340 414.508" stroke="black" stroke-width="1.5" fill="none" /><path d="M 372.200 393.708 A 124.708 124.708 0 0 1 298.899 369.891" stroke="black" stroke-width="1.5" fill="none" /><path d="M 395.425 415.634 A 148.462 148.462 0 0 1 348.975 415.634" stroke="black" stroke-width="1.5" fill="none" /><path d="M 298.060 414.508 A 163.308 163.308 0 0 1 256.724 384.476" stroke="black" stroke-width="1.5" fill="none" /><path d="M 289.062 269.000 A 83.138 83.138 0 0 1 346.509 189.931" stroke="black" stroke-width="1.5" fill="none" /><path d="M 250.772 308.454 A 127.677 127.677 0 0 1 250.772 229.546" stroke="black" stroke-width="1.5" fill="none" /><path d="M 231.983 340.444 A 157.369 157.369 0 0 1 216.768 293.618" stroke="black" stroke-width="1.5" fill="none" /><path d="M 213.836 243.918 A 160.338 160.338 0 0 1 229.337 196.208" stroke="black" stroke-width="1.5" fill="none" /><path d="M 298.899 168.109 A 124.708 124.708 0 0 1 372.200 144.292" stroke="black" stroke-width="1.5" fill="none" /><path d="M 265.122 161.922 A 151.431 151.431 0 0 1 303.452 134.074" stroke="black" stroke-width="1.5" fill="none" /><path d="M 347.118 110.636 A 160.338 160.338 0 0 1 397.282 110.636" stroke="black" stroke-width="1.5" fill="none" /><path d="M 415.832 208.946 A 74.231 74.231 0 0 1 442.798 246.061" stroke="black" stroke-width="1.5" fill="none" /><path d="M 432.860 149.948 A 133.615 133.615 0 0 1 466.680 174.520" stroke="black" stroke-width="1.5" fill="none" /><path d="M 485.961 211.036 A 127.677 127.677 0 0 1 498.305 249.027" stroke="black" stroke-width="1.5" fill="none" /><circle cx="372.2" cy="269" r="3" fill="black" /><text x="561.9273326257061" y="303.04985739218955" font-size="11" text-anchor="start">Sp_A</text><text x="551.292311361862" y="364.2520904476489" font-size="11" text-anchor="start">Sp_B</text><text x="508.0297733830036" y="408.82977338300356" font-size="11" text-anchor="start">Sp_C</text><text x="458.0600802045884" y="441.5098954130401" font-size="11" text-anchor="start">Sp_D</text><text x="400.85638731129274" y="453.9293087917893" font-size="11" text-anchor="start">Sp_E</text><text x="342.614632634776" y="459.7946580144004" font-size="11" text-anchor="end">Sp_F</text><text x="286.33991979541156" y="441.5098954130401" font-size="11" text-anchor="end">Sp_G</text><text x="230.07153698150395" y="415.12846301849606" font-size="11" text-anchor="end">Sp_H</text><text x="203.69010458695993" y="358.8600802045885" font-size="11" text-anchor="end">Sp_I</text><text x="173.6746435403773" y="304.4433274730864" font-size="11" text-anchor="end">Sp_J</text><text x="191.27069120821065" y="244.34361268870728" font-size="11" text-anchor="end">Sp_K</text><text x="198.39889661254895" y="184.44391467388144" font-size="11" text-anchor="end">Sp_L</text><text x="244.76847946431968" y="145.56847946431975" font-size="11" text-anchor="end">Sp_M</text><text x="289.0359249169418" y="109.78131256137085" font-size="11" text-anchor="end">Sp_N</text><text x="341.2211625538792" y="77.40731815168292" font-size="11" text-anchor="end">Sp_O</text><text x="401.3208773382583" y="89.13801659690512" font-size="11" text-anchor="start">Sp_P</text><text x="456.71207764382325" y="107.13570857416535" font-size="11" text-anchor="start">Sp_Q</text><text x="497.53195732384944" y="147.66804267615052" font-size="11" text-anchor="start">Sp_R</text><text x="514.2538555409855" y="200.6199454030627" font-size="11" text-anchor="start">Sp_S</text><text x="535.533261123956" y="247.13055285050086" font-size="11" text-anchor="start">Sp_T</text></svg>