<svg xmlns="http://www.w3.org/2000/svg" width="686.2" height="545" font-family="DejaVu Sans, Liberation Sans, Arial, sans-serif" fill="black"><rect width="100%" height="100%" fill="white" /><text x="343.1" y="22" font-size="18" text-anchor="middle">Phylogram (Top orientation)</text><line x1="207.2" y1="69" x2="207.2" y2="147.88888888888889" stroke="black" stroke-width="1.5" /><line x1="152.2" y1="147.88888888888889" x2="152.2" y2="226.77777777777777" stroke="black" stroke-width="1.5" /><line x1="262.2" y1="147.88888888888889" x2="262.2" y2="384.55555555555554" stroke="black" stroke-width="1.5" /><line x1="454.7" y1="69" x2="454.7" y2="226.77777777777777" stroke="black" stroke-width="1.5" /><line x1="372.2" y1="226.77777777777777" x2="372.2" y2="384.55555555555554" stroke="black" stroke-width="1.5" /><line x1="537.2" y1="226.77777777777777" x2="537.2" y2="305.66666666666663" stroke="black" stroke-width="1.5" /><line x1="482.2" y1="305.66666666666663" x2="482.2" y2="345.11111111111114" stroke="black" stroke-width="1.5" /><line x1="592.2" y1="305.66666666666663" x2="592.2" y2="424" stroke="black" stroke-width="1.5" /><line x1="207.2" y1="69" x2="454.7" y2="69" stroke="black" stroke-width="1.5" /><line x1="152.2" y1="147.88888888888889" x2="262.2" y2="147.88888888888889" stroke="black" stroke-width="1.5" /><line x1="372.2" y1="226.77777777777777" x2="537.2" y2="226.77777777777777" stroke="black" stroke-width="1.5" /><line x1="482.2" y1="305.66666666666663" x2="592.2" y2="305.66666666666663" stroke="black" stroke-width="1.5" /><circle cx="330.95" cy="69" r="3" fill="black" /><text x="152.2" y="232.77777777777777" font-size="11" text-anchor="start" transform="rotate(90,152.2,232.77777777777777)">A</text><text x="262.2" y="390.55555555555554" font-size="11" text-anchor="start" transform="rotate(90,262.2,390.55555555555554)">B</text><text x="372.2" y="390.55555555555554" font-size="11" text-anchor="start" transform="rotate(90,372.2,390.55555555555554)">C</text><text x="482.2" y="351.11111111111114" font-size="11" text-anchor="start" transform="rotate(90,482.2,351.11111111111114)">D</text><text x="592.2" y="430" font-size="11" text-anchor="start" transform="rotate(90,592.2,430)">E</text><text x="209.2" y="145.88888888888889" font-size="10" text-anchor="start">90</text><text x="539.2" y="303.66666666666663" font-size="10" text-anchor="start">85</text></svg>