<svg xmlns="http://www.w3.org/2000/svg" width="1200" height="900" font-family="DejaVu Sans, Liberation Sans, Arial, sans-serif" fill="black"><rect width="100%" height="100%" fill="white" /><defs><clipPath id="kuva-clip-6"><rect x="118" y="88" width="774" height="710"/></clipPath></defs><line x1="279.25" y1="88" x2="279.25" y2="798" stroke="#cccccc" stroke-width="2" /><line x1="440.5" y1="88" x2="440.5" y2="798" stroke="#cccccc" stroke-width="2" /><line x1="601.75" y1="88" x2="601.75" y2="798" stroke="#cccccc" stroke-width="2" /><line x1="763" y1="88" x2="763" y2="798" stroke="#cccccc" stroke-width="2" /><line x1="118" y1="620.5" x2="892" y2="620.5" stroke="#cccccc" stroke-width="2" /><line x1="118" y1="443" x2="892" y2="443" stroke="#cccccc" stroke-width="2" /><line x1="118" y1="265.5" x2="892" y2="265.5" stroke="#cccccc" stroke-width="2" /><line x1="118" y1="88" x2="892" y2="88" stroke="#cccccc" stroke-width="2" /><line x1="118" y1="798" x2="892" y2="798" stroke="#000000" stroke-width="2" /><line x1="118" y1="88" x2="118" y2="798" stroke="#000000" stroke-width="2" /><line x1="118" y1="798" x2="118" y2="808" stroke="#000000" stroke-width="2" /><text x="118" y="832" font-size="24" text-anchor="middle">0</text><line x1="279.25" y1="798" x2="279.25" y2="808" stroke="#000000" stroke-width="2" /><text x="279.25" y="832" font-size="24" text-anchor="middle">2.5</text><line x1="440.5" y1="798" x2="440.5" y2="808" stroke="#000000" stroke-width="2" /><text x="440.5" y="832" font-size="24" text-anchor="middle">5</text><line x1="601.75" y1="798" x2="601.75" y2="808" stroke="#000000" stroke-width="2" /><text x="601.75" y="832" font-size="24" text-anchor="middle">7.5</text><line x1="763" y1="798" x2="763" y2="808" stroke="#000000" stroke-width="2" /><text x="763" y="832" font-size="24" text-anchor="middle">10</text><line x1="108" y1="798" x2="118" y2="798" stroke="#000000" stroke-width="2" /><text x="102" y="806.4" font-size="24" text-anchor="end">0</text><line x1="108" y1="620.5" x2="118" y2="620.5" stroke="#000000" stroke-width="2" /><text x="102" y="628.9" font-size="24" text-anchor="end">5</text><line x1="108" y1="443" x2="118" y2="443" stroke="#000000" stroke-width="2" /><text x="102" y="451.40000000000003" font-size="24" text-anchor="end">10</text><line x1="108" y1="265.5" x2="118" y2="265.5" stroke="#000000" stroke-width="2" /><text x="102" y="273.90000000000003" font-size="24" text-anchor="end">15</text><line x1="108" y1="88" x2="118" y2="88" stroke="#000000" stroke-width="2" /><text x="102" y="96.4" font-size="24" text-anchor="end">20</text><text x="505" y="886" font-size="28" text-anchor="middle">Time (weeks)</text><text x="43" y="450" font-size="28" text-anchor="middle" transform="rotate(-90,43,450)">Count</text><text x="600" y="54.800000000000004" font-size="36" text-anchor="middle">Growth Rate</text><g clip-path="url(#kuva-clip-6)"><circle cx="182.5" cy="723.45" r="3" fill="#4682b4" /><circle cx="247" cy="663.1" r="3" fill="#4682b4" /><circle cx="311.5" cy="602.75" r="3" fill="#4682b4" /><circle cx="376" cy="549.5" r="3" fill="#4682b4" /><circle cx="440.5" cy="471.40000000000003" r="3" fill="#4682b4" /><circle cx="505" cy="414.6" r="3" fill="#4682b4" /><circle cx="569.5" cy="368.45" r="3" fill="#4682b4" /><circle cx="634" cy="283.25" r="3" fill="#4682b4" /><circle cx="698.5" cy="233.55" r="3" fill="#4682b4" /><circle cx="763" cy="159" r="3" fill="#4682b4" /><path d="M 182.5 730.5500000000001 L 763.0 151.9 " stroke="#dc143c" stroke-width="2" fill="none" /><line x1="118" y1="443" x2="892" y2="443" stroke="#ffa500" stroke-width="1" stroke-dasharray="6 4" /><text x="888" y="439" font-size="24" text-anchor="end">threshold</text><text x="698.5" y="227.55" font-size="11" text-anchor="middle">Peak</text></g><rect x="887" y="68" width="272" height="112" fill="#ffffff" /><rect x="887" y="68" width="272" height="112" fill="none" stroke="#000000" stroke-width="2" /><text x="952" y="107.4" font-size="24" text-anchor="start">Observations</text><circle cx="922" cy="99" r="10" fill="#4682b4" /><text x="952" y="143.4" font-size="24" text-anchor="start">Trend</text><line x1="912" y1="135" x2="936" y2="135" stroke="#dc143c" stroke-width="4" /></svg>