<svg xmlns="http://www.w3.org/2000/svg" width="686.2" height="545" font-family="DejaVu Sans, Liberation Sans, Arial, sans-serif" fill="black"><rect width="100%" height="100%" fill="white" /><line x1="72.19999999999999" y1="494" x2="672.2" y2="494" stroke="black" stroke-width="1" /><line x1="72.19999999999999" y1="44" x2="72.19999999999999" y2="494" stroke="black" stroke-width="1" /><line x1="222.2" y1="44" x2="222.2" y2="494" stroke="#ccc" stroke-width="1" /><line x1="372.2" y1="44" x2="372.2" y2="494" stroke="#ccc" stroke-width="1" /><line x1="522.2" y1="44" x2="522.2" y2="494" stroke="#ccc" stroke-width="1" /><line x1="672.2" y1="44" x2="672.2" y2="494" stroke="#ccc" stroke-width="1" /><line x1="72.19999999999999" y1="404" x2="672.2" y2="404" stroke="#ccc" stroke-width="1" /><line x1="72.19999999999999" y1="314" x2="672.2" y2="314" stroke="#ccc" stroke-width="1" /><line x1="72.19999999999999" y1="224" x2="672.2" y2="224" stroke="#ccc" stroke-width="1" /><line x1="72.19999999999999" y1="134" x2="672.2" y2="134" stroke="#ccc" stroke-width="1" /><line x1="72.19999999999999" y1="44" x2="672.2" y2="44" stroke="#ccc" stroke-width="1" /><line x1="72.19999999999999" y1="494" x2="72.19999999999999" y2="499" stroke="black" stroke-width="1" /><text x="72.19999999999999" y="511" font-size="12" text-anchor="middle">-4</text><line x1="222.2" y1="494" x2="222.2" y2="499" stroke="black" stroke-width="1" /><text x="222.2" y="511" font-size="12" text-anchor="middle">-2</text><line x1="372.2" y1="494" x2="372.2" y2="499" stroke="black" stroke-width="1" /><text x="372.2" y="511" font-size="12" text-anchor="middle">0</text><line x1="522.2" y1="494" x2="522.2" y2="499" stroke="black" stroke-width="1" /><text x="522.2" y="511" font-size="12" text-anchor="middle">2</text><line x1="672.2" y1="494" x2="672.2" y2="499" stroke="black" stroke-width="1" /><text x="672.2" y="511" font-size="12" text-anchor="middle">4</text><line x1="67.19999999999999" y1="494" x2="72.19999999999999" y2="494" stroke="black" stroke-width="1" /><text x="64.19999999999999" y="498.2" font-size="12" text-anchor="end">0</text><line x1="67.19999999999999" y1="404" x2="72.19999999999999" y2="404" stroke="black" stroke-width="1" /><text x="64.19999999999999" y="408.2" font-size="12" text-anchor="end">1</text><line x1="67.19999999999999" y1="314" x2="72.19999999999999" y2="314" stroke="black" stroke-width="1" /><text x="64.19999999999999" y="318.2" font-size="12" text-anchor="end">2</text><line x1="67.19999999999999" y1="224" x2="72.19999999999999" y2="224" stroke="black" stroke-width="1" /><text x="64.19999999999999" y="228.2" font-size="12" text-anchor="end">3</text><line x1="67.19999999999999" y1="134" x2="72.19999999999999" y2="134" stroke="black" stroke-width="1" /><text x="64.19999999999999" y="138.2" font-size="12" text-anchor="end">4</text><line x1="67.19999999999999" y1="44" x2="72.19999999999999" y2="44" stroke="black" stroke-width="1" /><text x="64.19999999999999" y="48.2" font-size="12" text-anchor="end">5</text><text x="343.1" y="538" font-size="14" text-anchor="middle">log₂ fold change</text><text x="14" y="272.5" font-size="14" text-anchor="middle" transform="rotate(-90,14,272.5)">−log₁₀(p-value)</text><text x="343.1" y="22" font-size="18" text-anchor="middle">Volcano Plot — Arrow Labels (top 10)</text><line x1="72.19999999999999" y1="376.9073003902417" x2="672.2" y2="376.9073003902417" stroke="#888888" stroke-width="1" stroke-dasharray="4 4" /><line x1="297.2" y1="44" x2="297.2" y2="494" stroke="#888888" stroke-width="1" stroke-dasharray="4 4" /><line x1="447.2" y1="44" x2="447.2" y2="494" stroke="#888888" stroke-width="1" stroke-dasharray="4 4" /><circle cx="394.7" cy="466.9073003902417" r="3" fill="#aaaaaa" /><circle cx="334.7" cy="446.94091292476963" r="3" fill="#aaaaaa" /><circle cx="432.2" cy="404" r="3" fill="#aaaaaa" /><circle cx="357.2" cy="480.0588236012831" r="3" fill="#aaaaaa" /><circle cx="417.2" cy="431.0926996097583" r="3" fill="#aaaaaa" /><circle cx="304.7" cy="419.8482133150113" r="3" fill="#aaaaaa" /><circle cx="379.7" cy="485.27809882927494" r="3" fill="#aaaaaa" /><circle cx="319.7" cy="458.1853992195166" r="3" fill="#aaaaaa" /><circle cx="484.7" cy="431.0926996097583" r="3" fill="#aaaaaa" /><circle cx="289.7" cy="390.0588236012831" r="3" fill="#aaaaaa" /><circle cx="522.2" cy="411.1263121442862" r="3" fill="#aaaaaa" /><circle cx="237.2" cy="395.27809882927494" r="3" fill="#aaaaaa" /><circle cx="469.7" cy="426.9745254592975" r="3" fill="#aaaaaa" /><circle cx="132.2" cy="161.0926996097583" r="3" fill="steelblue" /><circle cx="147.2" cy="196.9073003902417" r="3" fill="steelblue" /><circle cx="184.7" cy="266.94091292476963" r="3" fill="steelblue" /><circle cx="169.7" cy="224" r="3" fill="steelblue" /><circle cx="199.7" cy="251.0926996097583" r="3" fill="steelblue" /><circle cx="222.2" cy="300.05882360128317" r="3" fill="steelblue" /><circle cx="229.7" cy="305.27809882927494" r="3" fill="steelblue" /><circle cx="244.7" cy="329.8482133150113" r="3" fill="steelblue" /><circle cx="252.2" cy="368.1853992195166" r="3" fill="steelblue" /><circle cx="267.2" cy="362.9661239915248" r="3" fill="steelblue" /><circle cx="214.7" cy="278.1853992195166" r="3" fill="steelblue" /><circle cx="259.7" cy="354.24422282079973" r="3" fill="steelblue" /><circle cx="162.2" cy="215.27809882927494" r="3" fill="steelblue" /><circle cx="237.2" cy="321.1263121442862" r="3" fill="steelblue" /><circle cx="634.7" cy="106.90730039024169" r="3" fill="firebrick" /><circle cx="612.2" cy="134" r="3" fill="firebrick" /><circle cx="582.2" cy="251.0926996097583" r="3" fill="firebrick" /><circle cx="559.7" cy="224" r="3" fill="firebrick" /><circle cx="574.7" cy="224" r="3" fill="firebrick" /><circle cx="544.7" cy="266.94091292476963" r="3" fill="firebrick" /><circle cx="529.7" cy="286.9073003902417" r="3" fill="firebrick" /><circle cx="507.2" cy="314" r="3" fill="firebrick" /><circle cx="514.7" cy="305.27809882927494" r="3" fill="firebrick" /><circle cx="492.2" cy="349.8146007804834" r="3" fill="firebrick" /><circle cx="484.7" cy="356.9409129247696" r="3" fill="firebrick" /><circle cx="462.2" cy="368.1853992195166" r="3" fill="firebrick" /><circle cx="552.2" cy="251.0926996097583" r="3" fill="firebrick" /><circle cx="499.7" cy="329.8482133150113" r="3" fill="firebrick" /><circle cx="597.2" cy="161.0926996097583" r="3" fill="firebrick" /><circle cx="567.2" cy="239.84821331501132" r="3" fill="firebrick" /><circle cx="477.2" cy="362.9661239915248" r="3" fill="firebrick" /><line x1="648.7" y1="90.90730039024169" x2="638.6510276472112" y2="102.39184022200043" stroke="#666666" stroke-width="0.8" /><text x="648.7" y="90.90730039024169" font-size="12" text-anchor="start">AKT1</text><line x1="626.2" y1="118" x2="616.1510276472112" y2="129.48453983175872" stroke="#666666" stroke-width="0.8" /><text x="626.2" y="118" font-size="12" text-anchor="start">EGFR</text><line x1="611.2" y1="145.0926996097583" x2="601.1510276472112" y2="156.57723944151704" stroke="#666666" stroke-width="0.8" /><text x="611.2" y="145.0926996097583" font-size="12" text-anchor="start">FGFR1</text><line x1="146.2" y1="145.0926996097583" x2="136.1510276472111" y2="156.57723944151704" stroke="#666666" stroke-width="0.8" /><text x="146.2" y="145.0926996097583" font-size="12" text-anchor="start">P21</text><line x1="161.2" y1="180.9073003902417" x2="151.1510276472111" y2="192.3918402220004" stroke="#666666" stroke-width="0.8" /><text x="161.2" y="180.9073003902417" font-size="12" text-anchor="start">VHL</text><line x1="176.2" y1="199.27809882927494" x2="166.1510276472111" y2="210.76263866103366" stroke="#666666" stroke-width="0.8" /><text x="176.2" y="199.27809882927494" font-size="12" text-anchor="start">MLH1</text><line x1="573.7" y1="208" x2="563.6510276472112" y2="219.48453983175872" stroke="#666666" stroke-width="0.8" /><text x="573.7" y="208" font-size="12" text-anchor="start">BRCA1</text><line x1="588.7" y1="208" x2="578.6510276472112" y2="219.48453983175872" stroke="#666666" stroke-width="0.8" /><text x="588.7" y="208" font-size="12" text-anchor="start">BCL2</text><line x1="183.7" y1="208" x2="173.6510276472111" y2="219.48453983175872" stroke="#666666" stroke-width="0.8" /><text x="183.7" y="208" font-size="12" text-anchor="start">BCL2L</text><line x1="581.2" y1="223.84821331501132" x2="571.1510276472112" y2="235.33275314677005" stroke="#666666" stroke-width="0.8" /><text x="581.2" y="223.84821331501132" font-size="12" text-anchor="start">ERBB2</text></svg>