<svg xmlns="http://www.w3.org/2000/svg" width="766.2" height="545" font-family="DejaVu Sans, Liberation Sans, Arial, sans-serif" fill="black"><rect width="100%" height="100%" fill="white" /><line x1="72.19999999999999" y1="494" x2="672.2" y2="494" stroke="black" stroke-width="1" /><line x1="72.19999999999999" y1="44" x2="72.19999999999999" y2="494" stroke="black" stroke-width="1" /><line x1="222.2" y1="44" x2="222.2" y2="494" stroke="#ccc" stroke-width="1" /><line x1="372.2" y1="44" x2="372.2" y2="494" stroke="#ccc" stroke-width="1" /><line x1="522.2" y1="44" x2="522.2" y2="494" stroke="#ccc" stroke-width="1" /><line x1="672.2" y1="44" x2="672.2" y2="494" stroke="#ccc" stroke-width="1" /><line x1="72.19999999999999" y1="404" x2="672.2" y2="404" stroke="#ccc" stroke-width="1" /><line x1="72.19999999999999" y1="314" x2="672.2" y2="314" stroke="#ccc" stroke-width="1" /><line x1="72.19999999999999" y1="224" x2="672.2" y2="224" stroke="#ccc" stroke-width="1" /><line x1="72.19999999999999" y1="134" x2="672.2" y2="134" stroke="#ccc" stroke-width="1" /><line x1="72.19999999999999" y1="44" x2="672.2" y2="44" stroke="#ccc" stroke-width="1" /><line x1="72.19999999999999" y1="494" x2="72.19999999999999" y2="499" stroke="black" stroke-width="1" /><text x="72.19999999999999" y="511" font-size="12" text-anchor="middle">-4</text><line x1="222.2" y1="494" x2="222.2" y2="499" stroke="black" stroke-width="1" /><text x="222.2" y="511" font-size="12" text-anchor="middle">-2</text><line x1="372.2" y1="494" x2="372.2" y2="499" stroke="black" stroke-width="1" /><text x="372.2" y="511" font-size="12" text-anchor="middle">0</text><line x1="522.2" y1="494" x2="522.2" y2="499" stroke="black" stroke-width="1" /><text x="522.2" y="511" font-size="12" text-anchor="middle">2</text><line x1="672.2" y1="494" x2="672.2" y2="499" stroke="black" stroke-width="1" /><text x="672.2" y="511" font-size="12" text-anchor="middle">4</text><line x1="67.19999999999999" y1="494" x2="72.19999999999999" y2="494" stroke="black" stroke-width="1" /><text x="64.19999999999999" y="498.2" font-size="12" text-anchor="end">0</text><line x1="67.19999999999999" y1="404" x2="72.19999999999999" y2="404" stroke="black" stroke-width="1" /><text x="64.19999999999999" y="408.2" font-size="12" text-anchor="end">1</text><line x1="67.19999999999999" y1="314" x2="72.19999999999999" y2="314" stroke="black" stroke-width="1" /><text x="64.19999999999999" y="318.2" font-size="12" text-anchor="end">2</text><line x1="67.19999999999999" y1="224" x2="72.19999999999999" y2="224" stroke="black" stroke-width="1" /><text x="64.19999999999999" y="228.2" font-size="12" text-anchor="end">3</text><line x1="67.19999999999999" y1="134" x2="72.19999999999999" y2="134" stroke="black" stroke-width="1" /><text x="64.19999999999999" y="138.2" font-size="12" text-anchor="end">4</text><line x1="67.19999999999999" y1="44" x2="72.19999999999999" y2="44" stroke="black" stroke-width="1" /><text x="64.19999999999999" y="48.2" font-size="12" text-anchor="end">5</text><text x="383.1" y="538" font-size="14" text-anchor="middle">log₂ fold change</text><text x="14" y="272.5" font-size="14" text-anchor="middle" transform="rotate(-90,14,272.5)">−log₁₀(p-value)</text><text x="383.1" y="22" font-size="18" text-anchor="middle">Stricter Thresholds — |log₂FC| &gt; 2, p &lt; 0.01</text><line x1="72.19999999999999" y1="314" x2="672.2" y2="314" stroke="#888888" stroke-width="1" stroke-dasharray="4 4" /><line x1="222.2" y1="44" x2="222.2" y2="494" stroke="#888888" stroke-width="1" stroke-dasharray="4 4" /><line x1="522.2" y1="44" x2="522.2" y2="494" stroke="#888888" stroke-width="1" stroke-dasharray="4 4" /><circle cx="507.2" cy="314" r="3" fill="#aaaaaa" /><circle cx="514.7" cy="305.27809882927494" r="3" fill="#aaaaaa" /><circle cx="492.2" cy="349.8146007804834" r="3" fill="#aaaaaa" /><circle cx="484.7" cy="356.9409129247696" r="3" fill="#aaaaaa" /><circle cx="462.2" cy="368.1853992195166" r="3" fill="#aaaaaa" /><circle cx="499.7" cy="329.8482133150113" r="3" fill="#aaaaaa" /><circle cx="477.2" cy="362.9661239915248" r="3" fill="#aaaaaa" /><circle cx="229.7" cy="305.27809882927494" r="3" fill="#aaaaaa" /><circle cx="244.7" cy="329.8482133150113" r="3" fill="#aaaaaa" /><circle cx="252.2" cy="368.1853992195166" r="3" fill="#aaaaaa" /><circle cx="267.2" cy="362.9661239915248" r="3" fill="#aaaaaa" /><circle cx="259.7" cy="354.24422282079973" r="3" fill="#aaaaaa" /><circle cx="237.2" cy="321.1263121442862" r="3" fill="#aaaaaa" /><circle cx="394.7" cy="466.9073003902417" r="3" fill="#aaaaaa" /><circle cx="334.7" cy="446.94091292476963" r="3" fill="#aaaaaa" /><circle cx="432.2" cy="404" r="3" fill="#aaaaaa" /><circle cx="357.2" cy="480.0588236012831" r="3" fill="#aaaaaa" /><circle cx="417.2" cy="431.0926996097583" r="3" fill="#aaaaaa" /><circle cx="304.7" cy="419.8482133150113" r="3" fill="#aaaaaa" /><circle cx="379.7" cy="485.27809882927494" r="3" fill="#aaaaaa" /><circle cx="319.7" cy="458.1853992195166" r="3" fill="#aaaaaa" /><circle cx="484.7" cy="431.0926996097583" r="3" fill="#aaaaaa" /><circle cx="289.7" cy="390.0588236012831" r="3" fill="#aaaaaa" /><circle cx="522.2" cy="411.1263121442862" r="3" fill="#aaaaaa" /><circle cx="237.2" cy="395.27809882927494" r="3" fill="#aaaaaa" /><circle cx="469.7" cy="426.9745254592975" r="3" fill="#aaaaaa" /><circle cx="132.2" cy="161.0926996097583" r="3" fill="mediumpurple" /><circle cx="147.2" cy="196.9073003902417" r="3" fill="mediumpurple" /><circle cx="184.7" cy="266.94091292476963" r="3" fill="mediumpurple" /><circle cx="169.7" cy="224" r="3" fill="mediumpurple" /><circle cx="199.7" cy="251.0926996097583" r="3" fill="mediumpurple" /><circle cx="222.2" cy="300.05882360128317" r="3" fill="mediumpurple" /><circle cx="214.7" cy="278.1853992195166" r="3" fill="mediumpurple" /><circle cx="162.2" cy="215.27809882927494" r="3" fill="mediumpurple" /><circle cx="634.7" cy="106.90730039024169" r="3" fill="darkorange" /><circle cx="612.2" cy="134" r="3" fill="darkorange" /><circle cx="582.2" cy="251.0926996097583" r="3" fill="darkorange" /><circle cx="559.7" cy="224" r="3" fill="darkorange" /><circle cx="574.7" cy="224" r="3" fill="darkorange" /><circle cx="544.7" cy="266.94091292476963" r="3" fill="darkorange" /><circle cx="529.7" cy="286.9073003902417" r="3" fill="darkorange" /><circle cx="552.2" cy="251.0926996097583" r="3" fill="darkorange" /><circle cx="597.2" cy="161.0926996097583" r="3" fill="darkorange" /><circle cx="567.2" cy="239.84821331501132" r="3" fill="darkorange" /><text x="132.2" y="156.0926996097583" font-size="12" text-anchor="middle">P21</text><text x="147.2" y="191.9073003902417" font-size="12" text-anchor="middle">VHL</text><text x="162.2" y="210.27809882927494" font-size="12" text-anchor="middle">MLH1</text><text x="559.7" y="196.27809882927494" font-size="12" text-anchor="middle">BRCA1</text><text x="574.7" y="219" font-size="12" text-anchor="middle">BCL2</text><text x="597.2" y="156.0926996097583" font-size="12" text-anchor="middle">FGFR1</text><text x="612.2" y="129" font-size="12" text-anchor="middle">EGFR</text><text x="634.7" y="101.90730039024169" font-size="12" text-anchor="middle">AKT1</text><rect x="677.2" y="34" width="80" height="74" fill="white" /><rect x="677.2" y="34" width="80" height="74" fill="none" stroke="black" stroke-width="1" /><text x="707.2" y="49" font-size="12" text-anchor="start">Up</text><circle cx="693.2" cy="45" r="5" fill="darkorange" /><text x="707.2" y="67" font-size="12" text-anchor="start">Down</text><circle cx="693.2" cy="63" r="5" fill="mediumpurple" /><text x="707.2" y="85" font-size="12" text-anchor="start">NS</text><circle cx="693.2" cy="81" r="5" fill="#aaaaaa" /></svg>