<svg xmlns="http://www.w3.org/2000/svg" width="686.2" height="545" font-family="DejaVu Sans, Liberation Sans, Arial, sans-serif" fill="black"><rect width="100%" height="100%" fill="white" /><line x1="72.19999999999999" y1="494" x2="672.2" y2="494" stroke="black" stroke-width="1" /><line x1="72.19999999999999" y1="44" x2="72.19999999999999" y2="494" stroke="black" stroke-width="1" /><line x1="172.2" y1="44" x2="172.2" y2="494" stroke="#ccc" stroke-width="1" /><line x1="272.2" y1="44" x2="272.2" y2="494" stroke="#ccc" stroke-width="1" /><line x1="372.2" y1="44" x2="372.2" y2="494" stroke="#ccc" stroke-width="1" /><line x1="472.2" y1="44" x2="472.2" y2="494" stroke="#ccc" stroke-width="1" /><line x1="572.2" y1="44" x2="572.2" y2="494" stroke="#ccc" stroke-width="1" /><line x1="672.2" y1="44" x2="672.2" y2="494" stroke="#ccc" stroke-width="1" /><line x1="72.19999999999999" y1="429.7142857142857" x2="672.2" y2="429.7142857142857" stroke="#ccc" stroke-width="1" /><line x1="72.19999999999999" y1="365.42857142857144" x2="672.2" y2="365.42857142857144" stroke="#ccc" stroke-width="1" /><line x1="72.19999999999999" y1="301.14285714285717" x2="672.2" y2="301.14285714285717" stroke="#ccc" stroke-width="1" /><line x1="72.19999999999999" y1="236.8571428571429" x2="672.2" y2="236.8571428571429" stroke="#ccc" stroke-width="1" /><line x1="72.19999999999999" y1="172.57142857142856" x2="672.2" y2="172.57142857142856" stroke="#ccc" stroke-width="1" /><line x1="72.19999999999999" y1="108.28571428571433" x2="672.2" y2="108.28571428571433" stroke="#ccc" stroke-width="1" /><line x1="72.19999999999999" y1="44" x2="672.2" y2="44" stroke="#ccc" stroke-width="1" /><line x1="72.19999999999999" y1="494" x2="72.19999999999999" y2="499" stroke="black" stroke-width="1" /><text x="72.19999999999999" y="511" font-size="12" text-anchor="middle">-3</text><line x1="172.2" y1="494" x2="172.2" y2="499" stroke="black" stroke-width="1" /><text x="172.2" y="511" font-size="12" text-anchor="middle">-2</text><line x1="272.2" y1="494" x2="272.2" y2="499" stroke="black" stroke-width="1" /><text x="272.2" y="511" font-size="12" text-anchor="middle">-1</text><line x1="372.2" y1="494" x2="372.2" y2="499" stroke="black" stroke-width="1" /><text x="372.2" y="511" font-size="12" text-anchor="middle">0</text><line x1="472.2" y1="494" x2="472.2" y2="499" stroke="black" stroke-width="1" /><text x="472.2" y="511" font-size="12" text-anchor="middle">1</text><line x1="572.2" y1="494" x2="572.2" y2="499" stroke="black" stroke-width="1" /><text x="572.2" y="511" font-size="12" text-anchor="middle">2</text><line x1="672.2" y1="494" x2="672.2" y2="499" stroke="black" stroke-width="1" /><text x="672.2" y="511" font-size="12" text-anchor="middle">3</text><line x1="67.19999999999999" y1="494" x2="72.19999999999999" y2="494" stroke="black" stroke-width="1" /><text x="64.19999999999999" y="498.2" font-size="12" text-anchor="end">0</text><line x1="67.19999999999999" y1="429.7142857142857" x2="72.19999999999999" y2="429.7142857142857" stroke="black" stroke-width="1" /><text x="64.19999999999999" y="433.9142857142857" font-size="12" text-anchor="end">5</text><line x1="67.19999999999999" y1="365.42857142857144" x2="72.19999999999999" y2="365.42857142857144" stroke="black" stroke-width="1" /><text x="64.19999999999999" y="369.62857142857143" font-size="12" text-anchor="end">10</text><line x1="67.19999999999999" y1="301.14285714285717" x2="72.19999999999999" y2="301.14285714285717" stroke="black" stroke-width="1" /><text x="64.19999999999999" y="305.34285714285716" font-size="12" text-anchor="end">15</text><line x1="67.19999999999999" y1="236.8571428571429" x2="72.19999999999999" y2="236.8571428571429" stroke="black" stroke-width="1" /><text x="64.19999999999999" y="241.05714285714288" font-size="12" text-anchor="end">20</text><line x1="67.19999999999999" y1="172.57142857142856" x2="72.19999999999999" y2="172.57142857142856" stroke="black" stroke-width="1" /><text x="64.19999999999999" y="176.77142857142854" font-size="12" text-anchor="end">25</text><line x1="67.19999999999999" y1="108.28571428571433" x2="72.19999999999999" y2="108.28571428571433" stroke="black" stroke-width="1" /><text x="64.19999999999999" y="112.48571428571434" font-size="12" text-anchor="end">30</text><line x1="67.19999999999999" y1="44" x2="72.19999999999999" y2="44" stroke="black" stroke-width="1" /><text x="64.19999999999999" y="48.2" font-size="12" text-anchor="end">35</text><text x="343.1" y="538" font-size="14" text-anchor="middle">Value</text><text x="14" y="272.5" font-size="14" text-anchor="middle" transform="rotate(-90,14,272.5)">Count</text><text x="343.1" y="22" font-size="18" text-anchor="middle">Histogram</text><rect x="72.19999999999999" y="494" width="20.000000000000014" height="0" fill="steelblue" /><rect x="92.2" y="494" width="20.000000000000014" height="0" fill="steelblue" /><rect x="112.19999999999999" y="481.14285714285717" width="20" height="12.857142857142833" fill="steelblue" /><rect x="132.2" y="468.2857142857143" width="20.00000000000003" height="25.714285714285722" fill="steelblue" /><rect x="152.2" y="468.2857142857143" width="20" height="25.714285714285722" fill="steelblue" /><rect x="172.2" y="455.42857142857144" width="20" height="38.571428571428555" fill="steelblue" /><rect x="192.20000000000002" y="468.2857142857143" width="20" height="25.714285714285722" fill="steelblue" /><rect x="212.20000000000002" y="404" width="19.99999999999997" height="90" fill="steelblue" /><rect x="232.2" y="275.42857142857144" width="20" height="218.57142857142856" fill="steelblue" /><rect x="252.2" y="391.14285714285717" width="20" height="102.85714285714283" fill="steelblue" /><rect x="272.2" y="288.28571428571433" width="20.000000000000057" height="205.71428571428567" fill="steelblue" /><rect x="292.20000000000005" y="288.28571428571433" width="20" height="205.71428571428567" fill="steelblue" /><rect x="312.20000000000005" y="288.28571428571433" width="20" height="205.71428571428567" fill="steelblue" /><rect x="332.2" y="82.57142857142861" width="20.000000000000057" height="411.4285714285714" fill="steelblue" /><rect x="352.20000000000005" y="275.42857142857144" width="20" height="218.57142857142856" fill="steelblue" /><rect x="372.2" y="185.42857142857144" width="20" height="308.57142857142856" fill="steelblue" /><rect x="392.2" y="185.42857142857144" width="20.000000000000057" height="308.57142857142856" fill="steelblue" /><rect x="412.20000000000005" y="185.42857142857144" width="20" height="308.57142857142856" fill="steelblue" /><rect x="432.2" y="121.14285714285711" width="20" height="372.8571428571429" fill="steelblue" /><rect x="452.20000000000005" y="185.42857142857144" width="19.999999999999943" height="308.57142857142856" fill="steelblue" /><rect x="472.2" y="404" width="20.000000000000057" height="90" fill="steelblue" /><rect x="492.20000000000005" y="378.2857142857143" width="20" height="115.71428571428572" fill="steelblue" /><rect x="512.2" y="442.57142857142856" width="20" height="51.428571428571445" fill="steelblue" /><rect x="532.2" y="429.7142857142857" width="20" height="64.28571428571428" fill="steelblue" /><rect x="552.2" y="442.57142857142856" width="20" height="51.428571428571445" fill="steelblue" /><rect x="572.2" y="442.57142857142856" width="20" height="51.428571428571445" fill="steelblue" /><rect x="592.2" y="481.14285714285717" width="20" height="12.857142857142833" fill="steelblue" /><rect x="612.2" y="468.2857142857143" width="20" height="25.714285714285722" fill="steelblue" /><rect x="632.2" y="494" width="20" height="0" fill="steelblue" /><rect x="652.2" y="494" width="20" height="0" fill="steelblue" /></svg>