<svg xmlns="http://www.w3.org/2000/svg" width="686.2" height="545" font-family="DejaVu Sans, Liberation Sans, Arial, sans-serif" fill="black"><rect width="100%" height="100%" fill="white" /><line x1="72.19999999999999" y1="494" x2="672.2" y2="494" stroke="black" stroke-width="1" /><line x1="72.19999999999999" y1="44" x2="72.19999999999999" y2="494" stroke="black" stroke-width="1" /><line x1="172.2" y1="44" x2="172.2" y2="494" stroke="#ccc" stroke-width="1" /><line x1="272.2" y1="44" x2="272.2" y2="494" stroke="#ccc" stroke-width="1" /><line x1="372.2" y1="44" x2="372.2" y2="494" stroke="#ccc" stroke-width="1" /><line x1="472.2" y1="44" x2="472.2" y2="494" stroke="#ccc" stroke-width="1" /><line x1="572.2" y1="44" x2="572.2" y2="494" stroke="#ccc" stroke-width="1" /><line x1="672.2" y1="44" x2="672.2" y2="494" stroke="#ccc" stroke-width="1" /><line x1="72.19999999999999" y1="419" x2="672.2" y2="419" stroke="#ccc" stroke-width="1" /><line x1="72.19999999999999" y1="344" x2="672.2" y2="344" stroke="#ccc" stroke-width="1" /><line x1="72.19999999999999" y1="269" x2="672.2" y2="269" stroke="#ccc" stroke-width="1" /><line x1="72.19999999999999" y1="194" x2="672.2" y2="194" stroke="#ccc" stroke-width="1" /><line x1="72.19999999999999" y1="119" x2="672.2" y2="119" stroke="#ccc" stroke-width="1" /><line x1="72.19999999999999" y1="44" x2="672.2" y2="44" stroke="#ccc" stroke-width="1" /><line x1="72.19999999999999" y1="494" x2="72.19999999999999" y2="499" stroke="black" stroke-width="1" /><text x="72.19999999999999" y="511" font-size="12" text-anchor="middle">-3</text><line x1="172.2" y1="494" x2="172.2" y2="499" stroke="black" stroke-width="1" /><text x="172.2" y="511" font-size="12" text-anchor="middle">-2</text><line x1="272.2" y1="494" x2="272.2" y2="499" stroke="black" stroke-width="1" /><text x="272.2" y="511" font-size="12" text-anchor="middle">-1</text><line x1="372.2" y1="494" x2="372.2" y2="499" stroke="black" stroke-width="1" /><text x="372.2" y="511" font-size="12" text-anchor="middle">0</text><line x1="472.2" y1="494" x2="472.2" y2="499" stroke="black" stroke-width="1" /><text x="472.2" y="511" font-size="12" text-anchor="middle">1</text><line x1="572.2" y1="494" x2="572.2" y2="499" stroke="black" stroke-width="1" /><text x="572.2" y="511" font-size="12" text-anchor="middle">2</text><line x1="672.2" y1="494" x2="672.2" y2="499" stroke="black" stroke-width="1" /><text x="672.2" y="511" font-size="12" text-anchor="middle">3</text><line x1="67.19999999999999" y1="494" x2="72.19999999999999" y2="494" stroke="black" stroke-width="1" /><text x="64.19999999999999" y="498.2" font-size="12" text-anchor="end">0</text><line x1="67.19999999999999" y1="419" x2="72.19999999999999" y2="419" stroke="black" stroke-width="1" /><text x="64.19999999999999" y="423.2" font-size="12" text-anchor="end">25</text><line x1="67.19999999999999" y1="344" x2="72.19999999999999" y2="344" stroke="black" stroke-width="1" /><text x="64.19999999999999" y="348.2" font-size="12" text-anchor="end">50</text><line x1="67.19999999999999" y1="269" x2="72.19999999999999" y2="269" stroke="black" stroke-width="1" /><text x="64.19999999999999" y="273.2" font-size="12" text-anchor="end">75</text><line x1="67.19999999999999" y1="194" x2="72.19999999999999" y2="194" stroke="black" stroke-width="1" /><text x="64.19999999999999" y="198.2" font-size="12" text-anchor="end">100</text><line x1="67.19999999999999" y1="119" x2="72.19999999999999" y2="119" stroke="black" stroke-width="1" /><text x="64.19999999999999" y="123.2" font-size="12" text-anchor="end">125</text><line x1="67.19999999999999" y1="44" x2="72.19999999999999" y2="44" stroke="black" stroke-width="1" /><text x="64.19999999999999" y="48.2" font-size="12" text-anchor="end">150</text><text x="343.1" y="538" font-size="14" text-anchor="middle">Value</text><text x="14" y="272.5" font-size="14" text-anchor="middle" transform="rotate(-90,14,272.5)">Count</text><text x="343.1" y="22" font-size="18" text-anchor="middle">6 Bins</text><rect x="72.19999999999999" y="479" width="100" height="15" fill="steelblue" /><rect x="172.2" y="383" width="100" height="111" fill="steelblue" /><rect x="272.2" y="203" width="100" height="291" fill="steelblue" /><rect x="372.2" y="119" width="100" height="375" fill="steelblue" /><rect x="472.2" y="407" width="100.00000000000006" height="87" fill="steelblue" /><rect x="572.2" y="473" width="100" height="21" fill="steelblue" /></svg>