<svg xmlns="http://www.w3.org/2000/svg" width="675.3000000000001" height="547.95" font-family="DejaVu Sans, Verdana, Liberation Sans, Arial, sans-serif" fill="black"><rect width="100%" height="100%" fill="white" /><defs><clipPath id="kuva-clip-6"><rect x="61.300000000000004" y="46.95" width="600" height="450"/></clipPath></defs><line x1="261.3" y1="46.95" x2="261.3" y2="496.95" stroke="#cccccc" stroke-width="1" /><line x1="461.3" y1="46.95" x2="461.3" y2="496.95" stroke="#cccccc" stroke-width="1" /><line x1="661.3000000000001" y1="46.95" x2="661.3000000000001" y2="496.95" stroke="#cccccc" stroke-width="1" /><line x1="61.300000000000004" y1="425.52" x2="661.3000000000001" y2="425.52" stroke="#cccccc" stroke-width="1" /><line x1="61.300000000000004" y1="354.1" x2="661.3000000000001" y2="354.1" stroke="#cccccc" stroke-width="1" /><line x1="61.300000000000004" y1="282.67" x2="661.3000000000001" y2="282.67" stroke="#cccccc" stroke-width="1" /><line x1="61.300000000000004" y1="211.24" x2="661.3000000000001" y2="211.24" stroke="#cccccc" stroke-width="1" /><line x1="61.300000000000004" y1="139.81" x2="661.3000000000001" y2="139.81" stroke="#cccccc" stroke-width="1" /><line x1="61.300000000000004" y1="68.38" x2="661.3000000000001" y2="68.38" stroke="#cccccc" stroke-width="1" /><line x1="61.300000000000004" y1="496.95" x2="661.3000000000001" y2="496.95" stroke="#000000" stroke-width="1" /><line x1="61.300000000000004" y1="46.95" x2="61.300000000000004" y2="496.95" stroke="#000000" stroke-width="1" /><line x1="61.300000000000004" y1="496.95" x2="61.300000000000004" y2="501.95" stroke="#000000" stroke-width="1" /><text x="61.300000000000004" y="513.09" font-size="12" text-anchor="middle">-3</text><line x1="261.3" y1="496.95" x2="261.3" y2="501.95" stroke="#000000" stroke-width="1" /><text x="261.3" y="513.09" font-size="12" text-anchor="middle">-1</text><line x1="461.3" y1="496.95" x2="461.3" y2="501.95" stroke="#000000" stroke-width="1" /><text x="461.3" y="513.09" font-size="12" text-anchor="middle">1</text><line x1="661.3000000000001" y1="496.95" x2="661.3000000000001" y2="501.95" stroke="#000000" stroke-width="1" /><text x="661.3000000000001" y="513.09" font-size="12" text-anchor="middle">3</text><line x1="56.300000000000004" y1="496.95" x2="61.300000000000004" y2="496.95" stroke="#000000" stroke-width="1" /><text x="53.300000000000004" y="501.33" font-size="12" text-anchor="end">0</text><line x1="56.300000000000004" y1="425.52" x2="61.300000000000004" y2="425.52" stroke="#000000" stroke-width="1" /><text x="53.300000000000004" y="429.90000000000003" font-size="12" text-anchor="end">50</text><line x1="56.300000000000004" y1="354.1" x2="61.300000000000004" y2="354.1" stroke="#000000" stroke-width="1" /><text x="53.300000000000004" y="358.47" font-size="12" text-anchor="end">100</text><line x1="56.300000000000004" y1="282.67" x2="61.300000000000004" y2="282.67" stroke="#000000" stroke-width="1" /><text x="53.300000000000004" y="287.04" font-size="12" text-anchor="end">150</text><line x1="56.300000000000004" y1="211.24" x2="61.300000000000004" y2="211.24" stroke="#000000" stroke-width="1" /><text x="53.300000000000004" y="215.61" font-size="12" text-anchor="end">200</text><line x1="56.300000000000004" y1="139.81" x2="61.300000000000004" y2="139.81" stroke="#000000" stroke-width="1" /><text x="53.300000000000004" y="144.18" font-size="12" text-anchor="end">250</text><line x1="56.300000000000004" y1="68.38" x2="61.300000000000004" y2="68.38" stroke="#000000" stroke-width="1" /><text x="53.300000000000004" y="72.76" font-size="12" text-anchor="end">300</text><text x="361.3" y="540.95" font-size="14" text-anchor="middle">Value</text><text x="17.3" y="271.95" font-size="14" text-anchor="middle" transform="rotate(-90,17.3,271.95)">Cumulative count</text><text x="361.3" y="29.71" font-size="18" text-anchor="middle">Cumulative Histogram</text><g clip-path="url(#kuva-clip-6)"><rect x="101.3" y="495.52000000000004" width="20" height="1.43" fill="#4682b4" /><rect x="121.3" y="492.67" width="20" height="4.29" fill="#4682b4" /><rect x="141.3" y="489.81" width="20" height="7.140000000000001" fill="#4682b4" /><rect x="161.3" y="485.52" width="20" height="11.43" fill="#4682b4" /><rect x="181.3" y="482.67" width="20" height="14.290000000000001" fill="#4682b4" /><rect x="201.3" y="472.67" width="20" height="24.29" fill="#4682b4" /><rect x="221.3" y="448.38" width="20" height="48.57" fill="#4682b4" /><rect x="241.3" y="436.95" width="20" height="60" fill="#4682b4" /><rect x="261.3" y="414.1" width="20" height="82.86" fill="#4682b4" /><rect x="281.3" y="391.24" width="20" height="105.71000000000001" fill="#4682b4" /><rect x="301.3" y="368.38" width="20" height="128.57" fill="#4682b4" /><rect x="321.3" y="322.67" width="20" height="174.29" fill="#4682b4" /><rect x="341.3" y="298.38" width="20" height="198.57" fill="#4682b4" /><rect x="361.3" y="264.1" width="20" height="232.86" fill="#4682b4" /><rect x="381.3" y="229.81" width="20" height="267.14" fill="#4682b4" /><rect x="401.3" y="195.52" width="20" height="301.43" fill="#4682b4" /><rect x="421.3" y="154.1" width="20" height="342.86" fill="#4682b4" /><rect x="441.3" y="119.81" width="20" height="377.14" fill="#4682b4" /><rect x="461.3" y="109.81" width="20" height="387.14" fill="#4682b4" /><rect x="481.3" y="96.95" width="20" height="400" fill="#4682b4" /><rect x="501.3" y="91.24" width="20" height="405.71000000000004" fill="#4682b4" /><rect x="521.3" y="84.10000000000001" width="20" height="412.86" fill="#4682b4" /><rect x="541.3" y="78.38" width="20" height="418.57" fill="#4682b4" /><rect x="561.3000000000001" y="72.67" width="20" height="424.29" fill="#4682b4" /><rect x="581.3000000000001" y="71.24" width="20" height="425.71000000000004" fill="#4682b4" /><rect x="601.3000000000001" y="68.38" width="20" height="428.57" fill="#4682b4" /><rect x="621.3000000000001" y="68.38" width="20" height="428.57" fill="#4682b4" /><rect x="641.3000000000001" y="68.38" width="20" height="428.57" fill="#4682b4" /></g></svg>