<svg xmlns="http://www.w3.org/2000/svg" width="686.2" height="545" font-family="DejaVu Sans, Liberation Sans, Arial, sans-serif" fill="black"><rect width="100%" height="100%" fill="white" /><line x1="72.19999999999999" y1="494" x2="672.2" y2="494" stroke="black" stroke-width="1" /><line x1="72.19999999999999" y1="44" x2="72.19999999999999" y2="494" stroke="black" stroke-width="1" /><line x1="172.2" y1="44" x2="172.2" y2="494" stroke="#ccc" stroke-width="1" /><line x1="272.2" y1="44" x2="272.2" y2="494" stroke="#ccc" stroke-width="1" /><line x1="372.2" y1="44" x2="372.2" y2="494" stroke="#ccc" stroke-width="1" /><line x1="472.2" y1="44" x2="472.2" y2="494" stroke="#ccc" stroke-width="1" /><line x1="572.2" y1="44" x2="572.2" y2="494" stroke="#ccc" stroke-width="1" /><line x1="672.2" y1="44" x2="672.2" y2="494" stroke="#ccc" stroke-width="1" /><line x1="72.19999999999999" y1="404" x2="672.2" y2="404" stroke="#ccc" stroke-width="1" /><line x1="72.19999999999999" y1="314" x2="672.2" y2="314" stroke="#ccc" stroke-width="1" /><line x1="72.19999999999999" y1="224" x2="672.2" y2="224" stroke="#ccc" stroke-width="1" /><line x1="72.19999999999999" y1="134" x2="672.2" y2="134" stroke="#ccc" stroke-width="1" /><line x1="72.19999999999999" y1="44" x2="672.2" y2="44" stroke="#ccc" stroke-width="1" /><line x1="72.19999999999999" y1="494" x2="72.19999999999999" y2="499" stroke="black" stroke-width="1" /><text x="72.19999999999999" y="511" font-size="12" text-anchor="middle">-3</text><line x1="172.2" y1="494" x2="172.2" y2="499" stroke="black" stroke-width="1" /><text x="172.2" y="511" font-size="12" text-anchor="middle">-2</text><line x1="272.2" y1="494" x2="272.2" y2="499" stroke="black" stroke-width="1" /><text x="272.2" y="511" font-size="12" text-anchor="middle">-1</text><line x1="372.2" y1="494" x2="372.2" y2="499" stroke="black" stroke-width="1" /><text x="372.2" y="511" font-size="12" text-anchor="middle">0</text><line x1="472.2" y1="494" x2="472.2" y2="499" stroke="black" stroke-width="1" /><text x="472.2" y="511" font-size="12" text-anchor="middle">1</text><line x1="572.2" y1="494" x2="572.2" y2="499" stroke="black" stroke-width="1" /><text x="572.2" y="511" font-size="12" text-anchor="middle">2</text><line x1="672.2" y1="494" x2="672.2" y2="499" stroke="black" stroke-width="1" /><text x="672.2" y="511" font-size="12" text-anchor="middle">3</text><line x1="67.19999999999999" y1="494" x2="72.19999999999999" y2="494" stroke="black" stroke-width="1" /><text x="64.19999999999999" y="498.2" font-size="12" text-anchor="end">0</text><line x1="67.19999999999999" y1="404" x2="72.19999999999999" y2="404" stroke="black" stroke-width="1" /><text x="64.19999999999999" y="408.2" font-size="12" text-anchor="end">0.2</text><line x1="67.19999999999999" y1="314" x2="72.19999999999999" y2="314" stroke="black" stroke-width="1" /><text x="64.19999999999999" y="318.2" font-size="12" text-anchor="end">0.4</text><line x1="67.19999999999999" y1="224" x2="72.19999999999999" y2="224" stroke="black" stroke-width="1" /><text x="64.19999999999999" y="228.2" font-size="12" text-anchor="end">0.6</text><line x1="67.19999999999999" y1="134" x2="72.19999999999999" y2="134" stroke="black" stroke-width="1" /><text x="64.19999999999999" y="138.2" font-size="12" text-anchor="end">0.8</text><line x1="67.19999999999999" y1="44" x2="72.19999999999999" y2="44" stroke="black" stroke-width="1" /><text x="64.19999999999999" y="48.2" font-size="12" text-anchor="end">1</text><text x="343.1" y="538" font-size="14" text-anchor="middle">Value</text><text x="14" y="272.5" font-size="14" text-anchor="middle" transform="rotate(-90,14,272.5)">Relative frequency</text><text x="343.1" y="22" font-size="18" text-anchor="middle">Normalized Histogram</text><rect x="72.19999999999999" y="494" width="20.000000000000014" height="0" fill="steelblue" /><rect x="92.2" y="494" width="20.000000000000014" height="0" fill="steelblue" /><rect x="112.19999999999999" y="479.9375" width="20" height="14.0625" fill="steelblue" /><rect x="132.2" y="465.875" width="20.00000000000003" height="28.125" fill="steelblue" /><rect x="152.2" y="465.875" width="20" height="28.125" fill="steelblue" /><rect x="172.2" y="451.8125" width="20" height="42.1875" fill="steelblue" /><rect x="192.20000000000002" y="465.875" width="20" height="28.125" fill="steelblue" /><rect x="212.20000000000002" y="395.5625" width="19.99999999999997" height="98.4375" fill="steelblue" /><rect x="232.2" y="254.9375" width="20" height="239.0625" fill="steelblue" /><rect x="252.2" y="381.5" width="20" height="112.5" fill="steelblue" /><rect x="272.2" y="269" width="20.000000000000057" height="225" fill="steelblue" /><rect x="292.20000000000005" y="269" width="20" height="225" fill="steelblue" /><rect x="312.20000000000005" y="269" width="20" height="225" fill="steelblue" /><rect x="332.2" y="44" width="20.000000000000057" height="450" fill="steelblue" /><rect x="352.20000000000005" y="254.9375" width="20" height="239.0625" fill="steelblue" /><rect x="372.2" y="156.5" width="20" height="337.5" fill="steelblue" /><rect x="392.2" y="156.5" width="20.000000000000057" height="337.5" fill="steelblue" /><rect x="412.20000000000005" y="156.5" width="20" height="337.5" fill="steelblue" /><rect x="432.2" y="86.1875" width="20" height="407.8125" fill="steelblue" /><rect x="452.20000000000005" y="156.5" width="19.999999999999943" height="337.5" fill="steelblue" /><rect x="472.2" y="395.5625" width="20.000000000000057" height="98.4375" fill="steelblue" /><rect x="492.20000000000005" y="367.4375" width="20" height="126.5625" fill="steelblue" /><rect x="512.2" y="437.75" width="20" height="56.25" fill="steelblue" /><rect x="532.2" y="423.6875" width="20" height="70.3125" fill="steelblue" /><rect x="552.2" y="437.75" width="20" height="56.25" fill="steelblue" /><rect x="572.2" y="437.75" width="20" height="56.25" fill="steelblue" /><rect x="592.2" y="479.9375" width="20" height="14.0625" fill="steelblue" /><rect x="612.2" y="465.875" width="20" height="28.125" fill="steelblue" /><rect x="632.2" y="494" width="20" height="0" fill="steelblue" /><rect x="652.2" y="494" width="20" height="0" fill="steelblue" /></svg>