<svg xmlns="http://www.w3.org/2000/svg" width="766.2" height="545" font-family="DejaVu Sans, Liberation Sans, Arial, sans-serif" fill="black"><rect width="100%" height="100%" fill="white" /><line x1="72.19999999999999" y1="494" x2="672.2" y2="494" stroke="black" stroke-width="1" /><line x1="72.19999999999999" y1="44" x2="72.19999999999999" y2="494" stroke="black" stroke-width="1" /><text x="62.19999999999999" y="423.2" font-size="12" text-anchor="end">read_1</text><line x1="67.19999999999999" y1="419" x2="72.19999999999999" y2="419" stroke="black" stroke-width="1" /><text x="62.19999999999999" y="348.2" font-size="12" text-anchor="end">read_2</text><line x1="67.19999999999999" y1="344" x2="72.19999999999999" y2="344" stroke="black" stroke-width="1" /><text x="62.19999999999999" y="273.2" font-size="12" text-anchor="end">read_3</text><line x1="67.19999999999999" y1="269" x2="72.19999999999999" y2="269" stroke="black" stroke-width="1" /><text x="62.19999999999999" y="198.2" font-size="12" text-anchor="end">read_4</text><line x1="67.19999999999999" y1="194" x2="72.19999999999999" y2="194" stroke="black" stroke-width="1" /><text x="62.19999999999999" y="123.2" font-size="12" text-anchor="end">read_5</text><line x1="67.19999999999999" y1="119" x2="72.19999999999999" y2="119" stroke="black" stroke-width="1" /><text x="62.19999999999999" y="48.2" font-size="12" text-anchor="end">read_6</text><line x1="67.19999999999999" y1="44" x2="72.19999999999999" y2="44" stroke="black" stroke-width="1" /><line x1="72.19999999999999" y1="494" x2="72.19999999999999" y2="499" stroke="black" stroke-width="1" /><text x="72.19999999999999" y="511" font-size="12" text-anchor="middle">-20</text><line x1="222.2" y1="494" x2="222.2" y2="499" stroke="black" stroke-width="1" /><text x="222.2" y="511" font-size="12" text-anchor="middle">0</text><line x1="372.2" y1="494" x2="372.2" y2="499" stroke="black" stroke-width="1" /><text x="372.2" y="511" font-size="12" text-anchor="middle">20</text><line x1="522.2" y1="494" x2="522.2" y2="499" stroke="black" stroke-width="1" /><text x="522.2" y="511" font-size="12" text-anchor="middle">40</text><line x1="672.2" y1="494" x2="672.2" y2="499" stroke="black" stroke-width="1" /><text x="672.2" y="511" font-size="12" text-anchor="middle">60</text><text x="383.1" y="22" font-size="18" text-anchor="middle">Brick Plot — DNA Sequences</text><rect x="87.19999999999999" y="419" width="7.125" height="71.25" fill="rgb(0,0,255)" /><rect x="94.69999999999999" y="419" width="7.125" height="71.25" fill="rgb(209,113,5)" /><rect x="102.19999999999999" y="419" width="7.125" height="71.25" fill="rgb(209,113,5)" /><rect x="109.69999999999999" y="419" width="7.125" height="71.25" fill="rgb(0,0,255)" /><rect x="117.19999999999999" y="419" width="7.125" height="71.25" fill="rgb(209,113,5)" /><rect x="124.69999999999999" y="419" width="7.125" height="71.25" fill="rgb(0,150,0)" /><rect x="132.2" y="419" width="7.125" height="71.25" fill="rgb(255,0,0)" /><rect x="139.7" y="419" width="7.125" height="71.25" fill="rgb(0,0,255)" /><rect x="147.2" y="419" width="7.125" height="71.25" fill="rgb(0,150,0)" /><rect x="154.7" y="419" width="7.125" height="71.25" fill="rgb(209,113,5)" /><rect x="162.2" y="419" width="7.125" height="71.25" fill="rgb(209,113,5)" /><rect x="169.7" y="419" width="7.125" height="71.25" fill="rgb(0,0,255)" /><rect x="177.2" y="419" width="7.125" height="71.25" fill="rgb(0,0,255)" /><rect x="184.7" y="419" width="7.125" height="71.25" fill="rgb(209,113,5)" /><rect x="192.2" y="419" width="7.125" height="71.25" fill="rgb(0,0,255)" /><rect x="199.7" y="419" width="7.125" height="71.25" fill="rgb(0,150,0)" /><rect x="207.2" y="419" width="7.125" height="71.25" fill="rgb(0,0,255)" /><rect x="214.7" y="419" width="7.125" height="71.25" fill="rgb(255,0,0)" /><rect x="222.2" y="419" width="7.125" height="71.25" fill="rgb(0,0,255)" /><rect x="229.7" y="419" width="7.125" height="71.25" fill="rgb(0,150,0)" /><rect x="237.2" y="419" width="7.125" height="71.25" fill="rgb(255,0,0)" /><rect x="244.7" y="419" width="7.125" height="71.25" fill="rgb(0,0,255)" /><rect x="252.2" y="419" width="7.125" height="71.25" fill="rgb(0,150,0)" /><rect x="259.7" y="419" width="7.125" height="71.25" fill="rgb(255,0,0)" /><rect x="267.2" y="419" width="7.125" height="71.25" fill="rgb(0,0,255)" /><rect x="274.7" y="419" width="7.125" height="71.25" fill="rgb(0,150,0)" /><rect x="282.2" y="419" width="7.125" height="71.25" fill="rgb(255,0,0)" /><rect x="289.7" y="419" width="7.125" height="71.25" fill="rgb(0,0,255)" /><rect x="297.2" y="419" width="7.125" height="71.25" fill="rgb(0,150,0)" /><rect x="304.7" y="419" width="7.125" height="71.25" fill="rgb(255,0,0)" /><rect x="312.2" y="419" width="7.125" height="71.25" fill="rgb(0,0,255)" /><rect x="319.7" y="419" width="7.125" height="71.25" fill="rgb(0,150,0)" /><rect x="327.2" y="419" width="7.125" height="71.25" fill="rgb(255,0,0)" /><rect x="334.7" y="419" width="7.125" height="71.25" fill="rgb(0,0,255)" /><rect x="342.2" y="419" width="7.125" height="71.25" fill="rgb(0,150,0)" /><rect x="349.7" y="419" width="7.125" height="71.25" fill="rgb(255,0,0)" /><rect x="357.2" y="419" width="7.125" height="71.25" fill="rgb(0,0,255)" /><rect x="364.7" y="419" width="7.125" height="71.25" fill="rgb(0,150,0)" /><rect x="372.2" y="419" width="7.125" height="71.25" fill="rgb(255,0,0)" /><rect x="379.7" y="419" width="7.125" height="71.25" fill="rgb(0,0,255)" /><rect x="387.2" y="419" width="7.125" height="71.25" fill="rgb(0,150,0)" /><rect x="394.7" y="419" width="7.125" height="71.25" fill="rgb(255,0,0)" /><rect x="402.2" y="419" width="7.125" height="71.25" fill="rgb(0,0,255)" /><rect x="409.7" y="419" width="7.125" height="71.25" fill="rgb(0,150,0)" /><rect x="417.2" y="419" width="7.125" height="71.25" fill="rgb(255,0,0)" /><rect x="424.7" y="419" width="7.125" height="71.25" fill="rgb(0,0,255)" /><rect x="432.2" y="419" width="7.125" height="71.25" fill="rgb(0,150,0)" /><rect x="439.7" y="419" width="7.125" height="71.25" fill="rgb(255,0,0)" /><rect x="447.2" y="419" width="7.125" height="71.25" fill="rgb(0,0,255)" /><rect x="454.7" y="419" width="7.125" height="71.25" fill="rgb(0,150,0)" /><rect x="462.2" y="419" width="7.125" height="71.25" fill="rgb(255,0,0)" /><rect x="469.7" y="419" width="7.125" height="71.25" fill="rgb(0,0,255)" /><rect x="477.2" y="419" width="7.125" height="71.25" fill="rgb(0,150,0)" /><rect x="484.7" y="419" width="7.125" height="71.25" fill="rgb(255,0,0)" /><rect x="492.2" y="419" width="7.125" height="71.25" fill="rgb(0,0,255)" /><rect x="499.7" y="419" width="7.125" height="71.25" fill="rgb(0,150,0)" /><rect x="507.2" y="419" width="7.125000000000053" height="71.25" fill="rgb(255,0,0)" /><rect x="514.7" y="419" width="7.125" height="71.25" fill="rgb(0,0,255)" /><rect x="522.2" y="419" width="7.125" height="71.25" fill="rgb(0,150,0)" /><rect x="529.7" y="419" width="7.125" height="71.25" fill="rgb(255,0,0)" /><rect x="537.2" y="419" width="7.125" height="71.25" fill="rgb(255,0,0)" /><rect x="544.7" y="419" width="7.125" height="71.25" fill="rgb(0,0,255)" /><rect x="552.2" y="419" width="7.125" height="71.25" fill="rgb(0,150,0)" /><rect x="559.7" y="419" width="7.125" height="71.25" fill="rgb(255,0,0)" /><rect x="87.19999999999999" y="344" width="7.125" height="71.25" fill="rgb(0,0,255)" /><rect x="94.69999999999999" y="344" width="7.125" height="71.25" fill="rgb(209,113,5)" /><rect x="102.19999999999999" y="344" width="7.125" height="71.25" fill="rgb(209,113,5)" /><rect x="109.69999999999999" y="344" width="7.125" height="71.25" fill="rgb(0,0,255)" /><rect x="117.19999999999999" y="344" width="7.125" height="71.25" fill="rgb(209,113,5)" /><rect x="124.69999999999999" y="344" width="7.125" height="71.25" fill="rgb(0,150,0)" /><rect x="132.2" y="344" width="7.125" height="71.25" fill="rgb(255,0,0)" /><rect x="139.7" y="344" width="7.125" height="71.25" fill="rgb(0,0,255)" /><rect x="147.2" y="344" width="7.125" height="71.25" fill="rgb(0,150,0)" /><rect x="154.7" y="344" width="7.125" height="71.25" fill="rgb(209,113,5)" /><rect x="162.2" y="344" width="7.125" height="71.25" fill="rgb(209,113,5)" /><rect x="169.7" y="344" width="7.125" height="71.25" fill="rgb(0,0,255)" /><rect x="177.2" y="344" width="7.125" height="71.25" fill="rgb(0,0,255)" /><rect x="184.7" y="344" width="7.125" height="71.25" fill="rgb(209,113,5)" /><rect x="192.2" y="344" width="7.125" height="71.25" fill="rgb(0,0,255)" /><rect x="199.7" y="344" width="7.125" height="71.25" fill="rgb(0,150,0)" /><rect x="207.2" y="344" width="7.125" height="71.25" fill="rgb(0,0,255)" /><rect x="214.7" y="344" width="7.125" height="71.25" fill="rgb(255,0,0)" /><rect x="222.2" y="344" width="7.125" height="71.25" fill="rgb(0,0,255)" /><rect x="229.7" y="344" width="7.125" height="71.25" fill="rgb(0,150,0)" /><rect x="237.2" y="344" width="7.125" height="71.25" fill="rgb(255,0,0)" /><rect x="244.7" y="344" width="7.125" height="71.25" fill="rgb(0,0,255)" /><rect x="252.2" y="344" width="7.125" height="71.25" fill="rgb(0,150,0)" /><rect x="259.7" y="344" width="7.125" height="71.25" fill="rgb(255,0,0)" /><rect x="267.2" y="344" width="7.125" height="71.25" fill="rgb(0,0,255)" /><rect x="274.7" y="344" width="7.125" height="71.25" fill="rgb(0,150,0)" /><rect x="282.2" y="344" width="7.125" height="71.25" fill="rgb(255,0,0)" /><rect x="289.7" y="344" width="7.125" height="71.25" fill="rgb(0,0,255)" /><rect x="297.2" y="344" width="7.125" height="71.25" fill="rgb(0,150,0)" /><rect x="304.7" y="344" width="7.125" height="71.25" fill="rgb(255,0,0)" /><rect x="312.2" y="344" width="7.125" height="71.25" fill="rgb(0,0,255)" /><rect x="319.7" y="344" width="7.125" height="71.25" fill="rgb(0,150,0)" /><rect x="327.2" y="344" width="7.125" height="71.25" fill="rgb(255,0,0)" /><rect x="334.7" y="344" width="7.125" height="71.25" fill="rgb(0,0,255)" /><rect x="342.2" y="344" width="7.125" height="71.25" fill="rgb(0,150,0)" /><rect x="349.7" y="344" width="7.125" height="71.25" fill="rgb(255,0,0)" /><rect x="357.2" y="344" width="7.125" height="71.25" fill="rgb(0,0,255)" /><rect x="364.7" y="344" width="7.125" height="71.25" fill="rgb(0,150,0)" /><rect x="372.2" y="344" width="7.125" height="71.25" fill="rgb(255,0,0)" /><rect x="379.7" y="344" width="7.125" height="71.25" fill="rgb(0,0,255)" /><rect x="387.2" y="344" width="7.125" height="71.25" fill="rgb(0,150,0)" /><rect x="394.7" y="344" width="7.125" height="71.25" fill="rgb(255,0,0)" /><rect x="402.2" y="344" width="7.125" height="71.25" fill="rgb(0,0,255)" /><rect x="409.7" y="344" width="7.125" height="71.25" fill="rgb(0,150,0)" /><rect x="417.2" y="344" width="7.125" height="71.25" fill="rgb(255,0,0)" /><rect x="424.7" y="344" width="7.125" height="71.25" fill="rgb(0,0,255)" /><rect x="432.2" y="344" width="7.125" height="71.25" fill="rgb(0,150,0)" /><rect x="439.7" y="344" width="7.125" height="71.25" fill="rgb(255,0,0)" /><rect x="447.2" y="344" width="7.125" height="71.25" fill="rgb(0,0,255)" /><rect x="454.7" y="344" width="7.125" height="71.25" fill="rgb(0,150,0)" /><rect x="462.2" y="344" width="7.125" height="71.25" fill="rgb(255,0,0)" /><rect x="469.7" y="344" width="7.125" height="71.25" fill="rgb(0,0,255)" /><rect x="477.2" y="344" width="7.125" height="71.25" fill="rgb(0,150,0)" /><rect x="484.7" y="344" width="7.125" height="71.25" fill="rgb(255,0,0)" /><rect x="492.2" y="344" width="7.125" height="71.25" fill="rgb(0,0,255)" /><rect x="499.7" y="344" width="7.125" height="71.25" fill="rgb(0,150,0)" /><rect x="507.2" y="344" width="7.125000000000053" height="71.25" fill="rgb(255,0,0)" /><rect x="514.7" y="344" width="7.125" height="71.25" fill="rgb(255,0,0)" /><rect x="522.2" y="344" width="7.125" height="71.25" fill="rgb(0,0,255)" /><rect x="529.7" y="344" width="7.125" height="71.25" fill="rgb(0,150,0)" /><rect x="537.2" y="344" width="7.125" height="71.25" fill="rgb(255,0,0)" /><rect x="87.19999999999999" y="269" width="7.125" height="71.25" fill="rgb(0,0,255)" /><rect x="94.69999999999999" y="269" width="7.125" height="71.25" fill="rgb(209,113,5)" /><rect x="102.19999999999999" y="269" width="7.125" height="71.25" fill="rgb(209,113,5)" /><rect x="109.69999999999999" y="269" width="7.125" height="71.25" fill="rgb(0,0,255)" /><rect x="117.19999999999999" y="269" width="7.125" height="71.25" fill="rgb(209,113,5)" /><rect x="124.69999999999999" y="269" width="7.125" height="71.25" fill="rgb(0,150,0)" /><rect x="132.2" y="269" width="7.125" height="71.25" fill="rgb(255,0,0)" /><rect x="139.7" y="269" width="7.125" height="71.25" fill="rgb(0,0,255)" /><rect x="147.2" y="269" width="7.125" height="71.25" fill="rgb(0,150,0)" /><rect x="154.7" y="269" width="7.125" height="71.25" fill="rgb(209,113,5)" /><rect x="162.2" y="269" width="7.125" height="71.25" fill="rgb(209,113,5)" /><rect x="169.7" y="269" width="7.125" height="71.25" fill="rgb(0,0,255)" /><rect x="177.2" y="269" width="7.125" height="71.25" fill="rgb(0,0,255)" /><rect x="184.7" y="269" width="7.125" height="71.25" fill="rgb(209,113,5)" /><rect x="192.2" y="269" width="7.125" height="71.25" fill="rgb(0,0,255)" /><rect x="199.7" y="269" width="7.125" height="71.25" fill="rgb(0,150,0)" /><rect x="207.2" y="269" width="7.125" height="71.25" fill="rgb(0,0,255)" /><rect x="214.7" y="269" width="7.125" height="71.25" fill="rgb(255,0,0)" /><rect x="222.2" y="269" width="7.125" height="71.25" fill="rgb(0,0,255)" /><rect x="229.7" y="269" width="7.125" height="71.25" fill="rgb(0,150,0)" /><rect x="237.2" y="269" width="7.125" height="71.25" fill="rgb(255,0,0)" /><rect x="244.7" y="269" width="7.125" height="71.25" fill="rgb(0,0,255)" /><rect x="252.2" y="269" width="7.125" height="71.25" fill="rgb(0,150,0)" /><rect x="259.7" y="269" width="7.125" height="71.25" fill="rgb(255,0,0)" /><rect x="267.2" y="269" width="7.125" height="71.25" fill="rgb(0,0,255)" /><rect x="274.7" y="269" width="7.125" height="71.25" fill="rgb(0,150,0)" /><rect x="282.2" y="269" width="7.125" height="71.25" fill="rgb(255,0,0)" /><rect x="289.7" y="269" width="7.125" height="71.25" fill="rgb(0,0,255)" /><rect x="297.2" y="269" width="7.125" height="71.25" fill="rgb(0,150,0)" /><rect x="304.7" y="269" width="7.125" height="71.25" fill="rgb(255,0,0)" /><rect x="312.2" y="269" width="7.125" height="71.25" fill="rgb(0,0,255)" /><rect x="319.7" y="269" width="7.125" height="71.25" fill="rgb(0,150,0)" /><rect x="327.2" y="269" width="7.125" height="71.25" fill="rgb(255,0,0)" /><rect x="334.7" y="269" width="7.125" height="71.25" fill="rgb(0,0,255)" /><rect x="342.2" y="269" width="7.125" height="71.25" fill="rgb(0,150,0)" /><rect x="349.7" y="269" width="7.125" height="71.25" fill="rgb(255,0,0)" /><rect x="357.2" y="269" width="7.125" height="71.25" fill="rgb(0,0,255)" /><rect x="364.7" y="269" width="7.125" height="71.25" fill="rgb(0,150,0)" /><rect x="372.2" y="269" width="7.125" height="71.25" fill="rgb(255,0,0)" /><rect x="379.7" y="269" width="7.125" height="71.25" fill="rgb(0,0,255)" /><rect x="387.2" y="269" width="7.125" height="71.25" fill="rgb(0,150,0)" /><rect x="394.7" y="269" width="7.125" height="71.25" fill="rgb(255,0,0)" /><rect x="402.2" y="269" width="7.125" height="71.25" fill="rgb(0,0,255)" /><rect x="409.7" y="269" width="7.125" height="71.25" fill="rgb(0,150,0)" /><rect x="417.2" y="269" width="7.125" height="71.25" fill="rgb(255,0,0)" /><rect x="424.7" y="269" width="7.125" height="71.25" fill="rgb(0,0,255)" /><rect x="432.2" y="269" width="7.125" height="71.25" fill="rgb(0,150,0)" /><rect x="439.7" y="269" width="7.125" height="71.25" fill="rgb(255,0,0)" /><rect x="447.2" y="269" width="7.125" height="71.25" fill="rgb(0,0,255)" /><rect x="454.7" y="269" width="7.125" height="71.25" fill="rgb(0,150,0)" /><rect x="462.2" y="269" width="7.125" height="71.25" fill="rgb(255,0,0)" /><rect x="469.7" y="269" width="7.125" height="71.25" fill="rgb(0,0,255)" /><rect x="477.2" y="269" width="7.125" height="71.25" fill="rgb(0,150,0)" /><rect x="484.7" y="269" width="7.125" height="71.25" fill="rgb(255,0,0)" /><rect x="492.2" y="269" width="7.125" height="71.25" fill="rgb(0,0,255)" /><rect x="499.7" y="269" width="7.125" height="71.25" fill="rgb(0,150,0)" /><rect x="507.2" y="269" width="7.125000000000053" height="71.25" fill="rgb(255,0,0)" /><rect x="514.7" y="269" width="7.125" height="71.25" fill="rgb(0,0,255)" /><rect x="522.2" y="269" width="7.125" height="71.25" fill="rgb(0,150,0)" /><rect x="529.7" y="269" width="7.125" height="71.25" fill="rgb(255,0,0)" /><rect x="537.2" y="269" width="7.125" height="71.25" fill="rgb(255,0,0)" /><rect x="544.7" y="269" width="7.125" height="71.25" fill="rgb(0,0,255)" /><rect x="552.2" y="269" width="7.125" height="71.25" fill="rgb(0,150,0)" /><rect x="559.7" y="269" width="7.125" height="71.25" fill="rgb(255,0,0)" /><rect x="87.19999999999999" y="194" width="7.125" height="71.25" fill="rgb(0,0,255)" /><rect x="94.69999999999999" y="194" width="7.125" height="71.25" fill="rgb(209,113,5)" /><rect x="102.19999999999999" y="194" width="7.125" height="71.25" fill="rgb(209,113,5)" /><rect x="109.69999999999999" y="194" width="7.125" height="71.25" fill="rgb(0,0,255)" /><rect x="117.19999999999999" y="194" width="7.125" height="71.25" fill="rgb(209,113,5)" /><rect x="124.69999999999999" y="194" width="7.125" height="71.25" fill="rgb(0,150,0)" /><rect x="132.2" y="194" width="7.125" height="71.25" fill="rgb(255,0,0)" /><rect x="139.7" y="194" width="7.125" height="71.25" fill="rgb(0,0,255)" /><rect x="147.2" y="194" width="7.125" height="71.25" fill="rgb(0,150,0)" /><rect x="154.7" y="194" width="7.125" height="71.25" fill="rgb(209,113,5)" /><rect x="162.2" y="194" width="7.125" height="71.25" fill="rgb(209,113,5)" /><rect x="169.7" y="194" width="7.125" height="71.25" fill="rgb(0,0,255)" /><rect x="177.2" y="194" width="7.125" height="71.25" fill="rgb(0,0,255)" /><rect x="184.7" y="194" width="7.125" height="71.25" fill="rgb(209,113,5)" /><rect x="192.2" y="194" width="7.125" height="71.25" fill="rgb(0,0,255)" /><rect x="199.7" y="194" width="7.125" height="71.25" fill="rgb(0,150,0)" /><rect x="207.2" y="194" width="7.125" height="71.25" fill="rgb(0,0,255)" /><rect x="214.7" y="194" width="7.125" height="71.25" fill="rgb(255,0,0)" /><rect x="222.2" y="194" width="7.125" height="71.25" fill="rgb(0,0,255)" /><rect x="229.7" y="194" width="7.125" height="71.25" fill="rgb(0,150,0)" /><rect x="237.2" y="194" width="7.125" height="71.25" fill="rgb(255,0,0)" /><rect x="244.7" y="194" width="7.125" height="71.25" fill="rgb(0,0,255)" /><rect x="252.2" y="194" width="7.125" height="71.25" fill="rgb(0,150,0)" /><rect x="259.7" y="194" width="7.125" height="71.25" fill="rgb(255,0,0)" /><rect x="267.2" y="194" width="7.125" height="71.25" fill="rgb(0,0,255)" /><rect x="274.7" y="194" width="7.125" height="71.25" fill="rgb(0,150,0)" /><rect x="282.2" y="194" width="7.125" height="71.25" fill="rgb(255,0,0)" /><rect x="289.7" y="194" width="7.125" height="71.25" fill="rgb(0,0,255)" /><rect x="297.2" y="194" width="7.125" height="71.25" fill="rgb(0,150,0)" /><rect x="304.7" y="194" width="7.125" height="71.25" fill="rgb(255,0,0)" /><rect x="312.2" y="194" width="7.125" height="71.25" fill="rgb(0,0,255)" /><rect x="319.7" y="194" width="7.125" height="71.25" fill="rgb(0,150,0)" /><rect x="327.2" y="194" width="7.125" height="71.25" fill="rgb(255,0,0)" /><rect x="334.7" y="194" width="7.125" height="71.25" fill="rgb(0,0,255)" /><rect x="342.2" y="194" width="7.125" height="71.25" fill="rgb(0,150,0)" /><rect x="349.7" y="194" width="7.125" height="71.25" fill="rgb(255,0,0)" /><rect x="357.2" y="194" width="7.125" height="71.25" fill="rgb(0,0,255)" /><rect x="364.7" y="194" width="7.125" height="71.25" fill="rgb(0,150,0)" /><rect x="372.2" y="194" width="7.125" height="71.25" fill="rgb(255,0,0)" /><rect x="379.7" y="194" width="7.125" height="71.25" fill="rgb(0,0,255)" /><rect x="387.2" y="194" width="7.125" height="71.25" fill="rgb(0,150,0)" /><rect x="394.7" y="194" width="7.125" height="71.25" fill="rgb(255,0,0)" /><rect x="402.2" y="194" width="7.125" height="71.25" fill="rgb(0,0,255)" /><rect x="409.7" y="194" width="7.125" height="71.25" fill="rgb(0,150,0)" /><rect x="417.2" y="194" width="7.125" height="71.25" fill="rgb(255,0,0)" /><rect x="424.7" y="194" width="7.125" height="71.25" fill="rgb(0,0,255)" /><rect x="432.2" y="194" width="7.125" height="71.25" fill="rgb(0,150,0)" /><rect x="439.7" y="194" width="7.125" height="71.25" fill="rgb(255,0,0)" /><rect x="447.2" y="194" width="7.125" height="71.25" fill="rgb(0,0,255)" /><rect x="454.7" y="194" width="7.125" height="71.25" fill="rgb(0,0,255)" /><rect x="462.2" y="194" width="7.125" height="71.25" fill="rgb(0,150,0)" /><rect x="469.7" y="194" width="7.125" height="71.25" fill="rgb(255,0,0)" /><rect x="477.2" y="194" width="7.125" height="71.25" fill="rgb(0,0,255)" /><rect x="484.7" y="194" width="7.125" height="71.25" fill="rgb(0,150,0)" /><rect x="492.2" y="194" width="7.125" height="71.25" fill="rgb(255,0,0)" /><rect x="499.7" y="194" width="7.125" height="71.25" fill="rgb(0,0,255)" /><rect x="507.2" y="194" width="7.125000000000053" height="71.25" fill="rgb(0,150,0)" /><rect x="514.7" y="194" width="7.125" height="71.25" fill="rgb(255,0,0)" /><rect x="522.2" y="194" width="7.125" height="71.25" fill="rgb(0,0,255)" /><rect x="529.7" y="194" width="7.125" height="71.25" fill="rgb(0,150,0)" /><rect x="537.2" y="194" width="7.125" height="71.25" fill="rgb(255,0,0)" /><rect x="544.7" y="194" width="7.125" height="71.25" fill="rgb(255,0,0)" /><rect x="552.2" y="194" width="7.125" height="71.25" fill="rgb(0,0,255)" /><rect x="559.7" y="194" width="7.125" height="71.25" fill="rgb(0,150,0)" /><rect x="567.2" y="194" width="7.125" height="71.25" fill="rgb(255,0,0)" /><rect x="87.19999999999999" y="119" width="7.125" height="71.25" fill="rgb(0,0,255)" /><rect x="94.69999999999999" y="119" width="7.125" height="71.25" fill="rgb(209,113,5)" /><rect x="102.19999999999999" y="119" width="7.125" height="71.25" fill="rgb(209,113,5)" /><rect x="109.69999999999999" y="119" width="7.125" height="71.25" fill="rgb(0,0,255)" /><rect x="117.19999999999999" y="119" width="7.125" height="71.25" fill="rgb(209,113,5)" /><rect x="124.69999999999999" y="119" width="7.125" height="71.25" fill="rgb(0,150,0)" /><rect x="132.2" y="119" width="7.125" height="71.25" fill="rgb(255,0,0)" /><rect x="139.7" y="119" width="7.125" height="71.25" fill="rgb(0,0,255)" /><rect x="147.2" y="119" width="7.125" height="71.25" fill="rgb(0,150,0)" /><rect x="154.7" y="119" width="7.125" height="71.25" fill="rgb(209,113,5)" /><rect x="162.2" y="119" width="7.125" height="71.25" fill="rgb(209,113,5)" /><rect x="169.7" y="119" width="7.125" height="71.25" fill="rgb(0,0,255)" /><rect x="177.2" y="119" width="7.125" height="71.25" fill="rgb(0,0,255)" /><rect x="184.7" y="119" width="7.125" height="71.25" fill="rgb(209,113,5)" /><rect x="192.2" y="119" width="7.125" height="71.25" fill="rgb(0,0,255)" /><rect x="199.7" y="119" width="7.125" height="71.25" fill="rgb(0,150,0)" /><rect x="207.2" y="119" width="7.125" height="71.25" fill="rgb(0,0,255)" /><rect x="214.7" y="119" width="7.125" height="71.25" fill="rgb(255,0,0)" /><rect x="222.2" y="119" width="7.125" height="71.25" fill="rgb(0,0,255)" /><rect x="229.7" y="119" width="7.125" height="71.25" fill="rgb(0,150,0)" /><rect x="237.2" y="119" width="7.125" height="71.25" fill="rgb(255,0,0)" /><rect x="244.7" y="119" width="7.125" height="71.25" fill="rgb(0,0,255)" /><rect x="252.2" y="119" width="7.125" height="71.25" fill="rgb(0,150,0)" /><rect x="259.7" y="119" width="7.125" height="71.25" fill="rgb(255,0,0)" /><rect x="267.2" y="119" width="7.125" height="71.25" fill="rgb(0,0,255)" /><rect x="274.7" y="119" width="7.125" height="71.25" fill="rgb(0,150,0)" /><rect x="282.2" y="119" width="7.125" height="71.25" fill="rgb(255,0,0)" /><rect x="289.7" y="119" width="7.125" height="71.25" fill="rgb(0,0,255)" /><rect x="297.2" y="119" width="7.125" height="71.25" fill="rgb(0,150,0)" /><rect x="304.7" y="119" width="7.125" height="71.25" fill="rgb(255,0,0)" /><rect x="312.2" y="119" width="7.125" height="71.25" fill="rgb(0,0,255)" /><rect x="319.7" y="119" width="7.125" height="71.25" fill="rgb(0,150,0)" /><rect x="327.2" y="119" width="7.125" height="71.25" fill="rgb(255,0,0)" /><rect x="334.7" y="119" width="7.125" height="71.25" fill="rgb(0,0,255)" /><rect x="342.2" y="119" width="7.125" height="71.25" fill="rgb(0,150,0)" /><rect x="349.7" y="119" width="7.125" height="71.25" fill="rgb(255,0,0)" /><rect x="357.2" y="119" width="7.125" height="71.25" fill="rgb(0,0,255)" /><rect x="364.7" y="119" width="7.125" height="71.25" fill="rgb(0,150,0)" /><rect x="372.2" y="119" width="7.125" height="71.25" fill="rgb(255,0,0)" /><rect x="379.7" y="119" width="7.125" height="71.25" fill="rgb(0,0,255)" /><rect x="387.2" y="119" width="7.125" height="71.25" fill="rgb(0,150,0)" /><rect x="394.7" y="119" width="7.125" height="71.25" fill="rgb(255,0,0)" /><rect x="402.2" y="119" width="7.125" height="71.25" fill="rgb(0,0,255)" /><rect x="409.7" y="119" width="7.125" height="71.25" fill="rgb(0,150,0)" /><rect x="417.2" y="119" width="7.125" height="71.25" fill="rgb(255,0,0)" /><rect x="424.7" y="119" width="7.125" height="71.25" fill="rgb(0,0,255)" /><rect x="432.2" y="119" width="7.125" height="71.25" fill="rgb(0,150,0)" /><rect x="439.7" y="119" width="7.125" height="71.25" fill="rgb(255,0,0)" /><rect x="447.2" y="119" width="7.125" height="71.25" fill="rgb(0,0,255)" /><rect x="454.7" y="119" width="7.125" height="71.25" fill="rgb(0,0,255)" /><rect x="462.2" y="119" width="7.125" height="71.25" fill="rgb(0,150,0)" /><rect x="469.7" y="119" width="7.125" height="71.25" fill="rgb(255,0,0)" /><rect x="477.2" y="119" width="7.125" height="71.25" fill="rgb(0,0,255)" /><rect x="484.7" y="119" width="7.125" height="71.25" fill="rgb(0,150,0)" /><rect x="492.2" y="119" width="7.125" height="71.25" fill="rgb(255,0,0)" /><rect x="499.7" y="119" width="7.125" height="71.25" fill="rgb(0,0,255)" /><rect x="507.2" y="119" width="7.125000000000053" height="71.25" fill="rgb(0,150,0)" /><rect x="514.7" y="119" width="7.125" height="71.25" fill="rgb(255,0,0)" /><rect x="522.2" y="119" width="7.125" height="71.25" fill="rgb(0,0,255)" /><rect x="529.7" y="119" width="7.125" height="71.25" fill="rgb(0,150,0)" /><rect x="537.2" y="119" width="7.125" height="71.25" fill="rgb(255,0,0)" /><rect x="544.7" y="119" width="7.125" height="71.25" fill="rgb(255,0,0)" /><rect x="552.2" y="119" width="7.125" height="71.25" fill="rgb(0,0,255)" /><rect x="559.7" y="119" width="7.125" height="71.25" fill="rgb(0,150,0)" /><rect x="567.2" y="119" width="7.125" height="71.25" fill="rgb(255,0,0)" /><rect x="87.19999999999999" y="44" width="7.125" height="71.25" fill="rgb(0,0,255)" /><rect x="94.69999999999999" y="44" width="7.125" height="71.25" fill="rgb(209,113,5)" /><rect x="102.19999999999999" y="44" width="7.125" height="71.25" fill="rgb(209,113,5)" /><rect x="109.69999999999999" y="44" width="7.125" height="71.25" fill="rgb(0,0,255)" /><rect x="117.19999999999999" y="44" width="7.125" height="71.25" fill="rgb(209,113,5)" /><rect x="124.69999999999999" y="44" width="7.125" height="71.25" fill="rgb(0,150,0)" /><rect x="132.2" y="44" width="7.125" height="71.25" fill="rgb(255,0,0)" /><rect x="139.7" y="44" width="7.125" height="71.25" fill="rgb(0,0,255)" /><rect x="147.2" y="44" width="7.125" height="71.25" fill="rgb(0,150,0)" /><rect x="154.7" y="44" width="7.125" height="71.25" fill="rgb(209,113,5)" /><rect x="162.2" y="44" width="7.125" height="71.25" fill="rgb(209,113,5)" /><rect x="169.7" y="44" width="7.125" height="71.25" fill="rgb(0,0,255)" /><rect x="177.2" y="44" width="7.125" height="71.25" fill="rgb(0,0,255)" /><rect x="184.7" y="44" width="7.125" height="71.25" fill="rgb(209,113,5)" /><rect x="192.2" y="44" width="7.125" height="71.25" fill="rgb(0,0,255)" /><rect x="199.7" y="44" width="7.125" height="71.25" fill="rgb(0,150,0)" /><rect x="207.2" y="44" width="7.125" height="71.25" fill="rgb(0,0,255)" /><rect x="214.7" y="44" width="7.125" height="71.25" fill="rgb(255,0,0)" /><rect x="222.2" y="44" width="7.125" height="71.25" fill="rgb(0,0,255)" /><rect x="229.7" y="44" width="7.125" height="71.25" fill="rgb(0,150,0)" /><rect x="237.2" y="44" width="7.125" height="71.25" fill="rgb(255,0,0)" /><rect x="244.7" y="44" width="7.125" height="71.25" fill="rgb(0,0,255)" /><rect x="252.2" y="44" width="7.125" height="71.25" fill="rgb(0,150,0)" /><rect x="259.7" y="44" width="7.125" height="71.25" fill="rgb(255,0,0)" /><rect x="267.2" y="44" width="7.125" height="71.25" fill="rgb(0,0,255)" /><rect x="274.7" y="44" width="7.125" height="71.25" fill="rgb(0,150,0)" /><rect x="282.2" y="44" width="7.125" height="71.25" fill="rgb(255,0,0)" /><rect x="289.7" y="44" width="7.125" height="71.25" fill="rgb(0,0,255)" /><rect x="297.2" y="44" width="7.125" height="71.25" fill="rgb(0,150,0)" /><rect x="304.7" y="44" width="7.125" height="71.25" fill="rgb(255,0,0)" /><rect x="312.2" y="44" width="7.125" height="71.25" fill="rgb(0,0,255)" /><rect x="319.7" y="44" width="7.125" height="71.25" fill="rgb(0,150,0)" /><rect x="327.2" y="44" width="7.125" height="71.25" fill="rgb(255,0,0)" /><rect x="334.7" y="44" width="7.125" height="71.25" fill="rgb(0,0,255)" /><rect x="342.2" y="44" width="7.125" height="71.25" fill="rgb(0,150,0)" /><rect x="349.7" y="44" width="7.125" height="71.25" fill="rgb(255,0,0)" /><rect x="357.2" y="44" width="7.125" height="71.25" fill="rgb(0,0,255)" /><rect x="364.7" y="44" width="7.125" height="71.25" fill="rgb(0,150,0)" /><rect x="372.2" y="44" width="7.125" height="71.25" fill="rgb(255,0,0)" /><rect x="379.7" y="44" width="7.125" height="71.25" fill="rgb(0,0,255)" /><rect x="387.2" y="44" width="7.125" height="71.25" fill="rgb(0,150,0)" /><rect x="394.7" y="44" width="7.125" height="71.25" fill="rgb(255,0,0)" /><rect x="402.2" y="44" width="7.125" height="71.25" fill="rgb(0,0,255)" /><rect x="409.7" y="44" width="7.125" height="71.25" fill="rgb(0,150,0)" /><rect x="417.2" y="44" width="7.125" height="71.25" fill="rgb(255,0,0)" /><rect x="424.7" y="44" width="7.125" height="71.25" fill="rgb(0,0,255)" /><rect x="432.2" y="44" width="7.125" height="71.25" fill="rgb(0,150,0)" /><rect x="439.7" y="44" width="7.125" height="71.25" fill="rgb(255,0,0)" /><rect x="447.2" y="44" width="7.125" height="71.25" fill="rgb(0,0,255)" /><rect x="454.7" y="44" width="7.125" height="71.25" fill="rgb(0,0,255)" /><rect x="462.2" y="44" width="7.125" height="71.25" fill="rgb(0,150,0)" /><rect x="469.7" y="44" width="7.125" height="71.25" fill="rgb(255,0,0)" /><rect x="477.2" y="44" width="7.125" height="71.25" fill="rgb(0,0,255)" /><rect x="484.7" y="44" width="7.125" height="71.25" fill="rgb(0,150,0)" /><rect x="492.2" y="44" width="7.125" height="71.25" fill="rgb(255,0,0)" /><rect x="499.7" y="44" width="7.125" height="71.25" fill="rgb(0,0,255)" /><rect x="507.2" y="44" width="7.125000000000053" height="71.25" fill="rgb(0,150,0)" /><rect x="514.7" y="44" width="7.125" height="71.25" fill="rgb(255,0,0)" /><rect x="522.2" y="44" width="7.125" height="71.25" fill="rgb(0,0,255)" /><rect x="529.7" y="44" width="7.125" height="71.25" fill="rgb(0,150,0)" /><rect x="537.2" y="44" width="7.125" height="71.25" fill="rgb(255,0,0)" /><rect x="544.7" y="44" width="7.125" height="71.25" fill="rgb(0,0,255)" /><rect x="552.2" y="44" width="7.125" height="71.25" fill="rgb(0,150,0)" /><rect x="559.7" y="44" width="7.125" height="71.25" fill="rgb(255,0,0)" /><rect x="567.2" y="44" width="7.125" height="71.25" fill="rgb(0,0,255)" /><rect x="574.7" y="44" width="7.125" height="71.25" fill="rgb(0,150,0)" /><rect x="582.2" y="44" width="7.125" height="71.25" fill="rgb(255,0,0)" /><rect x="589.7" y="44" width="7.125" height="71.25" fill="rgb(0,0,255)" /><rect x="597.2" y="44" width="7.125" height="71.25" fill="rgb(0,150,0)" /><rect x="604.7" y="44" width="7.125" height="71.25" fill="rgb(255,0,0)" /><rect x="677.2" y="34" width="80" height="92" fill="white" /><rect x="677.2" y="34" width="80" height="92" fill="none" stroke="black" stroke-width="1" /><text x="707.2" y="49" font-size="12" text-anchor="start">A</text><rect x="687.2" y="43" width="12" height="12" fill="rgb(0,150,0)" /><text x="707.2" y="67" font-size="12" text-anchor="start">C</text><rect x="687.2" y="61" width="12" height="12" fill="rgb(0,0,255)" /><text x="707.2" y="85" font-size="12" text-anchor="start">G</text><rect x="687.2" y="79" width="12" height="12" fill="rgb(209,113,5)" /><text x="707.2" y="103" font-size="12" text-anchor="start">T</text><rect x="687.2" y="97" width="12" height="12" fill="rgb(255,0,0)" /></svg>