<svg xmlns="http://www.w3.org/2000/svg" width="766.2" height="545" font-family="DejaVu Sans, Liberation Sans, Arial, sans-serif" fill="black"><rect width="100%" height="100%" fill="white" /><line x1="72.19999999999999" y1="494" x2="672.2" y2="494" stroke="black" stroke-width="1" /><line x1="72.19999999999999" y1="44" x2="72.19999999999999" y2="494" stroke="black" stroke-width="1" /><text x="62.19999999999999" y="441.95" font-size="12" text-anchor="end">read_1</text><line x1="67.19999999999999" y1="437.75" x2="72.19999999999999" y2="437.75" stroke="black" stroke-width="1" /><text x="62.19999999999999" y="385.7" font-size="12" text-anchor="end">read_2</text><line x1="67.19999999999999" y1="381.5" x2="72.19999999999999" y2="381.5" stroke="black" stroke-width="1" /><text x="62.19999999999999" y="329.45" font-size="12" text-anchor="end">read_3</text><line x1="67.19999999999999" y1="325.25" x2="72.19999999999999" y2="325.25" stroke="black" stroke-width="1" /><text x="62.19999999999999" y="273.2" font-size="12" text-anchor="end">read_4</text><line x1="67.19999999999999" y1="269" x2="72.19999999999999" y2="269" stroke="black" stroke-width="1" /><text x="62.19999999999999" y="216.95" font-size="12" text-anchor="end">read_5</text><line x1="67.19999999999999" y1="212.75" x2="72.19999999999999" y2="212.75" stroke="black" stroke-width="1" /><text x="62.19999999999999" y="160.7" font-size="12" text-anchor="end">read_6</text><line x1="67.19999999999999" y1="156.5" x2="72.19999999999999" y2="156.5" stroke="black" stroke-width="1" /><text x="62.19999999999999" y="104.45" font-size="12" text-anchor="end">read_7</text><line x1="67.19999999999999" y1="100.25" x2="72.19999999999999" y2="100.25" stroke="black" stroke-width="1" /><text x="62.19999999999999" y="48.2" font-size="12" text-anchor="end">read_8</text><line x1="67.19999999999999" y1="44" x2="72.19999999999999" y2="44" stroke="black" stroke-width="1" /><line x1="72.19999999999999" y1="494" x2="72.19999999999999" y2="499" stroke="black" stroke-width="1" /><text x="72.19999999999999" y="511" font-size="12" text-anchor="middle">0</text><line x1="222.2" y1="494" x2="222.2" y2="499" stroke="black" stroke-width="1" /><text x="222.2" y="511" font-size="12" text-anchor="middle">20</text><line x1="372.2" y1="494" x2="372.2" y2="499" stroke="black" stroke-width="1" /><text x="372.2" y="511" font-size="12" text-anchor="middle">40</text><line x1="522.2" y1="494" x2="522.2" y2="499" stroke="black" stroke-width="1" /><text x="522.2" y="511" font-size="12" text-anchor="middle">60</text><line x1="672.2" y1="494" x2="672.2" y2="499" stroke="black" stroke-width="1" /><text x="672.2" y="511" font-size="12" text-anchor="middle">80</text><text x="383.1" y="22" font-size="18" text-anchor="middle">Brick Plot — Strigar Mode (CAT repeats)</text><rect x="72.19999999999999" y="437.75" width="21.375" height="53.4375" fill="rgb(31,119,180)" /><rect x="94.69999999999999" y="437.75" width="21.375" height="53.4375" fill="rgb(31,119,180)" /><rect x="117.19999999999999" y="437.75" width="21.375" height="53.4375" fill="rgb(31,119,180)" /><rect x="139.7" y="437.75" width="21.375" height="53.4375" fill="rgb(31,119,180)" /><rect x="162.2" y="437.75" width="21.375" height="53.4375" fill="rgb(31,119,180)" /><rect x="184.7" y="437.75" width="21.375" height="53.4375" fill="rgb(31,119,180)" /><rect x="207.2" y="437.75" width="21.375" height="53.4375" fill="rgb(31,119,180)" /><rect x="229.7" y="437.75" width="21.375" height="53.4375" fill="rgb(31,119,180)" /><rect x="252.2" y="437.75" width="21.375" height="53.4375" fill="rgb(31,119,180)" /><rect x="274.7" y="437.75" width="21.375" height="53.4375" fill="rgb(31,119,180)" /><rect x="297.2" y="437.75" width="7.125" height="53.4375" fill="rgb(44,160,44)" /><rect x="304.7" y="437.75" width="21.375" height="53.4375" fill="rgb(31,119,180)" /><rect x="327.2" y="437.75" width="21.375" height="53.4375" fill="rgb(31,119,180)" /><rect x="349.7" y="437.75" width="21.375" height="53.4375" fill="rgb(31,119,180)" /><rect x="372.2" y="437.75" width="21.375" height="53.4375" fill="rgb(31,119,180)" /><rect x="394.7" y="437.75" width="7.125" height="53.4375" fill="rgb(255,127,14)" /><rect x="402.2" y="437.75" width="21.375" height="53.4375" fill="rgb(31,119,180)" /><rect x="72.19999999999999" y="381.5" width="21.375" height="53.4375" fill="rgb(31,119,180)" /><rect x="94.69999999999999" y="381.5" width="21.375" height="53.4375" fill="rgb(31,119,180)" /><rect x="117.19999999999999" y="381.5" width="21.375" height="53.4375" fill="rgb(31,119,180)" /><rect x="139.7" y="381.5" width="21.375" height="53.4375" fill="rgb(31,119,180)" /><rect x="162.2" y="381.5" width="21.375" height="53.4375" fill="rgb(31,119,180)" /><rect x="184.7" y="381.5" width="21.375" height="53.4375" fill="rgb(31,119,180)" /><rect x="207.2" y="381.5" width="21.375" height="53.4375" fill="rgb(31,119,180)" /><rect x="229.7" y="381.5" width="21.375" height="53.4375" fill="rgb(31,119,180)" /><rect x="252.2" y="381.5" width="21.375" height="53.4375" fill="rgb(31,119,180)" /><rect x="274.7" y="381.5" width="21.375" height="53.4375" fill="rgb(31,119,180)" /><rect x="297.2" y="381.5" width="21.375" height="53.4375" fill="rgb(31,119,180)" /><rect x="319.7" y="381.5" width="21.375" height="53.4375" fill="rgb(31,119,180)" /><rect x="342.2" y="381.5" width="21.375" height="53.4375" fill="rgb(31,119,180)" /><rect x="364.7" y="381.5" width="21.375" height="53.4375" fill="rgb(31,119,180)" /><rect x="387.2" y="381.5" width="7.125" height="53.4375" fill="rgb(255,127,14)" /><rect x="394.7" y="381.5" width="21.375" height="53.4375" fill="rgb(31,119,180)" /><rect x="72.19999999999999" y="325.25" width="21.375" height="53.4375" fill="rgb(31,119,180)" /><rect x="94.69999999999999" y="325.25" width="21.375" height="53.4375" fill="rgb(31,119,180)" /><rect x="117.19999999999999" y="325.25" width="21.375" height="53.4375" fill="rgb(31,119,180)" /><rect x="139.7" y="325.25" width="21.375" height="53.4375" fill="rgb(31,119,180)" /><rect x="162.2" y="325.25" width="21.375" height="53.4375" fill="rgb(31,119,180)" /><rect x="184.7" y="325.25" width="21.375" height="53.4375" fill="rgb(31,119,180)" /><rect x="207.2" y="325.25" width="21.375" height="53.4375" fill="rgb(31,119,180)" /><rect x="229.7" y="325.25" width="21.375" height="53.4375" fill="rgb(31,119,180)" /><rect x="252.2" y="325.25" width="21.375" height="53.4375" fill="rgb(31,119,180)" /><rect x="274.7" y="325.25" width="21.375" height="53.4375" fill="rgb(31,119,180)" /><rect x="297.2" y="325.25" width="21.375" height="53.4375" fill="rgb(31,119,180)" /><rect x="319.7" y="325.25" width="21.375" height="53.4375" fill="rgb(31,119,180)" /><rect x="342.2" y="325.25" width="21.375" height="53.4375" fill="rgb(31,119,180)" /><rect x="364.7" y="325.25" width="21.375" height="53.4375" fill="rgb(31,119,180)" /><rect x="387.2" y="325.25" width="7.125" height="53.4375" fill="rgb(255,127,14)" /><rect x="394.7" y="325.25" width="21.375" height="53.4375" fill="rgb(31,119,180)" /><rect x="72.19999999999999" y="269" width="21.375" height="53.4375" fill="rgb(31,119,180)" /><rect x="94.69999999999999" y="269" width="21.375" height="53.4375" fill="rgb(31,119,180)" /><rect x="117.19999999999999" y="269" width="21.375" height="53.4375" fill="rgb(31,119,180)" /><rect x="139.7" y="269" width="21.375" height="53.4375" fill="rgb(31,119,180)" /><rect x="162.2" y="269" width="21.375" height="53.4375" fill="rgb(31,119,180)" /><rect x="184.7" y="269" width="21.375" height="53.4375" fill="rgb(31,119,180)" /><rect x="207.2" y="269" width="21.375" height="53.4375" fill="rgb(31,119,180)" /><rect x="229.7" y="269" width="21.375" height="53.4375" fill="rgb(31,119,180)" /><rect x="252.2" y="269" width="21.375" height="53.4375" fill="rgb(31,119,180)" /><rect x="274.7" y="269" width="21.375" height="53.4375" fill="rgb(31,119,180)" /><rect x="297.2" y="269" width="7.125" height="53.4375" fill="rgb(44,160,44)" /><rect x="304.7" y="269" width="21.375" height="53.4375" fill="rgb(31,119,180)" /><rect x="327.2" y="269" width="21.375" height="53.4375" fill="rgb(31,119,180)" /><rect x="349.7" y="269" width="21.375" height="53.4375" fill="rgb(31,119,180)" /><rect x="372.2" y="269" width="21.375" height="53.4375" fill="rgb(31,119,180)" /><rect x="394.7" y="269" width="7.125" height="53.4375" fill="rgb(255,127,14)" /><rect x="402.2" y="269" width="21.375" height="53.4375" fill="rgb(31,119,180)" /><rect x="72.19999999999999" y="212.75" width="21.375" height="53.4375" fill="rgb(31,119,180)" /><rect x="94.69999999999999" y="212.75" width="21.375" height="53.4375" fill="rgb(31,119,180)" /><rect x="117.19999999999999" y="212.75" width="21.375" height="53.4375" fill="rgb(31,119,180)" /><rect x="139.7" y="212.75" width="21.375" height="53.4375" fill="rgb(31,119,180)" /><rect x="162.2" y="212.75" width="21.375" height="53.4375" fill="rgb(31,119,180)" /><rect x="184.7" y="212.75" width="21.375" height="53.4375" fill="rgb(31,119,180)" /><rect x="207.2" y="212.75" width="21.375" height="53.4375" fill="rgb(31,119,180)" /><rect x="229.7" y="212.75" width="21.375" height="53.4375" fill="rgb(31,119,180)" /><rect x="252.2" y="212.75" width="21.375" height="53.4375" fill="rgb(31,119,180)" /><rect x="274.7" y="212.75" width="21.375" height="53.4375" fill="rgb(31,119,180)" /><rect x="297.2" y="212.75" width="7.125" height="53.4375" fill="rgb(44,160,44)" /><rect x="304.7" y="212.75" width="21.375" height="53.4375" fill="rgb(31,119,180)" /><rect x="327.2" y="212.75" width="21.375" height="53.4375" fill="rgb(31,119,180)" /><rect x="349.7" y="212.75" width="21.375" height="53.4375" fill="rgb(31,119,180)" /><rect x="372.2" y="212.75" width="21.375" height="53.4375" fill="rgb(31,119,180)" /><rect x="394.7" y="212.75" width="7.125" height="53.4375" fill="rgb(255,127,14)" /><rect x="402.2" y="212.75" width="21.375" height="53.4375" fill="rgb(31,119,180)" /><rect x="72.19999999999999" y="156.5" width="21.375" height="53.4375" fill="rgb(31,119,180)" /><rect x="94.69999999999999" y="156.5" width="21.375" height="53.4375" fill="rgb(31,119,180)" /><rect x="117.19999999999999" y="156.5" width="21.375" height="53.4375" fill="rgb(31,119,180)" /><rect x="139.7" y="156.5" width="21.375" height="53.4375" fill="rgb(31,119,180)" /><rect x="162.2" y="156.5" width="21.375" height="53.4375" fill="rgb(31,119,180)" /><rect x="184.7" y="156.5" width="21.375" height="53.4375" fill="rgb(31,119,180)" /><rect x="207.2" y="156.5" width="21.375" height="53.4375" fill="rgb(31,119,180)" /><rect x="229.7" y="156.5" width="21.375" height="53.4375" fill="rgb(31,119,180)" /><rect x="252.2" y="156.5" width="21.375" height="53.4375" fill="rgb(31,119,180)" /><rect x="274.7" y="156.5" width="21.375" height="53.4375" fill="rgb(31,119,180)" /><rect x="297.2" y="156.5" width="7.125" height="53.4375" fill="rgb(44,160,44)" /><rect x="304.7" y="156.5" width="21.375" height="53.4375" fill="rgb(31,119,180)" /><rect x="327.2" y="156.5" width="21.375" height="53.4375" fill="rgb(31,119,180)" /><rect x="349.7" y="156.5" width="21.375" height="53.4375" fill="rgb(31,119,180)" /><rect x="372.2" y="156.5" width="21.375" height="53.4375" fill="rgb(31,119,180)" /><rect x="394.7" y="156.5" width="21.375" height="53.4375" fill="rgb(31,119,180)" /><rect x="417.2" y="156.5" width="21.375" height="53.4375" fill="rgb(31,119,180)" /><rect x="439.7" y="156.5" width="21.375" height="53.4375" fill="rgb(31,119,180)" /><rect x="462.2" y="156.5" width="21.375" height="53.4375" fill="rgb(31,119,180)" /><rect x="484.7" y="156.5" width="21.375" height="53.4375" fill="rgb(214,39,40)" /><rect x="507.2" y="156.5" width="21.375000000000053" height="53.4375" fill="rgb(31,119,180)" /><rect x="529.7" y="156.5" width="21.375" height="53.4375" fill="rgb(31,119,180)" /><rect x="552.2" y="156.5" width="21.375" height="53.4375" fill="rgb(31,119,180)" /><rect x="574.7" y="156.5" width="21.375" height="53.4375" fill="rgb(31,119,180)" /><rect x="597.2" y="156.5" width="21.375" height="53.4375" fill="rgb(31,119,180)" /><rect x="72.19999999999999" y="100.25" width="21.375" height="53.4375" fill="rgb(31,119,180)" /><rect x="94.69999999999999" y="100.25" width="21.375" height="53.4375" fill="rgb(31,119,180)" /><rect x="117.19999999999999" y="100.25" width="21.375" height="53.4375" fill="rgb(31,119,180)" /><rect x="139.7" y="100.25" width="21.375" height="53.4375" fill="rgb(31,119,180)" /><rect x="162.2" y="100.25" width="21.375" height="53.4375" fill="rgb(31,119,180)" /><rect x="184.7" y="100.25" width="21.375" height="53.4375" fill="rgb(31,119,180)" /><rect x="207.2" y="100.25" width="21.375" height="53.4375" fill="rgb(31,119,180)" /><rect x="229.7" y="100.25" width="21.375" height="53.4375" fill="rgb(31,119,180)" /><rect x="252.2" y="100.25" width="21.375" height="53.4375" fill="rgb(31,119,180)" /><rect x="274.7" y="100.25" width="21.375" height="53.4375" fill="rgb(31,119,180)" /><rect x="297.2" y="100.25" width="7.125" height="53.4375" fill="rgb(44,160,44)" /><rect x="304.7" y="100.25" width="21.375" height="53.4375" fill="rgb(31,119,180)" /><rect x="327.2" y="100.25" width="21.375" height="53.4375" fill="rgb(31,119,180)" /><rect x="349.7" y="100.25" width="21.375" height="53.4375" fill="rgb(31,119,180)" /><rect x="372.2" y="100.25" width="21.375" height="53.4375" fill="rgb(31,119,180)" /><rect x="394.7" y="100.25" width="21.375" height="53.4375" fill="rgb(31,119,180)" /><rect x="72.19999999999999" y="44" width="21.375" height="53.4375" fill="rgb(31,119,180)" /><rect x="94.69999999999999" y="44" width="21.375" height="53.4375" fill="rgb(31,119,180)" /><rect x="117.19999999999999" y="44" width="21.375" height="53.4375" fill="rgb(31,119,180)" /><rect x="139.7" y="44" width="21.375" height="53.4375" fill="rgb(31,119,180)" /><rect x="162.2" y="44" width="21.375" height="53.4375" fill="rgb(31,119,180)" /><rect x="184.7" y="44" width="21.375" height="53.4375" fill="rgb(31,119,180)" /><rect x="207.2" y="44" width="21.375" height="53.4375" fill="rgb(31,119,180)" /><rect x="229.7" y="44" width="21.375" height="53.4375" fill="rgb(31,119,180)" /><rect x="252.2" y="44" width="21.375" height="53.4375" fill="rgb(31,119,180)" /><rect x="274.7" y="44" width="21.375" height="53.4375" fill="rgb(31,119,180)" /><rect x="297.2" y="44" width="7.125" height="53.4375" fill="rgb(44,160,44)" /><rect x="304.7" y="44" width="21.375" height="53.4375" fill="rgb(31,119,180)" /><rect x="327.2" y="44" width="21.375" height="53.4375" fill="rgb(31,119,180)" /><rect x="349.7" y="44" width="21.375" height="53.4375" fill="rgb(31,119,180)" /><rect x="372.2" y="44" width="21.375" height="53.4375" fill="rgb(31,119,180)" /><rect x="394.7" y="44" width="7.125" height="53.4375" fill="rgb(255,127,14)" /><rect x="402.2" y="44" width="21.375" height="53.4375" fill="rgb(31,119,180)" /><rect x="677.2" y="34" width="80" height="92" fill="white" /><rect x="677.2" y="34" width="80" height="92" fill="none" stroke="black" stroke-width="1" /><text x="707.2" y="49" font-size="12" text-anchor="start">CAT</text><rect x="687.2" y="43" width="12" height="12" fill="rgb(31,119,180)" /><text x="707.2" y="67" font-size="12" text-anchor="start">T</text><rect x="687.2" y="61" width="12" height="12" fill="rgb(255,127,14)" /><text x="707.2" y="85" font-size="12" text-anchor="start">C</text><rect x="687.2" y="79" width="12" height="12" fill="rgb(44,160,44)" /><text x="707.2" y="103" font-size="12" text-anchor="start">GGT</text><rect x="687.2" y="97" width="12" height="12" fill="rgb(214,39,40)" /></svg>