<svg xmlns="http://www.w3.org/2000/svg" width="686.2" height="545" font-family="DejaVu Sans, Liberation Sans, Arial, sans-serif" fill="black"><rect width="100%" height="100%" fill="white" /><line x1="72.19999999999999" y1="494" x2="672.2" y2="494" stroke="black" stroke-width="1" /><line x1="72.19999999999999" y1="44" x2="72.19999999999999" y2="494" stroke="black" stroke-width="1" /><line x1="72.19999999999999" y1="404" x2="672.2" y2="404" stroke="#ccc" stroke-width="1" /><line x1="72.19999999999999" y1="314" x2="672.2" y2="314" stroke="#ccc" stroke-width="1" /><line x1="72.19999999999999" y1="224" x2="672.2" y2="224" stroke="#ccc" stroke-width="1" /><line x1="72.19999999999999" y1="134" x2="672.2" y2="134" stroke="#ccc" stroke-width="1" /><line x1="72.19999999999999" y1="44" x2="672.2" y2="44" stroke="#ccc" stroke-width="1" /><text x="192.2" y="511" font-size="12" text-anchor="middle">Control</text><line x1="192.2" y1="494" x2="192.2" y2="499" stroke="black" stroke-width="1" /><text x="312.2" y="511" font-size="12" text-anchor="middle">Treatment A</text><line x1="312.2" y1="494" x2="312.2" y2="499" stroke="black" stroke-width="1" /><text x="432.2" y="511" font-size="12" text-anchor="middle">Treatment B</text><line x1="432.2" y1="494" x2="432.2" y2="499" stroke="black" stroke-width="1" /><text x="552.2" y="511" font-size="12" text-anchor="middle">Treatment C</text><line x1="552.2" y1="494" x2="552.2" y2="499" stroke="black" stroke-width="1" /><line x1="67.19999999999999" y1="494" x2="72.19999999999999" y2="494" stroke="black" stroke-width="1" /><text x="64.19999999999999" y="498.2" font-size="12" text-anchor="end">0</text><line x1="67.19999999999999" y1="404" x2="72.19999999999999" y2="404" stroke="black" stroke-width="1" /><text x="64.19999999999999" y="408.2" font-size="12" text-anchor="end">2.5</text><line x1="67.19999999999999" y1="314" x2="72.19999999999999" y2="314" stroke="black" stroke-width="1" /><text x="64.19999999999999" y="318.2" font-size="12" text-anchor="end">5</text><line x1="67.19999999999999" y1="224" x2="72.19999999999999" y2="224" stroke="black" stroke-width="1" /><text x="64.19999999999999" y="228.2" font-size="12" text-anchor="end">7.5</text><line x1="67.19999999999999" y1="134" x2="72.19999999999999" y2="134" stroke="black" stroke-width="1" /><text x="64.19999999999999" y="138.2" font-size="12" text-anchor="end">10</text><line x1="67.19999999999999" y1="44" x2="72.19999999999999" y2="44" stroke="black" stroke-width="1" /><text x="64.19999999999999" y="48.2" font-size="12" text-anchor="end">12.5</text><text x="14" y="272.5" font-size="14" text-anchor="middle" transform="rotate(-90,14,272.5)">Value</text><text x="343.1" y="22" font-size="18" text-anchor="middle">Box Plot</text><rect x="144.2" y="299.5541937213063" width="95.99999999999997" height="42.51608280973011" fill="steelblue" /><line x1="144.2" y1="314.6047518633774" x2="240.19999999999996" y2="314.6047518633774" stroke="white" stroke-width="1.5" /><line x1="192.2" y1="403.61582765850346" x2="192.2" y2="342.0702765310364" stroke="steelblue" stroke-width="1" /><line x1="192.2" y1="299.5541937213063" x2="192.2" y2="244.53024486834337" stroke="steelblue" stroke-width="1" /><line x1="168.2" y1="403.61582765850346" x2="216.2" y2="403.61582765850346" stroke="steelblue" stroke-width="1" /><line x1="168.2" y1="244.53024486834337" x2="216.2" y2="244.53024486834337" stroke="steelblue" stroke-width="1" /><rect x="264.2" y="223.9987387470905" width="96" height="54.23995196013158" fill="steelblue" /><line x1="264.2" y1="257.88424452783596" x2="360.2" y2="257.88424452783596" stroke="white" stroke-width="1.5" /><line x1="312.2" y1="349.6920768427875" x2="312.2" y2="278.2386907072221" stroke="steelblue" stroke-width="1" /><line x1="312.2" y1="223.9987387470905" x2="312.2" y2="144.5473796351381" stroke="steelblue" stroke-width="1" /><line x1="288.2" y1="349.6920768427875" x2="336.20000000000005" y2="349.6920768427875" stroke="steelblue" stroke-width="1" /><line x1="288.2" y1="144.5473796351381" x2="336.20000000000005" y2="144.5473796351381" stroke="steelblue" stroke-width="1" /><rect x="384.2" y="323.1688044302839" width="95.99999999999994" height="50.404803803883965" fill="steelblue" /><line x1="384.2" y1="343.6890030072187" x2="480.19999999999993" y2="343.6890030072187" stroke="white" stroke-width="1.5" /><line x1="432.2" y1="426.8379112699125" x2="432.2" y2="373.57360823416786" stroke="steelblue" stroke-width="1" /><line x1="432.2" y1="323.1688044302839" x2="432.2" y2="283.8516837768894" stroke="steelblue" stroke-width="1" /><line x1="408.19999999999993" y1="426.8379112699125" x2="456.2" y2="426.8379112699125" stroke="steelblue" stroke-width="1" /><line x1="408.19999999999993" y1="283.8516837768894" x2="456.2" y2="283.8516837768894" stroke="steelblue" stroke-width="1" /><rect x="504.2" y="202.67934120027428" width="96.00000000000006" height="73.72899999312995" fill="steelblue" /><line x1="504.2" y1="226.82122644006438" x2="600.2" y2="226.82122644006438" stroke="white" stroke-width="1.5" /><line x1="552.2" y1="343.4510840013579" x2="552.2" y2="276.4083411934042" stroke="steelblue" stroke-width="1" /><line x1="552.2" y1="202.67934120027428" x2="552.2" y2="154.7138962567596" stroke="steelblue" stroke-width="1" /><line x1="528.2" y1="343.4510840013579" x2="576.2" y2="343.4510840013579" stroke="steelblue" stroke-width="1" /><line x1="528.2" y1="154.7138962567596" x2="576.2" y2="154.7138962567596" stroke="steelblue" stroke-width="1" /></svg>