<svg xmlns="http://www.w3.org/2000/svg" width="686.2" height="545" font-family="DejaVu Sans, Liberation Sans, Arial, sans-serif" fill="black"><rect width="100%" height="100%" fill="white" /><line x1="72.19999999999999" y1="494" x2="672.2" y2="494" stroke="black" stroke-width="1" /><line x1="72.19999999999999" y1="44" x2="72.19999999999999" y2="494" stroke="black" stroke-width="1" /><line x1="72.19999999999999" y1="404" x2="672.2" y2="404" stroke="#ccc" stroke-width="1" /><line x1="72.19999999999999" y1="314" x2="672.2" y2="314" stroke="#ccc" stroke-width="1" /><line x1="72.19999999999999" y1="224" x2="672.2" y2="224" stroke="#ccc" stroke-width="1" /><line x1="72.19999999999999" y1="134" x2="672.2" y2="134" stroke="#ccc" stroke-width="1" /><line x1="72.19999999999999" y1="44" x2="672.2" y2="44" stroke="#ccc" stroke-width="1" /><text x="192.2" y="511" font-size="12" text-anchor="middle">Control</text><line x1="192.2" y1="494" x2="192.2" y2="499" stroke="black" stroke-width="1" /><text x="312.2" y="511" font-size="12" text-anchor="middle">Treatment A</text><line x1="312.2" y1="494" x2="312.2" y2="499" stroke="black" stroke-width="1" /><text x="432.2" y="511" font-size="12" text-anchor="middle">Treatment B</text><line x1="432.2" y1="494" x2="432.2" y2="499" stroke="black" stroke-width="1" /><text x="552.2" y="511" font-size="12" text-anchor="middle">Treatment C</text><line x1="552.2" y1="494" x2="552.2" y2="499" stroke="black" stroke-width="1" /><line x1="67.19999999999999" y1="494" x2="72.19999999999999" y2="494" stroke="black" stroke-width="1" /><text x="64.19999999999999" y="498.2" font-size="12" text-anchor="end">0</text><line x1="67.19999999999999" y1="404" x2="72.19999999999999" y2="404" stroke="black" stroke-width="1" /><text x="64.19999999999999" y="408.2" font-size="12" text-anchor="end">2.5</text><line x1="67.19999999999999" y1="314" x2="72.19999999999999" y2="314" stroke="black" stroke-width="1" /><text x="64.19999999999999" y="318.2" font-size="12" text-anchor="end">5</text><line x1="67.19999999999999" y1="224" x2="72.19999999999999" y2="224" stroke="black" stroke-width="1" /><text x="64.19999999999999" y="228.2" font-size="12" text-anchor="end">7.5</text><line x1="67.19999999999999" y1="134" x2="72.19999999999999" y2="134" stroke="black" stroke-width="1" /><text x="64.19999999999999" y="138.2" font-size="12" text-anchor="end">10</text><line x1="67.19999999999999" y1="44" x2="72.19999999999999" y2="44" stroke="black" stroke-width="1" /><text x="64.19999999999999" y="48.2" font-size="12" text-anchor="end">12.5</text><text x="14" y="272.5" font-size="14" text-anchor="middle" transform="rotate(-90,14,272.5)">Value</text><text x="343.1" y="22" font-size="18" text-anchor="middle">Box Plot + Swarm Overlay</text><rect x="144.2" y="299.5541937213063" width="95.99999999999997" height="42.51608280973011" fill="steelblue" /><line x1="144.2" y1="314.6047518633774" x2="240.19999999999996" y2="314.6047518633774" stroke="white" stroke-width="1.5" /><line x1="192.2" y1="403.61582765850346" x2="192.2" y2="342.0702765310364" stroke="steelblue" stroke-width="1" /><line x1="192.2" y1="299.5541937213063" x2="192.2" y2="244.53024486834337" stroke="steelblue" stroke-width="1" /><line x1="168.2" y1="403.61582765850346" x2="216.2" y2="403.61582765850346" stroke="steelblue" stroke-width="1" /><line x1="168.2" y1="244.53024486834337" x2="216.2" y2="244.53024486834337" stroke="steelblue" stroke-width="1" /><rect x="264.2" y="223.9987387470905" width="96" height="54.23995196013158" fill="steelblue" /><line x1="264.2" y1="257.88424452783596" x2="360.2" y2="257.88424452783596" stroke="white" stroke-width="1.5" /><line x1="312.2" y1="349.6920768427875" x2="312.2" y2="278.2386907072221" stroke="steelblue" stroke-width="1" /><line x1="312.2" y1="223.9987387470905" x2="312.2" y2="144.5473796351381" stroke="steelblue" stroke-width="1" /><line x1="288.2" y1="349.6920768427875" x2="336.20000000000005" y2="349.6920768427875" stroke="steelblue" stroke-width="1" /><line x1="288.2" y1="144.5473796351381" x2="336.20000000000005" y2="144.5473796351381" stroke="steelblue" stroke-width="1" /><rect x="384.2" y="323.1688044302839" width="95.99999999999994" height="50.404803803883965" fill="steelblue" /><line x1="384.2" y1="343.6890030072187" x2="480.19999999999993" y2="343.6890030072187" stroke="white" stroke-width="1.5" /><line x1="432.2" y1="426.8379112699125" x2="432.2" y2="373.57360823416786" stroke="steelblue" stroke-width="1" /><line x1="432.2" y1="323.1688044302839" x2="432.2" y2="283.8516837768894" stroke="steelblue" stroke-width="1" /><line x1="408.19999999999993" y1="426.8379112699125" x2="456.2" y2="426.8379112699125" stroke="steelblue" stroke-width="1" /><line x1="408.19999999999993" y1="283.8516837768894" x2="456.2" y2="283.8516837768894" stroke="steelblue" stroke-width="1" /><rect x="504.2" y="202.67934120027428" width="96.00000000000006" height="73.72899999312995" fill="steelblue" /><line x1="504.2" y1="226.82122644006438" x2="600.2" y2="226.82122644006438" stroke="white" stroke-width="1.5" /><line x1="552.2" y1="343.4510840013579" x2="552.2" y2="276.4083411934042" stroke="steelblue" stroke-width="1" /><line x1="552.2" y1="202.67934120027428" x2="552.2" y2="154.7138962567596" stroke="steelblue" stroke-width="1" /><line x1="528.2" y1="343.4510840013579" x2="576.2" y2="343.4510840013579" stroke="steelblue" stroke-width="1" /><line x1="528.2" y1="154.7138962567596" x2="576.2" y2="154.7138962567596" stroke="steelblue" stroke-width="1" /><circle cx="186.2" cy="283.61604990960166" r="3" fill="rgba(0,0,0,0.4)" /><circle cx="192.2" cy="288.23981434169866" r="3" fill="rgba(0,0,0,0.4)" /><circle cx="204.2" cy="382.9713719702753" r="3" fill="rgba(0,0,0,0.4)" /><circle cx="201.2" cy="297.7101270661593" r="3" fill="rgba(0,0,0,0.4)" /><circle cx="204.2" cy="343.3684834416101" r="3" fill="rgba(0,0,0,0.4)" /><circle cx="207.2" cy="301.1002950619744" r="3" fill="rgba(0,0,0,0.4)" /><circle cx="192.2" cy="207.859347069705" r="3" fill="rgba(0,0,0,0.4)" /><circle cx="192.2" cy="309.9858989422738" r="3" fill="rgba(0,0,0,0.4)" /><circle cx="198.2" cy="342.18632047932533" r="3" fill="rgba(0,0,0,0.4)" /><circle cx="186.2" cy="381.64488122188936" r="3" fill="rgba(0,0,0,0.4)" /><circle cx="186.2" cy="255.12638242684417" r="3" fill="rgba(0,0,0,0.4)" /><circle cx="186.2" cy="327.4102466140779" r="3" fill="rgba(0,0,0,0.4)" /><circle cx="186.2" cy="342.2882026677967" r="3" fill="rgba(0,0,0,0.4)" /><circle cx="192.2" cy="328.76383124016496" r="3" fill="rgba(0,0,0,0.4)" /><circle cx="195.2" cy="347.69896455597404" r="3" fill="rgba(0,0,0,0.4)" /><circle cx="192.2" cy="342.0315952149401" r="3" fill="rgba(0,0,0,0.4)" /><circle cx="180.2" cy="308.6230120670726" r="3" fill="rgba(0,0,0,0.4)" /><circle cx="213.2" cy="315.14056021350405" r="3" fill="rgba(0,0,0,0.4)" /><circle cx="198.2" cy="270.0170081665881" r="3" fill="rgba(0,0,0,0.4)" /><circle cx="189.2" cy="294.16524964224806" r="3" fill="rgba(0,0,0,0.4)" /><circle cx="192.2" cy="362.55320058142786" r="3" fill="rgba(0,0,0,0.4)" /><circle cx="192.2" cy="252.7495982326112" r="3" fill="rgba(0,0,0,0.4)" /><circle cx="204.2" cy="331.21657208507327" r="3" fill="rgba(0,0,0,0.4)" /><circle cx="189.2" cy="322.0596033292419" r="3" fill="rgba(0,0,0,0.4)" /><circle cx="180.2" cy="345.74905564876644" r="3" fill="rgba(0,0,0,0.4)" /><circle cx="177.2" cy="301.8239644866111" r="3" fill="rgba(0,0,0,0.4)" /><circle cx="201.2" cy="352.3865292658737" r="3" fill="rgba(0,0,0,0.4)" /><circle cx="192.2" cy="264.90553838003956" r="3" fill="rgba(0,0,0,0.4)" /><circle cx="207.2" cy="310.09741199277244" r="3" fill="rgba(0,0,0,0.4)" /><circle cx="192.2" cy="278.8113456957507" r="3" fill="rgba(0,0,0,0.4)" /><circle cx="186.2" cy="305.7950521845961" r="3" fill="rgba(0,0,0,0.4)" /><circle cx="201.2" cy="305.01579277252233" r="3" fill="rgba(0,0,0,0.4)" /><circle cx="186.2" cy="313.15594248477635" r="3" fill="rgba(0,0,0,0.4)" /><circle cx="198.2" cy="311.0914204195262" r="3" fill="rgba(0,0,0,0.4)" /><circle cx="192.2" cy="244.53024486834337" r="3" fill="rgba(0,0,0,0.4)" /><circle cx="192.2" cy="334.8748770353384" r="3" fill="rgba(0,0,0,0.4)" /><circle cx="195.2" cy="323.4699314527678" r="3" fill="rgba(0,0,0,0.4)" /><circle cx="213.2" cy="301.9706547648835" r="3" fill="rgba(0,0,0,0.4)" /><circle cx="195.2" cy="297.55608007174135" r="3" fill="rgba(0,0,0,0.4)" /><circle cx="198.2" cy="290.3946580506116" r="3" fill="rgba(0,0,0,0.4)" /><circle cx="192.2" cy="316.14359806340156" r="3" fill="rgba(0,0,0,0.4)" /><circle cx="177.2" cy="314.0689435132507" r="3" fill="rgba(0,0,0,0.4)" /><circle cx="204.2" cy="319.47833374761206" r="3" fill="rgba(0,0,0,0.4)" /><circle cx="198.2" cy="252.86923533954615" r="3" fill="rgba(0,0,0,0.4)" /><circle cx="171.2" cy="306.33600675029993" r="3" fill="rgba(0,0,0,0.4)" /><circle cx="189.2" cy="300.16888260635534" r="3" fill="rgba(0,0,0,0.4)" /><circle cx="183.2" cy="300.5116433620659" r="3" fill="rgba(0,0,0,0.4)" /><circle cx="198.2" cy="328.87730610166" r="3" fill="rgba(0,0,0,0.4)" /><circle cx="192.2" cy="377.2910829654787" r="3" fill="rgba(0,0,0,0.4)" /><circle cx="192.2" cy="403.61582765850346" r="3" fill="rgba(0,0,0,0.4)" /><circle cx="198.2" cy="280.86362704458213" r="3" fill="rgba(0,0,0,0.4)" /><circle cx="195.2" cy="303.799124096478" r="3" fill="rgba(0,0,0,0.4)" /><circle cx="198.2" cy="317.88880499244704" r="3" fill="rgba(0,0,0,0.4)" /><circle cx="198.2" cy="379.359070544648" r="3" fill="rgba(0,0,0,0.4)" /><circle cx="183.2" cy="318.89686201813237" r="3" fill="rgba(0,0,0,0.4)" /><circle cx="171.2" cy="315.272075675731" r="3" fill="rgba(0,0,0,0.4)" /><circle cx="189.2" cy="348.1655408555424" r="3" fill="rgba(0,0,0,0.4)" /><circle cx="210.2" cy="346.0535710017116" r="3" fill="rgba(0,0,0,0.4)" /><circle cx="177.2" cy="320.3011762557693" r="3" fill="rgba(0,0,0,0.4)" /><circle cx="174.2" cy="346.49172997685207" r="3" fill="rgba(0,0,0,0.4)" /><circle cx="306.2" cy="208.21741548839555" r="3" fill="rgba(0,0,0,0.4)" /><circle cx="318.2" cy="256.6766322338956" r="3" fill="rgba(0,0,0,0.4)" /><circle cx="309.2" cy="246.99171503171354" r="3" fill="rgba(0,0,0,0.4)" /><circle cx="306.2" cy="289.0779734509231" r="3" fill="rgba(0,0,0,0.4)" /><circle cx="324.2" cy="260.39919147162385" r="3" fill="rgba(0,0,0,0.4)" /><circle cx="306.2" cy="200.58824436294816" r="3" fill="rgba(0,0,0,0.4)" /><circle cx="306.2" cy="278.0000993647858" r="3" fill="rgba(0,0,0,0.4)" /><circle cx="318.2" cy="206.88273671315216" r="3" fill="rgba(0,0,0,0.4)" /><circle cx="306.2" cy="264.49024775290945" r="3" fill="rgba(0,0,0,0.4)" /><circle cx="318.2" cy="199.1397148644375" r="3" fill="rgba(0,0,0,0.4)" /><circle cx="303.2" cy="259.09185682177633" r="3" fill="rgba(0,0,0,0.4)" /><circle cx="318.2" cy="246.14407524421276" r="3" fill="rgba(0,0,0,0.4)" /><circle cx="318.2" cy="230.08076402200675" r="3" fill="rgba(0,0,0,0.4)" /><circle cx="312.2" cy="228.42351132981406" r="3" fill="rgba(0,0,0,0.4)" /><circle cx="312.2" cy="187.77131269523818" r="3" fill="rgba(0,0,0,0.4)" /><circle cx="300.2" cy="265.442456549657" r="3" fill="rgba(0,0,0,0.4)" /><circle cx="324.2" cy="249.434911337237" r="3" fill="rgba(0,0,0,0.4)" /><circle cx="324.2" cy="274.9190666037192" r="3" fill="rgba(0,0,0,0.4)" /><circle cx="324.2" cy="289.54463753629386" r="3" fill="rgba(0,0,0,0.4)" /><circle cx="306.2" cy="314.1231327747407" r="3" fill="rgba(0,0,0,0.4)" /><circle cx="315.2" cy="251.43059321386224" r="3" fill="rgba(0,0,0,0.4)" /><circle cx="297.2" cy="250.8887121311058" r="3" fill="rgba(0,0,0,0.4)" /><circle cx="303.2" cy="248.56665473244382" r="3" fill="rgba(0,0,0,0.4)" /><circle cx="312.2" cy="144.5473796351381" r="3" fill="rgba(0,0,0,0.4)" /><circle cx="318.2" cy="314.5737106458143" r="3" fill="rgba(0,0,0,0.4)" /><circle cx="318.2" cy="269.7562819077559" r="3" fill="rgba(0,0,0,0.4)" /><circle cx="318.2" cy="291.9406727930222" r="3" fill="rgba(0,0,0,0.4)" /><circle cx="312.2" cy="325.29881518099273" r="3" fill="rgba(0,0,0,0.4)" /><circle cx="330.2" cy="275.9804354479352" r="3" fill="rgba(0,0,0,0.4)" /><circle cx="300.2" cy="209.50255532910768" r="3" fill="rgba(0,0,0,0.4)" /><circle cx="318.2" cy="275.9565260821985" r="3" fill="rgba(0,0,0,0.4)" /><circle cx="318.2" cy="262.99457168322795" r="3" fill="rgba(0,0,0,0.4)" /><circle cx="330.2" cy="251.74557256074928" r="3" fill="rgba(0,0,0,0.4)" /><circle cx="312.2" cy="216.7712941372303" r="3" fill="rgba(0,0,0,0.4)" /><circle cx="312.2" cy="303.65066069670115" r="3" fill="rgba(0,0,0,0.4)" /><circle cx="330.2" cy="212.02388273642538" r="3" fill="rgba(0,0,0,0.4)" /><circle cx="324.2" cy="208.56806175493807" r="3" fill="rgba(0,0,0,0.4)" /><circle cx="312.2" cy="313.98999677732456" r="3" fill="rgba(0,0,0,0.4)" /><circle cx="324.2" cy="233.8179706242849" r="3" fill="rgba(0,0,0,0.4)" /><circle cx="312.2" cy="296.70453570692683" r="3" fill="rgba(0,0,0,0.4)" /><circle cx="309.2" cy="255.49101217203366" r="3" fill="rgba(0,0,0,0.4)" /><circle cx="318.2" cy="284.4178062380556" r="3" fill="rgba(0,0,0,0.4)" /><circle cx="312.2" cy="349.6920768427875" r="3" fill="rgba(0,0,0,0.4)" /><circle cx="312.2" cy="198.11582548815335" r="3" fill="rgba(0,0,0,0.4)" /><circle cx="312.2" cy="267.7873867142773" r="3" fill="rgba(0,0,0,0.4)" /><circle cx="309.2" cy="222.34921931968478" r="3" fill="rgba(0,0,0,0.4)" /><circle cx="312.2" cy="288.9013683681477" r="3" fill="rgba(0,0,0,0.4)" /><circle cx="312.2" cy="261.6751175869189" r="3" fill="rgba(0,0,0,0.4)" /><circle cx="312.2" cy="206.1475000805467" r="3" fill="rgba(0,0,0,0.4)" /><circle cx="306.2" cy="270.84182689930503" r="3" fill="rgba(0,0,0,0.4)" /><circle cx="318.2" cy="192.6936685238441" r="3" fill="rgba(0,0,0,0.4)" /><circle cx="294.2" cy="278.9544647345309" r="3" fill="rgba(0,0,0,0.4)" /><circle cx="318.2" cy="308.1326382721161" r="3" fill="rgba(0,0,0,0.4)" /><circle cx="312.2" cy="281.97307659924127" r="3" fill="rgba(0,0,0,0.4)" /><circle cx="306.2" cy="231.95203710643278" r="3" fill="rgba(0,0,0,0.4)" /><circle cx="300.2" cy="275.3328774234402" r="3" fill="rgba(0,0,0,0.4)" /><circle cx="318.2" cy="220.20477105967518" r="3" fill="rgba(0,0,0,0.4)" /><circle cx="303.2" cy="224.54857855622572" r="3" fill="rgba(0,0,0,0.4)" /><circle cx="312.2" cy="274.6101119473009" r="3" fill="rgba(0,0,0,0.4)" /><circle cx="312.2" cy="241.44150995091042" r="3" fill="rgba(0,0,0,0.4)" /><circle cx="432.2" cy="408.84100187850595" r="3" fill="rgba(0,0,0,0.4)" /><circle cx="435.2" cy="320.3901736627191" r="3" fill="rgba(0,0,0,0.4)" /><circle cx="432.2" cy="311.23184157335" r="3" fill="rgba(0,0,0,0.4)" /><circle cx="438.2" cy="295.57074080995363" r="3" fill="rgba(0,0,0,0.4)" /><circle cx="435.2" cy="326.6031243394235" r="3" fill="rgba(0,0,0,0.4)" /><circle cx="426.2" cy="385.1541049004861" r="3" fill="rgba(0,0,0,0.4)" /><circle cx="444.2" cy="386.18308138689486" r="3" fill="rgba(0,0,0,0.4)" /><circle cx="441.2" cy="331.656820125476" r="3" fill="rgba(0,0,0,0.4)" /><circle cx="435.2" cy="334.45203549352124" r="3" fill="rgba(0,0,0,0.4)" /><circle cx="432.2" cy="426.8379112699125" r="3" fill="rgba(0,0,0,0.4)" /><circle cx="453.2" cy="337.4269457157225" r="3" fill="rgba(0,0,0,0.4)" /><circle cx="432.2" cy="367.7420925923453" r="3" fill="rgba(0,0,0,0.4)" /><circle cx="432.2" cy="349.16029090107895" r="3" fill="rgba(0,0,0,0.4)" /><circle cx="420.2" cy="345.1044602220538" r="3" fill="rgba(0,0,0,0.4)" /><circle cx="444.2" cy="373.4165647164574" r="3" fill="rgba(0,0,0,0.4)" /><circle cx="438.2" cy="343.07940095759295" r="3" fill="rgba(0,0,0,0.4)" /><circle cx="432.2" cy="399.99596017736536" r="3" fill="rgba(0,0,0,0.4)" /><circle cx="429.2" cy="317.20719948657006" r="3" fill="rgba(0,0,0,0.4)" /><circle cx="420.2" cy="323.51309237434964" r="3" fill="rgba(0,0,0,0.4)" /><circle cx="417.2" cy="336.3499056151752" r="3" fill="rgba(0,0,0,0.4)" /><circle cx="438.2" cy="369.1089444097696" r="3" fill="rgba(0,0,0,0.4)" /><circle cx="420.2" cy="360.3730249147833" r="3" fill="rgba(0,0,0,0.4)" /><circle cx="450.2" cy="376.90547662497676" r="3" fill="rgba(0,0,0,0.4)" /><circle cx="438.2" cy="403.40687334201164" r="3" fill="rgba(0,0,0,0.4)" /><circle cx="432.2" cy="283.8516837768894" r="3" fill="rgba(0,0,0,0.4)" /><circle cx="447.2" cy="335.9147211226277" r="3" fill="rgba(0,0,0,0.4)" /><circle cx="432.2" cy="295.1653985360782" r="3" fill="rgba(0,0,0,0.4)" /><circle cx="438.2" cy="313.5980066236877" r="3" fill="rgba(0,0,0,0.4)" /><circle cx="426.2" cy="358.28333192011144" r="3" fill="rgba(0,0,0,0.4)" /><circle cx="426.2" cy="371.2645301536599" r="3" fill="rgba(0,0,0,0.4)" /><circle cx="432.2" cy="245.13014212440714" r="3" fill="rgba(0,0,0,0.4)" /><circle cx="444.2" cy="358.5430439522046" r="3" fill="rgba(0,0,0,0.4)" /><circle cx="426.2" cy="309.6547279047627" r="3" fill="rgba(0,0,0,0.4)" /><circle cx="450.2" cy="360.398602433954" r="3" fill="rgba(0,0,0,0.4)" /><circle cx="432.2" cy="305.07157213317083" r="3" fill="rgba(0,0,0,0.4)" /><circle cx="432.2" cy="388.5290726327208" r="3" fill="rgba(0,0,0,0.4)" /><circle cx="438.2" cy="358.17633927449907" r="3" fill="rgba(0,0,0,0.4)" /><circle cx="432.2" cy="374.0447387872995" r="3" fill="rgba(0,0,0,0.4)" /><circle cx="414.2" cy="362.10675577457596" r="3" fill="rgba(0,0,0,0.4)" /><circle cx="438.2" cy="284.3963160588888" r="3" fill="rgba(0,0,0,0.4)" /><circle cx="432.2" cy="342.2445469618782" r="3" fill="rgba(0,0,0,0.4)" /><circle cx="444.2" cy="344.2443942262536" r="3" fill="rgba(0,0,0,0.4)" /><circle cx="438.2" cy="391.0120341523974" r="3" fill="rgba(0,0,0,0.4)" /><circle cx="426.2" cy="343.13361178818377" r="3" fill="rgba(0,0,0,0.4)" /><circle cx="429.2" cy="331.5895420909404" r="3" fill="rgba(0,0,0,0.4)" /><circle cx="447.2" cy="325.0959577711957" r="3" fill="rgba(0,0,0,0.4)" /><circle cx="438.2" cy="307.1313386940907" r="3" fill="rgba(0,0,0,0.4)" /><circle cx="441.2" cy="322.13985449243233" r="3" fill="rgba(0,0,0,0.4)" /><circle cx="423.2" cy="334.7128054826558" r="3" fill="rgba(0,0,0,0.4)" /><circle cx="438.2" cy="382.66771419638667" r="3" fill="rgba(0,0,0,0.4)" /><circle cx="426.2" cy="298.4591407486374" r="3" fill="rgba(0,0,0,0.4)" /><circle cx="429.2" cy="323.51178774290116" r="3" fill="rgba(0,0,0,0.4)" /><circle cx="438.2" cy="376.5343982293663" r="3" fill="rgba(0,0,0,0.4)" /><circle cx="432.2" cy="380.7335298469095" r="3" fill="rgba(0,0,0,0.4)" /><circle cx="426.2" cy="392.7447053101108" r="3" fill="rgba(0,0,0,0.4)" /><circle cx="420.2" cy="374.4196701375889" r="3" fill="rgba(0,0,0,0.4)" /><circle cx="432.2" cy="357.155079977593" r="3" fill="rgba(0,0,0,0.4)" /><circle cx="423.2" cy="318.1295052463308" r="3" fill="rgba(0,0,0,0.4)" /><circle cx="450.2" cy="345.9003256694248" r="3" fill="rgba(0,0,0,0.4)" /><circle cx="414.2" cy="325.91839853065284" r="3" fill="rgba(0,0,0,0.4)" /><circle cx="558.2" cy="196.16563186271605" r="3" fill="rgba(0,0,0,0.4)" /><circle cx="564.2" cy="213.80243065880586" r="3" fill="rgba(0,0,0,0.4)" /><circle cx="558.2" cy="343.4510840013579" r="3" fill="rgba(0,0,0,0.4)" /><circle cx="534.2" cy="201.6516045602189" r="3" fill="rgba(0,0,0,0.4)" /><circle cx="543.2" cy="294.32368761677213" r="3" fill="rgba(0,0,0,0.4)" /><circle cx="546.2" cy="186.78264202055254" r="3" fill="rgba(0,0,0,0.4)" /><circle cx="570.2" cy="224.17387388892757" r="3" fill="rgba(0,0,0,0.4)" /><circle cx="540.2" cy="198.04139544706658" r="3" fill="rgba(0,0,0,0.4)" /><circle cx="546.2" cy="248.14715231215732" r="3" fill="rgba(0,0,0,0.4)" /><circle cx="546.2" cy="282.40518356732326" r="3" fill="rgba(0,0,0,0.4)" /><circle cx="558.2" cy="293.0864986895009" r="3" fill="rgba(0,0,0,0.4)" /><circle cx="570.2" cy="198.4294816029082" r="3" fill="rgba(0,0,0,0.4)" /><circle cx="558.2" cy="209.31889004918708" r="3" fill="rgba(0,0,0,0.4)" /><circle cx="558.2" cy="219.88643345078043" r="3" fill="rgba(0,0,0,0.4)" /><circle cx="552.2" cy="342.7304221874924" r="3" fill="rgba(0,0,0,0.4)" /><circle cx="552.2" cy="219.0226234536483" r="3" fill="rgba(0,0,0,0.4)" /><circle cx="546.2" cy="302.8201421431281" r="3" fill="rgba(0,0,0,0.4)" /><circle cx="552.2" cy="208.60088135314618" r="3" fill="rgba(0,0,0,0.4)" /><circle cx="558.2" cy="227.23578539983595" r="3" fill="rgba(0,0,0,0.4)" /><circle cx="564.2" cy="220.9032282556123" r="3" fill="rgba(0,0,0,0.4)" /><circle cx="552.2" cy="243.20088713335366" r="3" fill="rgba(0,0,0,0.4)" /><circle cx="558.2" cy="246.97913126799983" r="3" fill="rgba(0,0,0,0.4)" /><circle cx="552.2" cy="255.3662947266348" r="3" fill="rgba(0,0,0,0.4)" /><circle cx="558.2" cy="235.12494852931906" r="3" fill="rgba(0,0,0,0.4)" /><circle cx="546.2" cy="203.21332230080475" r="3" fill="rgba(0,0,0,0.4)" /><circle cx="552.2" cy="275.44898129895194" r="3" fill="rgba(0,0,0,0.4)" /><circle cx="546.2" cy="220.04513940201878" r="3" fill="rgba(0,0,0,0.4)" /><circle cx="552.2" cy="194.35479295787093" r="3" fill="rgba(0,0,0,0.4)" /><circle cx="546.2" cy="229.35502846413203" r="3" fill="rgba(0,0,0,0.4)" /><circle cx="546.2" cy="196.31724413191364" r="3" fill="rgba(0,0,0,0.4)" /><circle cx="552.2" cy="161.79537502907704" r="3" fill="rgba(0,0,0,0.4)" /><circle cx="552.2" cy="181.75857646464067" r="3" fill="rgba(0,0,0,0.4)" /><circle cx="546.2" cy="238.11026906103223" r="3" fill="rgba(0,0,0,0.4)" /><circle cx="549.2" cy="290.1090871400129" r="3" fill="rgba(0,0,0,0.4)" /><circle cx="552.2" cy="226.4066674802928" r="3" fill="rgba(0,0,0,0.4)" /><circle cx="546.2" cy="265.25770244626153" r="3" fill="rgba(0,0,0,0.4)" /><circle cx="552.2" cy="154.7138962567596" r="3" fill="rgba(0,0,0,0.4)" /><circle cx="564.2" cy="294.5583176729407" r="3" fill="rgba(0,0,0,0.4)" /><circle cx="552.2" cy="282.18637721037953" r="3" fill="rgba(0,0,0,0.4)" /><circle cx="552.2" cy="233.3740427534131" r="3" fill="rgba(0,0,0,0.4)" /><circle cx="558.2" cy="203.02192008029283" r="3" fill="rgba(0,0,0,0.4)" /><circle cx="558.2" cy="264.69212798510233" r="3" fill="rgba(0,0,0,0.4)" /><circle cx="540.2" cy="205.3753880220478" r="3" fill="rgba(0,0,0,0.4)" /><circle cx="558.2" cy="279.2864208767611" r="3" fill="rgba(0,0,0,0.4)" /><circle cx="540.2" cy="221.4520439970221" r="3" fill="rgba(0,0,0,0.4)" /><circle cx="564.2" cy="187.4468076687836" r="3" fill="rgba(0,0,0,0.4)" /><circle cx="555.2" cy="287.55756925695107" r="3" fill="rgba(0,0,0,0.4)" /><circle cx="564.2" cy="265.7918785338328" r="3" fill="rgba(0,0,0,0.4)" /><circle cx="558.2" cy="300.51769374148853" r="3" fill="rgba(0,0,0,0.4)" /><circle cx="552.2" cy="299.6239254317332" r="3" fill="rgba(0,0,0,0.4)" /><circle cx="564.2" cy="238.35424035794216" r="3" fill="rgba(0,0,0,0.4)" /><circle cx="552.2" cy="261.68048196914253" r="3" fill="rgba(0,0,0,0.4)" /><circle cx="552.2" cy="201.26492897158863" r="3" fill="rgba(0,0,0,0.4)" /><circle cx="546.2" cy="209.57765800528836" r="3" fill="rgba(0,0,0,0.4)" /><circle cx="564.2" cy="205.12415152448852" r="3" fill="rgba(0,0,0,0.4)" /><circle cx="552.2" cy="311.78992264469457" r="3" fill="rgba(0,0,0,0.4)" /><circle cx="558.2" cy="186.6983374171756" r="3" fill="rgba(0,0,0,0.4)" /><circle cx="564.2" cy="197.70647264818996" r="3" fill="rgba(0,0,0,0.4)" /><circle cx="552.2" cy="174.01495754801817" r="3" fill="rgba(0,0,0,0.4)" /><circle cx="564.2" cy="304.51893492009845" r="3" fill="rgba(0,0,0,0.4)" /></svg>