<svg xmlns="http://www.w3.org/2000/svg" width="686.2" height="545" font-family="DejaVu Sans, Liberation Sans, Arial, sans-serif" fill="black"><rect width="100%" height="100%" fill="white" /><line x1="72.19999999999999" y1="494" x2="672.2" y2="494" stroke="black" stroke-width="1" /><line x1="72.19999999999999" y1="44" x2="72.19999999999999" y2="494" stroke="black" stroke-width="1" /><line x1="72.19999999999999" y1="381.5" x2="672.2" y2="381.5" stroke="#ccc" stroke-width="1" /><line x1="72.19999999999999" y1="269" x2="672.2" y2="269" stroke="#ccc" stroke-width="1" /><line x1="72.19999999999999" y1="156.5" x2="672.2" y2="156.5" stroke="#ccc" stroke-width="1" /><line x1="72.19999999999999" y1="44" x2="672.2" y2="44" stroke="#ccc" stroke-width="1" /><text x="372.19999999999993" y="511" font-size="12" text-anchor="middle"></text><line x1="372.19999999999993" y1="494" x2="372.19999999999993" y2="499" stroke="black" stroke-width="1" /><line x1="67.19999999999999" y1="494" x2="72.19999999999999" y2="494" stroke="black" stroke-width="1" /><text x="64.19999999999999" y="498.2" font-size="12" text-anchor="end">-10</text><line x1="67.19999999999999" y1="381.5" x2="72.19999999999999" y2="381.5" stroke="black" stroke-width="1" /><text x="64.19999999999999" y="385.7" font-size="12" text-anchor="end">-5</text><line x1="67.19999999999999" y1="269" x2="72.19999999999999" y2="269" stroke="black" stroke-width="1" /><text x="64.19999999999999" y="273.2" font-size="12" text-anchor="end">0</text><line x1="67.19999999999999" y1="156.5" x2="72.19999999999999" y2="156.5" stroke="black" stroke-width="1" /><text x="64.19999999999999" y="160.7" font-size="12" text-anchor="end">5</text><line x1="67.19999999999999" y1="44" x2="72.19999999999999" y2="44" stroke="black" stroke-width="1" /><text x="64.19999999999999" y="48.2" font-size="12" text-anchor="end">10</text><text x="343.1" y="22" font-size="18" text-anchor="middle">Wide (h = 2.0)</text><path d="M 372.18771123647684 462.06340934495415 L 372.1853043964341 460.1378088036289 L 372.18280629205924 458.21220826230365 L 372.1795058098452 456.28660772097845 L 372.1758687518243 454.3610071796532 L 372.1717391312366 452.435406638328 L 372.1670515824894 450.50980609700275 L 372.16181949709136 448.5842055556775 L 372.1555860547301 446.65860501435225 L 372.14859977489454 444.733004473027 L 372.1407366567721 442.80740393170174 L 372.13172949546885 440.8818033903765 L 372.1214573709596 438.95620284905124 L 372.10992086828276 437.030602307726 L 372.0969293006788 435.10500176640073 L 372.0820812638455 433.17940122507554 L 372.06541601974146 431.2538006837503 L 372.0466354133014 429.32820014242503 L 372.02567616690055 427.4025996010998 L 372.00256689181106 425.4769990597746 L 371.9767034234515 423.55139851844933 L 371.9478945382846 421.6257979771241 L 371.91561479978685 419.7001974357988 L 371.8799186702823 417.7745968944736 L 371.84022623023714 415.8489963531483 L 371.79640943284323 413.92339581182307 L 371.7479166221741 411.9977952704978 L 371.6943751795284 410.0721947291726 L 371.6352908444643 408.14659418784737 L 371.5703580110977 406.2209936465221 L 371.4989961289089 404.29539310519687 L 371.4206661923543 402.3697925638716 L 371.33504054334657 400.4441920225464 L 371.24151831807654 398.51859148122116 L 371.13946544690486 396.5929909398959 L 371.02838368634025 394.66739039857066 L 370.90755998720795 392.7417898572454 L 370.7765346266732 390.81618931592016 L 370.63461427551056 388.8905887745949 L 370.4811642947467 386.9649882332697 L 370.3155419376074 385.03938769194446 L 370.13709957047206 383.1137871506192 L 369.9451882402956 381.188186609294 L 369.7391615882148 379.26258606796875 L 369.5183801052984 377.3369855266435 L 369.2822157223482 375.41138498531825 L 369.0300567213383 373.485784443993 L 368.7613129515176 371.56018390266775 L 368.475421328458 369.6345833613425 L 368.17185158943107 367.70898282001724 L 367.85011227351504 365.783382278692 L 367.50975688981936 363.8577817373668 L 367.1503902322358 361.9321811960415 L 366.7716747942551 360.0065806547163 L 366.37333723269813 358.08098011339104 L 365.9551748247811 356.15537957206584 L 365.51706185884257 354.2297790307406 L 365.05895589539045 352.30417848941534 L 364.5809038319564 350.3785779480901 L 364.0830477026538 348.45297740676483 L 363.5656301414015 346.5273768654396 L 363.0289994365651 344.6017763241143 L 362.4736141043514 342.6761757827891 L 361.9000469087249 340.7505752414638 L 361.30898825694493 338.8249747001386 L 360.70124890209115 336.8993741588133 L 360.07776188717884 334.9737736174882 L 359.439583669675 333.04817307616287 L 358.78789437041763 331.1225725348377 L 358.12399709709626 329.1969719935124 L 357.4493162995429 327.27137145218717 L 356.76539512206654 325.3457709108619 L 356.0738917268775 323.42017036953666 L 355.37657457221786 321.4945698282114 L 354.6753166390465 319.56896928688616 L 353.9720886109207 317.64336874556096 L 353.2689510229453 315.71776820423565 L 352.56804540720276 313.7921676629104 L 351.8715844737841 311.8665671215852 L 351.1818413782644 309.94096658026 L 350.50113813805183 308.0153660389347 L 349.83183327132247 306.0897654976095 L 349.1763087430701 304.16416495628425 L 348.5369563129947 302.238564414959 L 347.9161633893563 300.31296387363375 L 347.31629850138825 298.3873633323085 L 346.73969651024623 296.46176279098324 L 346.1886436846348 294.536162249658 L 345.66536277208365 292.6105617083328 L 345.17199820023734 290.6849611670075 L 344.7106015443929 288.75936062568235 L 344.2831173978023 286.83376008435704 L 343.89136977991495 284.90815954303184 L 343.5370492147452 282.9825590017066 L 343.2217006069218 281.05695846038134 L 342.9467120367384 279.1313579190561 L 342.71330458773167 277.20575737773083 L 342.52252331104654 275.2801568364056 L 342.3752294202096 273.35455629508033 L 342.27209379804384 271.4289557537551 L 342.2135918844686 269.5033552124298 L 342.19999999999993 267.5777546711046 L 342.2313931450767 265.6521541297794 L 342.3076443000803 263.7265535884542 L 342.42842523529004 261.8009530471289 L 342.59320882423555 259.8753525058036 L 342.8012728381781 257.94975196447837 L 343.0517051839885 256.02415142315317 L 343.34341053270373 254.09855088182795 L 343.6751182717268 252.17295034050267 L 344.0453917001879 250.2473497991774 L 344.45263837457776 248.3217492578522 L 344.8951215005613 246.39614871652694 L 345.37097225702286 244.4705481752017 L 345.8782029299984 242.54494763387646 L 346.4147207273224 240.6193470925512 L 346.97834213962136 238.69374655122598 L 347.5668077097726 236.76814600990076 L 348.1777970711416 234.84254546857545 L 348.8089441148022 232.91694492725026 L 349.4578521475093 230.991344385925 L 350.1221089053713 229.0657438445998 L 350.79930129289323 227.1401433032745 L 351.48702972321666 225.21454276194925 L 352.18292194286926 223.288942220624 L 352.8846462330062 221.3633416792988 L 353.5899238888338 219.43774113797355 L 354.296540889496 217.5121405966483 L 355.00235868199763 215.58654005532304 L 355.70532401457365 213.6609395139978 L 356.4034777670986 211.7353389726726 L 357.0949627385059 209.80973843134728 L 357.7780303635634 207.8841378900221 L 358.4510463435779 205.95853734869684 L 359.1124951875078 204.03293680737164 L 359.7609836714107 202.10733626604633 L 360.3952432350062 200.18173572472108 L 361.0141313442702 198.25613518339583 L 361.61663185830076 196.33053464207063 L 362.2018544471128 194.40493410074538 L 362.7690331144657 192.47933355942013 L 363.3175238862536 190.55373301809487 L 363.8468017303585 188.62813247676962 L 364.3564567781646 186.70253193544443 L 364.8461899211645 184.77693139411917 L 365.31580785826566 182.85133085279392 L 365.7652176705652 180.92573031146867 L 366.1944210005439 179.00012977014347 L 366.6035079118958 177.07452922881816 L 366.99265050462503 175.1489286874929 L 367.36209635767807 173.22332814616772 L 367.71216186832567 171.29772760484246 L 368.0432255538441 169.3721270635172 L 368.355721376867 167.44652652219196 L 368.65013215117165 165.5209259808667 L 368.92698307972415 163.5953254395415 L 369.186835471621 161.66972489821626 L 369.4302806792226 159.744124356891 L 369.6579342913522 157.81852381556575 L 369.87043061301557 155.8929232742405 L 370.068417456753 153.9673227329153 L 370.25255126552196 152.04172219159 L 370.423492581999 150.1161216502648 L 370.58190187441636 148.19052110893955 L 370.7284702242964 146.26492056761435 L 370.86377240312163 144.33932002628904 L 370.98848803632046 142.4137194849638 L 371.10327598808715 140.48811894363854 L 371.20867437486805 138.56251840231334 L 371.3053462780286 136.6369178609881 L 371.393797316686 134.71131731966284 L 371.474681130418 132.7857167783376 L 371.5484260674281 130.8601162370124 L 371.6156374387142 128.93451569568714 L 371.67662443952514 127.00891515436189 L 371.73200411713805 125.08331461303658 L 371.7822380315411 123.15771407171138 L 371.82765794064153 121.23211353038619 L 371.8687962816482 119.30651298906088 L 371.9058198261283 117.38091244773557 L 371.9391525293841 115.45531190641037 L 371.96895474728285 113.52971136508518 L 371.9956732057421 111.60411082375998 L 372.0197945617782 109.67851028243467 L 372.0412362957782 107.75290974110936 L 372.06029979534316 105.82730919978417 L 372.07745332721305 103.90170865845897 L 372.09251317670856 101.97610811713378 L 372.10611946484926 100.05050757580835 L 372.11796211910973 98.12490703448316 L 372.1287500060129 96.19930649315802 L 372.138158817326 94.27370595183277 L 372.14641550034895 92.34810541050757 L 372.15364343292464 90.42250486918215 L 372.15996639212307 88.49690432785701 L 372.16569499961327 86.57130378653176 L 372.17052608649834 84.64570324520656 L 372.1748160329494 82.72010270388137 L 372.17848482429065 80.794502162556 L 372.1818227673559 78.8689016212308 L 372.21817723264394 78.8689016212308 L 372.2215151757092 80.794502162556 L 372.22518396705044 82.72010270388137 L 372.2294739135015 84.64570324520656 L 372.2343050003866 86.57130378653176 L 372.2400336078768 88.49690432785701 L 372.2463565670752 90.42250486918215 L 372.2535844996509 92.34810541050757 L 372.2618411826739 94.27370595183277 L 372.27124999398694 96.19930649315802 L 372.28203788089013 98.12490703448316 L 372.2938805351506 100.05050757580835 L 372.3074868232913 101.97610811713378 L 372.3225466727868 103.90170865845897 L 372.3397002046567 105.82730919978417 L 372.35876370422164 107.75290974110936 L 372.38020543822165 109.67851028243467 L 372.40432679425777 111.60411082375998 L 372.431045252717 113.52971136508518 L 372.46084747061576 115.45531190641037 L 372.49418017387154 117.38091244773557 L 372.53120371835166 119.30651298906088 L 372.57234205935833 121.23211353038619 L 372.61776196845875 123.15771407171138 L 372.6679958828618 125.08331461303658 L 372.7233755604747 127.00891515436189 L 372.78436256128566 128.93451569568714 L 372.85157393257174 130.8601162370124 L 372.9253188695819 132.7857167783376 L 373.00620268331386 134.71131731966284 L 373.09465372197127 136.6369178609881 L 373.1913256251318 138.56251840231334 L 373.2967240119127 140.48811894363854 L 373.4115119636794 142.4137194849638 L 373.53622759687823 144.33932002628904 L 373.67152977570345 146.26492056761435 L 373.8180981255835 148.19052110893955 L 373.97650741800084 150.1161216502648 L 374.1474487344779 152.04172219159 L 374.33158254324684 153.9673227329153 L 374.5295693869843 155.8929232742405 L 374.74206570864766 157.81852381556575 L 374.96971932077724 159.744124356891 L 375.21316452837885 161.66972489821626 L 375.4730169202757 163.5953254395415 L 375.7498678488282 165.5209259808667 L 376.04427862313287 167.44652652219196 L 376.3567744461558 169.3721270635172 L 376.6878381316742 171.29772760484246 L 377.0379036423218 173.22332814616772 L 377.40734949537483 175.1489286874929 L 377.79649208810406 177.07452922881816 L 378.20557899945595 179.00012977014347 L 378.63478232943464 180.92573031146867 L 379.0841921417342 182.85133085279392 L 379.55381007883534 184.77693139411917 L 380.04354322183525 186.70253193544443 L 380.55319826964137 188.62813247676962 L 381.0824761137463 190.55373301809487 L 381.6309668855342 192.47933355942013 L 382.19814555288707 194.40493410074538 L 382.7833681416991 196.33053464207063 L 383.38586865572967 198.25613518339583 L 384.00475676499366 200.18173572472108 L 384.63901632858915 202.10733626604633 L 385.28750481249205 204.03293680737164 L 385.94895365642196 205.95853734869684 L 386.62196963643646 207.8841378900221 L 387.30503726149396 209.80973843134728 L 387.99652223290127 211.7353389726726 L 388.6946759854262 213.6609395139978 L 389.39764131800223 215.58654005532304 L 390.1034591105039 217.5121405966483 L 390.81007611116604 219.43774113797355 L 391.51535376699366 221.3633416792988 L 392.2170780571306 223.288942220624 L 392.9129702767832 225.21454276194925 L 393.60069870710663 227.1401433032745 L 394.27789109462856 229.0657438445998 L 394.94214785249056 230.991344385925 L 395.59105588519765 232.91694492725026 L 396.2222029288583 234.84254546857545 L 396.83319229022726 236.76814600990076 L 397.4216578603785 238.69374655122598 L 397.9852792726775 240.6193470925512 L 398.52179707000147 242.54494763387646 L 399.029027742977 244.4705481752017 L 399.5048784994386 246.39614871652694 L 399.9473616254221 248.3217492578522 L 400.35460829981196 250.2473497991774 L 400.7248817282731 252.17295034050267 L 401.05658946729613 254.09855088182795 L 401.3482948160114 256.02415142315317 L 401.5987271618218 257.94975196447837 L 401.8067911757643 259.8753525058036 L 401.9715747647098 261.8009530471289 L 402.09235569991955 263.7265535884542 L 402.16860685492315 265.6521541297794 L 402.19999999999993 267.5777546711046 L 402.18640811553126 269.5033552124298 L 402.127906201956 271.4289557537551 L 402.02477057979024 273.35455629508033 L 401.8774766889533 275.2801568364056 L 401.6866954122682 277.20575737773083 L 401.45328796326146 279.1313579190561 L 401.1782993930781 281.05695846038134 L 400.86295078525467 282.9825590017066 L 400.5086302200849 284.90815954303184 L 400.11688260219756 286.83376008435704 L 399.689398455607 288.75936062568235 L 399.2280017997625 290.6849611670075 L 398.7346372279162 292.6105617083328 L 398.21135631536504 294.536162249658 L 397.66030348975363 296.46176279098324 L 397.0837014986116 298.3873633323085 L 396.48383661064355 300.31296387363375 L 395.8630436870052 302.238564414959 L 395.2236912569298 304.16416495628425 L 394.5681667286774 306.0897654976095 L 393.89886186194803 308.0153660389347 L 393.2181586217355 309.94096658026 L 392.5284155262158 311.8665671215852 L 391.8319545927971 313.7921676629104 L 391.13104897705455 315.71776820423565 L 390.42791138907916 317.64336874556096 L 389.72468336095335 319.56896928688616 L 389.023425427782 321.4945698282114 L 388.3261082731224 323.42017036953666 L 387.6346048779333 325.3457709108619 L 386.950683700457 327.27137145218717 L 386.2760029029036 329.1969719935124 L 385.61210562958223 331.1225725348377 L 384.96041633032485 333.04817307616287 L 384.322238112821 334.9737736174882 L 383.6987510979087 336.8993741588133 L 383.09101174305493 338.8249747001386 L 382.49995309127496 340.7505752414638 L 381.9263858956485 342.6761757827891 L 381.3710005634348 344.6017763241143 L 380.83436985859834 346.5273768654396 L 380.31695229734606 348.45297740676483 L 379.8190961680435 350.3785779480901 L 379.3410441046094 352.30417848941534 L 378.8829381411573 354.2297790307406 L 378.44482517521874 356.15537957206584 L 378.02666276730173 358.08098011339104 L 377.6283252057448 360.0065806547163 L 377.24960976776407 361.9321811960415 L 376.8902431101805 363.8577817373668 L 376.5498877264848 365.783382278692 L 376.2281484105688 367.70898282001724 L 375.92457867154184 369.6345833613425 L 375.63868704848227 371.56018390266775 L 375.36994327866154 373.485784443993 L 375.11778427765165 375.41138498531825 L 374.8816198947015 377.3369855266435 L 374.66083841178505 379.26258606796875 L 374.4548117597043 381.188186609294 L 374.2629004295278 383.1137871506192 L 374.08445806239246 385.03938769194446 L 373.9188357052532 386.9649882332697 L 373.7653857244893 388.8905887745949 L 373.62346537332667 390.81618931592016 L 373.4924400127919 392.7417898572454 L 373.3716163136596 394.66739039857066 L 373.260534553095 396.5929909398959 L 373.1584816819233 398.51859148122116 L 373.0649594566533 400.4441920225464 L 372.97933380764556 402.3697925638716 L 372.90100387109095 404.29539310519687 L 372.82964198890215 406.2209936465221 L 372.76470915553557 408.14659418784737 L 372.7056248204715 410.0721947291726 L 372.65208337782576 411.9977952704978 L 372.60359056715663 413.92339581182307 L 372.5597737697627 415.8489963531483 L 372.5200813297176 417.7745968944736 L 372.484385200213 419.7001974357988 L 372.4521054617153 421.6257979771241 L 372.42329657654835 423.55139851844933 L 372.3974331081888 425.4769990597746 L 372.3743238330993 427.4025996010998 L 372.3533645866985 429.32820014242503 L 372.3345839802584 431.2538006837503 L 372.31791873615435 433.17940122507554 L 372.30307069932104 435.10500176640073 L 372.2900791317171 437.030602307726 L 372.27854262904026 438.95620284905124 L 372.268270504531 440.8818033903765 L 372.25926334322776 442.80740393170174 L 372.25140022510533 444.733004473027 L 372.24441394526974 446.65860501435225 L 372.2381805029085 448.5842055556775 L 372.23294841751044 450.50980609700275 L 372.22826086876324 452.435406638328 L 372.2241312481756 454.3610071796532 L 372.2204941901547 456.28660772097845 L 372.2171937079406 458.21220826230365 L 372.21469560356576 460.1378088036289 L 372.212288763523 462.06340934495415 Z" stroke="black" stroke-width="0.5" fill="steelblue" /></svg>