<svg xmlns="http://www.w3.org/2000/svg" width="686.2" height="545" font-family="DejaVu Sans, Liberation Sans, Arial, sans-serif" fill="black"><rect width="100%" height="100%" fill="white" /><line x1="72.19999999999999" y1="494" x2="672.2" y2="494" stroke="black" stroke-width="1" /><line x1="72.19999999999999" y1="44" x2="72.19999999999999" y2="494" stroke="black" stroke-width="1" /><line x1="72.19999999999999" y1="429.7142857142857" x2="672.2" y2="429.7142857142857" stroke="#ccc" stroke-width="1" /><line x1="72.19999999999999" y1="365.42857142857144" x2="672.2" y2="365.42857142857144" stroke="#ccc" stroke-width="1" /><line x1="72.19999999999999" y1="301.14285714285717" x2="672.2" y2="301.14285714285717" stroke="#ccc" stroke-width="1" /><line x1="72.19999999999999" y1="236.8571428571429" x2="672.2" y2="236.8571428571429" stroke="#ccc" stroke-width="1" /><line x1="72.19999999999999" y1="172.57142857142856" x2="672.2" y2="172.57142857142856" stroke="#ccc" stroke-width="1" /><line x1="72.19999999999999" y1="108.28571428571433" x2="672.2" y2="108.28571428571433" stroke="#ccc" stroke-width="1" /><line x1="72.19999999999999" y1="44" x2="672.2" y2="44" stroke="#ccc" stroke-width="1" /><text x="372.19999999999993" y="511" font-size="12" text-anchor="middle"></text><line x1="372.19999999999993" y1="494" x2="372.19999999999993" y2="499" stroke="black" stroke-width="1" /><line x1="67.19999999999999" y1="494" x2="72.19999999999999" y2="494" stroke="black" stroke-width="1" /><text x="64.19999999999999" y="498.2" font-size="12" text-anchor="end">-4</text><line x1="67.19999999999999" y1="429.7142857142857" x2="72.19999999999999" y2="429.7142857142857" stroke="black" stroke-width="1" /><text x="64.19999999999999" y="433.9142857142857" font-size="12" text-anchor="end">-3</text><line x1="67.19999999999999" y1="365.42857142857144" x2="72.19999999999999" y2="365.42857142857144" stroke="black" stroke-width="1" /><text x="64.19999999999999" y="369.62857142857143" font-size="12" text-anchor="end">-2</text><line x1="67.19999999999999" y1="301.14285714285717" x2="72.19999999999999" y2="301.14285714285717" stroke="black" stroke-width="1" /><text x="64.19999999999999" y="305.34285714285716" font-size="12" text-anchor="end">-1</text><line x1="67.19999999999999" y1="236.8571428571429" x2="72.19999999999999" y2="236.8571428571429" stroke="black" stroke-width="1" /><text x="64.19999999999999" y="241.05714285714288" font-size="12" text-anchor="end">0</text><line x1="67.19999999999999" y1="172.57142857142856" x2="72.19999999999999" y2="172.57142857142856" stroke="black" stroke-width="1" /><text x="64.19999999999999" y="176.77142857142854" font-size="12" text-anchor="end">1</text><line x1="67.19999999999999" y1="108.28571428571433" x2="72.19999999999999" y2="108.28571428571433" stroke="black" stroke-width="1" /><text x="64.19999999999999" y="112.48571428571434" font-size="12" text-anchor="end">2</text><line x1="67.19999999999999" y1="44" x2="72.19999999999999" y2="44" stroke="black" stroke-width="1" /><text x="64.19999999999999" y="48.2" font-size="12" text-anchor="end">3</text><text x="343.1" y="22" font-size="18" text-anchor="middle">Narrow (h = 0.15)</text><path d="M 372.1935416149109 431.68116955701197 L 372.1885073502971 429.76523979787737 L 372.18034053846156 427.8493100387428 L 372.1674763449774 425.93338027960823 L 372.1484730214365 424.01745052047363 L 372.12146111824626 422.10152076133903 L 372.0847925864707 420.1855910022045 L 372.0372957267219 418.2696612430699 L 371.9783956493583 416.35373148393535 L 371.9091606754637 414.43780172480075 L 371.831513154468 412.52187196566615 L 371.74861625778374 410.6059422065316 L 371.6643299687561 408.690012447397 L 371.58254861986734 406.7740826882624 L 371.506165970291 404.85815292912787 L 371.436978439442 402.94222316999327 L 371.3752732243738 401.0262934108587 L 371.3193407285995 399.11036365172413 L 371.2665462594845 397.1944338925896 L 371.21395405650526 395.278504133455 L 371.15838101734096 393.3625743743204 L 371.0987395062618 391.44664461518585 L 371.03427388094326 389.53071485605125 L 370.9651865729173 387.61478509691665 L 370.89158774519206 385.69885533778205 L 370.8131821812606 383.7829255786475 L 370.7287126895459 381.8669958195129 L 370.6358804520827 379.95106606037837 L 370.53144948482895 378.03513630124377 L 370.4126537754534 376.11920654210917 L 370.27663216911867 374.2032767829746 L 370.1231368260145 372.28734702384 L 369.9538855252804 370.3714172647054 L 369.7726135632 368.4554875055709 L 369.58647477024937 366.5395577464363 L 369.4034197549494 364.62362798730175 L 369.2319073288673 362.70769822816715 L 369.0791051816392 360.7917684690326 L 368.94927676952034 358.875838709898 L 368.8406926143067 356.9599089507634 L 368.74394062781647 355.04397919162886 L 368.64410506778466 353.12804943249427 L 368.51723692295786 351.21211967335967 L 368.3362882558412 349.29618991422507 L 368.0729035280565 347.3802601550905 L 367.7015876487194 345.4643303959559 L 367.20443465457765 343.5484006368213 L 366.5735141348696 341.6324708776868 L 365.81423238084614 339.7165411185522 L 364.9423820184254 337.8006113594176 L 363.9871069222481 335.884681600283 L 362.98770218318197 333.96875184114845 L 361.9891317157062 332.0528220820139 L 361.03902159992185 330.1368923228793 L 360.18580913200196 328.2209625637447 L 359.46904252062603 326.30503280461016 L 358.91820533636206 324.38910304547557 L 358.54770223579925 322.473173286341 L 358.3535261512606 320.5572435272064 L 358.3127396823032 318.6413137680719 L 358.38656781139855 316.7253840089373 L 358.5258290457017 314.8094542498027 L 358.6785228311548 312.89352449066814 L 358.79666296281454 310.9775947315335 L 358.84513960346044 309.06166497239894 L 358.80717564866103 307.1457352132644 L 358.68196059378647 305.22980545412975 L 358.48580093030324 303.3138756949952 L 358.2421876341361 301.39794593586066 L 357.97511214184277 299.482016176726 L 357.70329995805963 297.56608641759146 L 357.4358065343247 295.6501566584569 L 357.1669080467284 293.7342268993223 L 356.88394915423413 291.8182971401877 L 356.5674212568472 289.9023673810532 L 356.1985011763362 287.9864376219186 L 355.76785775485945 286.070507862784 L 355.27003835050346 284.15457810364944 L 354.71182623557013 282.23864834451484 L 354.1037137375695 280.32271858538024 L 353.4607475712035 278.4067888262457 L 352.7916523102298 276.49085906711116 L 352.1045646763372 274.5749293079765 L 351.4012207991912 272.65899954884196 L 350.6813663407954 270.7430697897074 L 349.9495758482753 268.82714003057276 L 349.21633105162823 266.9112102714382 L 348.5012309248698 264.9952805123036 L 347.8344814437872 263.079350753169 L 347.252962274735 261.1634209940345 L 346.79431514464005 259.24749123489994 L 346.4883449610655 257.3315614757653 L 346.3530210679003 255.4156317166308 L 346.38728558987094 253.4997019574962 L 346.5696880167438 251.5837721983616 L 346.86157406065973 249.66784243922703 L 347.2130264075852 247.75191268009243 L 347.5678899789455 245.83598292095783 L 347.8741890837639 243.92005316182326 L 348.09346568584505 242.00412340268872 L 348.2003036842662 240.08819364355412 L 348.1915502344421 238.17226388441955 L 348.08072194333005 236.25633412528498 L 347.896565793793 234.34040436615044 L 347.6725478634845 232.42447460701584 L 347.4442309708578 230.50854484788124 L 347.24123838486173 228.59261508874664 L 347.07974869354996 226.67668532961204 L 346.9647335614573 224.7607555704775 L 346.8900514048325 222.84482581134296 L 346.8371964396972 220.92889605220836 L 346.78533434499866 219.01296629307376 L 346.71274563311175 217.09703653393916 L 346.5996236729238 215.18110677480462 L 346.43046241238545 213.26517701567002 L 346.19848405736735 211.34924725653553 L 345.8966878911196 209.43331749740088 L 345.5283540031022 207.51738773826634 L 345.0981914442218 205.60145797913168 L 344.6197408957749 203.68552821999714 L 344.10873131332824 201.76959846086254 L 343.59031541228 199.853668701728 L 343.09596406091066 197.93773894259334 L 342.66703950213747 196.02180918345886 L 342.35055542406303 194.10587942432426 L 342.19999999999993 192.18994966518966 L 342.26920488564514 190.27401990605512 L 342.608548138904 188.35809014692052 L 343.25604782102323 186.44216038778592 L 344.23040698012505 184.52623062865138 L 345.5245282230034 182.61030086951678 L 347.10373014624616 180.69437111038218 L 348.90625394377213 178.77844135124764 L 350.8455142922091 176.86251159211304 L 352.82328191581786 174.9465818329785 L 354.7411391292745 173.03065207384384 L 356.5095407228883 171.1147223147093 L 358.0618860233875 169.1987925555747 L 359.36031408861186 167.28286279644016 L 360.3974694976126 165.3669330373056 L 361.1951390664426 163.45100327817102 L 361.79622742849887 161.53507351903642 L 362.25842431340163 159.61914375990187 L 362.6434354031039 157.70321400076728 L 363.0076517158352 155.78728424163273 L 363.394294124328 153.87135448249813 L 363.83285214602637 151.95542472336354 L 364.3326221764468 150.03949496422894 L 364.88841249375037 148.12356520509434 L 365.4801920673161 146.2076354459598 L 366.0795132297561 144.29170568682525 L 366.6556703527482 142.37577592769065 L 367.17725374854166 140.45984616855606 L 367.6185724088336 138.54391640942146 L 367.9624345395771 136.62798665028686 L 368.1991194979481 134.71205689115232 L 368.32983630719366 132.79612713201777 L 368.36208690000683 130.88019737288317 L 368.30962012213706 128.96426761374858 L 368.18977316564303 127.04833785461398 L 368.02195702424416 125.13240809547943 L 367.8250523106782 123.21647833634484 L 367.6174815422045 121.3005485772103 L 367.4170010453347 119.38461881807575 L 367.2401216274868 117.46868905894115 L 367.10329056760156 115.55275929980655 L 367.0211638828411 113.63682954067195 L 367.00665043674826 111.72089978153736 L 367.068616776237 109.80497002240281 L 367.21092792406364 107.88904026326827 L 367.4307607818243 105.97311050413367 L 367.716978403264 104.05718074499907 L 368.05316135532064 102.14125098586447 L 368.4181311678574 100.22532122672987 L 368.7886148906039 98.30939146759533 L 369.1426084009857 96.39346170846073 L 369.4622360178937 94.47753194932619 L 369.7360038961301 92.56160219019159 L 369.9594220432181 90.645672431057 L 370.13538050744813 88.7297426719224 L 370.27299654016434 86.81381291278785 L 370.3851384040265 84.89788315365325 L 370.486366113869 82.98195339451877 L 370.5893466728467 81.06602363538417 L 370.70419523384635 79.15009387624957 L 370.83650138168684 77.23416411711497 L 370.98593571509457 75.31823435798043 L 371.14867217061027 73.40230459884583 L 371.3171312723581 71.48637483971123 L 371.4826827993315 69.57044508057669 L 371.63699901930784 67.65451532144209 L 371.7738226365458 65.73858556230749 L 371.8887855302231 63.82265580317295 L 371.9812831462406 61.90672604403835 L 372.05185858223683 59.99079628490375 L 372.10344140052297 58.07486652576915 L 372.13944806047056 56.15893676663461 L 372.163473249019 54.24300700750001 L 372.17893322023167 52.32707724836547 L 372.18822982268637 50.41114748923087 L 372.2117701773135 50.41114748923087 L 372.2210667797682 52.32707724836547 L 372.2365267509809 54.24300700750001 L 372.2605519395293 56.15893676663461 L 372.2965585994769 58.07486652576915 L 372.34814141776303 59.99079628490375 L 372.41871685375924 61.90672604403835 L 372.51121446977675 63.82265580317295 L 372.6261773634541 65.73858556230749 L 372.763000980692 67.65451532144209 L 372.9173172006684 69.57044508057669 L 373.08286872764177 71.48637483971123 L 373.2513278293896 73.40230459884583 L 373.4140642849053 75.31823435798043 L 373.563498618313 77.23416411711497 L 373.6958047661535 79.15009387624957 L 373.81065332715315 81.06602363538417 L 373.91363388613087 82.98195339451877 L 374.01486159597334 84.89788315365325 L 374.1270034598355 86.81381291278785 L 374.26461949255173 88.7297426719224 L 374.44057795678174 90.645672431057 L 374.66399610386975 92.56160219019159 L 374.93776398210616 94.47753194932619 L 375.25739159901417 96.39346170846073 L 375.61138510939594 98.30939146759533 L 375.9818688321425 100.22532122672987 L 376.3468386446792 102.14125098586447 L 376.68302159673584 104.05718074499907 L 376.9692392181756 105.97311050413367 L 377.1890720759362 107.88904026326827 L 377.3313832237629 109.80497002240281 L 377.3933495632516 111.72089978153736 L 377.37883611715876 113.63682954067195 L 377.2967094323983 115.55275929980655 L 377.15987837251305 117.46868905894115 L 376.98299895466516 119.38461881807575 L 376.7825184577954 121.3005485772103 L 376.5749476893217 123.21647833634484 L 376.3780429757557 125.13240809547943 L 376.21022683435683 127.04833785461398 L 376.0903798778628 128.96426761374858 L 376.03791309999303 130.88019737288317 L 376.0701636928062 132.79612713201777 L 376.20088050205175 134.71205689115232 L 376.4375654604228 136.62798665028686 L 376.7814275911663 138.54391640942146 L 377.2227462514582 140.45984616855606 L 377.7443296472517 142.37577592769065 L 378.32048677024375 144.29170568682525 L 378.91980793268374 146.2076354459598 L 379.5115875062495 148.12356520509434 L 380.06737782355304 150.03949496422894 L 380.5671478539735 151.95542472336354 L 381.0057058756719 153.87135448249813 L 381.39234828416465 155.78728424163273 L 381.75656459689594 157.70321400076728 L 382.14157568659823 159.61914375990187 L 382.603772571501 161.53507351903642 L 383.20486093355726 163.45100327817102 L 384.0025305023873 165.3669330373056 L 385.039685911388 167.28286279644016 L 386.33811397661236 169.1987925555747 L 387.8904592771116 171.1147223147093 L 389.6588608707254 173.03065207384384 L 391.576718084182 174.9465818329785 L 393.5544857077908 176.86251159211304 L 395.49374605622774 178.77844135124764 L 397.2962698537537 180.69437111038218 L 398.87547177699645 182.61030086951678 L 400.1695930198748 184.52623062865138 L 401.14395217897663 186.44216038778592 L 401.7914518610959 188.35809014692052 L 402.1307951143547 190.27401990605512 L 402.19999999999993 192.18994966518966 L 402.04944457593683 194.10587942432426 L 401.7329604978624 196.02180918345886 L 401.3040359390892 197.93773894259334 L 400.80968458771986 199.853668701728 L 400.29126868667163 201.76959846086254 L 399.78025910422497 203.68552821999714 L 399.30180855577805 205.60145797913168 L 398.87164599689766 207.51738773826634 L 398.50331210888027 209.43331749740088 L 398.2015159426325 211.34924725653553 L 397.9695375876144 213.26517701567002 L 397.80037632707604 215.18110677480462 L 397.6872543668881 217.09703653393916 L 397.6146656550012 219.01296629307376 L 397.56280356030265 220.92889605220836 L 397.5099485951674 222.84482581134296 L 397.43526643854256 224.7607555704775 L 397.3202513064499 226.67668532961204 L 397.15876161513813 228.59261508874664 L 396.95576902914206 230.50854484788124 L 396.72745213651535 232.42447460701584 L 396.50343420620686 234.34040436615044 L 396.3192780566698 236.25633412528498 L 396.20844976555776 238.17226388441955 L 396.19969631573366 240.08819364355412 L 396.3065343141548 242.00412340268872 L 396.52581091623597 243.92005316182326 L 396.83211002105435 245.83598292095783 L 397.1869735924147 247.75191268009243 L 397.53842593934013 249.66784243922703 L 397.8303119832561 251.5837721983616 L 398.0127144101289 253.4997019574962 L 398.0469789320996 255.4156317166308 L 397.9116550389344 257.3315614757653 L 397.6056848553598 259.24749123489994 L 397.14703772526485 261.1634209940345 L 396.5655185562127 263.079350753169 L 395.8987690751301 264.9952805123036 L 395.18366894837163 266.9112102714382 L 394.4504241517246 268.82714003057276 L 393.71863365920444 270.7430697897074 L 392.99877920080866 272.65899954884196 L 392.2954353236627 274.5749293079765 L 391.6083476897701 276.49085906711116 L 390.93925242879635 278.4067888262457 L 390.2962862624304 280.32271858538024 L 389.68817376442973 282.23864834451484 L 389.1299616494964 284.15457810364944 L 388.6321422451404 286.070507862784 L 388.20149882366366 287.9864376219186 L 387.8325787431527 289.9023673810532 L 387.51605084576573 291.8182971401877 L 387.23309195327147 293.7342268993223 L 386.9641934656752 295.6501566584569 L 386.69670004194023 297.56608641759146 L 386.4248878581571 299.482016176726 L 386.1578123658638 301.39794593586066 L 385.9141990696966 303.3138756949952 L 385.7180394062134 305.22980545412975 L 385.59282435133883 307.1457352132644 L 385.5548603965394 309.06166497239894 L 385.6033370371853 310.9775947315335 L 385.72147716884507 312.89352449066814 L 385.87417095429817 314.8094542498027 L 386.0134321886013 316.7253840089373 L 386.0872603176967 318.6413137680719 L 386.04647384873925 320.5572435272064 L 385.8522977642006 322.473173286341 L 385.4817946636378 324.38910304547557 L 384.93095747937383 326.30503280461016 L 384.2141908679979 328.2209625637447 L 383.360978400078 330.1368923228793 L 382.41086828429366 332.0528220820139 L 381.4122978168179 333.96875184114845 L 380.4128930777518 335.884681600283 L 379.45761798157446 337.8006113594176 L 378.5857676191537 339.7165411185522 L 377.8264858651303 341.6324708776868 L 377.1955653454222 343.5484006368213 L 376.69841235128047 345.4643303959559 L 376.3270964719434 347.3802601550905 L 376.06371174415864 349.29618991422507 L 375.882763077042 351.21211967335967 L 375.7558949322152 353.12804943249427 L 375.6560593721834 355.04397919162886 L 375.55930738569316 356.9599089507634 L 375.4507232304795 358.875838709898 L 375.32089481836067 360.7917684690326 L 375.16809267113257 362.70769822816715 L 374.99658024505044 364.62362798730175 L 374.8135252297505 366.5395577464363 L 374.62738643679984 368.4554875055709 L 374.4461144747195 370.3714172647054 L 374.27686317398536 372.28734702384 L 374.1233678308812 374.2032767829746 L 373.98734622454646 376.11920654210917 L 373.8685505151709 378.03513630124377 L 373.7641195479172 379.95106606037837 L 373.671287310454 381.8669958195129 L 373.5868178187393 383.7829255786475 L 373.5084122548078 385.69885533778205 L 373.4348134270826 387.61478509691665 L 373.3657261190566 389.53071485605125 L 373.3012604937381 391.44664461518585 L 373.2416189826589 393.3625743743204 L 373.1860459434946 395.278504133455 L 373.13345374051534 397.1944338925896 L 373.08065927140035 399.11036365172413 L 373.02472677562605 401.0262934108587 L 372.9630215605579 402.94222316999327 L 372.89383402970884 404.85815292912787 L 372.8174513801325 406.7740826882624 L 372.7356700312438 408.690012447397 L 372.6513837422161 410.6059422065316 L 372.5684868455319 412.52187196566615 L 372.4908393245362 414.43780172480075 L 372.4216043506416 416.35373148393535 L 372.362704273278 418.2696612430699 L 372.31520741352915 420.1855910022045 L 372.2785388817536 422.10152076133903 L 372.2515269785634 424.01745052047363 L 372.2325236550225 425.93338027960823 L 372.2196594615383 427.8493100387428 L 372.2114926497028 429.76523979787737 L 372.206458385089 431.68116955701197 Z" stroke="black" stroke-width="0.5" fill="steelblue" /></svg>