<svg xmlns="http://www.w3.org/2000/svg" width="686.2" height="545" font-family="DejaVu Sans, Liberation Sans, Arial, sans-serif" fill="black"><rect width="100%" height="100%" fill="white" /><line x1="72.19999999999999" y1="494" x2="672.2" y2="494" stroke="black" stroke-width="1" /><line x1="72.19999999999999" y1="44" x2="72.19999999999999" y2="494" stroke="black" stroke-width="1" /><line x1="72.19999999999999" y1="381.5" x2="672.2" y2="381.5" stroke="#ccc" stroke-width="1" /><line x1="72.19999999999999" y1="269" x2="672.2" y2="269" stroke="#ccc" stroke-width="1" /><line x1="72.19999999999999" y1="156.5" x2="672.2" y2="156.5" stroke="#ccc" stroke-width="1" /><line x1="72.19999999999999" y1="44" x2="672.2" y2="44" stroke="#ccc" stroke-width="1" /><text x="372.19999999999993" y="511" font-size="12" text-anchor="middle"></text><line x1="372.19999999999993" y1="494" x2="372.19999999999993" y2="499" stroke="black" stroke-width="1" /><line x1="67.19999999999999" y1="494" x2="72.19999999999999" y2="494" stroke="black" stroke-width="1" /><text x="64.19999999999999" y="498.2" font-size="12" text-anchor="end">-4</text><line x1="67.19999999999999" y1="381.5" x2="72.19999999999999" y2="381.5" stroke="black" stroke-width="1" /><text x="64.19999999999999" y="385.7" font-size="12" text-anchor="end">-2</text><line x1="67.19999999999999" y1="269" x2="72.19999999999999" y2="269" stroke="black" stroke-width="1" /><text x="64.19999999999999" y="273.2" font-size="12" text-anchor="end">0</text><line x1="67.19999999999999" y1="156.5" x2="72.19999999999999" y2="156.5" stroke="black" stroke-width="1" /><text x="64.19999999999999" y="160.7" font-size="12" text-anchor="end">2</text><line x1="67.19999999999999" y1="44" x2="72.19999999999999" y2="44" stroke="black" stroke-width="1" /><text x="64.19999999999999" y="48.2" font-size="12" text-anchor="end">4</text><text x="343.1" y="22" font-size="18" text-anchor="middle">Auto (Silverman)</text><path d="M 372.195796238484 459.52833550682897 L 372.19391393357694 457.6503159410089 L 372.19131863992516 455.77229637518883 L 372.187798385895 453.89427680936876 L 372.1829284035504 452.0162572435487 L 372.1766575862249 450.1382376777286 L 372.1685351314914 448.2602181119085 L 372.15818112307414 446.38219854608843 L 372.1451914373563 444.50417898026836 L 372.12899544340445 442.6261594144483 L 372.10923020657225 440.74813984862817 L 372.085657925252 438.8701202828081 L 372.05781394090053 436.99210071698803 L 372.02540947711714 435.11408115116797 L 371.98794386938835 433.2360615853479 L 371.9455817579481 431.35804201952783 L 371.89821305849694 429.4800224537077 L 371.8460035584382 427.60200288788764 L 371.7890344400581 425.72398332206757 L 371.72754006208316 423.8459637562475 L 371.66180438006825 421.96794419042743 L 371.5921321602087 420.0899246246073 L 371.51863759513753 418.21190505878724 L 371.4415569638911 416.33388549296717 L 371.36116756686374 414.4558659271471 L 371.27747847119224 412.57784636132703 L 371.19016365981804 410.69982679550697 L 371.09931937059997 408.8218072296869 L 371.0042423240951 406.94378766386683 L 370.9044366182285 405.0657680980467 L 370.79974733903356 403.18774853222664 L 370.6893703113066 401.30972896640657 L 370.57215181651355 399.4317094005865 L 370.44844967063904 397.55368983476643 L 370.3167745448866 395.6756702689463 L 370.17664069008026 393.79765070312624 L 370.0271157136366 391.91963113730617 L 369.86707071244007 390.0416115714861 L 369.69548214149415 388.16359200566603 L 369.5107571016635 386.2855724398459 L 369.3109841628329 384.40755287402584 L 369.09346892401516 382.52953330820577 L 368.85621398215466 380.6515137423857 L 368.59613503995297 378.77349417656563 L 368.3096023954153 376.8954746107455 L 367.9938143664823 375.01745504492544 L 367.6453392983957 373.1394354791054 L 367.26118138994053 371.2614159132853 L 366.8398157604264 369.38339634746524 L 366.3797652922058 367.5053767816451 L 365.8817200271917 365.62735721582504 L 365.34793701698845 363.749337650005 L 364.7826028896888 361.8713180841849 L 364.19025188704575 359.9932985183648 L 363.5781816302035 358.1152789525447 L 362.95514864260144 356.23725938672465 L 362.33047788711883 354.3592398209046 L 361.7133741019577 352.4812202550845 L 361.1120158139228 350.60320068926444 L 360.53464922248077 348.7251811234444 L 359.9889583582522 346.8471615576243 L 359.4787636173048 344.96914199180424 L 359.007544346587 343.0911224259841 L 358.57517393501587 341.21310286016404 L 358.1801803879328 339.335083294344 L 357.8182613687097 337.4570637285239 L 357.48428097636406 335.5790441627038 L 357.170565521911 333.7010245968837 L 356.8703685570057 331.82300503106364 L 356.57514603162537 329.9449854652436 L 356.2770111656754 328.0669658994235 L 355.9685346839802 326.18894633360344 L 355.64255912062976 324.31092676778337 L 355.2938830692053 322.4329072019633 L 354.91794905489746 320.55488763614323 L 354.5115604840425 318.6768680703231 L 354.0727354961305 316.798848504503 L 353.60131503075115 314.9208289386829 L 353.09808134818286 313.04280937286285 L 352.5654694869899 311.1647898070428 L 352.00748872908684 309.2867702412227 L 351.4286261271976 307.40875067540264 L 350.83550507687715 305.5307311095826 L 350.23513377328715 303.6527115437625 L 349.63549883523865 301.77469197794244 L 349.0454517347205 299.8966724121223 L 348.47330208097077 298.01865284630225 L 347.9274077138985 296.1406332804822 L 347.4157990921304 294.26261371466205 L 346.94406621211726 292.384594148842 L 346.51866013881977 290.5065745830219 L 346.14186312975016 288.62855501720185 L 345.81609163930955 286.7505354513818 L 345.53980284253913 284.8725158855617 L 345.31116386804285 282.99449631974164 L 345.12473087616286 281.1164767539216 L 344.9756946931067 279.2384571881015 L 344.857582018437 277.3604376222814 L 344.76186837534095 275.48241805646126 L 344.68218804437606 273.6043984906412 L 344.6103985752988 271.7263789248211 L 344.5401863176164 269.84835935900105 L 344.46548355696 267.970339793181 L 344.3816400915048 266.0923202273609 L 344.28468606874344 264.21430066154085 L 344.17251932088374 262.3362810957208 L 344.0425256716005 260.4582615299007 L 343.89445806741867 258.58024196408064 L 343.7293401930932 256.7022223982605 L 343.54833467400175 254.82420283244045 L 343.35486461074737 252.94618326662038 L 343.15327097590415 251.06816370080028 L 342.94878717270694 249.19014413498022 L 342.7491441612771 247.31212456916015 L 342.5639414125805 245.43410500334005 L 342.40304311837735 243.55608543751998 L 342.279400647413 241.6780658716999 L 342.2069983366883 239.80004630587985 L 342.19999999999993 237.92202674005972 L 342.27204228545116 236.04400717423965 L 342.43775417800504 234.16598760841953 L 342.70852109719084 232.28796804259946 L 343.0945333550515 230.4099484767794 L 343.6024211595771 228.53192891095932 L 344.2334986578498 226.65390934513925 L 344.9869231448095 224.7758897793192 L 345.85569944189757 222.89787021349906 L 346.8294276454125 221.019850647679 L 347.89430610776816 219.14183108185892 L 349.0323747746169 217.26381151603886 L 350.22460045564947 215.3857919502188 L 351.4501958693739 213.50777238439872 L 352.6883223253609 211.62975281857865 L 353.9201330875967 209.75173325275853 L 355.12758009460646 207.87371368693846 L 356.2964763318342 205.9956941211184 L 357.4148448432757 204.11767455529832 L 358.47336799169364 202.23965498947825 L 359.466023912025 200.36163542365819 L 360.3894521555333 198.48361585783806 L 361.2433849574107 196.605596292018 L 362.02717653760664 194.72757672619792 L 362.742813791491 192.84955716037786 L 363.3917105622105 190.9715375945578 L 363.97654073453367 189.09351802873772 L 364.4997819539086 187.21549846291765 L 364.9633962866374 185.33747889709753 L 365.37038751115557 183.45945933127746 L 365.7227194832123 181.5814397654574 L 366.0239198757508 179.70342019963732 L 366.2780968460051 177.82540063381725 L 366.48894235668774 175.94738106799718 L 366.6625438577302 174.06936150217706 L 366.80465619854067 172.191341936357 L 366.92192952917907 170.31332237053692 L 367.0211290534755 168.43530280471686 L 367.11001737173075 166.5572832388968 L 367.19535085548944 164.67926367307672 L 367.2835167687751 162.8012441072566 L 367.37972144758766 160.92322454143653 L 367.4884906026175 159.04520497561646 L 367.61309877330433 157.1671854097964 L 367.75528870539057 155.28916584397632 L 367.91503757408555 153.41114627815625 L 368.09207726436074 151.53312671233618 L 368.2848581306182 149.65510714651606 L 368.4905539586712 147.777087580696 L 368.7058896492114 145.89906801487592 L 368.9279269491454 144.02104844905585 L 369.1533549584881 142.1430288832358 L 369.3787215656452 140.26500931741572 L 369.60200397075675 138.3869897515956 L 369.8198957388236 136.50897018577552 L 370.0315313354855 134.63095061995546 L 370.234748562093 132.7529310541354 L 370.4287621921869 130.87491148831532 L 370.6131152335439 128.99689192249525 L 370.7871874036862 127.11887235667518 L 370.95046174736206 125.24085279085506 L 371.1027543110963 123.36283322503499 L 371.24398923751824 121.48481365921492 L 371.37402434323195 119.60679409339485 L 371.4927827700217 117.72877452757479 L 371.600357376861 115.85075496175472 L 371.69671639125306 113.97273539593459 L 371.7820365829906 112.09471583011452 L 371.85679494276087 110.21669626429446 L 371.92170828503754 108.33867669847439 L 371.97695125636716 106.46065713265432 L 372.0233780263815 104.58263756683425 L 372.06194744040215 102.70461800101413 L 372.09359318217133 100.82659843519406 L 372.1191031148016 98.94857886937399 L 372.13934590573103 97.07055930355381 L 372.15517636485214 95.19253973773374 L 372.16743948324455 93.31452017191367 L 372.1766274352511 91.4365006060936 L 372.18339809649797 89.55848104027353 L 372.1884574748279 87.68046147445341 L 372.19203472693954 85.80244190863334 L 372.2079652730603 85.80244190863334 L 372.211542525172 87.68046147445341 L 372.2166019035019 89.55848104027353 L 372.2233725647488 91.4365006060936 L 372.2325605167553 93.31452017191367 L 372.2448236351477 95.19253973773374 L 372.26065409426883 97.07055930355381 L 372.2808968851983 98.94857886937399 L 372.30640681782853 100.82659843519406 L 372.3380525595977 102.70461800101413 L 372.37662197361834 104.58263756683425 L 372.4230487436327 106.46065713265432 L 372.4782917149623 108.33867669847439 L 372.543205057239 110.21669626429446 L 372.61796341700926 112.09471583011452 L 372.7032836087468 113.97273539593459 L 372.7996426231389 115.85075496175472 L 372.9072172299782 117.72877452757479 L 373.0259756567679 119.60679409339485 L 373.1560107624816 121.48481365921492 L 373.29724568890356 123.36283322503499 L 373.4495382526378 125.24085279085506 L 373.6128125963137 127.11887235667518 L 373.78688476645596 128.99689192249525 L 373.97123780781294 130.87491148831532 L 374.1652514379069 132.7529310541354 L 374.36846866451435 134.63095061995546 L 374.58010426117625 136.50897018577552 L 374.7979960292431 138.3869897515956 L 375.02127843435466 140.26500931741572 L 375.2466450415118 142.1430288832358 L 375.4720730508545 144.02104844905585 L 375.6941103507885 145.89906801487592 L 375.90944604132864 147.777087580696 L 376.11514186938166 149.65510714651606 L 376.3079227356391 151.53312671233618 L 376.4849624259143 153.41114627815625 L 376.6447112946093 155.28916584397632 L 376.78690122669553 157.1671854097964 L 376.91150939738236 159.04520497561646 L 377.0202785524122 160.92322454143653 L 377.1164832312248 162.8012441072566 L 377.2046491445104 164.67926367307672 L 377.2899826282691 166.5572832388968 L 377.3788709465244 168.43530280471686 L 377.4780704708208 170.31332237053692 L 377.5953438014592 172.191341936357 L 377.73745614226965 174.06936150217706 L 377.9110576433121 175.94738106799718 L 378.12190315399477 177.82540063381725 L 378.3760801242491 179.70342019963732 L 378.67728051678756 181.5814397654574 L 379.0296124888443 183.45945933127746 L 379.43660371336244 185.33747889709753 L 379.90021804609125 187.21549846291765 L 380.4234592654662 189.09351802873772 L 381.00828943778936 190.9715375945578 L 381.65718620850885 192.84955716037786 L 382.3728234623932 194.72757672619792 L 383.1566150425892 196.605596292018 L 384.01054784446654 198.48361585783806 L 384.9339760879749 200.36163542365819 L 385.9266320083062 202.23965498947825 L 386.98515515672415 204.11767455529832 L 388.1035236681657 205.9956941211184 L 389.2724199053934 207.87371368693846 L 390.47986691240317 209.75173325275853 L 391.71167767463896 211.62975281857865 L 392.949804130626 213.50777238439872 L 394.1753995443504 215.3857919502188 L 395.36762522538294 217.26381151603886 L 396.5056938922317 219.14183108185892 L 397.57057235458734 221.019850647679 L 398.5443005581023 222.89787021349906 L 399.41307685519035 224.7758897793192 L 400.16650134215007 226.65390934513925 L 400.7975788404228 228.53192891095932 L 401.30546664494835 230.4099484767794 L 401.691478902809 232.28796804259946 L 401.9622458219948 234.16598760841953 L 402.1279577145487 236.04400717423965 L 402.19999999999993 237.92202674005972 L 402.1930016633116 239.80004630587985 L 402.12059935258685 241.6780658716999 L 401.9969568816225 243.55608543751998 L 401.83605858741936 245.43410500334005 L 401.65085583872275 247.31212456916015 L 401.4512128272929 249.19014413498022 L 401.2467290240957 251.06816370080028 L 401.0451353892525 252.94618326662038 L 400.8516653259981 254.82420283244045 L 400.67065980690666 256.7022223982605 L 400.5055419325812 258.58024196408064 L 400.35747432839935 260.4582615299007 L 400.2274806791161 262.3362810957208 L 400.1153139312564 264.21430066154085 L 400.0183599084951 266.0923202273609 L 399.93451644303985 267.970339793181 L 399.85981368238345 269.84835935900105 L 399.78960142470106 271.7263789248211 L 399.7178119556238 273.6043984906412 L 399.6381316246589 275.48241805646126 L 399.5424179815629 277.3604376222814 L 399.4243053068932 279.2384571881015 L 399.275269123837 281.1164767539216 L 399.088836131957 282.99449631974164 L 398.86019715746073 284.8725158855617 L 398.5839083606903 286.7505354513818 L 398.2581368702497 288.62855501720185 L 397.8813398611801 290.5065745830219 L 397.4559337878826 292.384594148842 L 396.9842009078695 294.26261371466205 L 396.47259228610136 296.1406332804822 L 395.9266979190291 298.01865284630225 L 395.3545482652794 299.8966724121223 L 394.7645011647612 301.77469197794244 L 394.1648662267127 303.6527115437625 L 393.5644949231227 305.5307311095826 L 392.97137387280225 307.40875067540264 L 392.392511270913 309.2867702412227 L 391.83453051300995 311.1647898070428 L 391.301918651817 313.04280937286285 L 390.7986849692487 314.9208289386829 L 390.32726450386934 316.798848504503 L 389.8884395159574 318.6768680703231 L 389.4820509451024 320.55488763614323 L 389.10611693079454 322.4329072019633 L 388.7574408793701 324.31092676778337 L 388.4314653160197 326.18894633360344 L 388.1229888343245 328.0669658994235 L 387.8248539683745 329.9449854652436 L 387.5296314429942 331.82300503106364 L 387.2294344780889 333.7010245968837 L 386.9157190236358 335.5790441627038 L 386.58173863129014 337.4570637285239 L 386.21981961206706 339.335083294344 L 385.824826064984 341.21310286016404 L 385.39245565341287 343.0911224259841 L 384.92123638269504 344.96914199180424 L 384.41104164174766 346.8471615576243 L 383.8653507775191 348.7251811234444 L 383.28798418607704 350.60320068926444 L 382.68662589804217 352.4812202550845 L 382.06952211288103 354.3592398209046 L 381.4448513573984 356.23725938672465 L 380.82181836979635 358.1152789525447 L 380.2097481129541 359.9932985183648 L 379.61739711031106 361.8713180841849 L 379.0520629830114 363.749337650005 L 378.51827997280816 365.62735721582504 L 378.0202347077941 367.5053767816451 L 377.56018423957346 369.38339634746524 L 377.13881861005933 371.2614159132853 L 376.75466070160417 373.1394354791054 L 376.40618563351757 375.01745504492544 L 376.09039760458455 376.8954746107455 L 375.8038649600469 378.77349417656563 L 375.5437860178452 380.6515137423857 L 375.3065310759847 382.52953330820577 L 375.089015837167 384.40755287402584 L 374.88924289833636 386.2855724398459 L 374.7045178585057 388.16359200566603 L 374.5329292875598 390.0416115714861 L 374.3728842863633 391.91963113730617 L 374.2233593099196 393.79765070312624 L 374.0832254551133 395.6756702689463 L 373.9515503293608 397.55368983476643 L 373.8278481834863 399.4317094005865 L 373.71062968869325 401.30972896640657 L 373.6002526609663 403.18774853222664 L 373.4955633817714 405.0657680980467 L 373.39575767590475 406.94378766386683 L 373.3006806293999 408.8218072296869 L 373.2098363401818 410.69982679550697 L 373.1225215288076 412.57784636132703 L 373.0388324331361 414.4558659271471 L 372.95844303610875 416.33388549296717 L 372.88136240486233 418.21190505878724 L 372.8078678397912 420.0899246246073 L 372.7381956199316 421.96794419042743 L 372.6724599379167 423.8459637562475 L 372.61096555994175 425.72398332206757 L 372.55399644156165 427.60200288788764 L 372.5017869415029 429.4800224537077 L 372.45441824205176 431.35804201952783 L 372.4120561306115 433.2360615853479 L 372.3745905228827 435.11408115116797 L 372.34218605909933 436.99210071698803 L 372.31434207474786 438.8701202828081 L 372.2907697934276 440.74813984862817 L 372.2710045565954 442.6261594144483 L 372.2548085626436 444.50417898026836 L 372.2418188769257 446.38219854608843 L 372.23146486850845 448.2602181119085 L 372.22334241377496 450.1382376777286 L 372.21707159644944 452.0162572435487 L 372.21220161410486 453.89427680936876 L 372.2086813600747 455.77229637518883 L 372.2060860664229 457.6503159410089 L 372.2042037615159 459.52833550682897 Z" stroke="black" stroke-width="0.5" fill="steelblue" /></svg>