<svg xmlns="http://www.w3.org/2000/svg" width="686.2" height="545" font-family="DejaVu Sans, Liberation Sans, Arial, sans-serif" fill="black"><rect width="100%" height="100%" fill="white" /><line x1="72.19999999999999" y1="494" x2="672.2" y2="494" stroke="black" stroke-width="1" /><line x1="72.19999999999999" y1="44" x2="72.19999999999999" y2="494" stroke="black" stroke-width="1" /><line x1="72.19999999999999" y1="301.14285714285717" x2="672.2" y2="301.14285714285717" stroke="#ccc" stroke-width="1" /><line x1="72.19999999999999" y1="172.57142857142856" x2="672.2" y2="172.57142857142856" stroke="#ccc" stroke-width="1" /><line x1="72.19999999999999" y1="44" x2="672.2" y2="44" stroke="#ccc" stroke-width="1" /><text x="172.2" y="511" font-size="12" text-anchor="middle">Normal</text><line x1="172.2" y1="494" x2="172.2" y2="499" stroke="black" stroke-width="1" /><text x="372.2" y="511" font-size="12" text-anchor="middle">Bimodal</text><line x1="372.2" y1="494" x2="372.2" y2="499" stroke="black" stroke-width="1" /><text x="572.2" y="511" font-size="12" text-anchor="middle">Skewed</text><line x1="572.2" y1="494" x2="572.2" y2="499" stroke="black" stroke-width="1" /><line x1="67.19999999999999" y1="429.7142857142857" x2="72.19999999999999" y2="429.7142857142857" stroke="black" stroke-width="1" /><text x="64.19999999999999" y="433.9142857142857" font-size="12" text-anchor="end">-5</text><line x1="67.19999999999999" y1="301.14285714285717" x2="72.19999999999999" y2="301.14285714285717" stroke="black" stroke-width="1" /><text x="64.19999999999999" y="305.34285714285716" font-size="12" text-anchor="end">0</text><line x1="67.19999999999999" y1="172.57142857142856" x2="72.19999999999999" y2="172.57142857142856" stroke="black" stroke-width="1" /><text x="64.19999999999999" y="176.77142857142854" font-size="12" text-anchor="end">5</text><line x1="67.19999999999999" y1="44" x2="72.19999999999999" y2="44" stroke="black" stroke-width="1" /><text x="64.19999999999999" y="48.2" font-size="12" text-anchor="end">10</text><text x="14" y="272.5" font-size="14" text-anchor="middle" transform="rotate(-90,14,272.5)">Value</text><text x="343.1" y="22" font-size="18" text-anchor="middle">Violin Plot</text><path d="M 172.19748523128055 397.46370345048075 L 172.1961153854108 396.50106022908926 L 172.19413046155128 395.5384170076977 L 172.19132506769446 394.5757737863062 L 172.18745893655856 393.6131305649147 L 172.1822659159337 392.65048734352314 L 172.17547046651876 391.68784412213165 L 172.16671905719096 390.7252009007401 L 172.15591335836356 389.76255767934856 L 172.14285636625976 388.7999144579571 L 172.1274390531476 387.8372712365655 L 172.1097794692247 386.874628015174 L 172.09022699643577 385.9119847937825 L 172.06894811094895 384.94934157239095 L 172.04674478266097 383.9866983509994 L 172.0241093223215 383.0240551296079 L 172.0016373098065 382.06141190821637 L 171.97969031035677 381.0987686868249 L 171.95858189986765 380.13612546543334 L 171.93825478209456 379.17348224404185 L 171.91828834997528 378.2108390226503 L 171.89746627734607 377.24819580125876 L 171.87447251365563 376.28555257986727 L 171.84767621505085 375.3229093584757 L 171.81496490469203 374.3602661370842 L 171.77402423380923 373.3976229156927 L 171.72278211323044 372.43497969430115 L 171.65933225515695 371.47233647290966 L 171.58237439737914 370.5096932515181 L 171.49073710543044 369.54705003012657 L 171.38446241458354 368.5844068087351 L 171.26388595088827 367.6217635873436 L 171.13002624973012 366.65912036595205 L 170.98401906106974 365.6964771445605 L 170.82804709187525 364.73383392316896 L 170.66334865462045 363.7711907017774 L 170.49214472244856 362.8085474803859 L 170.3158310940023 361.84590425899444 L 170.13547041781842 360.8832610376029 L 169.95209894247893 359.92061781621135 L 169.7655776445858 358.95797459481986 L 169.57565876609593 357.9953313734283 L 169.3813738796734 357.03268815203677 L 169.181388482611 356.0700449306453 L 168.97371966179264 355.10740170925374 L 168.7554058736969 354.14475848786225 L 168.52373571667508 353.1821152664707 L 168.2745527246281 352.2194720450792 L 168.0048464680978 351.25682882368767 L 167.71018044524337 350.2941856022961 L 167.38741671913266 349.33154238090464 L 167.0348780292994 348.3688991595131 L 166.65082340288336 347.40625593812155 L 166.2369014448824 346.44361271673006 L 165.79550549988437 345.4809694953385 L 165.3326081722356 344.51832627394697 L 164.85526639502277 343.5556830525555 L 164.37128216137876 342.593039831164 L 163.8891949558423 341.63039660977245 L 163.41671851355866 340.6677533883809 L 162.95937978841144 339.70511016698936 L 162.5193352407888 338.7424669455978 L 162.0956398324197 337.7798237242064 L 161.68283051387647 336.81718050281484 L 161.27180465924351 335.8545372814233 L 160.85104279787828 334.89189406003175 L 160.40548069822214 333.9292508386402 L 159.9219394078975 332.9666076172487 L 159.38645782611502 332.0039643958572 L 158.7896211223526 331.0413211744657 L 158.12555909129802 330.07867795307413 L 157.39444734712282 329.1160347316826 L 156.60049029296806 328.15339151029116 L 155.7541359113061 327.19074828889956 L 154.86996614478807 326.22810506750807 L 153.9653852212854 325.2654618461165 L 153.05811700847568 324.302818624725 L 152.16580666929408 323.3401754033335 L 151.3044093434795 322.377532181942 L 150.48549684105137 321.41488896055046 L 149.71553535214244 320.4522457391589 L 148.99781495795767 319.48960251776737 L 148.33086351694675 318.5269592963759 L 147.71021982013468 317.56431607498433 L 147.12929739135217 316.60167285359285 L 146.5811288592452 315.6390296322013 L 146.05867878722867 314.67638641080976 L 145.5582943095698 313.71374318941827 L 145.0773074463322 312.7510999680267 L 144.61640775514593 311.78845674663523 L 144.17813870197656 310.8258135252437 L 143.76828565290847 309.86317030385214 L 143.3929329852059 308.9005270824606 L 143.0590937982166 307.9378838610691 L 142.77330611923153 306.9752406396776 L 142.54093195959916 306.0125974182861 L 142.36657961576893 305.04995419689453 L 142.25231011901045 304.08731097550304 L 142.2 303.1246677541115 L 142.20958549546987 302.16202453272 L 142.27968175501516 301.19938131132847 L 142.41018751988116 300.2367380899369 L 142.59927500622842 299.2740948685454 L 142.8464382147132 298.31145164715394 L 143.15162309252463 297.3488084257624 L 143.51418907573702 296.38616520437085 L 143.93452015257668 295.4235219829793 L 144.4106212588224 294.46087876158776 L 144.94086519837498 293.4982355401963 L 145.52049709732734 292.5355923188048 L 146.14358048763 291.57294909741324 L 146.80211370763996 290.6103058760217 L 147.48617085278846 289.64766265463015 L 148.18395212919043 288.6850194332387 L 148.88365499142162 287.7223762118471 L 149.57444115752992 286.75973299045563 L 150.24548011388373 285.7970897690641 L 150.88920187379972 284.83444654767254 L 151.50108063518152 283.87180332628105 L 152.0782461402032 282.90916010488957 L 152.62420203825985 281.946516883498 L 153.14287408544163 280.9838736621065 L 153.64135569926268 280.02123044071493 L 154.1292078138111 279.0585872193234 L 154.61484888585403 278.0959439979319 L 155.10743405310177 277.1333007765404 L 155.6145554872809 276.17065755514886 L 156.14137431169613 275.2080143337573 L 156.68920668463176 274.24537111236583 L 157.25757854653355 273.28272789097423 L 157.84185956284767 272.3200846695828 L 158.4356044511713 271.35744144819125 L 159.02988728945678 270.3947982267997 L 159.61607042631113 269.43215500540816 L 160.18560550086636 268.4695117840167 L 160.72938855146987 267.5068685626252 L 161.24323560802017 266.54422534123364 L 161.72404216199382 265.5815821198421 L 162.17198984533553 264.6189388984506 L 162.59034451536658 263.65629567705906 L 162.9851789587767 262.6936524556676 L 163.36223267184928 261.73100923427603 L 163.73014189214555 260.7683660128845 L 164.0953135747759 259.80572279149294 L 164.46410988071798 258.84307957010145 L 164.8402772372185 257.8804363487099 L 165.22503142281838 256.9177931273184 L 165.6183340740286 255.9551499059269 L 166.01744091581628 254.99250668453533 L 166.41784862180793 254.02986346314384 L 166.8146877838499 253.06722024175232 L 167.2022440787344 252.10457702036078 L 167.57530707843344 251.14193379896926 L 167.93015750833297 250.17929057757775 L 168.2638282005194 249.2166473561862 L 168.57482862336798 248.25400413479468 L 168.86322196869938 247.29136091340317 L 169.1298050534828 246.32871769201162 L 169.37638968531482 245.3660744706201 L 169.60552801805116 244.40343124922862 L 169.81927543146108 243.4407880278371 L 170.01946825908365 242.47814480644556 L 170.2071161784404 241.51550158505404 L 170.38296570211176 240.55285836366252 L 170.54652276826855 239.59021514227098 L 170.6970520051607 238.62757192087946 L 170.83322120562252 237.66492869948797 L 170.95388461202958 236.70228547809643 L 171.05802573525347 235.73964225670488 L 171.14539379677174 234.7769990353134 L 171.2163647812724 233.81435581392185 L 171.27221366223046 232.8517125925303 L 171.31487337318538 231.88906937113882 L 171.34771785523938 230.92642614974727 L 171.37347350688916 229.96378292835573 L 171.39612391739945 229.00113970696424 L 171.41903488913442 228.0384964855727 L 171.44507902790528 227.0758532641812 L 171.47635531725535 226.11321004278966 L 171.5143286448833 225.15056682139812 L 171.5591334763942 224.18792360000663 L 171.61029320221198 223.22528037861508 L 171.66647778357677 222.26263715722354 L 171.72604806498944 221.29999393583205 L 171.7868519581464 220.33735071444056 L 171.84683448946174 219.37470749304896 L 171.9040140345318 218.41206427165747 L 171.95693290624806 217.44942105026598 L 172.00452205443477 216.48677782887444 L 172.04600583976313 215.5241346074829 L 172.08120617618667 214.5614913860914 L 172.11022041647738 213.59884816469986 L 172.13361554756207 212.63620494330831 L 172.15190515034718 211.67356172191683 L 172.1658913640009 210.71091850052534 L 172.17632172931482 209.74827527913374 L 172.18391051820862 208.78563205774225 L 172.18929892156575 207.82298883635076 L 172.19303383406879 206.86034561495916 L 172.19556157756028 205.89770239356767 L 172.2044384224397 205.89770239356767 L 172.2069661659312 206.86034561495916 L 172.21070107843423 207.82298883635076 L 172.21608948179136 208.78563205774225 L 172.22367827068516 209.74827527913374 L 172.23410863599906 210.71091850052534 L 172.2480948496528 211.67356172191683 L 172.2663844524379 212.63620494330831 L 172.2897795835226 213.59884816469986 L 172.3187938238133 214.5614913860914 L 172.35399416023685 215.5241346074829 L 172.3954779455652 216.48677782887444 L 172.44306709375192 217.44942105026598 L 172.49598596546818 218.41206427165747 L 172.55316551053824 219.37470749304896 L 172.61314804185358 220.33735071444056 L 172.67395193501054 221.29999393583205 L 172.7335222164232 222.26263715722354 L 172.789706797788 223.22528037861508 L 172.84086652360577 224.18792360000663 L 172.88567135511667 225.15056682139812 L 172.92364468274462 226.11321004278966 L 172.9549209720947 227.0758532641812 L 172.98096511086555 228.0384964855727 L 173.00387608260053 229.00113970696424 L 173.02652649311082 229.96378292835573 L 173.0522821447606 230.92642614974727 L 173.0851266268146 231.88906937113882 L 173.12778633776952 232.8517125925303 L 173.18363521872757 233.81435581392185 L 173.25460620322824 234.7769990353134 L 173.3419742647465 235.73964225670488 L 173.4461153879704 236.70228547809643 L 173.56677879437746 237.66492869948797 L 173.70294799483926 238.62757192087946 L 173.85347723173143 239.59021514227098 L 174.01703429788822 240.55285836366252 L 174.19288382155958 241.51550158505404 L 174.38053174091633 242.47814480644556 L 174.5807245685389 243.4407880278371 L 174.79447198194882 244.40343124922862 L 175.02361031468516 245.3660744706201 L 175.27019494651717 246.32871769201162 L 175.5367780313006 247.29136091340317 L 175.825171376632 248.25400413479468 L 176.13617179948056 249.2166473561862 L 176.469842491667 250.17929057757775 L 176.82469292156654 251.14193379896926 L 177.19775592126558 252.10457702036078 L 177.58531221615007 253.06722024175232 L 177.98215137819204 254.02986346314384 L 178.3825590841837 254.99250668453533 L 178.78166592597137 255.9551499059269 L 179.1749685771816 256.9177931273184 L 179.5597227627815 257.8804363487099 L 179.935890119282 258.84307957010145 L 180.30468642522408 259.80572279149294 L 180.66985810785442 260.7683660128845 L 181.0377673281507 261.73100923427603 L 181.4148210412233 262.6936524556676 L 181.8096554846334 263.65629567705906 L 182.22801015466445 264.6189388984506 L 182.67595783800616 265.5815821198421 L 183.1567643919798 266.54422534123364 L 183.6706114485301 267.5068685626252 L 184.21439449913362 268.4695117840167 L 184.78392957368885 269.43215500540816 L 185.3701127105432 270.3947982267997 L 185.9643955488287 271.35744144819125 L 186.5581404371523 272.3200846695828 L 187.14242145346643 273.28272789097423 L 187.71079331536822 274.24537111236583 L 188.25862568830385 275.2080143337573 L 188.78544451271907 276.17065755514886 L 189.2925659468982 277.1333007765404 L 189.78515111414595 278.0959439979319 L 190.27079218618888 279.0585872193234 L 190.7586443007373 280.02123044071493 L 191.25712591455834 280.9838736621065 L 191.77579796174012 281.946516883498 L 192.3217538597968 282.90916010488957 L 192.89891936481845 283.87180332628105 L 193.51079812620026 284.83444654767254 L 194.15451988611625 285.7970897690641 L 194.82555884247006 286.75973299045563 L 195.51634500857836 287.7223762118471 L 196.21604787080955 288.6850194332387 L 196.91382914721152 289.64766265463015 L 197.59788629236002 290.6103058760217 L 198.25641951236997 291.57294909741324 L 198.87950290267264 292.5355923188048 L 199.459134801625 293.4982355401963 L 199.98937874117757 294.46087876158776 L 200.4654798474233 295.4235219829793 L 200.88581092426296 296.38616520437085 L 201.24837690747535 297.3488084257624 L 201.55356178528677 298.31145164715394 L 201.80072499377155 299.2740948685454 L 201.98981248011881 300.2367380899369 L 202.12031824498482 301.19938131132847 L 202.1904145045301 302.16202453272 L 202.2 303.1246677541115 L 202.14768988098953 304.08731097550304 L 202.03342038423105 305.04995419689453 L 201.8590680404008 306.0125974182861 L 201.62669388076844 306.9752406396776 L 201.34090620178338 307.9378838610691 L 201.00706701479407 308.9005270824606 L 200.6317143470915 309.86317030385214 L 200.2218612980234 310.8258135252437 L 199.78359224485405 311.78845674663523 L 199.32269255366776 312.7510999680267 L 198.8417056904302 313.71374318941827 L 198.3413212127713 314.67638641080976 L 197.81887114075477 315.6390296322013 L 197.2707026086478 316.60167285359285 L 196.6897801798653 317.56431607498433 L 196.06913648305323 318.5269592963759 L 195.4021850420423 319.48960251776737 L 194.68446464785754 320.4522457391589 L 193.9145031589486 321.41488896055046 L 193.09559065652047 322.377532181942 L 192.2341933307059 323.3401754033335 L 191.3418829915243 324.302818624725 L 190.43461477871458 325.2654618461165 L 189.5300338552119 326.22810506750807 L 188.64586408869388 327.19074828889956 L 187.79950970703192 328.15339151029116 L 187.00555265287716 329.1160347316826 L 186.27444090870196 330.07867795307413 L 185.61037887764738 331.0413211744657 L 185.01354217388496 332.0039643958572 L 184.47806059210248 332.9666076172487 L 183.99451930177784 333.9292508386402 L 183.5489572021217 334.89189406003175 L 183.12819534075646 335.8545372814233 L 182.7171694861235 336.81718050281484 L 182.30436016758028 337.7798237242064 L 181.8806647592112 338.7424669455978 L 181.44062021158854 339.70511016698936 L 180.9832814864413 340.6677533883809 L 180.51080504415768 341.63039660977245 L 180.02871783862122 342.593039831164 L 179.5447336049772 343.5556830525555 L 179.06739182776437 344.51832627394697 L 178.6044945001156 345.4809694953385 L 178.16309855511759 346.44361271673006 L 177.74917659711662 347.40625593812155 L 177.36512197070059 348.3688991595131 L 177.01258328086732 349.33154238090464 L 176.6898195547566 350.2941856022961 L 176.39515353190217 351.25682882368767 L 176.12544727537187 352.2194720450792 L 175.8762642833249 353.1821152664707 L 175.64459412630308 354.14475848786225 L 175.42628033820733 355.10740170925374 L 175.21861151738898 356.0700449306453 L 175.0186261203266 357.03268815203677 L 174.82434123390405 357.9953313734283 L 174.6344223554142 358.95797459481986 L 174.44790105752105 359.92061781621135 L 174.26452958218155 360.8832610376029 L 174.08416890599767 361.84590425899444 L 173.90785527755142 362.8085474803859 L 173.73665134537953 363.7711907017774 L 173.57195290812473 364.73383392316896 L 173.41598093893023 365.6964771445605 L 173.26997375026986 366.65912036595205 L 173.1361140491117 367.6217635873436 L 173.01553758541644 368.5844068087351 L 172.90926289456954 369.54705003012657 L 172.81762560262084 370.5096932515181 L 172.74066774484302 371.47233647290966 L 172.67721788676954 372.43497969430115 L 172.62597576619075 373.3976229156927 L 172.58503509530794 374.3602661370842 L 172.55232378494912 375.3229093584757 L 172.52552748634434 376.28555257986727 L 172.5025337226539 377.24819580125876 L 172.4817116500247 378.2108390226503 L 172.46174521790542 379.17348224404185 L 172.44141810013232 380.13612546543334 L 172.4203096896432 381.0987686868249 L 172.39836269019347 382.06141190821637 L 172.37589067767848 383.0240551296079 L 172.353255217339 383.9866983509994 L 172.33105188905103 384.94934157239095 L 172.3097730035642 385.9119847937825 L 172.2902205307753 386.874628015174 L 172.27256094685237 387.8372712365655 L 172.2571436337402 388.7999144579571 L 172.24408664163641 389.76255767934856 L 172.23328094280902 390.7252009007401 L 172.22452953348122 391.68784412213165 L 172.21773408406628 392.65048734352314 L 172.21254106344142 393.6131305649147 L 172.2086749323055 394.5757737863062 L 172.2058695384487 395.5384170076977 L 172.20388461458919 396.50106022908926 L 172.20251476871942 397.46370345048075 Z" stroke="black" stroke-width="0.5" fill="steelblue" /><path d="M 372.1892358440034 426.26530602077963 L 372.1848264194835 424.9606048007332 L 372.1793747769466 423.65590358068687 L 372.1719708494926 422.3512023606405 L 372.1624935601812 421.04650114059416 L 372.14998015180106 419.7417999205478 L 372.13364995715824 418.4370987005014 L 372.1128260788736 417.13239748045504 L 372.08628979088047 415.8276962604087 L 372.052962744206 414.52299504036233 L 372.0113474763979 413.2182938203159 L 371.95973667972476 411.91359260026957 L 371.896529596838 410.6088913802232 L 371.8188852002376 409.30419016017686 L 371.72515564443745 407.99948894013045 L 371.61195465508223 406.6947877200841 L 371.4768739449748 405.39008650003774 L 371.31640781226855 404.0853852799913 L 371.1268157432759 402.780684059945 L 370.9053743959632 401.4759828398986 L 370.64775255236515 400.17128161985227 L 370.3503673903943 398.86658039980585 L 370.00907943281715 397.56187917975956 L 369.62053022748927 396.25717795971315 L 369.1806164246917 394.9524767396668 L 368.686031077291 393.6477755196204 L 368.1338164397686 392.343074299574 L 367.52098417926055 391.0383730795277 L 366.84545421457176 389.7336718594813 L 366.10615894864077 388.42897063943497 L 365.30243463896767 387.12426941938855 L 364.4343766907282 385.8195681993422 L 363.503294757504 384.51486697929585 L 362.51166902810024 383.2101657592495 L 361.46305709702733 381.9054645392031 L 360.3618659488354 380.6007633191567 L 359.21431209357917 379.2960620991104 L 358.0278220442711 377.99136087906396 L 356.81049857427485 376.6866596590176 L 355.5719622491293 375.38195843897125 L 354.3226547449518 374.0772572189249 L 353.07393185124675 372.7725559988785 L 351.83783336033224 371.46785477883213 L 350.6268781186313 370.1631535587858 L 349.4537536549335 368.8584523387394 L 348.331355634024 367.55375111869307 L 347.27199952879755 366.24904989864666 L 346.2878846820982 364.9443486786003 L 345.39011957285356 363.63964745855395 L 344.5888853529955 362.33494623850754 L 343.89312375716486 361.0302450184612 L 343.31035042647846 359.72554379841483 L 342.8465065490203 358.4208425783685 L 342.50585398070143 357.1161413583221 L 342.29091712365675 355.81144013827577 L 342.2024727607544 354.50673891822936 L 342.2395868996541 353.20203769818295 L 342.3996956014039 351.8973364781366 L 342.6787248875038 350.59263525809024 L 343.0712432535919 349.2879340380439 L 343.5706391630631 347.98323281799753 L 344.1693152156928 346.6785315979511 L 344.8588905151132 345.37383037790477 L 345.6304030875924 344.0691291578584 L 346.4745049890535 342.764427937812 L 347.3816439009738 341.45972671776565 L 348.34222645610504 340.1550254977193 L 349.3467601322964 338.85032427767294 L 350.38597218091485 337.5456230576266 L 351.45075617859055 336.24092183758023 L 352.53277809119777 334.9362206175338 L 353.62368200289814 333.6315193974874 L 354.71585912891567 332.32681817744106 L 355.8021741183388 331.0221169573947 L 356.8759742823948 329.71741573734835 L 357.93124812170566 328.412714517302 L 358.96215587179347 327.10801329725564 L 359.9638940156252 325.8033120772093 L 360.9315318078974 324.49861085716293 L 361.8612432815988 323.1939096371165 L 362.7491797860179 321.8892084170701 L 363.5928375521632 320.58450719702375 L 364.3893717448233 319.2798059769774 L 365.1368576853986 317.97510475693105 L 365.8336147759825 316.6704035368847 L 366.4784536207724 315.36570231683834 L 367.07026522655116 314.061001096792 L 367.6080601028143 312.7562998767456 L 368.0924489698679 311.45159865669916 L 368.52265006565597 310.1468974366528 L 368.899432147128 308.84219621660645 L 369.2225754559791 307.5374949965601 L 369.49149398279354 306.23279377651374 L 369.7067472781246 304.9280925564674 L 369.8676253958852 303.623391336421 L 369.9743780818457 302.3186901163746 L 370.02523441871716 301.0139888963282 L 370.020199783055 299.70928767628186 L 369.95832307648794 298.4045864562355 L 369.83750849705996 297.09988523618915 L 369.65691020943547 295.7951840161428 L 369.41423003344534 294.4904827960964 L 369.108360406017 293.18578157605003 L 368.7372282491514 291.8810803560037 L 368.2985161941516 290.57637913595727 L 367.79135537595795 289.2716779159109 L 367.2142816493484 287.96697669586456 L 366.5668771749221 286.6622754758182 L 365.8486479712329 285.3575742557718 L 365.06049603045966 284.05287303572544 L 364.2032855505031 282.7481718156791 L 363.27951853915494 281.4434705956327 L 362.2924232265038 280.1387693755863 L 361.2462949479069 278.83406815553997 L 360.1459879714641 277.5293669354936 L 358.9985518798942 276.22466571544726 L 357.81199971128945 274.9199644954009 L 356.5948627646612 273.6152632753545 L 355.35716724758015 272.3105620553081 L 354.10970673204883 271.00586083526173 L 352.8643159024665 269.70115961521543 L 351.6331099752774 268.3964583951691 L 350.42842733275666 267.09175717512267 L 349.2636004253325 265.7870559550763 L 348.1512774513205 264.48235473502996 L 347.103859910319 263.17765351498355 L 346.13348282988665 261.87295229493725 L 345.25112272674414 260.56825107489084 L 344.46679159261834 259.2635498548444 L 343.78926906063236 257.9588486347981 L 343.2257296782921 256.6541474147517 L 342.7820231524214 255.34944619470534 L 342.461888618121 254.04474497465895 L 342.2677168680031 252.74004375461257 L 342.2 251.4353425345662 L 342.2575297008591 250.13064131451986 L 342.43748487487187 248.82594009447348 L 342.7355573858206 247.52123887442715 L 343.14610922030306 246.21653765438077 L 343.6623533004006 244.91183643433442 L 344.2765495775765 243.60713521428804 L 344.98020795205105 242.30243399424165 L 345.7642899693132 240.99773277419527 L 346.6194020982426 239.69303155414894 L 347.5359746120485 238.38833033410256 L 348.50442156783805 237.08362911405624 L 349.5152789917122 235.77892789400988 L 350.5593199976434 234.47422667396347 L 351.62764707965437 233.16952545391712 L 352.711763113468 231.8648242338707 L 353.803623605413 230.56012301382435 L 354.8956733824655 229.25542179377794 L 355.9808712102956 227.9507205737316 L 357.0527057711009 226.64601935368523 L 358.1053031102028 225.34131813363888 L 359.13301483658427 224.03661691359252 L 360.1311642879975 222.7319156935461 L 361.0954446451178 221.42721447349976 L 362.02197160464846 220.1225132534534 L 362.9076268327881 218.81781203340705 L 363.74975825309053 217.51311081336064 L 364.5464408954366 216.2084095933143 L 365.29609054241956 214.90370837326793 L 365.9980441890374 213.59900715322158 L 366.65182166154756 212.29430593317522 L 367.25740663075396 210.9896047131288 L 367.81510122401164 209.68490349308246 L 368.326466731281 208.38020227303605 L 368.79269582633805 207.0755010529897 L 369.2157417914165 205.77079983294334 L 369.59770968405525 204.46609861289699 L 369.9405016814849 203.16139739285063 L 370.2467575057864 201.85669617280422 L 370.5188435232103 200.55199495275792 L 370.7594231883465 199.2472937327115 L 370.97107142836893 197.94259251266516 L 371.15608424201196 196.63789129261875 L 371.3176561585714 195.3331900725724 L 371.4573406751893 194.02848885252598 L 371.5780946380028 192.72378763247963 L 371.6815429578993 191.41908641243327 L 371.7700844028998 190.11438519238692 L 371.845419090355 188.80968397234062 L 371.90879307263276 187.5049827522942 L 371.9622182044592 186.20028153224786 L 372.0068408627609 184.89558031220145 L 372.0440665735332 183.5908790921551 L 372.07463017323187 182.28617787210868 L 372.0999650405976 180.98147665206233 L 372.12069043884435 179.67677543201597 L 372.13745060736613 178.37207421196956 L 372.1511317056656 177.06737299192326 L 372.16220664902875 175.76267177187685 L 372.1708281212745 174.45797055183056 L 372.17758754441917 173.15326933178414 L 372.1829646900589 171.8485681117378 L 372.18715279866166 170.54386689169138 L 372.1903704523165 169.23916567164503 L 372.1928146979665 167.93446445159867 L 372.19493631765823 166.62976323155226 L 372.20506368234174 166.62976323155226 L 372.20718530203345 167.93446445159867 L 372.2096295476835 169.23916567164503 L 372.2128472013383 170.54386689169138 L 372.2170353099411 171.8485681117378 L 372.2224124555808 173.15326933178414 L 372.2291718787255 174.45797055183056 L 372.23779335097123 175.76267177187685 L 372.2488682943344 177.06737299192326 L 372.26254939263384 178.37207421196956 L 372.2793095611556 179.67677543201597 L 372.30003495940235 180.98147665206233 L 372.3253698267681 182.28617787210868 L 372.3559334264668 183.5908790921551 L 372.3931591372391 184.89558031220145 L 372.4377817955408 186.20028153224786 L 372.4912069273672 187.5049827522942 L 372.554580909645 188.80968397234062 L 372.6299155971002 190.11438519238692 L 372.7184570421007 191.41908641243327 L 372.82190536199715 192.72378763247963 L 372.9426593248107 194.02848885252598 L 373.08234384142855 195.3331900725724 L 373.243915757988 196.63789129261875 L 373.42892857163105 197.94259251266516 L 373.6405768116535 199.2472937327115 L 373.88115647678967 200.55199495275792 L 374.1532424942136 201.85669617280422 L 374.4594983185151 203.16139739285063 L 374.80229031594473 204.46609861289699 L 375.18425820858346 205.77079983294334 L 375.60730417366193 207.0755010529897 L 376.07353326871896 208.38020227303605 L 376.58489877598834 209.68490349308246 L 377.142593369246 210.9896047131288 L 377.7481783384524 212.29430593317522 L 378.4019558109626 213.59900715322158 L 379.1039094575804 214.90370837326793 L 379.8535591045634 216.2084095933143 L 380.65024174690944 217.51311081336064 L 381.4923731672119 218.81781203340705 L 382.3780283953515 220.1225132534534 L 383.30455535488215 221.42721447349976 L 384.2688357120025 222.7319156935461 L 385.2669851634157 224.03661691359252 L 386.2946968897972 225.34131813363888 L 387.3472942288991 226.64601935368523 L 388.41912878970436 227.9507205737316 L 389.5043266175345 229.25542179377794 L 390.59637639458697 230.56012301382435 L 391.68823688653197 231.8648242338707 L 392.7723529203456 233.16952545391712 L 393.8406800023566 234.47422667396347 L 394.8847210082878 235.77892789400988 L 395.8955784321619 237.08362911405624 L 396.8640253879515 238.38833033410256 L 397.7805979017574 239.69303155414894 L 398.63571003068677 240.99773277419527 L 399.41979204794893 242.30243399424165 L 400.1234504224235 243.60713521428804 L 400.7376466995994 244.91183643433442 L 401.2538907796969 246.21653765438077 L 401.6644426141794 247.52123887442715 L 401.9625151251281 248.82594009447348 L 402.1424702991409 250.13064131451986 L 402.2 251.4353425345662 L 402.13228313199687 252.74004375461257 L 401.93811138187897 254.04474497465895 L 401.6179768475786 255.34944619470534 L 401.17427032170787 256.6541474147517 L 400.6107309393676 257.9588486347981 L 399.93320840738164 259.2635498548444 L 399.14887727325583 260.56825107489084 L 398.26651717011333 261.87295229493725 L 397.296140089681 263.17765351498355 L 396.2487225486795 264.48235473502996 L 395.13639957466745 265.7870559550763 L 393.9715726672433 267.09175717512267 L 392.76689002472256 268.3964583951691 L 391.5356840975335 269.70115961521543 L 390.29029326795114 271.00586083526173 L 389.0428327524198 272.3105620553081 L 387.8051372353388 273.6152632753545 L 386.58800028871053 274.9199644954009 L 385.4014481201058 276.22466571544726 L 384.2540120285359 277.5293669354936 L 383.1537050520931 278.83406815553997 L 382.1075767734962 280.1387693755863 L 381.12048146084504 281.4434705956327 L 380.1967144494969 282.7481718156791 L 379.3395039695403 284.05287303572544 L 378.5513520287671 285.3575742557718 L 377.83312282507785 286.6622754758182 L 377.1857183506516 287.96697669586456 L 376.60864462404203 289.2716779159109 L 376.1014838058484 290.57637913595727 L 375.66277175084855 291.8810803560037 L 375.29163959398295 293.18578157605003 L 374.98576996655464 294.4904827960964 L 374.7430897905645 295.7951840161428 L 374.56249150294 297.09988523618915 L 374.44167692351203 298.4045864562355 L 374.379800216945 299.70928767628186 L 374.3747655812828 301.0139888963282 L 374.42562191815426 302.3186901163746 L 374.53237460411475 303.623391336421 L 374.69325272187535 304.9280925564674 L 374.90850601720643 306.23279377651374 L 375.1774245440209 307.5374949965601 L 375.500567852872 308.84219621660645 L 375.877349934344 310.1468974366528 L 376.30755103013206 311.45159865669916 L 376.79193989718567 312.7562998767456 L 377.3297347734488 314.061001096792 L 377.92154637922755 315.36570231683834 L 378.5663852240175 316.6704035368847 L 379.2631423146014 317.97510475693105 L 380.0106282551767 319.2798059769774 L 380.8071624478368 320.58450719702375 L 381.65082021398206 321.8892084170701 L 382.5387567184012 323.1939096371165 L 383.4684681921026 324.49861085716293 L 384.43610598437476 325.8033120772093 L 385.4378441282065 327.10801329725564 L 386.4687518782943 328.412714517302 L 387.5240257176052 329.71741573734835 L 388.59782588166115 331.0221169573947 L 389.6841408710843 332.32681817744106 L 390.77631799710184 333.6315193974874 L 391.8672219088022 334.9362206175338 L 392.9492438214094 336.24092183758023 L 394.01402781908513 337.5456230576266 L 395.05323986770355 338.85032427767294 L 396.05777354389494 340.1550254977193 L 397.01835609902616 341.45972671776565 L 397.92549501094646 342.764427937812 L 398.76959691240756 344.0691291578584 L 399.54110948488676 345.37383037790477 L 400.2306847843072 346.6785315979511 L 400.82936083693687 347.98323281799753 L 401.3287567464081 349.2879340380439 L 401.7212751124962 350.59263525809024 L 402.0003043985961 351.8973364781366 L 402.16041310034586 353.20203769818295 L 402.1975272392456 354.50673891822936 L 402.1090828763432 355.81144013827577 L 401.89414601929855 357.1161413583221 L 401.55349345097966 358.4208425783685 L 401.0896495735215 359.72554379841483 L 400.5068762428351 361.0302450184612 L 399.8111146470045 362.33494623850754 L 399.0098804271464 363.63964745855395 L 398.1121153179018 364.9443486786003 L 397.1280004712024 366.24904989864666 L 396.06864436597596 367.55375111869307 L 394.94624634506647 368.8584523387394 L 393.7731218813687 370.1631535587858 L 392.56216663966774 371.46785477883213 L 391.3260681487532 372.7725559988785 L 390.07734525504816 374.0772572189249 L 388.8280377508707 375.38195843897125 L 387.58950142572513 376.6866596590176 L 386.3721779557289 377.99136087906396 L 385.1856879064208 379.2960620991104 L 384.0381340511646 380.6007633191567 L 382.93694290297265 381.9054645392031 L 381.88833097189973 383.2101657592495 L 380.89670524249595 384.51486697929585 L 379.9656233092718 385.8195681993422 L 379.0975653610323 387.12426941938855 L 378.2938410513592 388.42897063943497 L 377.5545457854282 389.7336718594813 L 376.8790158207394 391.0383730795277 L 376.26618356023135 392.343074299574 L 375.713968922709 393.6477755196204 L 375.21938357530826 394.9524767396668 L 374.7794697725107 396.25717795971315 L 374.39092056718283 397.56187917975956 L 374.0496326096057 398.86658039980585 L 373.75224744763483 400.17128161985227 L 373.4946256040368 401.4759828398986 L 373.27318425672405 402.780684059945 L 373.0835921877314 404.0853852799913 L 372.9231260550252 405.39008650003774 L 372.78804534491775 406.6947877200841 L 372.6748443555625 407.99948894013045 L 372.58111479976236 409.30419016017686 L 372.503470403162 410.6088913802232 L 372.4402633202752 411.91359260026957 L 372.3886525236021 413.2182938203159 L 372.34703725579396 414.52299504036233 L 372.3137102091195 415.8276962604087 L 372.2871739211264 417.13239748045504 L 372.26635004284174 418.4370987005014 L 372.2500198481989 419.7417999205478 L 372.2375064398188 421.04650114059416 L 372.2280291505074 422.3512023606405 L 372.2206252230534 423.65590358068687 L 372.2151735805165 424.9606048007332 L 372.21076415599657 426.26530602077963 Z" stroke="black" stroke-width="0.5" fill="steelblue" /><path d="M 572.148731070637 322.77856183340225 L 572.1107383313855 321.54253913229707 L 572.0488776360274 320.306516431192 L 571.9526364222771 319.0704937300868 L 571.8054164582088 317.83447102898174 L 571.5879442310812 316.5984483278766 L 571.2745838036204 315.3624256267715 L 570.8372525363453 314.1264029256664 L 570.2439150773054 312.8903802245612 L 569.4616747047485 311.65435752345616 L 568.460486886133 310.41833482235097 L 567.2164540318314 309.1823121212459 L 565.7151158067155 307.9462894201408 L 563.9571128934633 306.71026671903564 L 561.9596738332889 305.4742440179305 L 559.7591921308511 304.2382213168254 L 557.4106728003228 303.0021986157203 L 554.9859390331347 301.7661759146152 L 552.5682240666214 300.53015321351006 L 550.2461763391096 299.29413051240493 L 548.1061869431884 298.0581078112998 L 546.2268022014692 296.8220851101947 L 544.6708339682835 295.58606240908955 L 543.4809663670624 294.3500397079845 L 542.6775117059775 293.1140170068793 L 542.2583679936462 291.8779943057742 L 542.2 290.6419716046691 L 542.462322836895 289.40594890356397 L 542.993832871312 288.16992620245884 L 543.7359133237157 286.9339035013537 L 544.6297856404161 285.69788080024864 L 545.6205398639852 284.4618580991435 L 546.66107249036 283.2258353980384 L 547.7147112230651 281.98981269693326 L 548.7545735496266 280.75378999582813 L 549.7649872023653 279.517767294723 L 550.738205699625 278.2817445936179 L 551.6716939560802 277.0457218925128 L 552.565865158919 275.8096991914077 L 553.4213085199681 274.57367649030255 L 554.2370402670072 273.3376537891974 L 555.0098310261949 272.1016310880923 L 555.7341213506047 270.86560838698716 L 556.4020742341055 269.62958568588203 L 557.0069360121623 268.3935629847769 L 557.5449226554257 267.1575402836718 L 558.0135902030717 265.9215175825667 L 558.4154610976194 264.6854948814616 L 558.7563018888059 263.44947218035645 L 559.044896165485 262.2134494792513 L 559.2927088771944 260.9774267781462 L 559.5125827301631 259.7414040770411 L 559.7172174524673 258.50538137593594 L 559.9187178272512 257.26935867483087 L 560.1282592844256 256.0333359737257 L 560.3556397796029 254.7973132726206 L 560.6086205838324 253.56129057151549 L 560.8921060898092 252.32526787041039 L 561.2083103915479 251.08924516930523 L 561.5563255735199 249.85322246820013 L 561.9317894368054 248.61719976709503 L 562.3288187772789 247.38117706598987 L 562.7381786180076 246.14515436488477 L 563.1509925804485 244.90913166377962 L 563.5592312217223 243.67310896267452 L 563.9561620069344 242.4370862615694 L 564.338606235745 241.2010635604643 L 564.7053941251636 239.96504085935914 L 565.0580704413433 238.72901815825404 L 565.3993402518005 237.49299545714894 L 565.7321479057903 236.2569727560438 L 566.0592856419187 235.02095005493862 L 566.3814817538196 233.78492735383355 L 566.697786041968 232.54890465272842 L 567.0057443347134 231.3128819516233 L 567.3023432932126 230.07685925051817 L 567.5845809738514 228.8408365494131 L 567.8500331727076 227.60481384830797 L 568.0982638896471 226.3687911472029 L 568.3295804930601 225.1327684460977 L 568.5462153930816 223.8967457449926 L 568.7505658259189 222.66072304388751 L 568.9450980770725 221.4247003427824 L 569.1315134478249 220.18867764167726 L 569.310361654201 218.95265494057213 L 569.4807567018647 217.716632239467 L 569.6402554529708 216.48060953836188 L 569.7868570918712 215.24458683725675 L 569.9180410968219 214.00856413615162 L 570.032982192672 212.7725414350465 L 570.1317301215485 211.53651873394136 L 570.2161044030636 210.3004960328363 L 570.2895616559939 209.06447333173116 L 570.3558902117712 207.82845063062604 L 570.4196660369887 206.5924279295209 L 570.4843572489849 205.35640522841578 L 570.5524394002153 204.12038252731065 L 570.6247389040309 202.88435982620553 L 570.7006857573532 201.6483371251004 L 570.7783561555392 200.41231442399527 L 570.8547091720726 199.1762917228902 L 570.9264801617849 197.94026902178507 L 570.9901011481533 196.70424632068 L 571.0427469515319 195.46822361957487 L 571.0822289446943 194.23220091846974 L 571.1072533944076 192.99617821736462 L 571.1171316150524 191.7601555162595 L 571.1122008897265 190.52413281515436 L 571.093553994961 189.28811011404923 L 571.0633672284501 188.0520874129441 L 571.0246261840581 186.81606471183898 L 570.9809641289831 185.58004201073385 L 570.9369256607349 184.34401930962878 L 570.8973802527869 183.10799660852365 L 570.8671178827526 181.87197390741852 L 570.8509561242586 180.6359512063134 L 570.8525855219718 179.39992850520827 L 570.8747475883487 178.16390580410314 L 570.9178207453248 176.927883102998 L 570.9815052841021 175.69186040189288 L 571.0632224155655 174.45583770078775 L 571.1590911742286 173.21981499968268 L 571.2638498902105 171.9837922985775 L 571.3718713683518 170.74776959747243 L 571.4771955714817 169.5117468963673 L 571.5741084498368 168.27572419526217 L 571.6577495463112 167.03970149415704 L 571.724303991709 165.80367879305197 L 571.7710567268393 164.56765609194684 L 571.7968878548412 163.33163339084172 L 571.801734298111 162.0956106897366 L 571.7871713164072 160.85958798863146 L 571.7555170374642 159.6235652875264 L 571.7102423525349 158.3875425864212 L 571.6553989369108 157.15151988531613 L 571.595478414949 155.915497184211 L 571.5349826110975 154.67947448310588 L 571.4783911864633 153.44345178200075 L 571.4297178628923 152.20742908089562 L 571.3922056938607 150.9714063797905 L 571.3683152241002 149.73538367868537 L 571.3593057978371 148.4993609775803 L 571.3655184836598 147.2633382764751 L 571.3862675125033 146.02731557537004 L 571.4197697483664 144.7912928742649 L 571.4637670430118 143.55527017315978 L 571.5152975753723 142.31924747205466 L 571.5715650697438 141.08322477094953 L 571.6298381723813 139.8472020698444 L 571.687704395059 138.61117936873927 L 571.7435348527054 137.3751566676342 L 571.7961147509048 136.13913396652902 L 571.844824334404 134.90311126542395 L 571.8893950231234 133.66708856431882 L 571.9297783987622 132.43106586321375 L 571.9661424628852 131.19504316210862 L 571.9984554565239 129.9590204610035 L 572.0264723920997 128.72299775989836 L 572.0497546177444 127.48697505879323 L 572.0675548536595 126.2509523576881 L 572.0792247785083 125.01492965658298 L 572.0836910784708 123.77890695547791 L 572.0800365939507 122.54288425437272 L 572.067438155601 121.30686155326765 L 572.045229318133 120.07083885216247 L 572.0128334281179 118.8348161510574 L 571.9702700213754 117.59879344995227 L 571.9178717744827 116.36277074884714 L 571.8565500322808 115.12674804774201 L 571.7880311628445 113.89072534663688 L 571.7145348703153 112.65470264553176 L 571.6391565806625 111.41867994442669 L 571.5654926479466 110.18265724332156 L 571.4975148381939 108.94663454221643 L 571.4392717452654 107.7106118411113 L 571.3945277856201 106.47458914000617 L 571.3663836898428 105.23856643890105 L 571.3569669656226 104.00254373779592 L 571.3670301169196 102.76652103669085 L 571.3960975283942 101.53049833558572 L 571.4423050929319 100.29447563448059 L 571.502667765804 99.05845293337546 L 571.5734063159881 97.82243023227039 L 571.6503484460882 96.58640753116526 L 571.7293432255946 95.35038483006014 L 571.8066304742526 94.11436212895501 L 571.8791200724063 92.87833942784988 L 571.9445561845935 91.64231672674475 L 572.0015630470514 90.40629402563962 L 572.0495876635518 89.1702713245345 L 572.0887673202442 87.93424862342937 L 572.1197550619903 86.69822592232424 L 572.143534783051 85.46220322121917 L 572.1612512432798 84.22618052011404 L 572.1740715175423 82.99015781900891 L 572.183130676428 81.75413511790373 L 572.1892668130907 80.51811241679866 L 572.1933456678321 79.28208971569353 L 572.1959807105349 78.04606701458846 L 572.1976352565628 76.81004431348333 L 572.2023647434373 76.81004431348333 L 572.2040192894652 78.04606701458846 L 572.206654332168 79.28208971569353 L 572.2107331869094 80.51811241679866 L 572.216869323572 81.75413511790373 L 572.2259284824578 82.99015781900891 L 572.2387487567203 84.22618052011404 L 572.2564652169491 85.46220322121917 L 572.2802449380098 86.69822592232424 L 572.3112326797559 87.93424862342937 L 572.3504123364482 89.1702713245345 L 572.3984369529487 90.40629402563962 L 572.4554438154066 91.64231672674475 L 572.5208799275938 92.87833942784988 L 572.5933695257474 94.11436212895501 L 572.6706567744055 95.35038483006014 L 572.7496515539119 96.58640753116526 L 572.826593684012 97.82243023227039 L 572.8973322341961 99.05845293337546 L 572.9576949070682 100.29447563448059 L 573.0039024716059 101.53049833558572 L 573.0329698830805 102.76652103669085 L 573.0430330343775 104.00254373779592 L 573.0336163101573 105.23856643890105 L 573.00547221438 106.47458914000617 L 572.9607282547347 107.7106118411113 L 572.9024851618062 108.94663454221643 L 572.8345073520535 110.18265724332156 L 572.7608434193376 111.41867994442669 L 572.6854651296848 112.65470264553176 L 572.6119688371556 113.89072534663688 L 572.5434499677193 115.12674804774201 L 572.4821282255174 116.36277074884714 L 572.4297299786247 117.59879344995227 L 572.3871665718822 118.8348161510574 L 572.3547706818671 120.07083885216247 L 572.332561844399 121.30686155326765 L 572.3199634060494 122.54288425437272 L 572.3163089215293 123.77890695547791 L 572.3207752214918 125.01492965658298 L 572.3324451463405 126.2509523576881 L 572.3502453822557 127.48697505879323 L 572.3735276079004 128.72299775989836 L 572.4015445434762 129.9590204610035 L 572.4338575371149 131.19504316210862 L 572.4702216012379 132.43106586321375 L 572.5106049768767 133.66708856431882 L 572.555175665596 134.90311126542395 L 572.6038852490952 136.13913396652902 L 572.6564651472947 137.3751566676342 L 572.7122956049411 138.61117936873927 L 572.7701618276188 139.8472020698444 L 572.8284349302563 141.08322477094953 L 572.8847024246278 142.31924747205466 L 572.9362329569883 143.55527017315978 L 572.9802302516337 144.7912928742649 L 573.0137324874968 146.02731557537004 L 573.0344815163403 147.2633382764751 L 573.040694202163 148.4993609775803 L 573.0316847758999 149.73538367868537 L 573.0077943061394 150.9714063797905 L 572.9702821371078 152.20742908089562 L 572.9216088135367 153.44345178200075 L 572.8650173889026 154.67947448310588 L 572.8045215850511 155.915497184211 L 572.7446010630892 157.15151988531613 L 572.6897576474652 158.3875425864212 L 572.6444829625359 159.6235652875264 L 572.6128286835929 160.85958798863146 L 572.5982657018891 162.0956106897366 L 572.6031121451589 163.33163339084172 L 572.6289432731608 164.56765609194684 L 572.6756960082911 165.80367879305197 L 572.7422504536889 167.03970149415704 L 572.8258915501633 168.27572419526217 L 572.9228044285184 169.5117468963673 L 573.0281286316483 170.74776959747243 L 573.1361501097896 171.9837922985775 L 573.2409088257715 173.21981499968268 L 573.3367775844346 174.45583770078775 L 573.418494715898 175.69186040189288 L 573.4821792546753 176.927883102998 L 573.5252524116514 178.16390580410314 L 573.5474144780283 179.39992850520827 L 573.5490438757415 180.6359512063134 L 573.5328821172475 181.87197390741852 L 573.5026197472132 183.10799660852365 L 573.4630743392652 184.34401930962878 L 573.419035871017 185.58004201073385 L 573.375373815942 186.81606471183898 L 573.33663277155 188.0520874129441 L 573.3064460050391 189.28811011404923 L 573.2877991102736 190.52413281515436 L 573.2828683849477 191.7601555162595 L 573.2927466055925 192.99617821736462 L 573.3177710553058 194.23220091846974 L 573.3572530484682 195.46822361957487 L 573.4098988518468 196.70424632068 L 573.4735198382152 197.94026902178507 L 573.5452908279275 199.1762917228902 L 573.6216438444609 200.41231442399527 L 573.6993142426469 201.6483371251004 L 573.7752610959692 202.88435982620553 L 573.8475605997847 204.12038252731065 L 573.9156427510152 205.35640522841578 L 573.9803339630114 206.5924279295209 L 574.0441097882289 207.82845063062604 L 574.1104383440062 209.06447333173116 L 574.1838955969365 210.3004960328363 L 574.2682698784516 211.53651873394136 L 574.3670178073281 212.7725414350465 L 574.4819589031782 214.00856413615162 L 574.6131429081289 215.24458683725675 L 574.7597445470293 216.48060953836188 L 574.9192432981354 217.716632239467 L 575.0896383457991 218.95265494057213 L 575.2684865521752 220.18867764167726 L 575.4549019229275 221.4247003427824 L 575.6494341740812 222.66072304388751 L 575.8537846069185 223.8967457449926 L 576.07041950694 225.1327684460977 L 576.301736110353 226.3687911472029 L 576.5499668272925 227.60481384830797 L 576.8154190261487 228.8408365494131 L 577.0976567067875 230.07685925051817 L 577.3942556652867 231.3128819516233 L 577.7022139580321 232.54890465272842 L 578.0185182461805 233.78492735383355 L 578.3407143580814 235.02095005493862 L 578.6678520942098 236.2569727560438 L 579.0006597481996 237.49299545714894 L 579.3419295586568 238.72901815825404 L 579.6946058748365 239.96504085935914 L 580.0613937642551 241.2010635604643 L 580.4438379930657 242.4370862615694 L 580.8407687782778 243.67310896267452 L 581.2490074195516 244.90913166377962 L 581.6618213819925 246.14515436488477 L 582.0711812227212 247.38117706598987 L 582.4682105631947 248.61719976709503 L 582.8436744264802 249.85322246820013 L 583.1916896084522 251.08924516930523 L 583.5078939101909 252.32526787041039 L 583.7913794161677 253.56129057151549 L 584.0443602203972 254.7973132726206 L 584.2717407155745 256.0333359737257 L 584.4812821727489 257.26935867483087 L 584.6827825475328 258.50538137593594 L 584.887417269837 259.7414040770411 L 585.1072911228057 260.9774267781462 L 585.355103834515 262.2134494792513 L 585.6436981111942 263.44947218035645 L 585.9845389023807 264.6854948814616 L 586.3864097969284 265.9215175825667 L 586.8550773445744 267.1575402836718 L 587.3930639878378 268.3935629847769 L 587.9979257658946 269.62958568588203 L 588.6658786493954 270.86560838698716 L 589.3901689738052 272.1016310880923 L 590.1629597329929 273.3376537891974 L 590.978691480032 274.57367649030255 L 591.8341348410811 275.8096991914077 L 592.7283060439199 277.0457218925128 L 593.661794300375 278.2817445936179 L 594.6350127976348 279.517767294723 L 595.6454264503735 280.75378999582813 L 596.685288776935 281.98981269693326 L 597.7389275096401 283.2258353980384 L 598.7794601360149 284.4618580991435 L 599.770214359584 285.69788080024864 L 600.6640866762843 286.9339035013537 L 601.4061671286881 288.16992620245884 L 601.937677163105 289.40594890356397 L 602.2 290.6419716046691 L 602.1416320063539 291.8779943057742 L 601.7224882940226 293.1140170068793 L 600.9190336329377 294.3500397079845 L 599.7291660317165 295.58606240908955 L 598.1731977985309 296.8220851101947 L 596.2938130568117 298.0581078112998 L 594.1538236608905 299.29413051240493 L 591.8317759333787 300.53015321351006 L 589.4140609668653 301.7661759146152 L 586.9893271996773 303.0021986157203 L 584.640807869149 304.2382213168254 L 582.4403261667112 305.4742440179305 L 580.4428871065368 306.71026671903564 L 578.6848841932846 307.9462894201408 L 577.1835459681687 309.1823121212459 L 575.9395131138671 310.41833482235097 L 574.9383252952516 311.65435752345616 L 574.1560849226947 312.8903802245612 L 573.5627474636548 314.1264029256664 L 573.1254161963797 315.3624256267715 L 572.8120557689189 316.5984483278766 L 572.5945835417913 317.83447102898174 L 572.447363577723 319.0704937300868 L 572.3511223639726 320.306516431192 L 572.2892616686146 321.54253913229707 L 572.251268929363 322.77856183340225 Z" stroke="black" stroke-width="0.5" fill="steelblue" /></svg>