<svg xmlns="http://www.w3.org/2000/svg" width="686.2" height="545" font-family="DejaVu Sans, Liberation Sans, Arial, sans-serif" fill="black"><rect width="100%" height="100%" fill="white" /><line x1="72.19999999999999" y1="494" x2="672.2" y2="494" stroke="black" stroke-width="1" /><line x1="72.19999999999999" y1="44" x2="72.19999999999999" y2="494" stroke="black" stroke-width="1" /><line x1="72.19999999999999" y1="301.14285714285717" x2="672.2" y2="301.14285714285717" stroke="#ccc" stroke-width="1" /><line x1="72.19999999999999" y1="172.57142857142856" x2="672.2" y2="172.57142857142856" stroke="#ccc" stroke-width="1" /><line x1="72.19999999999999" y1="44" x2="672.2" y2="44" stroke="#ccc" stroke-width="1" /><text x="172.2" y="511" font-size="12" text-anchor="middle">Normal</text><line x1="172.2" y1="494" x2="172.2" y2="499" stroke="black" stroke-width="1" /><text x="372.2" y="511" font-size="12" text-anchor="middle">Bimodal</text><line x1="372.2" y1="494" x2="372.2" y2="499" stroke="black" stroke-width="1" /><text x="572.2" y="511" font-size="12" text-anchor="middle">Skewed</text><line x1="572.2" y1="494" x2="572.2" y2="499" stroke="black" stroke-width="1" /><line x1="67.19999999999999" y1="429.7142857142857" x2="72.19999999999999" y2="429.7142857142857" stroke="black" stroke-width="1" /><text x="64.19999999999999" y="433.9142857142857" font-size="12" text-anchor="end">-5</text><line x1="67.19999999999999" y1="301.14285714285717" x2="72.19999999999999" y2="301.14285714285717" stroke="black" stroke-width="1" /><text x="64.19999999999999" y="305.34285714285716" font-size="12" text-anchor="end">0</text><line x1="67.19999999999999" y1="172.57142857142856" x2="72.19999999999999" y2="172.57142857142856" stroke="black" stroke-width="1" /><text x="64.19999999999999" y="176.77142857142854" font-size="12" text-anchor="end">5</text><line x1="67.19999999999999" y1="44" x2="72.19999999999999" y2="44" stroke="black" stroke-width="1" /><text x="64.19999999999999" y="48.2" font-size="12" text-anchor="end">10</text><text x="14" y="272.5" font-size="14" text-anchor="middle" transform="rotate(-90,14,272.5)">Value</text><text x="343.1" y="22" font-size="18" text-anchor="middle">Violin + Swarm Overlay</text><path d="M 172.19160814012483 387.1093748394731 L 172.18784442936555 386.18607593487036 L 172.1826707422014 385.26277703026767 L 172.17542929895234 384.339478125665 L 172.16600198310937 383.41617922106224 L 172.15368333389807 382.49288031645955 L 172.137870459902 381.5695814118568 L 172.1179325710462 380.6462825072541 L 172.09324305680838 379.7229836026514 L 172.06281281389298 378.7996846980487 L 172.02631330580454 377.876385793446 L 171.98338527489483 376.95308688884325 L 171.93389419047324 376.02978798424056 L 171.87723376005863 375.1064890796378 L 171.81395480189042 374.18319017503507 L 171.74409684278868 373.2598912704324 L 171.66804929419163 372.3365923658297 L 171.58629297701637 371.41329346122694 L 171.49932389111996 370.48999455662425 L 171.40756369401205 369.5666956520215 L 171.31126770182945 368.6433967474188 L 171.2101443145647 367.72009784281613 L 171.1043081579331 366.7967989382134 L 170.992929246619 365.8735000336107 L 170.87478421417515 364.95020112900795 L 170.74870744068582 364.02690222440526 L 170.6137853935394 363.1036033198026 L 170.46857622514852 362.1803044151998 L 170.31216118725243 361.2570055105971 L 170.14413080560294 360.3337066059944 L 169.9647815093586 359.4104077013917 L 169.7752673865243 358.48710879678896 L 169.5773896100933 357.5638098921862 L 169.3745817985963 356.6405109875835 L 169.16965261812877 355.71721208298084 L 168.9679742750638 354.7939131783781 L 168.77303709170658 353.87061427377535 L 168.58987904106414 352.94731536917266 L 168.4232941390132 352.02401646456997 L 168.27534751805368 351.1007175599672 L 168.1475702048882 350.17741865536453 L 168.0418163940775 349.2541197507618 L 167.9549777213474 348.3308208461591 L 167.8849897678407 347.4075219415564 L 167.82607975964243 346.48422303695367 L 167.77157999904503 345.5609241323509 L 167.71345967237605 344.63762522774823 L 167.642414609208 343.71432632314554 L 167.54789016444028 342.79102741854285 L 167.4179427100317 341.8677285139401 L 167.24180101043606 340.94442960933736 L 167.00962004075814 340.0211307047347 L 166.70909265317206 339.097831800132 L 166.33234585580547 338.17453289552924 L 165.87032393801735 337.25123399092655 L 165.31689863479525 336.3279350863238 L 164.66815120587395 335.4046361817211 L 163.92297960321164 334.4813372771184 L 163.08322816991853 333.5580383725157 L 162.1559690400094 332.63473946791294 L 161.15058009215366 331.71144056331025 L 160.0797609208467 330.78814165870756 L 158.96146831058923 329.86484275410487 L 157.81428418590585 328.94154384950207 L 156.65944307374667 328.0182449448994 L 155.51908128925368 327.0949460402967 L 154.41517475285858 326.171647135694 L 153.36759241359437 325.24834823109126 L 152.39193071305897 324.32504932648857 L 151.50165368751823 323.4017504218858 L 150.70501568225805 322.47845151728313 L 150.0045357944687 321.5551526126804 L 149.39857778392064 320.63185370807764 L 148.88111864078428 319.70855480347495 L 148.44082294550086 318.78525589887226 L 148.063325355735 317.8619569942695 L 147.73475158550804 316.9386580896668 L 147.4373515283658 316.0153591850641 L 147.15583552686599 315.0920602804614 L 146.87592628342927 314.1687613758587 L 146.58594788276974 313.24546247125596 L 146.2773317125107 312.3221635666532 L 145.9450357876571 311.3988646620505 L 145.5881527236054 310.47556575744784 L 145.20880250388498 309.5522668528451 L 144.8124372734635 308.6289679482424 L 144.4072965058106 307.70566904363966 L 144.00321778655024 306.78237013903697 L 143.61255957848027 305.8590712344343 L 143.24662780568156 304.9357723298315 L 142.91810066495225 304.0124734252288 L 142.63855227164774 303.0891745206261 L 142.41963986812704 302.1658756160234 L 142.27053133970335 301.2425767114207 L 142.2 300.319277806818 L 142.21546003617772 299.39597890221523 L 142.3229270390994 298.47267999761254 L 142.5269721970257 297.54938109300986 L 142.8312900652253 296.6260821884071 L 143.23699019519867 295.7027832838044 L 143.74195938223164 294.7794843792017 L 144.3456106930352 293.856185474599 L 145.04159622089122 292.93288656999624 L 145.8238439896769 292.0095876653935 L 146.67991662641987 291.0862887607908 L 147.59753251306387 290.1629898561881 L 148.56104523778686 289.23969095158543 L 149.55281545176575 288.3163920469827 L 150.5554251225758 287.39309314238 L 151.54946605525072 286.46979423777725 L 152.5185012050697 285.54649533317456 L 153.44719228527916 284.6231964285718 L 154.32356738954607 283.6998975239691 L 155.13731855409975 282.7765986193664 L 155.88349974944416 281.8532997147637 L 156.56115856365804 280.93000081016095 L 157.17128262906394 280.00670190555826 L 157.7209437307184 279.0834030009555 L 158.21825105912333 278.1601040963528 L 158.67238973717667 277.2368051917501 L 159.09375281044532 276.3135062871474 L 159.49258445110345 275.39020738254465 L 159.87784893604902 274.46690847794196 L 160.25654601617663 273.54360957333927 L 160.63616171614757 272.6203106687366 L 161.01790812199303 271.6970117641338 L 161.40419854654004 270.7737128595311 L 161.79450087726914 269.8504139549284 L 162.1870976868376 268.9271150503257 L 162.57883678395484 268.00381614572296 L 162.9665672441681 267.08051724112033 L 163.34825915869362 266.15721833651753 L 163.72169836153515 265.23391943191484 L 164.08462174534475 264.3106205273121 L 164.43789391461405 263.3873216227094 L 164.78207859977795 262.46402271810666 L 165.118009878689 261.540723813504 L 165.4490922167619 260.6174249089013 L 165.7788029707191 259.69412600429854 L 166.10911729771348 258.7708270996958 L 166.44310940951468 257.8475281950931 L 166.78305810373377 256.9242292904904 L 167.1299040929779 256.0009303858876 L 167.48282297631823 255.07763148128498 L 167.84105091609348 254.1543325766822 L 168.20275663589186 253.23103367207955 L 168.56390177388786 252.3077347674768 L 168.92126542452866 251.38443586287408 L 169.27063917521284 250.46113695827137 L 169.60791939846226 249.5378380536687 L 169.92858293909464 248.61453914906593 L 170.2297801115968 247.69124024446327 L 170.50710974769007 246.76794133986053 L 170.75938146044595 245.8446424352578 L 170.9843010080623 244.9213435306551 L 171.18121085385079 243.99804462605243 L 171.34999806219935 243.07474572144966 L 171.49096423472935 242.151446816847 L 171.60484235959902 241.22814791224422 L 171.69369112362978 240.30484900764154 L 171.75811593460537 239.38155010303882 L 171.80062005446362 238.4582511984361 L 171.82322601822318 237.53495229383338 L 171.82860253114288 236.6116533892307 L 171.8179356352631 235.68835448462795 L 171.79469500772663 234.76505558002526 L 171.7608711496287 233.84175667542257 L 171.71956036879237 232.91845777081983 L 171.6735588630329 231.99515886621708 L 171.62571350055578 231.07185996161445 L 171.5788457129151 230.14856105701165 L 171.5358386690155 229.22526215240902 L 171.4987224553192 228.3019632478062 L 171.4703939414485 227.37866434320358 L 171.45135542216013 226.45536543860084 L 171.44350290118476 225.5320665339981 L 171.44735494597526 224.6087676293954 L 171.46283430225589 223.68546872479266 L 171.48928729094325 222.76216982018997 L 171.5257473846685 221.83887091558722 L 171.5701410195525 220.9155720109846 L 171.62090275945073 219.9922731063818 L 171.67598086174831 219.0689742017791 L 171.73330807642478 218.14567529717635 L 171.79092691569988 217.22237639257366 L 171.84709402711664 216.29907748797098 L 171.90035668312126 215.37577858336823 L 171.9495980732346 214.45247967876554 L 171.9940516957964 213.52918077416285 L 172.03328823182264 212.60588186956005 L 172.06718051906228 211.68258296495742 L 172.09585347513936 210.75928406035467 L 172.11962605766394 209.83598515575198 L 172.1389517467266 208.91268625114924 L 172.15436283088727 207.98938734654655 L 172.16642224658298 207.0660884419438 L 172.17568512410284 206.14278953734112 L 172.1826707422014 205.21949063273837 L 172.18784442936555 204.29619172813568 L 172.19160814012483 203.372892823533 L 172.20839185987515 203.372892823533 L 172.21215557063442 204.29619172813568 L 172.21732925779858 205.21949063273837 L 172.22431487589714 206.14278953734112 L 172.233577753417 207.0660884419438 L 172.2456371691127 207.98938734654655 L 172.26104825327337 208.91268625114924 L 172.28037394233604 209.83598515575198 L 172.3041465248606 210.75928406035467 L 172.3328194809377 211.68258296495742 L 172.36671176817734 212.60588186956005 L 172.40594830420358 213.52918077416285 L 172.45040192676538 214.45247967876554 L 172.49964331687872 215.37577858336823 L 172.55290597288334 216.29907748797098 L 172.6090730843001 217.22237639257366 L 172.6666919235752 218.14567529717635 L 172.72401913825166 219.0689742017791 L 172.77909724054925 219.9922731063818 L 172.82985898044748 220.9155720109846 L 172.87425261533147 221.83887091558722 L 172.91071270905672 222.76216982018997 L 172.9371656977441 223.68546872479266 L 172.9526450540247 224.6087676293954 L 172.95649709881522 225.5320665339981 L 172.94864457783984 226.45536543860084 L 172.92960605855149 227.37866434320358 L 172.90127754468077 228.3019632478062 L 172.86416133098447 229.22526215240902 L 172.82115428708488 230.14856105701165 L 172.7742864994442 231.07185996161445 L 172.72644113696708 231.99515886621708 L 172.6804396312076 232.91845777081983 L 172.63912885037126 233.84175667542257 L 172.60530499227335 234.76505558002526 L 172.58206436473688 235.68835448462795 L 172.5713974688571 236.6116533892307 L 172.5767739817768 237.53495229383338 L 172.59937994553636 238.4582511984361 L 172.6418840653946 239.38155010303882 L 172.7063088763702 240.30484900764154 L 172.79515764040096 241.22814791224422 L 172.90903576527063 242.151446816847 L 173.05000193780063 243.07474572144966 L 173.2187891461492 243.99804462605243 L 173.4156989919377 244.9213435306551 L 173.64061853955403 245.8446424352578 L 173.8928902523099 246.76794133986053 L 174.17021988840318 247.69124024446327 L 174.47141706090534 248.61453914906593 L 174.79208060153772 249.5378380536687 L 175.12936082478714 250.46113695827137 L 175.47873457547132 251.38443586287408 L 175.8360982261121 252.3077347674768 L 176.19724336410812 253.23103367207955 L 176.5589490839065 254.1543325766822 L 176.91717702368175 255.07763148128498 L 177.27009590702207 256.0009303858876 L 177.6169418962662 256.9242292904904 L 177.9568905904853 257.8475281950931 L 178.2908827022865 258.7708270996958 L 178.62119702928086 259.69412600429854 L 178.95090778323808 260.6174249089013 L 179.28199012131097 261.540723813504 L 179.61792140022203 262.46402271810666 L 179.96210608538593 263.3873216227094 L 180.31537825465523 264.3106205273121 L 180.67830163846483 265.23391943191484 L 181.05174084130635 266.15721833651753 L 181.4334327558319 267.08051724112033 L 181.82116321604514 268.00381614572296 L 182.21290231316237 268.9271150503257 L 182.60549912273083 269.8504139549284 L 182.99580145345993 270.7737128595311 L 183.38209187800695 271.6970117641338 L 183.7638382838524 272.6203106687366 L 184.14345398382335 273.54360957333927 L 184.52215106395096 274.46690847794196 L 184.90741554889652 275.39020738254465 L 185.30624718955465 276.3135062871474 L 185.7276102628233 277.2368051917501 L 186.18174894087664 278.1601040963528 L 186.67905626928157 279.0834030009555 L 187.22871737093604 280.00670190555826 L 187.83884143634194 280.93000081016095 L 188.51650025055582 281.8532997147637 L 189.26268144590023 282.7765986193664 L 190.0764326104539 283.6998975239691 L 190.95280771472082 284.6231964285718 L 191.88149879493028 285.54649533317456 L 192.85053394474926 286.46979423777725 L 193.84457487742418 287.39309314238 L 194.84718454823422 288.3163920469827 L 195.83895476221312 289.23969095158543 L 196.8024674869361 290.1629898561881 L 197.7200833735801 291.0862887607908 L 198.57615601032307 292.0095876653935 L 199.35840377910876 292.93288656999624 L 200.05438930696477 293.856185474599 L 200.65804061776834 294.7794843792017 L 201.1630098048013 295.7027832838044 L 201.5687099347747 296.6260821884071 L 201.87302780297426 297.54938109300986 L 202.07707296090058 298.47267999761254 L 202.18453996382226 299.39597890221523 L 202.2 300.319277806818 L 202.12946866029662 301.2425767114207 L 201.98036013187294 302.1658756160234 L 201.76144772835224 303.0891745206261 L 201.48189933504773 304.0124734252288 L 201.15337219431842 304.9357723298315 L 200.7874404215197 305.8590712344343 L 200.39678221344974 306.78237013903697 L 199.99270349418939 307.70566904363966 L 199.58756272653648 308.6289679482424 L 199.191197496115 309.5522668528451 L 198.8118472763946 310.47556575744784 L 198.45496421234287 311.3988646620505 L 198.1226682874893 312.3221635666532 L 197.81405211723023 313.24546247125596 L 197.5240737165707 314.1687613758587 L 197.244164473134 315.0920602804614 L 196.96264847163417 316.0153591850641 L 196.66524841449194 316.9386580896668 L 196.33667464426497 317.8619569942695 L 195.95917705449912 318.78525589887226 L 195.5188813592157 319.70855480347495 L 195.00142221607933 320.63185370807764 L 194.39546420553128 321.5551526126804 L 193.69498431774193 322.47845151728313 L 192.89834631248175 323.4017504218858 L 192.008069286941 324.32504932648857 L 191.0324075864056 325.24834823109126 L 189.9848252471414 326.171647135694 L 188.8809187107463 327.0949460402967 L 187.7405569262533 328.0182449448994 L 186.58571581409413 328.94154384950207 L 185.43853168941075 329.86484275410487 L 184.32023907915328 330.78814165870756 L 183.24941990784632 331.71144056331025 L 182.24403095999057 332.63473946791294 L 181.31677183008145 333.5580383725157 L 180.47702039678833 334.4813372771184 L 179.73184879412602 335.4046361817211 L 179.08310136520473 336.3279350863238 L 178.52967606198263 337.25123399092655 L 178.0676541441945 338.17453289552924 L 177.6909073468279 339.097831800132 L 177.39037995924184 340.0211307047347 L 177.1581989895639 340.94442960933736 L 176.98205728996828 341.8677285139401 L 176.8521098355597 342.79102741854285 L 176.75758539079197 343.71432632314554 L 176.68654032762393 344.63762522774823 L 176.62842000095495 345.5609241323509 L 176.57392024035755 346.48422303695367 L 176.51501023215928 347.4075219415564 L 176.44502227865257 348.3308208461591 L 176.35818360592248 349.2541197507618 L 176.25242979511177 350.17741865536453 L 176.1246524819463 351.1007175599672 L 175.97670586098678 352.02401646456997 L 175.81012095893584 352.94731536917266 L 175.6269629082934 353.87061427377535 L 175.43202572493618 354.7939131783781 L 175.2303473818712 355.71721208298084 L 175.02541820140368 356.6405109875835 L 174.82261038990669 357.5638098921862 L 174.6247326134757 358.48710879678896 L 174.43521849064138 359.4104077013917 L 174.25586919439704 360.3337066059944 L 174.08783881274755 361.2570055105971 L 173.93142377485145 362.1803044151998 L 173.7862146064606 363.1036033198026 L 173.65129255931416 364.02690222440526 L 173.52521578582483 364.95020112900795 L 173.40707075338096 365.8735000336107 L 173.29569184206687 366.7967989382134 L 173.18985568543528 367.72009784281613 L 173.08873229817053 368.6433967474188 L 172.99243630598792 369.5666956520215 L 172.90067610888002 370.48999455662425 L 172.8137070229836 371.41329346122694 L 172.73195070580834 372.3365923658297 L 172.6559031572113 373.2598912704324 L 172.58604519810956 374.18319017503507 L 172.52276623994135 375.1064890796378 L 172.46610580952674 376.02978798424056 L 172.41661472510515 376.95308688884325 L 172.37368669419544 377.876385793446 L 172.337187186107 378.7996846980487 L 172.3067569431916 379.7229836026514 L 172.28206742895378 380.6462825072541 L 172.262129540098 381.5695814118568 L 172.2463166661019 382.49288031645955 L 172.2339980168906 383.41617922106224 L 172.22457070104764 384.339478125665 L 172.21732925779858 385.26277703026767 L 172.21215557063442 386.18607593487036 L 172.20839185987515 387.1093748394731 Z" stroke="black" stroke-width="0.5" fill="steelblue" /><path d="M 372.18858841943893 440.07700510128166 L 372.1850757995651 438.6344498749908 L 372.18066026657317 437.1918946487 L 372.17455153205407 435.74933942240915 L 372.16721844258694 434.3067841961183 L 372.1581043411302 432.8642289698275 L 372.14605135031223 431.42167374353664 L 372.13184723324366 429.9791185172458 L 372.1145827583319 428.536563290955 L 372.09274733346314 427.09400806466414 L 372.06659805781936 425.6514528383733 L 372.03489318030523 424.20889761208247 L 371.99643513584175 422.76634238579163 L 371.94995164569224 421.3237871595008 L 371.89513218770514 419.88123193320996 L 371.8301748844835 418.4386767069191 L 371.7531396750992 416.9961214806283 L 371.6621759883049 415.5535662543375 L 371.5557546317404 414.1110110280467 L 371.43139270202073 412.66845580175584 L 371.28722072172104 411.225900575465 L 371.1206337926192 409.78334534917417 L 370.92887458345444 408.34079012288333 L 370.7088489539427 406.8982348965925 L 370.45911351419 405.4556796703017 L 370.17530887301683 404.0131244440108 L 369.85580558108774 402.57056921772 L 369.4968888716388 401.12801399142916 L 369.0959561803708 399.6854587651384 L 368.6505564092481 398.24290353884754 L 368.158008200812 396.8003483125567 L 367.6160923108526 395.3577930862658 L 367.02293385180474 393.91523785997504 L 366.37708116450375 392.4726826336842 L 365.6775856718982 391.03012740739337 L 364.9240806584938 389.58757218110253 L 364.1168566829807 388.1450169548117 L 363.2569311526815 386.70246172852086 L 362.3458966248139 385.25990650223 L 361.3867453683969 383.8173512759392 L 360.38283442991934 382.37479604964835 L 359.33857018653106 380.9322408233575 L 358.25925554829365 379.4896855970667 L 357.1510729621689 378.04713037077585 L 356.0210467439098 376.604575144485 L 354.87698420786637 375.16201991819423 L 353.7273957199754 373.71946469190334 L 352.58139449419247 372.27690946561256 L 351.44857765822206 370.83435423932167 L 350.33889079902025 369.3917990130309 L 349.26247882987093 367.94924378674006 L 348.2295265677638 366.5066885604492 L 347.2500928444034 365.0641333341584 L 346.33394227353887 363.62157810786755 L 345.4903789451437 362.1790228815767 L 344.72808630481364 360.7364676552859 L 344.0549773046021 359.29391242899504 L 343.47805858799177 357.8513572027042 L 343.00331201348797 356.40880197641343 L 342.6353486605074 354.96624675012254 L 342.37823436041384 353.52369152383176 L 342.2341882870828 352.08113629754087 L 342.2043284764081 350.6385810712501 L 342.2884858953592 349.1960258449592 L 342.4852231860039 347.7534706186684 L 342.79163096436935 346.3109153923775 L 343.2042799714138 344.86836016608675 L 343.7180671496511 343.42580493979585 L 344.3262804972436 341.9832497135051 L 345.0231991191998 340.54069448721424 L 345.80080385354387 339.0981392609234 L 346.65104764650175 337.65558403463257 L 347.56476924212245 336.21302880834173 L 348.5329859925999 334.77047358205095 L 349.54573757287767 333.32791835576006 L 350.59430885931454 331.8853631294693 L 351.66849829486824 330.4428079031784 L 352.75830226078506 329.0002526768876 L 353.85573016965577 327.5576974505967 L 354.95065064742937 326.11514222430594 L 356.0348392198568 324.67258699801505 L 357.1000406842474 323.23003177172427 L 358.1388164706555 321.78747654543344 L 359.143662856042 320.3449213191426 L 360.1081135233788 318.90236609285176 L 361.0266947726328 317.45981086656093 L 361.893771230922 316.0172556402701 L 362.7048739639731 314.57470041397926 L 363.45518322018864 313.1321451876884 L 364.14145177359507 311.6895899613976 L 364.761066087733 310.2470347351068 L 365.3104998217658 308.8044795088159 L 365.7882922452411 307.36192428252514 L 366.19244753722853 305.91936905623425 L 366.52073335011625 304.47681382994347 L 366.77315488363644 303.0342586036526 L 366.9482467494528 301.5917033773618 L 367.045155302235 300.1491481510709 L 367.06349714171046 298.7065929247801 L 367.0034662286584 297.26403769848923 L 366.8639096746427 295.82148247219845 L 366.64561408316 294.3789272459076 L 366.3486961383375 292.9363720196168 L 365.97378671440254 291.49381679332595 L 365.5215514639175 290.0512615670351 L 364.99427454517235 288.6087063407443 L 364.3922095288148 287.16615111445344 L 363.71827472417147 285.72359588816266 L 362.97586404036923 284.28104066187177 L 362.1673655933316 282.838485435581 L 361.2968170062069 281.3959302092901 L 360.36983251718914 279.9533749829993 L 359.3915044701881 278.51081975670843 L 358.3679307592973 277.06826453041765 L 357.30640424843347 275.6257093041268 L 356.21500844316125 274.183154077836 L 355.10140495877005 272.74059885154514 L 353.97500476416354 271.2980436252543 L 352.8454275634796 269.8554883989635 L 351.72331655008816 268.41293317267264 L 350.61851609429607 266.97037794638186 L 349.5414143448661 265.52782272009097 L 348.5029759323079 264.08526749380013 L 347.51323489292804 262.6427122675093 L 346.582577124187 261.2001570412185 L 345.7210371745343 259.7576018149276 L 344.93699461958096 258.31504658863685 L 344.23895965656084 256.87249136234595 L 343.634670734396 255.42993613605515 L 343.1302310575827 253.98738090976434 L 342.7311298338329 252.5448256834735 L 342.44124907539384 251.10227045718264 L 342.26368955422976 249.65971523089186 L 342.2 248.217160004601 L 342.2504376120461 246.77460477831016 L 342.4139808735835 245.3320495520193 L 342.68836500285744 243.88949432572852 L 343.0701384021935 242.44693909943766 L 343.55473804583704 241.00438387314682 L 344.1365814306928 239.56182864685601 L 344.8091725000627 238.11927342056518 L 345.5654000726072 236.67671819427432 L 346.39688922210917 235.23416296798354 L 347.29538124913654 233.7916077416927 L 348.25196642946173 232.3490525154018 L 349.2574669085185 230.9064972891111 L 350.30257046243395 229.4639420628202 L 351.3779605706066 228.02138683652936 L 352.4744408345858 226.57883161023852 L 353.5830519625471 225.13627638394775 L 354.6951797255885 223.69372115765685 L 355.80265248327976 222.25116593136602 L 356.89782707501587 220.80861070507518 L 357.9736620850023 219.3660554787844 L 359.0237777158866 217.9235002524935 L 360.0425017513862 216.48094502620273 L 361.0249013517069 215.03838979991184 L 361.96680070431586 213.59583457362106 L 362.8647848411181 212.15327934733023 L 363.7161902230904 210.7107241210394 L 364.519082974785 209.2681688947485 L 365.27222591248005 207.82561366845778 L 365.9751910930922 206.38305844216688 L 366.62764466675554 204.94050321587605 L 367.2303605376608 203.4979479895852 L 367.7843832963089 202.05539276329444 L 368.29117545714246 200.61283753700354 L 368.75255062146175 199.1702823107127 L 369.1707643744435 197.72772708442187 L 369.5477774438806 196.2851718581311 L 369.88687533200084 194.8426166318402 L 370.1892806878718 193.40006140554942 L 370.45859130950276 191.95750617925853 L 370.69721879356376 190.51495095296775 L 370.9075812796592 189.07239572667686 L 371.092597027717 187.62984050038608 L 371.2546987745742 186.1872852740952 L 371.3958699130702 184.74473004780447 L 371.51843773851374 183.30217482151352 L 371.6244081629606 181.85961959522274 L 371.716159853341 180.4170643689319 L 371.7942943341251 178.97450914264112 L 371.8610657116423 177.53195391635018 L 371.9180826005949 176.0893986900594 L 371.96622109488163 174.64684346376856 L 372.0068918238283 173.20428823747773 L 372.04152207910107 171.76173301118683 L 372.0703208753689 170.3191777848961 L 372.0940387218669 168.87662255860522 L 372.1135962492141 167.43406733231438 L 372.13003310906566 165.99151210602355 L 372.14376480996594 164.54895687973277 L 372.15484561791226 163.10640165344188 L 372.1641055158467 161.6638464271511 L 372.17166935704734 160.2212912008602 L 372.17743220330755 158.77873597456943 L 372.1826719504902 157.3361807482786 L 372.1868105951136 155.89362552198776 L 372.18979843747303 154.45107029569687 L 372.1923335724823 153.0085150694061 L 372.20766642751767 153.0085150694061 L 372.21020156252695 154.45107029569687 L 372.21318940488635 155.89362552198776 L 372.2173280495098 157.3361807482786 L 372.22256779669243 158.77873597456943 L 372.22833064295264 160.2212912008602 L 372.2358944841533 161.6638464271511 L 372.2451543820877 163.10640165344188 L 372.25623519003403 164.54895687973277 L 372.2699668909343 165.99151210602355 L 372.2864037507859 167.43406733231438 L 372.30596127813305 168.87662255860522 L 372.32967912463107 170.3191777848961 L 372.3584779208989 171.76173301118683 L 372.39310817617167 173.20428823747773 L 372.43377890511834 174.64684346376856 L 372.48191739940506 176.0893986900594 L 372.53893428835767 177.53195391635018 L 372.6057056658749 178.97450914264112 L 372.68384014665895 180.4170643689319 L 372.77559183703937 181.85961959522274 L 372.88156226148624 183.30217482151352 L 373.00413008692976 184.74473004780447 L 373.1453012254258 186.1872852740952 L 373.307402972283 187.62984050038608 L 373.49241872034077 189.07239572667686 L 373.7027812064362 190.51495095296775 L 373.9414086904972 191.95750617925853 L 374.21071931212816 193.40006140554942 L 374.51312466799914 194.8426166318402 L 374.8522225561194 196.2851718581311 L 375.2292356255565 197.72772708442187 L 375.6474493785382 199.1702823107127 L 376.1088245428575 200.61283753700354 L 376.6156167036911 202.05539276329444 L 377.1696394623392 203.4979479895852 L 377.77235533324443 204.94050321587605 L 378.4248089069078 206.38305844216688 L 379.1277740875199 207.82561366845778 L 379.88091702521496 209.2681688947485 L 380.6838097769096 210.7107241210394 L 381.5352151588819 212.15327934733023 L 382.4331992956841 213.59583457362106 L 383.3750986482931 215.03838979991184 L 384.35749824861375 216.48094502620273 L 385.3762222841134 217.9235002524935 L 386.4263379149977 219.3660554787844 L 387.5021729249841 220.80861070507518 L 388.5973475167202 222.25116593136602 L 389.7048202744115 223.69372115765685 L 390.8169480374529 225.13627638394775 L 391.9255591654142 226.57883161023852 L 393.0220394293934 228.02138683652936 L 394.09742953756603 229.4639420628202 L 395.1425330914815 230.9064972891111 L 396.14803357053825 232.3490525154018 L 397.10461875086344 233.7916077416927 L 398.0031107778908 235.23416296798354 L 398.8345999273928 236.67671819427432 L 399.5908274999373 238.11927342056518 L 400.2634185693072 239.56182864685601 L 400.84526195416294 241.00438387314682 L 401.3298615978065 242.44693909943766 L 401.71163499714254 243.88949432572852 L 401.98601912641647 245.3320495520193 L 402.1495623879539 246.77460477831016 L 402.2 248.217160004601 L 402.1363104457702 249.65971523089186 L 401.95875092460614 251.10227045718264 L 401.6688701661671 252.5448256834735 L 401.2697689424173 253.98738090976434 L 400.76532926560395 255.42993613605515 L 400.16104034343914 256.87249136234595 L 399.463005380419 258.31504658863685 L 398.6789628254657 259.7576018149276 L 397.81742287581295 261.2001570412185 L 396.88676510707194 262.6427122675093 L 395.8970240676921 264.08526749380013 L 394.8585856551339 265.52782272009097 L 393.7814839057039 266.97037794638186 L 392.6766834499118 268.41293317267264 L 391.5545724365204 269.8554883989635 L 390.42499523583643 271.2980436252543 L 389.29859504122993 272.74059885154514 L 388.1849915568387 274.183154077836 L 387.0935957515665 275.6257093041268 L 386.0320692407027 277.06826453041765 L 385.00849552981185 278.51081975670843 L 384.03016748281084 279.9533749829993 L 383.1031829937931 281.3959302092901 L 382.23263440666835 282.838485435581 L 381.42413595963075 284.28104066187177 L 380.6817252758285 285.72359588816266 L 380.00779047118516 287.16615111445344 L 379.40572545482763 288.6087063407443 L 378.8784485360825 290.0512615670351 L 378.42621328559744 291.49381679332595 L 378.05130386166246 292.9363720196168 L 377.75438591683996 294.3789272459076 L 377.5360903253573 295.82148247219845 L 377.3965337713416 297.26403769848923 L 377.3365028582895 298.7065929247801 L 377.354844697765 300.1491481510709 L 377.4517532505472 301.5917033773618 L 377.62684511636354 303.0342586036526 L 377.87926664988373 304.47681382994347 L 378.20755246277145 305.91936905623425 L 378.61170775475887 307.36192428252514 L 379.0895001782342 308.8044795088159 L 379.63893391226696 310.2470347351068 L 380.2585482264049 311.6895899613976 L 380.94481677981133 313.1321451876884 L 381.69512603602686 314.57470041397926 L 382.50622876907795 316.0172556402701 L 383.37330522736715 317.45981086656093 L 384.2918864766212 318.90236609285176 L 385.256337143958 320.3449213191426 L 386.26118352934446 321.78747654543344 L 387.2999593157526 323.23003177172427 L 388.3651607801432 324.67258699801505 L 389.4493493525706 326.11514222430594 L 390.5442698303442 327.5576974505967 L 391.6416977392149 329.0002526768876 L 392.73150170513173 330.4428079031784 L 393.80569114068544 331.8853631294693 L 394.8542624271223 333.32791835576006 L 395.8670140074001 334.77047358205095 L 396.8352307578775 336.21302880834173 L 397.7489523534982 337.65558403463257 L 398.5991961464561 339.0981392609234 L 399.3768008808002 340.54069448721424 L 400.0737195027564 341.9832497135051 L 400.68193285034886 343.42580493979585 L 401.19572002858615 344.86836016608675 L 401.60836903563063 346.3109153923775 L 401.91477681399607 347.7534706186684 L 402.1115141046408 349.1960258449592 L 402.1956715235919 350.6385810712501 L 402.16581171291716 352.08113629754087 L 402.02176563958614 353.52369152383176 L 401.76465133949256 354.96624675012254 L 401.396687986512 356.40880197641343 L 400.9219414120082 357.8513572027042 L 400.34502269539786 359.29391242899504 L 399.67191369518633 360.7364676552859 L 398.9096210548563 362.1790228815767 L 398.0660577264611 363.62157810786755 L 397.14990715559657 365.0641333341584 L 396.1704734322362 366.5066885604492 L 395.13752117012905 367.94924378674006 L 394.06110920097973 369.3917990130309 L 392.9514223417779 370.83435423932167 L 391.8186055058075 372.27690946561256 L 390.6726042800246 373.71946469190334 L 389.5230157921336 375.16201991819423 L 388.3789532560902 376.604575144485 L 387.2489270378311 378.04713037077585 L 386.1407444517063 379.4896855970667 L 385.0614298134689 380.9322408233575 L 384.01716557008064 382.37479604964835 L 383.0132546316031 383.8173512759392 L 382.05410337518606 385.25990650223 L 381.1430688473185 386.70246172852086 L 380.28314331701927 388.1450169548117 L 379.4759193415062 389.58757218110253 L 378.72241432810176 391.03012740739337 L 378.0229188354962 392.4726826336842 L 377.37706614819524 393.91523785997504 L 376.7839076891474 395.3577930862658 L 376.241991799188 396.8003483125567 L 375.74944359075187 398.24290353884754 L 375.30404381962916 399.6854587651384 L 374.90311112836116 401.12801399142916 L 374.54419441891224 402.57056921772 L 374.22469112698315 404.0131244440108 L 373.94088648581 405.4556796703017 L 373.69115104605726 406.8982348965925 L 373.47112541654553 408.34079012288333 L 373.2793662073808 409.78334534917417 L 373.11277927827894 411.225900575465 L 372.96860729797925 412.66845580175584 L 372.8442453682596 414.1110110280467 L 372.73782401169507 415.5535662543375 L 372.6468603249008 416.9961214806283 L 372.5698251155165 418.4386767069191 L 372.50486781229483 419.88123193320996 L 372.45004835430774 421.3237871595008 L 372.4035648641582 422.76634238579163 L 372.36510681969474 424.20889761208247 L 372.3334019421806 425.6514528383733 L 372.30725266653684 427.09400806466414 L 372.2854172416681 428.536563290955 L 372.2681527667563 429.9791185172458 L 372.25394864968774 431.42167374353664 L 372.2418956588698 432.8642289698275 L 372.23278155741303 434.3067841961183 L 372.2254484679459 435.74933942240915 L 372.2193397334268 437.1918946487 L 372.2149242004349 438.6344498749908 L 372.21141158056105 440.07700510128166 Z" stroke="black" stroke-width="0.5" fill="steelblue" /><path d="M 572.1361333189227 326.1313013143131 L 572.0957340661006 324.86003911823775 L 572.0346937481685 323.5887769221624 L 571.9429915910164 322.3175147260871 L 571.8091728475649 321.0462525300118 L 571.6181257880341 319.77499033393644 L 571.3521493291233 318.5037281378612 L 570.9887765493473 317.23246594178585 L 570.5042458239193 315.9612037457105 L 569.8744467520079 314.6899415496352 L 569.0740438449001 313.41867935355987 L 568.080610905301 312.1474171574845 L 566.8763909529206 310.8761549614092 L 565.4513455685019 309.6048927653339 L 563.8066626576631 308.33363056925856 L 561.9556413920769 307.06236837318323 L 559.9255025067791 305.79110617710796 L 557.7576871437446 304.51984398103264 L 555.5061895738521 303.2485817849573 L 553.2359062745371 301.977319588882 L 551.0184113527647 300.70605739280666 L 548.9270016490624 299.43479519673133 L 547.0320319423182 298.163533000656 L 545.3959871863975 296.8922708045807 L 544.0686981436071 295.62100860850535 L 543.0843745100626 294.34974641243 L 542.4614526424501 293.0784842163547 L 542.2 291.80722202027937 L 542.2847065915114 290.53595982420404 L 542.6862414131749 289.2646976281287 L 543.3644519314657 287.9934354320534 L 544.2731857743835 286.72217323597806 L 545.3619416771434 285.45091103990273 L 546.5804228916857 284.1796488438274 L 547.8804292997647 282.9083866477521 L 549.2181544116271 281.63712445167675 L 550.5555536268221 280.3658622556014 L 551.8617537032084 279.09460005952616 L 553.1121805791154 277.8233378634508 L 554.2892386576883 276.5520756673755 L 555.3815770612205 275.2808134713002 L 556.3833180712315 274.00955127522485 L 557.2928736380256 272.7382890791495 L 558.1122489412872 271.46702688307425 L 558.8466254074212 270.19576468699887 L 559.5017743442447 268.9245024909236 L 560.0851437082136 267.6532402948483 L 560.6045403861256 266.38197809877295 L 561.0674027718743 265.1107159026976 L 561.4795815005524 263.8394537066223 L 561.8502184469089 262.56819151054697 L 562.1856175259915 261.29692931447164 L 562.4939724852111 260.0256671183963 L 562.7810892902414 258.754404922321 L 563.0550607315637 257.48314272624566 L 563.3219985464407 256.2118805301704 L 563.5893859313143 254.94061833409503 L 563.8616635459268 253.6693561380197 L 564.142134950189 252.39809394194438 L 564.4321178080711 251.12683174586908 L 564.7324899762808 249.8555695497937 L 565.0403141754902 248.58430735371843 L 565.3511014183537 247.31304515764305 L 565.659849931464 246.0417829615678 L 565.9607665785193 244.77052076549242 L 566.2482677766877 243.49925856941712 L 566.5171609134283 242.22799637334174 L 566.7626248219996 240.95673417726653 L 566.9830637688309 239.68547198119114 L 567.1779633398758 238.41420978511584 L 567.3481437778786 237.1429475890405 L 567.497645236547 235.87168539296516 L 567.6297917189114 234.60042319688984 L 567.7503149823875 233.3291610008145 L 567.8644962375623 232.05789880473924 L 567.9779097209346 230.7866366086639 L 568.0950854954267 229.51537441258853 L 568.2199284746364 228.2441122165132 L 568.3551020512367 226.97285002043793 L 568.5002175392378 225.7015878243626 L 568.6547773268267 224.43032562828728 L 568.8160762936225 223.15906343221195 L 568.9804611133403 221.88780123613662 L 569.143614451382 220.6165390400613 L 569.3003518824836 219.34527684398597 L 569.4466683527911 218.07401464791064 L 569.5794537625824 216.80275245183537 L 569.6968833082688 215.53149025576005 L 569.7989999786913 214.26022805968466 L 569.8882391560306 212.98896586360934 L 569.9673871442511 211.71770366753407 L 570.0416029009717 210.44644147145874 L 570.1160091018988 209.1751792753834 L 570.1955737566363 207.9039170793081 L 570.2844291768257 206.63265488323276 L 570.3854413110681 205.36139268715743 L 570.4995324069765 204.0901304910821 L 570.6253321634435 202.81886829500678 L 570.7607406147553 201.5476060989315 L 570.9012508655491 200.27634390285613 L 571.0420345964302 199.0050817067808 L 571.1776686259789 197.73381951070547 L 571.3029817614536 196.4625573146302 L 571.4138295611315 195.19129511855482 L 571.5063679648097 193.92003292247955 L 571.5793720660371 192.64877072640422 L 571.6323499433856 191.3775085303289 L 571.666390758994 190.1062463342535 L 571.6841761413017 188.83498413817824 L 571.6892354362818 187.56372194210292 L 571.6853817782552 186.29245974602765 L 571.6770717732778 185.02119754995226 L 571.668561458418 183.74993535387694 L 571.6631645282831 182.4786731578016 L 571.6639612912059 181.20741096172634 L 571.6728543376661 179.93614876565096 L 571.690727031255 178.66488656957569 L 571.7174737157087 177.39362437350036 L 571.7518699637986 176.12236217742498 L 571.7925983652596 174.85109998134965 L 571.8375599572038 173.57983778527432 L 571.8842146272852 172.30857558919905 L 571.9302922835975 171.03731339312372 L 571.9740360055798 169.7660511970484 L 572.0134049830053 168.49478900097307 L 572.0472675499107 167.22352680489774 L 572.0746479739121 165.95226460882242 L 572.094902933149 164.6810024127471 L 572.1076476519166 163.40974021667182 L 572.1126824494693 162.1384780205965 L 572.109937871176 160.8672158245211 L 572.0994511044864 159.59595362844578 L 572.0813789710298 158.3246914323705 L 572.0560445911661 157.0534292362952 L 572.0240070506132 155.78216704021986 L 571.9861372452095 154.51090484414453 L 571.9436796031864 153.2396426480692 L 571.8982793888271 151.96838045199388 L 571.851959141419 150.69711825591855 L 571.8070352452384 149.42585605984323 L 571.7659756858449 148.1545938637679 L 571.7313794650594 146.88333166769263 L 571.7050120740721 145.61206947161725 L 571.68887240189 144.34080727554192 L 571.6840287629543 143.0695450794666 L 571.6908062206287 141.79828288339132 L 571.7087504992539 140.52702068731594 L 571.7366783542976 139.25575849124067 L 571.7728066395229 137.98449629516534 L 571.8149405078187 136.71323409909002 L 571.8604368041955 135.44197190301463 L 571.9072507945439 134.17070970693936 L 571.9530535375363 132.89944751086404 L 571.9957641636512 131.62818531478877 L 572.0342384869664 130.35692311871338 L 572.0673008009269 129.08566092263806 L 572.0942681079079 127.81439872656273 L 572.1147316958229 126.54313653048746 L 572.1284447814481 125.27187433441208 L 572.1352080159393 124.0006121383368 L 572.1347716768153 122.72934994226148 L 572.1267703144927 121.4580877461861 L 572.1107014077534 120.18682555011077 L 572.0859545672294 118.9155633540355 L 572.051892148862 117.64430115796017 L 572.0079758641024 116.37303896188484 L 571.9539272941543 115.10177676580952 L 571.8899036406583 113.83051456973419 L 571.8166644781763 112.55925237365886 L 571.7357019299966 111.28799017758354 L 571.649306843745 110.01672798150821 L 571.5606752904403 108.74546578543294 L 571.4732200769029 107.47420358935761 L 571.3913160862443 106.20294139328223 L 571.3192434307316 104.9316791972069 L 571.2610560567153 103.66041700113163 L 571.2202071107457 102.38915480505631 L 571.1992109660499 101.11789260898098 L 571.1993877258099 99.84663041290565 L 571.2207261995828 98.57536821683033 L 571.2618850727988 97.304106020755 L 571.3203320998866 96.03284382467967 L 571.3926012934464 94.76158162860435 L 571.4746318922654 93.49031943252908 L 571.5621431940966 92.21905723645375 L 571.6509975509032 90.94779504037837 L 571.7375097142676 89.6765328443031 L 571.818672572487 88.40527064822777 L 571.8922844349082 87.13400845215244 L 571.9569783757643 85.86274625607712 L 572.0121670875427 84.59148406000179 L 572.057925408352 83.32022186392646 L 572.0948364660758 82.04895966785114 L 572.1238265562629 80.77769747177575 L 572.1460095492013 79.50643527570043 L 572.1625553055758 78.23517307962516 L 572.1745897775138 76.96391088354983 L 572.1831283998391 75.69264868747445 L 572.1890397993226 74.42138649139912 L 572.1930340551003 73.15012429532385 L 572.2069659448998 73.15012429532385 L 572.2109602006775 74.42138649139912 L 572.216871600161 75.69264868747445 L 572.2254102224863 76.96391088354983 L 572.2374446944243 78.23517307962516 L 572.2539904507988 79.50643527570043 L 572.2761734437372 80.77769747177575 L 572.3051635339243 82.04895966785114 L 572.342074591648 83.32022186392646 L 572.3878329124574 84.59148406000179 L 572.4430216242358 85.86274625607712 L 572.5077155650919 87.13400845215244 L 572.5813274275131 88.40527064822777 L 572.6624902857325 89.6765328443031 L 572.7490024490969 90.94779504037837 L 572.8378568059035 92.21905723645375 L 572.9253681077347 93.49031943252908 L 573.0073987065537 94.76158162860435 L 573.0796679001135 96.03284382467967 L 573.1381149272013 97.304106020755 L 573.1792738004173 98.57536821683033 L 573.2006122741902 99.84663041290565 L 573.2007890339502 101.11789260898098 L 573.1797928892544 102.38915480505631 L 573.1389439432847 103.66041700113163 L 573.0807565692685 104.9316791972069 L 573.0086839137558 106.20294139328223 L 572.9267799230972 107.47420358935761 L 572.8393247095598 108.74546578543294 L 572.7506931562551 110.01672798150821 L 572.6642980700035 111.28799017758354 L 572.5833355218238 112.55925237365886 L 572.5100963593418 113.83051456973419 L 572.4460727058458 115.10177676580952 L 572.3920241358977 116.37303896188484 L 572.3481078511381 117.64430115796017 L 572.3140454327707 118.9155633540355 L 572.2892985922467 120.18682555011077 L 572.2732296855074 121.4580877461861 L 572.2652283231848 122.72934994226148 L 572.2647919840608 124.0006121383368 L 572.271555218552 125.27187433441208 L 572.2852683041772 126.54313653048746 L 572.3057318920922 127.81439872656273 L 572.3326991990732 129.08566092263806 L 572.3657615130337 130.35692311871338 L 572.4042358363489 131.62818531478877 L 572.4469464624638 132.89944751086404 L 572.4927492054562 134.17070970693936 L 572.5395631958046 135.44197190301463 L 572.5850594921814 136.71323409909002 L 572.6271933604772 137.98449629516534 L 572.6633216457025 139.25575849124067 L 572.6912495007462 140.52702068731594 L 572.7091937793714 141.79828288339132 L 572.7159712370458 143.0695450794666 L 572.7111275981101 144.34080727554192 L 572.694987925928 145.61206947161725 L 572.6686205349407 146.88333166769263 L 572.6340243141552 148.1545938637679 L 572.5929647547617 149.42585605984323 L 572.5480408585811 150.69711825591855 L 572.501720611173 151.96838045199388 L 572.4563203968137 153.2396426480692 L 572.4138627547906 154.51090484414453 L 572.3759929493868 155.78216704021986 L 572.343955408834 157.0534292362952 L 572.3186210289703 158.3246914323705 L 572.3005488955137 159.59595362844578 L 572.290062128824 160.8672158245211 L 572.2873175505308 162.1384780205965 L 572.2923523480835 163.40974021667182 L 572.3050970668511 164.6810024127471 L 572.325352026088 165.95226460882242 L 572.3527324500894 167.22352680489774 L 572.3865950169948 168.49478900097307 L 572.4259639944203 169.7660511970484 L 572.4697077164026 171.03731339312372 L 572.5157853727148 172.30857558919905 L 572.5624400427963 173.57983778527432 L 572.6074016347405 174.85109998134965 L 572.6481300362015 176.12236217742498 L 572.6825262842914 177.39362437350036 L 572.709272968745 178.66488656957569 L 572.727145662334 179.93614876565096 L 572.7360387087942 181.20741096172634 L 572.736835471717 182.4786731578016 L 572.7314385415821 183.74993535387694 L 572.7229282267223 185.02119754995226 L 572.7146182217449 186.29245974602765 L 572.7107645637183 187.56372194210292 L 572.7158238586984 188.83498413817824 L 572.7336092410061 190.1062463342535 L 572.7676500566145 191.3775085303289 L 572.820627933963 192.64877072640422 L 572.8936320351904 193.92003292247955 L 572.9861704388686 195.19129511855482 L 573.0970182385465 196.4625573146302 L 573.2223313740212 197.73381951070547 L 573.3579654035699 199.0050817067808 L 573.498749134451 200.27634390285613 L 573.6392593852448 201.5476060989315 L 573.7746678365565 202.81886829500678 L 573.9004675930236 204.0901304910821 L 574.014558688932 205.36139268715743 L 574.1155708231744 206.63265488323276 L 574.2044262433637 207.9039170793081 L 574.2839908981013 209.1751792753834 L 574.3583970990284 210.44644147145874 L 574.432612855749 211.71770366753407 L 574.5117608439695 212.98896586360934 L 574.6010000213088 214.26022805968466 L 574.7031166917313 215.53149025576005 L 574.8205462374177 216.80275245183537 L 574.953331647209 218.07401464791064 L 575.0996481175165 219.34527684398597 L 575.2563855486181 220.6165390400613 L 575.4195388866598 221.88780123613662 L 575.5839237063776 223.15906343221195 L 575.7452226731734 224.43032562828728 L 575.8997824607623 225.7015878243626 L 576.0448979487634 226.97285002043793 L 576.1800715253637 228.2441122165132 L 576.3049145045734 229.51537441258853 L 576.4220902790655 230.7866366086639 L 576.5355037624378 232.05789880473924 L 576.6496850176126 233.3291610008145 L 576.7702082810887 234.60042319688984 L 576.9023547634531 235.87168539296516 L 577.0518562221215 237.1429475890405 L 577.2220366601243 238.41420978511584 L 577.4169362311692 239.68547198119114 L 577.6373751780005 240.95673417726653 L 577.8828390865718 242.22799637334174 L 578.1517322233124 243.49925856941712 L 578.4392334214808 244.77052076549242 L 578.7401500685361 246.0417829615678 L 579.0488985816464 247.31304515764305 L 579.3596858245099 248.58430735371843 L 579.6675100237193 249.8555695497937 L 579.967882191929 251.12683174586908 L 580.2578650498111 252.39809394194438 L 580.5383364540733 253.6693561380197 L 580.8106140686858 254.94061833409503 L 581.0780014535594 256.2118805301704 L 581.3449392684364 257.48314272624566 L 581.6189107097587 258.754404922321 L 581.906027514789 260.0256671183963 L 582.2143824740086 261.29692931447164 L 582.5497815530912 262.56819151054697 L 582.9204184994477 263.8394537066223 L 583.3325972281258 265.1107159026976 L 583.7954596138745 266.38197809877295 L 584.3148562917864 267.6532402948483 L 584.8982256557554 268.9245024909236 L 585.5533745925788 270.19576468699887 L 586.2877510587128 271.46702688307425 L 587.1071263619745 272.7382890791495 L 588.0166819287685 274.00955127522485 L 589.0184229387796 275.2808134713002 L 590.1107613423118 276.5520756673755 L 591.2878194208847 277.8233378634508 L 592.5382462967917 279.09460005952616 L 593.844446373178 280.3658622556014 L 595.181845588373 281.63712445167675 L 596.5195707002354 282.9083866477521 L 597.8195771083144 284.1796488438274 L 599.0380583228567 285.45091103990273 L 600.1268142256166 286.72217323597806 L 601.0355480685344 287.9934354320534 L 601.7137585868252 289.2646976281287 L 602.1152934084887 290.53595982420404 L 602.2 291.80722202027937 L 601.93854735755 293.0784842163547 L 601.3156254899375 294.34974641243 L 600.331301856393 295.62100860850535 L 599.0040128136026 296.8922708045807 L 597.3679680576819 298.163533000656 L 595.4729983509377 299.43479519673133 L 593.3815886472354 300.70605739280666 L 591.164093725463 301.977319588882 L 588.893810426148 303.2485817849573 L 586.6423128562554 304.51984398103264 L 584.474497493221 305.79110617710796 L 582.4443586079232 307.06236837318323 L 580.593337342337 308.33363056925856 L 578.9486544314982 309.6048927653339 L 577.5236090470795 310.8761549614092 L 576.3193890946991 312.1474171574845 L 575.3259561551 313.41867935355987 L 574.5255532479922 314.6899415496352 L 573.8957541760808 315.9612037457105 L 573.4112234506528 317.23246594178585 L 573.0478506708768 318.5037281378612 L 572.7818742119659 319.77499033393644 L 572.5908271524352 321.0462525300118 L 572.4570084089837 322.3175147260871 L 572.3653062518316 323.5887769221624 L 572.3042659338995 324.86003911823775 L 572.2638666810774 326.1313013143131 Z" stroke="black" stroke-width="0.5" fill="steelblue" /><circle cx="162.2" cy="279.44003564971547" r="2.5" fill="rgba(0,0,0,0.35)" /><circle cx="172.2" cy="282.74272452978477" r="2.5" fill="rgba(0,0,0,0.35)" /><circle cx="182.2" cy="350.40812283591094" r="2.5" fill="rgba(0,0,0,0.35)" /><circle cx="157.2" cy="289.5072336186853" r="2.5" fill="rgba(0,0,0,0.35)" /><circle cx="142.2" cy="322.12034531543577" r="2.5" fill="rgba(0,0,0,0.35)" /><circle cx="197.2" cy="291.9287821871245" r="2.5" fill="rgba(0,0,0,0.35)" /><circle cx="172.2" cy="225.32810504978926" r="2.5" fill="rgba(0,0,0,0.35)" /><circle cx="187.2" cy="298.27564210162416" r="2.5" fill="rgba(0,0,0,0.35)" /><circle cx="179.7" cy="321.27594319951805" r="2.5" fill="rgba(0,0,0,0.35)" /><circle cx="167.2" cy="349.4606294442067" r="2.5" fill="rgba(0,0,0,0.35)" /><circle cx="182.2" cy="259.09027316203156" r="2.5" fill="rgba(0,0,0,0.35)" /><circle cx="177.2" cy="310.7216047243414" r="2.5" fill="rgba(0,0,0,0.35)" /><circle cx="147.2" cy="321.34871619128336" r="2.5" fill="rgba(0,0,0,0.35)" /><circle cx="159.7" cy="311.68845088583214" r="2.5" fill="rgba(0,0,0,0.35)" /><circle cx="194.7" cy="325.21354611141004" r="2.5" fill="rgba(0,0,0,0.35)" /><circle cx="172.2" cy="321.16542515352864" r="2.5" fill="rgba(0,0,0,0.35)" /><circle cx="182.2" cy="297.3021514764804" r="2.5" fill="rgba(0,0,0,0.35)" /><circle cx="142.2" cy="301.95754300964575" r="2.5" fill="rgba(0,0,0,0.35)" /><circle cx="172.2" cy="269.72643440470574" r="2.5" fill="rgba(0,0,0,0.35)" /><circle cx="187.2" cy="286.9751783158914" r="2.5" fill="rgba(0,0,0,0.35)" /><circle cx="177.2" cy="335.82371470101987" r="2.5" fill="rgba(0,0,0,0.35)" /><circle cx="172.2" cy="257.3925701661509" r="2.5" fill="rgba(0,0,0,0.35)" /><circle cx="197.2" cy="313.44040863219516" r="2.5" fill="rgba(0,0,0,0.35)" /><circle cx="157.2" cy="306.89971666374424" r="2.5" fill="rgba(0,0,0,0.35)" /><circle cx="184.7" cy="323.82075403483316" r="2.5" fill="rgba(0,0,0,0.35)" /><circle cx="147.2" cy="292.4456889190079" r="2.5" fill="rgba(0,0,0,0.35)" /><circle cx="164.7" cy="328.5618066184812" r="2.5" fill="rgba(0,0,0,0.35)" /><circle cx="167.2" cy="266.0753845571711" r="2.5" fill="rgba(0,0,0,0.35)" /><circle cx="152.2" cy="298.35529428055173" r="2.5" fill="rgba(0,0,0,0.35)" /><circle cx="179.7" cy="276.0081040683933" r="2.5" fill="rgba(0,0,0,0.35)" /><circle cx="157.2" cy="295.2821801318544" r="2.5" fill="rgba(0,0,0,0.35)" /><circle cx="167.2" cy="294.7255662660874" r="2.5" fill="rgba(0,0,0,0.35)" /><circle cx="167.2" cy="300.5399589176974" r="2.5" fill="rgba(0,0,0,0.35)" /><circle cx="172.2" cy="299.06530029966154" r="2.5" fill="rgba(0,0,0,0.35)" /><circle cx="172.2" cy="251.5216034773881" r="2.5" fill="rgba(0,0,0,0.35)" /><circle cx="172.2" cy="316.0534835966703" r="2.5" fill="rgba(0,0,0,0.35)" /><circle cx="182.2" cy="307.90709389483413" r="2.5" fill="rgba(0,0,0,0.35)" /><circle cx="202.2" cy="292.5504676892025" r="2.5" fill="rgba(0,0,0,0.35)" /><circle cx="167.2" cy="289.3972000512438" r="2.5" fill="rgba(0,0,0,0.35)" /><circle cx="167.2" cy="284.2818986075797" r="2.5" fill="rgba(0,0,0,0.35)" /><circle cx="182.2" cy="302.6739986167154" r="2.5" fill="rgba(0,0,0,0.35)" /><circle cx="157.2" cy="301.1921025094648" r="2.5" fill="rgba(0,0,0,0.35)" /><circle cx="197.2" cy="305.0559526768658" r="2.5" fill="rgba(0,0,0,0.35)" /><circle cx="177.2" cy="257.47802524253296" r="2.5" fill="rgba(0,0,0,0.35)" /><circle cx="192.2" cy="295.6685762502143" r="2.5" fill="rgba(0,0,0,0.35)" /><circle cx="182.2" cy="291.2634875759681" r="2.5" fill="rgba(0,0,0,0.35)" /><circle cx="162.2" cy="291.50831668718996" r="2.5" fill="rgba(0,0,0,0.35)" /><circle cx="187.2" cy="311.7695043583286" r="2.5" fill="rgba(0,0,0,0.35)" /><circle cx="172.2" cy="346.3507735467705" r="2.5" fill="rgba(0,0,0,0.35)" /><circle cx="172.2" cy="365.1541626132168" r="2.5" fill="rgba(0,0,0,0.35)" /><circle cx="167.2" cy="277.47401931755866" r="2.5" fill="rgba(0,0,0,0.35)" /><circle cx="172.2" cy="293.85651721177" r="2.5" fill="rgba(0,0,0,0.35)" /><circle cx="162.2" cy="303.920574994605" r="2.5" fill="rgba(0,0,0,0.35)" /><circle cx="177.2" cy="347.82790753189147" r="2.5" fill="rgba(0,0,0,0.35)" /><circle cx="172.2" cy="304.6406157272374" r="2.5" fill="rgba(0,0,0,0.35)" /><circle cx="207.2" cy="302.0514826255221" r="2.5" fill="rgba(0,0,0,0.35)" /><circle cx="174.7" cy="325.54681489681604" r="2.5" fill="rgba(0,0,0,0.35)" /><circle cx="159.7" cy="324.03826500122256" r="2.5" fill="rgba(0,0,0,0.35)" /><circle cx="177.2" cy="305.6436973255495" r="2.5" fill="rgba(0,0,0,0.35)" /><circle cx="189.7" cy="324.35123569775146" r="2.5" fill="rgba(0,0,0,0.35)" /><circle cx="149.7" cy="313.28729790482294" r="2.5" fill="rgba(0,0,0,0.35)" /><circle cx="187.2" cy="303.9587204241587" r="2.5" fill="rgba(0,0,0,0.35)" /><circle cx="167.2" cy="272.3994034083563" r="2.5" fill="rgba(0,0,0,0.35)" /><circle cx="189.7" cy="319.1161775874376" r="2.5" fill="rgba(0,0,0,0.35)" /><circle cx="162.2" cy="286.06573293017385" r="2.5" fill="rgba(0,0,0,0.35)" /><circle cx="177.2" cy="271.6418402907121" r="2.5" fill="rgba(0,0,0,0.35)" /><circle cx="207.2" cy="292.7323542065465" r="2.5" fill="rgba(0,0,0,0.35)" /><circle cx="177.2" cy="283.3291960761404" r="2.5" fill="rgba(0,0,0,0.35)" /><circle cx="162.2" cy="317.495326182042" r="2.5" fill="rgba(0,0,0,0.35)" /><circle cx="197.2" cy="299.21498635359546" r="2.5" fill="rgba(0,0,0,0.35)" /><circle cx="172.2" cy="335.49166620012215" r="2.5" fill="rgba(0,0,0,0.35)" /><circle cx="147.2" cy="305.079277895339" r="2.5" fill="rgba(0,0,0,0.35)" /><circle cx="189.7" cy="277.73862923949923" r="2.5" fill="rgba(0,0,0,0.35)" /><circle cx="204.7" cy="325.2927213409841" r="2.5" fill="rgba(0,0,0,0.35)" /><circle cx="152.2" cy="304.99936412767073" r="2.5" fill="rgba(0,0,0,0.35)" /><circle cx="187.2" cy="292.1802931895604" r="2.5" fill="rgba(0,0,0,0.35)" /><circle cx="154.7" cy="312.32010304491314" r="2.5" fill="rgba(0,0,0,0.35)" /><circle cx="172.2" cy="310.33212095366684" r="2.5" fill="rgba(0,0,0,0.35)" /><circle cx="167.2" cy="257.5400033468729" r="2.5" fill="rgba(0,0,0,0.35)" /><circle cx="167.2" cy="338.75453986882155" r="2.5" fill="rgba(0,0,0,0.35)" /><circle cx="169.7" cy="326.5787304911929" r="2.5" fill="rgba(0,0,0,0.35)" /><circle cx="177.2" cy="294.6947176733752" r="2.5" fill="rgba(0,0,0,0.35)" /><circle cx="179.7" cy="326.58986372340974" r="2.5" fill="rgba(0,0,0,0.35)" /><circle cx="192.2" cy="312.3444569173008" r="2.5" fill="rgba(0,0,0,0.35)" /><circle cx="177.2" cy="265.9038745882308" r="2.5" fill="rgba(0,0,0,0.35)" /><circle cx="162.2" cy="297.8937493482267" r="2.5" fill="rgba(0,0,0,0.35)" /><circle cx="147.2" cy="299.3566064002156" r="2.5" fill="rgba(0,0,0,0.35)" /><circle cx="167.2" cy="317.0282502438414" r="2.5" fill="rgba(0,0,0,0.35)" /><circle cx="192.2" cy="306.9617772621576" r="2.5" fill="rgba(0,0,0,0.35)" /><circle cx="149.7" cy="326.7763089634158" r="2.5" fill="rgba(0,0,0,0.35)" /><circle cx="182.2" cy="285.39098138008785" r="2.5" fill="rgba(0,0,0,0.35)" /><circle cx="177.2" cy="316.37703223959977" r="2.5" fill="rgba(0,0,0,0.35)" /><circle cx="142.2" cy="292.69097212915483" r="2.5" fill="rgba(0,0,0,0.35)" /><circle cx="137.2" cy="293.33306434579924" r="2.5" fill="rgba(0,0,0,0.35)" /><circle cx="172.2" cy="264.08949683816087" r="2.5" fill="rgba(0,0,0,0.35)" /><circle cx="182.2" cy="270.18202081313393" r="2.5" fill="rgba(0,0,0,0.35)" /><circle cx="184.7" cy="317.63230690137993" r="2.5" fill="rgba(0,0,0,0.35)" /><circle cx="194.7" cy="319.9443641344944" r="2.5" fill="rgba(0,0,0,0.35)" /><circle cx="157.2" cy="277.5161516519511" r="2.5" fill="rgba(0,0,0,0.35)" /><circle cx="172.2" cy="355.0832056383326" r="2.5" fill="rgba(0,0,0,0.35)" /><circle cx="202.2" cy="301.9571258121171" r="2.5" fill="rgba(0,0,0,0.35)" /><circle cx="152.2" cy="291.8828277307819" r="2.5" fill="rgba(0,0,0,0.35)" /><circle cx="202.2" cy="308.27886373673755" r="2.5" fill="rgba(0,0,0,0.35)" /><circle cx="172.2" cy="275.65200857589633" r="2.5" fill="rgba(0,0,0,0.35)" /><circle cx="152.2" cy="319.5834586281915" r="2.5" fill="rgba(0,0,0,0.35)" /><circle cx="177.2" cy="289.29888148124894" r="2.5" fill="rgba(0,0,0,0.35)" /><circle cx="164.7" cy="310.58093360547525" r="2.5" fill="rgba(0,0,0,0.35)" /><circle cx="164.7" cy="321.97601713255267" r="2.5" fill="rgba(0,0,0,0.35)" /><circle cx="157.2" cy="318.5687840954816" r="2.5" fill="rgba(0,0,0,0.35)" /><circle cx="177.2" cy="300.08715606665237" r="2.5" fill="rgba(0,0,0,0.35)" /><circle cx="154.7" cy="325.17634117041655" r="2.5" fill="rgba(0,0,0,0.35)" /><circle cx="192.2" cy="301.6810015155777" r="2.5" fill="rgba(0,0,0,0.35)" /><circle cx="137.2" cy="302.72617869321755" r="2.5" fill="rgba(0,0,0,0.35)" /><circle cx="199.7" cy="321.4198978162294" r="2.5" fill="rgba(0,0,0,0.35)" /><circle cx="167.2" cy="305.8421406908541" r="2.5" fill="rgba(0,0,0,0.35)" /><circle cx="162.2" cy="273.86136138847485" r="2.5" fill="rgba(0,0,0,0.35)" /><circle cx="184.7" cy="274.65388303452244" r="2.5" fill="rgba(0,0,0,0.35)" /><circle cx="182.2" cy="312.9958702648508" r="2.5" fill="rgba(0,0,0,0.35)" /><circle cx="192.2" cy="290.0396247383849" r="2.5" fill="rgba(0,0,0,0.35)" /><circle cx="172.2" cy="288.7769921390336" r="2.5" fill="rgba(0,0,0,0.35)" /><circle cx="387.2" cy="334.07764838871265" r="2.5" fill="rgba(0,0,0,0.35)" /><circle cx="352.2" cy="351.3845115121055" r="2.5" fill="rgba(0,0,0,0.35)" /><circle cx="367.2" cy="347.9256125113263" r="2.5" fill="rgba(0,0,0,0.35)" /><circle cx="357.2" cy="362.9564190896154" r="2.5" fill="rgba(0,0,0,0.35)" /><circle cx="377.2" cy="352.7139969541514" r="2.5" fill="rgba(0,0,0,0.35)" /><circle cx="362.2" cy="331.3529444153386" r="2.5" fill="rgba(0,0,0,0.35)" /><circle cx="382.2" cy="359.0000354874235" r="2.5" fill="rgba(0,0,0,0.35)" /><circle cx="377.2" cy="333.60097739755435" r="2.5" fill="rgba(0,0,0,0.35)" /><circle cx="362.2" cy="354.1750884831819" r="2.5" fill="rgba(0,0,0,0.35)" /><circle cx="382.2" cy="330.8356124515848" r="2.5" fill="rgba(0,0,0,0.35)" /><circle cx="397.2" cy="352.247091722063" r="2.5" fill="rgba(0,0,0,0.35)" /><circle cx="377.2" cy="347.6228840157903" r="2.5" fill="rgba(0,0,0,0.35)" /><circle cx="387.2" cy="341.8859871507167" r="2.5" fill="rgba(0,0,0,0.35)" /><circle cx="362.2" cy="341.2941111892193" r="2.5" fill="rgba(0,0,0,0.35)" /><circle cx="372.2" cy="326.77546881972796" r="2.5" fill="rgba(0,0,0,0.35)" /><circle cx="387.2" cy="354.51516305344893" r="2.5" fill="rgba(0,0,0,0.35)" /><circle cx="362.2" cy="348.7981826204418" r="2.5" fill="rgba(0,0,0,0.35)" /><circle cx="352.2" cy="357.89966664418546" r="2.5" fill="rgba(0,0,0,0.35)" /><circle cx="392.2" cy="363.1230848343907" r="2.5" fill="rgba(0,0,0,0.35)" /><circle cx="382.2" cy="371.90111884812165" r="2.5" fill="rgba(0,0,0,0.35)" /><circle cx="357.2" cy="349.51092614780794" r="2.5" fill="rgba(0,0,0,0.35)" /><circle cx="387.2" cy="349.3173971896806" r="2.5" fill="rgba(0,0,0,0.35)" /><circle cx="382.2" cy="348.4880909758728" r="2.5" fill="rgba(0,0,0,0.35)" /><circle cx="372.2" cy="311.33834986969214" r="2.5" fill="rgba(0,0,0,0.35)" /><circle cx="362.2" cy="372.06203951636223" r="2.5" fill="rgba(0,0,0,0.35)" /><circle cx="372.2" cy="356.05581496705565" r="2.5" fill="rgba(0,0,0,0.35)" /><circle cx="367.2" cy="363.97881171179364" r="2.5" fill="rgba(0,0,0,0.35)" /><circle cx="372.2" cy="375.8924339932117" r="2.5" fill="rgba(0,0,0,0.35)" /><circle cx="347.2" cy="358.2787269456911" r="2.5" fill="rgba(0,0,0,0.35)" /><circle cx="392.2" cy="334.53662690325274" r="2.5" fill="rgba(0,0,0,0.35)" /><circle cx="367.2" cy="358.27018788649946" r="2.5" fill="rgba(0,0,0,0.35)" /><circle cx="382.2" cy="353.6409184582957" r="2.5" fill="rgba(0,0,0,0.35)" /><circle cx="392.2" cy="349.62341877169615" r="2.5" fill="rgba(0,0,0,0.35)" /><circle cx="367.2" cy="337.1326050490108" r="2.5" fill="rgba(0,0,0,0.35)" /><circle cx="372.2" cy="368.16095024882185" r="2.5" fill="rgba(0,0,0,0.35)" /><circle cx="352.2" cy="335.4371009772948" r="2.5" fill="rgba(0,0,0,0.35)" /><circle cx="357.2" cy="334.20287919819214" r="2.5" fill="rgba(0,0,0,0.35)" /><circle cx="367.2" cy="371.8535702776159" r="2.5" fill="rgba(0,0,0,0.35)" /><circle cx="357.2" cy="343.2207037943875" r="2.5" fill="rgba(0,0,0,0.35)" /><circle cx="382.2" cy="365.6801913239025" r="2.5" fill="rgba(0,0,0,0.35)" /><circle cx="372.2" cy="350.9610757757263" r="2.5" fill="rgba(0,0,0,0.35)" /><circle cx="372.2" cy="361.29207365644845" r="2.5" fill="rgba(0,0,0,0.35)" /><circle cx="372.2" cy="384.6043131581384" r="2.5" fill="rgba(0,0,0,0.35)" /><circle cx="367.2" cy="330.4699376743405" r="2.5" fill="rgba(0,0,0,0.35)" /><circle cx="357.2" cy="355.35263811224195" r="2.5" fill="rgba(0,0,0,0.35)" /><circle cx="377.2" cy="339.12472118560174" r="2.5" fill="rgba(0,0,0,0.35)" /><circle cx="377.2" cy="362.89334584576704" r="2.5" fill="rgba(0,0,0,0.35)" /><circle cx="367.2" cy="353.16968485247105" r="2.5" fill="rgba(0,0,0,0.35)" /><circle cx="372.2" cy="333.3383928859095" r="2.5" fill="rgba(0,0,0,0.35)" /><circle cx="392.2" cy="356.4435096068947" r="2.5" fill="rgba(0,0,0,0.35)" /><circle cx="377.2" cy="328.53345304423004" r="2.5" fill="rgba(0,0,0,0.35)" /><circle cx="362.2" cy="359.34088026233246" r="2.5" fill="rgba(0,0,0,0.35)" /><circle cx="377.2" cy="369.7616565257557" r="2.5" fill="rgba(0,0,0,0.35)" /><circle cx="387.2" cy="360.4189559283004" r="2.5" fill="rgba(0,0,0,0.35)" /><circle cx="367.2" cy="342.55429896658313" r="2.5" fill="rgba(0,0,0,0.35)" /><circle cx="397.2" cy="358.0474562226573" r="2.5" fill="rgba(0,0,0,0.35)" /><circle cx="372.2" cy="338.35884680702685" r="2.5" fill="rgba(0,0,0,0.35)" /><circle cx="382.2" cy="339.9102066272235" r="2.5" fill="rgba(0,0,0,0.35)" /><circle cx="377.2" cy="357.7893256954646" r="2.5" fill="rgba(0,0,0,0.35)" /><circle cx="372.2" cy="345.94339641103943" r="2.5" fill="rgba(0,0,0,0.35)" /><circle cx="387.2" cy="231.2205055315698" r="2.5" fill="rgba(0,0,0,0.35)" /><circle cx="352.2" cy="248.52736865496271" r="2.5" fill="rgba(0,0,0,0.35)" /><circle cx="367.2" cy="245.06846965418345" r="2.5" fill="rgba(0,0,0,0.35)" /><circle cx="357.2" cy="260.09927623247256" r="2.5" fill="rgba(0,0,0,0.35)" /><circle cx="377.2" cy="249.85685409700855" r="2.5" fill="rgba(0,0,0,0.35)" /><circle cx="362.2" cy="228.49580155819575" r="2.5" fill="rgba(0,0,0,0.35)" /><circle cx="382.2" cy="256.1428926302806" r="2.5" fill="rgba(0,0,0,0.35)" /><circle cx="377.2" cy="230.7438345404115" r="2.5" fill="rgba(0,0,0,0.35)" /><circle cx="362.2" cy="251.3179456260391" r="2.5" fill="rgba(0,0,0,0.35)" /><circle cx="382.2" cy="227.97846959444195" r="2.5" fill="rgba(0,0,0,0.35)" /><circle cx="397.2" cy="249.38994886492017" r="2.5" fill="rgba(0,0,0,0.35)" /><circle cx="377.2" cy="244.76574115864742" r="2.5" fill="rgba(0,0,0,0.35)" /><circle cx="387.2" cy="239.02884429357385" r="2.5" fill="rgba(0,0,0,0.35)" /><circle cx="362.2" cy="238.43696833207642" r="2.5" fill="rgba(0,0,0,0.35)" /><circle cx="372.2" cy="223.91832596258507" r="2.5" fill="rgba(0,0,0,0.35)" /><circle cx="387.2" cy="251.65802019630607" r="2.5" fill="rgba(0,0,0,0.35)" /><circle cx="362.2" cy="245.94103976329893" r="2.5" fill="rgba(0,0,0,0.35)" /><circle cx="352.2" cy="255.04252378704257" r="2.5" fill="rgba(0,0,0,0.35)" /><circle cx="392.2" cy="260.26594197724785" r="2.5" fill="rgba(0,0,0,0.35)" /><circle cx="382.2" cy="269.0439759909788" r="2.5" fill="rgba(0,0,0,0.35)" /><circle cx="357.2" cy="246.6537832906651" r="2.5" fill="rgba(0,0,0,0.35)" /><circle cx="387.2" cy="246.46025433253774" r="2.5" fill="rgba(0,0,0,0.35)" /><circle cx="382.2" cy="245.63094811872995" r="2.5" fill="rgba(0,0,0,0.35)" /><circle cx="372.2" cy="208.48120701254936" r="2.5" fill="rgba(0,0,0,0.35)" /><circle cx="362.2" cy="269.20489665921934" r="2.5" fill="rgba(0,0,0,0.35)" /><circle cx="372.2" cy="253.19867210991282" r="2.5" fill="rgba(0,0,0,0.35)" /><circle cx="367.2" cy="261.1216688546508" r="2.5" fill="rgba(0,0,0,0.35)" /><circle cx="372.2" cy="273.03529113606885" r="2.5" fill="rgba(0,0,0,0.35)" /><circle cx="347.2" cy="255.42158408854826" r="2.5" fill="rgba(0,0,0,0.35)" /><circle cx="392.2" cy="231.6794840461099" r="2.5" fill="rgba(0,0,0,0.35)" /><circle cx="367.2" cy="255.41304502935662" r="2.5" fill="rgba(0,0,0,0.35)" /><circle cx="382.2" cy="250.78377560115283" r="2.5" fill="rgba(0,0,0,0.35)" /><circle cx="392.2" cy="246.76627591455332" r="2.5" fill="rgba(0,0,0,0.35)" /><circle cx="367.2" cy="234.27546219186792" r="2.5" fill="rgba(0,0,0,0.35)" /><circle cx="372.2" cy="265.303807391679" r="2.5" fill="rgba(0,0,0,0.35)" /><circle cx="352.2" cy="232.5799581201519" r="2.5" fill="rgba(0,0,0,0.35)" /><circle cx="357.2" cy="231.3457363410493" r="2.5" fill="rgba(0,0,0,0.35)" /><circle cx="367.2" cy="268.9964274204731" r="2.5" fill="rgba(0,0,0,0.35)" /><circle cx="357.2" cy="240.36356093724459" r="2.5" fill="rgba(0,0,0,0.35)" /><circle cx="382.2" cy="262.8230484667596" r="2.5" fill="rgba(0,0,0,0.35)" /><circle cx="372.2" cy="248.10393291858347" r="2.5" fill="rgba(0,0,0,0.35)" /><circle cx="372.2" cy="258.43493079930556" r="2.5" fill="rgba(0,0,0,0.35)" /><circle cx="372.2" cy="281.74717030099555" r="2.5" fill="rgba(0,0,0,0.35)" /><circle cx="367.2" cy="227.6127948171976" r="2.5" fill="rgba(0,0,0,0.35)" /><circle cx="357.2" cy="252.49549525509906" r="2.5" fill="rgba(0,0,0,0.35)" /><circle cx="377.2" cy="236.26757832845885" r="2.5" fill="rgba(0,0,0,0.35)" /><circle cx="377.2" cy="260.03620298862415" r="2.5" fill="rgba(0,0,0,0.35)" /><circle cx="367.2" cy="250.3125419953282" r="2.5" fill="rgba(0,0,0,0.35)" /><circle cx="372.2" cy="230.48125002876662" r="2.5" fill="rgba(0,0,0,0.35)" /><circle cx="392.2" cy="253.58636674975185" r="2.5" fill="rgba(0,0,0,0.35)" /><circle cx="377.2" cy="225.67631018708715" r="2.5" fill="rgba(0,0,0,0.35)" /><circle cx="362.2" cy="256.4837374051896" r="2.5" fill="rgba(0,0,0,0.35)" /><circle cx="377.2" cy="266.90451366861294" r="2.5" fill="rgba(0,0,0,0.35)" /><circle cx="387.2" cy="257.56181307115764" r="2.5" fill="rgba(0,0,0,0.35)" /><circle cx="367.2" cy="239.6971561094403" r="2.5" fill="rgba(0,0,0,0.35)" /><circle cx="397.2" cy="255.19031336551438" r="2.5" fill="rgba(0,0,0,0.35)" /><circle cx="372.2" cy="235.50170394988396" r="2.5" fill="rgba(0,0,0,0.35)" /><circle cx="382.2" cy="237.0530637700806" r="2.5" fill="rgba(0,0,0,0.35)" /><circle cx="377.2" cy="254.93218283832175" r="2.5" fill="rgba(0,0,0,0.35)" /><circle cx="372.2" cy="243.0862535538965" r="2.5" fill="rgba(0,0,0,0.35)" /><circle cx="602.2" cy="295.70734006097985" r="2.5" fill="rgba(0,0,0,0.35)" /><circle cx="564.7" cy="229.1615424184036" r="2.5" fill="rgba(0,0,0,0.35)" /><circle cx="572.2" cy="264.72843515061794" r="2.5" fill="rgba(0,0,0,0.35)" /><circle cx="574.7" cy="222.50881362558675" r="2.5" fill="rgba(0,0,0,0.35)" /><circle cx="582.2" cy="249.4717154670185" r="2.5" fill="rgba(0,0,0,0.35)" /><circle cx="549.7" cy="294.17541773142193" r="2.5" fill="rgba(0,0,0,0.35)" /><circle cx="539.7" cy="284.6518118769439" r="2.5" fill="rgba(0,0,0,0.35)" /><circle cx="577.2" cy="273.1073673989845" r="2.5" fill="rgba(0,0,0,0.35)" /><circle cx="567.2" cy="238.85850315332752" r="2.5" fill="rgba(0,0,0,0.35)" /><circle cx="607.2" cy="297.4174155433079" r="2.5" fill="rgba(0,0,0,0.35)" /><circle cx="544.7" cy="283.9311388705704" r="2.5" fill="rgba(0,0,0,0.35)" /><circle cx="557.2" cy="293.26701490566984" r="2.5" fill="rgba(0,0,0,0.35)" /><circle cx="572.2" cy="296.2486216799032" r="2.5" fill="rgba(0,0,0,0.35)" /><circle cx="582.2" cy="291.49108806254196" r="2.5" fill="rgba(0,0,0,0.35)" /><circle cx="529.7" cy="299.375919412473" r="2.5" fill="rgba(0,0,0,0.35)" /><circle cx="552.2" cy="277.9171173044927" r="2.5" fill="rgba(0,0,0,0.35)" /><circle cx="567.2" cy="267.9663159342033" r="2.5" fill="rgba(0,0,0,0.35)" /><circle cx="567.2" cy="261.4534050152385" r="2.5" fill="rgba(0,0,0,0.35)" /><circle cx="562.2" cy="275.50998637835875" r="2.5" fill="rgba(0,0,0,0.35)" /><circle cx="549.7" cy="283.4722978311795" r="2.5" fill="rgba(0,0,0,0.35)" /><circle cx="574.7" cy="251.7907109175537" r="2.5" fill="rgba(0,0,0,0.35)" /><circle cx="587.2" cy="292.5986050566371" r="2.5" fill="rgba(0,0,0,0.35)" /><circle cx="597.2" cy="294.5072586685693" r="2.5" fill="rgba(0,0,0,0.35)" /><circle cx="627.2" cy="294.7692110723433" r="2.5" fill="rgba(0,0,0,0.35)" /><circle cx="572.2" cy="180.72642314227045" r="2.5" fill="rgba(0,0,0,0.35)" /><circle cx="569.7" cy="281.44023411289083" r="2.5" fill="rgba(0,0,0,0.35)" /><circle cx="572.2" cy="246.88910438770816" r="2.5" fill="rgba(0,0,0,0.35)" /><circle cx="572.2" cy="218.14408561481406" r="2.5" fill="rgba(0,0,0,0.35)" /><circle cx="562.2" cy="296.8248892218618" r="2.5" fill="rgba(0,0,0,0.35)" /><circle cx="572.2" cy="275.5067342513513" r="2.5" fill="rgba(0,0,0,0.35)" /><circle cx="577.2" cy="102.49680187821139" r="2.5" fill="rgba(0,0,0,0.35)" /><circle cx="577.2" cy="226.895612802325" r="2.5" fill="rgba(0,0,0,0.35)" /><circle cx="609.7" cy="287.2163479558843" r="2.5" fill="rgba(0,0,0,0.35)" /><circle cx="582.2" cy="239.7343963124827" r="2.5" fill="rgba(0,0,0,0.35)" /><circle cx="539.7" cy="296.9843907224365" r="2.5" fill="rgba(0,0,0,0.35)" /><circle cx="622.2" cy="294.76077423555495" r="2.5" fill="rgba(0,0,0,0.35)" /><circle cx="564.7" cy="287.4351738200235" r="2.5" fill="rgba(0,0,0,0.35)" /><circle cx="592.2" cy="288.68258817964625" r="2.5" fill="rgba(0,0,0,0.35)" /><circle cx="567.2" cy="207.76687407047103" r="2.5" fill="rgba(0,0,0,0.35)" /><circle cx="522.2" cy="294.76082589391297" r="2.5" fill="rgba(0,0,0,0.35)" /><circle cx="574.7" cy="279.9606970657124" r="2.5" fill="rgba(0,0,0,0.35)" /><circle cx="569.7" cy="300.7926977075449" r="2.5" fill="rgba(0,0,0,0.35)" /><circle cx="632.2" cy="295.76381577123624" r="2.5" fill="rgba(0,0,0,0.35)" /><circle cx="577.2" cy="237.9826450662519" r="2.5" fill="rgba(0,0,0,0.35)" /><circle cx="557.2" cy="288.07362748191616" r="2.5" fill="rgba(0,0,0,0.35)" /><circle cx="569.7" cy="225.68219306490897" r="2.5" fill="rgba(0,0,0,0.35)" /><circle cx="572.2" cy="235.7085394261618" r="2.5" fill="rgba(0,0,0,0.35)" /><circle cx="572.2" cy="270.14781113448237" r="2.5" fill="rgba(0,0,0,0.35)" /><circle cx="624.7" cy="300.5930413323349" r="2.5" fill="rgba(0,0,0,0.35)" /><circle cx="567.2" cy="248.69953298423306" r="2.5" fill="rgba(0,0,0,0.35)" /><circle cx="562.2" cy="269.45033221447596" r="2.5" fill="rgba(0,0,0,0.35)" /><circle cx="537.2" cy="292.64736748176153" r="2.5" fill="rgba(0,0,0,0.35)" /><circle cx="527.2" cy="294.6301086889231" r="2.5" fill="rgba(0,0,0,0.35)" /><circle cx="592.2" cy="293.9720878486336" r="2.5" fill="rgba(0,0,0,0.35)" /><circle cx="562.2" cy="291.80324658949735" r="2.5" fill="rgba(0,0,0,0.35)" /><circle cx="544.7" cy="296.868764040182" r="2.5" fill="rgba(0,0,0,0.35)" /><circle cx="564.7" cy="282.22629196609216" r="2.5" fill="rgba(0,0,0,0.35)" /><circle cx="577.2" cy="295.00923317426464" r="2.5" fill="rgba(0,0,0,0.35)" /><circle cx="599.7" cy="283.68977973422614" r="2.5" fill="rgba(0,0,0,0.35)" /><circle cx="569.7" cy="286.58539451367426" r="2.5" fill="rgba(0,0,0,0.35)" /><circle cx="577.2" cy="266.518428887077" r="2.5" fill="rgba(0,0,0,0.35)" /><circle cx="554.7" cy="283.30314803281726" r="2.5" fill="rgba(0,0,0,0.35)" /><circle cx="619.7" cy="299.4244723929248" r="2.5" fill="rgba(0,0,0,0.35)" /><circle cx="579.7" cy="287.0657365805756" r="2.5" fill="rgba(0,0,0,0.35)" /><circle cx="534.7" cy="297.58154548936494" r="2.5" fill="rgba(0,0,0,0.35)" /><circle cx="574.7" cy="290.67873401287557" r="2.5" fill="rgba(0,0,0,0.35)" /><circle cx="567.2" cy="296.2677124349224" r="2.5" fill="rgba(0,0,0,0.35)" /><circle cx="562.2" cy="261.7144615282355" r="2.5" fill="rgba(0,0,0,0.35)" /><circle cx="557.2" cy="255.33969734134746" r="2.5" fill="rgba(0,0,0,0.35)" /><circle cx="552.2" cy="299.1485544714577" r="2.5" fill="rgba(0,0,0,0.35)" /><circle cx="577.2" cy="260.2410805273633" r="2.5" fill="rgba(0,0,0,0.35)" /><circle cx="567.2" cy="273.31542707215607" r="2.5" fill="rgba(0,0,0,0.35)" /><circle cx="592.2" cy="299.0713206965288" r="2.5" fill="rgba(0,0,0,0.35)" /><circle cx="562.2" cy="251.04199419722045" r="2.5" fill="rgba(0,0,0,0.35)" /><circle cx="572.2" cy="143.1759023078945" r="2.5" fill="rgba(0,0,0,0.35)" /><circle cx="557.2" cy="298.68768033430297" r="2.5" fill="rgba(0,0,0,0.35)" /><circle cx="572.2" cy="98.48872790209202" r="2.5" fill="rgba(0,0,0,0.35)" /><circle cx="532.2" cy="293.04279696013214" r="2.5" fill="rgba(0,0,0,0.35)" /><circle cx="604.7" cy="284.6155083905161" r="2.5" fill="rgba(0,0,0,0.35)" /><circle cx="612.2" cy="299.2085891797233" r="2.5" fill="rgba(0,0,0,0.35)" /><circle cx="597.2" cy="299.8579954974143" r="2.5" fill="rgba(0,0,0,0.35)" /><circle cx="587.2" cy="276.4454074385387" r="2.5" fill="rgba(0,0,0,0.35)" /><circle cx="572.2" cy="230.22442410223522" r="2.5" fill="rgba(0,0,0,0.35)" /><circle cx="584.7" cy="283.02878527968903" r="2.5" fill="rgba(0,0,0,0.35)" /><circle cx="587.2" cy="261.99913733151976" r="2.5" fill="rgba(0,0,0,0.35)" /><circle cx="547.2" cy="289.70130475537087" r="2.5" fill="rgba(0,0,0,0.35)" /><circle cx="572.2" cy="259.14971471462513" r="2.5" fill="rgba(0,0,0,0.35)" /><circle cx="587.2" cy="298.6656805166982" r="2.5" fill="rgba(0,0,0,0.35)" /><circle cx="557.2" cy="276.83976611539407" r="2.5" fill="rgba(0,0,0,0.35)" /><circle cx="569.7" cy="253.4698879831701" r="2.5" fill="rgba(0,0,0,0.35)" /><circle cx="574.7" cy="285.3581883588407" r="2.5" fill="rgba(0,0,0,0.35)" /><circle cx="577.2" cy="300.3715673098825" r="2.5" fill="rgba(0,0,0,0.35)" /><circle cx="589.7" cy="283.1899162454109" r="2.5" fill="rgba(0,0,0,0.35)" /><circle cx="577.2" cy="246.92572298171626" r="2.5" fill="rgba(0,0,0,0.35)" /><circle cx="587.2" cy="287.52048643758735" r="2.5" fill="rgba(0,0,0,0.35)" /><circle cx="569.7" cy="291.6294294621065" r="2.5" fill="rgba(0,0,0,0.35)" /><circle cx="582.2" cy="296.7695288065555" r="2.5" fill="rgba(0,0,0,0.35)" /><circle cx="592.2" cy="276.8535709925686" r="2.5" fill="rgba(0,0,0,0.35)" /><circle cx="607.2" cy="292.1878792100032" r="2.5" fill="rgba(0,0,0,0.35)" /><circle cx="524.7" cy="299.97853547721525" r="2.5" fill="rgba(0,0,0,0.35)" /><circle cx="579.7" cy="281.6190799628089" r="2.5" fill="rgba(0,0,0,0.35)" /><circle cx="577.2" cy="207.18177593021" r="2.5" fill="rgba(0,0,0,0.35)" /><circle cx="582.2" cy="261.51175286348666" r="2.5" fill="rgba(0,0,0,0.35)" /><circle cx="602.2" cy="289.9087029332827" r="2.5" fill="rgba(0,0,0,0.35)" /><circle cx="572.2" cy="204.21597678146424" r="2.5" fill="rgba(0,0,0,0.35)" /><circle cx="557.2" cy="270.754343980749" r="2.5" fill="rgba(0,0,0,0.35)" /><circle cx="579.7" cy="254.81110186901515" r="2.5" fill="rgba(0,0,0,0.35)" /><circle cx="542.2" cy="292.14052310198264" r="2.5" fill="rgba(0,0,0,0.35)" /><circle cx="517.2" cy="294.8750485090309" r="2.5" fill="rgba(0,0,0,0.35)" /><circle cx="617.2" cy="294.55390814956775" r="2.5" fill="rgba(0,0,0,0.35)" /><circle cx="612.2" cy="292.73365244003253" r="2.5" fill="rgba(0,0,0,0.35)" /><circle cx="587.2" cy="270.2651176033015" r="2.5" fill="rgba(0,0,0,0.35)" /><circle cx="597.2" cy="289.4946275648109" r="2.5" fill="rgba(0,0,0,0.35)" /><circle cx="594.7" cy="283.3881275457494" r="2.5" fill="rgba(0,0,0,0.35)" /><circle cx="587.2" cy="251.98464805551959" r="2.5" fill="rgba(0,0,0,0.35)" /><circle cx="582.2" cy="273.59415801112755" r="2.5" fill="rgba(0,0,0,0.35)" /><circle cx="559.7" cy="283.15390139198576" r="2.5" fill="rgba(0,0,0,0.35)" /><circle cx="582.2" cy="268.31521243545717" r="2.5" fill="rgba(0,0,0,0.35)" /><circle cx="534.7" cy="287.5422489217701" r="2.5" fill="rgba(0,0,0,0.35)" /><circle cx="552.2" cy="289.28247748392107" r="2.5" fill="rgba(0,0,0,0.35)" /></svg>