<svg xmlns="http://www.w3.org/2000/svg" width="686.2" height="545" font-family="DejaVu Sans, Liberation Sans, Arial, sans-serif" fill="black"><rect width="100%" height="100%" fill="white" /><line x1="72.19999999999999" y1="494" x2="672.2" y2="494" stroke="black" stroke-width="1" /><line x1="72.19999999999999" y1="44" x2="72.19999999999999" y2="494" stroke="black" stroke-width="1" /><line x1="197.2" y1="44" x2="197.2" y2="494" stroke="#ccc" stroke-width="1" /><line x1="322.2" y1="44" x2="322.2" y2="494" stroke="#ccc" stroke-width="1" /><line x1="447.2" y1="44" x2="447.2" y2="494" stroke="#ccc" stroke-width="1" /><line x1="572.2" y1="44" x2="572.2" y2="494" stroke="#ccc" stroke-width="1" /><line x1="72.19999999999999" y1="419" x2="672.2" y2="419" stroke="#ccc" stroke-width="1" /><line x1="72.19999999999999" y1="344" x2="672.2" y2="344" stroke="#ccc" stroke-width="1" /><line x1="72.19999999999999" y1="269" x2="672.2" y2="269" stroke="#ccc" stroke-width="1" /><line x1="72.19999999999999" y1="194" x2="672.2" y2="194" stroke="#ccc" stroke-width="1" /><line x1="72.19999999999999" y1="119" x2="672.2" y2="119" stroke="#ccc" stroke-width="1" /><line x1="72.19999999999999" y1="44" x2="672.2" y2="44" stroke="#ccc" stroke-width="1" /><line x1="72.19999999999999" y1="494" x2="72.19999999999999" y2="499" stroke="black" stroke-width="1" /><text x="72.19999999999999" y="511" font-size="12" text-anchor="middle">0</text><line x1="197.2" y1="494" x2="197.2" y2="499" stroke="black" stroke-width="1" /><text x="197.2" y="511" font-size="12" text-anchor="middle">2.5</text><line x1="322.2" y1="494" x2="322.2" y2="499" stroke="black" stroke-width="1" /><text x="322.2" y="511" font-size="12" text-anchor="middle">5</text><line x1="447.2" y1="494" x2="447.2" y2="499" stroke="black" stroke-width="1" /><text x="447.2" y="511" font-size="12" text-anchor="middle">7.5</text><line x1="572.2" y1="494" x2="572.2" y2="499" stroke="black" stroke-width="1" /><text x="572.2" y="511" font-size="12" text-anchor="middle">10</text><line x1="67.19999999999999" y1="494" x2="72.19999999999999" y2="494" stroke="black" stroke-width="1" /><text x="64.19999999999999" y="498.2" font-size="12" text-anchor="end">-1.5</text><line x1="67.19999999999999" y1="419" x2="72.19999999999999" y2="419" stroke="black" stroke-width="1" /><text x="64.19999999999999" y="423.2" font-size="12" text-anchor="end">-1</text><line x1="67.19999999999999" y1="344" x2="72.19999999999999" y2="344" stroke="black" stroke-width="1" /><text x="64.19999999999999" y="348.2" font-size="12" text-anchor="end">-0.5</text><line x1="67.19999999999999" y1="269" x2="72.19999999999999" y2="269" stroke="black" stroke-width="1" /><text x="64.19999999999999" y="273.2" font-size="12" text-anchor="end">0</text><line x1="67.19999999999999" y1="194" x2="72.19999999999999" y2="194" stroke="black" stroke-width="1" /><text x="64.19999999999999" y="198.2" font-size="12" text-anchor="end">0.5</text><line x1="67.19999999999999" y1="119" x2="72.19999999999999" y2="119" stroke="black" stroke-width="1" /><text x="64.19999999999999" y="123.2" font-size="12" text-anchor="end">1</text><line x1="67.19999999999999" y1="44" x2="72.19999999999999" y2="44" stroke="black" stroke-width="1" /><text x="64.19999999999999" y="48.2" font-size="12" text-anchor="end">1.5</text><text x="343.1" y="538" font-size="14" text-anchor="middle">X</text><text x="14" y="272.5" font-size="14" text-anchor="middle" transform="rotate(-90,14,272.5)">Y</text><text x="343.1" y="22" font-size="18" text-anchor="middle">Confidence Band</text><path d="M 72.19999999999999 224 L 78.44999999999999 205.29878999221586 L 84.69999999999999 186.8894061118216 L 90.94999999999999 169.05912063709286 L 97.19999999999999 152.0861692093696 L 103.44999999999999 136.23540905893066 L 109.69999999999999 121.75418599649981 L 115.94999999999999 108.86847466459591 L 122.19999999999999 97.77935227881551 L 128.45 88.65986088513574 L 134.7 81.65230709666201 L 140.95 76.86604144652665 L 147.2 74.37575200939187 L 153.45 74.22029891902525 L 159.7 76.40210796890943 L 165.95 80.88713275854593 L 172.2 87.60538597614772 L 178.45 96.45203152723218 L 184.7 107.28902046681185 L 190.95 119.94724520700925 L 197.2 134.22917838440657 L 203.45 149.91195520848663 L 209.7 166.7508511921502 L 215.95 184.4831009954869 L 222.2 202.83199879101988 L 228.45 221.51121616559783 L 234.7 240.22927017951628 L 240.95 258.6940718603033 L 247.2 276.617484153443 L 253.45 293.7198182047414 L 259.7 309.7341978113516 L 265.95 324.41072393566037 L 272.2 337.5203742961892 L 278.45 348.8585771836981 L 284.7 358.24840373428754 L 290.95 365.5433288451444 L 297.2 370.6295176497646 L 303.45 373.4276018729719 L 309.7 373.8939183463067 L 315.95 372.0211903571662 L 322.2 367.83864119947077 L 328.45 361.41153815393653 L 334.7 352.8401740139888 L 340.95 342.2583020502645 L 347.2 329.8310488355588 L 353.45 315.7523374998848 L 359.7 300.24186162488877 L 365.95 283.54165699898704 L 372.2 265.9123247298389 L 378.45 247.62896465122142 L 384.7 228.97688248213348 L 390.95 210.24713772647334 L 397.2 191.7320017868277 L 403.45 173.7203971669872 L 409.7 156.4933889329074 L 415.95 140.31979878635894 L 422.2 125.45201019218166 L 428.45 112.12203001872689 L 434.7 100.53786814827419 L 440.95 90.88029155238877 L 447.2 83.30000348378917 L 453.45 77.91529180249307 L 459.7 74.81018313332356 L 465.95 74.03313165853257 L 472.2 75.59626300649273 L 478.45 79.47518503532183 L 484.7 85.60936846409896 L 490.95 93.90309141204898 L 497.2 104.2269331064764 L 503.45 116.41979345063817 L 509.7 130.29140693687117 L 515.95 145.62531167620392 L 522.2 162.18222721373655 L 528.45 179.7037884201094 L 534.7 197.916577192935 L 540.95 216.5363890548382 L 547.2 235.2726680692714 L 553.45 253.83304086872502 L 559.7 271.927879043341 L 565.95 289.27481869537985 L 572.2 305.60316663340546 L 572.2 395.60316663340546 L 565.95 379.27481869537985 L 559.7 361.927879043341 L 553.45 343.83304086872505 L 547.2 325.2726680692714 L 540.95 306.5363890548382 L 534.7 287.91657719293494 L 528.45 269.7037884201094 L 522.2 252.1822272137365 L 515.95 235.62531167620398 L 509.7 220.29140693687117 L 503.45 206.4197934506381 L 497.2 194.2269331064765 L 490.95 183.90309141204892 L 484.7 175.6093684640989 L 478.45 169.47518503532172 L 472.2 165.5962630064928 L 465.95 164.03313165853268 L 459.7 164.81018313332356 L 453.45 167.91529180249307 L 447.2 173.30000348378917 L 440.95 180.8802915523887 L 434.7 190.53786814827419 L 428.45 202.1220300187269 L 422.2 215.45201019218166 L 415.95 230.319798786359 L 409.7 246.49338893290735 L 403.45 263.72039716698714 L 397.2 281.73200178682765 L 390.95 300.2471377264733 L 384.7 318.97688248213353 L 378.45 337.62896465122145 L 372.2 355.9123247298389 L 365.95 373.54165699898704 L 359.7 390.24186162488877 L 353.45 405.7523374998848 L 347.2 419.83104883555876 L 340.95 432.25830205026443 L 334.7 442.8401740139888 L 328.45 451.41153815393653 L 322.2 457.83864119947077 L 315.95 462.0211903571662 L 309.7 463.8939183463067 L 303.45 463.4276018729719 L 297.2 460.6295176497646 L 290.95 455.5433288451444 L 284.7 448.24840373428754 L 278.45 438.8585771836981 L 272.2 427.52037429618923 L 265.95 414.41072393566037 L 259.7 399.7341978113516 L 253.45 383.71981820474133 L 247.2 366.617484153443 L 240.95 348.69407186030327 L 234.7 330.2292701795163 L 228.45 311.51121616559783 L 222.2 292.83199879101994 L 215.95 274.48310099548684 L 209.7 256.7508511921502 L 203.45 239.91195520848663 L 197.2 224.2291783844065 L 190.95 209.94724520700925 L 184.7 197.28902046681185 L 178.45 186.45203152723218 L 172.2 177.60538597614777 L 165.95 170.88713275854593 L 159.7 166.4021079689095 L 153.45 164.2202989190252 L 147.2 164.37575200939182 L 140.95 166.86604144652665 L 134.7 171.65230709666207 L 128.45 178.65986088513569 L 122.19999999999999 187.77935227881557 L 115.94999999999999 198.86847466459596 L 109.69999999999999 211.75418599649987 L 103.44999999999999 226.2354090589307 L 97.19999999999999 242.08616920936956 L 90.94999999999999 259.05912063709286 L 84.69999999999999 276.8894061118216 L 78.44999999999999 295.2987899922158 L 72.19999999999999 314 Z" stroke="none" stroke-width="0" fill="steelblue" fill-opacity="0.2" /><path d="M 72.19999999999999 269 L 78.44999999999999 250.2987899922159 L 84.69999999999999 231.88940611182153 L 90.94999999999999 214.05912063709286 L 97.19999999999999 197.0861692093696 L 103.44999999999999 181.23540905893066 L 109.69999999999999 166.75418599649987 L 115.94999999999999 153.86847466459596 L 122.19999999999999 142.7793522788155 L 128.45 133.65986088513569 L 134.7 126.65230709666207 L 140.95 121.86604144652671 L 147.2 119.37575200939182 L 153.45 119.22029891902525 L 159.7 121.40210796890943 L 165.95 125.88713275854587 L 172.2 132.60538597614772 L 178.45 141.45203152723218 L 184.7 152.28902046681185 L 190.95 164.94724520700925 L 197.2 179.2291783844065 L 203.45 194.91195520848657 L 209.7 211.75085119215026 L 215.95 229.4831009954869 L 222.2 247.83199879101994 L 228.45 266.51121616559783 L 234.7 285.2292701795163 L 240.95 303.69407186030327 L 247.2 321.617484153443 L 253.45 338.71981820474133 L 259.7 354.7341978113516 L 265.95 369.41072393566037 L 272.2 382.52037429618923 L 278.45 393.8585771836981 L 284.7 403.24840373428754 L 290.95 410.5433288451444 L 297.2 415.6295176497646 L 303.45 418.4276018729719 L 309.7 418.8939183463067 L 315.95 417.0211903571662 L 322.2 412.83864119947077 L 328.45 406.41153815393653 L 334.7 397.8401740139888 L 340.95 387.25830205026443 L 347.2 374.8310488355588 L 353.45 360.7523374998848 L 359.7 345.24186162488877 L 365.95 328.54165699898704 L 372.2 310.91232472983893 L 378.45 292.62896465122145 L 384.7 273.97688248213353 L 390.95 255.2471377264733 L 397.2 236.73200178682765 L 403.45 218.7203971669872 L 409.7 201.49338893290735 L 415.95 185.31979878635894 L 422.2 170.4520101921816 L 428.45 157.12203001872695 L 434.7 145.53786814827419 L 440.95 135.8802915523887 L 447.2 128.30000348378917 L 453.45 122.91529180249302 L 459.7 119.81018313332356 L 465.95 119.03313165853262 L 472.2 120.59626300649273 L 478.45 124.47518503532177 L 484.7 130.6093684640989 L 490.95 138.90309141204898 L 497.2 149.22693310647645 L 503.45 161.41979345063817 L 509.7 175.29140693687117 L 515.95 190.62531167620392 L 522.2 207.1822272137365 L 528.45 224.7037884201094 L 534.7 242.91657719293497 L 540.95 261.5363890548382 L 547.2 280.2726680692714 L 553.45 298.833040868725 L 559.7 316.927879043341 L 565.95 334.27481869537985 L 572.2 350.60316663340546 " stroke="steelblue" stroke-width="2" fill="none" /></svg>