<svg xmlns="http://www.w3.org/2000/svg" width="686.2" height="545" font-family="DejaVu Sans, Liberation Sans, Arial, sans-serif" fill="black"><rect width="100%" height="100%" fill="white" /><line x1="72.19999999999999" y1="494" x2="672.2" y2="494" stroke="black" stroke-width="1" /><line x1="72.19999999999999" y1="44" x2="72.19999999999999" y2="494" stroke="black" stroke-width="1" /><line x1="192.2" y1="44" x2="192.2" y2="494" stroke="#ccc" stroke-width="1" /><line x1="312.2" y1="44" x2="312.2" y2="494" stroke="#ccc" stroke-width="1" /><line x1="432.2" y1="44" x2="432.2" y2="494" stroke="#ccc" stroke-width="1" /><line x1="552.2" y1="44" x2="552.2" y2="494" stroke="#ccc" stroke-width="1" /><line x1="672.2" y1="44" x2="672.2" y2="494" stroke="#ccc" stroke-width="1" /><line x1="72.19999999999999" y1="419" x2="672.2" y2="419" stroke="#ccc" stroke-width="1" /><line x1="72.19999999999999" y1="344" x2="672.2" y2="344" stroke="#ccc" stroke-width="1" /><line x1="72.19999999999999" y1="269" x2="672.2" y2="269" stroke="#ccc" stroke-width="1" /><line x1="72.19999999999999" y1="194" x2="672.2" y2="194" stroke="#ccc" stroke-width="1" /><line x1="72.19999999999999" y1="119" x2="672.2" y2="119" stroke="#ccc" stroke-width="1" /><line x1="72.19999999999999" y1="44" x2="672.2" y2="44" stroke="#ccc" stroke-width="1" /><line x1="72.19999999999999" y1="494" x2="72.19999999999999" y2="499" stroke="black" stroke-width="1" /><text x="72.19999999999999" y="511" font-size="12" text-anchor="middle">0</text><line x1="192.2" y1="494" x2="192.2" y2="499" stroke="black" stroke-width="1" /><text x="192.2" y="511" font-size="12" text-anchor="middle">2</text><line x1="312.2" y1="494" x2="312.2" y2="499" stroke="black" stroke-width="1" /><text x="312.2" y="511" font-size="12" text-anchor="middle">4</text><line x1="432.2" y1="494" x2="432.2" y2="499" stroke="black" stroke-width="1" /><text x="432.2" y="511" font-size="12" text-anchor="middle">6</text><line x1="552.2" y1="494" x2="552.2" y2="499" stroke="black" stroke-width="1" /><text x="552.2" y="511" font-size="12" text-anchor="middle">8</text><line x1="672.2" y1="494" x2="672.2" y2="499" stroke="black" stroke-width="1" /><text x="672.2" y="511" font-size="12" text-anchor="middle">10</text><line x1="67.19999999999999" y1="494" x2="72.19999999999999" y2="494" stroke="black" stroke-width="1" /><text x="64.19999999999999" y="498.2" font-size="12" text-anchor="end">-1.5</text><line x1="67.19999999999999" y1="419" x2="72.19999999999999" y2="419" stroke="black" stroke-width="1" /><text x="64.19999999999999" y="423.2" font-size="12" text-anchor="end">-1</text><line x1="67.19999999999999" y1="344" x2="72.19999999999999" y2="344" stroke="black" stroke-width="1" /><text x="64.19999999999999" y="348.2" font-size="12" text-anchor="end">-0.5</text><line x1="67.19999999999999" y1="269" x2="72.19999999999999" y2="269" stroke="black" stroke-width="1" /><text x="64.19999999999999" y="273.2" font-size="12" text-anchor="end">0</text><line x1="67.19999999999999" y1="194" x2="72.19999999999999" y2="194" stroke="black" stroke-width="1" /><text x="64.19999999999999" y="198.2" font-size="12" text-anchor="end">0.5</text><line x1="67.19999999999999" y1="119" x2="72.19999999999999" y2="119" stroke="black" stroke-width="1" /><text x="64.19999999999999" y="123.2" font-size="12" text-anchor="end">1</text><line x1="67.19999999999999" y1="44" x2="72.19999999999999" y2="44" stroke="black" stroke-width="1" /><text x="64.19999999999999" y="48.2" font-size="12" text-anchor="end">1.5</text><text x="343.1" y="538" font-size="14" text-anchor="middle">X</text><text x="14" y="272.5" font-size="14" text-anchor="middle" transform="rotate(-90,14,272.5)">Y</text><text x="343.1" y="22" font-size="18" text-anchor="middle">Error Bars</text><path d="M 72.19999999999999 269 L 132.2 161.39658636507158 L 192.2 119.06395954377422 L 252.2 167.68052291732738 L 312.2 277.756121514137 L 372.2 382.52037429618923 L 432.2 418.4246913253761 L 492.2 363.68999568084814 L 552.2 251.51761927242597 " stroke="steelblue" stroke-width="2" fill="none" /><line x1="72.19999999999999" y1="291.5" x2="72.19999999999999" y2="246.50000000000003" stroke="steelblue" stroke-width="1" /><line x1="67.19999999999999" y1="291.5" x2="77.19999999999999" y2="291.5" stroke="steelblue" stroke-width="1" /><line x1="67.19999999999999" y1="246.50000000000003" x2="77.19999999999999" y2="246.50000000000003" stroke="steelblue" stroke-width="1" /><line x1="132.2" y1="191.39658636507153" x2="132.2" y2="131.39658636507153" stroke="steelblue" stroke-width="1" /><line x1="127.19999999999999" y1="191.39658636507153" x2="137.2" y2="191.39658636507153" stroke="steelblue" stroke-width="1" /><line x1="127.19999999999999" y1="131.39658636507153" x2="137.2" y2="131.39658636507153" stroke="steelblue" stroke-width="1" /><line x1="192.2" y1="137.06395954377422" x2="192.2" y2="101.06395954377422" stroke="steelblue" stroke-width="1" /><line x1="187.2" y1="137.06395954377422" x2="197.2" y2="137.06395954377422" stroke="steelblue" stroke-width="1" /><line x1="187.2" y1="101.06395954377422" x2="197.2" y2="101.06395954377422" stroke="steelblue" stroke-width="1" /><line x1="252.2" y1="194.68052291732744" x2="252.2" y2="140.6805229173275" stroke="steelblue" stroke-width="1" /><line x1="247.2" y1="194.68052291732744" x2="257.2" y2="194.68052291732744" stroke="steelblue" stroke-width="1" /><line x1="247.2" y1="140.6805229173275" x2="257.2" y2="140.6805229173275" stroke="steelblue" stroke-width="1" /><line x1="312.2" y1="310.756121514137" x2="312.2" y2="244.756121514137" stroke="steelblue" stroke-width="1" /><line x1="307.2" y1="310.756121514137" x2="317.2" y2="310.756121514137" stroke="steelblue" stroke-width="1" /><line x1="307.2" y1="244.756121514137" x2="317.2" y2="244.756121514137" stroke="steelblue" stroke-width="1" /><line x1="372.2" y1="403.52037429618923" x2="372.2" y2="361.52037429618923" stroke="steelblue" stroke-width="1" /><line x1="367.2" y1="403.52037429618923" x2="377.2" y2="403.52037429618923" stroke="steelblue" stroke-width="1" /><line x1="367.2" y1="361.52037429618923" x2="377.2" y2="361.52037429618923" stroke="steelblue" stroke-width="1" /><line x1="432.2" y1="446.9246913253761" x2="432.2" y2="389.9246913253761" stroke="steelblue" stroke-width="1" /><line x1="427.2" y1="446.9246913253761" x2="437.2" y2="446.9246913253761" stroke="steelblue" stroke-width="1" /><line x1="427.2" y1="389.9246913253761" x2="437.2" y2="389.9246913253761" stroke="steelblue" stroke-width="1" /><line x1="492.2" y1="387.68999568084814" x2="492.2" y2="339.68999568084814" stroke="steelblue" stroke-width="1" /><line x1="487.2" y1="387.68999568084814" x2="497.2" y2="387.68999568084814" stroke="steelblue" stroke-width="1" /><line x1="487.2" y1="339.68999568084814" x2="497.2" y2="339.68999568084814" stroke="steelblue" stroke-width="1" /><line x1="552.2" y1="283.0176192724259" x2="552.2" y2="220.01761927242592" stroke="steelblue" stroke-width="1" /><line x1="547.2" y1="283.0176192724259" x2="557.2" y2="283.0176192724259" stroke="steelblue" stroke-width="1" /><line x1="547.2" y1="220.01761927242592" x2="557.2" y2="220.01761927242592" stroke="steelblue" stroke-width="1" /></svg>