<svg xmlns="http://www.w3.org/2000/svg" width="686.2" height="545" font-family="DejaVu Sans, Liberation Sans, Arial, sans-serif" fill="black"><rect width="100%" height="100%" fill="white" /><line x1="72.19999999999999" y1="494" x2="672.2" y2="494" stroke="black" stroke-width="1" /><line x1="72.19999999999999" y1="44" x2="72.19999999999999" y2="494" stroke="black" stroke-width="1" /><line x1="197.2" y1="44" x2="197.2" y2="494" stroke="#ccc" stroke-width="1" /><line x1="322.2" y1="44" x2="322.2" y2="494" stroke="#ccc" stroke-width="1" /><line x1="447.2" y1="44" x2="447.2" y2="494" stroke="#ccc" stroke-width="1" /><line x1="572.2" y1="44" x2="572.2" y2="494" stroke="#ccc" stroke-width="1" /><line x1="72.19999999999999" y1="419" x2="672.2" y2="419" stroke="#ccc" stroke-width="1" /><line x1="72.19999999999999" y1="344" x2="672.2" y2="344" stroke="#ccc" stroke-width="1" /><line x1="72.19999999999999" y1="269" x2="672.2" y2="269" stroke="#ccc" stroke-width="1" /><line x1="72.19999999999999" y1="194" x2="672.2" y2="194" stroke="#ccc" stroke-width="1" /><line x1="72.19999999999999" y1="119" x2="672.2" y2="119" stroke="#ccc" stroke-width="1" /><line x1="72.19999999999999" y1="44" x2="672.2" y2="44" stroke="#ccc" stroke-width="1" /><line x1="72.19999999999999" y1="494" x2="72.19999999999999" y2="499" stroke="black" stroke-width="1" /><text x="72.19999999999999" y="511" font-size="12" text-anchor="middle">0</text><line x1="197.2" y1="494" x2="197.2" y2="499" stroke="black" stroke-width="1" /><text x="197.2" y="511" font-size="12" text-anchor="middle">2.5</text><line x1="322.2" y1="494" x2="322.2" y2="499" stroke="black" stroke-width="1" /><text x="322.2" y="511" font-size="12" text-anchor="middle">5</text><line x1="447.2" y1="494" x2="447.2" y2="499" stroke="black" stroke-width="1" /><text x="447.2" y="511" font-size="12" text-anchor="middle">7.5</text><line x1="572.2" y1="494" x2="572.2" y2="499" stroke="black" stroke-width="1" /><text x="572.2" y="511" font-size="12" text-anchor="middle">10</text><line x1="67.19999999999999" y1="494" x2="72.19999999999999" y2="494" stroke="black" stroke-width="1" /><text x="64.19999999999999" y="498.2" font-size="12" text-anchor="end">-1.5</text><line x1="67.19999999999999" y1="419" x2="72.19999999999999" y2="419" stroke="black" stroke-width="1" /><text x="64.19999999999999" y="423.2" font-size="12" text-anchor="end">-1</text><line x1="67.19999999999999" y1="344" x2="72.19999999999999" y2="344" stroke="black" stroke-width="1" /><text x="64.19999999999999" y="348.2" font-size="12" text-anchor="end">-0.5</text><line x1="67.19999999999999" y1="269" x2="72.19999999999999" y2="269" stroke="black" stroke-width="1" /><text x="64.19999999999999" y="273.2" font-size="12" text-anchor="end">0</text><line x1="67.19999999999999" y1="194" x2="72.19999999999999" y2="194" stroke="black" stroke-width="1" /><text x="64.19999999999999" y="198.2" font-size="12" text-anchor="end">0.5</text><line x1="67.19999999999999" y1="119" x2="72.19999999999999" y2="119" stroke="black" stroke-width="1" /><text x="64.19999999999999" y="123.2" font-size="12" text-anchor="end">1</text><line x1="67.19999999999999" y1="44" x2="72.19999999999999" y2="44" stroke="black" stroke-width="1" /><text x="64.19999999999999" y="48.2" font-size="12" text-anchor="end">1.5</text><text x="343.1" y="538" font-size="14" text-anchor="middle">X</text><text x="14" y="272.5" font-size="14" text-anchor="middle" transform="rotate(-90,14,272.5)">Y</text><text x="343.1" y="22" font-size="18" text-anchor="middle">Area Plot</text><path d="M 72.19999999999999 269 L 77.19999999999999 254.02498750297576 L 82.19999999999999 239.19960038074078 L 87.19999999999999 224.67196900079904 L 92.19999999999999 210.58724865370237 L 97.19999999999999 197.0861692093696 L 102.19999999999999 184.30362899074476 L 107.19999999999999 172.36734691434634 L 112.19999999999999 161.39658636507158 L 117.19999999999999 151.5009635558775 L 122.19999999999999 142.7793522788155 L 127.19999999999999 135.3188959907847 L 132.2 129.19413710491602 L 137.2 124.466272187421 L 142.2 121.18254050173095 L 147.2 119.37575200939182 L 152.2 119.06395954377422 L 157.2 120.25027843212968 L 162.2 122.92285536827069 L 167.2 127.0549868468878 L 172.2 132.60538597614772 L 177.2 139.51859500266892 L 182.2 147.7255394270615 L 187.2 157.14421817349205 L 192.20000000000002 167.68052291732738 L 197.2 179.2291783844065 L 202.2 191.67479422678036 L 207.2 204.89301796492555 L 212.20000000000002 218.75177747661428 L 217.20000000000002 233.11260061790273 L 222.2 247.83199879101994 L 227.20000000000002 262.7629006350064 L 232.2 277.756121514137 L 237.2 292.6618541214873 L 242.20000000000002 307.33116530402475 L 247.2 321.617484153443 L 252.2 335.3780664942278 L 257.2 348.475421136274 L 262.20000000000005 360.7786836414079 L 267.2 372.1649238775961 L 272.2 382.52037429618923 L 277.20000000000005 391.74156665966166 L 282.20000000000005 399.7363658620382 L 287.2 406.42489051241824 L 292.20000000000005 411.7403110834274 L 297.2 415.6295176497646 L 302.20000000000005 418.05365054501965 L 307.2 418.9884886346151 L 312.20000000000005 418.4246913253761 L 317.20000000000005 416.36789189364987 L 322.2 412.83864119947077 L 327.20000000000005 407.8722023491598 L 332.2 401.51819835802297 L 337.2 393.8401163335851 L 342.2 384.9146731333981 L 347.2 374.8310488355588 L 352.20000000000005 363.68999568084814 L 357.2 351.60283138964564 L 362.20000000000005 338.6903269120635 L 367.2 325.08149972453543 L 372.2 310.91232472983893 L 377.20000000000005 296.3243756408143 L 382.20000000000005 281.46341042262446 L 387.2 266.4779149273474 L 392.2 251.51761927242597 L 397.2 236.73200178682765 L 402.2 222.26879547299325 L 407.2 208.27251190751025 L 412.20000000000005 194.88299732920865 L 417.20000000000005 182.23403534176998 L 422.2 170.4520101921816 L 427.2 159.6546439811185 L 432.2 149.94982042262706 L 437.20000000000005 141.4345069057153 L 442.2 134.19378562825597 L 447.2 128.30000348378917 L 452.20000000000005 123.81204919527698 L 457.20000000000005 120.77476491844993 L 462.2 119.21849819380924 L 467.2 119.15879872403423 L 472.2 120.59626300649273 L 477.19999999999993 123.51652837323707 L 482.20000000000005 127.89041649803409 L 487.20000000000005 133.67422493655596 L 492.20000000000005 140.81016378675793 L 497.2 149.22693310647645 L 502.2 158.840435318883 L 507.20000000000005 169.55461548767266 L 512.2 181.2624210662358 L 517.2 193.84687153131733 L 522.2 207.1822272137365 L 527.2 221.13524564759717 L 532.2 235.56651288496312 L 537.2 250.33183647394077 L 542.2 265.2836861819963 L 547.2 280.2726680692714 L 552.2 295.1490171834472 L 557.2 309.7640939616416 L 562.2 323.97186938778924 L 567.2 337.63038406629823 L 572.2 350.60316663340546 L 572.2 269 L 72.19999999999999 269 Z" stroke="none" stroke-width="0" fill="steelblue" fill-opacity="0.3" /><path d="M 72.19999999999999 269 L 77.19999999999999 254.02498750297576 L 82.19999999999999 239.19960038074078 L 87.19999999999999 224.67196900079904 L 92.19999999999999 210.58724865370237 L 97.19999999999999 197.0861692093696 L 102.19999999999999 184.30362899074476 L 107.19999999999999 172.36734691434634 L 112.19999999999999 161.39658636507158 L 117.19999999999999 151.5009635558775 L 122.19999999999999 142.7793522788155 L 127.19999999999999 135.3188959907847 L 132.2 129.19413710491602 L 137.2 124.466272187421 L 142.2 121.18254050173095 L 147.2 119.37575200939182 L 152.2 119.06395954377422 L 157.2 120.25027843212968 L 162.2 122.92285536827069 L 167.2 127.0549868468878 L 172.2 132.60538597614772 L 177.2 139.51859500266892 L 182.2 147.7255394270615 L 187.2 157.14421817349205 L 192.20000000000002 167.68052291732738 L 197.2 179.2291783844065 L 202.2 191.67479422678036 L 207.2 204.89301796492555 L 212.20000000000002 218.75177747661428 L 217.20000000000002 233.11260061790273 L 222.2 247.83199879101994 L 227.20000000000002 262.7629006350064 L 232.2 277.756121514137 L 237.2 292.6618541214873 L 242.20000000000002 307.33116530402475 L 247.2 321.617484153443 L 252.2 335.3780664942278 L 257.2 348.475421136274 L 262.20000000000005 360.7786836414079 L 267.2 372.1649238775961 L 272.2 382.52037429618923 L 277.20000000000005 391.74156665966166 L 282.20000000000005 399.7363658620382 L 287.2 406.42489051241824 L 292.20000000000005 411.7403110834274 L 297.2 415.6295176497646 L 302.20000000000005 418.05365054501965 L 307.2 418.9884886346151 L 312.20000000000005 418.4246913253761 L 317.20000000000005 416.36789189364987 L 322.2 412.83864119947077 L 327.20000000000005 407.8722023491598 L 332.2 401.51819835802297 L 337.2 393.8401163335851 L 342.2 384.9146731333981 L 347.2 374.8310488355588 L 352.20000000000005 363.68999568084814 L 357.2 351.60283138964564 L 362.20000000000005 338.6903269120635 L 367.2 325.08149972453543 L 372.2 310.91232472983893 L 377.20000000000005 296.3243756408143 L 382.20000000000005 281.46341042262446 L 387.2 266.4779149273474 L 392.2 251.51761927242597 L 397.2 236.73200178682765 L 402.2 222.26879547299325 L 407.2 208.27251190751025 L 412.20000000000005 194.88299732920865 L 417.20000000000005 182.23403534176998 L 422.2 170.4520101921816 L 427.2 159.6546439811185 L 432.2 149.94982042262706 L 437.20000000000005 141.4345069057153 L 442.2 134.19378562825597 L 447.2 128.30000348378917 L 452.20000000000005 123.81204919527698 L 457.20000000000005 120.77476491844993 L 462.2 119.21849819380924 L 467.2 119.15879872403423 L 472.2 120.59626300649273 L 477.19999999999993 123.51652837323707 L 482.20000000000005 127.89041649803409 L 487.20000000000005 133.67422493655596 L 492.20000000000005 140.81016378675793 L 497.2 149.22693310647645 L 502.2 158.840435318883 L 507.20000000000005 169.55461548767266 L 512.2 181.2624210662358 L 517.2 193.84687153131733 L 522.2 207.1822272137365 L 527.2 221.13524564759717 L 532.2 235.56651288496312 L 537.2 250.33183647394077 L 542.2 265.2836861819963 L 547.2 280.2726680692714 L 552.2 295.1490171834472 L 557.2 309.7640939616416 L 562.2 323.97186938778924 L 567.2 337.63038406629823 L 572.2 350.60316663340546 " stroke="steelblue" stroke-width="2" fill="none" /></svg>