<svg xmlns="http://www.w3.org/2000/svg" width="777.2" height="545" font-family="DejaVu Sans, Liberation Sans, Arial, sans-serif" fill="black"><rect width="100%" height="100%" fill="white" /><line x1="72.19999999999999" y1="494" x2="672.2" y2="494" stroke="black" stroke-width="1" /><line x1="72.19999999999999" y1="44" x2="72.19999999999999" y2="494" stroke="black" stroke-width="1" /><line x1="197.2" y1="44" x2="197.2" y2="494" stroke="#ccc" stroke-width="1" /><line x1="322.2" y1="44" x2="322.2" y2="494" stroke="#ccc" stroke-width="1" /><line x1="447.2" y1="44" x2="447.2" y2="494" stroke="#ccc" stroke-width="1" /><line x1="572.2" y1="44" x2="572.2" y2="494" stroke="#ccc" stroke-width="1" /><line x1="72.19999999999999" y1="419" x2="672.2" y2="419" stroke="#ccc" stroke-width="1" /><line x1="72.19999999999999" y1="344" x2="672.2" y2="344" stroke="#ccc" stroke-width="1" /><line x1="72.19999999999999" y1="269" x2="672.2" y2="269" stroke="#ccc" stroke-width="1" /><line x1="72.19999999999999" y1="194" x2="672.2" y2="194" stroke="#ccc" stroke-width="1" /><line x1="72.19999999999999" y1="119" x2="672.2" y2="119" stroke="#ccc" stroke-width="1" /><line x1="72.19999999999999" y1="44" x2="672.2" y2="44" stroke="#ccc" stroke-width="1" /><line x1="72.19999999999999" y1="494" x2="72.19999999999999" y2="499" stroke="black" stroke-width="1" /><text x="72.19999999999999" y="511" font-size="12" text-anchor="middle">0</text><line x1="197.2" y1="494" x2="197.2" y2="499" stroke="black" stroke-width="1" /><text x="197.2" y="511" font-size="12" text-anchor="middle">2.5</text><line x1="322.2" y1="494" x2="322.2" y2="499" stroke="black" stroke-width="1" /><text x="322.2" y="511" font-size="12" text-anchor="middle">5</text><line x1="447.2" y1="494" x2="447.2" y2="499" stroke="black" stroke-width="1" /><text x="447.2" y="511" font-size="12" text-anchor="middle">7.5</text><line x1="572.2" y1="494" x2="572.2" y2="499" stroke="black" stroke-width="1" /><text x="572.2" y="511" font-size="12" text-anchor="middle">10</text><line x1="67.19999999999999" y1="494" x2="72.19999999999999" y2="494" stroke="black" stroke-width="1" /><text x="64.19999999999999" y="498.2" font-size="12" text-anchor="end">-1.5</text><line x1="67.19999999999999" y1="419" x2="72.19999999999999" y2="419" stroke="black" stroke-width="1" /><text x="64.19999999999999" y="423.2" font-size="12" text-anchor="end">-1</text><line x1="67.19999999999999" y1="344" x2="72.19999999999999" y2="344" stroke="black" stroke-width="1" /><text x="64.19999999999999" y="348.2" font-size="12" text-anchor="end">-0.5</text><line x1="67.19999999999999" y1="269" x2="72.19999999999999" y2="269" stroke="black" stroke-width="1" /><text x="64.19999999999999" y="273.2" font-size="12" text-anchor="end">0</text><line x1="67.19999999999999" y1="194" x2="72.19999999999999" y2="194" stroke="black" stroke-width="1" /><text x="64.19999999999999" y="198.2" font-size="12" text-anchor="end">0.5</text><line x1="67.19999999999999" y1="119" x2="72.19999999999999" y2="119" stroke="black" stroke-width="1" /><text x="64.19999999999999" y="123.2" font-size="12" text-anchor="end">1</text><line x1="67.19999999999999" y1="44" x2="72.19999999999999" y2="44" stroke="black" stroke-width="1" /><text x="64.19999999999999" y="48.2" font-size="12" text-anchor="end">1.5</text><text x="388.6" y="538" font-size="14" text-anchor="middle">X</text><text x="14" y="272.5" font-size="14" text-anchor="middle" transform="rotate(-90,14,272.5)">Y</text><text x="388.6" y="22" font-size="18" text-anchor="middle">Line Styles</text><path d="M 72.19999999999999 269 L 78.44999999999999 250.2987899922159 L 84.69999999999999 231.88940611182153 L 90.94999999999999 214.05912063709286 L 97.19999999999999 197.0861692093696 L 103.44999999999999 181.23540905893066 L 109.69999999999999 166.75418599649987 L 115.94999999999999 153.86847466459596 L 122.19999999999999 142.7793522788155 L 128.45 133.65986088513569 L 134.7 126.65230709666207 L 140.95 121.86604144652671 L 147.2 119.37575200939182 L 153.45 119.22029891902525 L 159.7 121.40210796890943 L 165.95 125.88713275854587 L 172.2 132.60538597614772 L 178.45 141.45203152723218 L 184.7 152.28902046681185 L 190.95 164.94724520700925 L 197.2 179.2291783844065 L 203.45 194.91195520848657 L 209.7 211.75085119215026 L 215.95 229.4831009954869 L 222.2 247.83199879101994 L 228.45 266.51121616559783 L 234.7 285.2292701795163 L 240.95 303.69407186030327 L 247.2 321.617484153443 L 253.45 338.71981820474133 L 259.7 354.7341978113516 L 265.95 369.41072393566037 L 272.2 382.52037429618923 L 278.45 393.8585771836981 L 284.7 403.24840373428754 L 290.95 410.5433288451444 L 297.2 415.6295176497646 L 303.45 418.4276018729719 L 309.7 418.8939183463067 L 315.95 417.0211903571662 L 322.2 412.83864119947077 L 328.45 406.41153815393653 L 334.7 397.8401740139888 L 340.95 387.25830205026443 L 347.2 374.8310488355588 L 353.45 360.7523374998848 L 359.7 345.24186162488877 L 365.95 328.54165699898704 L 372.2 310.91232472983893 L 378.45 292.62896465122145 L 384.7 273.97688248213353 L 390.95 255.2471377264733 L 397.2 236.73200178682765 L 403.45 218.7203971669872 L 409.7 201.49338893290735 L 415.95 185.31979878635894 L 422.2 170.4520101921816 L 428.45 157.12203001872695 L 434.7 145.53786814827419 L 440.95 135.8802915523887 L 447.2 128.30000348378917 L 453.45 122.91529180249302 L 459.7 119.81018313332356 L 465.95 119.03313165853262 L 472.2 120.59626300649273 L 478.45 124.47518503532177 L 484.7 130.6093684640989 L 490.95 138.90309141204898 L 497.2 149.22693310647645 L 503.45 161.41979345063817 L 509.7 175.29140693687117 L 515.95 190.62531167620392 L 522.2 207.1822272137365 L 528.45 224.7037884201094 L 534.7 242.91657719293497 L 540.95 261.5363890548382 L 547.2 280.2726680692714 L 553.45 298.833040868725 L 559.7 316.927879043341 L 565.95 334.27481869537985 L 572.2 350.60316663340546 " stroke="steelblue" stroke-width="2" fill="none" /><path d="M 72.19999999999999 119 L 78.44999999999999 120.17034991560064 L 84.69999999999999 123.6631367434033 L 90.94999999999999 129.42385671315287 L 97.19999999999999 137.3626157164441 L 103.44999999999999 147.3555320742173 L 109.69999999999999 159.24666966892687 L 115.94999999999999 172.8504712755012 L 122.19999999999999 187.95465411977904 L 128.45 204.32352248020004 L 134.7 221.70164564070973 L 140.95 239.81784380165192 L 147.2 258.3894197498446 L 153.45 277.1265702540404 L 159.7 295.73690834742376 L 165.95 313.93002592843607 L 172.2 331.4220254820714 L 178.45 347.93995020564574 L 184.7 363.2260434084109 L 190.95 377.04177071850376 L 197.2 389.1715423320401 L 203.45 399.42607721989765 L 209.7 407.64535679486954 L 215.95 413.70112194819745 L 222.2 417.4988744900668 L 228.45 418.979351762253 L 234.7 418.11945141208196 L 240.95 414.93259189691696 L 247.2 409.46850309361946 L 253.45 401.81245028045305 L 259.7 392.0839036009341 L 265.95 380.4346737721998 L 272.2 367.0465431295418 L 278.45 352.12842897386247 L 284.7 335.9131234870689 L 290.95 318.65366108793313 L 297.2 300.619369914617 L 303.45 282.09166904915526 L 309.7 263.3596770668035 L 315.95 244.7157004373695 L 322.2 226.45067218051605 L 328.45 208.84961195329458 L 334.7 192.18717841372393 L 340.95 176.72338326429383 L 347.2 162.699533856311 L 353.45 150.3344676693892 L 359.7 139.82113742577184 L 365.95 131.32360012763638 L 372.2 124.97445700244515 L 378.45 120.87278430514084 L 384.7 119.0825872663251 L 390.95 119.63180131204166 L 397.2 122.51185614079645 L 403.45 127.67780946024612 L 409.7 135.0490482966385 L 415.95 144.51054693330622 L 422.2 155.9146618485043 L 428.45 169.08343564318602 L 434.7 183.8113740066957 L 440.95 199.8686523867575 L 447.2 217.00470232474612 L 453.45 234.95212149267962 L 459.7 253.43084641711206 L 465.95 272.15252277596727 L 472.2 290.825005071292 L 478.45 309.1569154620412 L 484.7 326.8621906178333 L 490.95 343.6645456415447 L 497.2 359.30178540272357 L 503.45 373.52989600490685 L 509.7 386.1268525408624 L 515.95 396.8960837170076 L 522.2 405.6695392827015 L 528.45 412.3103123981996 L 534.7 416.71477602009855 L 540.95 418.8141999666896 L 547.2 418.57582342945676 L 553.45 416.00336619453645 L 559.7 411.136970596699 L 565.95 404.05257511164046 L 572.2 394.86072936146786 " stroke="crimson" stroke-width="2" fill="none" stroke-dasharray="8 4" /><path d="M 72.19999999999999 269 L 78.44999999999999 255.89174163668193 L 84.69999999999999 242.88377936096057 L 90.94999999999999 230.07564185831825 L 97.19999999999999 217.56532888168232 L 103.44999999999999 205.44856141940926 L 109.69999999999999 193.81804929893036 L 115.94999999999999 182.7627818298928 L 122.19999999999999 172.36734691434634 L 128.45 162.7112838337119 L 134.7 153.86847466459596 L 140.95 145.90657897995192 L 147.2 138.8865161608975 L 153.45 132.86199928020852 L 159.7 127.87912412391927 L 165.95 123.97601649557299 L 172.2 121.18254050173101 L 178.45 119.52007005075018 L 184.7 119.0013253131795 L 190.95 119.6302753950738 L 197.2 121.40210796890943 L 203.45 124.30326609446564 L 209.7 128.31155194794076 L 215.95 133.39629666563616 L 222.2 139.51859500266892 L 228.45 146.63160301125544 L 234.7 154.6808964609196 L 240.95 163.6048872582212 L 247.2 173.33529467982436 L 253.45 183.79766781333035 L 259.7 194.91195520848657 L 265.95 206.59311738016362 L 272.2 218.75177747661422 L 278.45 231.29490513451378 L 284.7 244.1265282883562 L 290.95 257.14846748789154 L 297.2 270.2610871050723 L 303.45 283.3640576827505 L 309.7 296.3571235921147 L 315.95 309.14087012523987 L 322.2 321.617484153443 L 328.45 333.69150253136934 L 334.7 345.2705425204954 L 340.95 356.2660086433102 L 347.2 366.59377055977507 L 353.45 376.17480677938045 L 359.7 384.93580928352355 L 365.95 392.8097444320184 L 372.2 399.73636586203816 L 378.45 405.6626754551113 L 384.7 410.5433288451444 L 390.95 414.34098236478144 L 397.2 417.02657877548546 L 403.45 418.5795695951171 L 409.7 418.9880723219003 L 415.95 418.24896135179716 L 422.2 416.36789189364987 L 428.45 413.3592566991057 L 434.7 409.2460759384003 L 440.95 404.0598210646011 L 447.2 397.8401740139888 L 453.45 390.634723585023 L 459.7 382.49860131900886 L 465.95 373.4940596684748 L 472.2 363.68999568084826 L 478.45 353.1614238419025 L 484.7 341.98890211244066 L 490.95 330.2579155498209 L 497.2 318.0582222304612 L 503.45 305.48316647790915 L 509.7 292.62896465122145 L 515.95 279.5939689583471 L 522.2 266.47791492734757 L 528.45 253.3811582933297 L 534.7 240.4039071399448 L 540.95 227.64545517062578 L 547.2 215.20342197608005 L 553.45 203.17300611103332 L 559.7 191.6462566952074 L 565.95 180.71136911177746 L 572.2 170.4520101921816 " stroke="seagreen" stroke-width="2" fill="none" stroke-dasharray="2 4" /><path d="M 72.19999999999999 119 L 78.44999999999999 119.57385247996086 L 84.69999999999999 121.29101916425998 L 90.94999999999999 124.13836138142688 L 97.19999999999999 128.09409307289314 L 103.44999999999999 133.12794748610952 L 109.69999999999999 139.2014087565588 L 115.94999999999999 146.2680066067477 L 122.19999999999999 154.27367190732673 L 128.45 163.15715037980948 L 134.7 172.8504712755012 L 140.95 183.2794674446012 L 147.2 194.36434281624088 L 153.45 206.02028294745946 L 159.7 218.15810396958238 L 165.95 230.68493496667827 L 172.2 243.50492856496385 L 178.45 256.5199942961798 L 184.7 269.63054912370325 L 190.95 282.73627938884835 L 197.2 295.73690834742376 L 203.45 308.53296342384385 L 209.7 321.02653731225087 L 215.95 333.12203710118575 L 222.2 344.72691568997857 L 228.45 355.75237990052506 L 234.7 366.1140698664258 L 240.95 375.732704501234 L 247.2 384.5346881070961 L 253.45 392.45267348240134 L 259.7 399.42607721989765 L 265.95 405.40154325253786 L 272.2 410.3333511002987 L 278.45 414.1837656943251 L 284.7 416.92332610176817 L 290.95 418.5310709421772 L 297.2 418.9946987707013 L 303.45 418.3106622009514 L 309.7 416.48419504735335 L 315.95 413.5292722793159 L 322.2 409.46850309361946 L 328.45 404.33295792316756 L 334.7 398.16193070572035 L 340.95 391.0026382315797 L 347.2 382.90985887062624 L 353.45 373.94551344294075 L 359.7 364.1781914399221 L 365.95 353.68262622095676 L 372.2 342.53912320110504 L 378.45 330.8329454049451 L 384.7 318.65366108793313 L 390.95 306.0944584168619 L 397.2 293.251432453053 L 403.45 280.22284989383365 L 409.7 267.10839719803016 L 415.95 254.00841784834682 L 422.2 241.0231445866138 L 428.45 228.25193249635362 L 434.7 215.7924988006347 L 440.95 203.74017519179262 L 447.2 192.18717841372393 L 453.45 181.2219046777896 L 459.7 170.92825331101375 L 465.95 161.3849848115923 L 472.2 152.6651182234625 L 478.45 144.8353724408451 L 484.7 137.95565571753752 L 490.95 132.0786072869144 L 497.2 127.24919459986592 L 503.45 123.50436926235494 L 509.7 120.87278430514084 L 515.95 119.37457494894267 L 522.2 119.0212045424878 L 528.45 119.81537685223066 L 534.7 121.75101537484511 L 540.95 124.81330983077783 L 547.2 128.9788294831232 L 553.45 134.215702414777 L 559.7 140.4838593921516 L 565.95 147.7353404495638 L 572.2 155.9146618485043 " stroke="darkorange" stroke-width="2" fill="none" stroke-dasharray="8 4 2 4" /><rect x="677.2" y="34" width="91" height="92" fill="white" /><rect x="677.2" y="34" width="91" height="92" fill="none" stroke="black" stroke-width="1" /><text x="707.2" y="49" font-size="12" text-anchor="start">Solid</text><line x1="687.2" y1="46" x2="699.2" y2="46" stroke="steelblue" stroke-width="2" /><text x="707.2" y="67" font-size="12" text-anchor="start">Dashed</text><line x1="687.2" y1="64" x2="699.2" y2="64" stroke="crimson" stroke-width="2" stroke-dasharray="8 4" /><text x="707.2" y="85" font-size="12" text-anchor="start">Dotted</text><line x1="687.2" y1="82" x2="699.2" y2="82" stroke="seagreen" stroke-width="2" stroke-dasharray="2 4" /><text x="707.2" y="103" font-size="12" text-anchor="start">Dash-dot</text><line x1="687.2" y1="100" x2="699.2" y2="100" stroke="darkorange" stroke-width="2" stroke-dasharray="8 4 2 4" /></svg>