<svg xmlns="http://www.w3.org/2000/svg" width="673.4" height="545" font-family="DejaVu Sans, Liberation Sans, Arial, sans-serif" fill="black"><rect width="100%" height="100%" fill="white" /><text x="359" y="22" font-size="18" text-anchor="middle">Gene Interaction Network</text><g opacity="0.6"><line x1="249.66" y1="164.12" x2="235.89000000000001" y2="85.18" stroke="#888888" stroke-width="5" /></g><g opacity="0.6"><line x1="256.9" y1="166.55" x2="327.58" y2="100.97" stroke="#888888" stroke-width="3.7" /></g><g opacity="0.6"><line x1="243.20000000000002" y1="170.38" x2="159.57" y2="153.13" stroke="#888888" stroke-width="3.3000000000000003" /></g><g opacity="0.6"><line x1="235.89000000000001" y1="85.18" x2="249.66" y2="164.12" stroke="#888888" stroke-width="4.3" /></g><g opacity="0.6"><line x1="278.8" y1="331.12" x2="252.41" y2="179.88" stroke="#888888" stroke-width="2" /></g><g opacity="0.6"><line x1="283.69" y1="346.19" x2="326.90000000000003" y2="434.62" stroke="#888888" stroke-width="2.7" /></g><g opacity="0.6"><line x1="322.77" y1="444.16" x2="276.75" y2="458.34000000000003" stroke="#888888" stroke-width="2.3000000000000003" /></g><g opacity="0.6"><line x1="269.83" y1="452.73" x2="279.45" y2="346.97" stroke="#888888" stroke-width="1" /></g><g opacity="0.6"><line x1="408.88" y1="84.83" x2="583.1800000000001" y2="164.06" stroke="#888888" stroke-width="4.6000000000000005" /></g><g opacity="0.6"><line x1="402.82" y1="89.43" x2="458.19" y2="448.57" stroke="#888888" stroke-width="2.9" /></g><g opacity="0.6"><line x1="587.16" y1="174.66" x2="462.71000000000004" y2="449.19" stroke="#888888" stroke-width="3.8000000000000003" /></g><circle cx="251.04" cy="172" r="8" fill="#1f77b4" stroke="#ffffff" stroke-width="1.5" /><circle cx="234.52" cy="77.3" r="8" fill="#ff7f0e" stroke="#ffffff" stroke-width="1.5" /><circle cx="333.44" cy="95.53" r="8" fill="#2ca02c" stroke="#ffffff" stroke-width="1.5" /><circle cx="151.73" cy="151.52" r="8" fill="#d62728" stroke="#ffffff" stroke-width="1.5" /><circle cx="280.18" cy="339" r="8" fill="#9467bd" stroke="#ffffff" stroke-width="1.5" /><circle cx="330.42" cy="441.81" r="8" fill="#8c564b" stroke="#ffffff" stroke-width="1.5" /><circle cx="269.1" cy="460.7" r="8" fill="#e377c2" stroke="#ffffff" stroke-width="1.5" /><circle cx="401.6" cy="81.52" r="8" fill="#7f7f7f" stroke="#ffffff" stroke-width="1.5" /><circle cx="590.46" cy="167.37" r="8" fill="#bcbd22" stroke="#ffffff" stroke-width="1.5" /><circle cx="459.41" cy="456.48" r="8" fill="#17becf" stroke="#ffffff" stroke-width="1.5" /><text x="263.04" y="176.20000000000002" font-size="12" text-anchor="start">TP53</text><text x="246.52" y="81.5" font-size="12" text-anchor="start">MDM2</text><text x="345.44" y="99.73" font-size="12" text-anchor="start">BAX</text><text x="163.73" y="155.72" font-size="12" text-anchor="start">CDKN1A</text><text x="292.18" y="343.2" font-size="12" text-anchor="start">BRCA1</text><text x="342.42" y="446.01" font-size="12" text-anchor="start">RAD51</text><text x="281.1" y="464.90000000000003" font-size="12" text-anchor="start">BRCA2</text><text x="413.6" y="85.72" font-size="12" text-anchor="start">MYC</text><text x="602.46" y="171.57" font-size="12" text-anchor="start">CCND1</text><text x="471.41" y="460.68" font-size="12" text-anchor="start">CDK4</text></svg>