<svg xmlns="http://www.w3.org/2000/svg" width="673.4" height="545" font-family="DejaVu Sans, Liberation Sans, Arial, sans-serif" fill="black"><rect width="100%" height="100%" fill="white" /><text x="359" y="22" font-size="18" text-anchor="middle">Gene Interaction Network</text><g opacity="0.6"><line x1="153.43" y1="132.83" x2="131.68" y2="127.85000000000001" stroke="#888888" stroke-width="5" /></g><g opacity="0.6"><line x1="160.6" y1="126.64" x2="159.02" y2="106.58" stroke="#888888" stroke-width="3.7" /></g><g opacity="0.6"><line x1="168.99" y1="132.66" x2="204.75" y2="123.67" stroke="#888888" stroke-width="3.3000000000000003" /></g><g opacity="0.6"><line x1="131.68" y1="127.85000000000001" x2="153.43" y2="132.83" stroke="#888888" stroke-width="4.3" /></g><g opacity="0.6"><line x1="156.12" y1="171.78" x2="160.14000000000001" y2="142.54" stroke="#888888" stroke-width="2" /></g><g opacity="0.6"><line x1="149.49" y1="185.48" x2="134.19" y2="201.41" stroke="#888888" stroke-width="2.7" /></g><g opacity="0.6"><line x1="136.61" y1="207.99" x2="155.59" y2="209.92000000000002" stroke="#888888" stroke-width="2.3000000000000003" /></g><g opacity="0.6"><line x1="161.43" y1="203.02" x2="157.15" y2="187.42000000000002" stroke="#888888" stroke-width="1" /></g><g opacity="0.6"><line x1="541.11" y1="422.85" x2="544.27" y2="431.85" stroke="#888888" stroke-width="4.6000000000000005" /></g><g opacity="0.6"><line x1="531.36" y1="418.98" x2="516.59" y2="426.63" stroke="#888888" stroke-width="2.9" /></g><g opacity="0.6"><line x1="539.15" y1="437.51" x2="517.27" y2="432.2" stroke="#888888" stroke-width="3.8000000000000003" /></g><circle cx="161.23" cy="134.61" r="8" fill="#1f77b4" stroke="#ffffff" stroke-width="1.5" /><circle cx="123.88000000000001" cy="126.06" r="8" fill="#ff7f0e" stroke="#ffffff" stroke-width="1.5" /><circle cx="158.39000000000001" cy="98.60000000000001" r="8" fill="#2ca02c" stroke="#ffffff" stroke-width="1.5" /><circle cx="212.51" cy="121.72" r="8" fill="#d62728" stroke="#ffffff" stroke-width="1.5" /><circle cx="155.04" cy="179.71" r="8" fill="#9467bd" stroke="#ffffff" stroke-width="1.5" /><circle cx="128.65" cy="207.18" r="8" fill="#8c564b" stroke="#ffffff" stroke-width="1.5" /><circle cx="163.55" cy="210.73000000000002" r="8" fill="#e377c2" stroke="#ffffff" stroke-width="1.5" /><circle cx="538.46" cy="415.3" r="8" fill="#7f7f7f" stroke="#ffffff" stroke-width="1.5" /><circle cx="546.92" cy="439.40000000000003" r="8" fill="#bcbd22" stroke="#ffffff" stroke-width="1.5" /><circle cx="509.49" cy="430.31" r="8" fill="#17becf" stroke="#ffffff" stroke-width="1.5" /><text x="173.23" y="138.81" font-size="12" text-anchor="start">TP53</text><text x="135.88" y="130.26" font-size="12" text-anchor="start">MDM2</text><text x="170.39000000000001" y="102.8" font-size="12" text-anchor="start">BAX</text><text x="224.51" y="125.92" font-size="12" text-anchor="start">CDKN1A</text><text x="167.04" y="183.91" font-size="12" text-anchor="start">BRCA1</text><text x="140.65" y="211.38" font-size="12" text-anchor="start">RAD51</text><text x="175.55" y="214.93" font-size="12" text-anchor="start">BRCA2</text><text x="550.46" y="419.5" font-size="12" text-anchor="start">MYC</text><text x="558.92" y="443.6" font-size="12" text-anchor="start">CCND1</text><text x="521.49" y="434.51" font-size="12" text-anchor="start">CDK4</text></svg>