<svg xmlns="http://www.w3.org/2000/svg" width="673.4" height="545" font-family="DejaVu Sans, Liberation Sans, Arial, sans-serif" fill="black"><rect width="100%" height="100%" fill="white" /><text x="359" y="22" font-size="18" text-anchor="middle">Gene Regulatory Network</text><g opacity="0.6"><line x1="176.82" y1="131.01" x2="181.48" y2="132.9" stroke="#888888" stroke-width="5" /><path d="M 195.83 138.74 L 179.14 138.65 L 183.81 127.16 Z" stroke="none" stroke-width="0" fill="#888888" /></g><g opacity="0.6"><line x1="162.27" y1="124.38000000000001" x2="141.33" y2="113.79" stroke="#888888" stroke-width="3.42" /><path d="M 131.02 108.57 L 143.42 109.66 L 139.24 117.91 Z" stroke="none" stroke-width="0" fill="#888888" /></g><g opacity="0.6"><line x1="175.28" y1="122.56" x2="187.73" y2="111.05" stroke="#888888" stroke-width="2.94" /><path d="M 195.33 104.03 L 190.54 114.09 L 184.92 108.01 Z" stroke="none" stroke-width="0" fill="#888888" /></g><g opacity="0.6"><line x1="195.83" y1="138.74" x2="189.21" y2="136.05" stroke="#888888" stroke-width="4.15" /><path d="M 176.82 131.01 L 191.23 131.09 L 187.19 141.01 Z" stroke="none" stroke-width="0" fill="#888888" /></g><g opacity="0.6"><line x1="136.84" y1="148.87" x2="157.28" y2="135.77" stroke="#888888" stroke-width="1.36" /><path d="M 162.67 132.31 L 158.66 137.93 L 155.89 133.61 Z" stroke="none" stroke-width="0" fill="#888888" /></g><g opacity="0.6"><line x1="531.07" y1="398.39" x2="527.07" y2="394.93" stroke="#888888" stroke-width="4.5200000000000005" /><path d="M 516.26 385.59 L 530.81 390.61 L 523.33 399.26 Z" stroke="none" stroke-width="0" fill="#888888" /></g><g opacity="0.6"><line x1="529.15" y1="404.28000000000003" x2="510.02000000000004" y2="405.87" stroke="#888888" stroke-width="2.45" /><path d="M 500.91 406.63 L 509.71 402.23 L 510.32 409.51 Z" stroke="none" stroke-width="0" fill="#888888" /></g><g opacity="0.6"><line x1="505.89" y1="387.1" x2="503.66" y2="390.57" stroke="#888888" stroke-width="3.5500000000000003" /><path d="M 497.26 400.55 L 499.67 388.01 L 507.66 393.13 Z" stroke="none" stroke-width="0" fill="#888888" /></g><g opacity="0.6"><line x1="494.53000000000003" y1="415.13" x2="495.74" y2="421.12" stroke="#888888" stroke-width="3.06" /><path d="M 497.85 431.56 L 491.56 421.96 L 499.91 420.27 Z" stroke="none" stroke-width="0" fill="#888888" /></g><g opacity="0.6"><line x1="507.40000000000003" y1="438.7" x2="526.23" y2="437.04" stroke="#888888" stroke-width="3.91" /><path d="M 538.95 435.93 L 526.67 442.13 L 525.78 431.95 Z" stroke="none" stroke-width="0" fill="#888888" /></g><g opacity="0.6"><line x1="544.55" y1="427.58" x2="541.12" y2="416.51" stroke="#888888" stroke-width="1" /><path d="M 539.49 411.26 L 543.22 415.86 L 539.02 417.16 Z" stroke="none" stroke-width="0" fill="#888888" /></g><circle cx="169.41" cy="127.99000000000001" r="8" fill="#1f77b4" stroke="#ffffff" stroke-width="1.5" /><circle cx="203.24" cy="141.75" r="8" fill="#ff7f0e" stroke="#ffffff" stroke-width="1.5" /><circle cx="123.88000000000001" cy="104.95" r="8" fill="#2ca02c" stroke="#ffffff" stroke-width="1.5" /><circle cx="201.21" cy="98.60000000000001" r="8" fill="#d62728" stroke="#ffffff" stroke-width="1.5" /><circle cx="130.1" cy="153.19" r="8" fill="#9467bd" stroke="#ffffff" stroke-width="1.5" /><circle cx="537.12" cy="403.62" r="8" fill="#8c564b" stroke="#ffffff" stroke-width="1.5" /><circle cx="510.2" cy="380.36" r="8" fill="#e377c2" stroke="#ffffff" stroke-width="1.5" /><circle cx="492.94" cy="407.29" r="8" fill="#7f7f7f" stroke="#ffffff" stroke-width="1.5" /><circle cx="499.43" cy="439.40000000000003" r="8" fill="#bcbd22" stroke="#ffffff" stroke-width="1.5" /><circle cx="546.92" cy="435.22" r="8" fill="#17becf" stroke="#ffffff" stroke-width="1.5" /><text x="181.41" y="132.19" font-size="12" text-anchor="start">TP53</text><text x="215.24" y="145.95000000000002" font-size="12" text-anchor="start">MDM2</text><text x="135.88" y="109.15" font-size="12" text-anchor="start">BAX</text><text x="213.21" y="102.8" font-size="12" text-anchor="start">CDKN1A</text><text x="142.1" y="157.39000000000001" font-size="12" text-anchor="start">BRCA1</text><text x="549.12" y="407.82" font-size="12" text-anchor="start">MYC</text><text x="522.2" y="384.56" font-size="12" text-anchor="start">CCND1</text><text x="504.94" y="411.49" font-size="12" text-anchor="start">CDK4</text><text x="511.43" y="443.6" font-size="12" text-anchor="start">RB1</text><text x="558.92" y="439.42" font-size="12" text-anchor="start">E2F1</text></svg>