<svg xmlns="http://www.w3.org/2000/svg" width="780.4" height="545" font-family="DejaVu Sans, Liberation Sans, Arial, sans-serif" fill="black"><rect width="100%" height="100%" fill="white" /><text x="359" y="22" font-size="18" text-anchor="middle">Gene Network by Pathway</text><g opacity="0.6"><line x1="346.79" y1="100.42" x2="447.12" y2="123.83" stroke="#888888" stroke-width="5" /></g><g opacity="0.6"><line x1="346.12" y1="102.24000000000001" x2="526.9" y2="194.57" stroke="#888888" stroke-width="3.96" /></g><g opacity="0.6"><line x1="447.12" y1="123.83" x2="346.79" y2="100.42" stroke="#888888" stroke-width="4.44" /></g><g opacity="0.6"><line x1="545.32" y1="287.84000000000003" x2="344.90000000000003" y2="104.01" stroke="#888888" stroke-width="2.6" /></g><g opacity="0.6"><line x1="547.23" y1="300.19" x2="505.02000000000004" y2="373.65000000000003" stroke="#888888" stroke-width="3.16" /></g><g opacity="0.6"><line x1="493.91" y1="384.23" x2="406.53000000000003" y2="428.86" stroke="#888888" stroke-width="2.84" /></g><g opacity="0.6"><line x1="271.47" y1="428.86" x2="184.09" y2="384.23" stroke="#888888" stroke-width="4.68" /></g><g opacity="0.6"><line x1="172.98" y1="373.65000000000003" x2="130.77" y2="300.19" stroke="#888888" stroke-width="4.04" /></g><g opacity="0.6"><line x1="128.21" y1="285.38" x2="142.55" y2="206.09" stroke="#888888" stroke-width="3.72" /></g><g opacity="0.6"><line x1="149.87" y1="192.81" x2="217.19" y2="131.06" stroke="#888888" stroke-width="4.28" /></g><g opacity="0.6"><line x1="224.51" y1="133.52" x2="277.17" y2="424.63" stroke="#888888" stroke-width="2.36" /></g><g opacity="0.6"><line x1="331.88" y1="102.24000000000001" x2="151.1" y2="194.57" stroke="#888888" stroke-width="1" /></g><circle cx="339" cy="98.60000000000001" r="8" fill="#1f77b4" stroke="#ffffff" stroke-width="1.5" /><circle cx="454.91" cy="125.65" r="8" fill="#1f77b4" stroke="#ffffff" stroke-width="1.5" /><circle cx="534.03" cy="198.21" r="8" fill="#1f77b4" stroke="#ffffff" stroke-width="1.5" /><circle cx="551.22" cy="293.25" r="8" fill="#ff7f0e" stroke="#ffffff" stroke-width="1.5" /><circle cx="501.03000000000003" cy="380.59000000000003" r="8" fill="#ff7f0e" stroke="#ffffff" stroke-width="1.5" /><circle cx="399.40000000000003" cy="432.5" r="8" fill="#ff7f0e" stroke="#ffffff" stroke-width="1.5" /><circle cx="278.6" cy="432.5" r="8" fill="#2ca02c" stroke="#ffffff" stroke-width="1.5" /><circle cx="176.97" cy="380.59000000000003" r="8" fill="#2ca02c" stroke="#ffffff" stroke-width="1.5" /><circle cx="126.78" cy="293.25" r="8" fill="#2ca02c" stroke="#ffffff" stroke-width="1.5" /><circle cx="143.97" cy="198.21" r="8" fill="#2ca02c" stroke="#ffffff" stroke-width="1.5" /><circle cx="223.09" cy="125.65" r="8" fill="#2ca02c" stroke="#ffffff" stroke-width="1.5" /><text x="351" y="102.8" font-size="12" text-anchor="start">TP53</text><text x="466.91" y="129.85" font-size="12" text-anchor="start">MDM2</text><text x="546.03" y="202.41" font-size="12" text-anchor="start">BAX</text><text x="563.22" y="297.45" font-size="12" text-anchor="start">BRCA1</text><text x="513.03" y="384.79" font-size="12" text-anchor="start">RAD51</text><text x="411.40000000000003" y="436.7" font-size="12" text-anchor="start">BRCA2</text><text x="290.6" y="436.7" font-size="12" text-anchor="start">MYC</text><text x="188.97" y="384.79" font-size="12" text-anchor="start">CCND1</text><text x="138.78" y="297.45" font-size="12" text-anchor="start">CDK4</text><text x="155.97" y="202.41" font-size="12" text-anchor="start">RB1</text><text x="235.09" y="129.85" font-size="12" text-anchor="start">E2F1</text><rect x="664" y="34" width="107" height="74" fill="#ffffff" /><rect x="664" y="34" width="107" height="74" fill="none" stroke="#000000" stroke-width="1" /><text x="694" y="53.2" font-size="12" text-anchor="start">DNA damage</text><circle cx="679" cy="49" r="5" fill="#1f77b4" /><text x="694" y="71.2" font-size="12" text-anchor="start">DNA repair</text><circle cx="679" cy="67" r="5" fill="#ff7f0e" /><text x="694" y="89.2" font-size="12" text-anchor="start">Cell cycle</text><circle cx="679" cy="85" r="5" fill="#2ca02c" /></svg>