<svg xmlns="http://www.w3.org/2000/svg" width="805.2" height="521" font-family="DejaVu Sans, Liberation Sans, Arial, sans-serif" fill="black"><rect width="100%" height="100%" fill="white" /><line x1="72.19999999999999" y1="494" x2="672.2" y2="494" stroke="black" stroke-width="1" /><line x1="72.19999999999999" y1="44" x2="72.19999999999999" y2="494" stroke="black" stroke-width="1" /><line x1="67.19999999999999" y1="494" x2="72.19999999999999" y2="494" stroke="black" stroke-width="1" /><text x="64.19999999999999" y="498.2" font-size="12" text-anchor="end">0</text><line x1="67.19999999999999" y1="404" x2="72.19999999999999" y2="404" stroke="black" stroke-width="1" /><text x="64.19999999999999" y="408.2" font-size="12" text-anchor="end">2</text><line x1="67.19999999999999" y1="314" x2="72.19999999999999" y2="314" stroke="black" stroke-width="1" /><text x="64.19999999999999" y="318.2" font-size="12" text-anchor="end">4</text><line x1="67.19999999999999" y1="224" x2="72.19999999999999" y2="224" stroke="black" stroke-width="1" /><text x="64.19999999999999" y="228.2" font-size="12" text-anchor="end">6</text><line x1="67.19999999999999" y1="134" x2="72.19999999999999" y2="134" stroke="black" stroke-width="1" /><text x="64.19999999999999" y="138.2" font-size="12" text-anchor="end">8</text><line x1="67.19999999999999" y1="44" x2="72.19999999999999" y2="44" stroke="black" stroke-width="1" /><text x="64.19999999999999" y="48.2" font-size="12" text-anchor="end">10</text><text x="14" y="260.5" font-size="14" text-anchor="middle" transform="rotate(-90,14,260.5)">−log₁₀(p-value)</text><text x="402.6" y="22" font-size="18" text-anchor="middle">Manhattan — Custom Genome Build</text><line x1="72.19999999999999" y1="165.45365019512087" x2="672.2" y2="165.45365019512087" stroke="#cc3333" stroke-width="1" stroke-dasharray="4 4" /><line x1="72.19999999999999" y1="269" x2="672.2" y2="269" stroke="#888888" stroke-width="1" stroke-dasharray="4 4" /><line x1="252.2" y1="44" x2="252.2" y2="494" stroke="#ccc" stroke-width="0.5" /><line x1="394.7" y1="44" x2="394.7" y2="494" stroke="#ccc" stroke-width="0.5" /><line x1="514.7" y1="44" x2="514.7" y2="494" stroke="#ccc" stroke-width="0.5" /><circle cx="73.69999999999999" cy="462.74465031826634" r="2.5" fill="#4477AA" /><circle cx="76.69999999999999" cy="473.1416942749473" r="2.5" fill="#4477AA" /><circle cx="79.69999999999999" cy="462.25549441520036" r="2.5" fill="#4477AA" /><circle cx="82.69999999999999" cy="474.60010150009555" r="2.5" fill="#4477AA" /><circle cx="85.69999999999999" cy="467.4665798149368" r="2.5" fill="#4477AA" /><circle cx="88.69999999999999" cy="461.230212159078" r="2.5" fill="#4477AA" /><circle cx="91.69999999999999" cy="442.6198441196436" r="2.5" fill="#4477AA" /><circle cx="94.69999999999999" cy="470.7067106159089" r="2.5" fill="#4477AA" /><circle cx="97.69999999999999" cy="478.2110815597502" r="2.5" fill="#4477AA" /><circle cx="100.69999999999999" cy="465.54573074538166" r="2.5" fill="#4477AA" /><circle cx="103.69999999999999" cy="473.85702769858705" r="2.5" fill="#4477AA" /><circle cx="106.69999999999999" cy="463.1425138866192" r="2.5" fill="#4477AA" /><circle cx="109.69999999999999" cy="468.046204759251" r="2.5" fill="#4477AA" /><circle cx="112.69999999999999" cy="466.25184869872663" r="2.5" fill="#4477AA" /><circle cx="115.69999999999999" cy="476.74735940148025" r="2.5" fill="#4477AA" /><circle cx="118.69999999999999" cy="467.13348301742445" r="2.5" fill="#4477AA" /><circle cx="121.69999999999999" cy="437.93975507997766" r="2.5" fill="#4477AA" /><circle cx="124.69999999999999" cy="474.1383964540448" r="2.5" fill="#4477AA" /><circle cx="127.69999999999999" cy="474.0283412969719" r="2.5" fill="#4477AA" /><circle cx="130.7" cy="469.65879897073836" r="2.5" fill="#4477AA" /><circle cx="133.7" cy="467.1220668256422" r="2.5" fill="#4477AA" /><circle cx="136.7" cy="475.6988250755496" r="2.5" fill="#4477AA" /><circle cx="139.7" cy="451.12987144985857" r="2.5" fill="#4477AA" /><circle cx="142.7" cy="473.325657243276" r="2.5" fill="#4477AA" /><circle cx="145.7" cy="466.499483879074" r="2.5" fill="#4477AA" /><circle cx="148.7" cy="451.6319428340213" r="2.5" fill="#4477AA" /><circle cx="151.7" cy="457.4795684833918" r="2.5" fill="#4477AA" /><circle cx="154.7" cy="461.8059609347379" r="2.5" fill="#4477AA" /><circle cx="157.7" cy="473.9864349921285" r="2.5" fill="#4477AA" /><circle cx="160.7" cy="477.05697474504603" r="2.5" fill="#4477AA" /><circle cx="163.7" cy="458.48653395361634" r="2.5" fill="#4477AA" /><circle cx="166.7" cy="468.08021650980675" r="2.5" fill="#4477AA" /><circle cx="169.7" cy="474.5131606203136" r="2.5" fill="#4477AA" /><circle cx="172.7" cy="472.6712214653384" r="2.5" fill="#4477AA" /><circle cx="175.7" cy="460.9610674188933" r="2.5" fill="#4477AA" /><circle cx="178.7" cy="440.9229482543268" r="2.5" fill="#4477AA" /><circle cx="181.7" cy="473.85870568159373" r="2.5" fill="#4477AA" /><circle cx="184.7" cy="472.8477006693598" r="2.5" fill="#4477AA" /><circle cx="187.7" cy="471.9144599109331" r="2.5" fill="#4477AA" /><circle cx="190.7" cy="447.2213578822701" r="2.5" fill="#4477AA" /><circle cx="193.7" cy="465.96505138409543" r="2.5" fill="#4477AA" /><circle cx="196.7" cy="443.14994287481915" r="2.5" fill="#4477AA" /><circle cx="199.7" cy="476.53147192262776" r="2.5" fill="#4477AA" /><circle cx="202.7" cy="475.543785035469" r="2.5" fill="#4477AA" /><circle cx="205.7" cy="462.1842027801562" r="2.5" fill="#4477AA" /><circle cx="208.7" cy="462.8660071698415" r="2.5" fill="#4477AA" /><circle cx="211.7" cy="458.6043597306523" r="2.5" fill="#4477AA" /><circle cx="214.7" cy="473.0142211906893" r="2.5" fill="#4477AA" /><circle cx="217.7" cy="466.1727977507175" r="2.5" fill="#4477AA" /><circle cx="220.7" cy="468.86303280804105" r="2.5" fill="#4477AA" /><circle cx="223.7" cy="465.81328535439053" r="2.5" fill="#4477AA" /><circle cx="226.7" cy="454.81766475788544" r="2.5" fill="#4477AA" /><circle cx="229.7" cy="477.4061533031044" r="2.5" fill="#4477AA" /><circle cx="232.7" cy="473.5922550579594" r="2.5" fill="#4477AA" /><circle cx="235.7" cy="466.6799004932589" r="2.5" fill="#4477AA" /><circle cx="238.70000000000002" cy="436.08247847371166" r="2.5" fill="#4477AA" /><circle cx="241.69999999999996" cy="470.72036501119675" r="2.5" fill="#4477AA" /><circle cx="244.7" cy="475.9632119711692" r="2.5" fill="#4477AA" /><circle cx="247.7" cy="477.26145285704973" r="2.5" fill="#4477AA" /><circle cx="250.7" cy="473.55007245944137" r="2.5" fill="#4477AA" /><circle cx="253.387499" cy="450.64017067610393" r="2.5" fill="#EE6677" /><circle cx="255.7624985" cy="458.1873308447222" r="2.5" fill="#EE6677" /><circle cx="258.13749799999994" cy="444.83912690486454" r="2.5" fill="#EE6677" /><circle cx="260.5124975" cy="478.3545345460888" r="2.5" fill="#EE6677" /><circle cx="262.88749699999994" cy="447.48581696900493" r="2.5" fill="#EE6677" /><circle cx="265.2624965" cy="472.1893237682559" r="2.5" fill="#EE6677" /><circle cx="267.637496" cy="437.6297279827464" r="2.5" fill="#EE6677" /><circle cx="270.0124955" cy="474.2573843224027" r="2.5" fill="#EE6677" /><circle cx="272.387495" cy="455.9963763255041" r="2.5" fill="#EE6677" /><circle cx="274.7624945" cy="477.82606571662143" r="2.5" fill="#EE6677" /><circle cx="277.13749399999995" cy="453.01947126781135" r="2.5" fill="#EE6677" /><circle cx="279.5124935" cy="475.1157330108697" r="2.5" fill="#EE6677" /><circle cx="281.88749299999995" cy="477.44091659009086" r="2.5" fill="#EE6677" /><circle cx="284.2624925" cy="473.72094986640667" r="2.5" fill="#EE6677" /><circle cx="286.63749199999995" cy="478.14647034539956" r="2.5" fill="#EE6677" /><circle cx="289.0124915" cy="471.6586219049743" r="2.5" fill="#EE6677" /><circle cx="291.387491" cy="474.2110502915103" r="2.5" fill="#EE6677" /><circle cx="293.7624905" cy="453.27992834869616" r="2.5" fill="#EE6677" /><circle cx="296.13748999999996" cy="466.82179237923725" r="2.5" fill="#EE6677" /><circle cx="298.5124895" cy="442.5087528458607" r="2.5" fill="#EE6677" /><circle cx="300.88748899999996" cy="451.5902478661151" r="2.5" fill="#EE6677" /><circle cx="303.2624885" cy="458.9678485020246" r="2.5" fill="#EE6677" /><circle cx="305.63748799999996" cy="452.8143792418867" r="2.5" fill="#EE6677" /><circle cx="308.0124875" cy="459.5879632340418" r="2.5" fill="#EE6677" /><circle cx="310.38748699999996" cy="100.18166100650535" r="2.5" fill="#EE6677" /><circle cx="312.76248649999997" cy="91.98522133708559" r="2.5" fill="#EE6677" /><circle cx="315.13748599999997" cy="106.73137925222227" r="2.5" fill="#EE6677" /><circle cx="317.5124855" cy="98.18782150801383" r="2.5" fill="#EE6677" /><circle cx="319.88748499999997" cy="77.19042681670959" r="2.5" fill="#EE6677" /><circle cx="322.2624845" cy="90.61844234152682" r="2.5" fill="#EE6677" /><circle cx="324.637484" cy="98.89401179124178" r="2.5" fill="#EE6677" /><circle cx="327.0124835" cy="101.08789752834963" r="2.5" fill="#EE6677" /><circle cx="329.387483" cy="85.46054717280418" r="2.5" fill="#EE6677" /><circle cx="331.7624825" cy="461.4204144490623" r="2.5" fill="#EE6677" /><circle cx="334.137482" cy="468.8516746399793" r="2.5" fill="#EE6677" /><circle cx="336.5124815" cy="460.96653913652494" r="2.5" fill="#EE6677" /><circle cx="338.887481" cy="455.78813746127247" r="2.5" fill="#EE6677" /><circle cx="341.2624805" cy="439.1324706863716" r="2.5" fill="#EE6677" /><circle cx="343.63748" cy="466.3749286634855" r="2.5" fill="#EE6677" /><circle cx="346.0124795" cy="457.5455176914548" r="2.5" fill="#EE6677" /><circle cx="348.387479" cy="477.4574320076385" r="2.5" fill="#EE6677" /><circle cx="350.7624785" cy="477.6384108080287" r="2.5" fill="#EE6677" /><circle cx="353.137478" cy="473.68458305399224" r="2.5" fill="#EE6677" /><circle cx="355.5124775" cy="456.6200203891304" r="2.5" fill="#EE6677" /><circle cx="357.887477" cy="476.26476997131016" r="2.5" fill="#EE6677" /><circle cx="360.2624765" cy="476.33136988662875" r="2.5" fill="#EE6677" /><circle cx="362.637476" cy="474.41778921852506" r="2.5" fill="#EE6677" /><circle cx="365.0124755" cy="443.88262125833324" r="2.5" fill="#EE6677" /><circle cx="367.387475" cy="456.63235979803085" r="2.5" fill="#EE6677" /><circle cx="369.7624745" cy="441.3100495424701" r="2.5" fill="#EE6677" /><circle cx="372.137474" cy="469.47354980183127" r="2.5" fill="#EE6677" /><circle cx="374.51247349999994" cy="453.9876965508241" r="2.5" fill="#EE6677" /><circle cx="376.887473" cy="476.4701692924791" r="2.5" fill="#EE6677" /><circle cx="379.2624725" cy="476.75483494434246" r="2.5" fill="#EE6677" /><circle cx="381.637472" cy="475.0128479784279" r="2.5" fill="#EE6677" /><circle cx="384.0124715" cy="439.4086873417552" r="2.5" fill="#EE6677" /><circle cx="386.387471" cy="450.34602700563806" r="2.5" fill="#EE6677" /><circle cx="388.7624705" cy="477.17232694547187" r="2.5" fill="#EE6677" /><circle cx="391.13747" cy="444.1424794787844" r="2.5" fill="#EE6677" /><circle cx="393.5124695" cy="452.2074749408971" r="2.5" fill="#EE6677" /><circle cx="395.699999" cy="474.2714706234158" r="2.5" fill="#228833" /><circle cx="397.6999985" cy="458.26696586148" r="2.5" fill="#228833" /><circle cx="399.699998" cy="465.36311211761875" r="2.5" fill="#228833" /><circle cx="401.6999975" cy="465.68312233504435" r="2.5" fill="#228833" /><circle cx="403.699997" cy="478.27333692586865" r="2.5" fill="#228833" /><circle cx="405.6999965" cy="444.6719590044341" r="2.5" fill="#228833" /><circle cx="407.699996" cy="474.326363781466" r="2.5" fill="#228833" /><circle cx="409.6999955" cy="455.799987881504" r="2.5" fill="#228833" /><circle cx="411.699995" cy="467.1483809042523" r="2.5" fill="#228833" /><circle cx="413.69999449999995" cy="471.4022379012142" r="2.5" fill="#228833" /><circle cx="415.69999399999995" cy="473.72971907722376" r="2.5" fill="#228833" /><circle cx="417.69999349999995" cy="477.7367201479186" r="2.5" fill="#228833" /><circle cx="419.69999299999995" cy="475.6100662469102" r="2.5" fill="#228833" /><circle cx="421.69999249999995" cy="477.7706341939335" r="2.5" fill="#228833" /><circle cx="423.699992" cy="460.85154248089077" r="2.5" fill="#228833" /><circle cx="425.6999915" cy="469.94399524718057" r="2.5" fill="#228833" /><circle cx="427.699991" cy="473.4010502885788" r="2.5" fill="#228833" /><circle cx="429.6999905" cy="471.02513309697633" r="2.5" fill="#228833" /><circle cx="431.69999" cy="442.47782686419094" r="2.5" fill="#228833" /><circle cx="433.6999895" cy="475.8881413839351" r="2.5" fill="#228833" /><circle cx="435.699989" cy="441.09224178525335" r="2.5" fill="#228833" /><circle cx="437.6999885" cy="477.3971053130807" r="2.5" fill="#228833" /><circle cx="439.699988" cy="445.3412020546541" r="2.5" fill="#228833" /><circle cx="441.69998749999996" cy="476.2094386184954" r="2.5" fill="#228833" /><circle cx="443.69998699999996" cy="461.1556160567701" r="2.5" fill="#228833" /><circle cx="445.69998649999997" cy="457.6614909116256" r="2.5" fill="#228833" /><circle cx="447.69998599999997" cy="464.1632756458097" r="2.5" fill="#228833" /><circle cx="449.69998549999997" cy="457.60688620599916" r="2.5" fill="#228833" /><circle cx="451.69998499999997" cy="437.46477477312817" r="2.5" fill="#228833" /><circle cx="453.69998449999997" cy="463.86537141041265" r="2.5" fill="#228833" /><circle cx="455.699984" cy="477.54692820357695" r="2.5" fill="#228833" /><circle cx="457.6999835" cy="466.89418728902683" r="2.5" fill="#228833" /><circle cx="459.69998300000003" cy="462.4250116062414" r="2.5" fill="#228833" /><circle cx="461.69998250000003" cy="449.1265469377881" r="2.5" fill="#228833" /><circle cx="463.69998200000003" cy="472.60151766565" r="2.5" fill="#228833" /><circle cx="465.69998150000004" cy="466.99783334254107" r="2.5" fill="#228833" /><circle cx="467.699981" cy="447.03505449690664" r="2.5" fill="#228833" /><circle cx="469.6999805" cy="456.23542227437844" r="2.5" fill="#228833" /><circle cx="471.69998" cy="468.3989531705808" r="2.5" fill="#228833" /><circle cx="473.6999795" cy="469.93686705216294" r="2.5" fill="#228833" /><circle cx="475.699979" cy="465.94206098682275" r="2.5" fill="#228833" /><circle cx="477.6999785" cy="470.97844558829684" r="2.5" fill="#228833" /><circle cx="479.699978" cy="453.1681612005231" r="2.5" fill="#228833" /><circle cx="481.6999775" cy="477.2303910716524" r="2.5" fill="#228833" /><circle cx="483.699977" cy="475.6735477148371" r="2.5" fill="#228833" /><circle cx="485.6999765" cy="474.8703773445384" r="2.5" fill="#228833" /><circle cx="487.699976" cy="452.9274845053182" r="2.5" fill="#228833" /><circle cx="489.6999755" cy="455.1345449969985" r="2.5" fill="#228833" /><circle cx="491.699975" cy="477.3041289341995" r="2.5" fill="#228833" /><circle cx="493.6999745" cy="467.4043749892885" r="2.5" fill="#228833" /><circle cx="495.69997399999994" cy="442.24420217374296" r="2.5" fill="#228833" /><circle cx="497.69997349999994" cy="435.82081867421863" r="2.5" fill="#228833" /><circle cx="499.69997299999994" cy="445.6618137947334" r="2.5" fill="#228833" /><circle cx="501.69997249999994" cy="477.7486328812752" r="2.5" fill="#228833" /><circle cx="503.699972" cy="454.3382021370694" r="2.5" fill="#228833" /><circle cx="505.6999715" cy="476.8931491236687" r="2.5" fill="#228833" /><circle cx="507.699971" cy="444.7356876319227" r="2.5" fill="#228833" /><circle cx="509.6999705" cy="442.7011555121398" r="2.5" fill="#228833" /><circle cx="511.69997" cy="466.9856477644282" r="2.5" fill="#228833" /><circle cx="513.6999695" cy="464.45003882468785" r="2.5" fill="#228833" /><circle cx="515.3874995" cy="446.41658793948864" r="2.5" fill="#CCBB44" /><circle cx="516.7624985" cy="467.16333537646483" r="2.5" fill="#CCBB44" /><circle cx="518.1374975" cy="442.5858368310462" r="2.5" fill="#CCBB44" /><circle cx="519.5124965" cy="437.890802472066" r="2.5" fill="#CCBB44" /><circle cx="520.8874955" cy="446.5456409822059" r="2.5" fill="#CCBB44" /><circle cx="522.2624945" cy="439.00794050466675" r="2.5" fill="#CCBB44" /><circle cx="523.6374935" cy="474.2584658232094" r="2.5" fill="#CCBB44" /><circle cx="525.0124925" cy="457.2484643594216" r="2.5" fill="#CCBB44" /><circle cx="526.3874915" cy="472.38350781021984" r="2.5" fill="#CCBB44" /><circle cx="527.7624905" cy="473.8838205847537" r="2.5" fill="#CCBB44" /><circle cx="529.1374895" cy="466.1758020833496" r="2.5" fill="#CCBB44" /><circle cx="530.5124885" cy="470.4765418075572" r="2.5" fill="#CCBB44" /><circle cx="531.8874875" cy="442.5265609323418" r="2.5" fill="#CCBB44" /><circle cx="533.2624865" cy="461.054555351654" r="2.5" fill="#CCBB44" /><circle cx="534.6374855" cy="472.1025537196759" r="2.5" fill="#CCBB44" /><circle cx="536.0124845" cy="470.8620857927565" r="2.5" fill="#CCBB44" /><circle cx="537.3874834999999" cy="466.35401960322594" r="2.5" fill="#CCBB44" /><circle cx="538.7624825" cy="475.7106005012057" r="2.5" fill="#CCBB44" /><circle cx="540.1374814999999" cy="449.83953158320804" r="2.5" fill="#CCBB44" /><circle cx="541.5124805" cy="456.9421958513115" r="2.5" fill="#CCBB44" /><circle cx="542.8874794999999" cy="466.224383145376" r="2.5" fill="#CCBB44" /><circle cx="544.2624785" cy="464.9537978301022" r="2.5" fill="#CCBB44" /><circle cx="545.6374774999999" cy="460.43800232133674" r="2.5" fill="#CCBB44" /><circle cx="547.0124765" cy="457.65795597881555" r="2.5" fill="#CCBB44" /><circle cx="548.3874754999999" cy="466.1238868964833" r="2.5" fill="#CCBB44" /><circle cx="549.7624745" cy="459.10557574091723" r="2.5" fill="#CCBB44" /><circle cx="551.1374734999999" cy="459.3939854969942" r="2.5" fill="#CCBB44" /><circle cx="552.5124725000001" cy="462.1052040538962" r="2.5" fill="#CCBB44" /><circle cx="553.8874715" cy="459.36005557728987" r="2.5" fill="#CCBB44" /><circle cx="555.2624705000001" cy="463.12915815113297" r="2.5" fill="#CCBB44" /><circle cx="556.6374695" cy="469.43836677332814" r="2.5" fill="#CCBB44" /><circle cx="558.0124685000001" cy="477.14857034515046" r="2.5" fill="#CCBB44" /><circle cx="559.3874675" cy="462.18876964629385" r="2.5" fill="#CCBB44" /><circle cx="560.7624665" cy="463.4950087320632" r="2.5" fill="#CCBB44" /><circle cx="562.1374655" cy="436.9511910978548" r="2.5" fill="#CCBB44" /><circle cx="563.5124645" cy="466.3610935363987" r="2.5" fill="#CCBB44" /><circle cx="564.8874635" cy="438.22991069411177" r="2.5" fill="#CCBB44" /><circle cx="566.2624625" cy="454.2192503852198" r="2.5" fill="#CCBB44" /><circle cx="567.6374615" cy="441.3622960369627" r="2.5" fill="#CCBB44" /><circle cx="569.0124605" cy="466.24839316646046" r="2.5" fill="#CCBB44" /><circle cx="570.3874595" cy="461.82093769796353" r="2.5" fill="#CCBB44" /><circle cx="571.7624585" cy="475.16304727207864" r="2.5" fill="#CCBB44" /><circle cx="573.1374575" cy="464.7928296550894" r="2.5" fill="#CCBB44" /><circle cx="574.5124565" cy="437.9187971695842" r="2.5" fill="#CCBB44" /><circle cx="575.8874555" cy="449.89289978820096" r="2.5" fill="#CCBB44" /><circle cx="577.2624545" cy="466.17654167450024" r="2.5" fill="#CCBB44" /><circle cx="578.6374535" cy="466.8825833644474" r="2.5" fill="#CCBB44" /><circle cx="580.0124524999999" cy="437.32450360120026" r="2.5" fill="#CCBB44" /><circle cx="581.3874515" cy="472.98677945418694" r="2.5" fill="#CCBB44" /><circle cx="582.7624504999999" cy="465.08762448564113" r="2.5" fill="#CCBB44" /><circle cx="584.1374495" cy="475.0755419214661" r="2.5" fill="#CCBB44" /><circle cx="585.5124484999999" cy="471.4750489771637" r="2.5" fill="#CCBB44" /><circle cx="586.8874475" cy="469.9696445102745" r="2.5" fill="#CCBB44" /><circle cx="588.2624464999999" cy="475.83807800201413" r="2.5" fill="#CCBB44" /><circle cx="589.6374455" cy="476.98796452881805" r="2.5" fill="#CCBB44" /><circle cx="591.0124444999999" cy="472.06903105562145" r="2.5" fill="#CCBB44" /><circle cx="592.3874435" cy="477.98147421228293" r="2.5" fill="#CCBB44" /><circle cx="593.7624424999999" cy="444.0483810015018" r="2.5" fill="#CCBB44" /><circle cx="595.1374415" cy="471.15114606989545" r="2.5" fill="#CCBB44" /><circle cx="596.5124404999999" cy="441.3826399333133" r="2.5" fill="#CCBB44" /><text x="162.2" y="511" font-size="12" text-anchor="middle">1</text><text x="323.45" y="511" font-size="12" text-anchor="middle">2</text><text x="454.7" y="511" font-size="12" text-anchor="middle">3</text><text x="555.95" y="511" font-size="12" text-anchor="middle">X</text><text x="312.76248649999997" y="87.48522133708559" font-size="12" text-anchor="middle">2</text><text x="317.5124855" y="73.48522133708559" font-size="12" text-anchor="middle">2</text><text x="319.88748499999997" y="59.48522133708559" font-size="12" text-anchor="middle">2</text><text x="322.2624845" y="86.11844234152682" font-size="12" text-anchor="middle">2</text><text x="324.637484" y="72.11844234152682" font-size="12" text-anchor="middle">2</text><text x="329.387483" y="58.118442341526816" font-size="12" text-anchor="middle">2</text><rect x="677.2" y="34" width="119" height="56" fill="white" /><rect x="677.2" y="34" width="119" height="56" fill="none" stroke="black" stroke-width="1" /><text x="707.2" y="49" font-size="12" text-anchor="start">Genome-wide</text><line x1="687.2" y1="46" x2="699.2" y2="46" stroke="#cc3333" stroke-width="2" stroke-dasharray="4 4" /><text x="707.2" y="67" font-size="12" text-anchor="start">Suggestive</text><line x1="687.2" y1="64" x2="699.2" y2="64" stroke="#888888" stroke-width="2" stroke-dasharray="4 4" /></svg>