<svg xmlns="http://www.w3.org/2000/svg" width="686.2" height="521" font-family="DejaVu Sans, Liberation Sans, Arial, sans-serif" fill="black"><rect width="100%" height="100%" fill="white" /><line x1="72.19999999999999" y1="494" x2="672.2" y2="494" stroke="black" stroke-width="1" /><line x1="72.19999999999999" y1="44" x2="72.19999999999999" y2="494" stroke="black" stroke-width="1" /><line x1="67.19999999999999" y1="494" x2="72.19999999999999" y2="494" stroke="black" stroke-width="1" /><text x="64.19999999999999" y="498.2" font-size="12" text-anchor="end">0</text><line x1="67.19999999999999" y1="404" x2="72.19999999999999" y2="404" stroke="black" stroke-width="1" /><text x="64.19999999999999" y="408.2" font-size="12" text-anchor="end">2</text><line x1="67.19999999999999" y1="314" x2="72.19999999999999" y2="314" stroke="black" stroke-width="1" /><text x="64.19999999999999" y="318.2" font-size="12" text-anchor="end">4</text><line x1="67.19999999999999" y1="224" x2="72.19999999999999" y2="224" stroke="black" stroke-width="1" /><text x="64.19999999999999" y="228.2" font-size="12" text-anchor="end">6</text><line x1="67.19999999999999" y1="134" x2="72.19999999999999" y2="134" stroke="black" stroke-width="1" /><text x="64.19999999999999" y="138.2" font-size="12" text-anchor="end">8</text><line x1="67.19999999999999" y1="44" x2="72.19999999999999" y2="44" stroke="black" stroke-width="1" /><text x="64.19999999999999" y="48.2" font-size="12" text-anchor="end">10</text><text x="14" y="260.5" font-size="14" text-anchor="middle" transform="rotate(-90,14,260.5)">−log₁₀(p-value)</text><text x="343.1" y="22" font-size="18" text-anchor="middle">Manhattan — Gene-name Labels</text><line x1="72.19999999999999" y1="165.45365019512087" x2="672.2" y2="165.45365019512087" stroke="#cc3333" stroke-width="1" stroke-dasharray="4 4" /><line x1="72.19999999999999" y1="269" x2="672.2" y2="269" stroke="#888888" stroke-width="1" stroke-dasharray="4 4" /><line x1="312.2" y1="44" x2="312.2" y2="494" stroke="#ccc" stroke-width="0.5" /><line x1="512.1999999999999" y1="44" x2="512.1999999999999" y2="494" stroke="#ccc" stroke-width="0.5" /><circle cx="92.19999999999999" cy="477.0462180679055" r="2.5" fill="steelblue" /><circle cx="112.19999999999999" cy="460.48726272964876" r="2.5" fill="steelblue" /><circle cx="132.2" cy="484.3398425754845" r="2.5" fill="steelblue" /><circle cx="152.2" cy="57.546349804879185" r="2.5" fill="steelblue" /><circle cx="172.2" cy="155.47045646238485" r="2.5" fill="steelblue" /><circle cx="192.2" cy="446.94091292476963" r="2.5" fill="steelblue" /><circle cx="212.2" cy="482.316321027241" r="2.5" fill="steelblue" /><circle cx="232.2" cy="472.33312729450495" r="2.5" fill="steelblue" /><circle cx="312.2" cy="487.3066256923584" r="2.5" fill="#5aadcb" /><circle cx="332.2" cy="466.9073003902417" r="2.5" fill="#5aadcb" /><circle cx="352.2" cy="120.45365019512087" r="2.5" fill="#5aadcb" /><circle cx="372.2" cy="161.0926996097583" r="2.5" fill="#5aadcb" /><circle cx="392.2" cy="454.12745085380766" r="2.5" fill="#5aadcb" /><circle cx="412.2" cy="479.6558556819014" r="2.5" fill="#5aadcb" /><circle cx="512.1999999999999" cy="484.65762602742143" r="2.5" fill="steelblue" /><circle cx="532.2" cy="475.09026184775644" r="2.5" fill="steelblue" /><circle cx="552.2" cy="155.47045646238485" r="2.5" fill="steelblue" /><circle cx="572.2" cy="89" r="2.5" fill="steelblue" /><circle cx="592.2" cy="442.0294118006416" r="2.5" fill="steelblue" /><circle cx="612.2" cy="480.84065792440714" r="2.5" fill="steelblue" /><text x="162.2" y="511" font-size="12" text-anchor="middle">1</text><text x="362.2" y="511" font-size="12" text-anchor="middle">2</text><text x="562.2" y="511" font-size="12" text-anchor="middle">3</text><line x1="162.2" y1="43.546349804879185" x2="155.396810065455" y2="53.07081571324214" stroke="#666666" stroke-width="0.8" /><text x="162.2" y="43.546349804879185" font-size="12" text-anchor="start">BRCA2</text><line x1="582.2" y1="75" x2="575.396810065455" y2="84.52446590836296" stroke="#666666" stroke-width="0.8" /><text x="582.2" y="75" font-size="12" text-anchor="start">EGFR</text><line x1="362.2" y1="106.45365019512087" x2="355.39681006545504" y2="115.97811610348383" stroke="#666666" stroke-width="0.8" /><text x="362.2" y="106.45365019512087" font-size="12" text-anchor="start">TP53</text><line x1="182.2" y1="141.47045646238485" x2="175.396810065455" y2="150.99492237074782" stroke="#666666" stroke-width="0.8" /><text x="182.2" y="141.47045646238485" font-size="12" text-anchor="start">1</text><line x1="562.2" y1="141.47045646238485" x2="555.396810065455" y2="150.99492237074782" stroke="#666666" stroke-width="0.8" /><text x="562.2" y="141.47045646238485" font-size="12" text-anchor="start">3</text></svg>